<svg xmlns="http://www.w3.org/2000/svg" width="760" height="760" viewBox="0 0 760 760">
<rect width="760" height="760" fill="#161616"/>
<text x="24" y="32" fill="#dedede" font-family="monospace" font-size="15">S3G VOX / THROAT</text>
<text x="684" y="724" text-anchor="end" fill="#858585" font-family="monospace" font-size="11">U / CLOSURE</text>
<text x="24" y="72" fill="#858585" font-family="monospace" font-size="11">V / SUBHARMONIC BODY</text>
<rect x="76" y="72" width="152" height="152" fill="#0b0b0b" stroke="#444"/>
<line x1="84" y1="148.00" x2="220" y2="148.00" stroke="#292929"/>
<path d="M84.00,139.97 L85.07,138.38 L86.14,136.85 L87.21,135.42 L88.28,134.10 L89.35,132.89 L90.43,131.80 L91.50,130.84 L92.57,130.01 L93.64,129.29 L94.71,128.69 L95.78,128.20 L96.85,127.80 L97.92,127.50 L98.99,127.28 L100.06,127.15 L101.13,127.08 L102.20,127.08 L103.28,127.14 L104.35,127.25 L105.42,127.39 L106.49,127.57 L107.56,127.78 L108.63,128.00 L109.70,128.22 L110.77,128.44 L111.84,128.64 L112.91,128.82 L113.98,128.96 L115.06,129.05 L116.13,129.10 L117.20,129.09 L118.27,129.03 L119.34,128.91 L120.41,128.73 L121.48,128.50 L122.55,142.98 L123.62,142.48 L124.69,141.93 L125.76,141.34 L126.83,140.73 L127.91,140.11 L128.98,139.50 L130.05,138.91 L131.12,138.37 L132.19,137.88 L133.26,137.47 L134.33,137.14 L135.40,136.90 L136.47,136.77 L137.54,136.74 L138.61,136.84 L139.69,137.07 L140.76,137.42 L141.83,137.91 L142.90,138.54 L143.97,139.31 L145.04,140.21 L146.11,141.25 L147.18,142.42 L148.25,143.69 L149.32,145.07 L150.39,146.52 L151.46,148.03 L152.54,149.57 L153.61,151.11 L154.68,152.63 L155.75,154.09 L156.82,155.49 L157.89,156.79 L158.96,157.98 L160.03,159.05 L161.10,160.00 L162.17,160.82 L163.24,161.51 L164.31,162.07 L165.39,162.50 L166.46,162.82 L167.53,163.02 L168.60,163.12 L169.67,163.12 L170.74,163.03 L171.81,162.87 L172.88,162.63 L173.95,162.34 L175.02,162.01 L176.09,161.64 L177.17,161.27 L178.24,160.89 L179.31,160.53 L180.38,160.20 L181.45,159.92 L182.52,159.69 L183.59,159.53 L184.66,159.45 L185.73,159.45 L186.80,159.54 L187.87,159.71 L188.94,159.98 L190.02,160.32 L191.09,160.73 L192.16,161.20 L193.23,161.73 L194.30,162.29 L195.37,162.87 L196.44,163.46 L197.51,164.04 L198.58,164.60 L199.65,165.12 L200.72,165.59 L201.80,166.01 L202.87,166.36 L203.94,166.63 L205.01,166.82 L206.08,166.93 L207.15,166.94 L208.22,166.85 L209.29,166.67 L210.36,166.38 L211.43,165.98 L212.50,165.48 L213.57,164.86 L214.65,164.14 L215.72,163.31 L216.79,162.38 L217.86,161.36 L218.93,160.25 L220.00,159.08" fill="none" stroke="#e0e0e0" stroke-width="1.4"/>
<text x="83" y="86" fill="#666" font-family="monospace" font-size="9">01</text>
<rect x="228" y="72" width="152" height="152" fill="#0b0b0b" stroke="#444"/>
<line x1="236" y1="148.00" x2="372" y2="148.00" stroke="#292929"/>
<path d="M236.00,139.96 L237.07,138.48 L238.14,137.15 L239.21,135.98 L240.28,134.97 L241.35,134.12 L242.43,133.40 L243.50,132.81 L244.57,132.33 L245.64,131.94 L246.71,131.62 L247.78,131.38 L248.85,131.19 L249.92,131.05 L250.99,130.96 L252.06,130.90 L253.13,130.87 L254.20,130.87 L255.28,130.89 L256.35,130.94 L257.42,131.01 L258.49,131.09 L259.56,131.18 L260.63,131.29 L261.70,131.39 L262.77,131.50 L263.84,131.60 L264.91,131.69 L265.98,131.76 L267.06,131.81 L268.13,131.83 L269.20,131.83 L270.27,131.80 L271.34,131.73 L272.41,131.64 L273.48,131.53 L274.55,131.40 L275.62,131.25 L276.69,131.09 L277.76,130.93 L278.83,130.78 L279.91,130.63 L280.98,130.49 L282.05,130.36 L283.12,130.24 L284.19,130.15 L285.26,130.07 L286.33,130.00 L287.40,129.96 L288.47,129.94 L289.54,137.06 L290.61,137.14 L291.69,137.33 L292.76,137.64 L293.83,138.07 L294.90,138.63 L295.97,139.34 L297.04,140.20 L298.11,141.21 L299.18,142.39 L300.25,143.72 L301.32,145.19 L302.39,146.77 L303.46,148.44 L304.54,150.15 L305.61,151.85 L306.68,153.50 L307.75,155.07 L308.82,156.52 L309.89,157.83 L310.96,158.99 L312.03,159.99 L313.10,160.84 L314.17,161.55 L315.24,162.13 L316.31,162.59 L317.39,162.93 L318.46,163.18 L319.53,163.33 L320.60,163.41 L321.67,163.41 L322.74,163.34 L323.81,163.21 L324.88,163.03 L325.95,162.80 L327.02,162.54 L328.09,162.24 L329.17,161.93 L330.24,161.61 L331.31,161.30 L332.38,161.02 L333.45,160.77 L334.52,160.57 L335.59,160.42 L336.66,160.35 L337.73,160.35 L338.80,160.43 L339.87,160.59 L340.94,160.82 L342.02,161.12 L343.09,161.48 L344.16,161.88 L345.23,162.31 L346.30,162.76 L347.37,163.22 L348.44,163.66 L349.51,164.09 L350.58,164.48 L351.65,164.84 L352.72,165.16 L353.80,165.43 L354.87,165.65 L355.94,165.81 L357.01,165.93 L358.08,165.99 L359.15,166.00 L360.22,165.95 L361.29,165.84 L362.36,165.66 L363.43,165.41 L364.50,165.08 L365.57,164.67 L366.65,164.16 L367.72,163.55 L368.79,162.83 L369.86,162.00 L370.93,161.06 L372.00,160.02" fill="none" stroke="#e0e0e0" stroke-width="1.4"/>
<text x="235" y="86" fill="#666" font-family="monospace" font-size="9">02</text>
<rect x="380" y="72" width="152" height="152" fill="#0b0b0b" stroke="#444"/>
<line x1="388" y1="148.00" x2="524" y2="148.00" stroke="#292929"/>
<path d="M388.00,139.29 L389.07,137.94 L390.14,136.83 L391.21,135.93 L392.28,135.22 L393.35,134.67 L394.43,134.24 L395.50,133.91 L396.57,133.66 L397.64,133.47 L398.71,133.33 L399.78,133.22 L400.85,133.14 L401.92,133.08 L402.99,133.04 L404.06,133.02 L405.13,133.01 L406.20,133.01 L407.28,133.02 L408.35,133.04 L409.42,133.06 L410.49,133.10 L411.56,133.14 L412.63,133.18 L413.70,133.22 L414.77,133.27 L415.84,133.32 L416.91,133.36 L417.98,133.39 L419.06,133.41 L420.13,133.42 L421.20,133.42 L422.27,133.40 L423.34,133.38 L424.41,133.34 L425.48,133.28 L426.55,133.23 L427.62,133.16 L428.69,133.10 L429.76,133.03 L430.83,132.97 L431.91,132.92 L432.98,132.87 L434.05,132.82 L435.12,132.78 L436.19,132.75 L437.26,132.72 L438.33,132.70 L439.40,132.69 L440.47,132.68 L441.54,132.68 L442.61,132.69 L443.69,132.70 L444.76,132.72 L445.83,132.75 L446.90,132.79 L447.97,132.85 L449.04,132.93 L450.11,133.03 L451.18,133.16 L452.25,133.32 L453.32,133.54 L454.39,133.82 L455.46,134.17 L456.54,150.45 L457.61,152.43 L458.68,154.31 L459.75,156.04 L460.82,157.58 L461.89,158.90 L462.96,160.02 L464.03,160.93 L465.10,161.67 L466.17,162.26 L467.24,162.71 L468.31,163.06 L469.39,163.32 L470.46,163.50 L471.53,163.61 L472.60,163.66 L473.67,163.66 L474.74,163.61 L475.81,163.52 L476.88,163.39 L477.95,163.22 L479.02,163.02 L480.09,162.80 L481.17,162.56 L482.24,162.31 L483.31,162.05 L484.38,161.82 L485.45,161.61 L486.52,161.43 L487.59,161.31 L488.66,161.25 L489.73,161.25 L490.80,161.32 L491.87,161.45 L492.94,161.65 L494.02,161.90 L495.09,162.19 L496.16,162.52 L497.23,162.85 L498.30,163.19 L499.37,163.52 L500.44,163.84 L501.51,164.12 L502.58,164.38 L503.65,164.60 L504.72,164.79 L505.80,164.95 L506.87,165.08 L507.94,165.17 L509.01,165.23 L510.08,165.27 L511.15,165.27 L512.22,165.24 L513.29,165.18 L514.36,165.08 L515.43,164.94 L516.50,164.75 L517.57,164.50 L518.65,164.17 L519.72,163.76 L520.79,163.25 L521.86,162.62 L522.93,161.85 L524.00,160.95" fill="none" stroke="#e0e0e0" stroke-width="1.4"/>
<text x="387" y="86" fill="#666" font-family="monospace" font-size="9">03</text>
<rect x="532" y="72" width="152" height="152" fill="#0b0b0b" stroke="#444"/>
<line x1="540" y1="148.00" x2="676" y2="148.00" stroke="#292929"/>
<path d="M540.00,139.61 L541.07,138.40 L542.14,137.48 L543.21,136.80 L544.28,136.31 L545.35,135.96 L546.43,135.71 L547.50,135.53 L548.57,135.40 L549.64,135.31 L550.71,135.25 L551.78,135.20 L552.85,135.17 L553.92,135.14 L554.99,135.13 L556.06,135.12 L557.13,135.11 L558.20,135.11 L559.28,135.12 L560.35,135.12 L561.42,135.14 L562.49,135.15 L563.56,135.16 L564.63,135.18 L565.70,135.20 L566.77,135.22 L567.84,135.24 L568.91,135.26 L569.98,135.27 L571.06,135.28 L572.13,135.29 L573.20,135.29 L574.27,135.28 L575.34,135.27 L576.41,135.25 L577.48,135.23 L578.55,135.20 L579.62,135.18 L580.69,135.15 L581.76,135.12 L582.83,135.10 L583.91,135.08 L584.98,135.06 L586.05,135.04 L587.12,135.03 L588.19,135.02 L589.26,135.01 L590.33,135.01 L591.40,135.00 L592.47,135.00 L593.54,135.00 L594.61,135.00 L595.69,135.00 L596.76,135.01 L597.83,135.02 L598.90,135.03 L599.97,135.05 L601.04,135.08 L602.11,135.12 L603.18,135.17 L604.25,135.25 L605.32,135.35 L606.39,135.48 L607.46,135.67 L608.54,135.93 L609.61,136.27 L610.68,136.71 L611.75,137.27 L612.82,137.96 L613.89,138.78 L614.96,139.71 L616.03,140.72 L617.10,141.78 L618.17,142.82 L619.24,143.79 L620.31,144.66 L621.39,145.37 L622.46,166.01 L623.53,166.09 L624.60,166.13 L625.67,166.13 L626.74,166.09 L627.81,166.03 L628.88,165.94 L629.95,165.82 L631.02,165.67 L632.09,165.51 L633.17,165.32 L634.24,165.12 L635.31,164.92 L636.38,164.73 L637.45,164.55 L638.52,164.41 L639.59,164.30 L640.66,164.25 L641.73,164.25 L642.80,164.31 L643.87,164.43 L644.94,164.59 L646.02,164.80 L647.09,165.04 L648.16,165.29 L649.23,165.55 L650.30,165.80 L651.37,166.03 L652.44,166.25 L653.51,166.44 L654.58,166.60 L655.65,166.74 L656.72,166.85 L657.80,166.94 L658.87,167.01 L659.94,167.06 L661.01,167.09 L662.08,167.11 L663.15,167.11 L664.22,167.10 L665.29,167.06 L666.36,167.01 L667.43,166.93 L668.50,166.82 L669.57,166.67 L670.65,166.47 L671.72,166.19 L672.79,165.84 L673.86,165.37 L674.93,164.76 L676.00,163.99" fill="none" stroke="#e0e0e0" stroke-width="1.4"/>
<text x="539" y="86" fill="#666" font-family="monospace" font-size="9">04</text>
<rect x="76" y="224" width="152" height="152" fill="#0b0b0b" stroke="#444"/>
<line x1="84" y1="300.00" x2="220" y2="300.00" stroke="#292929"/>
<path d="M84.00,288.62 L85.07,287.01 L86.14,285.55 L87.21,284.26 L88.28,283.18 L89.35,282.31 L90.43,281.64 L91.50,281.16 L92.57,280.86 L93.64,280.73 L94.71,280.74 L95.78,280.87 L96.85,281.11 L97.92,281.43 L98.99,281.79 L100.06,282.17 L101.13,282.52 L102.20,282.81 L103.28,282.99 L104.35,283.05 L105.42,282.95 L106.49,282.69 L107.56,282.29 L108.63,281.76 L109.70,281.12 L110.77,280.43 L111.84,279.72 L112.91,279.03 L113.98,278.38 L115.06,277.81 L116.13,277.33 L117.20,276.94 L118.27,276.66 L119.34,276.49 L120.41,276.42 L121.48,276.45 L122.55,285.43 L123.62,285.95 L124.69,286.69 L125.76,287.63 L126.83,288.74 L127.91,289.98 L128.98,291.30 L130.05,292.64 L131.12,293.93 L132.19,295.12 L133.26,296.14 L134.33,296.95 L135.40,297.53 L136.47,297.86 L137.54,297.95 L138.61,297.82 L139.69,297.50 L140.76,297.03 L141.83,296.47 L142.90,295.88 L143.97,295.32 L145.04,294.85 L146.11,294.52 L147.18,294.37 L148.25,294.46 L149.32,294.79 L150.39,295.41 L151.46,296.30 L152.54,297.47 L153.61,298.89 L154.68,300.51 L155.75,302.29 L156.82,304.16 L157.89,306.02 L158.96,307.80 L160.03,309.45 L161.10,310.90 L162.17,312.12 L163.24,313.10 L164.31,313.83 L165.39,314.32 L166.46,314.59 L167.53,314.64 L168.60,314.51 L169.67,314.22 L170.74,313.80 L171.81,313.29 L172.88,312.75 L173.95,312.21 L175.02,311.73 L176.09,311.37 L177.17,311.16 L178.24,311.13 L179.31,311.31 L180.38,311.71 L181.45,312.30 L182.52,313.06 L183.59,313.96 L184.66,314.93 L185.73,315.93 L186.80,316.90 L187.87,317.80 L188.94,318.60 L190.02,319.27 L191.09,319.79 L192.16,320.16 L193.23,320.37 L194.30,320.42 L195.37,320.31 L196.44,320.04 L197.51,319.62 L198.58,319.04 L199.65,318.31 L200.72,317.47 L201.80,316.53 L202.87,315.54 L203.94,314.54 L205.01,313.59 L206.08,312.73 L207.15,312.03 L208.22,311.52 L209.29,311.22 L210.36,311.14 L211.43,311.27 L212.50,311.59 L213.57,312.06 L214.65,312.63 L215.72,313.25 L216.79,313.88 L217.86,314.45 L218.93,314.93 L220.00,315.29" fill="none" stroke="#e0e0e0" stroke-width="1.4"/>
<text x="83" y="238" fill="#666" font-family="monospace" font-size="9">05</text>
<rect x="228" y="224" width="152" height="152" fill="#0b0b0b" stroke="#444"/>
<line x1="236" y1="300.00" x2="372" y2="300.00" stroke="#292929"/>
<path d="M236.00,288.40 L237.07,287.08 L238.14,286.00 L239.21,285.13 L240.28,284.47 L241.35,283.98 L242.43,283.63 L243.50,283.39 L244.57,283.25 L245.64,283.18 L246.71,283.19 L247.78,283.25 L248.85,283.36 L249.92,283.52 L250.99,283.71 L252.06,283.90 L253.13,284.10 L254.20,284.26 L255.28,284.36 L256.35,284.39 L257.42,284.34 L258.49,284.19 L259.56,283.97 L260.63,283.69 L261.70,283.37 L262.77,283.05 L263.84,282.74 L264.91,282.47 L265.98,282.23 L267.06,282.04 L268.13,281.89 L269.20,281.77 L270.27,281.70 L271.34,281.65 L272.41,281.63 L273.48,281.64 L274.55,281.68 L275.62,281.74 L276.69,281.85 L277.76,281.99 L278.83,282.18 L279.91,282.41 L280.98,282.69 L282.05,283.02 L283.12,283.37 L284.19,283.73 L285.26,284.08 L286.33,284.38 L287.40,284.61 L288.47,284.75 L289.54,298.07 L290.61,297.92 L291.69,297.55 L292.76,297.01 L293.83,296.37 L294.90,295.70 L295.97,295.08 L297.04,294.55 L298.11,294.19 L299.18,294.03 L300.25,294.12 L301.32,294.49 L302.39,295.17 L303.46,296.17 L304.54,297.51 L305.61,299.16 L306.68,301.07 L307.75,303.16 L308.82,305.30 L309.89,307.37 L310.96,309.27 L312.03,310.91 L313.10,312.26 L314.17,313.33 L315.24,314.14 L316.31,314.71 L317.39,315.08 L318.46,315.27 L319.53,315.31 L320.60,315.21 L321.67,315.00 L322.74,314.68 L323.81,314.29 L324.88,313.85 L325.95,313.41 L327.02,313.00 L328.09,312.68 L329.17,312.49 L330.24,312.47 L331.31,312.63 L332.38,312.98 L333.45,313.48 L334.52,314.11 L335.59,314.80 L336.66,315.51 L337.73,316.19 L338.80,316.81 L339.87,317.34 L340.94,317.77 L342.02,318.11 L343.09,318.36 L344.16,318.52 L345.23,318.62 L346.30,318.64 L347.37,318.59 L348.44,318.47 L349.51,318.27 L350.58,317.99 L351.65,317.62 L352.72,317.15 L353.80,316.58 L354.87,315.94 L355.94,315.23 L357.01,314.52 L358.08,313.84 L359.15,313.26 L360.22,312.82 L361.29,312.55 L362.36,312.48 L363.43,312.60 L364.50,312.88 L365.57,313.28 L366.65,313.76 L367.72,314.26 L368.79,314.74 L369.86,315.17 L370.93,315.52 L372.00,315.77" fill="none" stroke="#e0e0e0" stroke-width="1.4"/>
<text x="235" y="238" fill="#666" font-family="monospace" font-size="9">06</text>
<rect x="380" y="224" width="152" height="152" fill="#0b0b0b" stroke="#444"/>
<line x1="388" y1="300.00" x2="524" y2="300.00" stroke="#292929"/>
<path d="M388.00,288.48 L389.07,287.52 L390.14,286.81 L391.21,286.30 L392.28,285.95 L393.35,285.71 L394.43,285.55 L395.50,285.45 L396.57,285.40 L397.64,285.37 L398.71,285.37 L399.78,285.40 L400.85,285.44 L401.92,285.51 L402.99,285.59 L404.06,285.68 L405.13,285.77 L406.20,285.85 L407.28,285.90 L408.35,285.91 L409.42,285.88 L410.49,285.81 L411.56,285.71 L412.63,285.58 L413.70,285.45 L414.77,285.32 L415.84,285.20 L416.91,285.11 L417.98,285.03 L419.06,284.98 L420.13,284.93 L421.20,284.90 L422.27,284.89 L423.34,284.87 L424.41,284.87 L425.48,284.87 L426.55,284.88 L427.62,284.90 L428.69,284.92 L429.76,284.96 L430.83,285.02 L431.91,285.09 L432.98,285.18 L434.05,285.30 L435.12,285.45 L436.19,285.60 L437.26,285.76 L438.33,285.91 L439.40,286.02 L440.47,286.09 L441.54,286.11 L442.61,286.08 L443.69,286.02 L444.76,285.92 L445.83,285.82 L446.90,285.72 L447.97,285.63 L449.04,285.56 L450.11,285.52 L451.18,285.50 L452.25,285.51 L453.32,285.56 L454.39,285.64 L455.46,285.79 L456.54,297.55 L457.61,299.49 L458.68,301.76 L459.75,304.23 L460.82,306.69 L461.89,308.97 L462.96,310.90 L464.03,312.44 L465.10,313.61 L466.17,314.46 L467.24,315.05 L468.31,315.44 L469.39,315.69 L470.46,315.81 L471.53,315.83 L472.60,315.77 L473.67,315.64 L474.74,315.43 L475.81,315.16 L476.88,314.85 L477.95,314.52 L479.02,314.20 L480.09,313.95 L481.17,313.80 L482.24,313.78 L483.31,313.91 L484.38,314.19 L485.45,314.57 L486.52,315.03 L487.59,315.51 L488.66,315.96 L489.73,316.37 L490.80,316.70 L491.87,316.97 L492.94,317.17 L494.02,317.31 L495.09,317.42 L496.16,317.48 L497.23,317.52 L498.30,317.53 L499.37,317.51 L500.44,317.46 L501.51,317.38 L502.58,317.27 L503.65,317.10 L504.72,316.87 L505.80,316.58 L506.87,316.22 L507.94,315.79 L509.01,315.32 L510.08,314.84 L511.15,314.40 L512.22,314.06 L513.29,313.85 L514.36,313.79 L515.43,313.88 L516.50,314.11 L517.57,314.42 L518.65,314.77 L519.72,315.13 L520.79,315.47 L521.86,315.75 L522.93,315.96 L524.00,316.12" fill="none" stroke="#e0e0e0" stroke-width="1.4"/>
<text x="387" y="238" fill="#666" font-family="monospace" font-size="9">07</text>
<rect x="532" y="224" width="152" height="152" fill="#0b0b0b" stroke="#444"/>
<line x1="540" y1="300.00" x2="676" y2="300.00" stroke="#292929"/>
<path d="M540.00,289.04 L541.07,288.36 L542.14,287.91 L543.21,287.63 L544.28,287.45 L545.35,287.33 L546.43,287.26 L547.50,287.22 L548.57,287.20 L549.64,287.19 L550.71,287.19 L551.78,287.20 L552.85,287.22 L553.92,287.24 L554.99,287.28 L556.06,287.32 L557.13,287.36 L558.20,287.39 L559.28,287.42 L560.35,287.43 L561.42,287.41 L562.49,287.38 L563.56,287.33 L564.63,287.27 L565.70,287.22 L566.77,287.17 L567.84,287.12 L568.91,287.09 L569.98,287.07 L571.06,287.05 L572.13,287.04 L573.20,287.03 L574.27,287.03 L575.34,287.02 L576.41,287.02 L577.48,287.02 L578.55,287.02 L579.62,287.03 L580.69,287.04 L581.76,287.05 L582.83,287.06 L583.91,287.08 L584.98,287.12 L586.05,287.16 L587.12,287.22 L588.19,287.28 L589.26,287.35 L590.33,287.42 L591.40,287.48 L592.47,287.52 L593.54,287.53 L594.61,287.51 L595.69,287.48 L596.76,287.43 L597.83,287.38 L598.90,287.34 L599.97,287.30 L601.04,287.27 L602.11,287.25 L603.18,287.24 L604.25,287.24 L605.32,287.26 L606.39,287.30 L607.46,287.37 L608.54,287.47 L609.61,287.64 L610.68,287.91 L611.75,288.33 L612.82,288.96 L613.89,289.88 L614.96,291.16 L616.03,292.79 L617.10,294.67 L618.17,296.64 L619.24,298.47 L620.31,299.99 L621.39,301.06 L622.46,317.93 L623.53,317.95 L624.60,317.91 L625.67,317.82 L626.74,317.69 L627.81,317.51 L628.88,317.30 L629.95,317.06 L631.02,316.83 L632.09,316.64 L633.17,316.52 L634.24,316.50 L635.31,316.61 L636.38,316.82 L637.45,317.10 L638.52,317.42 L639.59,317.74 L640.66,318.02 L641.73,318.26 L642.80,318.43 L643.87,318.56 L644.94,318.66 L646.02,318.72 L647.09,318.76 L648.16,318.79 L649.23,318.80 L650.30,318.80 L651.37,318.79 L652.44,318.78 L653.51,318.75 L654.58,318.70 L655.65,318.63 L656.72,318.52 L657.80,318.37 L658.87,318.17 L659.94,317.92 L661.01,317.62 L662.08,317.29 L663.15,316.98 L664.22,316.72 L665.29,316.55 L666.36,316.51 L667.43,316.58 L668.50,316.75 L669.57,316.99 L670.65,317.25 L671.72,317.50 L672.79,317.72 L673.86,317.89 L674.93,318.03 L676.00,318.11" fill="none" stroke="#e0e0e0" stroke-width="1.4"/>
<text x="539" y="238" fill="#666" font-family="monospace" font-size="9">08</text>
<rect x="76" y="376" width="152" height="152" fill="#0b0b0b" stroke="#444"/>
<line x1="84" y1="452.00" x2="220" y2="452.00" stroke="#292929"/>
<path d="M84.00,437.97 L85.07,436.40 L86.14,435.05 L87.21,433.98 L88.28,433.21 L89.35,432.73 L90.43,432.52 L91.50,432.56 L92.57,432.82 L93.64,433.26 L94.71,433.82 L95.78,434.42 L96.85,434.98 L97.92,435.40 L98.99,435.59 L100.06,435.50 L101.13,435.12 L102.20,434.47 L103.28,433.64 L104.35,432.70 L105.42,431.77 L106.49,430.91 L107.56,430.20 L108.63,429.65 L109.70,429.28 L110.77,429.09 L111.84,429.08 L112.91,429.24 L113.98,429.57 L115.06,430.05 L116.13,430.66 L117.20,431.36 L118.27,432.08 L119.34,432.74 L120.41,433.27 L121.48,433.58 L122.55,445.68 L123.62,445.38 L124.69,444.71 L125.76,443.79 L126.83,442.73 L127.91,441.66 L128.98,440.72 L130.05,440.02 L131.12,439.63 L132.19,439.61 L133.26,440.00 L134.33,440.80 L135.40,442.02 L136.47,443.60 L137.54,445.45 L138.61,447.46 L139.69,449.46 L140.76,451.28 L141.83,452.80 L142.90,453.91 L143.97,454.58 L145.04,454.81 L146.11,454.64 L147.18,454.14 L148.25,453.43 L149.32,452.63 L150.39,451.89 L151.46,451.34 L152.54,451.11 L153.61,451.28 L154.68,451.91 L155.75,452.99 L156.82,454.48 L157.89,456.28 L158.96,458.24 L160.03,460.21 L161.10,462.03 L162.17,463.59 L163.24,464.82 L164.31,465.70 L165.39,466.23 L166.46,466.42 L167.53,466.32 L168.60,465.97 L169.67,465.41 L170.74,464.74 L171.81,464.05 L172.88,463.44 L173.95,463.03 L175.02,462.90 L176.09,463.11 L177.17,463.66 L178.24,464.49 L179.31,465.54 L180.38,466.68 L181.45,467.80 L182.52,468.81 L183.59,469.65 L184.66,470.28 L185.73,470.69 L186.80,470.87 L187.87,470.83 L188.94,470.58 L190.02,470.13 L191.09,469.50 L192.16,468.73 L193.23,467.88 L194.30,467.04 L195.37,466.30 L196.44,465.76 L197.51,465.49 L198.58,465.52 L199.65,465.85 L200.72,466.41 L201.80,467.12 L202.87,467.88 L203.94,468.59 L205.01,469.19 L206.08,469.61 L207.15,469.83 L208.22,469.83 L209.29,469.58 L210.36,469.08 L211.43,468.33 L212.50,467.32 L213.57,466.11 L214.65,464.76 L215.72,463.38 L216.79,462.09 L217.86,461.03 L218.93,460.31 L220.00,459.96" fill="none" stroke="#e0e0e0" stroke-width="1.4"/>
<text x="83" y="390" fill="#666" font-family="monospace" font-size="9">09</text>
<rect x="228" y="376" width="152" height="152" fill="#0b0b0b" stroke="#444"/>
<line x1="236" y1="452.00" x2="372" y2="452.00" stroke="#292929"/>
<path d="M236.00,437.96 L237.07,436.82 L238.14,435.96 L239.21,435.35 L240.28,434.95 L241.35,434.71 L242.43,434.62 L243.50,434.64 L244.57,434.76 L245.64,434.97 L246.71,435.26 L247.78,435.59 L248.85,435.92 L249.92,436.17 L250.99,436.29 L252.06,436.24 L253.13,436.00 L254.20,435.62 L255.28,435.17 L256.35,434.70 L257.42,434.29 L258.49,433.95 L259.56,433.69 L260.63,433.52 L261.70,433.41 L262.77,433.35 L263.84,433.35 L264.91,433.40 L265.98,433.49 L267.06,433.64 L268.13,433.85 L269.20,434.12 L270.27,434.42 L271.34,434.72 L272.41,434.98 L273.48,435.14 L274.55,435.17 L275.62,435.07 L276.69,434.87 L277.76,434.61 L278.83,434.34 L279.91,434.10 L280.98,433.91 L282.05,433.78 L283.12,433.71 L284.19,433.71 L285.26,433.78 L286.33,433.93 L287.40,434.18 L288.47,434.56 L289.54,445.13 L290.61,447.44 L291.69,449.82 L292.76,452.02 L293.83,453.84 L294.90,455.17 L295.97,455.95 L297.04,456.21 L298.11,456.02 L299.18,455.44 L300.25,454.60 L301.32,453.65 L302.39,452.76 L303.46,452.10 L304.54,451.82 L305.61,452.02 L306.68,452.78 L307.75,454.08 L308.82,455.84 L309.89,457.89 L310.96,460.00 L312.03,461.95 L313.10,463.58 L314.17,464.84 L315.24,465.73 L316.31,466.32 L317.39,466.65 L318.46,466.76 L319.53,466.70 L320.60,466.48 L321.67,466.13 L322.74,465.67 L323.81,465.18 L324.88,464.72 L325.95,464.40 L327.02,464.30 L328.09,464.46 L329.17,464.88 L330.24,465.50 L331.31,466.21 L332.38,466.92 L333.45,467.54 L334.52,468.04 L335.59,468.41 L336.66,468.67 L337.73,468.82 L338.80,468.89 L339.87,468.87 L340.94,468.78 L342.02,468.61 L343.09,468.35 L344.16,468.00 L345.23,467.58 L346.30,467.12 L347.37,466.69 L348.44,466.35 L349.51,466.18 L350.58,466.20 L351.65,466.41 L352.72,466.76 L353.80,467.17 L354.87,467.58 L355.94,467.94 L357.01,468.21 L358.08,468.40 L359.15,468.49 L360.22,468.49 L361.29,468.39 L362.36,468.17 L363.43,467.81 L364.50,467.28 L365.57,466.57 L366.65,465.68 L367.72,464.67 L368.79,463.63 L369.86,462.71 L370.93,462.03 L372.00,461.71" fill="none" stroke="#e0e0e0" stroke-width="1.4"/>
<text x="235" y="390" fill="#666" font-family="monospace" font-size="9">10</text>
<rect x="380" y="376" width="152" height="152" fill="#0b0b0b" stroke="#444"/>
<line x1="388" y1="452.00" x2="524" y2="452.00" stroke="#292929"/>
<path d="M388.00,438.84 L389.07,438.12 L390.14,437.64 L391.21,437.34 L392.28,437.16 L393.35,437.07 L394.43,437.03 L395.50,437.04 L396.57,437.08 L397.64,437.17 L398.71,437.30 L399.78,437.46 L400.85,437.62 L401.92,437.76 L402.99,437.82 L404.06,437.79 L405.13,437.67 L406.20,437.47 L407.28,437.26 L408.35,437.06 L409.42,436.90 L410.49,436.78 L411.56,436.71 L412.63,436.66 L413.70,436.63 L414.77,436.61 L415.84,436.61 L416.91,436.62 L417.98,436.65 L419.06,436.69 L420.13,436.75 L421.20,436.84 L422.27,436.95 L423.34,437.07 L424.41,437.18 L425.48,437.25 L426.55,437.26 L427.62,437.22 L428.69,437.13 L429.76,437.03 L430.83,436.92 L431.91,436.84 L432.98,436.77 L434.05,436.73 L435.12,436.71 L436.19,436.71 L437.26,436.73 L438.33,436.78 L439.40,436.86 L440.47,437.01 L441.54,437.23 L442.61,437.56 L443.69,438.02 L444.76,438.59 L445.83,439.22 L446.90,439.78 L447.97,440.17 L449.04,440.31 L450.11,440.20 L451.18,439.91 L452.25,439.52 L453.32,439.14 L454.39,438.83 L455.46,438.62 L456.54,453.26 L457.61,453.51 L458.68,454.44 L459.75,456.01 L460.82,458.09 L461.89,460.40 L462.96,462.58 L464.03,464.38 L465.10,465.71 L466.17,466.61 L467.24,467.18 L468.31,467.52 L469.39,467.70 L470.46,467.76 L471.53,467.73 L472.60,467.61 L473.67,467.41 L474.74,467.15 L475.81,466.83 L476.88,466.53 L477.95,466.31 L479.02,466.24 L480.09,466.35 L481.17,466.64 L482.24,467.04 L483.31,467.46 L484.38,467.84 L485.45,468.14 L486.52,468.35 L487.59,468.49 L488.66,468.58 L489.73,468.63 L490.80,468.65 L491.87,468.65 L492.94,468.62 L494.02,468.56 L495.09,468.47 L496.16,468.33 L497.23,468.15 L498.30,467.94 L499.37,467.72 L500.44,467.54 L501.51,467.44 L502.58,467.45 L503.65,467.57 L504.72,467.76 L505.80,467.96 L506.87,468.15 L507.94,468.31 L509.01,468.42 L510.08,468.49 L511.15,468.52 L512.22,468.52 L513.29,468.48 L514.36,468.40 L515.43,468.25 L516.50,468.02 L517.57,467.66 L518.65,467.15 L519.72,466.50 L520.79,465.75 L521.86,465.02 L522.93,464.46 L524.00,464.17" fill="none" stroke="#e0e0e0" stroke-width="1.4"/>
<text x="387" y="390" fill="#666" font-family="monospace" font-size="9">11</text>
<rect x="532" y="376" width="152" height="152" fill="#0b0b0b" stroke="#444"/>
<line x1="540" y1="452.00" x2="676" y2="452.00" stroke="#292929"/>
<path d="M540.00,439.77 L541.07,439.34 L542.14,439.08 L543.21,438.94 L544.28,438.86 L545.35,438.82 L546.43,438.81 L547.50,438.81 L548.57,438.83 L549.64,438.87 L550.71,438.92 L551.78,438.99 L552.85,439.07 L553.92,439.14 L554.99,439.17 L556.06,439.16 L557.13,439.09 L558.20,439.00 L559.28,438.90 L560.35,438.82 L561.42,438.76 L562.49,438.72 L563.56,438.70 L564.63,438.68 L565.70,438.68 L566.77,438.67 L567.84,438.67 L568.91,438.68 L569.98,438.68 L571.06,438.69 L572.13,438.71 L573.20,438.74 L574.27,438.78 L575.34,438.83 L576.41,438.87 L577.48,438.90 L578.55,438.90 L579.62,438.89 L580.69,438.85 L581.76,438.81 L582.83,438.77 L583.91,438.74 L584.98,438.72 L586.05,438.71 L587.12,438.70 L588.19,438.70 L589.26,438.71 L590.33,438.72 L591.40,438.75 L592.47,438.80 L593.54,438.89 L594.61,439.04 L595.69,439.28 L596.76,439.61 L597.83,440.01 L598.90,440.41 L599.97,440.70 L601.04,440.81 L602.11,440.72 L603.18,440.50 L604.25,440.23 L605.32,439.96 L606.39,439.76 L607.46,439.63 L608.54,439.58 L609.61,439.61 L610.68,439.76 L611.75,440.08 L612.82,440.65 L613.89,441.66 L614.96,443.31 L616.03,445.77 L617.10,448.95 L618.17,452.39 L619.24,455.45 L620.31,457.71 L621.39,459.06 L622.46,469.68 L623.53,469.66 L624.60,469.60 L625.67,469.50 L626.74,469.35 L627.81,469.17 L628.88,468.98 L629.95,468.83 L631.02,468.78 L632.09,468.86 L633.17,469.05 L634.24,469.29 L635.31,469.52 L636.38,469.72 L637.45,469.85 L638.52,469.94 L639.59,470.00 L640.66,470.03 L641.73,470.04 L642.80,470.05 L643.87,470.05 L644.94,470.04 L646.02,470.02 L647.09,469.99 L648.16,469.94 L649.23,469.86 L650.30,469.77 L651.37,469.66 L652.44,469.57 L653.51,469.51 L654.58,469.52 L655.65,469.58 L656.72,469.68 L657.80,469.78 L658.87,469.86 L659.94,469.93 L661.01,469.97 L662.08,469.99 L663.15,470.01 L664.22,470.01 L665.29,469.99 L666.36,469.96 L667.43,469.90 L668.50,469.80 L669.57,469.63 L670.65,469.35 L671.72,468.95 L672.79,468.44 L673.86,467.90 L674.93,467.45 L676.00,467.21" fill="none" stroke="#e0e0e0" stroke-width="1.4"/>
<text x="539" y="390" fill="#666" font-family="monospace" font-size="9">12</text>
<rect x="76" y="528" width="152" height="152" fill="#0b0b0b" stroke="#444"/>
<line x1="84" y1="604.00" x2="220" y2="604.00" stroke="#292929"/>
<path d="M84.00,588.05 L85.07,586.37 L86.14,585.02 L87.21,584.09 L88.28,583.60 L89.35,583.53 L90.43,583.84 L91.50,584.46 L92.57,585.31 L93.64,586.21 L94.71,586.99 L95.78,587.43 L96.85,587.41 L97.92,586.88 L98.99,585.93 L100.06,584.74 L101.13,583.50 L102.20,582.39 L103.28,581.54 L104.35,580.99 L105.42,580.76 L106.49,580.82 L107.56,581.18 L108.63,581.81 L109.70,582.64 L110.77,583.56 L111.84,584.42 L112.91,585.03 L113.98,585.26 L115.06,585.05 L116.13,584.46 L117.20,583.62 L118.27,582.71 L119.34,581.89 L120.41,581.28 L121.48,580.93 L122.55,589.87 L123.62,590.38 L124.69,591.50 L125.76,593.15 L126.83,595.15 L127.91,597.25 L128.98,599.15 L130.05,600.58 L131.12,601.39 L132.19,601.49 L133.26,600.96 L134.33,599.95 L135.40,598.68 L136.47,597.45 L137.54,596.52 L138.61,596.10 L139.69,596.34 L140.76,597.29 L141.83,598.93 L142.90,601.10 L143.97,603.55 L145.04,605.96 L146.11,608.05 L147.18,609.59 L148.25,610.52 L149.32,610.81 L150.39,610.53 L151.46,609.82 L152.54,608.83 L153.61,607.82 L154.68,607.05 L155.75,606.75 L156.82,607.07 L157.89,608.04 L158.96,609.59 L160.03,611.49 L161.10,613.46 L162.17,615.26 L163.24,616.70 L164.31,617.71 L165.39,618.26 L166.46,618.39 L167.53,618.14 L168.60,617.58 L169.67,616.81 L170.74,615.97 L171.81,615.27 L172.88,614.88 L173.95,614.94 L175.02,615.49 L176.09,616.44 L177.17,617.61 L178.24,618.81 L179.31,619.88 L180.38,620.69 L181.45,621.22 L182.52,621.45 L183.59,621.39 L184.66,621.06 L185.73,620.48 L186.80,619.70 L187.87,618.83 L188.94,618.02 L190.02,617.44 L191.09,617.23 L192.16,617.42 L193.23,617.99 L194.30,618.78 L195.37,619.64 L196.44,620.41 L197.51,620.98 L198.58,621.31 L199.65,621.36 L200.72,621.12 L201.80,620.58 L202.87,619.74 L203.94,618.66 L205.01,617.44 L206.08,616.24 L207.15,615.29 L208.22,614.75 L209.29,614.69 L210.36,615.10 L211.43,615.83 L212.50,616.70 L213.57,617.50 L214.65,618.10 L215.72,618.38 L216.79,618.28 L217.86,617.77 L218.93,616.82 L220.00,615.45" fill="none" stroke="#e0e0e0" stroke-width="1.4"/>
<text x="83" y="542" fill="#666" font-family="monospace" font-size="9">13</text>
<rect x="228" y="528" width="152" height="152" fill="#0b0b0b" stroke="#444"/>
<line x1="236" y1="604.00" x2="372" y2="604.00" stroke="#292929"/>
<path d="M236.00,588.80 L237.07,587.63 L238.14,586.82 L239.21,586.32 L240.28,586.07 L241.35,586.04 L242.43,586.19 L243.50,586.51 L244.57,586.98 L245.64,587.53 L246.71,588.04 L247.78,588.35 L248.85,588.34 L249.92,587.97 L250.99,587.36 L252.06,586.66 L253.13,586.02 L254.20,585.53 L255.28,585.19 L256.35,585.00 L257.42,584.92 L258.49,584.94 L259.56,585.06 L260.63,585.29 L261.70,585.63 L262.77,586.05 L263.84,586.48 L264.91,586.82 L265.98,586.95 L267.06,586.83 L268.13,586.51 L269.20,586.08 L270.27,585.66 L271.34,585.33 L272.41,585.10 L273.48,584.98 L274.55,584.96 L275.62,585.05 L276.69,585.26 L277.76,585.62 L278.83,586.16 L279.91,586.85 L280.98,587.63 L282.05,588.32 L283.12,588.75 L284.19,588.81 L285.26,588.52 L286.33,588.00 L287.40,587.42 L288.47,586.93 L289.54,596.97 L290.61,596.50 L291.69,596.77 L292.76,597.87 L293.83,599.81 L294.90,602.43 L295.97,605.38 L297.04,608.18 L298.11,610.45 L299.18,612.01 L300.25,612.88 L301.32,613.15 L302.39,612.90 L303.46,612.22 L304.54,611.26 L305.61,610.22 L306.68,609.39 L307.75,609.06 L308.82,609.40 L309.89,610.44 L310.96,612.00 L312.03,613.75 L313.10,615.37 L314.17,616.64 L315.24,617.52 L316.31,618.06 L317.39,618.34 L318.46,618.40 L319.53,618.28 L320.60,618.00 L321.67,617.58 L322.74,617.09 L323.81,616.64 L324.88,616.38 L325.95,616.43 L327.02,616.78 L328.09,617.37 L329.17,618.01 L330.24,618.59 L331.31,619.04 L332.38,619.34 L333.45,619.51 L334.52,619.59 L335.59,619.57 L336.66,619.46 L337.73,619.26 L338.80,618.97 L339.87,618.60 L340.94,618.22 L342.02,617.93 L343.09,617.81 L344.16,617.91 L345.23,618.20 L346.30,618.58 L347.37,618.94 L348.44,619.24 L349.51,619.44 L350.58,619.54 L351.65,619.56 L352.72,619.48 L353.80,619.30 L354.87,618.99 L355.94,618.52 L357.01,617.92 L358.08,617.25 L359.15,616.66 L360.22,616.29 L361.29,616.26 L362.36,616.53 L363.43,617.00 L364.50,617.52 L365.57,617.96 L366.65,618.26 L367.72,618.39 L368.79,618.35 L369.86,618.10 L370.93,617.59 L372.00,616.76" fill="none" stroke="#e0e0e0" stroke-width="1.4"/>
<text x="235" y="542" fill="#666" font-family="monospace" font-size="9">14</text>
<rect x="380" y="528" width="152" height="152" fill="#0b0b0b" stroke="#444"/>
<line x1="388" y1="604.00" x2="524" y2="604.00" stroke="#292929"/>
<path d="M388.00,589.82 L389.07,589.10 L390.14,588.67 L391.21,588.43 L392.28,588.33 L393.35,588.31 L394.43,588.38 L395.50,588.52 L396.57,588.75 L397.64,589.05 L398.71,589.34 L399.78,589.53 L400.85,589.52 L401.92,589.30 L402.99,588.95 L404.06,588.59 L405.13,588.30 L406.20,588.11 L407.28,588.00 L408.35,587.93 L409.42,587.91 L410.49,587.92 L411.56,587.95 L412.63,588.03 L413.70,588.15 L414.77,588.32 L415.84,588.51 L416.91,588.67 L417.98,588.74 L419.06,588.68 L420.13,588.52 L421.20,588.33 L422.27,588.16 L423.34,588.04 L424.41,587.96 L425.48,587.93 L426.55,587.92 L427.62,587.95 L428.69,588.02 L429.76,588.15 L430.83,588.36 L431.91,588.69 L432.98,589.10 L434.05,589.51 L435.12,589.78 L436.19,589.82 L437.26,589.63 L438.33,589.31 L439.40,588.98 L440.47,588.72 L441.54,588.56 L442.61,588.49 L443.69,588.53 L444.76,588.69 L445.83,589.04 L446.90,589.68 L447.97,590.74 L449.04,592.28 L450.11,594.17 L451.18,595.99 L452.25,597.27 L453.32,597.70 L454.39,597.30 L455.46,596.28 L456.54,614.19 L457.61,613.16 L458.68,612.30 L459.75,611.94 L460.82,612.31 L461.89,613.39 L462.96,614.88 L464.03,616.38 L465.10,617.57 L466.17,618.37 L467.24,618.84 L468.31,619.10 L469.39,619.22 L470.46,619.24 L471.53,619.19 L472.60,619.07 L473.67,618.87 L474.74,618.62 L475.81,618.37 L476.88,618.22 L477.95,618.24 L479.02,618.45 L480.09,618.76 L481.17,619.08 L482.24,619.32 L483.31,619.49 L484.38,619.58 L485.45,619.64 L486.52,619.65 L487.59,619.65 L488.66,619.62 L489.73,619.56 L490.80,619.46 L491.87,619.32 L492.94,619.17 L494.02,619.04 L495.09,618.98 L496.16,619.03 L497.23,619.16 L498.30,619.32 L499.37,619.45 L500.44,619.55 L501.51,619.61 L502.58,619.64 L503.65,619.65 L504.72,619.63 L505.80,619.57 L506.87,619.47 L507.94,619.29 L509.01,619.03 L510.08,618.71 L511.15,618.38 L512.22,618.16 L513.29,618.14 L514.36,618.31 L515.43,618.57 L516.50,618.84 L517.57,619.05 L518.65,619.18 L519.72,619.24 L520.79,619.22 L521.86,619.11 L522.93,618.88 L524.00,618.44" fill="none" stroke="#e0e0e0" stroke-width="1.4"/>
<text x="387" y="542" fill="#666" font-family="monospace" font-size="9">15</text>
<rect x="532" y="528" width="152" height="152" fill="#0b0b0b" stroke="#444"/>
<line x1="540" y1="604.00" x2="676" y2="604.00" stroke="#292929"/>
<path d="M540.00,590.78 L541.07,590.37 L542.14,590.15 L543.21,590.04 L544.28,590.00 L545.35,589.99 L546.43,590.02 L547.50,590.08 L548.57,590.19 L549.64,590.34 L550.71,590.50 L551.78,590.61 L552.85,590.61 L553.92,590.48 L554.99,590.29 L556.06,590.11 L557.13,589.99 L558.20,589.92 L559.28,589.88 L560.35,589.86 L561.42,589.85 L562.49,589.85 L563.56,589.86 L564.63,589.89 L565.70,589.93 L566.77,590.00 L567.84,590.08 L568.91,590.15 L569.98,590.18 L571.06,590.15 L572.13,590.08 L573.20,590.00 L574.27,589.93 L575.34,589.89 L576.41,589.87 L577.48,589.86 L578.55,589.85 L579.62,589.86 L580.69,589.88 L581.76,589.93 L582.83,590.01 L583.91,590.16 L584.98,590.37 L586.05,590.60 L587.12,590.76 L588.19,590.79 L589.26,590.67 L590.33,590.49 L591.40,590.31 L592.47,590.18 L593.54,590.10 L594.61,590.07 L595.69,590.09 L596.76,590.16 L597.83,590.34 L598.90,590.70 L599.97,591.40 L601.04,592.61 L602.11,594.33 L603.18,596.21 L604.25,597.62 L605.32,598.12 L606.39,597.65 L607.46,596.52 L608.54,595.21 L609.61,594.11 L610.68,593.42 L611.75,593.17 L612.82,593.43 L613.89,594.33 L614.96,596.20 L616.03,599.37 L617.10,603.79 L618.17,608.48 L619.24,612.26 L620.31,614.64 L621.39,615.81 L622.46,621.23 L623.53,621.20 L624.60,621.15 L625.67,621.06 L626.74,620.94 L627.81,620.81 L628.88,620.72 L629.95,620.74 L631.02,620.85 L632.09,621.01 L633.17,621.16 L634.24,621.26 L635.31,621.31 L636.38,621.35 L637.45,621.36 L638.52,621.37 L639.59,621.37 L640.66,621.36 L641.73,621.34 L642.80,621.31 L643.87,621.26 L644.94,621.19 L646.02,621.14 L647.09,621.11 L648.16,621.14 L649.23,621.19 L650.30,621.25 L651.37,621.30 L652.44,621.34 L653.51,621.35 L654.58,621.36 L655.65,621.36 L656.72,621.36 L657.80,621.34 L658.87,621.31 L659.94,621.25 L661.01,621.14 L662.08,620.98 L663.15,620.81 L664.22,620.69 L665.29,620.68 L666.36,620.77 L667.43,620.92 L668.50,621.05 L669.57,621.14 L670.65,621.20 L671.72,621.22 L672.79,621.22 L673.86,621.17 L674.93,621.06 L676.00,620.84" fill="none" stroke="#e0e0e0" stroke-width="1.4"/>
<text x="539" y="542" fill="#666" font-family="monospace" font-size="9">16</text>
</svg>
