<svg xmlns="http://www.w3.org/2000/svg" width="760" height="760" viewBox="0 0 760 760">
<rect width="760" height="760" fill="#161616"/>
<text x="24" y="32" fill="#dedede" font-family="monospace" font-size="15">S3G VOX / ANIMAL</text>
<text x="684" y="724" text-anchor="end" fill="#858585" font-family="monospace" font-size="11">U / SNARL</text>
<text x="24" y="72" fill="#858585" font-family="monospace" font-size="11">V / BODY SIZE</text>
<rect x="76" y="72" width="152" height="152" fill="#0b0b0b" stroke="#444"/>
<line x1="84" y1="148.00" x2="220" y2="148.00" stroke="#292929"/>
<path d="M84.00,148.00 L85.07,144.41 L86.14,140.96 L87.21,137.76 L88.28,134.90 L89.35,132.41 L90.43,130.30 L91.50,128.53 L92.57,127.07 L93.64,125.88 L94.71,124.91 L95.78,124.12 L96.85,123.48 L97.92,122.95 L98.99,122.51 L100.06,122.14 L101.13,121.83 L102.20,121.55 L103.28,121.31 L104.35,121.09 L105.42,120.89 L106.49,120.71 L107.56,139.34 L108.63,139.57 L109.70,139.76 L110.77,139.91 L111.84,140.02 L112.91,140.11 L113.98,140.17 L115.06,140.21 L116.13,140.23 L117.20,140.24 L118.27,140.25 L119.34,140.24 L120.41,140.23 L121.48,140.21 L122.55,140.17 L123.62,140.11 L124.69,140.02 L125.76,139.91 L126.83,139.76 L127.91,139.57 L128.98,139.34 L130.05,139.06 L131.12,138.75 L132.19,138.40 L133.26,138.03 L134.33,137.65 L135.40,137.27 L136.47,136.92 L137.54,136.61 L138.61,136.37 L139.69,136.21 L140.76,136.18 L141.83,136.29 L142.90,136.56 L143.97,137.02 L145.04,137.69 L146.11,138.58 L147.18,139.69 L148.25,141.02 L149.32,142.56 L150.39,144.27 L151.46,146.10 L152.54,148.00 L153.61,151.59 L154.68,155.04 L155.75,158.24 L156.82,161.10 L157.89,163.59 L158.96,165.70 L160.03,167.47 L161.10,168.93 L162.17,170.12 L163.24,171.09 L164.31,171.88 L165.39,172.52 L166.46,173.05 L167.53,173.49 L168.60,173.86 L169.67,174.17 L170.74,174.45 L171.81,174.69 L172.88,174.91 L173.95,175.11 L175.02,175.29 L176.09,156.66 L177.17,156.43 L178.24,156.24 L179.31,156.09 L180.38,155.98 L181.45,155.89 L182.52,155.83 L183.59,155.79 L184.66,155.77 L185.73,155.76 L186.80,155.75 L187.87,155.76 L188.94,155.77 L190.02,155.79 L191.09,155.83 L192.16,155.89 L193.23,155.98 L194.30,156.09 L195.37,156.24 L196.44,156.43 L197.51,156.66 L198.58,156.94 L199.65,157.25 L200.72,157.60 L201.80,157.97 L202.87,158.35 L203.94,158.73 L205.01,159.08 L206.08,159.39 L207.15,159.63 L208.22,159.79 L209.29,159.82 L210.36,159.71 L211.43,159.44 L212.50,158.98 L213.57,158.31 L214.65,157.42 L215.72,156.31 L216.79,154.98 L217.86,153.44 L218.93,151.73 L220.00,149.90" fill="none" stroke="#e0e0e0" stroke-width="1.4"/>
<text x="83" y="86" fill="#666" font-family="monospace" font-size="9">01</text>
<rect x="228" y="72" width="152" height="152" fill="#0b0b0b" stroke="#444"/>
<line x1="236" y1="148.00" x2="372" y2="148.00" stroke="#292929"/>
<path d="M236.00,148.09 L237.07,142.15 L238.14,137.06 L239.21,133.22 L240.28,130.55 L241.35,128.76 L242.43,127.56 L243.50,126.74 L244.57,126.17 L245.64,125.74 L246.71,125.42 L247.78,125.18 L248.85,125.02 L249.92,124.93 L250.99,124.92 L252.06,139.64 L253.13,141.59 L254.20,143.78 L255.28,146.08 L256.35,148.27 L257.42,150.16 L258.49,151.58 L259.56,152.44 L260.63,152.67 L261.70,152.24 L262.77,151.14 L263.84,149.44 L264.91,147.27 L265.98,144.88 L267.06,142.59 L268.13,140.71 L269.20,139.50 L270.27,139.08 L271.34,139.50 L272.41,140.71 L273.48,142.59 L274.55,144.88 L275.62,147.27 L276.69,149.44 L277.76,151.14 L278.83,152.24 L279.91,152.67 L280.98,152.44 L282.05,126.15 L283.12,126.04 L284.19,125.84 L285.26,125.59 L286.33,125.34 L287.40,125.13 L288.47,124.99 L289.54,124.92 L290.61,124.93 L291.69,125.02 L292.76,125.18 L293.83,125.42 L294.90,125.74 L295.97,126.17 L297.04,126.74 L298.11,134.02 L299.18,134.69 L300.25,135.92 L301.32,137.85 L302.39,140.59 L303.46,144.10 L304.54,148.09 L305.61,152.08 L306.68,155.59 L307.75,158.33 L308.82,160.27 L309.89,161.49 L310.96,162.16 L312.03,162.42 L313.10,162.39 L314.17,162.15 L315.24,161.75 L316.31,161.19 L317.39,160.44 L318.46,159.45 L319.53,158.17 L320.60,156.54 L321.67,154.59 L322.74,152.40 L323.81,150.11 L324.88,147.92 L325.95,146.03 L327.02,144.60 L328.09,170.07 L329.17,170.26 L330.24,170.60 L331.31,171.05 L332.38,171.54 L333.45,172.02 L334.52,172.43 L335.59,172.75 L336.66,172.97 L337.73,173.10 L338.80,173.14 L339.87,173.10 L340.94,172.97 L342.02,172.75 L343.09,151.30 L344.16,148.91 L345.23,146.74 L346.30,145.04 L347.37,143.94 L348.44,143.51 L349.51,143.74 L350.58,144.60 L351.65,146.03 L352.72,147.92 L353.80,150.11 L354.87,152.40 L355.94,154.59 L357.01,156.54 L358.08,158.17 L359.15,159.45 L360.22,160.44 L361.29,161.19 L362.36,161.75 L363.43,162.15 L364.50,162.39 L365.57,162.42 L366.65,162.16 L367.72,161.49 L368.79,160.27 L369.86,158.33 L370.93,155.59 L372.00,152.08" fill="none" stroke="#e0e0e0" stroke-width="1.4"/>
<text x="235" y="86" fill="#666" font-family="monospace" font-size="9">02</text>
<rect x="380" y="72" width="152" height="152" fill="#0b0b0b" stroke="#444"/>
<line x1="388" y1="148.00" x2="524" y2="148.00" stroke="#292929"/>
<path d="M388.00,148.00 L389.07,139.11 L390.14,133.07 L391.21,129.81 L392.28,128.18 L393.35,127.34 L394.43,126.88 L395.50,126.66 L396.57,126.62 L397.64,126.79 L398.71,127.22 L399.78,144.12 L400.85,149.39 L401.92,154.06 L402.99,157.31 L404.06,158.98 L405.13,159.12 L406.20,157.71 L407.28,154.57 L408.35,149.79 L409.42,144.35 L410.49,139.82 L411.56,137.15 L412.63,136.31 L413.70,136.87 L414.77,138.26 L415.84,139.76 L416.91,140.70 L417.98,140.73 L419.06,139.95 L420.13,138.80 L421.20,137.83 L422.27,124.65 L423.34,124.66 L424.41,124.69 L425.48,124.74 L426.55,124.78 L427.62,124.79 L428.69,124.78 L429.76,124.75 L430.83,124.72 L431.91,124.73 L432.98,124.80 L434.05,139.82 L435.12,144.35 L436.19,149.79 L437.26,154.57 L438.33,157.71 L439.40,159.12 L440.47,158.98 L441.54,157.31 L442.61,154.06 L443.69,149.39 L444.76,144.12 L445.83,139.42 L446.90,136.00 L447.97,133.83 L449.04,132.57 L450.11,131.94 L451.18,131.79 L452.25,132.23 L453.32,133.57 L454.39,136.39 L455.46,141.29 L456.54,148.00 L457.61,156.89 L458.68,162.93 L459.75,166.19 L460.82,167.82 L461.89,168.66 L462.96,169.12 L464.03,169.34 L465.10,169.38 L466.17,169.21 L467.24,168.78 L468.31,151.88 L469.39,146.61 L470.46,141.94 L471.53,138.69 L472.60,137.02 L473.67,136.88 L474.74,138.29 L475.81,141.43 L476.88,146.21 L477.95,151.65 L479.02,156.18 L480.09,158.85 L481.17,159.69 L482.24,159.13 L483.31,157.74 L484.38,156.24 L485.45,155.30 L486.52,155.27 L487.59,156.05 L488.66,157.20 L489.73,158.17 L490.80,171.35 L491.87,171.34 L492.94,171.31 L494.02,171.26 L495.09,171.22 L496.16,171.21 L497.23,171.22 L498.30,171.25 L499.37,171.28 L500.44,171.27 L501.51,171.20 L502.58,156.18 L503.65,151.65 L504.72,146.21 L505.80,141.43 L506.87,138.29 L507.94,136.88 L509.01,137.02 L510.08,138.69 L511.15,141.94 L512.22,146.61 L513.29,151.88 L514.36,156.58 L515.43,160.00 L516.50,162.17 L517.57,163.43 L518.65,164.06 L519.72,164.21 L520.79,163.77 L521.86,162.43 L522.93,159.61 L524.00,154.71" fill="none" stroke="#e0e0e0" stroke-width="1.4"/>
<text x="387" y="86" fill="#666" font-family="monospace" font-size="9">03</text>
<rect x="532" y="72" width="152" height="152" fill="#0b0b0b" stroke="#444"/>
<line x1="540" y1="148.00" x2="676" y2="148.00" stroke="#292929"/>
<path d="M540.00,148.86 L541.07,137.20 L542.14,131.62 L543.21,129.62 L544.28,128.89 L545.35,128.64 L546.43,128.72 L547.50,129.22 L548.57,130.46 L549.64,152.61 L550.71,159.28 L551.78,162.54 L552.85,163.22 L553.92,161.57 L554.99,156.67 L556.06,148.25 L557.13,140.14 L558.20,135.84 L559.28,134.63 L560.35,134.96 L561.42,135.64 L562.49,135.89 L563.56,135.79 L564.63,136.15 L565.70,137.89 L566.77,141.54 L567.84,127.31 L568.91,127.37 L569.98,127.37 L571.06,127.30 L572.13,127.22 L573.20,127.17 L574.27,127.16 L575.34,127.17 L576.41,127.22 L577.48,147.51 L578.55,150.21 L579.62,149.67 L580.69,146.21 L581.76,141.54 L582.83,137.89 L583.91,136.15 L584.98,135.79 L586.05,135.89 L587.12,135.64 L588.19,134.96 L589.26,134.63 L590.33,135.84 L591.40,140.14 L592.47,148.25 L593.54,156.67 L594.61,161.57 L595.69,136.06 L596.76,136.88 L597.83,135.38 L598.90,132.71 L599.97,130.46 L601.04,129.22 L602.11,128.72 L603.18,128.64 L604.25,131.77 L605.32,132.22 L606.39,134.18 L607.46,139.35 L608.54,148.86 L609.61,158.37 L610.68,163.54 L611.75,165.50 L612.82,165.95 L613.89,165.52 L614.96,164.01 L616.03,160.49 L617.10,153.78 L618.17,145.12 L619.24,138.45 L620.31,135.18 L621.39,134.50 L622.46,164.51 L623.53,167.62 L624.60,169.48 L625.67,170.20 L626.74,170.42 L627.81,170.48 L628.88,170.50 L629.95,170.51 L631.02,170.52 L632.09,161.94 L633.17,161.58 L634.24,159.83 L635.31,156.19 L636.38,151.52 L637.45,148.06 L638.52,147.52 L639.59,150.21 L640.66,154.96 L641.73,159.06 L642.80,160.56 L643.87,159.06 L644.94,154.96 L646.02,150.21 L647.09,147.52 L648.16,148.06 L649.23,151.52 L650.30,170.49 L651.37,170.53 L652.44,170.54 L653.51,170.53 L654.58,170.52 L655.65,170.51 L656.72,170.50 L657.80,170.48 L658.87,170.42 L659.94,157.58 L661.01,149.47 L662.08,141.05 L663.15,136.16 L664.22,134.50 L665.29,135.18 L666.36,138.45 L667.43,145.12 L668.50,153.78 L669.57,160.49 L670.65,164.01 L671.72,165.52 L672.79,165.95 L673.86,165.50 L674.93,163.54 L676.00,158.37" fill="none" stroke="#e0e0e0" stroke-width="1.4"/>
<text x="539" y="86" fill="#666" font-family="monospace" font-size="9">04</text>
<rect x="76" y="224" width="152" height="152" fill="#0b0b0b" stroke="#444"/>
<line x1="84" y1="300.00" x2="220" y2="300.00" stroke="#292929"/>
<path d="M84.00,298.33 L85.07,295.35 L86.14,292.49 L87.21,289.85 L88.28,287.49 L89.35,285.45 L90.43,283.73 L91.50,282.30 L92.57,281.12 L93.64,280.17 L94.71,279.40 L95.78,278.77 L96.85,278.26 L97.92,277.85 L98.99,277.51 L100.06,277.23 L101.13,276.99 L102.20,276.79 L103.28,276.61 L104.35,276.46 L105.42,276.33 L106.49,276.21 L107.56,292.32 L108.63,292.43 L109.70,292.49 L110.77,292.51 L111.84,292.48 L112.91,292.41 L113.98,292.32 L115.06,292.19 L116.13,292.04 L117.20,291.87 L118.27,291.69 L119.34,291.49 L120.41,291.27 L121.48,291.04 L122.55,290.79 L123.62,290.52 L124.69,290.23 L125.76,289.91 L126.83,289.56 L127.91,289.18 L128.98,288.77 L130.05,288.34 L131.12,287.88 L132.19,287.41 L133.26,286.93 L134.33,286.44 L135.40,285.98 L136.47,285.54 L137.54,285.14 L138.61,284.81 L139.69,284.54 L140.76,284.37 L141.83,284.30 L142.90,284.34 L143.97,284.52 L145.04,284.84 L146.11,285.32 L147.18,285.96 L148.25,286.77 L149.32,287.75 L150.39,288.89 L151.46,290.16 L152.54,305.12 L153.61,307.72 L154.68,310.07 L155.75,312.13 L156.82,313.88 L157.89,315.33 L158.96,316.52 L160.03,317.47 L161.10,318.23 L162.17,318.83 L163.24,319.30 L164.31,319.67 L165.39,319.95 L166.46,320.16 L167.53,320.33 L168.60,320.45 L169.67,320.54 L170.74,320.60 L171.81,320.64 L172.88,320.66 L173.95,320.67 L175.02,320.67 L176.09,304.00 L177.17,304.29 L178.24,304.62 L179.31,304.99 L180.38,305.39 L181.45,305.83 L182.52,306.28 L183.59,306.76 L184.66,307.24 L185.73,307.72 L186.80,308.21 L187.87,308.69 L188.94,309.16 L190.02,309.64 L191.09,310.10 L192.16,310.57 L193.23,311.03 L194.30,311.50 L195.37,311.96 L196.44,312.43 L197.51,312.90 L198.58,313.36 L199.65,313.82 L200.72,314.28 L201.80,314.71 L202.87,315.13 L203.94,315.51 L205.01,315.85 L206.08,316.15 L207.15,316.39 L208.22,316.57 L209.29,316.66 L210.36,316.68 L211.43,316.59 L212.50,316.40 L213.57,316.09 L214.65,315.64 L215.72,315.05 L216.79,314.29 L217.86,313.36 L218.93,312.26 L220.00,311.00" fill="none" stroke="#e0e0e0" stroke-width="1.4"/>
<text x="83" y="238" fill="#666" font-family="monospace" font-size="9">05</text>
<rect x="228" y="224" width="152" height="152" fill="#0b0b0b" stroke="#444"/>
<line x1="236" y1="300.00" x2="372" y2="300.00" stroke="#292929"/>
<path d="M236.00,299.14 L237.07,293.51 L238.14,288.70 L239.21,285.10 L240.28,282.61 L241.35,280.96 L242.43,279.85 L243.50,279.10 L244.57,278.57 L245.64,278.18 L246.71,277.89 L247.78,277.67 L248.85,277.52 L249.92,277.44 L250.99,277.42 L252.06,292.83 L253.13,294.71 L254.20,296.78 L255.28,298.90 L256.35,300.88 L257.42,302.55 L258.49,303.77 L259.56,304.45 L260.63,304.55 L261.70,304.02 L262.77,302.88 L263.84,301.14 L264.91,298.95 L265.98,296.53 L267.06,294.19 L268.13,292.23 L269.20,290.88 L270.27,290.26 L271.34,290.38 L272.41,291.20 L273.48,292.59 L274.55,294.34 L275.62,296.18 L276.69,297.82 L277.76,299.05 L278.83,299.72 L279.91,299.77 L280.98,299.19 L282.05,280.37 L283.12,280.39 L284.19,280.27 L285.26,280.08 L286.33,279.87 L287.40,279.70 L288.47,279.61 L289.54,279.62 L290.61,279.75 L291.69,279.99 L292.76,280.36 L293.83,280.85 L294.90,281.48 L295.97,282.28 L297.04,283.32 L298.11,281.05 L299.18,281.36 L300.25,282.00 L301.32,283.09 L302.39,284.76 L303.46,287.10 L304.54,290.07 L305.61,293.43 L306.68,296.77 L307.75,299.71 L308.82,301.99 L309.89,303.58 L310.96,304.56 L312.03,305.08 L313.10,305.27 L314.17,305.24 L315.24,305.05 L316.31,304.71 L317.39,304.20 L318.46,303.49 L319.53,302.53 L320.60,301.30 L321.67,299.85 L322.74,298.26 L323.81,296.69 L324.88,295.27 L325.95,294.18 L327.02,293.52 L328.09,319.94 L329.17,319.92 L330.24,320.04 L331.31,320.28 L332.38,320.59 L333.45,320.94 L334.52,321.26 L335.59,321.51 L336.66,321.69 L337.73,321.76 L338.80,321.72 L339.87,321.56 L340.94,321.25 L342.02,320.75 L343.09,309.94 L344.16,308.72 L345.23,307.62 L346.30,306.85 L347.37,306.54 L348.44,306.76 L349.51,307.53 L350.58,308.75 L351.65,310.31 L352.72,312.04 L353.80,313.75 L354.87,315.30 L355.94,316.62 L357.01,317.66 L358.08,318.45 L359.15,319.04 L360.22,319.47 L361.29,319.79 L362.36,320.01 L363.43,320.17 L364.50,320.26 L365.57,320.27 L366.65,320.18 L367.72,319.95 L368.79,319.51 L369.86,318.76 L370.93,317.59 L372.00,315.86" fill="none" stroke="#e0e0e0" stroke-width="1.4"/>
<text x="235" y="238" fill="#666" font-family="monospace" font-size="9">06</text>
<rect x="380" y="224" width="152" height="152" fill="#0b0b0b" stroke="#444"/>
<line x1="388" y1="300.00" x2="524" y2="300.00" stroke="#292929"/>
<path d="M388.00,298.99 L389.07,291.05 L390.14,285.69 L391.21,282.84 L392.28,281.42 L393.35,280.69 L394.43,280.29 L395.50,280.08 L396.57,280.03 L397.64,280.14 L398.71,280.45 L399.78,297.20 L400.85,301.92 L401.92,305.94 L402.99,308.66 L404.06,310.02 L405.13,310.15 L406.20,309.01 L407.28,306.41 L408.35,302.34 L409.42,297.51 L410.49,293.31 L411.56,290.73 L412.63,289.84 L413.70,290.24 L414.77,291.36 L415.84,292.54 L416.91,293.19 L417.98,293.00 L419.06,292.07 L420.13,290.82 L421.20,289.74 L422.27,278.54 L423.34,278.56 L424.41,278.60 L425.48,278.66 L426.55,278.72 L427.62,278.75 L428.69,278.75 L429.76,278.73 L430.83,278.72 L431.91,278.75 L432.98,278.86 L434.05,287.82 L435.12,290.80 L436.19,294.76 L437.26,298.63 L438.33,301.34 L439.40,302.45 L440.47,301.91 L441.54,299.76 L442.61,296.21 L443.69,291.92 L444.76,287.93 L445.83,284.95 L446.90,283.05 L447.97,281.95 L449.04,281.34 L450.11,281.03 L451.18,280.92 L452.25,281.05 L453.32,281.56 L454.39,282.72 L455.46,285.03 L456.54,309.01 L457.61,314.06 L458.68,316.67 L459.75,317.88 L460.82,318.44 L461.89,318.72 L462.96,318.86 L464.03,318.92 L465.10,318.91 L466.17,318.83 L467.24,318.63 L468.31,293.79 L469.39,290.08 L470.46,287.28 L471.53,285.58 L472.60,284.89 L473.67,285.11 L474.74,286.38 L475.81,289.02 L476.88,293.29 L477.95,298.64 L479.02,303.55 L480.09,306.78 L481.17,308.22 L482.24,308.35 L483.31,307.79 L484.38,307.21 L485.45,307.15 L486.52,307.85 L487.59,309.14 L488.66,310.62 L489.73,311.85 L490.80,319.27 L491.87,319.21 L492.94,319.11 L494.02,318.96 L495.09,318.81 L496.16,318.70 L497.23,318.65 L498.30,318.65 L499.37,318.65 L500.44,318.55 L501.51,318.23 L502.58,315.59 L503.65,314.12 L504.72,311.88 L505.80,309.32 L506.87,307.26 L507.94,306.38 L509.01,306.92 L510.08,308.71 L511.15,311.26 L512.22,313.82 L513.29,315.83 L514.36,317.14 L515.43,317.90 L516.50,318.32 L517.57,318.53 L518.65,318.63 L519.72,318.65 L520.79,318.56 L521.86,318.30 L522.93,317.69 L524.00,316.42" fill="none" stroke="#e0e0e0" stroke-width="1.4"/>
<text x="387" y="238" fill="#666" font-family="monospace" font-size="9">07</text>
<rect x="532" y="224" width="152" height="152" fill="#0b0b0b" stroke="#444"/>
<line x1="540" y1="300.00" x2="676" y2="300.00" stroke="#292929"/>
<path d="M540.00,299.55 L541.07,288.50 L542.14,283.27 L543.21,281.42 L544.28,280.75 L545.35,280.51 L546.43,280.55 L547.50,280.94 L548.57,281.92 L549.64,304.72 L550.71,310.67 L551.78,313.47 L552.85,314.08 L553.92,312.78 L554.99,308.73 L556.06,301.27 L557.13,293.43 L558.20,288.96 L559.28,287.64 L560.35,287.96 L561.42,288.63 L562.49,288.81 L563.56,288.60 L564.63,288.85 L565.70,290.48 L566.77,293.89 L567.84,279.38 L568.91,279.44 L569.98,279.45 L571.06,279.39 L572.13,279.32 L573.20,279.28 L574.27,279.27 L575.34,279.29 L576.41,279.34 L577.48,296.12 L578.55,298.15 L579.62,297.18 L580.69,293.62 L581.76,289.33 L582.83,286.25 L583.91,284.77 L584.98,284.30 L586.05,284.14 L587.12,283.78 L588.19,283.19 L589.26,282.84 L590.33,283.30 L591.40,285.46 L592.47,290.47 L593.54,297.53 L594.61,302.98 L595.69,296.39 L596.76,297.92 L597.83,296.19 L598.90,292.17 L599.97,287.94 L601.04,285.19 L602.11,284.00 L603.18,283.90 L604.25,280.52 L605.32,280.64 L606.39,281.23 L607.46,283.07 L608.54,287.78 L609.61,295.70 L610.68,302.80 L611.75,306.47 L612.82,307.50 L613.89,306.79 L614.96,304.25 L616.03,299.27 L617.10,292.47 L618.17,286.66 L619.24,283.47 L620.31,282.19 L621.39,282.05 L622.46,317.46 L623.53,318.68 L624.60,319.41 L625.67,319.69 L626.74,319.79 L627.81,319.81 L628.88,319.81 L629.95,319.81 L631.02,319.81 L632.09,309.99 L633.17,310.32 L634.24,309.32 L635.31,306.73 L636.38,303.41 L637.45,301.26 L638.52,301.81 L639.59,305.26 L640.66,309.99 L641.73,313.51 L642.80,314.92 L643.87,314.58 L644.94,312.83 L646.02,310.58 L647.09,309.51 L648.16,310.64 L649.23,313.29 L650.30,319.27 L651.37,319.39 L652.44,319.41 L653.51,319.33 L654.58,319.19 L655.65,319.05 L656.72,318.94 L657.80,318.77 L658.87,318.21 L659.94,318.07 L661.01,316.26 L662.08,312.86 L663.15,309.14 L664.22,307.39 L665.29,308.54 L666.36,311.90 L667.43,315.53 L668.50,317.84 L669.57,318.88 L670.65,319.28 L671.72,319.43 L672.79,319.47 L673.86,319.41 L674.93,319.17 L676.00,318.40" fill="none" stroke="#e0e0e0" stroke-width="1.4"/>
<text x="539" y="238" fill="#666" font-family="monospace" font-size="9">08</text>
<rect x="76" y="376" width="152" height="152" fill="#0b0b0b" stroke="#444"/>
<line x1="84" y1="452.00" x2="220" y2="452.00" stroke="#292929"/>
<path d="M84.00,449.85 L85.07,447.18 L86.14,444.62 L87.21,442.27 L88.28,440.18 L89.35,438.38 L90.43,436.87 L91.50,435.62 L92.57,434.60 L93.64,433.78 L94.71,433.12 L95.78,432.59 L96.85,432.17 L97.92,431.82 L98.99,431.54 L100.06,431.32 L101.13,431.13 L102.20,430.98 L103.28,430.85 L104.35,430.74 L105.42,430.66 L106.49,430.58 L107.56,445.11 L108.63,445.10 L109.70,445.03 L110.77,444.91 L111.84,444.74 L112.91,444.53 L113.98,444.28 L115.06,444.00 L116.13,443.69 L117.20,443.36 L118.27,443.01 L119.34,442.65 L120.41,442.27 L121.48,441.88 L122.55,441.47 L123.62,441.06 L124.69,440.62 L125.76,440.18 L126.83,439.72 L127.91,439.25 L128.98,438.77 L130.05,438.28 L131.12,437.79 L132.19,437.31 L133.26,436.84 L134.33,436.38 L135.40,435.96 L136.47,435.57 L137.54,435.22 L138.61,434.93 L139.69,434.71 L140.76,434.55 L141.83,434.48 L142.90,434.49 L143.97,434.60 L145.04,434.83 L146.11,435.17 L147.18,435.63 L148.25,436.24 L149.32,437.00 L150.39,437.90 L151.46,438.95 L152.54,459.58 L153.61,461.35 L154.68,462.90 L155.75,464.21 L156.82,465.29 L157.89,466.18 L158.96,466.88 L160.03,467.43 L161.10,467.85 L162.17,468.17 L163.24,468.39 L164.31,468.55 L165.39,468.64 L166.46,468.68 L167.53,468.68 L168.60,468.65 L169.67,468.58 L170.74,468.48 L171.81,468.36 L172.88,468.22 L173.95,468.05 L175.02,467.87 L176.09,458.75 L177.17,459.36 L178.24,459.99 L179.31,460.61 L180.38,461.23 L181.45,461.85 L182.52,462.44 L183.59,463.01 L184.66,463.55 L185.73,464.05 L186.80,464.53 L187.87,464.97 L188.94,465.38 L190.02,465.75 L191.09,466.10 L192.16,466.42 L193.23,466.71 L194.30,466.98 L195.37,467.23 L196.44,467.46 L197.51,467.68 L198.58,467.87 L199.65,468.05 L200.72,468.22 L201.80,468.36 L202.87,468.48 L203.94,468.58 L205.01,468.65 L206.08,468.68 L207.15,468.68 L208.22,468.64 L209.29,468.55 L210.36,468.39 L211.43,468.17 L212.50,467.85 L213.57,467.43 L214.65,466.88 L215.72,466.18 L216.79,465.29 L217.86,464.21 L218.93,462.90 L220.00,461.35" fill="none" stroke="#e0e0e0" stroke-width="1.4"/>
<text x="83" y="390" fill="#666" font-family="monospace" font-size="9">09</text>
<rect x="228" y="376" width="152" height="152" fill="#0b0b0b" stroke="#444"/>
<line x1="236" y1="452.00" x2="372" y2="452.00" stroke="#292929"/>
<path d="M236.00,450.71 L237.07,445.12 L238.14,440.38 L239.21,436.85 L240.28,434.43 L241.35,432.83 L242.43,431.77 L243.50,431.05 L244.57,430.55 L245.64,430.18 L246.71,429.91 L247.78,429.70 L248.85,429.56 L249.92,429.49 L250.99,429.47 L252.06,445.90 L253.13,447.73 L254.20,449.71 L255.28,451.69 L256.35,453.50 L257.42,454.99 L258.49,456.02 L259.56,456.53 L260.63,456.45 L261.70,455.76 L262.77,454.45 L263.84,452.55 L264.91,450.18 L265.98,447.58 L267.06,445.06 L268.13,442.93 L269.20,441.41 L270.27,440.57 L271.34,440.42 L272.41,440.87 L273.48,441.82 L274.55,443.07 L275.62,444.41 L276.69,445.58 L277.76,446.38 L278.83,446.66 L279.91,446.37 L280.98,445.51 L282.05,435.25 L283.12,435.45 L284.19,435.45 L285.26,435.33 L286.33,435.17 L287.40,435.05 L288.47,435.03 L289.54,435.16 L290.61,435.45 L291.69,435.92 L292.76,436.56 L293.83,437.37 L294.90,438.35 L295.97,439.54 L297.04,441.00 L298.11,430.55 L299.18,430.75 L300.25,431.15 L301.32,431.85 L302.39,432.95 L303.46,434.59 L304.54,436.84 L305.61,439.63 L306.68,442.70 L307.75,445.69 L308.82,448.27 L309.89,450.31 L310.96,451.81 L312.03,452.88 L313.10,453.64 L314.17,454.20 L315.24,454.61 L316.31,454.91 L317.39,455.07 L318.46,455.05 L319.53,454.81 L320.60,454.35 L321.67,453.69 L322.74,452.91 L323.81,452.13 L324.88,451.50 L325.95,451.16 L327.02,451.23 L328.09,468.57 L329.17,468.24 L330.24,468.12 L331.31,468.24 L332.38,468.54 L333.45,468.96 L334.52,469.40 L335.59,469.77 L336.66,470.00 L337.73,470.02 L338.80,469.77 L339.87,469.20 L340.94,468.21 L342.02,466.72 L343.09,469.40 L344.16,468.96 L345.23,468.54 L346.30,468.24 L347.37,468.12 L348.44,468.24 L349.51,468.57 L350.58,469.07 L351.65,469.68 L352.72,470.30 L353.80,470.89 L354.87,471.39 L355.94,471.80 L357.01,472.10 L358.08,472.32 L359.15,472.47 L360.22,472.56 L361.29,472.60 L362.36,472.61 L363.43,472.59 L364.50,472.53 L365.57,472.42 L366.65,472.24 L367.72,471.94 L368.79,471.46 L369.86,470.67 L370.93,469.40 L372.00,467.43" fill="none" stroke="#e0e0e0" stroke-width="1.4"/>
<text x="235" y="390" fill="#666" font-family="monospace" font-size="9">10</text>
<rect x="380" y="376" width="152" height="152" fill="#0b0b0b" stroke="#444"/>
<line x1="388" y1="452.00" x2="524" y2="452.00" stroke="#292929"/>
<path d="M388.00,450.69 L389.07,443.19 L390.14,438.18 L391.21,435.55 L392.28,434.24 L393.35,433.57 L394.43,433.21 L395.50,433.01 L396.57,432.95 L397.64,433.03 L398.71,433.27 L399.78,450.45 L400.85,454.82 L401.92,458.42 L402.99,460.78 L404.06,461.93 L405.13,462.02 L406.20,461.01 L407.28,458.70 L408.35,454.98 L409.42,450.42 L410.49,446.34 L411.56,443.72 L412.63,442.70 L413.70,442.90 L414.77,443.75 L415.84,444.62 L416.91,444.96 L417.98,444.52 L419.06,443.42 L420.13,442.04 L421.20,440.84 L422.27,431.80 L423.34,431.84 L424.41,431.90 L425.48,431.99 L426.55,432.09 L427.62,432.16 L428.69,432.19 L429.76,432.18 L430.83,432.19 L431.91,432.26 L432.98,432.48 L434.05,436.71 L435.12,438.39 L436.19,440.86 L437.26,443.52 L438.33,445.52 L439.40,446.26 L440.47,445.55 L441.54,443.56 L442.61,440.77 L443.69,437.95 L444.76,435.72 L445.83,434.26 L446.90,433.41 L447.97,432.95 L449.04,432.70 L450.11,432.58 L451.18,432.55 L452.25,432.62 L453.32,432.86 L454.39,433.41 L455.46,434.58 L456.54,464.56 L457.61,467.16 L458.68,468.41 L459.75,468.96 L460.82,469.21 L461.89,469.33 L462.96,469.38 L464.03,469.39 L465.10,469.35 L466.17,469.25 L467.24,469.06 L468.31,444.64 L469.39,441.95 L470.46,439.95 L471.53,438.83 L472.60,438.61 L473.67,439.36 L474.74,441.35 L475.81,444.98 L476.88,450.28 L477.95,456.05 L479.02,460.58 L480.09,463.26 L481.17,464.52 L482.24,464.95 L483.31,465.01 L484.38,465.05 L485.45,465.33 L486.52,465.90 L487.59,466.63 L488.66,467.33 L489.73,467.85 L490.80,468.16 L491.87,467.85 L492.94,467.33 L494.02,466.63 L495.09,465.90 L496.16,465.33 L497.23,465.05 L498.30,465.01 L499.37,464.95 L500.44,464.52 L501.51,463.26 L502.58,469.12 L503.65,468.80 L504.72,468.26 L505.80,467.53 L506.87,466.80 L507.94,466.37 L509.01,466.38 L510.08,466.83 L511.15,467.52 L512.22,468.20 L513.29,468.72 L514.36,469.06 L515.43,469.25 L516.50,469.35 L517.57,469.39 L518.65,469.38 L519.72,469.33 L520.79,469.21 L521.86,468.96 L522.93,468.41 L524.00,467.16" fill="none" stroke="#e0e0e0" stroke-width="1.4"/>
<text x="387" y="390" fill="#666" font-family="monospace" font-size="9">11</text>
<rect x="532" y="376" width="152" height="152" fill="#0b0b0b" stroke="#444"/>
<line x1="540" y1="452.00" x2="676" y2="452.00" stroke="#292929"/>
<path d="M540.00,450.92 L541.07,440.52 L542.14,435.66 L543.21,433.97 L544.28,433.36 L545.35,433.13 L546.43,433.14 L547.50,433.44 L548.57,434.22 L549.64,457.15 L550.71,462.36 L551.78,464.72 L552.85,465.24 L553.92,464.20 L554.99,460.86 L556.06,454.34 L557.13,446.93 L558.20,442.42 L559.28,441.01 L560.35,441.24 L561.42,441.79 L562.49,441.84 L563.56,441.47 L564.63,441.54 L565.70,442.89 L566.77,445.84 L567.84,432.20 L568.91,432.26 L569.98,432.28 L571.06,432.23 L572.13,432.16 L573.20,432.12 L574.27,432.11 L575.34,432.14 L576.41,432.22 L577.48,444.14 L578.55,445.43 L579.62,444.18 L580.69,441.02 L581.76,437.77 L582.83,435.70 L583.91,434.75 L584.98,434.40 L586.05,434.22 L587.12,433.96 L588.19,433.63 L589.26,433.43 L590.33,433.56 L591.40,434.37 L592.47,436.53 L593.54,440.32 L594.61,444.13 L595.69,458.10 L596.76,459.41 L597.83,458.15 L598.90,454.52 L599.97,449.51 L601.04,445.30 L602.11,443.13 L603.18,442.82 L604.25,432.45 L605.32,432.49 L606.39,432.72 L607.46,433.42 L608.54,435.51 L609.61,440.11 L610.68,445.91 L611.75,449.98 L612.82,451.68 L613.89,451.55 L614.96,449.66 L616.03,445.82 L617.10,440.97 L618.17,437.15 L619.24,435.13 L620.31,434.39 L621.39,434.48 L622.46,467.51 L623.53,468.54 L624.60,469.24 L625.67,469.55 L626.74,469.66 L627.81,469.68 L628.88,469.67 L629.95,469.65 L631.02,469.63 L632.09,465.72 L633.17,466.23 L634.24,466.13 L635.31,465.37 L636.38,464.26 L637.45,463.66 L638.52,464.36 L639.59,466.11 L640.66,467.75 L641.73,468.68 L642.80,469.01 L643.87,469.00 L644.94,468.75 L646.02,468.40 L647.09,468.25 L648.16,468.51 L649.23,468.96 L650.30,465.37 L651.37,466.13 L652.44,466.23 L653.51,465.72 L654.58,464.88 L655.65,464.15 L656.72,463.70 L657.80,462.97 L658.87,460.66 L659.94,469.55 L661.01,469.24 L662.08,468.54 L663.15,467.51 L664.22,466.76 L665.29,466.86 L666.36,467.68 L667.43,468.60 L668.50,469.19 L669.57,469.47 L670.65,469.58 L671.72,469.61 L672.79,469.59 L673.86,469.53 L674.93,469.32 L676.00,468.62" fill="none" stroke="#e0e0e0" stroke-width="1.4"/>
<text x="539" y="390" fill="#666" font-family="monospace" font-size="9">12</text>
<rect x="76" y="528" width="152" height="152" fill="#0b0b0b" stroke="#444"/>
<line x1="84" y1="604.00" x2="220" y2="604.00" stroke="#292929"/>
<path d="M84.00,602.55 L85.07,599.92 L86.14,597.39 L87.21,595.08 L88.28,593.04 L89.35,591.30 L90.43,589.84 L91.50,588.65 L92.57,587.69 L93.64,586.91 L94.71,586.30 L95.78,585.81 L96.85,585.42 L97.92,585.11 L98.99,584.86 L100.06,584.67 L101.13,584.51 L102.20,584.39 L103.28,584.30 L104.35,584.22 L105.42,584.17 L106.49,584.14 L107.56,598.12 L108.63,597.97 L109.70,597.75 L110.77,597.47 L111.84,597.14 L112.91,596.77 L113.98,596.35 L115.06,595.90 L116.13,595.43 L117.20,594.94 L118.27,594.43 L119.34,593.91 L120.41,593.40 L121.48,592.87 L122.55,592.36 L123.62,591.84 L124.69,591.33 L125.76,590.82 L126.83,590.32 L127.91,589.83 L128.98,589.35 L130.05,588.88 L131.12,588.43 L132.19,588.01 L133.26,587.61 L134.33,587.24 L135.40,586.91 L136.47,586.62 L137.54,586.37 L138.61,586.18 L139.69,586.04 L140.76,585.97 L141.83,585.96 L142.90,586.03 L143.97,586.18 L145.04,586.43 L146.11,586.79 L147.18,587.27 L148.25,587.90 L149.32,588.69 L150.39,589.64 L151.46,590.77 L152.54,613.03 L153.61,614.33 L154.68,615.47 L155.75,616.42 L156.82,617.21 L157.89,617.83 L158.96,618.32 L160.03,618.68 L161.10,618.93 L162.17,619.08 L163.24,619.15 L164.31,619.14 L165.39,619.07 L166.46,618.93 L167.53,618.73 L168.60,618.49 L169.67,618.20 L170.74,617.87 L171.81,617.50 L172.88,617.10 L173.95,616.68 L175.02,616.23 L176.09,616.44 L177.17,616.97 L178.24,617.47 L179.31,617.94 L180.38,618.37 L181.45,618.77 L182.52,619.12 L183.59,619.44 L184.66,619.73 L185.73,619.98 L186.80,620.19 L187.87,620.38 L188.94,620.53 L190.02,620.66 L191.09,620.77 L192.16,620.85 L193.23,620.91 L194.30,620.96 L195.37,620.98 L196.44,621.00 L197.51,620.99 L198.58,620.97 L199.65,620.94 L200.72,620.88 L201.80,620.81 L202.87,620.72 L203.94,620.59 L205.01,620.44 L206.08,620.25 L207.15,620.00 L208.22,619.69 L209.29,619.30 L210.36,618.81 L211.43,618.20 L212.50,617.42 L213.57,616.46 L214.65,615.26 L215.72,613.81 L216.79,612.06 L217.86,610.02 L218.93,607.71 L220.00,605.19" fill="none" stroke="#e0e0e0" stroke-width="1.4"/>
<text x="83" y="542" fill="#666" font-family="monospace" font-size="9">13</text>
<rect x="228" y="528" width="152" height="152" fill="#0b0b0b" stroke="#444"/>
<line x1="236" y1="604.00" x2="372" y2="604.00" stroke="#292929"/>
<path d="M236.00,602.84 L237.07,596.83 L238.14,591.75 L239.21,588.00 L240.28,585.45 L241.35,583.78 L242.43,582.68 L243.50,581.94 L244.57,581.42 L245.64,581.05 L246.71,580.77 L247.78,580.57 L248.85,580.43 L249.92,580.36 L250.99,580.35 L252.06,598.95 L253.13,600.82 L254.20,602.81 L255.28,604.76 L256.35,606.51 L257.42,607.88 L258.49,608.77 L259.56,609.08 L260.63,608.77 L261.70,607.79 L262.77,606.13 L263.84,603.81 L264.91,601.00 L265.98,597.97 L267.06,595.09 L268.13,592.68 L269.20,590.91 L270.27,589.85 L271.34,589.44 L272.41,589.59 L273.48,590.17 L274.55,591.03 L275.62,591.96 L276.69,592.74 L277.76,593.20 L278.83,593.20 L279.91,592.70 L280.98,591.71 L282.05,591.06 L283.12,591.51 L284.19,591.66 L285.26,591.60 L286.33,591.45 L287.40,591.32 L288.47,591.32 L289.54,591.50 L290.61,591.89 L291.69,592.49 L292.76,593.28 L293.83,594.24 L294.90,595.35 L295.97,596.63 L297.04,598.14 L298.11,580.50 L299.18,580.72 L300.25,581.10 L301.32,581.75 L302.39,582.79 L303.46,584.40 L304.54,586.72 L305.61,589.76 L306.68,593.34 L307.75,597.04 L308.82,600.46 L309.89,603.35 L310.96,605.69 L312.03,607.54 L313.10,609.06 L314.17,610.34 L315.24,611.45 L316.31,612.41 L317.39,613.20 L318.46,613.80 L319.53,614.19 L320.60,614.37 L321.67,614.36 L322.74,614.24 L323.81,614.09 L324.88,614.03 L325.95,614.17 L327.02,614.62 L328.09,613.97 L329.17,612.99 L330.24,612.49 L331.31,612.49 L332.38,612.94 L333.45,613.73 L334.52,614.66 L335.59,615.51 L336.66,616.10 L337.73,616.25 L338.80,615.84 L339.87,614.77 L340.94,613.01 L342.02,610.60 L343.09,625.38 L344.16,625.08 L345.23,624.75 L346.30,624.45 L347.37,624.21 L348.44,624.07 L349.51,624.05 L350.58,624.14 L351.65,624.32 L352.72,624.54 L353.80,624.78 L354.87,625.00 L355.94,625.17 L357.01,625.29 L358.08,625.34 L359.15,625.33 L360.22,625.25 L361.29,625.12 L362.36,624.92 L363.43,624.64 L364.50,624.27 L365.57,623.75 L366.65,623.01 L367.72,621.91 L368.79,620.24 L369.86,617.69 L370.93,613.94 L372.00,608.86" fill="none" stroke="#e0e0e0" stroke-width="1.4"/>
<text x="235" y="542" fill="#666" font-family="monospace" font-size="9">14</text>
<rect x="380" y="528" width="152" height="152" fill="#0b0b0b" stroke="#444"/>
<line x1="388" y1="604.00" x2="524" y2="604.00" stroke="#292929"/>
<path d="M388.00,602.97 L389.07,595.33 L390.14,590.27 L391.21,587.64 L392.28,586.35 L393.35,585.69 L394.43,585.33 L395.50,585.14 L396.57,585.07 L397.64,585.12 L398.71,585.33 L399.78,604.04 L400.85,608.35 L401.92,611.78 L402.99,613.97 L404.06,615.01 L405.13,615.04 L406.20,614.03 L407.28,611.74 L408.35,607.99 L409.42,603.30 L410.49,598.98 L411.56,596.13 L412.63,594.89 L413.70,594.85 L414.77,595.44 L415.84,596.00 L416.91,596.04 L417.98,595.32 L419.06,594.00 L420.13,592.48 L421.20,591.19 L422.27,584.18 L423.34,584.25 L424.41,584.37 L425.48,584.53 L426.55,584.71 L427.62,584.87 L428.69,584.96 L429.76,584.99 L430.83,585.05 L431.91,585.22 L432.98,585.68 L434.05,586.48 L435.12,587.37 L436.19,588.76 L437.26,590.37 L438.33,591.67 L439.40,592.14 L440.47,591.62 L441.54,590.28 L442.61,588.57 L443.69,586.99 L444.76,585.84 L445.83,585.13 L446.90,584.73 L447.97,584.51 L449.04,584.41 L450.11,584.37 L451.18,584.38 L452.25,584.45 L453.32,584.64 L454.39,585.06 L455.46,586.00 L456.54,618.01 L457.61,619.94 L458.68,620.88 L459.75,621.30 L460.82,621.49 L461.89,621.56 L462.96,621.57 L464.03,621.53 L465.10,621.42 L466.17,621.21 L467.24,620.81 L468.31,602.60 L469.39,600.26 L470.46,598.43 L471.53,597.56 L472.60,597.93 L473.67,599.76 L474.74,603.24 L475.81,608.10 L476.88,613.16 L477.95,616.98 L479.02,619.19 L480.09,620.26 L481.17,620.72 L482.24,620.89 L483.31,620.94 L484.38,620.98 L485.45,621.07 L486.52,621.23 L487.59,621.41 L488.66,621.57 L489.73,621.69 L490.80,615.59 L491.87,614.75 L492.94,613.46 L494.02,611.94 L495.09,610.62 L496.16,609.90 L497.23,609.93 L498.30,610.50 L499.37,611.08 L500.44,611.05 L501.51,609.81 L502.58,621.78 L503.65,621.56 L504.72,621.15 L505.80,620.51 L506.87,619.72 L507.94,619.02 L509.01,618.65 L510.08,618.71 L511.15,619.13 L512.22,619.71 L513.29,620.24 L514.36,620.61 L515.43,620.81 L516.50,620.87 L517.57,620.80 L518.65,620.61 L519.72,620.25 L520.79,619.59 L521.86,618.30 L522.93,615.67 L524.00,610.61" fill="none" stroke="#e0e0e0" stroke-width="1.4"/>
<text x="387" y="542" fill="#666" font-family="monospace" font-size="9">15</text>
<rect x="532" y="528" width="152" height="152" fill="#0b0b0b" stroke="#444"/>
<line x1="540" y1="604.00" x2="676" y2="604.00" stroke="#292929"/>
<path d="M540.00,603.01 L541.07,592.54 L542.14,587.72 L543.21,586.06 L544.28,585.46 L545.35,585.24 L546.43,585.23 L547.50,585.48 L548.57,586.14 L549.64,610.48 L550.71,615.31 L551.78,617.42 L552.85,617.88 L553.92,616.98 L554.99,613.99 L556.06,607.86 L557.13,600.43 L558.20,595.64 L559.28,594.02 L560.35,594.12 L561.42,594.51 L562.49,594.35 L563.56,593.77 L564.63,593.59 L565.70,594.65 L566.77,597.19 L567.84,584.44 L568.91,584.52 L569.98,584.55 L571.06,584.51 L572.13,584.43 L573.20,584.38 L574.27,584.37 L575.34,584.42 L576.41,584.56 L577.48,592.14 L578.55,592.79 L579.62,591.57 L580.69,589.21 L581.76,587.14 L582.83,585.97 L583.91,585.46 L584.98,585.26 L586.05,585.15 L587.12,585.02 L588.19,584.87 L589.26,584.78 L590.33,584.82 L591.40,585.13 L592.47,586.00 L593.54,587.72 L594.61,589.77 L595.69,616.41 L596.76,617.06 L597.83,616.23 L598.90,613.73 L599.97,609.53 L601.04,605.03 L602.11,602.10 L603.18,601.20 L604.25,584.46 L605.32,584.50 L606.39,584.66 L607.46,585.15 L608.54,586.75 L609.61,590.73 L610.68,596.57 L611.75,601.37 L612.82,603.99 L613.89,604.82 L614.96,603.92 L616.03,600.99 L617.10,596.49 L618.17,592.28 L619.24,589.79 L620.31,588.96 L621.39,589.61 L622.46,616.25 L623.53,618.29 L624.60,620.02 L625.67,620.89 L626.74,621.20 L627.81,621.24 L628.88,621.15 L629.95,621.00 L631.02,620.87 L632.09,620.99 L633.17,621.13 L634.24,621.14 L635.31,621.02 L636.38,620.83 L637.45,620.73 L638.52,620.87 L639.59,621.19 L640.66,621.46 L641.73,621.60 L642.80,621.65 L643.87,621.64 L644.94,621.59 L646.02,621.51 L647.09,621.46 L648.16,621.49 L649.23,621.58 L650.30,608.83 L651.37,611.37 L652.44,612.43 L653.51,612.25 L654.58,611.67 L655.65,611.51 L656.72,611.90 L657.80,612.00 L658.87,610.38 L659.94,621.56 L661.01,621.21 L662.08,620.29 L663.15,618.64 L664.22,616.99 L665.29,616.41 L666.36,617.20 L667.43,618.67 L668.50,619.88 L669.57,620.54 L670.65,620.79 L671.72,620.78 L672.79,620.56 L673.86,619.96 L674.93,618.30 L676.00,613.48" fill="none" stroke="#e0e0e0" stroke-width="1.4"/>
<text x="539" y="542" fill="#666" font-family="monospace" font-size="9">16</text>
</svg>
