<svg xmlns="http://www.w3.org/2000/svg" width="760" height="760" viewBox="0 0 760 760">
<rect width="760" height="760" fill="#161616"/>
<text x="24" y="32" fill="#dedede" font-family="monospace" font-size="15">S3G VOX / BLACK METAL</text>
<text x="684" y="724" text-anchor="end" fill="#858585" font-family="monospace" font-size="11">U / THROAT CLOSURE AND DISTORTION EDGE</text>
<text x="24" y="72" fill="#858585" font-family="monospace" font-size="11">V / VOWEL DARKNESS AND RASP DEPTH</text>
<rect x="76" y="72" width="152" height="152" fill="#0b0b0b" stroke="#444"/>
<line x1="84" y1="148.00" x2="220" y2="148.00" stroke="#292929"/>
<path d="M84.00,134.13 L85.07,127.64 L86.14,127.13 L87.21,125.00 L88.28,123.60 L89.35,122.91 L90.43,123.51 L91.50,124.13 L92.57,124.64 L93.64,123.10 L94.71,123.94 L95.78,123.96 L96.85,124.06 L97.92,121.81 L98.99,121.54 L100.06,120.51 L101.13,119.73 L102.20,119.17 L103.28,118.88 L104.35,119.30 L105.42,119.77 L106.49,120.82 L107.56,120.15 L108.63,121.53 L109.70,137.49 L110.77,138.28 L111.84,135.33 L112.91,136.85 L113.98,133.22 L115.06,132.05 L116.13,131.86 L117.20,132.87 L118.27,133.45 L119.34,134.40 L120.41,133.12 L121.48,134.98 L122.55,137.56 L123.62,144.60 L124.69,143.36 L125.76,147.12 L126.83,149.23 L127.91,148.23 L128.98,149.73 L130.05,146.62 L131.12,145.97 L132.19,148.65 L133.26,148.64 L134.33,147.87 L135.40,146.93 L136.47,150.42 L137.54,149.34 L138.61,150.45 L139.69,152.71 L140.76,152.31 L141.83,151.85 L142.90,152.78 L143.97,151.23 L145.04,149.47 L146.11,148.79 L147.18,149.22 L148.25,147.47 L149.32,147.82 L150.39,149.85 L151.46,151.61 L152.54,152.37 L153.61,155.60 L154.68,156.92 L155.75,156.91 L156.82,158.38 L157.89,157.36 L158.96,156.74 L160.03,155.78 L161.10,151.92 L162.17,151.34 L163.24,151.67 L164.31,151.31 L165.39,150.79 L166.46,151.70 L167.53,154.35 L168.60,154.98 L169.67,154.55 L170.74,156.56 L171.81,158.16 L172.88,157.50 L173.95,155.58 L175.02,157.31 L176.09,155.47 L177.17,156.15 L178.24,157.64 L179.31,158.04 L180.38,159.27 L181.45,160.57 L182.52,162.39 L183.59,162.58 L184.66,164.74 L185.73,164.49 L186.80,165.16 L187.87,164.91 L188.94,164.44 L190.02,164.03 L191.09,164.05 L192.16,162.69 L193.23,163.65 L194.30,163.01 L195.37,162.87 L196.44,162.75 L197.51,164.14 L198.58,164.67 L199.65,165.52 L200.72,165.45 L201.80,164.78 L202.87,164.29 L203.94,165.03 L205.01,164.64 L206.08,162.90 L207.15,161.93 L208.22,160.35 L209.29,159.82 L210.36,160.43 L211.43,160.76 L212.50,159.70 L213.57,162.17 L214.65,162.06 L215.72,161.21 L216.79,161.07 L217.86,159.71 L218.93,157.91 L220.00,157.06" fill="none" stroke="#e0e0e0" stroke-width="1.4"/>
<text x="83" y="86" fill="#666" font-family="monospace" font-size="9">01</text>
<rect x="228" y="72" width="152" height="152" fill="#0b0b0b" stroke="#444"/>
<line x1="236" y1="148.00" x2="372" y2="148.00" stroke="#292929"/>
<path d="M236.00,132.66 L237.07,127.83 L238.14,126.61 L239.21,127.06 L240.28,128.07 L241.35,128.92 L242.43,128.33 L243.50,128.04 L244.57,126.34 L245.64,125.42 L246.71,125.41 L247.78,125.51 L248.85,127.02 L249.92,128.15 L250.99,128.55 L252.06,126.23 L253.13,125.52 L254.20,125.14 L255.28,125.14 L256.35,125.30 L257.42,125.77 L258.49,126.08 L259.56,127.18 L260.63,126.05 L261.70,125.47 L262.77,125.30 L263.84,125.39 L264.91,125.93 L265.98,126.99 L267.06,128.93 L268.13,128.16 L269.20,127.45 L270.27,126.00 L271.34,125.40 L272.41,125.59 L273.48,125.89 L274.55,126.62 L275.62,128.39 L276.69,145.63 L277.76,146.63 L278.83,139.78 L279.91,139.71 L280.98,144.79 L282.05,151.40 L283.12,155.44 L284.19,156.69 L285.26,157.22 L286.33,152.38 L287.40,148.48 L288.47,144.09 L289.54,147.94 L290.61,156.24 L291.69,157.55 L292.76,160.26 L293.83,158.67 L294.90,155.23 L295.97,153.67 L297.04,151.00 L298.11,153.42 L299.18,157.64 L300.25,161.12 L301.32,160.93 L302.39,158.16 L303.46,155.56 L304.54,151.69 L305.61,147.71 L306.68,150.74 L307.75,154.75 L308.82,158.23 L309.89,157.90 L310.96,154.85 L312.03,147.59 L313.10,148.18 L314.17,148.71 L315.24,151.50 L316.31,157.16 L317.39,159.91 L318.46,160.13 L319.53,158.11 L320.60,154.54 L321.67,153.17 L322.74,151.25 L323.81,155.25 L324.88,158.98 L325.95,161.15 L327.02,161.15 L328.09,158.63 L329.17,156.42 L330.24,158.68 L331.31,159.02 L332.38,160.69 L333.45,162.09 L334.52,162.36 L335.59,162.38 L336.66,162.03 L337.73,159.76 L338.80,160.22 L339.87,159.68 L340.94,161.78 L342.02,162.17 L343.09,162.53 L344.16,162.41 L345.23,161.07 L346.30,160.57 L347.37,160.21 L348.44,161.51 L349.51,162.38 L350.58,162.72 L351.65,162.96 L352.72,162.70 L353.80,162.00 L354.87,161.07 L355.94,160.85 L357.01,161.50 L358.08,162.15 L359.15,162.46 L360.22,162.39 L361.29,162.17 L362.36,161.60 L363.43,159.68 L364.50,160.10 L365.57,161.22 L366.65,161.97 L367.72,162.30 L368.79,162.11 L369.86,160.21 L370.93,157.09 L372.00,154.20" fill="none" stroke="#e0e0e0" stroke-width="1.4"/>
<text x="235" y="86" fill="#666" font-family="monospace" font-size="9">02</text>
<rect x="380" y="72" width="152" height="152" fill="#0b0b0b" stroke="#444"/>
<line x1="388" y1="148.00" x2="524" y2="148.00" stroke="#292929"/>
<path d="M388.00,132.77 L389.07,130.15 L390.14,129.78 L391.21,130.83 L392.28,135.03 L393.35,130.65 L394.43,129.66 L395.50,129.57 L396.57,129.99 L397.64,132.30 L398.71,132.15 L399.78,129.83 L400.85,129.54 L401.92,129.58 L402.99,130.17 L404.06,130.44 L405.13,129.89 L406.20,129.53 L407.28,129.54 L408.35,129.65 L409.42,130.17 L410.49,129.78 L411.56,129.52 L412.63,129.50 L413.70,129.52 L414.77,129.91 L415.84,129.83 L416.91,129.64 L417.98,129.51 L419.06,129.54 L420.13,129.99 L421.20,132.45 L422.27,131.75 L423.34,129.86 L424.41,129.59 L425.48,129.87 L426.55,131.67 L427.62,131.28 L428.69,129.85 L429.76,129.57 L430.83,129.68 L431.91,132.25 L432.98,136.77 L434.05,132.50 L435.12,130.04 L436.19,130.14 L437.26,131.35 L438.33,137.11 L439.40,135.84 L440.47,131.10 L441.54,130.00 L442.61,132.27 L443.69,142.91 L444.76,161.93 L445.83,161.01 L446.90,151.40 L447.97,155.84 L449.04,160.53 L450.11,161.78 L451.18,159.71 L452.25,147.46 L453.32,143.66 L454.39,153.72 L455.46,160.61 L456.54,162.08 L457.61,159.55 L458.68,154.11 L459.75,158.25 L460.82,161.56 L461.89,162.35 L462.96,161.39 L464.03,150.16 L465.10,144.36 L466.17,157.69 L467.24,161.83 L468.31,160.76 L469.39,153.49 L470.46,150.22 L471.53,155.97 L472.60,161.63 L473.67,162.33 L474.74,160.50 L475.81,151.06 L476.88,156.64 L477.95,161.42 L479.02,162.34 L480.09,162.52 L481.17,160.43 L482.24,159.74 L483.31,162.18 L484.38,162.76 L485.45,162.77 L486.52,162.04 L487.59,160.11 L488.66,160.95 L489.73,162.59 L490.80,162.68 L491.87,162.40 L492.94,161.04 L494.02,160.74 L495.09,162.58 L496.16,162.87 L497.23,162.86 L498.30,162.71 L499.37,162.29 L500.44,162.68 L501.51,162.86 L502.58,162.86 L503.65,162.80 L504.72,161.90 L505.80,161.87 L506.87,162.75 L507.94,162.86 L509.01,162.82 L510.08,162.57 L511.15,161.67 L512.22,162.17 L513.29,162.65 L514.36,162.78 L515.43,161.77 L516.50,158.04 L517.57,159.92 L518.65,162.64 L519.72,162.78 L520.79,162.51 L521.86,160.60 L522.93,156.45 L524.00,160.22" fill="none" stroke="#e0e0e0" stroke-width="1.4"/>
<text x="387" y="86" fill="#666" font-family="monospace" font-size="9">03</text>
<rect x="532" y="72" width="152" height="152" fill="#0b0b0b" stroke="#444"/>
<line x1="540" y1="148.00" x2="676" y2="148.00" stroke="#292929"/>
<path d="M540.00,134.81 L541.07,132.25 L542.14,132.54 L543.21,139.62 L544.28,132.66 L545.35,132.23 L546.43,132.32 L547.50,141.46 L548.57,133.09 L549.64,132.23 L550.71,132.25 L551.78,132.82 L552.85,132.47 L553.92,132.22 L554.99,132.22 L556.06,132.60 L557.13,132.47 L558.20,132.22 L559.28,132.21 L560.35,132.36 L561.42,132.56 L562.49,132.22 L563.56,132.22 L564.63,132.48 L565.70,132.89 L566.77,132.25 L567.84,132.22 L568.91,132.25 L569.98,132.49 L571.06,132.23 L572.13,132.21 L573.20,132.26 L574.27,134.57 L575.34,132.43 L576.41,132.22 L577.48,132.38 L578.55,137.12 L579.62,132.65 L580.69,132.24 L581.76,132.29 L582.83,136.09 L583.91,133.70 L584.98,132.24 L586.05,132.52 L587.12,141.68 L588.19,136.68 L589.26,132.34 L590.33,132.52 L591.40,142.34 L592.47,146.77 L593.54,132.48 L594.61,132.57 L595.69,146.63 L596.76,145.37 L597.83,133.10 L598.90,132.31 L599.97,134.95 L601.04,143.47 L602.11,133.39 L603.18,132.48 L604.25,141.86 L605.32,159.96 L606.39,136.70 L607.46,132.63 L608.54,134.03 L609.61,144.25 L610.68,132.98 L611.75,142.24 L612.82,155.09 L613.89,164.62 L614.96,163.43 L616.03,149.01 L617.10,162.23 L618.17,164.74 L619.24,164.38 L620.31,149.23 L621.39,155.20 L622.46,164.55 L623.53,164.36 L624.60,155.06 L625.67,151.34 L626.74,164.63 L627.81,164.67 L628.88,159.73 L629.95,153.91 L631.02,164.49 L632.09,164.74 L633.17,163.36 L634.24,161.90 L635.31,164.74 L636.38,164.80 L637.45,164.19 L638.52,159.20 L639.59,164.59 L640.66,164.79 L641.73,164.63 L642.80,162.34 L643.87,164.78 L644.94,164.80 L646.02,164.79 L647.09,164.31 L648.16,164.74 L649.23,164.80 L650.30,164.78 L651.37,163.76 L652.44,164.69 L653.51,164.80 L654.58,164.80 L655.65,164.60 L656.72,164.72 L657.80,164.80 L658.87,164.80 L659.94,164.56 L661.01,164.30 L662.08,164.80 L663.15,164.80 L664.22,164.61 L665.29,163.47 L666.36,164.77 L667.43,164.79 L668.50,163.21 L669.57,158.04 L670.65,164.65 L671.72,164.78 L672.79,164.47 L673.86,158.57 L674.93,164.55 L676.00,164.76" fill="none" stroke="#e0e0e0" stroke-width="1.4"/>
<text x="539" y="86" fill="#666" font-family="monospace" font-size="9">04</text>
<rect x="76" y="224" width="152" height="152" fill="#0b0b0b" stroke="#444"/>
<line x1="84" y1="300.00" x2="220" y2="300.00" stroke="#292929"/>
<path d="M84.00,281.26 L85.07,280.42 L86.14,277.69 L87.21,273.87 L88.28,271.92 L89.35,272.70 L90.43,275.72 L91.50,277.61 L92.57,272.68 L93.64,273.25 L94.71,276.82 L95.78,273.94 L96.85,274.07 L97.92,272.01 L98.99,273.08 L100.06,271.43 L101.13,272.99 L102.20,271.34 L103.28,277.72 L104.35,273.20 L105.42,279.59 L106.49,282.65 L107.56,279.60 L108.63,278.06 L109.70,302.23 L110.77,306.23 L111.84,298.00 L112.91,295.08 L113.98,295.85 L115.06,293.47 L116.13,290.83 L117.20,293.14 L118.27,291.87 L119.34,294.40 L120.41,295.04 L121.48,293.41 L122.55,295.68 L123.62,298.62 L124.69,296.95 L125.76,287.86 L126.83,290.76 L127.91,281.94 L128.98,281.42 L130.05,281.56 L131.12,282.12 L132.19,282.75 L133.26,288.71 L134.33,287.32 L135.40,288.64 L136.47,291.55 L137.54,296.56 L138.61,303.83 L139.69,309.04 L140.76,303.84 L141.83,303.01 L142.90,306.64 L143.97,305.97 L145.04,301.75 L146.11,308.24 L147.18,304.84 L148.25,303.89 L149.32,309.11 L150.39,311.16 L151.46,311.49 L152.54,314.27 L153.61,312.74 L154.68,313.93 L155.75,311.08 L156.82,313.98 L157.89,314.89 L158.96,309.76 L160.03,306.76 L161.10,308.85 L162.17,303.45 L163.24,309.67 L164.31,302.28 L165.39,304.35 L166.46,311.22 L167.53,308.16 L168.60,306.49 L169.67,312.72 L170.74,312.17 L171.81,306.55 L172.88,309.30 L173.95,307.29 L175.02,309.62 L176.09,310.01 L177.17,312.79 L178.24,316.14 L179.31,315.04 L180.38,318.89 L181.45,317.60 L182.52,320.46 L183.59,320.51 L184.66,319.71 L185.73,321.00 L186.80,319.79 L187.87,318.16 L188.94,316.48 L190.02,318.09 L191.09,315.60 L192.16,314.12 L193.23,315.27 L194.30,315.26 L195.37,315.60 L196.44,311.58 L197.51,314.16 L198.58,315.79 L199.65,314.05 L200.72,312.80 L201.80,311.85 L202.87,310.96 L203.94,308.81 L205.01,302.19 L206.08,307.47 L207.15,302.10 L208.22,303.16 L209.29,299.85 L210.36,302.44 L211.43,298.82 L212.50,305.74 L213.57,305.01 L214.65,308.43 L215.72,309.87 L216.79,306.78 L217.86,313.05 L218.93,310.22 L220.00,312.90" fill="none" stroke="#e0e0e0" stroke-width="1.4"/>
<text x="83" y="238" fill="#666" font-family="monospace" font-size="9">05</text>
<rect x="228" y="224" width="152" height="152" fill="#0b0b0b" stroke="#444"/>
<line x1="236" y1="300.00" x2="372" y2="300.00" stroke="#292929"/>
<path d="M236.00,284.56 L237.07,279.16 L238.14,278.96 L239.21,279.75 L240.28,283.44 L241.35,282.95 L242.43,280.55 L243.50,280.16 L244.57,278.74 L245.64,278.07 L246.71,278.40 L247.78,279.66 L248.85,279.08 L249.92,281.15 L250.99,280.54 L252.06,279.01 L253.13,278.62 L254.20,278.38 L255.28,278.83 L256.35,280.60 L257.42,281.00 L258.49,283.90 L259.56,283.51 L260.63,283.70 L261.70,281.85 L262.77,279.80 L263.84,279.42 L264.91,284.51 L265.98,281.85 L267.06,282.37 L268.13,283.45 L269.20,279.64 L270.27,278.39 L271.34,279.79 L272.41,279.02 L273.48,279.77 L274.55,284.29 L275.62,283.89 L276.69,291.48 L277.76,289.16 L278.83,282.86 L279.91,285.67 L280.98,287.36 L282.05,290.23 L283.12,290.85 L284.19,289.99 L285.26,293.44 L286.33,289.73 L287.40,285.06 L288.47,293.77 L289.54,297.04 L290.61,303.44 L291.69,308.59 L292.76,307.74 L293.83,307.51 L294.90,303.62 L295.97,297.04 L297.04,303.42 L298.11,310.52 L299.18,314.22 L300.25,315.27 L301.32,313.67 L302.39,311.31 L303.46,311.20 L304.54,307.55 L305.61,307.59 L306.68,310.39 L307.75,315.42 L308.82,314.40 L309.89,308.62 L310.96,307.85 L312.03,300.86 L313.10,304.11 L314.17,302.09 L315.24,312.78 L316.31,315.04 L317.39,314.92 L318.46,313.54 L319.53,303.94 L320.60,303.06 L321.67,307.11 L322.74,307.68 L323.81,313.66 L324.88,313.83 L325.95,315.77 L327.02,314.43 L328.09,314.30 L329.17,312.08 L330.24,315.31 L331.31,316.19 L332.38,316.89 L333.45,316.95 L334.52,317.13 L335.59,316.95 L336.66,316.14 L337.73,315.59 L338.80,315.45 L339.87,316.55 L340.94,316.94 L342.02,317.08 L343.09,317.07 L344.16,316.33 L345.23,315.83 L346.30,314.79 L347.37,315.42 L348.44,316.21 L349.51,315.31 L350.58,315.50 L351.65,314.69 L352.72,313.54 L353.80,309.97 L354.87,306.29 L355.94,305.62 L357.01,309.63 L358.08,314.27 L359.15,311.86 L360.22,313.08 L361.29,310.31 L362.36,299.16 L363.43,299.14 L364.50,307.13 L365.57,311.63 L366.65,311.73 L367.72,312.33 L368.79,309.27 L369.86,310.89 L370.93,308.40 L372.00,309.27" fill="none" stroke="#e0e0e0" stroke-width="1.4"/>
<text x="235" y="238" fill="#666" font-family="monospace" font-size="9">06</text>
<rect x="380" y="224" width="152" height="152" fill="#0b0b0b" stroke="#444"/>
<line x1="388" y1="300.00" x2="524" y2="300.00" stroke="#292929"/>
<path d="M388.00,284.88 L389.07,282.61 L390.14,283.09 L391.21,283.69 L392.28,283.76 L393.35,282.41 L394.43,282.04 L395.50,282.00 L396.57,282.68 L397.64,284.57 L398.71,282.29 L399.78,282.04 L400.85,282.04 L401.92,282.62 L402.99,283.75 L404.06,285.60 L405.13,282.14 L406.20,282.17 L407.28,282.95 L408.35,284.82 L409.42,288.82 L410.49,284.46 L411.56,282.44 L412.63,282.41 L413.70,283.54 L414.77,292.42 L415.84,284.98 L416.91,282.65 L417.98,282.17 L419.06,282.46 L420.13,284.24 L421.20,283.29 L422.27,282.42 L423.34,281.97 L424.41,282.15 L425.48,282.32 L426.55,283.37 L427.62,283.26 L428.69,282.13 L429.76,282.02 L430.83,282.14 L431.91,282.45 L432.98,282.51 L434.05,281.99 L435.12,281.97 L436.19,282.05 L437.26,282.45 L438.33,284.09 L439.40,282.42 L440.47,282.05 L441.54,282.18 L442.61,282.30 L443.69,285.54 L444.76,307.70 L445.83,288.87 L446.90,289.81 L447.97,307.68 L449.04,314.49 L450.11,314.63 L451.18,313.86 L452.25,308.66 L453.32,308.23 L454.39,314.95 L455.46,315.19 L456.54,315.02 L457.61,311.31 L458.68,311.80 L459.75,314.54 L460.82,315.02 L461.89,315.28 L462.96,313.89 L464.03,303.78 L465.10,304.35 L466.17,314.09 L467.24,313.62 L468.31,309.55 L469.39,305.45 L470.46,307.48 L471.53,313.52 L472.60,314.92 L473.67,313.69 L474.74,310.50 L475.81,306.43 L476.88,308.75 L477.95,314.88 L479.02,315.18 L480.09,315.07 L481.17,314.55 L482.24,314.43 L483.31,315.30 L484.38,315.42 L485.45,315.40 L486.52,315.27 L487.59,315.09 L488.66,315.37 L489.73,315.38 L490.80,315.42 L491.87,315.35 L492.94,315.13 L494.02,315.19 L495.09,315.39 L496.16,315.33 L497.23,315.23 L498.30,310.51 L499.37,309.46 L500.44,314.39 L501.51,315.20 L502.58,315.28 L503.65,312.44 L504.72,312.89 L505.80,314.28 L506.87,315.00 L507.94,314.68 L509.01,313.62 L510.08,300.84 L511.15,304.07 L512.22,313.09 L513.29,314.79 L514.36,314.05 L515.43,310.92 L516.50,301.70 L517.57,311.32 L518.65,314.49 L519.72,314.58 L520.79,312.34 L521.86,297.05 L522.93,307.05 L524.00,315.11" fill="none" stroke="#e0e0e0" stroke-width="1.4"/>
<text x="387" y="238" fill="#666" font-family="monospace" font-size="9">07</text>
<rect x="532" y="224" width="152" height="152" fill="#0b0b0b" stroke="#444"/>
<line x1="540" y1="300.00" x2="676" y2="300.00" stroke="#292929"/>
<path d="M540.00,284.70 L541.07,284.49 L542.14,287.87 L543.21,288.30 L544.28,284.55 L545.35,284.48 L546.43,285.63 L547.50,287.41 L548.57,284.50 L549.64,284.46 L550.71,284.50 L551.78,286.26 L552.85,284.54 L553.92,284.48 L554.99,284.79 L556.06,289.86 L557.13,284.87 L558.20,284.46 L559.28,284.49 L560.35,285.34 L561.42,285.35 L562.49,284.47 L563.56,285.19 L564.63,292.49 L565.70,285.65 L566.77,284.52 L567.84,284.71 L568.91,287.43 L569.98,286.20 L571.06,284.48 L572.13,284.56 L573.20,287.32 L574.27,288.69 L575.34,284.47 L576.41,284.45 L577.48,284.68 L578.55,285.46 L579.62,284.46 L580.69,284.46 L581.76,284.53 L582.83,285.10 L583.91,284.50 L584.98,284.45 L586.05,284.48 L587.12,285.82 L588.19,284.47 L589.26,284.46 L590.33,284.54 L591.40,285.40 L592.47,284.51 L593.54,284.45 L594.61,284.47 L595.69,285.43 L596.76,285.05 L597.83,284.48 L598.90,285.95 L599.97,301.03 L601.04,291.13 L602.11,284.64 L603.18,285.83 L604.25,306.76 L605.32,303.30 L606.39,285.96 L607.46,288.17 L608.54,300.96 L609.61,303.25 L610.68,285.43 L611.75,301.11 L612.82,317.00 L613.89,317.08 L614.96,315.65 L616.03,304.41 L617.10,316.99 L618.17,317.02 L619.24,315.59 L620.31,293.13 L621.39,315.93 L622.46,316.78 L623.53,315.40 L624.60,292.96 L625.67,315.00 L626.74,317.11 L627.81,316.85 L628.88,299.54 L629.95,316.20 L631.02,317.13 L632.09,317.13 L633.17,316.04 L634.24,317.10 L635.31,317.15 L636.38,317.15 L637.45,316.63 L638.52,316.69 L639.59,317.15 L640.66,317.15 L641.73,316.95 L642.80,317.10 L643.87,317.15 L644.94,317.15 L646.02,316.98 L647.09,316.83 L648.16,317.13 L649.23,317.15 L650.30,317.13 L651.37,316.38 L652.44,317.12 L653.51,317.14 L654.58,316.62 L655.65,300.76 L656.72,316.72 L657.80,317.13 L658.87,315.81 L659.94,293.51 L661.01,315.02 L662.08,317.10 L663.15,314.00 L664.22,297.14 L665.29,312.63 L666.36,316.90 L667.43,316.62 L668.50,307.34 L669.57,316.16 L670.65,317.09 L671.72,317.05 L672.79,298.64 L673.86,306.37 L674.93,316.96 L676.00,317.07" fill="none" stroke="#e0e0e0" stroke-width="1.4"/>
<text x="539" y="238" fill="#666" font-family="monospace" font-size="9">08</text>
<rect x="76" y="376" width="152" height="152" fill="#0b0b0b" stroke="#444"/>
<line x1="84" y1="452.00" x2="220" y2="452.00" stroke="#292929"/>
<path d="M84.00,433.00 L85.07,424.18 L86.14,430.21 L87.21,422.51 L88.28,430.82 L89.35,424.38 L90.43,430.87 L91.50,426.09 L92.57,425.01 L93.64,433.63 L94.71,434.96 L95.78,425.90 L96.85,426.75 L97.92,432.73 L98.99,428.92 L100.06,430.64 L101.13,428.78 L102.20,434.08 L103.28,437.31 L104.35,433.73 L105.42,432.49 L106.49,434.11 L107.56,430.08 L108.63,433.55 L109.70,441.26 L110.77,440.17 L111.84,447.76 L112.91,437.32 L113.98,438.23 L115.06,432.53 L116.13,434.47 L117.20,438.52 L118.27,428.28 L119.34,432.67 L120.41,440.93 L121.48,437.72 L122.55,441.26 L123.62,448.47 L124.69,447.37 L125.76,450.81 L126.83,443.18 L127.91,452.23 L128.98,450.42 L130.05,455.63 L131.12,455.97 L132.19,443.02 L133.26,446.80 L134.33,451.74 L135.40,443.66 L136.47,451.95 L137.54,442.18 L138.61,443.67 L139.69,445.85 L140.76,439.67 L141.83,444.10 L142.90,446.03 L143.97,446.47 L145.04,449.07 L146.11,440.94 L147.18,452.49 L148.25,452.02 L149.32,458.28 L150.39,458.86 L151.46,460.37 L152.54,465.13 L153.61,468.27 L154.68,466.41 L155.75,465.86 L156.82,463.33 L157.89,460.68 L158.96,463.24 L160.03,466.23 L161.10,463.09 L162.17,462.60 L163.24,461.39 L164.31,462.65 L165.39,465.48 L166.46,461.47 L167.53,459.58 L168.60,458.84 L169.67,461.47 L170.74,458.41 L171.81,460.19 L172.88,467.29 L173.95,462.54 L175.02,467.37 L176.09,468.54 L177.17,471.73 L178.24,468.54 L179.31,472.51 L180.38,473.17 L181.45,470.95 L182.52,470.63 L183.59,472.58 L184.66,471.56 L185.73,466.94 L186.80,464.41 L187.87,460.45 L188.94,454.86 L190.02,463.01 L191.09,464.03 L192.16,462.17 L193.23,464.09 L194.30,458.73 L195.37,463.68 L196.44,462.12 L197.51,467.82 L198.58,470.68 L199.65,465.11 L200.72,463.94 L201.80,467.70 L202.87,469.62 L203.94,470.49 L205.01,462.26 L206.08,468.87 L207.15,462.72 L208.22,470.74 L209.29,471.19 L210.36,468.46 L211.43,471.06 L212.50,464.43 L213.57,465.95 L214.65,460.46 L215.72,459.75 L216.79,448.60 L217.86,457.25 L218.93,451.53 L220.00,447.45" fill="none" stroke="#e0e0e0" stroke-width="1.4"/>
<text x="83" y="390" fill="#666" font-family="monospace" font-size="9">09</text>
<rect x="228" y="376" width="152" height="152" fill="#0b0b0b" stroke="#444"/>
<line x1="236" y1="452.00" x2="372" y2="452.00" stroke="#292929"/>
<path d="M236.00,436.11 L237.07,431.32 L238.14,434.85 L239.21,431.56 L240.28,432.49 L241.35,431.92 L242.43,434.34 L243.50,431.54 L244.57,430.19 L245.64,430.76 L246.71,431.03 L247.78,431.75 L248.85,434.73 L249.92,433.18 L250.99,435.92 L252.06,433.85 L253.13,432.18 L254.20,431.32 L255.28,441.85 L256.35,437.19 L257.42,440.88 L258.49,436.10 L259.56,431.60 L260.63,430.09 L261.70,430.75 L262.77,430.24 L263.84,431.28 L264.91,431.10 L265.98,432.27 L267.06,431.53 L268.13,430.64 L269.20,429.77 L270.27,430.24 L271.34,430.21 L272.41,431.06 L273.48,431.76 L274.55,433.45 L275.62,431.01 L276.69,443.93 L277.76,447.51 L278.83,443.70 L279.91,446.10 L280.98,454.81 L282.05,462.61 L283.12,461.40 L284.19,458.58 L285.26,442.00 L286.33,436.60 L287.40,439.63 L288.47,447.47 L289.54,446.01 L290.61,447.87 L291.69,449.11 L292.76,447.30 L293.83,445.99 L294.90,442.22 L295.97,442.54 L297.04,453.85 L298.11,453.93 L299.18,456.28 L300.25,454.52 L301.32,461.04 L302.39,458.13 L303.46,456.70 L304.54,460.31 L305.61,465.42 L306.68,468.20 L307.75,467.82 L308.82,466.95 L309.89,465.53 L310.96,460.52 L312.03,462.24 L313.10,458.40 L314.17,465.91 L315.24,462.90 L316.31,467.19 L317.39,464.26 L318.46,454.83 L319.53,450.74 L320.60,452.24 L321.67,453.93 L322.74,461.77 L323.81,466.65 L324.88,466.29 L325.95,464.86 L327.02,467.83 L328.09,464.63 L329.17,465.36 L330.24,467.29 L331.31,468.75 L332.38,468.44 L333.45,468.44 L334.52,467.91 L335.59,468.02 L336.66,466.12 L337.73,464.68 L338.80,466.99 L339.87,468.37 L340.94,468.16 L342.02,467.04 L343.09,467.64 L344.16,462.33 L345.23,455.36 L346.30,455.96 L347.37,463.68 L348.44,467.27 L349.51,467.64 L350.58,466.79 L351.65,467.88 L352.72,466.85 L353.80,467.19 L354.87,468.06 L355.94,468.59 L357.01,468.49 L358.08,468.34 L359.15,468.29 L360.22,465.08 L361.29,465.49 L362.36,466.22 L363.43,465.21 L364.50,465.61 L365.57,467.74 L366.65,465.63 L367.72,463.81 L368.79,463.25 L369.86,451.42 L370.93,450.82 L372.00,444.67" fill="none" stroke="#e0e0e0" stroke-width="1.4"/>
<text x="235" y="390" fill="#666" font-family="monospace" font-size="9">10</text>
<rect x="380" y="376" width="152" height="152" fill="#0b0b0b" stroke="#444"/>
<line x1="388" y1="452.00" x2="524" y2="452.00" stroke="#292929"/>
<path d="M388.00,434.84 L389.07,434.59 L390.14,435.09 L391.21,437.18 L392.28,435.81 L393.35,434.04 L394.43,434.26 L395.50,434.72 L396.57,435.65 L397.64,434.34 L398.71,434.09 L399.78,434.00 L400.85,434.82 L401.92,435.22 L402.99,443.96 L404.06,440.65 L405.13,435.04 L406.20,436.29 L407.28,436.92 L408.35,436.91 L409.42,436.16 L410.49,434.53 L411.56,434.05 L412.63,435.13 L413.70,442.83 L414.77,439.64 L415.84,434.58 L416.91,434.01 L417.98,434.04 L419.06,434.15 L420.13,435.45 L421.20,434.53 L422.27,434.09 L423.34,433.99 L424.41,434.44 L425.48,435.04 L426.55,435.23 L427.62,434.03 L428.69,434.01 L429.76,434.09 L430.83,434.96 L431.91,436.86 L432.98,440.00 L434.05,434.26 L435.12,434.60 L436.19,436.24 L437.26,435.81 L438.33,435.32 L439.40,434.07 L440.47,434.00 L441.54,434.29 L442.61,439.25 L443.69,434.58 L444.76,442.67 L445.83,435.13 L446.90,444.20 L447.97,449.93 L449.04,464.91 L450.11,457.49 L451.18,451.75 L452.25,456.85 L453.32,462.09 L454.39,466.69 L455.46,467.55 L456.54,465.09 L457.61,464.69 L458.68,464.83 L459.75,467.26 L460.82,467.68 L461.89,466.90 L462.96,464.50 L464.03,459.85 L465.10,464.84 L466.17,466.47 L467.24,465.39 L468.31,462.35 L469.39,459.75 L470.46,456.08 L471.53,467.37 L472.60,466.41 L473.67,465.85 L474.74,463.40 L475.81,459.64 L476.88,466.29 L477.95,467.50 L479.02,467.54 L480.09,467.47 L481.17,467.21 L482.24,467.48 L483.31,467.68 L484.38,467.68 L485.45,467.07 L486.52,466.92 L487.59,467.39 L488.66,467.67 L489.73,467.69 L490.80,467.57 L491.87,464.63 L492.94,466.77 L494.02,466.54 L495.09,467.60 L496.16,466.58 L497.23,466.34 L498.30,465.01 L499.37,463.78 L500.44,467.60 L501.51,467.08 L502.58,467.25 L503.65,457.96 L504.72,464.01 L505.80,467.33 L506.87,467.67 L507.94,467.30 L509.01,467.48 L510.08,465.80 L511.15,467.53 L512.22,467.67 L513.29,467.62 L514.36,465.74 L515.43,464.19 L516.50,454.82 L517.57,465.88 L518.65,467.50 L519.72,466.31 L520.79,449.02 L521.86,446.56 L522.93,459.99 L524.00,462.46" fill="none" stroke="#e0e0e0" stroke-width="1.4"/>
<text x="387" y="390" fill="#666" font-family="monospace" font-size="9">11</text>
<rect x="532" y="376" width="152" height="152" fill="#0b0b0b" stroke="#444"/>
<line x1="540" y1="452.00" x2="676" y2="452.00" stroke="#292929"/>
<path d="M540.00,436.58 L541.07,437.32 L542.14,438.94 L543.21,436.71 L544.28,436.54 L545.35,436.54 L546.43,436.98 L547.50,437.16 L548.57,436.54 L549.64,436.53 L550.71,438.07 L551.78,437.39 L552.85,436.57 L553.92,436.91 L554.99,439.61 L556.06,455.74 L557.13,436.60 L558.20,437.02 L559.28,445.56 L560.35,441.00 L561.42,437.11 L562.49,436.54 L563.56,436.67 L564.63,441.99 L565.70,436.57 L566.77,436.53 L567.84,436.55 L568.91,438.73 L569.98,436.60 L571.06,436.53 L572.13,436.54 L573.20,437.30 L574.27,436.54 L575.34,436.53 L576.41,436.54 L577.48,439.78 L578.55,438.77 L579.62,436.54 L580.69,436.61 L581.76,437.14 L582.83,437.46 L583.91,436.58 L584.98,436.69 L586.05,442.02 L587.12,441.73 L588.19,436.69 L589.26,436.54 L590.33,436.87 L591.40,439.48 L592.47,436.59 L593.54,436.54 L594.61,438.06 L595.69,438.62 L596.76,436.61 L597.83,436.55 L598.90,437.45 L599.97,447.54 L601.04,436.59 L602.11,436.58 L603.18,436.74 L604.25,454.46 L605.32,437.16 L606.39,436.76 L607.46,445.38 L608.54,464.83 L609.61,446.65 L610.68,437.16 L611.75,467.67 L612.82,468.88 L613.89,468.72 L614.96,465.73 L616.03,468.69 L617.10,468.95 L618.17,468.94 L619.24,466.11 L620.31,465.16 L621.39,467.55 L622.46,468.88 L623.53,448.93 L624.60,446.80 L625.67,468.44 L626.74,468.89 L627.81,465.88 L628.88,465.38 L629.95,468.51 L631.02,468.96 L632.09,468.88 L633.17,468.42 L634.24,468.95 L635.31,468.97 L636.38,468.96 L637.45,468.73 L638.52,468.96 L639.59,468.97 L640.66,468.96 L641.73,467.62 L642.80,468.75 L643.87,468.94 L644.94,468.90 L646.02,463.55 L647.09,467.55 L648.16,468.87 L649.23,468.84 L650.30,462.97 L651.37,466.50 L652.44,468.93 L653.51,468.94 L654.58,468.52 L655.65,468.04 L656.72,468.95 L657.80,468.97 L658.87,468.19 L659.94,468.77 L661.01,468.96 L662.08,468.96 L663.15,468.24 L664.22,468.22 L665.29,468.92 L666.36,468.95 L667.43,468.45 L668.50,458.41 L669.57,467.11 L670.65,468.82 L671.72,467.68 L672.79,449.19 L673.86,462.23 L674.93,466.69 L676.00,449.88" fill="none" stroke="#e0e0e0" stroke-width="1.4"/>
<text x="539" y="390" fill="#666" font-family="monospace" font-size="9">12</text>
<rect x="76" y="528" width="152" height="152" fill="#0b0b0b" stroke="#444"/>
<line x1="84" y1="604.00" x2="220" y2="604.00" stroke="#292929"/>
<path d="M84.00,590.58 L85.07,578.82 L86.14,582.44 L87.21,579.48 L88.28,582.30 L89.35,588.35 L90.43,585.66 L91.50,583.86 L92.57,587.96 L93.64,588.58 L94.71,592.57 L95.78,585.65 L96.85,585.43 L97.92,578.29 L98.99,578.37 L100.06,577.96 L101.13,587.20 L102.20,583.71 L103.28,575.71 L104.35,574.60 L105.42,576.81 L106.49,573.42 L107.56,577.82 L108.63,579.06 L109.70,594.06 L110.77,590.31 L111.84,594.47 L112.91,594.19 L113.98,589.27 L115.06,586.89 L116.13,592.85 L117.20,593.82 L118.27,599.26 L119.34,598.41 L120.41,610.61 L121.48,613.58 L122.55,607.30 L123.62,602.75 L124.69,589.46 L125.76,582.18 L126.83,585.62 L127.91,584.94 L128.98,587.15 L130.05,596.95 L131.12,594.75 L132.19,595.33 L133.26,600.75 L134.33,611.80 L135.40,602.84 L136.47,615.92 L137.54,607.10 L138.61,614.77 L139.69,605.92 L140.76,609.03 L141.83,605.91 L142.90,589.42 L143.97,585.49 L145.04,592.78 L146.11,595.17 L147.18,594.35 L148.25,592.14 L149.32,600.30 L150.39,610.02 L151.46,613.42 L152.54,618.06 L153.61,610.94 L154.68,615.36 L155.75,617.67 L156.82,618.32 L157.89,615.99 L158.96,614.18 L160.03,612.55 L161.10,619.85 L162.17,619.26 L163.24,617.87 L164.31,616.29 L165.39,618.03 L166.46,608.40 L167.53,616.58 L168.60,612.16 L169.67,610.98 L170.74,618.06 L171.81,608.67 L172.88,616.41 L173.95,617.83 L175.02,620.56 L176.09,618.20 L177.17,623.92 L178.24,621.17 L179.31,621.80 L180.38,623.10 L181.45,615.41 L182.52,621.63 L183.59,610.88 L184.66,610.00 L185.73,618.34 L186.80,606.99 L187.87,616.94 L188.94,610.74 L190.02,613.63 L191.09,613.64 L192.16,621.13 L193.23,622.84 L194.30,622.37 L195.37,625.18 L196.44,623.08 L197.51,621.40 L198.58,624.86 L199.65,622.93 L200.72,620.57 L201.80,611.57 L202.87,615.98 L203.94,612.97 L205.01,612.07 L206.08,602.87 L207.15,609.64 L208.22,604.68 L209.29,603.11 L210.36,604.73 L211.43,608.14 L212.50,611.50 L213.57,610.57 L214.65,617.31 L215.72,618.55 L216.79,610.30 L217.86,616.26 L218.93,617.82 L220.00,612.79" fill="none" stroke="#e0e0e0" stroke-width="1.4"/>
<text x="83" y="542" fill="#666" font-family="monospace" font-size="9">13</text>
<rect x="228" y="528" width="152" height="152" fill="#0b0b0b" stroke="#444"/>
<line x1="236" y1="604.00" x2="372" y2="604.00" stroke="#292929"/>
<path d="M236.00,582.06 L237.07,582.68 L238.14,588.18 L239.21,581.55 L240.28,581.65 L241.35,583.38 L242.43,580.42 L243.50,583.70 L244.57,584.65 L245.64,584.90 L246.71,597.09 L247.78,600.96 L248.85,594.81 L249.92,594.12 L250.99,582.39 L252.06,582.86 L253.13,585.28 L254.20,590.80 L255.28,594.23 L256.35,582.90 L257.42,582.43 L258.49,579.86 L259.56,580.28 L260.63,579.83 L261.70,579.78 L262.77,581.54 L263.84,581.19 L264.91,589.68 L265.98,589.78 L267.06,583.16 L268.13,584.22 L269.20,581.18 L270.27,580.84 L271.34,586.46 L272.41,586.57 L273.48,583.46 L274.55,581.41 L275.62,583.51 L276.69,589.28 L277.76,583.66 L278.83,586.72 L279.91,584.57 L280.98,599.05 L282.05,589.82 L283.12,602.91 L284.19,593.09 L285.26,606.80 L286.33,604.26 L287.40,607.17 L288.47,616.04 L289.54,619.15 L290.61,615.54 L291.69,601.72 L292.76,600.90 L293.83,603.13 L294.90,593.70 L295.97,594.62 L297.04,612.52 L298.11,612.80 L299.18,597.14 L300.25,597.17 L301.32,591.28 L302.39,593.62 L303.46,600.99 L304.54,616.04 L305.61,616.40 L306.68,619.53 L307.75,619.94 L308.82,618.84 L309.89,619.22 L310.96,618.50 L312.03,616.65 L313.10,617.95 L314.17,619.36 L315.24,619.73 L316.31,614.55 L317.39,604.33 L318.46,613.69 L319.53,606.89 L320.60,615.21 L321.67,610.23 L322.74,619.61 L323.81,620.41 L324.88,620.45 L325.95,617.44 L327.02,617.59 L328.09,616.76 L329.17,620.33 L330.24,620.80 L331.31,619.56 L332.38,619.52 L333.45,620.30 L334.52,614.56 L335.59,604.43 L336.66,609.24 L337.73,615.03 L338.80,618.02 L339.87,617.35 L340.94,614.94 L342.02,618.37 L343.09,612.11 L344.16,619.19 L345.23,619.05 L346.30,619.19 L347.37,620.41 L348.44,620.97 L349.51,620.26 L350.58,618.62 L351.65,620.25 L352.72,618.50 L353.80,616.22 L354.87,608.20 L355.94,616.23 L357.01,617.32 L358.08,618.54 L359.15,606.47 L360.22,598.49 L361.29,614.69 L362.36,610.85 L363.43,614.39 L364.50,619.77 L365.57,617.29 L366.65,619.36 L367.72,619.71 L368.79,612.44 L369.86,617.71 L370.93,613.31 L372.00,619.29" fill="none" stroke="#e0e0e0" stroke-width="1.4"/>
<text x="235" y="542" fill="#666" font-family="monospace" font-size="9">14</text>
<rect x="380" y="528" width="152" height="152" fill="#0b0b0b" stroke="#444"/>
<line x1="388" y1="604.00" x2="524" y2="604.00" stroke="#292929"/>
<path d="M388.00,585.38 L389.07,586.99 L390.14,590.61 L391.21,591.08 L392.28,585.18 L393.35,585.19 L394.43,585.43 L395.50,587.02 L396.57,587.15 L397.64,585.40 L398.71,585.24 L399.78,585.65 L400.85,597.46 L401.92,592.91 L402.99,598.02 L404.06,586.67 L405.13,585.75 L406.20,585.23 L407.28,588.92 L408.35,585.45 L409.42,585.09 L410.49,585.05 L411.56,585.19 L412.63,586.27 L413.70,587.29 L414.77,585.08 L415.84,585.03 L416.91,585.03 L417.98,587.23 L419.06,586.39 L420.13,589.97 L421.20,586.89 L422.27,585.21 L423.34,586.41 L424.41,585.99 L425.48,586.27 L426.55,587.57 L427.62,585.49 L428.69,585.20 L429.76,585.20 L430.83,587.11 L431.91,585.12 L432.98,585.04 L434.05,585.05 L435.12,585.15 L436.19,586.38 L437.26,593.88 L438.33,587.18 L439.40,585.55 L440.47,586.80 L441.54,603.55 L442.61,602.49 L443.69,593.43 L444.76,613.71 L445.83,611.73 L446.90,612.75 L447.97,618.27 L449.04,616.70 L450.11,597.68 L451.18,599.71 L452.25,604.36 L453.32,617.12 L454.39,618.41 L455.46,605.28 L456.54,597.70 L457.61,608.61 L458.68,617.25 L459.75,618.44 L460.82,618.28 L461.89,618.15 L462.96,616.25 L464.03,615.01 L465.10,618.69 L466.17,618.93 L467.24,615.96 L468.31,594.42 L469.39,614.12 L470.46,616.05 L471.53,618.62 L472.60,618.71 L473.67,615.74 L474.74,615.12 L475.81,618.31 L476.88,619.07 L477.95,618.93 L479.02,619.05 L480.09,617.88 L481.17,618.81 L482.24,618.98 L483.31,618.91 L484.38,617.89 L485.45,616.26 L486.52,609.74 L487.59,618.90 L488.66,618.99 L489.73,618.65 L490.80,611.67 L491.87,613.94 L492.94,617.55 L494.02,619.07 L495.09,619.08 L496.16,618.54 L497.23,616.45 L498.30,619.00 L499.37,619.12 L500.44,619.10 L501.51,619.04 L502.58,617.47 L503.65,616.52 L504.72,618.86 L505.80,619.08 L506.87,618.43 L507.94,618.57 L509.01,613.50 L510.08,609.57 L511.15,618.10 L512.22,618.66 L513.29,618.05 L514.36,618.28 L515.43,617.23 L516.50,618.33 L517.57,619.09 L518.65,618.81 L519.72,615.83 L520.79,608.02 L521.86,616.87 L522.93,618.92 L524.00,618.67" fill="none" stroke="#e0e0e0" stroke-width="1.4"/>
<text x="387" y="542" fill="#666" font-family="monospace" font-size="9">15</text>
<rect x="532" y="528" width="152" height="152" fill="#0b0b0b" stroke="#444"/>
<line x1="540" y1="604.00" x2="676" y2="604.00" stroke="#292929"/>
<path d="M540.00,588.01 L541.07,595.96 L542.14,602.61 L543.21,588.10 L544.28,588.01 L545.35,588.05 L546.43,591.12 L547.50,588.53 L548.57,587.99 L549.64,589.78 L550.71,597.30 L551.78,588.29 L552.85,588.38 L553.92,595.02 L554.99,612.06 L556.06,589.35 L557.13,588.05 L558.20,589.70 L559.28,590.09 L560.35,588.26 L561.42,587.96 L562.49,588.00 L563.56,588.10 L564.63,588.01 L565.70,587.97 L566.77,587.98 L567.84,588.92 L568.91,588.46 L569.98,587.95 L571.06,587.95 L572.13,594.96 L573.20,592.78 L574.27,587.97 L575.34,587.95 L576.41,588.49 L577.48,593.21 L578.55,587.97 L579.62,587.95 L580.69,588.01 L581.76,588.60 L582.83,587.95 L583.91,587.95 L584.98,587.98 L586.05,588.81 L587.12,588.73 L588.19,587.99 L589.26,588.43 L590.33,596.79 L591.40,588.98 L592.47,588.33 L593.54,588.99 L594.61,609.45 L595.69,603.45 L596.76,588.02 L597.83,588.07 L598.90,588.38 L599.97,588.45 L601.04,587.96 L602.11,587.95 L603.18,590.27 L604.25,588.70 L605.32,587.97 L606.39,587.95 L607.46,601.04 L608.54,603.73 L609.61,593.89 L610.68,595.71 L611.75,620.16 L612.82,620.32 L613.89,619.88 L614.96,617.86 L616.03,620.20 L617.10,620.31 L618.17,620.02 L619.24,618.93 L620.31,620.04 L621.39,620.27 L622.46,613.90 L623.53,609.17 L624.60,619.29 L625.67,620.23 L626.74,617.87 L627.81,615.26 L628.88,619.92 L629.95,620.32 L631.02,620.29 L632.09,620.19 L633.17,620.09 L634.24,620.32 L635.31,620.32 L636.38,620.15 L637.45,620.20 L638.52,620.24 L639.59,620.32 L640.66,620.02 L641.73,612.98 L642.80,620.16 L643.87,620.32 L644.94,620.03 L646.02,618.57 L647.09,620.10 L648.16,620.32 L649.23,620.23 L650.30,614.83 L651.37,620.31 L652.44,620.32 L653.51,620.14 L654.58,618.73 L655.65,620.31 L656.72,620.32 L657.80,620.27 L658.87,614.35 L659.94,619.79 L661.01,619.97 L662.08,620.21 L663.15,615.53 L664.22,618.50 L665.29,620.14 L666.36,619.50 L667.43,619.87 L668.50,619.76 L669.57,620.23 L670.65,620.31 L671.72,615.89 L672.79,614.14 L673.86,620.32 L674.93,620.31 L676.00,609.67" fill="none" stroke="#e0e0e0" stroke-width="1.4"/>
<text x="539" y="542" fill="#666" font-family="monospace" font-size="9">16</text>
</svg>
