<svg xmlns="http://www.w3.org/2000/svg" width="760" height="760" viewBox="0 0 760 760">
<rect width="760" height="760" fill="#161616"/>
<text x="24" y="32" fill="#dedede" font-family="monospace" font-size="15">S3G VOT / RESIDUAL DELTA</text>
<text x="684" y="724" text-anchor="end" fill="#858585" font-family="monospace" font-size="11">U / DIFFERENCE EMPHASIS</text>
<text x="24" y="72" fill="#858585" font-family="monospace" font-size="11">V / DIFFERENCE ORDER</text>
<text x="76" y="724" fill="#858585" font-family="monospace" font-size="11">ENERGY / DIFFERENCE-ORDER RISE</text>
<rect x="76" y="72" width="152" height="152" fill="#0b0b0b" stroke="#444"/>
<line x1="84" y1="148.00" x2="220" y2="148.00" stroke="#292929"/>
<path d="M84.00,146.74 L85.07,145.90 L86.14,145.16 L87.21,144.59 L88.28,144.26 L89.35,144.19 L90.43,144.27 L91.50,144.35 L92.57,144.32 L93.64,144.12 L94.71,143.74 L95.78,143.22 L96.85,142.65 L97.92,142.09 L98.99,141.58 L100.06,141.19 L101.13,140.99 L102.20,141.08 L103.28,141.44 L104.35,141.95 L105.42,142.47 L106.49,142.93 L107.56,143.32 L108.63,143.58 L109.70,143.63 L110.77,143.43 L111.84,143.02 L112.91,142.55 L113.98,142.12 L115.06,141.79 L116.13,141.62 L117.20,141.64 L118.27,141.88 L119.34,142.27 L120.41,142.70 L121.48,143.08 L122.55,143.36 L123.62,143.46 L124.69,143.33 L125.76,142.97 L126.83,142.47 L127.91,141.96 L128.98,141.49 L130.05,141.10 L131.12,140.86 L132.19,140.83 L133.26,141.11 L134.33,141.63 L135.40,142.26 L136.47,142.88 L137.54,143.44 L138.61,143.92 L139.69,144.29 L140.76,144.49 L141.83,144.53 L142.90,144.47 L143.97,144.43 L145.04,144.50 L146.11,144.78 L147.18,145.28 L148.25,145.96 L149.32,146.72 L150.39,147.53 L151.46,148.38 L152.54,149.26 L153.61,150.10 L154.68,150.84 L155.75,151.41 L156.82,151.74 L157.89,151.81 L158.96,151.73 L160.03,151.65 L161.10,151.68 L162.17,151.88 L163.24,152.26 L164.31,152.78 L165.39,153.35 L166.46,153.91 L167.53,154.42 L168.60,154.81 L169.67,155.01 L170.74,154.92 L171.81,154.56 L172.88,154.05 L173.95,153.53 L175.02,153.07 L176.09,152.68 L177.17,152.42 L178.24,152.37 L179.31,152.57 L180.38,152.98 L181.45,153.45 L182.52,153.88 L183.59,154.21 L184.66,154.38 L185.73,154.36 L186.80,154.12 L187.87,153.73 L188.94,153.30 L190.02,152.92 L191.09,152.64 L192.16,152.54 L193.23,152.67 L194.30,153.03 L195.37,153.53 L196.44,154.04 L197.51,154.51 L198.58,154.90 L199.65,155.14 L200.72,155.17 L201.80,154.89 L202.87,154.37 L203.94,153.74 L205.01,153.12 L206.08,152.56 L207.15,152.08 L208.22,151.71 L209.29,151.51 L210.36,151.47 L211.43,151.53 L212.50,151.57 L213.57,151.50 L214.65,151.22 L215.72,150.72 L216.79,150.04 L217.86,149.28 L218.93,148.47 L220.00,147.62" fill="none" stroke="#e0e0e0" stroke-width="1.4"/>
<text x="83" y="86" fill="#666" font-family="monospace" font-size="9">01</text>
<rect x="228" y="72" width="152" height="152" fill="#0b0b0b" stroke="#444"/>
<line x1="236" y1="148.00" x2="372" y2="148.00" stroke="#292929"/>
<path d="M236.00,142.77 L237.07,141.68 L238.14,140.74 L239.21,140.11 L240.28,140.02 L241.35,140.67 L242.43,141.83 L243.50,142.76 L244.57,142.95 L245.64,142.29 L246.71,140.96 L247.78,139.40 L248.85,138.05 L249.92,137.02 L250.99,136.28 L252.06,135.88 L253.13,136.07 L254.20,137.23 L255.28,139.41 L256.35,141.67 L257.42,143.20 L258.49,144.12 L259.56,144.64 L260.63,144.77 L261.70,144.26 L262.77,142.86 L263.84,140.77 L264.91,138.86 L265.98,137.63 L267.06,137.02 L268.13,137.02 L269.20,137.75 L270.27,139.24 L271.34,141.06 L272.41,142.55 L273.48,143.48 L274.55,143.85 L275.62,143.58 L276.69,142.43 L277.76,140.46 L278.83,138.43 L279.91,136.98 L280.98,136.06 L282.05,135.54 L283.12,135.42 L284.19,136.00 L285.26,137.65 L286.33,140.15 L287.40,142.43 L288.47,143.95 L289.54,144.95 L290.61,145.61 L291.69,145.93 L292.76,145.77 L293.83,145.09 L294.90,144.14 L295.97,143.49 L297.04,143.55 L298.11,144.52 L299.18,146.23 L300.25,148.10 L301.32,149.64 L302.39,150.90 L303.46,152.08 L304.54,153.23 L305.61,154.32 L306.68,155.26 L307.75,155.89 L308.82,155.98 L309.89,155.33 L310.96,154.17 L312.03,153.24 L313.10,153.05 L314.17,153.71 L315.24,155.04 L316.31,156.60 L317.39,157.95 L318.46,158.98 L319.53,159.72 L320.60,160.12 L321.67,159.93 L322.74,158.77 L323.81,156.59 L324.88,154.33 L325.95,152.80 L327.02,151.88 L328.09,151.36 L329.17,151.23 L330.24,151.74 L331.31,153.14 L332.38,155.23 L333.45,157.14 L334.52,158.37 L335.59,158.98 L336.66,158.98 L337.73,158.25 L338.80,156.76 L339.87,154.94 L340.94,153.45 L342.02,152.52 L343.09,152.15 L344.16,152.42 L345.23,153.57 L346.30,155.54 L347.37,157.57 L348.44,159.02 L349.51,159.94 L350.58,160.46 L351.65,160.58 L352.72,160.00 L353.80,158.35 L354.87,155.85 L355.94,153.57 L357.01,152.05 L358.08,151.05 L359.15,150.39 L360.22,150.07 L361.29,150.23 L362.36,150.91 L363.43,151.86 L364.50,152.51 L365.57,152.45 L366.65,151.48 L367.72,149.77 L368.79,147.90 L369.86,146.36 L370.93,145.10 L372.00,143.92" fill="none" stroke="#e0e0e0" stroke-width="1.4"/>
<text x="235" y="86" fill="#666" font-family="monospace" font-size="9">02</text>
<rect x="380" y="72" width="152" height="152" fill="#0b0b0b" stroke="#444"/>
<line x1="388" y1="148.00" x2="524" y2="148.00" stroke="#292929"/>
<path d="M388.00,132.90 L389.07,132.23 L390.14,131.64 L391.21,131.29 L392.28,131.62 L393.35,133.74 L394.43,138.26 L395.50,142.54 L396.57,143.77 L397.64,141.55 L398.71,137.08 L399.78,132.89 L400.85,130.39 L401.92,129.15 L402.99,128.55 L404.06,128.49 L405.13,129.56 L406.20,133.75 L407.28,142.82 L408.35,151.04 L409.42,154.55 L410.49,155.70 L411.56,156.00 L412.63,155.67 L413.70,153.97 L414.77,149.06 L415.84,140.65 L416.91,133.80 L417.98,130.67 L419.06,129.77 L420.13,130.45 L421.20,133.34 L422.27,139.43 L423.34,146.65 L424.41,151.31 L425.48,153.27 L426.55,153.54 L427.62,152.07 L428.69,147.48 L429.76,139.31 L430.83,132.29 L431.91,129.09 L432.98,127.96 L434.05,127.65 L435.12,128.00 L436.19,129.85 L437.26,135.59 L438.33,145.52 L439.40,152.71 L440.47,155.62 L441.54,156.75 L442.61,157.22 L443.69,157.15 L444.76,156.11 L445.83,153.36 L446.90,149.21 L447.97,146.02 L449.04,145.85 L450.11,149.21 L451.18,154.61 L452.25,158.72 L453.32,160.66 L454.39,161.64 L455.46,162.39 L456.54,163.10 L457.61,163.77 L458.68,164.36 L459.75,164.71 L460.82,164.38 L461.89,162.26 L462.96,157.74 L464.03,153.46 L465.10,152.23 L466.17,154.45 L467.24,158.92 L468.31,163.11 L469.39,165.61 L470.46,166.85 L471.53,167.45 L472.60,167.51 L473.67,166.44 L474.74,162.25 L475.81,153.18 L476.88,144.96 L477.95,141.45 L479.02,140.30 L480.09,140.00 L481.17,140.33 L482.24,142.03 L483.31,146.94 L484.38,155.35 L485.45,162.20 L486.52,165.33 L487.59,166.23 L488.66,165.55 L489.73,162.66 L490.80,156.57 L491.87,149.35 L492.94,144.69 L494.02,142.73 L495.09,142.46 L496.16,143.93 L497.23,148.52 L498.30,156.69 L499.37,163.71 L500.44,166.91 L501.51,168.04 L502.58,168.35 L503.65,168.00 L504.72,166.15 L505.80,160.41 L506.87,150.48 L507.94,143.29 L509.01,140.38 L510.08,139.25 L511.15,138.78 L512.22,138.85 L513.29,139.89 L514.36,142.64 L515.43,146.79 L516.50,149.98 L517.57,150.15 L518.65,146.79 L519.72,141.39 L520.79,137.28 L521.86,135.34 L522.93,134.36 L524.00,133.61" fill="none" stroke="#e0e0e0" stroke-width="1.4"/>
<text x="387" y="86" fill="#666" font-family="monospace" font-size="9">03</text>
<rect x="532" y="72" width="152" height="152" fill="#0b0b0b" stroke="#444"/>
<line x1="540" y1="148.00" x2="676" y2="148.00" stroke="#292929"/>
<path d="M540.00,129.23 L541.07,129.01 L542.14,128.81 L543.21,128.72 L544.28,129.13 L545.35,131.40 L546.43,137.15 L547.50,143.30 L548.57,145.18 L549.64,142.07 L550.71,136.00 L551.78,130.97 L552.85,128.52 L553.92,127.57 L554.99,127.24 L556.06,127.36 L557.13,128.56 L558.20,133.68 L559.28,146.57 L560.35,157.79 L561.42,161.54 L562.49,162.40 L563.56,162.45 L564.63,161.96 L565.70,160.10 L566.77,153.97 L567.84,142.00 L568.91,132.58 L569.98,128.94 L571.06,128.12 L572.13,129.03 L573.20,132.70 L574.27,141.21 L575.34,151.57 L576.41,157.55 L577.48,159.64 L578.55,159.77 L579.62,157.94 L580.69,151.83 L581.76,140.03 L582.83,130.68 L583.91,127.32 L584.98,126.47 L586.05,126.42 L587.12,126.93 L588.19,128.95 L589.26,136.19 L590.33,150.38 L591.40,159.66 L592.47,162.53 L593.54,163.35 L594.61,163.57 L595.69,163.34 L596.76,162.15 L597.83,158.81 L598.90,153.15 L599.97,148.47 L601.04,148.12 L602.11,152.82 L603.18,159.86 L604.25,164.25 L605.32,165.74 L606.39,166.24 L607.46,166.53 L608.54,166.77 L609.61,166.99 L610.68,167.19 L611.75,167.28 L612.82,166.87 L613.89,164.60 L614.96,158.85 L616.03,152.70 L617.10,150.82 L618.17,153.93 L619.24,160.00 L620.31,165.03 L621.39,167.48 L622.46,168.43 L623.53,168.76 L624.60,168.64 L625.67,167.44 L626.74,162.32 L627.81,149.43 L628.88,138.21 L629.95,134.46 L631.02,133.60 L632.09,133.55 L633.17,134.04 L634.24,135.90 L635.31,142.03 L636.38,154.00 L637.45,163.42 L638.52,167.06 L639.59,167.88 L640.66,166.97 L641.73,163.30 L642.80,154.79 L643.87,144.43 L644.94,138.45 L646.02,136.36 L647.09,136.23 L648.16,138.06 L649.23,144.17 L650.30,155.97 L651.37,165.32 L652.44,168.68 L653.51,169.53 L654.58,169.58 L655.65,169.07 L656.72,167.05 L657.80,159.81 L658.87,145.62 L659.94,136.34 L661.01,133.47 L662.08,132.65 L663.15,132.43 L664.22,132.66 L665.29,133.85 L666.36,137.19 L667.43,142.85 L668.50,147.53 L669.57,147.88 L670.65,143.18 L671.72,136.14 L672.79,131.75 L673.86,130.26 L674.93,129.76 L676.00,129.47" fill="none" stroke="#e0e0e0" stroke-width="1.4"/>
<text x="539" y="86" fill="#666" font-family="monospace" font-size="9">04</text>
<rect x="76" y="224" width="152" height="152" fill="#0b0b0b" stroke="#444"/>
<line x1="84" y1="300.00" x2="220" y2="300.00" stroke="#292929"/>
<path d="M84.00,299.33 L85.07,299.60 L86.14,299.28 L87.21,298.79 L88.28,298.45 L89.35,297.94 L90.43,296.72 L91.50,295.87 L92.57,295.38 L93.64,295.01 L94.71,295.27 L95.78,295.75 L96.85,295.69 L97.92,295.72 L98.99,295.92 L100.06,295.71 L101.13,294.86 L102.20,294.67 L103.28,294.59 L104.35,294.43 L105.42,294.71 L106.49,295.50 L107.56,295.71 L108.63,295.77 L109.70,295.72 L110.77,294.95 L111.84,294.22 L112.91,293.96 L113.98,293.57 L115.06,293.12 L116.13,293.32 L117.20,293.78 L118.27,293.63 L119.34,293.51 L120.41,293.44 L121.48,292.83 L122.55,291.95 L123.62,291.64 L124.69,291.46 L125.76,291.60 L126.83,292.48 L127.91,292.91 L128.98,293.15 L130.05,293.62 L131.12,294.17 L132.19,294.02 L133.26,293.76 L134.33,294.08 L135.40,294.42 L136.47,294.92 L137.54,296.14 L138.61,297.12 L139.69,297.72 L140.76,298.33 L141.83,298.56 L142.90,298.12 L143.97,298.26 L145.04,298.50 L146.11,298.54 L147.18,298.65 L148.25,299.56 L149.32,300.21 L150.39,300.43 L151.46,300.67 L152.54,300.60 L153.61,299.89 L154.68,299.65 L155.75,299.64 L156.82,299.62 L157.89,300.14 L158.96,301.11 L160.03,301.46 L161.10,301.82 L162.17,302.38 L163.24,302.72 L164.31,302.29 L165.39,302.37 L166.46,302.72 L167.53,303.08 L168.60,303.94 L169.67,305.20 L170.74,305.89 L171.81,306.49 L172.88,307.04 L173.95,306.86 L175.02,306.60 L176.09,306.87 L177.17,306.99 L178.24,306.91 L179.31,307.16 L180.38,308.03 L181.45,308.32 L182.52,308.38 L183.59,308.25 L184.66,307.42 L185.73,306.69 L186.80,306.36 L187.87,305.93 L188.94,305.54 L190.02,305.93 L191.09,306.23 L192.16,306.05 L193.23,305.98 L194.30,305.98 L195.37,305.36 L196.44,304.52 L197.51,304.26 L198.58,304.07 L199.65,304.10 L200.72,304.86 L201.80,305.28 L202.87,305.39 L203.94,305.60 L205.01,305.60 L206.08,304.77 L207.15,304.39 L208.22,304.28 L209.29,303.98 L210.36,303.67 L211.43,304.06 L212.50,304.41 L213.57,304.24 L214.65,303.97 L215.72,303.25 L216.79,301.99 L217.86,301.28 L218.93,300.63 L220.00,299.84" fill="none" stroke="#e0e0e0" stroke-width="1.4"/>
<text x="83" y="238" fill="#666" font-family="monospace" font-size="9">05</text>
<rect x="228" y="224" width="152" height="152" fill="#0b0b0b" stroke="#444"/>
<line x1="236" y1="300.00" x2="372" y2="300.00" stroke="#292929"/>
<path d="M236.00,296.83 L237.07,301.82 L238.14,302.62 L239.21,302.05 L240.28,301.54 L241.35,300.02 L242.43,294.32 L243.50,291.31 L244.57,290.50 L245.64,290.38 L246.71,293.67 L247.78,297.61 L248.85,297.91 L249.92,297.94 L250.99,298.05 L252.06,296.10 L253.13,290.47 L254.20,289.29 L255.28,289.11 L256.35,289.06 L257.42,291.25 L258.49,296.38 L259.56,297.56 L260.63,297.66 L261.70,297.05 L262.77,292.44 L263.84,288.77 L264.91,288.18 L265.98,287.69 L267.06,287.36 L268.13,290.42 L269.20,294.76 L270.27,295.02 L271.34,294.88 L272.41,294.55 L273.48,291.28 L274.55,286.48 L275.62,285.46 L276.69,285.30 L277.76,286.69 L278.83,292.21 L279.91,294.16 L280.98,294.56 L282.05,295.15 L283.12,295.57 L284.19,292.29 L285.26,288.54 L286.33,288.56 L287.40,289.04 L288.47,290.43 L289.54,295.90 L290.61,299.37 L291.69,300.36 L292.76,301.03 L293.83,299.80 L294.90,294.79 L295.97,293.96 L297.04,294.24 L298.11,294.34 L299.18,295.10 L300.25,300.34 L301.32,303.53 L302.39,304.06 L303.46,304.29 L304.54,302.89 L305.61,297.75 L306.68,296.15 L307.75,296.07 L308.82,296.29 L309.89,299.33 L310.96,304.64 L312.03,305.68 L313.10,306.19 L314.17,306.86 L315.24,306.28 L316.31,301.28 L317.39,299.86 L318.46,300.21 L319.53,300.91 L320.60,304.22 L321.67,309.74 L322.74,311.38 L323.81,312.18 L324.88,312.47 L325.95,308.81 L327.02,305.40 L328.09,305.47 L329.17,305.63 L330.24,305.63 L331.31,307.35 L332.38,312.86 L333.45,314.44 L334.52,314.57 L335.59,313.78 L336.66,309.04 L337.73,305.61 L338.80,304.96 L339.87,304.44 L340.94,304.40 L342.02,308.64 L343.09,311.83 L344.16,311.83 L345.23,311.74 L346.30,311.46 L347.37,307.93 L348.44,303.23 L349.51,302.36 L350.58,302.15 L351.65,303.11 L352.72,308.20 L353.80,310.56 L354.87,310.83 L355.94,311.01 L357.01,310.07 L358.08,304.46 L359.15,302.30 L360.22,302.03 L361.29,301.65 L362.36,301.64 L363.43,305.47 L364.50,308.87 L365.57,309.00 L366.65,308.46 L367.72,305.60 L368.79,299.86 L369.86,298.09 L370.93,297.20 L372.00,296.26" fill="none" stroke="#e0e0e0" stroke-width="1.4"/>
<text x="235" y="238" fill="#666" font-family="monospace" font-size="9">06</text>
<rect x="380" y="224" width="152" height="152" fill="#0b0b0b" stroke="#444"/>
<line x1="388" y1="300.00" x2="524" y2="300.00" stroke="#292929"/>
<path d="M388.00,290.03 L389.07,309.26 L390.14,311.89 L391.21,311.57 L392.28,311.21 L393.35,309.05 L394.43,291.28 L395.50,284.70 L396.57,284.04 L397.64,284.40 L398.71,295.55 L399.78,308.34 L400.85,308.83 L401.92,308.76 L402.99,308.66 L404.06,304.00 L405.13,284.83 L406.20,282.65 L407.28,282.47 L408.35,282.52 L409.42,288.01 L410.49,305.65 L411.56,307.86 L412.63,307.89 L413.70,306.79 L414.77,292.00 L415.84,282.15 L416.91,281.62 L417.98,281.38 L419.06,281.42 L420.13,291.12 L421.20,305.89 L422.27,306.55 L423.34,306.50 L424.41,306.12 L425.48,297.42 L426.55,282.01 L427.62,280.51 L428.69,280.53 L429.76,283.75 L430.83,302.59 L431.91,306.35 L432.98,306.62 L434.05,306.94 L435.12,306.94 L436.19,295.90 L437.26,282.76 L438.33,282.32 L439.40,282.64 L440.47,284.55 L441.54,301.33 L442.61,309.11 L443.69,309.89 L444.76,310.17 L445.83,306.17 L446.90,287.57 L447.97,285.51 L449.04,285.71 L450.11,285.87 L451.18,287.07 L452.25,303.85 L453.32,311.99 L454.39,312.55 L455.46,312.67 L456.54,309.27 L457.61,291.12 L458.68,287.64 L459.75,287.61 L460.82,288.04 L461.89,296.10 L462.96,312.92 L464.03,314.25 L465.10,314.59 L466.17,314.96 L467.24,313.00 L468.31,294.41 L469.39,290.32 L470.46,290.46 L471.53,291.09 L472.60,298.81 L473.67,315.60 L474.74,317.62 L475.81,318.08 L476.88,317.76 L477.95,304.65 L479.02,293.55 L480.09,293.39 L481.17,293.51 L482.24,293.59 L483.31,297.26 L484.38,316.09 L485.45,319.38 L486.52,319.52 L487.59,318.12 L488.66,302.73 L489.73,293.96 L490.80,293.43 L491.87,293.20 L492.94,293.73 L494.02,308.45 L495.09,318.20 L496.16,318.38 L497.23,318.31 L498.30,317.92 L499.37,308.13 L500.44,293.30 L501.51,292.07 L502.58,291.96 L503.65,294.07 L504.72,311.68 L505.80,317.25 L506.87,317.43 L507.94,317.40 L509.01,315.33 L510.08,296.17 L511.15,291.41 L512.22,291.14 L513.29,290.88 L514.36,291.23 L515.43,303.98 L516.50,315.16 L517.57,315.64 L518.65,315.09 L519.72,308.59 L520.79,290.79 L521.86,288.51 L522.93,287.99 L524.00,287.50" fill="none" stroke="#e0e0e0" stroke-width="1.4"/>
<text x="387" y="238" fill="#666" font-family="monospace" font-size="9">07</text>
<rect x="532" y="224" width="152" height="152" fill="#0b0b0b" stroke="#444"/>
<line x1="540" y1="300.00" x2="676" y2="300.00" stroke="#292929"/>
<path d="M540.00,286.93 L541.07,312.87 L542.14,315.72 L543.21,315.60 L544.28,315.39 L545.35,313.50 L546.43,290.17 L547.50,282.98 L548.57,282.56 L549.64,283.02 L550.71,297.31 L551.78,313.72 L552.85,314.14 L553.92,314.02 L554.99,313.81 L556.06,308.81 L557.13,283.36 L558.20,281.30 L559.28,281.14 L560.35,281.21 L561.42,287.29 L562.49,310.86 L563.56,312.95 L564.63,312.92 L565.70,311.91 L566.77,292.63 L567.84,280.83 L568.91,280.47 L569.98,280.41 L571.06,280.64 L572.13,292.60 L573.20,311.93 L574.27,312.59 L575.34,312.60 L576.41,312.30 L577.48,302.04 L578.55,281.78 L579.62,280.51 L580.69,280.61 L581.76,283.95 L582.83,309.09 L583.91,312.83 L584.98,312.99 L586.05,313.08 L587.12,312.87 L588.19,298.91 L589.26,281.77 L590.33,281.26 L591.40,281.42 L592.47,283.05 L593.54,304.98 L594.61,313.73 L595.69,314.18 L596.76,314.21 L597.83,309.70 L598.90,284.67 L599.97,282.59 L601.04,282.70 L602.11,282.88 L603.18,283.97 L604.25,305.91 L605.32,315.35 L606.39,315.79 L607.46,315.84 L608.54,312.29 L609.61,287.89 L610.68,284.33 L611.75,284.37 L612.82,284.80 L613.89,294.23 L614.96,316.17 L616.03,317.27 L617.10,317.46 L618.17,317.58 L619.24,315.51 L620.31,290.48 L621.39,285.96 L622.46,285.97 L623.53,286.41 L624.60,295.14 L625.67,317.07 L626.74,318.70 L627.81,318.87 L628.88,318.37 L629.95,301.22 L631.02,287.25 L632.09,287.02 L633.17,287.09 L634.24,287.23 L635.31,290.96 L636.38,316.08 L637.45,319.42 L638.52,319.53 L639.59,318.25 L640.66,297.99 L641.73,287.72 L642.80,287.40 L643.87,287.38 L644.94,288.03 L646.02,307.34 L647.09,319.31 L648.16,319.53 L649.23,319.49 L650.30,319.13 L651.37,307.33 L652.44,288.04 L653.51,287.01 L654.58,286.96 L655.65,289.04 L656.72,312.60 L657.80,318.68 L658.87,318.75 L659.94,318.60 L661.01,316.54 L662.08,291.09 L663.15,286.08 L664.22,285.85 L665.29,285.72 L666.36,286.12 L667.43,302.52 L668.50,316.81 L669.57,317.28 L670.65,316.87 L671.72,309.67 L672.79,286.34 L673.86,284.44 L674.93,284.21 L676.00,284.08" fill="none" stroke="#e0e0e0" stroke-width="1.4"/>
<text x="539" y="238" fill="#666" font-family="monospace" font-size="9">08</text>
<rect x="76" y="376" width="152" height="152" fill="#0b0b0b" stroke="#444"/>
<line x1="84" y1="452.00" x2="220" y2="452.00" stroke="#292929"/>
<path d="M84.00,453.30 L85.07,452.12 L86.14,451.06 L87.21,448.94 L88.28,448.32 L89.35,448.31 L90.43,448.52 L91.50,449.66 L92.57,449.13 L93.64,448.55 L94.71,447.55 L95.78,446.51 L96.85,447.03 L97.92,447.50 L98.99,448.72 L100.06,449.49 L101.13,449.05 L102.20,448.59 L103.28,446.98 L104.35,446.81 L105.42,447.08 L106.49,447.34 L107.56,448.52 L108.63,447.84 L109.70,446.95 L110.77,445.81 L111.84,444.06 L112.91,444.01 L113.98,444.06 L115.06,444.98 L116.13,445.35 L117.20,444.70 L118.27,444.24 L119.34,442.81 L120.41,442.77 L121.48,443.50 L122.55,444.27 L123.62,446.18 L124.69,446.49 L125.76,446.48 L126.83,446.13 L127.91,445.33 L128.98,446.16 L130.05,446.93 L131.12,448.23 L132.19,449.35 L133.26,449.03 L134.33,448.70 L135.40,447.37 L136.47,446.96 L137.54,447.37 L138.61,447.81 L139.69,449.30 L140.76,449.06 L141.83,448.58 L142.90,448.06 L143.97,446.74 L145.04,447.28 L146.11,448.02 L147.18,449.35 L148.25,450.83 L149.32,450.94 L150.39,451.12 L151.46,450.35 L152.54,450.70 L153.61,451.88 L154.68,452.94 L155.75,455.06 L156.82,455.68 L157.89,455.69 L158.96,455.48 L160.03,454.34 L161.10,454.87 L162.17,455.45 L163.24,456.45 L164.31,457.49 L165.39,456.97 L166.46,456.50 L167.53,455.28 L168.60,454.51 L169.67,454.95 L170.74,455.41 L171.81,457.02 L172.88,457.19 L173.95,456.92 L175.02,456.66 L176.09,455.48 L177.17,456.16 L178.24,457.05 L179.31,458.19 L180.38,459.94 L181.45,459.99 L182.52,459.94 L183.59,459.02 L184.66,458.65 L185.73,459.30 L186.80,459.76 L187.87,461.19 L188.94,461.23 L190.02,460.50 L191.09,459.73 L192.16,457.82 L193.23,457.51 L194.30,457.52 L195.37,457.87 L196.44,458.67 L197.51,457.84 L198.58,457.07 L199.65,455.77 L200.72,454.65 L201.80,454.97 L202.87,455.30 L203.94,456.63 L205.01,457.04 L206.08,456.63 L207.15,456.19 L208.22,454.70 L209.29,454.94 L210.36,455.42 L211.43,455.94 L212.50,457.26 L213.57,456.72 L214.65,455.98 L215.72,454.65 L216.79,453.17 L217.86,453.06 L218.93,452.88 L220.00,453.65" fill="none" stroke="#e0e0e0" stroke-width="1.4"/>
<text x="83" y="390" fill="#666" font-family="monospace" font-size="9">09</text>
<rect x="228" y="376" width="152" height="152" fill="#0b0b0b" stroke="#444"/>
<line x1="236" y1="452.00" x2="372" y2="452.00" stroke="#292929"/>
<path d="M236.00,456.97 L237.07,455.56 L238.14,454.04 L239.21,446.09 L240.28,444.06 L241.35,444.02 L242.43,445.18 L243.50,452.08 L244.57,451.77 L245.64,451.02 L246.71,447.38 L247.78,441.77 L248.85,442.26 L249.92,442.85 L250.99,447.77 L252.06,451.93 L253.13,451.45 L254.20,450.58 L255.28,443.20 L256.35,441.84 L257.42,442.13 L258.49,443.17 L259.56,450.30 L260.63,449.88 L261.70,448.80 L262.77,446.03 L263.84,438.69 L264.91,438.39 L265.98,438.53 L267.06,443.51 L268.13,446.81 L269.20,446.09 L270.27,445.36 L271.34,438.51 L272.41,436.91 L273.48,437.77 L274.55,439.12 L275.62,447.08 L276.69,448.23 L277.76,448.22 L278.83,446.04 L279.91,440.16 L280.98,441.00 L282.05,441.97 L283.12,446.39 L284.19,451.67 L285.26,451.38 L286.33,450.89 L287.40,444.77 L288.47,442.14 L289.54,442.62 L290.61,443.71 L291.69,451.26 L292.76,451.60 L293.83,451.06 L294.90,449.54 L295.97,442.37 L297.04,442.72 L298.11,443.66 L299.18,447.76 L300.25,453.81 L301.32,454.08 L302.39,454.19 L303.46,448.52 L304.54,447.03 L305.61,448.44 L306.68,449.96 L307.75,457.91 L308.82,459.94 L309.89,459.98 L310.96,458.82 L312.03,451.92 L313.10,452.23 L314.17,452.98 L315.24,456.62 L316.31,462.23 L317.39,461.74 L318.46,461.15 L319.53,456.23 L320.60,452.07 L321.67,452.55 L322.74,453.42 L323.81,460.80 L324.88,462.16 L325.95,461.87 L327.02,460.83 L328.09,453.70 L329.17,454.12 L330.24,455.20 L331.31,457.97 L332.38,465.31 L333.45,465.61 L334.52,465.47 L335.59,460.49 L336.66,457.19 L337.73,457.91 L338.80,458.64 L339.87,465.49 L340.94,467.09 L342.02,466.23 L343.09,464.88 L344.16,456.92 L345.23,455.77 L346.30,455.78 L347.37,457.96 L348.44,463.84 L349.51,463.00 L350.58,462.03 L351.65,457.61 L352.72,452.33 L353.80,452.62 L354.87,453.11 L355.94,459.23 L357.01,461.86 L358.08,461.38 L359.15,460.29 L360.22,452.74 L361.29,452.40 L362.36,452.94 L363.43,454.46 L364.50,461.63 L365.57,461.28 L366.65,460.34 L367.72,456.24 L368.79,450.19 L369.86,449.92 L370.93,449.81 L372.00,455.48" fill="none" stroke="#e0e0e0" stroke-width="1.4"/>
<text x="235" y="390" fill="#666" font-family="monospace" font-size="9">10</text>
<rect x="380" y="376" width="152" height="152" fill="#0b0b0b" stroke="#444"/>
<line x1="388" y1="452.00" x2="524" y2="452.00" stroke="#292929"/>
<path d="M388.00,464.66 L389.07,463.93 L390.14,462.92 L391.21,441.10 L392.28,437.60 L393.35,437.47 L394.43,439.60 L395.50,461.35 L396.57,461.53 L397.64,461.08 L398.71,452.84 L399.78,435.96 L400.85,436.03 L401.92,436.24 L402.99,449.21 L404.06,460.96 L405.13,460.71 L406.20,459.92 L407.28,438.14 L408.35,435.33 L409.42,435.40 L410.49,436.99 L411.56,459.33 L412.63,459.59 L413.70,459.06 L414.77,454.83 L415.84,433.81 L416.91,433.43 L417.98,433.52 L419.06,448.24 L420.13,458.00 L421.20,457.69 L422.27,457.21 L423.34,436.84 L424.41,432.71 L425.48,433.11 L426.55,434.27 L427.62,456.93 L428.69,458.73 L429.76,458.75 L430.83,453.65 L431.91,434.49 L432.98,434.78 L434.05,435.29 L435.12,445.50 L436.19,460.56 L437.26,460.54 L438.33,460.29 L439.40,442.43 L440.47,435.75 L441.54,436.03 L442.61,437.36 L443.69,460.09 L444.76,461.18 L445.83,461.02 L446.90,458.80 L447.97,436.81 L449.04,436.69 L450.11,437.23 L451.18,445.92 L452.25,462.76 L453.32,463.06 L454.39,463.09 L455.46,444.64 L456.54,439.34 L457.61,440.07 L458.68,441.08 L459.75,462.90 L460.82,466.40 L461.89,466.53 L462.96,464.40 L464.03,442.65 L465.10,442.47 L466.17,442.92 L467.24,451.16 L468.31,468.04 L469.39,467.97 L470.46,467.76 L471.53,454.79 L472.60,443.04 L473.67,443.29 L474.74,444.08 L475.81,465.86 L476.88,468.67 L477.95,468.60 L479.02,467.01 L480.09,444.67 L481.17,444.41 L482.24,444.94 L483.31,449.17 L484.38,470.19 L485.45,470.57 L486.52,470.48 L487.59,455.76 L488.66,446.00 L489.73,446.31 L490.80,446.79 L491.87,467.16 L492.94,471.29 L494.02,470.89 L495.09,469.73 L496.16,447.07 L497.23,445.27 L498.30,445.25 L499.37,450.35 L500.44,469.51 L501.51,469.22 L502.58,468.71 L503.65,458.50 L504.72,443.44 L505.80,443.46 L506.87,443.71 L507.94,461.57 L509.01,468.25 L510.08,467.97 L511.15,466.64 L512.22,443.91 L513.29,442.82 L514.36,442.98 L515.43,445.20 L516.50,467.19 L517.57,467.31 L518.65,466.77 L519.72,458.08 L520.79,441.24 L521.86,440.94 L522.93,440.91 L524.00,459.36" fill="none" stroke="#e0e0e0" stroke-width="1.4"/>
<text x="387" y="390" fill="#666" font-family="monospace" font-size="9">11</text>
<rect x="532" y="376" width="152" height="152" fill="#0b0b0b" stroke="#444"/>
<line x1="540" y1="452.00" x2="676" y2="452.00" stroke="#292929"/>
<path d="M540.00,467.69 L541.07,467.51 L542.14,467.01 L543.21,439.05 L544.28,435.59 L545.35,435.43 L546.43,437.48 L547.50,465.97 L548.57,466.32 L549.64,466.13 L550.71,456.63 L551.78,434.59 L552.85,434.38 L553.92,434.33 L554.99,450.58 L556.06,465.38 L557.13,465.30 L558.20,464.76 L559.28,436.51 L560.35,433.61 L561.42,433.53 L562.49,434.96 L563.56,464.11 L564.63,464.64 L565.70,464.52 L566.77,460.49 L567.84,433.29 L568.91,432.96 L569.98,433.02 L571.06,452.04 L572.13,464.20 L573.20,464.20 L574.27,463.97 L575.34,437.43 L576.41,432.83 L577.48,432.87 L578.55,433.62 L579.62,462.74 L580.69,464.40 L581.76,464.43 L582.83,458.78 L583.91,433.40 L584.98,433.32 L586.05,433.47 L587.12,445.59 L588.19,464.94 L589.26,465.10 L590.33,465.05 L591.40,441.82 L592.47,434.05 L593.54,434.16 L594.61,435.27 L595.69,464.72 L596.76,465.91 L597.83,466.02 L598.90,464.04 L599.97,435.39 L601.04,435.09 L602.11,435.29 L603.18,445.21 L604.25,466.87 L605.32,467.14 L606.39,467.14 L607.46,442.70 L608.54,436.31 L609.61,436.49 L610.68,436.99 L611.75,464.95 L612.82,468.41 L613.89,468.57 L614.96,466.52 L616.03,438.03 L617.10,437.68 L618.17,437.87 L619.24,447.37 L620.31,469.41 L621.39,469.62 L622.46,469.67 L623.53,453.42 L624.60,438.62 L625.67,438.70 L626.74,439.24 L627.81,467.49 L628.88,470.39 L629.95,470.47 L631.02,469.04 L632.09,439.89 L633.17,439.36 L634.24,439.48 L635.31,443.51 L636.38,470.71 L637.45,471.04 L638.52,470.98 L639.59,451.96 L640.66,439.80 L641.73,439.80 L642.80,440.03 L643.87,466.57 L644.94,471.17 L646.02,471.13 L647.09,470.38 L648.16,441.26 L649.23,439.60 L650.30,439.57 L651.37,445.22 L652.44,470.60 L653.51,470.68 L654.58,470.53 L655.65,458.41 L656.72,439.06 L657.80,438.90 L658.87,438.95 L659.94,462.18 L661.01,469.95 L662.08,469.84 L663.15,468.73 L664.22,439.28 L665.29,438.09 L666.36,437.98 L667.43,439.96 L668.50,468.61 L669.57,468.91 L670.65,468.71 L671.72,458.79 L672.79,437.13 L673.86,436.86 L674.93,436.86 L676.00,461.30" fill="none" stroke="#e0e0e0" stroke-width="1.4"/>
<text x="539" y="390" fill="#666" font-family="monospace" font-size="9">12</text>
<rect x="76" y="528" width="152" height="152" fill="#0b0b0b" stroke="#444"/>
<line x1="84" y1="604.00" x2="220" y2="604.00" stroke="#292929"/>
<path d="M84.00,605.30 L85.07,602.67 L86.14,600.66 L87.21,600.62 L88.28,601.81 L89.35,602.93 L90.43,602.09 L91.50,600.26 L92.57,598.56 L93.64,599.12 L94.71,600.69 L95.78,602.69 L96.85,602.33 L97.92,601.06 L98.99,599.06 L100.06,599.45 L101.13,600.57 L102.20,602.41 L103.28,601.60 L104.35,599.98 L105.42,597.15 L106.49,596.95 L107.56,597.47 L108.63,599.31 L109.70,598.52 L110.77,597.12 L111.84,594.43 L112.91,594.61 L113.98,595.59 L115.06,598.27 L116.13,598.32 L117.20,597.75 L118.27,595.59 L119.34,596.17 L120.41,597.43 L121.48,600.38 L122.55,600.55 L123.62,599.90 L124.69,597.36 L125.76,597.32 L126.83,598.00 L127.91,600.40 L128.98,600.23 L130.05,599.21 L131.12,596.40 L132.19,596.05 L133.26,596.71 L134.33,599.26 L135.40,599.76 L136.47,599.32 L137.54,597.25 L138.61,597.36 L139.69,598.68 L140.76,601.72 L141.83,603.02 L142.90,603.02 L143.97,601.39 L145.04,601.15 L146.11,602.25 L147.18,604.79 L148.25,605.90 L149.32,605.38 L150.39,603.39 L151.46,602.18 L152.54,602.71 L153.61,604.52 L154.68,605.78 L155.75,605.21 L156.82,603.53 L157.89,602.28 L158.96,603.16 L160.03,605.19 L161.10,607.45 L162.17,607.56 L163.24,606.72 L164.31,605.58 L165.39,606.74 L166.46,608.75 L167.53,611.28 L168.60,611.24 L169.67,610.30 L170.74,608.28 L171.81,608.73 L172.88,609.85 L173.95,611.93 L175.02,611.33 L176.09,609.99 L177.17,607.37 L178.24,607.50 L179.31,608.38 L180.38,610.80 L181.45,610.60 L182.52,609.79 L183.59,607.54 L184.66,608.12 L185.73,609.42 L186.80,612.41 L187.87,612.65 L188.94,612.13 L190.02,609.80 L191.09,610.04 L192.16,610.91 L193.23,613.42 L194.30,613.16 L195.37,612.00 L196.44,608.95 L197.51,608.31 L198.58,608.52 L199.65,610.52 L200.72,610.17 L201.80,608.95 L202.87,606.01 L203.94,605.44 L205.01,605.99 L206.08,608.36 L207.15,608.86 L208.22,608.24 L209.29,605.98 L210.36,605.52 L211.43,606.30 L212.50,608.63 L213.57,609.32 L214.65,608.50 L215.72,606.09 L216.79,604.69 L217.86,604.80 L218.93,606.24 L220.00,606.63" fill="none" stroke="#e0e0e0" stroke-width="1.4"/>
<text x="83" y="542" fill="#666" font-family="monospace" font-size="9">13</text>
<rect x="228" y="528" width="152" height="152" fill="#0b0b0b" stroke="#444"/>
<line x1="236" y1="604.00" x2="372" y2="604.00" stroke="#292929"/>
<path d="M236.00,608.74 L237.07,602.43 L238.14,596.84 L239.21,596.75 L240.28,600.72 L241.35,605.85 L242.43,604.86 L243.50,600.35 L244.57,594.24 L245.64,594.84 L246.71,598.36 L247.78,605.39 L248.85,604.97 L249.92,602.11 L250.99,594.67 L252.06,595.06 L253.13,597.50 L254.20,604.90 L255.28,603.99 L256.35,601.32 L257.42,592.36 L258.49,592.06 L259.56,593.27 L260.63,601.18 L261.70,600.33 L262.77,598.22 L263.84,589.18 L264.91,589.29 L265.98,590.72 L267.06,599.86 L268.13,600.07 L269.20,599.14 L270.27,590.57 L271.34,591.06 L272.41,592.72 L273.48,602.20 L274.55,602.64 L275.62,601.77 L276.69,592.85 L277.76,592.42 L278.83,593.33 L279.91,602.09 L280.98,602.34 L282.05,601.10 L283.12,592.06 L284.19,591.05 L285.26,591.89 L286.33,600.42 L287.40,601.90 L288.47,601.38 L289.54,593.56 L290.61,592.71 L291.69,594.27 L292.76,602.84 L293.83,605.82 L294.90,605.83 L295.97,599.34 L297.04,597.25 L298.11,598.56 L299.18,605.89 L300.25,609.32 L301.32,608.74 L302.39,602.83 L303.46,598.63 L304.54,599.26 L305.61,604.63 L306.68,609.36 L307.75,608.75 L308.82,603.99 L309.89,598.92 L310.96,599.97 L312.03,604.45 L313.10,611.47 L314.17,611.63 L315.24,608.85 L316.31,602.92 L317.39,604.27 L318.46,608.05 L319.53,616.03 L320.60,616.04 L321.67,613.97 L322.74,606.21 L323.81,606.70 L324.88,608.89 L325.95,616.89 L327.02,616.26 L328.09,614.12 L329.17,605.29 L330.24,605.38 L331.31,606.84 L332.38,615.61 L333.45,615.49 L334.52,614.19 L335.59,605.59 L336.66,606.14 L337.73,607.88 L338.80,617.41 L339.87,617.88 L340.94,617.10 L342.02,608.34 L343.09,608.34 L344.16,609.49 L345.23,618.43 L346.30,618.43 L347.37,616.99 L348.44,607.53 L349.51,606.29 L350.58,606.59 L351.65,614.69 L352.72,614.90 L353.80,613.41 L354.87,604.32 L355.94,602.86 L357.01,603.50 L358.08,611.52 L359.15,613.24 L360.22,612.48 L361.29,604.73 L362.36,602.81 L363.43,603.69 L364.50,611.10 L365.57,613.61 L366.65,612.62 L367.72,605.69 L368.79,601.67 L369.86,601.77 L370.93,607.27 L372.00,610.32" fill="none" stroke="#e0e0e0" stroke-width="1.4"/>
<text x="235" y="542" fill="#666" font-family="monospace" font-size="9">14</text>
<rect x="380" y="528" width="152" height="152" fill="#0b0b0b" stroke="#444"/>
<line x1="388" y1="604.00" x2="524" y2="604.00" stroke="#292929"/>
<path d="M388.00,616.27 L389.07,603.18 L390.14,590.42 L391.21,590.28 L392.28,599.57 L393.35,614.44 L394.43,613.89 L395.50,605.12 L396.57,588.65 L397.64,588.83 L398.71,594.63 L399.78,613.68 L400.85,613.41 L401.92,608.96 L402.99,588.35 L404.06,588.44 L405.13,591.93 L406.20,612.99 L407.28,612.52 L408.35,609.87 L409.42,586.91 L410.49,586.68 L411.56,588.21 L412.63,610.91 L413.70,610.53 L414.77,608.79 L415.84,585.22 L416.91,585.18 L417.98,586.20 L419.06,610.04 L420.13,610.26 L421.20,609.51 L422.27,585.89 L423.34,585.94 L424.41,586.91 L425.48,610.99 L426.55,611.48 L427.62,610.99 L428.69,587.35 L429.76,586.68 L430.83,587.23 L431.91,610.77 L432.98,611.54 L434.05,610.97 L435.12,587.73 L436.19,586.33 L437.26,586.80 L438.33,609.29 L439.40,611.69 L440.47,611.50 L441.54,589.80 L442.61,587.51 L443.69,588.32 L444.76,609.22 L445.83,613.97 L446.90,614.06 L447.97,595.66 L449.04,590.12 L450.11,590.83 L451.18,608.86 L452.25,616.14 L453.32,615.97 L454.39,601.63 L455.46,591.34 L456.54,591.73 L457.61,604.39 L458.68,616.75 L459.75,616.57 L460.82,606.02 L461.89,592.07 L462.96,592.64 L464.03,600.40 L465.10,618.29 L466.17,618.47 L467.24,612.61 L468.31,594.46 L469.39,595.16 L470.46,600.28 L471.53,620.90 L472.60,620.99 L473.67,618.13 L474.74,596.46 L475.81,596.72 L476.88,599.44 L477.95,621.67 L479.02,621.47 L480.09,619.54 L481.17,596.38 L482.24,596.42 L483.31,597.73 L484.38,621.27 L485.45,621.34 L486.52,620.26 L487.59,596.75 L488.66,596.91 L489.73,597.99 L490.80,622.08 L491.87,622.50 L492.94,621.95 L494.02,598.23 L495.09,597.90 L496.16,598.55 L497.23,622.28 L498.30,622.64 L499.37,621.87 L500.44,598.10 L501.51,596.75 L502.58,596.89 L503.65,619.67 L504.72,620.73 L505.80,619.94 L506.87,596.91 L507.94,594.82 L509.01,595.06 L510.08,616.39 L511.15,619.55 L512.22,619.10 L513.29,598.34 L514.36,594.32 L515.43,594.65 L516.50,613.86 L517.57,619.19 L518.65,618.64 L519.72,601.78 L520.79,593.24 L521.86,593.19 L522.93,608.23 L524.00,617.09" fill="none" stroke="#e0e0e0" stroke-width="1.4"/>
<text x="387" y="542" fill="#666" font-family="monospace" font-size="9">15</text>
<rect x="532" y="528" width="152" height="152" fill="#0b0b0b" stroke="#444"/>
<line x1="540" y1="604.00" x2="676" y2="604.00" stroke="#292929"/>
<path d="M540.00,619.54 L541.07,603.79 L542.14,588.07 L543.21,587.91 L544.28,599.13 L545.35,618.67 L546.43,618.50 L547.50,608.52 L548.57,587.09 L549.64,586.97 L550.71,592.97 L551.78,617.81 L552.85,617.69 L553.92,613.29 L554.99,586.36 L556.06,586.23 L557.13,589.49 L558.20,617.08 L559.28,616.98 L560.35,615.02 L561.42,585.69 L562.49,585.54 L563.56,586.82 L564.63,616.39 L565.70,616.38 L566.77,615.30 L567.84,585.22 L568.91,585.08 L569.98,585.61 L571.06,615.96 L572.13,616.15 L573.20,615.69 L574.27,585.29 L575.34,585.06 L576.41,585.40 L577.48,615.90 L578.55,616.29 L579.62,616.14 L580.69,585.91 L581.76,585.29 L582.83,585.52 L583.91,615.72 L584.98,616.58 L586.05,616.53 L587.12,586.90 L588.19,585.67 L589.26,585.84 L590.33,614.78 L591.40,617.10 L592.47,617.15 L593.54,588.90 L594.61,586.37 L595.69,586.58 L596.76,613.20 L597.83,617.98 L598.90,618.10 L599.97,593.88 L601.04,587.34 L602.11,587.55 L603.18,610.61 L604.25,618.97 L605.32,619.09 L606.39,600.96 L607.46,588.29 L608.54,588.46 L609.61,604.18 L610.68,619.86 L611.75,619.99 L612.82,607.29 L613.89,589.20 L614.96,589.38 L616.03,597.77 L617.10,620.81 L618.17,620.97 L619.24,614.40 L620.31,590.20 L621.39,590.36 L622.46,595.16 L623.53,621.76 L624.60,621.89 L625.67,619.30 L626.74,591.05 L627.81,591.12 L628.88,593.47 L629.95,622.37 L631.02,622.48 L632.09,621.18 L633.17,591.55 L634.24,591.53 L635.31,592.43 L636.38,622.62 L637.45,622.79 L638.52,622.13 L639.59,591.89 L640.66,591.78 L641.73,592.22 L642.80,622.69 L643.87,622.97 L644.94,622.69 L646.02,592.26 L647.09,591.83 L648.16,592.03 L649.23,622.36 L650.30,622.82 L651.37,622.60 L652.44,592.50 L653.51,591.44 L654.58,591.46 L655.65,621.02 L656.72,622.25 L657.80,622.04 L658.87,592.70 L659.94,590.77 L661.01,590.72 L662.08,618.33 L663.15,621.55 L664.22,621.37 L665.29,594.41 L666.36,590.04 L667.43,589.96 L668.50,614.82 L669.57,620.77 L670.65,620.58 L671.72,599.11 L672.79,589.15 L673.86,589.02 L674.93,608.57 L676.00,619.75" fill="none" stroke="#e0e0e0" stroke-width="1.4"/>
<text x="539" y="542" fill="#666" font-family="monospace" font-size="9">16</text>
</svg>
