<svg xmlns="http://www.w3.org/2000/svg" width="760" height="760" viewBox="0 0 760 760">
<rect width="760" height="760" fill="#161616"/>
<text x="24" y="32" fill="#dedede" font-family="monospace" font-size="15">S3G VOT / CODEC GHOST</text>
<text x="684" y="724" text-anchor="end" fill="#858585" font-family="monospace" font-size="11">U / PREDICTION FAILURE</text>
<text x="24" y="72" fill="#858585" font-family="monospace" font-size="11">V / PACKET BLOCK SIZE</text>
<text x="76" y="724" fill="#858585" font-family="monospace" font-size="11">ENERGY / PREDICTION-FAILURE RISE</text>
<rect x="76" y="72" width="152" height="152" fill="#0b0b0b" stroke="#444"/>
<line x1="84" y1="148.00" x2="220" y2="148.00" stroke="#292929"/>
<path d="M84.00,149.70 L85.07,148.93 L86.14,148.76 L87.21,148.60 L88.28,148.44 L89.35,148.08 L90.43,147.92 L91.50,147.76 L92.57,147.61 L93.64,147.46 L94.71,147.11 L95.78,146.96 L96.85,146.82 L97.92,146.68 L98.99,146.55 L100.06,146.42 L101.13,146.10 L102.20,145.98 L103.28,145.87 L104.35,145.76 L105.42,145.66 L106.49,145.57 L107.56,145.48 L108.63,145.40 L109.70,145.12 L110.77,145.05 L111.84,144.99 L112.91,144.94 L113.98,144.89 L115.06,144.85 L116.13,144.82 L117.20,144.79 L118.27,144.78 L119.34,144.77 L120.41,144.76 L121.48,144.77 L122.55,144.78 L123.62,144.80 L124.69,144.82 L125.76,144.86 L126.83,144.90 L127.91,144.94 L128.98,145.00 L130.05,145.06 L131.12,145.12 L132.19,145.20 L133.26,145.48 L134.33,145.56 L135.40,145.65 L136.47,145.75 L137.54,145.84 L138.61,145.95 L139.69,146.06 L140.76,146.17 L141.83,146.49 L142.90,146.61 L143.97,146.73 L145.04,146.86 L146.11,146.99 L147.18,147.12 L148.25,147.25 L149.32,147.59 L150.39,147.72 L151.46,147.86 L152.54,147.99 L153.61,148.13 L154.68,148.27 L155.75,148.60 L156.82,148.54 L157.89,148.87 L158.96,149.00 L160.03,149.13 L161.10,149.26 L162.17,149.38 L163.24,149.70 L164.31,149.82 L165.39,149.93 L166.46,150.04 L167.53,150.14 L168.60,150.24 L169.67,150.34 L170.74,150.43 L171.81,150.72 L172.88,150.79 L173.95,150.87 L175.02,150.93 L176.09,150.99 L177.17,151.05 L178.24,151.09 L179.31,151.13 L180.38,151.17 L181.45,151.19 L182.52,151.21 L183.59,151.22 L184.66,151.23 L185.73,151.22 L186.80,151.21 L187.87,151.20 L188.94,151.17 L190.02,151.14 L191.09,151.10 L192.16,151.05 L193.23,151.00 L194.30,150.94 L195.37,150.87 L196.44,150.79 L197.51,150.51 L198.58,150.42 L199.65,150.33 L200.72,150.23 L201.80,150.12 L202.87,150.01 L203.94,149.69 L205.01,149.57 L206.08,149.44 L207.15,149.31 L208.22,149.17 L209.29,149.03 L210.36,148.68 L211.43,148.53 L212.50,148.38 L213.57,148.23 L214.65,148.07 L215.72,147.71 L216.79,147.55 L217.86,147.39 L218.93,147.23 L220.00,147.06" fill="none" stroke="#e0e0e0" stroke-width="1.4"/>
<text x="83" y="86" fill="#666" font-family="monospace" font-size="9">01</text>
<rect x="228" y="72" width="152" height="152" fill="#0b0b0b" stroke="#444"/>
<line x1="236" y1="148.00" x2="372" y2="148.00" stroke="#292929"/>
<path d="M236.00,151.47 L237.07,149.68 L238.14,149.46 L239.21,148.45 L240.28,148.23 L241.35,148.01 L242.43,147.79 L243.50,147.58 L244.57,147.36 L245.64,147.16 L246.71,146.95 L247.78,146.76 L248.85,146.56 L249.92,146.37 L250.99,145.41 L252.06,145.24 L253.13,145.07 L254.20,144.91 L255.28,144.75 L256.35,144.61 L257.42,144.47 L258.49,144.34 L259.56,144.22 L260.63,143.33 L261.70,143.23 L262.77,143.13 L263.84,143.05 L264.91,142.98 L265.98,142.91 L267.06,142.86 L268.13,142.82 L269.20,142.78 L270.27,142.76 L271.34,142.75 L272.41,142.75 L273.48,142.75 L274.55,142.77 L275.62,142.80 L276.69,142.84 L277.76,142.88 L278.83,142.94 L279.91,143.01 L280.98,143.08 L282.05,143.17 L283.12,143.26 L284.19,143.36 L285.26,144.25 L286.33,144.37 L287.40,144.50 L288.47,144.63 L289.54,144.77 L290.61,144.91 L291.69,145.06 L292.76,145.22 L293.83,145.38 L294.90,145.55 L295.97,145.72 L297.04,145.90 L298.11,146.08 L299.18,146.26 L300.25,146.44 L301.32,147.41 L302.39,147.60 L303.46,147.79 L304.54,147.98 L305.61,148.17 L306.68,148.36 L307.75,148.55 L308.82,148.73 L309.89,148.92 L310.96,149.88 L312.03,150.06 L313.10,150.24 L314.17,150.41 L315.24,150.58 L316.31,150.74 L317.39,150.90 L318.46,151.05 L319.53,151.19 L320.60,151.33 L321.67,151.47 L322.74,151.59 L323.81,152.49 L324.88,152.60 L325.95,152.70 L327.02,152.79 L328.09,152.88 L329.17,152.95 L330.24,153.02 L331.31,153.08 L332.38,153.12 L333.45,153.16 L334.52,153.19 L335.59,153.21 L336.66,153.21 L337.73,153.21 L338.80,153.20 L339.87,153.18 L340.94,153.14 L342.02,153.10 L343.09,153.05 L344.16,152.98 L345.23,152.91 L346.30,152.83 L347.37,152.73 L348.44,152.63 L349.51,151.74 L350.58,151.62 L351.65,151.49 L352.72,151.35 L353.80,151.21 L354.87,151.05 L355.94,150.89 L357.01,150.72 L358.08,150.55 L359.15,150.37 L360.22,149.40 L361.29,149.21 L362.36,149.01 L363.43,148.80 L364.50,148.60 L365.57,148.38 L366.65,148.17 L367.72,147.95 L368.79,147.73 L369.86,147.51 L370.93,147.29 L372.00,146.28" fill="none" stroke="#e0e0e0" stroke-width="1.4"/>
<text x="235" y="86" fill="#666" font-family="monospace" font-size="9">02</text>
<rect x="380" y="72" width="152" height="152" fill="#0b0b0b" stroke="#444"/>
<line x1="388" y1="148.00" x2="524" y2="148.00" stroke="#292929"/>
<path d="M388.00,168.74 L389.07,149.17 L390.14,148.68 L391.21,148.20 L392.28,147.71 L393.35,147.24 L394.43,146.76 L395.50,146.30 L396.57,145.84 L397.64,145.39 L398.71,144.95 L399.78,144.52 L400.85,144.11 L401.92,143.70 L402.99,143.31 L404.06,142.93 L405.13,142.57 L406.20,142.23 L407.28,141.90 L408.35,141.59 L409.42,141.29 L410.49,141.02 L411.56,140.76 L412.63,140.53 L413.70,140.31 L414.77,140.12 L415.84,139.95 L416.91,139.80 L417.98,139.67 L419.06,139.56 L420.13,139.48 L421.20,139.42 L422.27,139.38 L423.34,139.36 L424.41,139.37 L425.48,139.40 L426.55,139.45 L427.62,139.53 L428.69,139.62 L429.76,139.74 L430.83,139.88 L431.91,140.04 L432.98,140.22 L434.05,140.42 L435.12,140.64 L436.19,140.88 L437.26,141.14 L438.33,141.41 L439.40,141.70 L440.47,142.01 L441.54,142.33 L442.61,142.67 L443.69,143.02 L444.76,143.38 L445.83,143.76 L446.90,144.14 L447.97,144.54 L449.04,144.94 L450.11,145.35 L451.18,145.77 L452.25,146.19 L453.32,146.62 L454.39,147.05 L455.46,147.48 L456.54,147.92 L457.61,148.35 L458.68,148.79 L459.75,149.22 L460.82,149.65 L461.89,150.07 L462.96,150.49 L464.03,150.90 L465.10,151.30 L466.17,151.70 L467.24,152.08 L468.31,152.46 L469.39,152.82 L470.46,153.17 L471.53,153.51 L472.60,153.83 L473.67,154.14 L474.74,154.43 L475.81,154.70 L476.88,154.96 L477.95,155.20 L479.02,155.42 L480.09,155.62 L481.17,155.80 L482.24,155.96 L483.31,156.10 L484.38,156.22 L485.45,156.31 L486.52,156.39 L487.59,156.44 L488.66,156.47 L489.73,156.47 L490.80,156.46 L491.87,156.42 L492.94,156.36 L494.02,156.27 L495.09,156.17 L496.16,156.04 L497.23,155.89 L498.30,155.72 L499.37,155.52 L500.44,155.31 L501.51,155.07 L502.58,154.82 L503.65,154.55 L504.72,154.25 L505.80,153.94 L506.87,153.61 L507.94,153.27 L509.01,152.90 L510.08,152.53 L511.15,152.14 L512.22,151.73 L513.29,151.31 L514.36,150.89 L515.43,150.45 L516.50,150.00 L517.57,149.54 L518.65,149.07 L519.72,148.60 L520.79,148.12 L521.86,147.64 L522.93,147.16 L524.00,146.67" fill="none" stroke="#e0e0e0" stroke-width="1.4"/>
<text x="387" y="86" fill="#666" font-family="monospace" font-size="9">03</text>
<rect x="532" y="72" width="152" height="152" fill="#0b0b0b" stroke="#444"/>
<line x1="540" y1="148.00" x2="676" y2="148.00" stroke="#292929"/>
<path d="M540.00,190.14 L541.07,147.87 L542.14,147.37 L543.21,146.87 L544.28,146.37 L545.35,145.88 L546.43,145.40 L547.50,144.92 L548.57,144.45 L549.64,143.98 L550.71,143.53 L551.78,143.09 L552.85,142.67 L553.92,142.25 L554.99,141.85 L556.06,141.47 L557.13,141.10 L558.20,140.75 L559.28,140.42 L560.35,140.11 L561.42,139.82 L562.49,139.54 L563.56,139.29 L564.63,139.06 L565.70,138.85 L566.77,138.66 L567.84,138.50 L568.91,138.36 L569.98,138.24 L571.06,138.15 L572.13,138.08 L573.20,138.03 L574.27,138.01 L575.34,138.02 L576.41,138.04 L577.48,138.10 L578.55,138.17 L579.62,138.27 L580.69,138.40 L581.76,138.54 L582.83,138.71 L583.91,138.91 L584.98,139.12 L586.05,139.36 L587.12,139.61 L588.19,139.89 L589.26,140.19 L590.33,140.50 L591.40,140.83 L592.47,141.18 L593.54,141.55 L594.61,141.93 L595.69,142.33 L596.76,142.74 L597.83,143.16 L598.90,143.60 L599.97,144.04 L601.04,144.49 L602.11,144.96 L603.18,145.42 L604.25,145.90 L605.32,146.38 L606.39,146.86 L607.46,147.35 L608.54,147.83 L609.61,148.32 L610.68,148.81 L611.75,149.29 L612.82,149.77 L613.89,150.24 L614.96,150.71 L616.03,151.18 L617.10,151.63 L618.17,152.07 L619.24,152.51 L620.31,152.93 L621.39,153.34 L622.46,153.74 L623.53,154.12 L624.60,154.49 L625.67,154.84 L626.74,155.17 L627.81,155.48 L628.88,155.78 L629.95,156.06 L631.02,156.31 L632.09,156.55 L633.17,156.76 L634.24,156.96 L635.31,157.13 L636.38,157.27 L637.45,157.40 L638.52,157.50 L639.59,157.57 L640.66,157.63 L641.73,157.65 L642.80,157.66 L643.87,157.64 L644.94,157.59 L646.02,157.52 L647.09,157.43 L648.16,157.31 L649.23,157.17 L650.30,157.01 L651.37,156.82 L652.44,156.61 L653.51,156.38 L654.58,156.13 L655.65,155.85 L656.72,155.56 L657.80,155.25 L658.87,154.92 L659.94,154.57 L661.01,154.20 L662.08,153.81 L663.15,153.42 L664.22,153.00 L665.29,152.58 L666.36,152.14 L667.43,151.68 L668.50,151.22 L669.57,150.75 L670.65,150.27 L671.72,149.79 L672.79,149.30 L673.86,148.80 L674.93,148.30 L676.00,147.80" fill="none" stroke="#e0e0e0" stroke-width="1.4"/>
<text x="539" y="86" fill="#666" font-family="monospace" font-size="9">04</text>
<rect x="76" y="224" width="152" height="152" fill="#0b0b0b" stroke="#444"/>
<line x1="84" y1="300.00" x2="220" y2="300.00" stroke="#292929"/>
<path d="M84.00,301.66 L85.07,300.89 L86.14,300.73 L87.21,300.57 L88.28,300.40 L89.35,300.04 L90.43,299.89 L91.50,299.73 L92.57,300.38 L93.64,299.63 L94.71,299.48 L95.78,299.33 L96.85,298.79 L97.92,298.66 L98.99,298.52 L100.06,298.40 L101.13,298.47 L102.20,298.36 L103.28,298.04 L104.35,297.94 L105.42,297.64 L106.49,297.54 L107.56,297.46 L108.63,297.37 L109.70,297.10 L110.77,297.03 L111.84,296.97 L112.91,296.92 L113.98,296.87 L115.06,296.83 L116.13,296.80 L117.20,296.77 L118.27,296.75 L119.34,296.74 L120.41,296.74 L121.48,296.75 L122.55,296.76 L123.62,296.78 L124.69,296.80 L125.76,296.84 L126.83,296.87 L127.91,296.92 L128.98,296.98 L130.05,297.03 L131.12,297.10 L132.19,297.17 L133.26,297.25 L134.33,297.34 L135.40,297.42 L136.47,297.52 L137.54,297.62 L138.61,297.72 L139.69,298.03 L140.76,298.14 L141.83,298.46 L142.90,298.58 L143.97,298.71 L145.04,298.83 L146.11,298.96 L147.18,299.09 L148.25,299.22 L149.32,299.56 L150.39,299.69 L151.46,299.83 L152.54,299.96 L153.61,300.10 L154.68,300.23 L155.75,300.57 L156.82,300.70 L157.89,300.83 L158.96,300.96 L160.03,301.09 L161.10,301.22 L162.17,301.34 L163.24,301.66 L164.31,301.78 L165.39,301.89 L166.46,302.00 L167.53,302.10 L168.60,302.20 L169.67,302.30 L170.74,302.39 L171.81,302.67 L172.88,302.75 L173.95,302.82 L175.02,302.89 L176.09,302.95 L177.17,303.00 L178.24,303.05 L179.31,303.09 L180.38,303.12 L181.45,303.15 L182.52,303.17 L183.59,303.18 L184.66,303.18 L185.73,303.18 L186.80,303.17 L187.87,303.15 L188.94,303.13 L190.02,303.09 L191.09,303.06 L192.16,303.01 L193.23,302.95 L194.30,302.89 L195.37,302.83 L196.44,302.75 L197.51,302.67 L198.58,302.58 L199.65,302.29 L200.72,302.19 L201.80,302.08 L202.87,301.97 L203.94,302.05 L205.01,301.73 L206.08,301.60 L207.15,301.47 L208.22,301.13 L209.29,300.99 L210.36,300.65 L211.43,300.50 L212.50,300.35 L213.57,300.19 L214.65,300.04 L215.72,299.68 L216.79,299.92 L217.86,299.76 L218.93,299.40 L220.00,299.23" fill="none" stroke="#e0e0e0" stroke-width="1.4"/>
<text x="83" y="238" fill="#666" font-family="monospace" font-size="9">05</text>
<rect x="228" y="224" width="152" height="152" fill="#0b0b0b" stroke="#444"/>
<line x1="236" y1="300.00" x2="372" y2="300.00" stroke="#292929"/>
<path d="M236.00,303.34 L237.07,301.58 L238.14,301.35 L239.21,300.36 L240.28,300.14 L241.35,299.93 L242.43,299.71 L243.50,299.50 L244.57,301.61 L245.64,299.86 L246.71,299.66 L247.78,298.69 L248.85,297.73 L249.92,297.55 L250.99,297.37 L252.06,297.19 L253.13,297.80 L254.20,297.64 L255.28,297.49 L256.35,297.35 L257.42,296.44 L258.49,296.31 L259.56,296.19 L260.63,295.31 L261.70,295.21 L262.77,295.12 L263.84,295.04 L264.91,294.97 L265.98,294.91 L267.06,294.85 L268.13,294.81 L269.20,294.78 L270.27,294.76 L271.34,294.74 L272.41,294.74 L273.48,294.75 L274.55,294.76 L275.62,294.79 L276.69,294.83 L277.76,294.88 L278.83,294.93 L279.91,295.00 L280.98,295.07 L282.05,295.15 L283.12,295.25 L284.19,295.35 L285.26,295.45 L286.33,295.57 L287.40,295.69 L288.47,295.82 L289.54,295.96 L290.61,296.10 L291.69,297.03 L292.76,297.18 L293.83,297.34 L294.90,297.51 L295.97,297.67 L297.04,297.85 L298.11,298.02 L299.18,298.98 L300.25,299.16 L301.32,299.34 L302.39,299.53 L303.46,299.71 L304.54,299.90 L305.61,300.09 L306.68,300.27 L307.75,300.46 L308.82,300.64 L309.89,301.59 L310.96,301.77 L312.03,301.95 L313.10,302.12 L314.17,302.29 L315.24,302.46 L316.31,302.62 L317.39,302.77 L318.46,302.92 L319.53,303.07 L320.60,303.20 L321.67,303.33 L322.74,303.46 L323.81,304.34 L324.88,304.45 L325.95,304.55 L327.02,304.64 L328.09,304.73 L329.17,304.80 L330.24,304.87 L331.31,304.92 L332.38,304.97 L333.45,305.01 L334.52,305.03 L335.59,305.05 L336.66,305.06 L337.73,305.06 L338.80,305.04 L339.87,305.02 L340.94,304.99 L342.02,304.95 L343.09,304.89 L344.16,304.83 L345.23,304.76 L346.30,304.68 L347.37,304.59 L348.44,304.48 L349.51,304.38 L350.58,304.26 L351.65,303.36 L352.72,303.22 L353.80,303.08 L354.87,302.93 L355.94,302.77 L357.01,302.60 L358.08,302.43 L359.15,302.25 L360.22,302.07 L361.29,301.88 L362.36,301.68 L363.43,301.48 L364.50,301.28 L365.57,301.07 L366.65,300.86 L367.72,300.64 L368.79,299.65 L369.86,299.44 L370.93,299.21 L372.00,298.99" fill="none" stroke="#e0e0e0" stroke-width="1.4"/>
<text x="235" y="238" fill="#666" font-family="monospace" font-size="9">06</text>
<rect x="380" y="224" width="152" height="152" fill="#0b0b0b" stroke="#444"/>
<line x1="388" y1="300.00" x2="524" y2="300.00" stroke="#292929"/>
<path d="M388.00,320.36 L389.07,301.08 L390.14,300.60 L391.21,300.12 L392.28,299.65 L393.35,299.17 L394.43,298.71 L395.50,298.25 L396.57,316.60 L397.64,297.36 L398.71,296.92 L399.78,296.50 L400.85,296.09 L401.92,295.69 L402.99,295.30 L404.06,294.93 L405.13,294.58 L406.20,294.24 L407.28,293.91 L408.35,293.61 L409.42,293.32 L410.49,293.05 L411.56,292.80 L412.63,292.56 L413.70,292.35 L414.77,292.16 L415.84,291.99 L416.91,291.84 L417.98,291.72 L419.06,291.61 L420.13,291.53 L421.20,291.47 L422.27,291.43 L423.34,291.42 L424.41,291.42 L425.48,291.45 L426.55,291.50 L427.62,291.58 L428.69,291.67 L429.76,291.79 L430.83,291.92 L431.91,292.08 L432.98,292.26 L434.05,292.46 L435.12,292.67 L436.19,292.91 L437.26,293.16 L438.33,293.43 L439.40,293.72 L440.47,294.02 L441.54,294.34 L442.61,294.67 L443.69,295.02 L444.76,295.38 L445.83,295.74 L446.90,296.12 L447.97,296.51 L449.04,296.91 L450.11,297.32 L451.18,297.73 L452.25,298.14 L453.32,298.57 L454.39,298.99 L455.46,299.42 L456.54,299.85 L457.61,300.27 L458.68,300.70 L459.75,301.13 L460.82,301.55 L461.89,301.97 L462.96,302.38 L464.03,302.78 L465.10,303.18 L466.17,303.57 L467.24,303.95 L468.31,304.32 L469.39,304.68 L470.46,305.02 L471.53,305.35 L472.60,305.67 L473.67,305.97 L474.74,306.26 L475.81,306.53 L476.88,306.78 L477.95,307.02 L479.02,307.24 L480.09,307.43 L481.17,307.61 L482.24,307.77 L483.31,307.91 L484.38,308.02 L485.45,308.12 L486.52,308.19 L487.59,308.24 L488.66,308.27 L489.73,308.28 L490.80,308.26 L491.87,308.22 L492.94,308.16 L494.02,308.08 L495.09,307.97 L496.16,307.85 L497.23,307.70 L498.30,307.53 L499.37,307.34 L500.44,307.13 L501.51,306.90 L502.58,306.65 L503.65,306.38 L504.72,306.09 L505.80,305.78 L506.87,305.46 L507.94,305.12 L509.01,304.76 L510.08,304.39 L511.15,304.00 L512.22,303.60 L513.29,303.19 L514.36,302.77 L515.43,302.34 L516.50,301.89 L517.57,301.44 L518.65,300.98 L519.72,300.52 L520.79,300.05 L521.86,299.57 L522.93,299.09 L524.00,298.61" fill="none" stroke="#e0e0e0" stroke-width="1.4"/>
<text x="387" y="238" fill="#666" font-family="monospace" font-size="9">07</text>
<rect x="532" y="224" width="152" height="152" fill="#0b0b0b" stroke="#444"/>
<line x1="540" y1="300.00" x2="676" y2="300.00" stroke="#292929"/>
<path d="M540.00,339.96 L541.07,299.72 L542.14,299.24 L543.21,298.77 L544.28,298.30 L545.35,297.83 L546.43,297.37 L547.50,296.91 L548.57,336.22 L549.64,296.02 L550.71,295.59 L551.78,295.17 L552.85,294.77 L553.92,294.37 L554.99,293.99 L556.06,293.63 L557.13,293.28 L558.20,292.95 L559.28,292.63 L560.35,292.33 L561.42,292.05 L562.49,291.79 L563.56,291.55 L564.63,291.33 L565.70,291.13 L566.77,290.95 L567.84,290.80 L568.91,290.66 L569.98,290.55 L571.06,290.46 L572.13,290.40 L573.20,290.36 L574.27,290.34 L575.34,290.34 L576.41,290.37 L577.48,290.42 L578.55,290.49 L579.62,290.58 L580.69,290.70 L581.76,290.84 L582.83,291.00 L583.91,291.19 L584.98,291.39 L586.05,291.61 L587.12,291.86 L588.19,292.12 L589.26,292.40 L590.33,292.70 L591.40,293.02 L592.47,293.36 L593.54,293.70 L594.61,294.07 L595.69,294.45 L596.76,294.84 L597.83,295.24 L598.90,295.65 L599.97,296.07 L601.04,296.51 L602.11,296.95 L603.18,297.39 L604.25,297.84 L605.32,298.30 L606.39,298.76 L607.46,299.22 L608.54,299.69 L609.61,300.15 L610.68,300.61 L611.75,301.07 L612.82,301.53 L613.89,301.98 L614.96,302.43 L616.03,302.87 L617.10,303.30 L618.17,303.72 L619.24,304.14 L620.31,304.54 L621.39,304.93 L622.46,305.31 L623.53,305.67 L624.60,306.02 L625.67,306.35 L626.74,306.67 L627.81,306.97 L628.88,307.25 L629.95,307.52 L631.02,307.76 L632.09,307.98 L633.17,308.19 L634.24,308.37 L635.31,308.53 L636.38,308.67 L637.45,308.79 L638.52,308.89 L639.59,308.96 L640.66,309.01 L641.73,309.04 L642.80,309.04 L643.87,309.02 L644.94,308.98 L646.02,308.91 L647.09,308.82 L648.16,308.71 L649.23,308.58 L650.30,308.42 L651.37,308.24 L652.44,308.04 L653.51,307.82 L654.58,307.58 L655.65,307.32 L656.72,307.04 L657.80,306.74 L658.87,306.43 L659.94,306.10 L661.01,305.75 L662.08,305.38 L663.15,305.00 L664.22,304.61 L665.29,304.20 L666.36,303.78 L667.43,303.35 L668.50,302.91 L669.57,302.47 L670.65,302.01 L671.72,301.55 L672.79,301.08 L673.86,300.61 L674.93,300.13 L676.00,299.65" fill="none" stroke="#e0e0e0" stroke-width="1.4"/>
<text x="539" y="238" fill="#666" font-family="monospace" font-size="9">08</text>
<rect x="76" y="376" width="152" height="152" fill="#0b0b0b" stroke="#444"/>
<line x1="84" y1="452.00" x2="220" y2="452.00" stroke="#292929"/>
<path d="M84.00,453.69 L85.07,452.89 L86.14,452.72 L87.21,452.55 L88.28,452.38 L89.35,452.00 L90.43,451.84 L91.50,451.68 L92.57,450.68 L93.64,451.15 L94.71,451.00 L95.78,450.85 L96.85,450.70 L97.92,450.77 L98.99,450.63 L100.06,450.50 L101.13,449.95 L102.20,449.83 L103.28,449.71 L104.35,449.60 L105.42,449.50 L106.49,449.40 L107.56,449.31 L108.63,449.22 L109.70,448.94 L110.77,448.87 L111.84,448.80 L112.91,448.75 L113.98,448.70 L115.06,448.66 L116.13,448.62 L117.20,448.60 L118.27,448.58 L119.34,448.57 L120.41,448.57 L121.48,448.57 L122.55,448.58 L123.62,448.60 L124.69,448.63 L125.76,448.66 L126.83,449.96 L127.91,450.01 L128.98,450.07 L130.05,450.13 L131.12,450.20 L132.19,450.27 L133.26,450.35 L134.33,450.44 L135.40,449.49 L136.47,449.58 L137.54,449.69 L138.61,449.80 L139.69,449.91 L140.76,450.03 L141.83,450.36 L142.90,450.48 L143.97,450.61 L145.04,450.74 L146.11,450.87 L147.18,451.01 L148.25,451.15 L149.32,451.50 L150.39,451.64 L151.46,451.78 L152.54,451.92 L153.61,452.06 L154.68,452.20 L155.75,452.55 L156.82,452.69 L157.89,452.83 L158.96,452.96 L160.03,453.10 L161.10,453.23 L162.17,453.36 L163.24,453.69 L164.31,453.81 L165.39,453.93 L166.46,454.04 L167.53,454.15 L168.60,454.25 L169.67,454.35 L170.74,454.44 L171.81,454.74 L172.88,454.82 L173.95,454.90 L175.02,454.97 L176.09,455.03 L177.17,455.08 L178.24,455.13 L179.31,455.17 L180.38,455.21 L181.45,455.24 L182.52,455.26 L183.59,455.27 L184.66,455.27 L185.73,455.27 L186.80,455.26 L187.87,455.24 L188.94,455.21 L190.02,455.18 L191.09,455.14 L192.16,455.09 L193.23,455.03 L194.30,454.97 L195.37,454.90 L196.44,454.61 L197.51,454.53 L198.58,454.44 L199.65,454.34 L200.72,454.24 L201.80,454.12 L202.87,454.01 L203.94,453.68 L205.01,453.55 L206.08,453.42 L207.15,453.28 L208.22,453.14 L209.29,452.99 L210.36,452.63 L211.43,452.48 L212.50,452.32 L213.57,452.16 L214.65,452.00 L215.72,451.62 L216.79,451.46 L217.86,451.29 L218.93,451.12 L220.00,450.95" fill="none" stroke="#e0e0e0" stroke-width="1.4"/>
<text x="83" y="390" fill="#666" font-family="monospace" font-size="9">09</text>
<rect x="228" y="376" width="152" height="152" fill="#0b0b0b" stroke="#444"/>
<line x1="236" y1="452.00" x2="372" y2="452.00" stroke="#292929"/>
<path d="M236.00,455.44 L237.07,453.54 L238.14,453.30 L239.21,452.24 L240.28,452.00 L241.35,451.77 L242.43,451.53 L243.50,451.31 L244.57,448.59 L245.64,450.03 L246.71,449.82 L247.78,450.44 L248.85,450.23 L249.92,450.03 L250.99,449.84 L252.06,449.65 L253.13,448.65 L254.20,448.48 L255.28,448.31 L256.35,448.16 L257.42,448.01 L258.49,447.88 L259.56,447.75 L260.63,446.80 L261.70,446.69 L262.77,446.60 L263.84,446.51 L264.91,446.43 L265.98,446.36 L267.06,446.31 L268.13,446.26 L269.20,446.22 L270.27,446.20 L271.34,446.19 L272.41,446.18 L273.48,446.19 L274.55,446.21 L275.62,446.24 L276.69,446.28 L277.76,446.33 L278.83,449.71 L279.91,449.78 L280.98,449.86 L282.05,449.95 L283.12,450.05 L284.19,450.15 L285.26,450.27 L286.33,450.40 L287.40,448.04 L288.47,448.18 L289.54,448.33 L290.61,448.48 L291.69,448.64 L292.76,448.81 L293.83,448.98 L294.90,449.16 L295.97,451.00 L297.04,451.19 L298.11,451.38 L299.18,451.57 L300.25,451.77 L301.32,451.96 L302.39,452.16 L303.46,452.36 L304.54,451.74 L305.61,451.94 L306.68,452.14 L307.75,452.34 L308.82,452.53 L309.89,453.56 L310.96,453.75 L312.03,453.94 L313.10,454.13 L314.17,454.31 L315.24,454.49 L316.31,454.66 L317.39,454.83 L318.46,454.99 L319.53,455.14 L320.60,455.29 L321.67,455.43 L322.74,455.57 L323.81,456.52 L324.88,456.64 L325.95,456.74 L327.02,456.84 L328.09,456.93 L329.17,457.01 L330.24,457.08 L331.31,457.14 L332.38,457.19 L333.45,457.23 L334.52,457.26 L335.59,457.28 L336.66,457.29 L337.73,457.29 L338.80,457.27 L339.87,457.25 L340.94,457.21 L342.02,457.17 L343.09,457.11 L344.16,457.04 L345.23,456.96 L346.30,456.88 L347.37,455.95 L348.44,455.84 L349.51,455.72 L350.58,455.60 L351.65,455.46 L352.72,455.31 L353.80,455.16 L354.87,455.00 L355.94,454.83 L357.01,454.65 L358.08,454.46 L359.15,454.27 L360.22,453.24 L361.29,453.04 L362.36,452.82 L363.43,452.61 L364.50,451.56 L365.57,451.34 L366.65,451.11 L367.72,450.88 L368.79,451.47 L369.86,451.24 L370.93,451.00 L372.00,450.76" fill="none" stroke="#e0e0e0" stroke-width="1.4"/>
<text x="235" y="390" fill="#666" font-family="monospace" font-size="9">10</text>
<rect x="380" y="376" width="152" height="152" fill="#0b0b0b" stroke="#444"/>
<line x1="388" y1="452.00" x2="524" y2="452.00" stroke="#292929"/>
<path d="M388.00,472.33 L389.07,453.22 L390.14,452.74 L391.21,452.26 L392.28,451.79 L393.35,451.33 L394.43,450.87 L395.50,450.41 L396.57,431.32 L397.64,449.52 L398.71,449.09 L399.78,448.68 L400.85,448.27 L401.92,447.87 L402.99,447.49 L404.06,447.12 L405.13,446.77 L406.20,446.43 L407.28,446.11 L408.35,445.81 L409.42,445.52 L410.49,445.25 L411.56,445.00 L412.63,444.77 L413.70,444.56 L414.77,444.37 L415.84,444.21 L416.91,444.06 L417.98,443.93 L419.06,443.83 L420.13,443.75 L421.20,443.69 L422.27,443.65 L423.34,443.64 L424.41,443.64 L425.48,443.67 L426.55,443.72 L427.62,443.79 L428.69,443.89 L429.76,444.00 L430.83,444.14 L431.91,444.29 L432.98,444.47 L434.05,444.67 L435.12,444.88 L436.19,445.11 L437.26,445.37 L438.33,445.63 L439.40,445.92 L440.47,446.22 L441.54,446.53 L442.61,446.86 L443.69,447.21 L444.76,447.56 L445.83,447.93 L446.90,448.30 L447.97,448.69 L449.04,449.08 L450.11,449.48 L451.18,449.89 L452.25,450.31 L453.32,450.72 L454.39,451.15 L455.46,451.57 L456.54,451.99 L457.61,452.42 L458.68,452.84 L459.75,453.26 L460.82,453.68 L461.89,454.09 L462.96,454.50 L464.03,454.90 L465.10,455.30 L466.17,455.68 L467.24,456.06 L468.31,456.43 L469.39,456.78 L470.46,457.12 L471.53,457.45 L472.60,457.77 L473.67,458.07 L474.74,458.35 L475.81,458.62 L476.88,458.87 L477.95,459.11 L479.02,459.32 L480.09,459.52 L481.17,459.69 L482.24,459.85 L483.31,459.98 L484.38,460.10 L485.45,460.19 L486.52,460.27 L487.59,460.32 L488.66,460.34 L489.73,460.35 L490.80,460.34 L491.87,460.30 L492.94,460.24 L494.02,460.16 L495.09,460.05 L496.16,459.93 L497.23,459.78 L498.30,459.61 L499.37,459.42 L500.44,459.21 L501.51,458.98 L502.58,458.74 L503.65,458.47 L504.72,458.18 L505.80,457.88 L506.87,457.56 L507.94,457.22 L509.01,456.86 L510.08,456.50 L511.15,456.11 L512.22,455.72 L513.29,455.31 L514.36,454.89 L515.43,454.46 L516.50,454.02 L517.57,453.58 L518.65,453.12 L519.72,452.66 L520.79,452.19 L521.86,451.72 L522.93,451.25 L524.00,450.77" fill="none" stroke="#e0e0e0" stroke-width="1.4"/>
<text x="387" y="390" fill="#666" font-family="monospace" font-size="9">11</text>
<rect x="532" y="376" width="152" height="152" fill="#0b0b0b" stroke="#444"/>
<line x1="540" y1="452.00" x2="676" y2="452.00" stroke="#292929"/>
<path d="M540.00,491.52 L541.07,452.03 L542.14,451.56 L543.21,451.10 L544.28,450.63 L545.35,450.17 L546.43,449.72 L547.50,449.27 L548.57,409.82 L549.64,448.40 L550.71,447.98 L551.78,447.57 L552.85,447.17 L553.92,446.78 L554.99,446.41 L556.06,446.05 L557.13,445.71 L558.20,445.38 L559.28,445.07 L560.35,444.78 L561.42,444.51 L562.49,444.25 L563.56,444.01 L564.63,443.80 L565.70,443.60 L566.77,443.43 L567.84,443.28 L568.91,443.14 L569.98,443.03 L571.06,442.95 L572.13,442.88 L573.20,442.84 L574.27,442.82 L575.34,442.83 L576.41,442.85 L577.48,442.90 L578.55,442.97 L579.62,443.07 L580.69,443.18 L581.76,443.32 L582.83,443.48 L583.91,443.66 L584.98,443.86 L586.05,444.08 L587.12,444.32 L588.19,444.57 L589.26,444.85 L590.33,445.15 L591.40,445.46 L592.47,445.78 L593.54,446.13 L594.61,446.48 L595.69,446.85 L596.76,447.24 L597.83,447.63 L598.90,448.04 L599.97,448.45 L601.04,448.88 L602.11,449.31 L603.18,449.75 L604.25,450.19 L605.32,450.64 L606.39,451.09 L607.46,451.54 L608.54,452.00 L609.61,452.45 L610.68,452.91 L611.75,453.36 L612.82,453.81 L613.89,454.25 L614.96,454.69 L616.03,455.12 L617.10,455.54 L618.17,455.96 L619.24,456.36 L620.31,456.76 L621.39,457.14 L622.46,457.51 L623.53,457.87 L624.60,458.21 L625.67,458.54 L626.74,458.85 L627.81,459.14 L628.88,459.42 L629.95,459.68 L631.02,459.92 L632.09,460.14 L633.17,460.34 L634.24,460.52 L635.31,460.68 L636.38,460.82 L637.45,460.93 L638.52,461.02 L639.59,461.10 L640.66,461.14 L641.73,461.17 L642.80,461.17 L643.87,461.15 L644.94,461.11 L646.02,461.05 L647.09,460.96 L648.16,460.85 L649.23,460.72 L650.30,460.57 L651.37,460.39 L652.44,460.20 L653.51,459.98 L654.58,459.75 L655.65,459.49 L656.72,459.22 L657.80,458.92 L658.87,458.61 L659.94,458.29 L661.01,457.94 L662.08,457.58 L663.15,457.21 L664.22,456.83 L665.29,456.43 L666.36,456.02 L667.43,455.59 L668.50,455.16 L669.57,454.72 L670.65,454.28 L671.72,453.82 L672.79,453.36 L673.86,452.90 L674.93,452.43 L676.00,451.96" fill="none" stroke="#e0e0e0" stroke-width="1.4"/>
<text x="539" y="390" fill="#666" font-family="monospace" font-size="9">12</text>
<rect x="76" y="528" width="152" height="152" fill="#0b0b0b" stroke="#444"/>
<line x1="84" y1="604.00" x2="220" y2="604.00" stroke="#292929"/>
<path d="M84.00,605.78 L85.07,604.94 L86.14,604.77 L87.21,604.59 L88.28,604.41 L89.35,604.02 L90.43,603.85 L91.50,603.68 L92.57,603.51 L93.64,603.35 L94.71,602.97 L95.78,602.81 L96.85,602.66 L97.92,602.51 L98.99,602.37 L100.06,602.23 L101.13,601.44 L102.20,601.97 L103.28,601.85 L104.35,601.73 L105.42,601.63 L106.49,601.74 L107.56,601.65 L108.63,601.56 L109.70,601.48 L110.77,601.40 L111.84,601.56 L112.91,601.50 L113.98,601.45 L115.06,601.40 L116.13,601.37 L117.20,601.34 L118.27,600.45 L119.34,600.44 L120.41,600.43 L121.48,600.44 L122.55,600.45 L123.62,600.47 L124.69,600.50 L125.76,600.54 L126.83,600.58 L127.91,600.63 L128.98,600.69 L130.05,600.75 L131.12,600.83 L132.19,600.90 L133.26,601.21 L134.33,601.30 L135.40,602.27 L136.47,602.37 L137.54,602.48 L138.61,602.59 L139.69,602.71 L140.76,602.83 L141.83,602.96 L142.90,603.09 L143.97,603.44 L145.04,603.58 L146.11,603.72 L147.18,603.86 L148.25,604.00 L149.32,604.15 L150.39,604.29 L151.46,604.44 L152.54,603.28 L153.61,603.42 L154.68,603.57 L155.75,603.72 L156.82,603.86 L157.89,604.01 L158.96,604.15 L160.03,604.29 L161.10,604.42 L162.17,604.56 L163.24,604.69 L164.31,604.81 L165.39,604.94 L166.46,605.05 L167.53,605.39 L168.60,605.49 L169.67,606.47 L170.74,606.57 L171.81,606.88 L172.88,606.96 L173.95,607.04 L175.02,607.11 L176.09,607.18 L177.17,607.24 L178.24,607.29 L179.31,607.33 L180.38,607.37 L181.45,607.39 L182.52,607.41 L183.59,607.43 L184.66,607.43 L185.73,607.43 L186.80,607.42 L187.87,607.40 L188.94,607.37 L190.02,607.34 L191.09,607.29 L192.16,607.24 L193.23,607.18 L194.30,607.12 L195.37,607.04 L196.44,606.74 L197.51,606.66 L198.58,606.56 L199.65,606.46 L200.72,606.35 L201.80,606.23 L202.87,606.11 L203.94,605.77 L205.01,605.63 L206.08,605.50 L207.15,605.35 L208.22,605.20 L209.29,605.05 L210.36,604.68 L211.43,604.52 L212.50,604.35 L213.57,604.19 L214.65,604.02 L215.72,603.63 L216.79,603.45 L217.86,603.28 L218.93,603.10 L220.00,602.92" fill="none" stroke="#e0e0e0" stroke-width="1.4"/>
<text x="83" y="542" fill="#666" font-family="monospace" font-size="9">13</text>
<rect x="228" y="528" width="152" height="152" fill="#0b0b0b" stroke="#444"/>
<line x1="236" y1="604.00" x2="372" y2="604.00" stroke="#292929"/>
<path d="M236.00,607.71 L237.07,605.74 L238.14,605.49 L239.21,604.38 L240.28,604.13 L241.35,603.89 L242.43,603.65 L243.50,603.41 L244.57,603.18 L245.64,602.95 L246.71,602.72 L247.78,602.50 L248.85,601.43 L249.92,601.22 L250.99,601.02 L252.06,600.83 L253.13,598.91 L254.20,600.46 L255.28,600.29 L256.35,601.00 L257.42,600.84 L258.49,600.70 L259.56,600.57 L260.63,600.45 L261.70,600.33 L262.77,600.23 L263.84,600.14 L264.91,600.06 L265.98,600.85 L267.06,600.79 L268.13,600.75 L269.20,600.71 L270.27,598.09 L271.34,598.08 L272.41,598.08 L273.48,598.08 L274.55,598.10 L275.62,598.13 L276.69,598.18 L277.76,598.23 L278.83,598.29 L279.91,598.36 L280.98,598.45 L282.05,598.54 L283.12,598.64 L284.19,598.76 L285.26,599.74 L286.33,599.87 L287.40,601.74 L288.47,601.88 L289.54,602.04 L290.61,602.20 L291.69,602.36 L292.76,602.54 L293.83,602.72 L294.90,603.77 L295.97,603.96 L297.04,604.15 L298.11,604.35 L299.18,604.55 L300.25,604.75 L301.32,604.96 L302.39,605.17 L303.46,605.38 L304.54,602.13 L305.61,602.34 L306.68,602.55 L307.75,602.75 L308.82,602.96 L309.89,603.16 L310.96,603.37 L312.03,603.56 L313.10,603.76 L314.17,603.95 L315.24,604.13 L316.31,604.31 L317.39,604.49 L318.46,604.65 L319.53,605.68 L320.60,605.83 L321.67,607.71 L322.74,607.84 L323.81,608.84 L324.88,608.96 L325.95,609.07 L327.02,609.17 L328.09,609.27 L329.17,609.35 L330.24,609.42 L331.31,609.49 L332.38,609.54 L333.45,609.58 L334.52,609.61 L335.59,609.63 L336.66,609.64 L337.73,609.63 L338.80,609.62 L339.87,609.59 L340.94,609.56 L342.02,609.51 L343.09,609.45 L344.16,609.38 L345.23,609.30 L346.30,609.21 L347.37,608.24 L348.44,608.13 L349.51,608.01 L350.58,607.87 L351.65,607.73 L352.72,607.58 L353.80,607.42 L354.87,607.25 L355.94,607.07 L357.01,606.89 L358.08,606.69 L359.15,606.49 L360.22,605.42 L361.29,605.21 L362.36,604.99 L363.43,604.77 L364.50,604.54 L365.57,604.30 L366.65,604.07 L367.72,603.83 L368.79,603.58 L369.86,602.47 L370.93,602.23 L372.00,601.98" fill="none" stroke="#e0e0e0" stroke-width="1.4"/>
<text x="235" y="542" fill="#666" font-family="monospace" font-size="9">14</text>
<rect x="380" y="528" width="152" height="152" fill="#0b0b0b" stroke="#444"/>
<line x1="388" y1="604.00" x2="524" y2="604.00" stroke="#292929"/>
<path d="M388.00,624.21 L389.07,605.21 L390.14,604.73 L391.21,604.26 L392.28,603.79 L393.35,603.33 L394.43,602.87 L395.50,602.42 L396.57,601.98 L397.64,601.54 L398.71,601.11 L399.78,600.70 L400.85,600.29 L401.92,599.90 L402.99,599.52 L404.06,599.15 L405.13,580.28 L406.20,598.47 L407.28,598.15 L408.35,597.84 L409.42,597.56 L410.49,597.29 L411.56,597.05 L412.63,596.82 L413.70,596.61 L414.77,596.42 L415.84,596.26 L416.91,596.11 L417.98,595.98 L419.06,595.88 L420.13,595.80 L421.20,595.74 L422.27,595.70 L423.34,595.69 L424.41,595.70 L425.48,595.72 L426.55,595.77 L427.62,595.85 L428.69,595.94 L429.76,596.05 L430.83,596.19 L431.91,596.34 L432.98,596.52 L434.05,596.71 L435.12,596.93 L436.19,597.16 L437.26,597.41 L438.33,597.67 L439.40,597.96 L440.47,598.26 L441.54,598.57 L442.61,598.90 L443.69,599.24 L444.76,599.59 L445.83,599.95 L446.90,600.33 L447.97,600.71 L449.04,601.10 L450.11,601.50 L451.18,601.91 L452.25,602.32 L453.32,602.73 L454.39,603.15 L455.46,603.57 L456.54,603.99 L457.61,604.42 L458.68,604.84 L459.75,605.25 L460.82,605.67 L461.89,606.08 L462.96,606.49 L464.03,606.89 L465.10,607.28 L466.17,607.66 L467.24,608.04 L468.31,608.40 L469.39,608.75 L470.46,609.09 L471.53,609.42 L472.60,609.73 L473.67,610.03 L474.74,610.31 L475.81,610.58 L476.88,610.83 L477.95,611.06 L479.02,611.27 L480.09,611.47 L481.17,611.64 L482.24,611.80 L483.31,611.93 L484.38,612.05 L485.45,612.14 L486.52,612.21 L487.59,612.26 L488.66,612.29 L489.73,612.30 L490.80,612.28 L491.87,612.25 L492.94,612.19 L494.02,612.10 L495.09,612.00 L496.16,611.88 L497.23,611.73 L498.30,611.56 L499.37,611.38 L500.44,611.17 L501.51,610.94 L502.58,610.69 L503.65,610.43 L504.72,610.14 L505.80,609.84 L506.87,609.52 L507.94,609.19 L509.01,608.83 L510.08,608.47 L511.15,608.09 L512.22,607.70 L513.29,607.29 L514.36,606.87 L515.43,606.45 L516.50,606.01 L517.57,605.57 L518.65,605.11 L519.72,604.66 L520.79,604.19 L521.86,603.72 L522.93,603.25 L524.00,602.78" fill="none" stroke="#e0e0e0" stroke-width="1.4"/>
<text x="387" y="542" fill="#666" font-family="monospace" font-size="9">15</text>
<rect x="532" y="528" width="152" height="152" fill="#0b0b0b" stroke="#444"/>
<line x1="540" y1="604.00" x2="676" y2="604.00" stroke="#292929"/>
<path d="M540.00,641.97 L541.07,603.89 L542.14,603.43 L543.21,602.98 L544.28,602.53 L545.35,602.09 L546.43,601.65 L547.50,601.22 L548.57,600.80 L549.64,600.38 L550.71,599.98 L551.78,599.58 L552.85,599.19 L553.92,598.82 L554.99,598.46 L556.06,598.12 L557.13,560.15 L558.20,597.47 L559.28,597.17 L560.35,596.89 L561.42,596.62 L562.49,596.38 L563.56,596.15 L564.63,595.94 L565.70,595.75 L566.77,595.59 L567.84,595.44 L568.91,595.31 L569.98,595.21 L571.06,595.12 L572.13,595.06 L573.20,595.02 L574.27,632.63 L575.34,595.00 L576.41,595.03 L577.48,595.08 L578.55,595.14 L579.62,595.23 L580.69,595.35 L581.76,595.48 L582.83,595.63 L583.91,595.80 L584.98,596.00 L586.05,596.21 L587.12,596.44 L588.19,596.69 L589.26,596.96 L590.33,597.24 L591.40,597.54 L592.47,597.86 L593.54,598.19 L594.61,598.53 L595.69,598.89 L596.76,599.26 L597.83,599.64 L598.90,600.03 L599.97,600.43 L601.04,600.84 L602.11,601.26 L603.18,601.68 L604.25,602.11 L605.32,602.54 L606.39,602.97 L607.46,603.41 L608.54,603.85 L609.61,604.29 L610.68,604.73 L611.75,605.16 L612.82,605.59 L613.89,606.02 L614.96,606.45 L616.03,606.86 L617.10,607.27 L618.17,607.67 L619.24,608.06 L620.31,608.44 L621.39,608.81 L622.46,609.17 L623.53,609.51 L624.60,609.84 L625.67,610.16 L626.74,610.46 L627.81,610.74 L628.88,611.01 L629.95,611.26 L631.02,611.49 L632.09,611.70 L633.17,611.90 L634.24,612.07 L635.31,612.22 L636.38,612.36 L637.45,612.47 L638.52,612.56 L639.59,612.63 L640.66,612.67 L641.73,612.70 L642.80,612.70 L643.87,612.68 L644.94,612.64 L646.02,612.58 L647.09,612.50 L648.16,612.39 L649.23,612.26 L650.30,612.12 L651.37,611.95 L652.44,611.76 L653.51,611.55 L654.58,611.32 L655.65,611.08 L656.72,610.81 L657.80,610.53 L658.87,610.23 L659.94,609.92 L661.01,609.59 L662.08,609.24 L663.15,608.88 L664.22,608.51 L665.29,608.12 L666.36,607.73 L667.43,607.32 L668.50,606.90 L669.57,606.48 L670.65,606.05 L671.72,605.61 L672.79,605.17 L673.86,604.72 L674.93,604.27 L676.00,603.82" fill="none" stroke="#e0e0e0" stroke-width="1.4"/>
<text x="539" y="542" fill="#666" font-family="monospace" font-size="9">16</text>
</svg>
