<svg xmlns="http://www.w3.org/2000/svg" width="760" height="760" viewBox="0 0 760 760">
<rect width="760" height="760" fill="#161616"/>
<text x="24" y="32" fill="#dedede" font-family="monospace" font-size="15">S3G VOT / CELLULAR</text>
<text x="684" y="724" text-anchor="end" fill="#858585" font-family="monospace" font-size="11">U / GENERATION DEPTH</text>
<text x="24" y="72" fill="#858585" font-family="monospace" font-size="11">V / RULE FAMILY</text>
<text x="76" y="724" fill="#858585" font-family="monospace" font-size="11">ENERGY / GENERATION-ACTIVITY RISE</text>
<rect x="76" y="72" width="152" height="152" fill="#0b0b0b" stroke="#444"/>
<line x1="84" y1="148.00" x2="220" y2="148.00" stroke="#292929"/>
<path d="M84.00,149.03 L85.07,148.75 L86.14,148.47 L87.21,148.19 L88.28,147.92 L89.35,147.65 L90.43,147.38 L91.50,147.11 L92.57,143.78 L93.64,146.59 L94.71,146.34 L95.78,146.10 L96.85,145.86 L97.92,145.63 L98.99,145.41 L100.06,145.20 L101.13,145.00 L102.20,144.80 L103.28,144.62 L104.35,144.45 L105.42,144.29 L106.49,144.14 L107.56,144.00 L108.63,142.34 L109.70,137.61 L110.77,142.12 L111.84,143.57 L112.91,143.50 L113.98,143.43 L115.06,143.39 L116.13,143.35 L117.20,143.33 L118.27,143.32 L119.34,143.33 L120.41,143.35 L121.48,143.39 L122.55,143.43 L123.62,143.50 L124.69,143.57 L125.76,139.05 L126.83,142.22 L127.91,140.80 L128.98,144.00 L130.05,144.14 L131.12,144.29 L132.19,144.45 L133.26,144.62 L134.33,144.80 L135.40,145.00 L136.47,145.20 L137.54,145.41 L138.61,145.63 L139.69,145.86 L140.76,146.10 L141.83,144.81 L142.90,141.98 L143.97,142.24 L145.04,140.96 L146.11,145.84 L147.18,147.65 L148.25,147.92 L149.32,148.19 L150.39,148.47 L151.46,148.75 L152.54,149.03 L153.61,149.31 L154.68,149.59 L155.75,149.87 L156.82,150.15 L157.89,150.42 L158.96,146.08 L160.03,149.42 L161.10,148.14 L162.17,151.47 L163.24,148.65 L164.31,151.97 L165.39,152.20 L166.46,152.43 L167.53,152.65 L168.60,152.87 L169.67,153.07 L170.74,153.26 L171.81,153.44 L172.88,153.62 L173.95,153.78 L175.02,152.39 L176.09,149.46 L177.17,149.58 L178.24,148.16 L179.31,151.33 L180.38,148.35 L181.45,153.03 L182.52,154.63 L183.59,154.68 L184.66,154.71 L185.73,154.73 L186.80,154.74 L187.87,154.73 L188.94,154.71 L190.02,154.68 L191.09,154.63 L192.16,149.96 L193.23,152.96 L194.30,151.33 L195.37,154.31 L196.44,152.66 L197.51,152.53 L198.58,150.85 L199.65,153.78 L200.72,153.62 L201.80,153.44 L202.87,153.26 L203.94,153.07 L205.01,152.87 L206.08,152.65 L207.15,152.43 L208.22,150.67 L209.29,147.36 L210.36,147.11 L211.43,145.33 L212.50,149.68 L213.57,146.35 L214.65,144.54 L215.72,144.27 L216.79,148.61 L217.86,149.87 L218.93,149.59 L220.00,149.31" fill="none" stroke="#e0e0e0" stroke-width="1.4"/>
<text x="83" y="86" fill="#666" font-family="monospace" font-size="9">01</text>
<rect x="228" y="72" width="152" height="152" fill="#0b0b0b" stroke="#444"/>
<line x1="236" y1="148.00" x2="372" y2="148.00" stroke="#292929"/>
<path d="M236.00,151.34 L237.07,153.48 L238.14,153.09 L239.21,152.70 L240.28,141.19 L241.35,149.41 L242.43,142.96 L243.50,151.19 L244.57,139.70 L245.64,139.34 L246.71,150.13 L247.78,149.79 L248.85,140.86 L249.92,149.14 L250.99,148.83 L252.06,148.54 L253.13,148.25 L254.20,147.98 L255.28,147.73 L256.35,144.96 L257.42,136.13 L258.49,135.93 L259.56,133.20 L260.63,141.63 L261.70,135.40 L262.77,143.86 L263.84,143.74 L264.91,143.64 L265.98,132.42 L267.06,143.48 L268.13,145.97 L269.20,145.94 L270.27,145.93 L271.34,145.94 L272.41,145.97 L273.48,134.88 L274.55,143.55 L275.62,137.56 L276.69,146.27 L277.76,143.86 L278.83,141.47 L279.91,133.03 L280.98,135.73 L282.05,135.93 L283.12,144.74 L284.19,138.89 L285.26,147.73 L286.33,147.98 L287.40,148.25 L288.47,148.54 L289.54,146.30 L290.61,138.01 L291.69,138.33 L292.76,136.13 L293.83,147.60 L294.90,139.34 L295.97,145.77 L297.04,148.66 L298.11,151.56 L299.18,143.34 L300.25,141.19 L301.32,139.04 L302.39,150.56 L303.46,153.48 L304.54,153.87 L305.61,154.26 L306.68,143.52 L307.75,152.51 L308.82,146.82 L309.89,155.80 L310.96,145.04 L312.03,145.41 L313.10,154.38 L314.17,146.13 L315.24,155.08 L316.31,146.82 L317.39,149.68 L318.46,158.60 L319.53,150.31 L320.60,159.20 L321.67,159.49 L322.74,157.23 L323.81,148.88 L324.88,149.12 L325.95,146.81 L327.02,155.62 L328.09,149.74 L329.17,158.52 L330.24,147.55 L331.31,156.29 L332.38,147.81 L333.45,159.04 L334.52,150.53 L335.59,156.67 L336.66,148.11 L337.73,159.27 L338.80,161.81 L339.87,150.67 L340.94,159.24 L342.02,153.13 L343.09,161.66 L344.16,159.04 L345.23,156.41 L346.30,147.69 L347.37,158.68 L348.44,158.52 L349.51,158.34 L350.58,149.55 L351.65,149.34 L352.72,157.72 L353.80,157.48 L354.87,151.15 L355.94,156.96 L357.01,148.07 L358.08,147.78 L359.15,144.94 L360.22,155.75 L361.29,146.82 L362.36,152.55 L363.43,154.74 L364.50,148.31 L365.57,145.41 L366.65,142.51 L367.72,144.67 L368.79,152.89 L369.86,141.37 L370.93,140.99 L372.00,140.60" fill="none" stroke="#e0e0e0" stroke-width="1.4"/>
<text x="235" y="86" fill="#666" font-family="monospace" font-size="9">02</text>
<rect x="380" y="72" width="152" height="152" fill="#0b0b0b" stroke="#444"/>
<line x1="388" y1="148.00" x2="524" y2="148.00" stroke="#292929"/>
<path d="M388.00,160.90 L389.07,158.96 L390.14,158.66 L391.21,158.36 L392.28,158.06 L393.35,137.46 L394.43,135.53 L395.50,135.24 L396.57,134.96 L397.64,154.99 L398.71,156.35 L399.78,134.15 L400.85,133.89 L401.92,133.64 L402.99,131.77 L404.06,133.17 L405.13,156.53 L406.20,132.74 L407.28,132.55 L408.35,132.36 L409.42,130.55 L410.49,132.02 L411.56,133.51 L412.63,155.31 L413.70,133.25 L414.77,153.45 L415.84,129.78 L416.91,131.33 L417.98,154.84 L419.06,132.84 L420.13,154.75 L421.20,153.09 L422.27,129.51 L423.34,131.15 L424.41,154.75 L425.48,132.84 L426.55,154.84 L427.62,154.91 L428.69,131.41 L429.76,151.81 L430.83,129.98 L431.91,130.10 L432.98,153.82 L434.05,153.97 L435.12,152.49 L436.19,130.73 L437.26,154.49 L438.33,132.74 L439.40,154.90 L440.47,155.12 L441.54,153.71 L442.61,132.01 L443.69,155.83 L444.76,156.09 L445.83,134.41 L446.90,156.62 L447.97,156.90 L449.04,158.82 L450.11,137.16 L451.18,135.82 L452.25,156.43 L453.32,158.36 L454.39,136.72 L455.46,137.02 L456.54,160.90 L457.61,137.63 L458.68,158.24 L459.75,160.17 L460.82,140.16 L461.89,138.83 L462.96,159.43 L464.03,137.77 L465.10,139.69 L466.17,161.91 L467.24,140.24 L468.31,142.14 L469.39,162.70 L470.46,139.37 L471.53,141.25 L472.60,163.42 L473.67,140.06 L474.74,141.90 L475.81,164.04 L476.88,140.65 L477.95,142.46 L479.02,144.26 L480.09,164.72 L481.17,164.85 L482.24,164.98 L483.31,141.51 L484.38,165.18 L485.45,143.32 L486.52,141.75 L487.59,165.38 L488.66,165.42 L489.73,141.86 L490.80,165.45 L491.87,165.44 L492.94,141.84 L494.02,165.38 L495.09,166.96 L496.16,143.32 L497.23,141.60 L498.30,143.14 L499.37,143.03 L500.44,164.85 L501.51,142.78 L502.58,142.63 L503.65,166.04 L504.72,143.92 L505.80,142.10 L506.87,163.85 L507.94,165.27 L509.01,141.47 L510.08,163.19 L511.15,142.64 L512.22,162.70 L513.29,140.50 L514.36,163.81 L515.43,163.54 L516.50,141.32 L517.57,139.41 L518.65,139.12 L519.72,160.77 L520.79,158.84 L521.86,138.23 L522.93,139.56 L524.00,139.26" fill="none" stroke="#e0e0e0" stroke-width="1.4"/>
<text x="387" y="86" fill="#666" font-family="monospace" font-size="9">03</text>
<rect x="532" y="72" width="152" height="152" fill="#0b0b0b" stroke="#444"/>
<line x1="540" y1="148.00" x2="676" y2="148.00" stroke="#292929"/>
<path d="M540.00,162.55 L541.07,133.70 L542.14,133.51 L543.21,133.31 L544.28,133.12 L545.35,161.59 L546.43,161.40 L547.50,161.22 L548.57,132.38 L549.64,132.20 L550.71,160.69 L551.78,131.86 L552.85,160.35 L553.92,160.19 L554.99,131.38 L556.06,131.23 L557.13,159.75 L558.20,159.62 L559.28,130.83 L560.35,159.37 L561.42,159.26 L562.49,159.15 L563.56,130.40 L564.63,130.31 L565.70,158.89 L566.77,130.16 L567.84,130.10 L568.91,158.71 L569.98,158.67 L571.06,129.97 L572.13,129.95 L573.20,129.93 L574.27,129.93 L575.34,129.93 L576.41,129.95 L577.48,158.63 L578.55,158.67 L579.62,130.05 L580.69,158.76 L581.76,130.16 L582.83,130.23 L583.91,130.31 L584.98,159.06 L586.05,130.49 L587.12,130.60 L588.19,159.37 L589.26,159.49 L590.33,130.96 L591.40,159.75 L592.47,159.89 L593.54,160.04 L594.61,131.53 L595.69,160.35 L596.76,131.86 L597.83,132.03 L598.90,132.20 L599.97,132.38 L601.04,161.22 L602.11,161.40 L603.18,132.93 L604.25,133.12 L605.32,133.31 L606.39,162.17 L607.46,133.70 L608.54,162.55 L609.61,162.75 L610.68,162.94 L611.75,134.48 L612.82,134.67 L613.89,163.52 L614.96,135.04 L616.03,163.89 L617.10,135.41 L618.17,135.59 L619.24,164.42 L620.31,164.59 L621.39,136.10 L622.46,136.25 L623.53,136.41 L624.60,165.22 L625.67,136.70 L626.74,165.49 L627.81,136.96 L628.88,165.74 L629.95,165.85 L631.02,137.29 L632.09,137.39 L633.17,166.14 L634.24,137.56 L635.31,166.29 L636.38,166.35 L637.45,137.74 L638.52,137.78 L639.59,137.81 L640.66,166.50 L641.73,166.51 L642.80,166.52 L643.87,166.51 L644.94,137.84 L646.02,137.81 L647.09,166.44 L648.16,137.74 L649.23,166.35 L650.30,166.29 L651.37,166.22 L652.44,166.14 L653.51,137.39 L654.58,165.95 L655.65,165.85 L656.72,137.08 L657.80,165.62 L658.87,136.83 L659.94,165.36 L661.01,165.22 L662.08,165.07 L663.15,136.25 L664.22,136.10 L665.29,164.59 L666.36,164.42 L667.43,135.59 L668.50,164.07 L669.57,135.23 L670.65,135.04 L671.72,134.86 L672.79,163.33 L673.86,134.48 L674.93,134.28 L676.00,134.09" fill="none" stroke="#e0e0e0" stroke-width="1.4"/>
<text x="539" y="86" fill="#666" font-family="monospace" font-size="9">04</text>
<rect x="76" y="224" width="152" height="152" fill="#0b0b0b" stroke="#444"/>
<line x1="84" y1="300.00" x2="220" y2="300.00" stroke="#292929"/>
<path d="M84.00,301.27 L85.07,302.36 L86.14,302.12 L87.21,301.88 L88.28,301.64 L89.35,301.40 L90.43,299.83 L91.50,299.60 L92.57,298.04 L93.64,300.49 L94.71,300.27 L95.78,300.06 L96.85,299.85 L97.92,299.65 L98.99,299.46 L100.06,299.28 L101.13,295.11 L102.20,293.61 L103.28,293.45 L104.35,293.30 L105.42,293.16 L106.49,293.03 L107.56,295.57 L108.63,296.80 L109.70,295.36 L110.77,293.94 L111.84,292.54 L112.91,292.47 L113.98,292.42 L115.06,292.38 L116.13,292.35 L117.20,292.33 L118.27,296.32 L119.34,297.66 L120.41,297.68 L121.48,297.71 L122.55,297.75 L123.62,297.80 L124.69,293.87 L125.76,296.61 L126.83,294.03 L127.91,294.13 L128.98,298.24 L130.05,298.36 L131.12,298.49 L132.19,298.63 L133.26,298.78 L134.33,298.94 L135.40,295.11 L136.47,293.95 L137.54,294.13 L138.61,294.32 L139.69,294.52 L140.76,296.06 L141.83,297.60 L142.90,300.49 L143.97,298.04 L145.04,300.94 L146.11,297.17 L147.18,296.07 L148.25,296.31 L149.32,296.55 L150.39,296.79 L151.46,297.03 L152.54,301.27 L153.61,302.85 L154.68,303.09 L155.75,303.33 L156.82,303.57 L157.89,302.47 L158.96,300.04 L160.03,301.60 L161.10,301.83 L162.17,302.05 L163.24,302.27 L164.31,305.15 L165.39,305.35 L166.46,305.55 L167.53,305.74 L168.60,305.93 L169.67,302.10 L170.74,300.94 L171.81,301.10 L172.88,301.25 L173.95,301.39 L175.02,304.18 L176.09,304.30 L177.17,301.75 L178.24,301.85 L179.31,301.93 L180.38,303.34 L181.45,303.41 L182.52,302.13 L183.59,302.17 L184.66,302.20 L185.73,302.22 L186.80,306.22 L187.87,307.55 L188.94,307.53 L190.02,307.50 L191.09,307.46 L192.16,303.41 L193.23,302.01 L194.30,305.93 L195.37,307.18 L196.44,307.08 L197.51,305.64 L198.58,302.85 L199.65,306.72 L200.72,306.58 L201.80,306.43 L202.87,306.27 L203.94,302.10 L205.01,300.60 L206.08,300.41 L207.15,300.22 L208.22,301.35 L209.29,302.48 L210.36,304.94 L211.43,303.39 L212.50,299.17 L213.57,298.94 L214.65,301.37 L215.72,302.47 L216.79,299.57 L217.86,298.00 L218.93,297.76 L220.00,297.52" fill="none" stroke="#e0e0e0" stroke-width="1.4"/>
<text x="83" y="238" fill="#666" font-family="monospace" font-size="9">05</text>
<rect x="228" y="224" width="152" height="152" fill="#0b0b0b" stroke="#444"/>
<line x1="236" y1="300.00" x2="372" y2="300.00" stroke="#292929"/>
<path d="M236.00,306.47 L237.07,306.12 L238.14,305.76 L239.21,305.41 L240.28,302.75 L241.35,294.56 L242.43,294.22 L243.50,299.42 L244.57,301.39 L245.64,303.37 L246.71,292.91 L247.78,300.44 L248.85,294.61 L249.92,302.16 L250.99,301.88 L252.06,301.61 L253.13,291.20 L254.20,288.65 L255.28,288.42 L256.35,288.20 L257.42,295.84 L258.49,295.65 L259.56,289.94 L260.63,289.78 L261.70,295.17 L262.77,289.50 L263.84,291.70 L264.91,299.45 L265.98,291.53 L267.06,289.16 L268.13,286.81 L269.20,286.78 L270.27,296.92 L271.34,299.24 L272.41,299.26 L273.48,299.31 L274.55,289.22 L275.62,286.99 L276.69,294.93 L277.76,289.50 L278.83,289.63 L279.91,295.31 L280.98,289.94 L282.05,292.42 L283.12,290.30 L284.19,290.51 L285.26,300.87 L286.33,301.10 L287.40,291.20 L288.47,289.15 L289.54,289.42 L290.61,292.01 L291.69,294.61 L292.76,302.75 L293.83,292.91 L294.90,298.76 L295.97,293.55 L297.04,293.88 L298.11,299.76 L299.18,292.26 L300.25,294.91 L301.32,305.41 L302.39,295.61 L303.46,293.66 L304.54,304.16 L305.61,306.83 L306.68,307.18 L307.75,305.23 L308.82,297.73 L309.89,300.39 L310.96,300.73 L312.03,298.76 L313.10,304.63 L314.17,299.42 L315.24,299.74 L316.31,307.89 L317.39,310.49 L318.46,302.94 L319.53,303.22 L320.60,311.33 L321.67,301.44 L322.74,299.38 L323.81,299.61 L324.88,307.67 L325.95,307.88 L327.02,300.23 L328.09,300.40 L329.17,302.87 L330.24,303.01 L331.31,308.68 L332.38,303.25 L333.45,311.19 L334.52,303.43 L335.59,303.49 L336.66,303.53 L337.73,303.56 L338.80,311.41 L339.87,313.70 L340.94,313.68 L342.02,303.49 L343.09,301.12 L344.16,311.19 L345.23,313.40 L346.30,310.98 L347.37,303.01 L348.44,302.87 L349.51,310.55 L350.58,310.38 L351.65,307.88 L352.72,302.14 L353.80,309.76 L354.87,301.69 L355.94,301.44 L357.01,298.88 L358.08,300.92 L359.15,302.94 L360.22,310.49 L361.29,307.89 L362.36,297.43 L363.43,304.95 L364.50,304.63 L365.57,298.76 L366.65,306.27 L367.72,303.62 L368.79,295.43 L369.86,305.23 L370.93,304.87 L372.00,304.52" fill="none" stroke="#e0e0e0" stroke-width="1.4"/>
<text x="235" y="238" fill="#666" font-family="monospace" font-size="9">06</text>
<rect x="380" y="224" width="152" height="152" fill="#0b0b0b" stroke="#444"/>
<line x1="388" y1="300.00" x2="524" y2="300.00" stroke="#292929"/>
<path d="M388.00,309.11 L389.07,308.80 L390.14,310.15 L391.21,289.38 L392.28,309.54 L393.35,285.49 L394.43,286.84 L395.50,286.55 L396.57,306.73 L397.64,308.09 L398.71,285.71 L399.78,283.80 L400.85,285.19 L401.92,284.94 L402.99,306.81 L404.06,308.22 L405.13,306.35 L406.20,282.39 L407.28,305.94 L408.35,285.29 L409.42,305.58 L410.49,305.41 L411.56,305.26 L412.63,283.02 L413.70,282.89 L414.77,304.89 L415.84,284.33 L416.91,306.36 L417.98,304.65 L419.06,282.49 L420.13,304.56 L421.20,280.78 L422.27,280.77 L423.34,304.54 L424.41,306.21 L425.48,284.13 L426.55,304.65 L427.62,303.07 L428.69,303.15 L429.76,303.25 L430.83,282.89 L431.91,306.77 L432.98,284.80 L434.05,283.31 L435.12,303.93 L436.19,305.75 L437.26,305.94 L438.33,306.14 L439.40,285.89 L440.47,306.57 L441.54,284.70 L442.61,286.58 L443.69,307.30 L444.76,283.80 L445.83,284.07 L446.90,284.34 L447.97,308.37 L449.04,288.20 L450.11,286.84 L451.18,287.13 L452.25,287.43 L453.32,308.20 L454.39,308.50 L455.46,310.45 L456.54,290.29 L457.61,311.06 L458.68,309.72 L459.75,289.56 L460.82,311.97 L461.89,312.27 L462.96,314.21 L464.03,314.50 L465.10,314.79 L466.17,291.31 L467.24,291.58 L468.31,313.96 L469.39,292.11 L470.46,292.36 L471.53,290.95 L472.60,314.94 L473.67,294.70 L474.74,315.37 L475.81,291.82 L476.88,315.76 L477.95,315.93 L479.02,314.45 L480.09,292.49 L481.17,292.63 L482.24,294.40 L483.31,296.16 L484.38,318.36 L485.45,316.80 L486.52,315.22 L487.59,294.81 L488.66,318.60 L489.73,318.62 L490.80,296.52 L491.87,316.98 L492.94,316.95 L494.02,316.92 L495.09,315.22 L496.16,293.04 L497.23,316.72 L498.30,318.27 L499.37,316.51 L500.44,294.28 L501.51,294.14 L502.58,314.45 L503.65,292.18 L504.72,315.76 L505.80,293.46 L506.87,293.26 L507.94,294.70 L509.01,314.94 L510.08,313.06 L511.15,312.82 L512.22,290.46 L513.29,313.96 L514.36,313.69 L515.43,289.66 L516.50,311.49 L517.57,311.21 L518.65,290.46 L519.72,290.16 L520.79,311.97 L521.86,313.32 L522.93,290.90 L524.00,311.06" fill="none" stroke="#e0e0e0" stroke-width="1.4"/>
<text x="387" y="238" fill="#666" font-family="monospace" font-size="9">07</text>
<rect x="532" y="224" width="152" height="152" fill="#0b0b0b" stroke="#444"/>
<line x1="540" y1="300.00" x2="676" y2="300.00" stroke="#292929"/>
<path d="M540.00,314.31 L541.07,314.11 L542.14,285.07 L543.21,284.88 L544.28,313.53 L545.35,313.34 L546.43,313.15 L547.50,312.97 L548.57,283.94 L549.64,283.76 L550.71,312.43 L551.78,283.41 L552.85,312.09 L553.92,283.09 L554.99,282.93 L556.06,311.63 L557.13,311.49 L558.20,311.35 L559.28,311.23 L560.35,311.11 L561.42,310.99 L562.49,310.89 L563.56,281.95 L564.63,310.70 L565.70,281.78 L566.77,310.55 L567.84,281.65 L568.91,310.44 L569.98,310.40 L571.06,310.36 L572.13,281.49 L573.20,310.33 L574.27,281.48 L575.34,281.48 L576.41,310.34 L577.48,281.52 L578.55,310.40 L579.62,281.59 L580.69,310.49 L581.76,310.55 L582.83,281.78 L583.91,281.86 L584.98,281.95 L586.05,310.89 L587.12,310.99 L588.19,282.26 L589.26,311.23 L590.33,311.35 L591.40,311.49 L592.47,311.63 L593.54,282.93 L594.61,311.93 L595.69,283.25 L596.76,312.26 L597.83,312.43 L598.90,283.76 L599.97,283.94 L601.04,284.12 L602.11,284.31 L603.18,313.34 L604.25,284.69 L605.32,313.72 L606.39,313.92 L607.46,314.11 L608.54,314.31 L609.61,285.66 L610.68,285.86 L611.75,314.90 L612.82,286.24 L613.89,315.28 L614.96,315.47 L616.03,315.65 L617.10,286.99 L618.17,316.02 L619.24,316.19 L620.31,316.36 L621.39,316.53 L622.46,316.69 L623.53,316.84 L624.60,288.14 L625.67,288.29 L626.74,317.27 L627.81,288.55 L628.88,288.67 L629.95,288.78 L631.02,317.73 L632.09,288.98 L633.17,289.07 L634.24,318.00 L635.31,289.22 L636.38,289.28 L637.45,318.18 L638.52,318.22 L639.59,318.26 L640.66,289.43 L641.73,318.29 L642.80,289.45 L643.87,289.45 L644.94,318.28 L646.02,289.41 L647.09,289.38 L648.16,318.18 L649.23,318.13 L650.30,318.07 L651.37,318.00 L652.44,289.07 L653.51,317.83 L654.58,288.89 L655.65,288.78 L656.72,288.67 L657.80,317.39 L658.87,317.27 L659.94,288.29 L661.01,288.14 L662.08,288.00 L663.15,316.69 L664.22,316.53 L665.29,316.36 L666.36,316.19 L667.43,287.17 L668.50,286.99 L669.57,286.81 L670.65,286.62 L671.72,286.43 L672.79,315.09 L673.86,314.90 L674.93,314.70 L676.00,285.66" fill="none" stroke="#e0e0e0" stroke-width="1.4"/>
<text x="539" y="238" fill="#666" font-family="monospace" font-size="9">08</text>
<rect x="76" y="376" width="152" height="152" fill="#0b0b0b" stroke="#444"/>
<line x1="84" y1="452.00" x2="220" y2="452.00" stroke="#292929"/>
<path d="M84.00,453.30 L85.07,453.02 L86.14,452.74 L87.21,452.46 L88.28,452.18 L89.35,451.91 L90.43,451.64 L91.50,451.37 L92.57,448.01 L93.64,450.85 L94.71,449.05 L95.78,448.81 L96.85,450.11 L97.92,449.88 L98.99,449.66 L100.06,449.45 L101.13,449.24 L102.20,449.05 L103.28,448.86 L104.35,448.69 L105.42,448.53 L106.49,448.38 L107.56,448.24 L108.63,446.57 L109.70,444.91 L110.77,446.35 L111.84,444.72 L112.91,444.64 L113.98,447.67 L115.06,447.62 L116.13,447.59 L117.20,447.57 L118.27,447.56 L119.34,447.57 L120.41,447.59 L121.48,447.62 L122.55,447.67 L123.62,447.73 L124.69,447.81 L125.76,444.80 L126.83,448.00 L127.91,443.47 L128.98,446.69 L130.05,446.83 L131.12,446.98 L132.19,448.69 L133.26,448.86 L134.33,449.05 L135.40,449.24 L136.47,449.45 L137.54,449.66 L138.61,449.88 L139.69,450.11 L140.76,450.35 L141.83,449.05 L142.90,447.76 L143.97,448.01 L145.04,445.18 L146.11,447.00 L147.18,448.82 L148.25,449.09 L149.32,452.46 L150.39,452.74 L151.46,453.02 L152.54,453.30 L153.61,453.59 L154.68,453.87 L155.75,454.15 L156.82,454.43 L157.89,454.70 L158.96,451.88 L160.03,455.24 L161.10,453.96 L162.17,454.21 L163.24,452.92 L164.31,456.26 L165.39,454.95 L166.46,455.18 L167.53,456.95 L168.60,457.16 L169.67,457.37 L170.74,457.56 L171.81,457.74 L172.88,457.92 L173.95,458.08 L175.02,456.68 L176.09,455.28 L177.17,456.95 L178.24,455.52 L179.31,454.07 L180.38,455.71 L181.45,457.33 L182.52,455.85 L183.59,455.89 L184.66,459.02 L185.73,459.04 L186.80,459.05 L187.87,459.04 L188.94,459.02 L190.02,458.99 L191.09,458.94 L192.16,455.78 L193.23,458.80 L194.30,454.07 L195.37,457.06 L196.44,453.86 L197.51,456.82 L198.58,453.59 L199.65,456.53 L200.72,456.37 L201.80,456.20 L202.87,457.56 L203.94,457.37 L205.01,457.16 L206.08,456.95 L207.15,456.73 L208.22,454.95 L209.29,453.16 L210.36,452.92 L211.43,449.58 L212.50,449.32 L213.57,449.05 L214.65,448.79 L215.72,448.51 L216.79,449.79 L217.86,451.05 L218.93,450.77 L220.00,453.59" fill="none" stroke="#e0e0e0" stroke-width="1.4"/>
<text x="83" y="390" fill="#666" font-family="monospace" font-size="9">09</text>
<rect x="228" y="376" width="152" height="152" fill="#0b0b0b" stroke="#444"/>
<line x1="236" y1="452.00" x2="372" y2="452.00" stroke="#292929"/>
<path d="M236.00,455.61 L237.07,457.99 L238.14,457.56 L239.21,457.13 L240.28,447.11 L241.35,456.27 L242.43,453.03 L243.50,452.62 L244.57,455.04 L245.64,454.64 L246.71,454.25 L247.78,453.87 L248.85,443.91 L249.92,453.15 L250.99,449.99 L252.06,449.66 L253.13,452.16 L254.20,451.86 L255.28,451.58 L256.35,448.49 L257.42,445.42 L258.49,448.01 L259.56,441.02 L260.63,440.83 L261.70,450.24 L262.77,450.09 L263.84,449.95 L264.91,447.01 L265.98,444.10 L267.06,446.84 L268.13,440.02 L269.20,439.99 L270.27,449.57 L271.34,449.58 L272.41,449.61 L273.48,440.07 L274.55,449.74 L275.62,437.42 L276.69,447.13 L277.76,447.27 L278.83,447.42 L279.91,450.42 L280.98,450.62 L282.05,441.24 L283.12,451.06 L284.19,438.90 L285.26,448.76 L286.33,449.04 L287.40,439.75 L288.47,452.48 L289.54,449.99 L290.61,447.51 L291.69,447.86 L292.76,438.64 L293.83,441.84 L294.90,445.05 L295.97,445.45 L297.04,455.44 L298.11,453.03 L299.18,450.63 L300.25,451.06 L301.32,441.89 L302.39,445.15 L303.46,448.40 L304.54,455.61 L305.61,456.04 L306.68,449.70 L307.75,459.73 L308.82,457.33 L309.89,457.76 L310.96,451.41 L312.03,461.41 L313.10,458.99 L314.17,459.39 L315.24,453.01 L316.31,462.98 L317.39,460.53 L318.46,460.88 L319.53,454.45 L320.60,464.37 L321.67,455.10 L322.74,452.58 L323.81,459.63 L324.88,462.72 L325.95,456.20 L327.02,453.61 L328.09,460.60 L329.17,463.61 L330.24,457.02 L331.31,454.35 L332.38,461.26 L333.45,464.20 L334.52,457.52 L335.59,454.78 L336.66,461.60 L337.73,464.45 L338.80,467.28 L339.87,454.86 L340.94,464.42 L342.02,454.78 L343.09,464.29 L344.16,454.61 L345.23,464.08 L346.30,454.35 L347.37,463.79 L348.44,454.02 L349.51,463.42 L350.58,453.61 L351.65,462.97 L352.72,453.13 L353.80,462.45 L354.87,452.58 L355.94,449.46 L357.01,449.14 L358.08,448.81 L359.15,448.47 L360.22,448.11 L361.29,447.75 L362.36,447.37 L363.43,446.98 L364.50,446.58 L365.57,446.18 L366.65,445.76 L367.72,445.35 L368.79,444.92 L369.86,444.49 L370.93,444.06 L372.00,443.63" fill="none" stroke="#e0e0e0" stroke-width="1.4"/>
<text x="235" y="390" fill="#666" font-family="monospace" font-size="9">10</text>
<rect x="380" y="376" width="152" height="152" fill="#0b0b0b" stroke="#444"/>
<line x1="388" y1="452.00" x2="524" y2="452.00" stroke="#292929"/>
<path d="M388.00,452.00 L389.07,451.18 L390.14,450.35 L391.21,449.53 L392.28,448.72 L393.35,447.92 L394.43,447.12 L395.50,446.34 L396.57,445.57 L397.64,444.81 L398.71,444.08 L399.78,443.36 L400.85,442.66 L401.92,441.99 L402.99,441.33 L404.06,440.71 L405.13,440.11 L406.20,439.54 L407.28,439.00 L408.35,438.50 L409.42,438.02 L410.49,437.58 L411.56,437.17 L412.63,436.80 L413.70,436.47 L414.77,436.17 L415.84,435.91 L416.91,435.69 L417.98,435.51 L419.06,435.37 L420.13,435.27 L421.20,435.21 L422.27,435.19 L423.34,435.21 L424.41,435.27 L425.48,435.37 L426.55,435.51 L427.62,435.69 L428.69,435.91 L429.76,436.17 L430.83,436.47 L431.91,436.80 L432.98,437.17 L434.05,437.58 L435.12,438.02 L436.19,438.50 L437.26,439.00 L438.33,439.54 L439.40,440.11 L440.47,440.71 L441.54,441.33 L442.61,441.99 L443.69,442.66 L444.76,443.36 L445.83,444.08 L446.90,444.81 L447.97,445.57 L449.04,446.34 L450.11,447.12 L451.18,447.92 L452.25,448.72 L453.32,449.53 L454.39,450.35 L455.46,451.18 L456.54,452.00 L457.61,452.82 L458.68,453.65 L459.75,454.47 L460.82,455.28 L461.89,456.08 L462.96,456.88 L464.03,457.66 L465.10,458.43 L466.17,459.19 L467.24,459.92 L468.31,460.64 L469.39,461.34 L470.46,462.01 L471.53,462.67 L472.60,463.29 L473.67,463.89 L474.74,464.46 L475.81,465.00 L476.88,465.50 L477.95,465.98 L479.02,466.42 L480.09,466.83 L481.17,467.20 L482.24,467.53 L483.31,467.83 L484.38,468.09 L485.45,468.31 L486.52,468.49 L487.59,468.63 L488.66,468.73 L489.73,468.79 L490.80,468.81 L491.87,468.79 L492.94,468.73 L494.02,468.63 L495.09,468.49 L496.16,468.31 L497.23,468.09 L498.30,467.83 L499.37,467.53 L500.44,467.20 L501.51,466.83 L502.58,466.42 L503.65,465.98 L504.72,465.50 L505.80,465.00 L506.87,464.46 L507.94,463.89 L509.01,463.29 L510.08,462.67 L511.15,462.01 L512.22,461.34 L513.29,460.64 L514.36,459.92 L515.43,459.19 L516.50,458.43 L517.57,457.66 L518.65,456.88 L519.72,456.08 L520.79,455.28 L521.86,454.47 L522.93,453.65 L524.00,452.82" fill="none" stroke="#e0e0e0" stroke-width="1.4"/>
<text x="387" y="390" fill="#666" font-family="monospace" font-size="9">11</text>
<rect x="532" y="376" width="152" height="152" fill="#0b0b0b" stroke="#444"/>
<line x1="540" y1="452.00" x2="676" y2="452.00" stroke="#292929"/>
<path d="M540.00,452.00 L541.07,450.99 L542.14,449.97 L543.21,448.97 L544.28,447.97 L545.35,446.98 L546.43,446.00 L547.50,445.04 L548.57,444.09 L549.64,443.16 L550.71,442.26 L551.78,441.37 L552.85,440.52 L553.92,439.69 L554.99,438.89 L556.06,438.12 L557.13,437.38 L558.20,436.68 L559.28,436.02 L560.35,435.40 L561.42,434.81 L562.49,434.27 L563.56,433.77 L564.63,433.31 L565.70,432.90 L566.77,432.54 L567.84,432.22 L568.91,431.95 L569.98,431.73 L571.06,431.55 L572.13,431.43 L573.20,431.35 L574.27,431.33 L575.34,431.35 L576.41,431.43 L577.48,431.55 L578.55,431.73 L579.62,431.95 L580.69,432.22 L581.76,432.54 L582.83,432.90 L583.91,433.31 L584.98,433.77 L586.05,434.27 L587.12,434.81 L588.19,435.40 L589.26,436.02 L590.33,436.68 L591.40,437.38 L592.47,438.12 L593.54,438.89 L594.61,439.69 L595.69,440.52 L596.76,441.37 L597.83,442.26 L598.90,443.16 L599.97,444.09 L601.04,445.04 L602.11,446.00 L603.18,446.98 L604.25,447.97 L605.32,448.97 L606.39,449.97 L607.46,450.99 L608.54,452.00 L609.61,453.01 L610.68,454.03 L611.75,455.03 L612.82,456.03 L613.89,457.02 L614.96,458.00 L616.03,458.96 L617.10,459.91 L618.17,460.84 L619.24,461.74 L620.31,462.63 L621.39,463.48 L622.46,464.31 L623.53,465.11 L624.60,465.88 L625.67,466.62 L626.74,467.32 L627.81,467.98 L628.88,468.60 L629.95,469.19 L631.02,469.73 L632.09,470.23 L633.17,470.69 L634.24,471.10 L635.31,471.46 L636.38,471.78 L637.45,472.05 L638.52,472.27 L639.59,472.45 L640.66,472.57 L641.73,472.65 L642.80,472.67 L643.87,472.65 L644.94,472.57 L646.02,472.45 L647.09,472.27 L648.16,472.05 L649.23,471.78 L650.30,471.46 L651.37,471.10 L652.44,470.69 L653.51,470.23 L654.58,469.73 L655.65,469.19 L656.72,468.60 L657.80,467.98 L658.87,467.32 L659.94,466.62 L661.01,465.88 L662.08,465.11 L663.15,464.31 L664.22,463.48 L665.29,462.63 L666.36,461.74 L667.43,460.84 L668.50,459.91 L669.57,458.96 L670.65,458.00 L671.72,457.02 L672.79,456.03 L673.86,455.03 L674.93,454.03 L676.00,453.01" fill="none" stroke="#e0e0e0" stroke-width="1.4"/>
<text x="539" y="390" fill="#666" font-family="monospace" font-size="9">12</text>
<rect x="76" y="528" width="152" height="152" fill="#0b0b0b" stroke="#444"/>
<line x1="84" y1="604.00" x2="220" y2="604.00" stroke="#292929"/>
<path d="M84.00,605.67 L85.07,605.40 L86.14,605.13 L87.21,604.86 L88.28,604.60 L89.35,604.33 L90.43,602.58 L91.50,602.33 L92.57,600.59 L93.64,603.31 L94.71,601.58 L95.78,601.35 L96.85,602.60 L97.92,602.38 L98.99,602.17 L100.06,601.96 L101.13,601.77 L102.20,601.58 L103.28,601.40 L104.35,601.24 L105.42,601.08 L106.49,600.94 L107.56,596.34 L108.63,594.73 L109.70,594.62 L110.77,598.99 L111.84,595.93 L112.91,595.85 L113.98,600.26 L115.06,600.21 L116.13,600.18 L117.20,600.16 L118.27,600.15 L119.34,600.16 L120.41,600.18 L121.48,600.21 L122.55,600.26 L123.62,598.83 L124.69,597.41 L125.76,594.52 L126.83,596.11 L127.91,596.22 L128.98,597.83 L130.05,597.96 L131.12,599.59 L132.19,601.24 L133.26,601.40 L134.33,601.58 L135.40,601.77 L136.47,601.96 L137.54,602.17 L138.61,602.38 L139.69,602.60 L140.76,598.37 L141.83,601.58 L142.90,598.85 L143.97,602.07 L145.04,603.81 L146.11,602.58 L147.18,601.36 L148.25,600.13 L149.32,604.86 L150.39,605.13 L151.46,605.40 L152.54,605.67 L153.61,605.94 L154.68,606.21 L155.75,606.48 L156.82,605.26 L157.89,605.53 L158.96,602.82 L160.03,606.05 L161.10,604.81 L162.17,608.03 L163.24,603.82 L164.31,607.03 L165.39,607.25 L166.46,607.48 L167.53,609.18 L168.60,609.38 L169.67,609.58 L170.74,609.77 L171.81,609.94 L172.88,610.11 L173.95,605.80 L175.02,604.46 L176.09,609.06 L177.17,606.20 L178.24,604.83 L179.31,607.90 L180.38,609.47 L181.45,608.06 L182.52,606.63 L183.59,606.68 L184.66,611.17 L185.73,611.19 L186.80,611.20 L187.87,611.19 L188.94,611.17 L190.02,609.65 L191.09,608.12 L192.16,606.57 L193.23,606.50 L194.30,607.90 L195.37,606.31 L196.44,609.18 L197.51,604.60 L198.58,605.95 L199.65,608.78 L200.72,607.14 L201.80,608.46 L202.87,609.77 L203.94,609.58 L205.01,609.38 L206.08,609.18 L207.15,604.50 L208.22,607.25 L209.29,608.51 L210.36,608.28 L211.43,608.03 L212.50,606.30 L213.57,603.07 L214.65,602.82 L215.72,604.04 L216.79,600.80 L217.86,603.51 L218.93,601.75 L220.00,605.94" fill="none" stroke="#e0e0e0" stroke-width="1.4"/>
<text x="83" y="542" fill="#666" font-family="monospace" font-size="9">13</text>
<rect x="228" y="528" width="152" height="152" fill="#0b0b0b" stroke="#444"/>
<line x1="236" y1="604.00" x2="372" y2="604.00" stroke="#292929"/>
<path d="M236.00,609.67 L237.07,609.30 L238.14,606.53 L239.21,606.16 L240.28,600.04 L241.35,607.84 L242.43,607.48 L243.50,607.13 L244.57,598.63 L245.64,606.45 L246.71,606.12 L247.78,605.80 L248.85,597.33 L249.92,605.18 L250.99,602.49 L252.06,602.21 L253.13,604.34 L254.20,604.09 L255.28,593.29 L256.35,590.66 L257.42,590.45 L258.49,600.81 L259.56,603.02 L260.63,600.46 L261.70,589.76 L262.77,600.18 L263.84,602.46 L264.91,599.96 L265.98,589.33 L267.06,599.82 L268.13,591.62 L269.20,591.59 L270.27,602.14 L271.34,599.75 L272.41,597.37 L273.48,589.26 L274.55,591.73 L275.62,594.21 L276.69,602.46 L277.76,594.42 L278.83,594.55 L279.91,594.70 L280.98,603.02 L282.05,595.05 L283.12,595.25 L284.19,593.06 L285.26,599.05 L286.33,599.29 L287.40,593.79 L288.47,594.05 L289.54,602.49 L290.61,594.63 L291.69,603.08 L292.76,595.24 L293.83,601.32 L294.90,595.89 L295.97,598.63 L297.04,596.58 L298.11,602.68 L299.18,597.28 L300.25,600.04 L301.32,608.56 L302.39,606.53 L303.46,604.50 L304.54,607.27 L305.61,610.04 L306.68,599.85 L307.75,608.37 L308.82,600.58 L309.89,609.10 L310.96,611.85 L312.03,612.20 L313.10,604.39 L314.17,612.89 L315.24,613.22 L316.31,613.54 L317.39,603.30 L318.46,611.75 L319.53,603.89 L320.60,612.33 L321.67,614.99 L322.74,612.85 L323.81,613.09 L324.88,605.16 L325.95,613.53 L327.02,607.97 L328.09,616.31 L329.17,614.08 L330.24,603.67 L331.31,614.36 L332.38,616.87 L333.45,614.57 L334.52,614.65 L335.59,606.56 L336.66,614.76 L337.73,609.03 L338.80,617.20 L339.87,606.63 L340.94,604.21 L342.02,614.72 L343.09,606.50 L344.16,604.02 L345.23,614.48 L346.30,608.60 L347.37,608.47 L348.44,608.32 L349.51,616.31 L350.58,605.57 L351.65,602.98 L352.72,613.32 L353.80,604.93 L354.87,602.29 L355.94,602.04 L357.01,609.93 L358.08,603.89 L359.15,603.60 L360.22,609.05 L361.29,602.98 L362.36,602.66 L363.43,602.33 L364.50,604.39 L365.57,601.65 L366.65,607.06 L367.72,606.70 L368.79,600.58 L369.86,600.22 L370.93,605.61 L372.00,599.48" fill="none" stroke="#e0e0e0" stroke-width="1.4"/>
<text x="235" y="542" fill="#666" font-family="monospace" font-size="9">14</text>
<rect x="380" y="528" width="152" height="152" fill="#0b0b0b" stroke="#444"/>
<line x1="388" y1="604.00" x2="524" y2="604.00" stroke="#292929"/>
<path d="M388.00,613.96 L389.07,613.64 L390.14,613.32 L391.21,611.28 L392.28,609.24 L393.35,587.55 L394.43,587.24 L395.50,608.32 L396.57,586.64 L397.64,609.45 L398.71,584.34 L399.78,585.78 L400.85,608.62 L401.92,606.64 L402.99,608.11 L404.06,609.58 L405.13,609.35 L406.20,609.13 L407.28,608.92 L408.35,583.90 L409.42,606.82 L410.49,608.37 L411.56,608.22 L412.63,608.07 L413.70,606.22 L414.77,583.00 L415.84,582.90 L416.91,604.20 L417.98,581.02 L419.06,604.08 L420.13,582.65 L421.20,607.45 L422.27,607.45 L423.34,607.45 L424.41,605.76 L425.48,605.80 L426.55,584.47 L427.62,607.64 L428.69,607.73 L429.76,607.83 L430.83,584.84 L431.91,608.07 L432.98,608.22 L434.05,608.37 L435.12,585.44 L436.19,608.73 L437.26,607.20 L438.33,607.41 L439.40,609.35 L440.47,609.58 L441.54,585.00 L442.61,583.53 L443.69,583.79 L444.76,608.89 L445.83,610.89 L446.90,609.45 L447.97,584.92 L449.04,610.04 L450.11,612.07 L451.18,610.65 L452.25,586.14 L453.32,611.28 L454.39,588.49 L455.46,588.81 L456.54,613.96 L457.61,612.55 L458.68,611.15 L459.75,588.36 L460.82,590.40 L461.89,592.43 L462.96,615.84 L464.03,593.04 L465.10,593.34 L466.17,593.63 L467.24,617.02 L468.31,594.20 L469.39,594.47 L470.46,593.01 L471.53,614.64 L472.60,614.89 L473.67,593.73 L474.74,593.95 L475.81,617.27 L476.88,594.36 L477.95,617.65 L479.02,594.71 L480.09,616.25 L481.17,595.01 L482.24,596.86 L483.31,595.26 L484.38,616.74 L485.45,595.44 L486.52,597.23 L487.59,620.39 L488.66,618.71 L489.73,617.01 L490.80,618.74 L491.87,620.46 L492.94,595.61 L494.02,618.67 L495.09,595.51 L496.16,618.55 L497.23,620.18 L498.30,620.08 L499.37,596.86 L500.44,619.84 L501.51,619.70 L502.58,619.54 L503.65,594.54 L504.72,617.46 L505.80,594.16 L506.87,617.06 L507.94,618.56 L509.01,616.61 L510.08,616.36 L511.15,593.01 L512.22,615.85 L513.29,594.20 L514.36,617.02 L515.43,615.02 L516.50,589.90 L517.57,614.43 L518.65,615.84 L519.72,613.82 L520.79,613.50 L521.86,590.08 L522.93,612.87 L524.00,591.17" fill="none" stroke="#e0e0e0" stroke-width="1.4"/>
<text x="387" y="542" fill="#666" font-family="monospace" font-size="9">15</text>
<rect x="532" y="528" width="152" height="152" fill="#0b0b0b" stroke="#444"/>
<line x1="540" y1="604.00" x2="676" y2="604.00" stroke="#292929"/>
<path d="M540.00,614.11 L541.07,584.49 L542.14,584.29 L543.21,613.52 L544.28,583.90 L545.35,583.71 L546.43,612.93 L547.50,583.32 L548.57,583.14 L549.64,582.95 L550.71,612.19 L551.78,582.60 L552.85,582.43 L553.92,611.69 L554.99,582.11 L556.06,581.96 L557.13,581.82 L558.20,611.10 L559.28,581.55 L560.35,581.43 L561.42,610.73 L562.49,581.20 L563.56,581.11 L564.63,581.02 L565.70,580.93 L566.77,580.86 L567.84,610.22 L568.91,610.17 L569.98,580.70 L571.06,580.67 L572.13,610.06 L573.20,580.63 L574.27,610.04 L575.34,610.05 L576.41,610.06 L577.48,610.09 L578.55,610.12 L579.62,610.17 L580.69,610.22 L581.76,610.28 L582.83,580.93 L583.91,610.43 L584.98,610.52 L586.05,610.62 L587.12,610.73 L588.19,610.84 L589.26,610.97 L590.33,611.10 L591.40,611.24 L592.47,611.38 L593.54,611.53 L594.61,611.69 L595.69,611.85 L596.76,612.02 L597.83,582.78 L598.90,582.95 L599.97,583.14 L601.04,612.74 L602.11,583.51 L603.18,583.71 L604.25,613.32 L605.32,613.52 L606.39,613.71 L607.46,613.91 L608.54,614.11 L609.61,614.31 L610.68,614.51 L611.75,614.71 L612.82,614.91 L613.89,615.10 L614.96,615.29 L616.03,586.06 L617.10,586.25 L618.17,586.43 L619.24,616.03 L620.31,616.20 L621.39,616.37 L622.46,616.54 L623.53,616.69 L624.60,616.85 L625.67,616.99 L626.74,617.13 L627.81,617.26 L628.88,617.38 L629.95,617.50 L631.02,588.18 L632.09,617.70 L633.17,588.37 L634.24,617.87 L635.31,617.94 L636.38,618.01 L637.45,618.06 L638.52,588.68 L639.59,618.14 L640.66,618.16 L641.73,618.18 L642.80,618.18 L643.87,618.18 L644.94,618.16 L646.02,618.14 L647.09,618.10 L648.16,618.06 L649.23,588.59 L650.30,617.94 L651.37,588.45 L652.44,617.79 L653.51,588.28 L654.58,617.60 L655.65,617.50 L656.72,617.38 L657.80,617.26 L658.87,617.13 L659.94,616.99 L661.01,616.85 L662.08,616.69 L663.15,616.54 L664.22,586.95 L665.29,586.79 L666.36,616.03 L667.43,586.43 L668.50,586.25 L669.57,615.48 L670.65,615.29 L671.72,585.68 L672.79,585.49 L673.86,585.29 L674.93,614.51 L676.00,614.31" fill="none" stroke="#e0e0e0" stroke-width="1.4"/>
<text x="539" y="542" fill="#666" font-family="monospace" font-size="9">16</text>
</svg>
