<svg xmlns="http://www.w3.org/2000/svg" width="760" height="760" viewBox="0 0 760 760">
<rect width="760" height="760" fill="#161616"/>
<text x="24" y="32" fill="#dedede" font-family="monospace" font-size="15">S3G VOT / FOUNDATION</text>
<text x="684" y="724" text-anchor="end" fill="#858585" font-family="monospace" font-size="11">U / HARMONIC DENSITY</text>
<text x="24" y="72" fill="#858585" font-family="monospace" font-size="11">V / ODD/EVEN BALANCE</text>
<text x="76" y="724" fill="#858585" font-family="monospace" font-size="11">ENERGY / LEVEL MATCHED</text>
<rect x="76" y="72" width="152" height="152" fill="#0b0b0b" stroke="#444"/>
<line x1="84" y1="148.00" x2="220" y2="148.00" stroke="#292929"/>
<path d="M84.00,148.00 L85.07,146.99 L86.14,145.97 L87.21,144.97 L88.28,143.97 L89.35,142.98 L90.43,142.00 L91.50,141.04 L92.57,140.09 L93.64,139.16 L94.71,138.26 L95.78,137.37 L96.85,136.52 L97.92,135.69 L98.99,134.89 L100.06,134.12 L101.13,133.38 L102.20,132.68 L103.28,132.02 L104.35,131.40 L105.42,130.81 L106.49,130.27 L107.56,129.77 L108.63,129.31 L109.70,128.90 L110.77,128.54 L111.84,128.22 L112.91,127.95 L113.98,127.73 L115.06,127.55 L116.13,127.43 L117.20,127.35 L118.27,127.33 L119.34,127.35 L120.41,127.43 L121.48,127.55 L122.55,127.73 L123.62,127.95 L124.69,128.22 L125.76,128.54 L126.83,128.90 L127.91,129.31 L128.98,129.77 L130.05,130.27 L131.12,130.81 L132.19,131.40 L133.26,132.02 L134.33,132.68 L135.40,133.38 L136.47,134.12 L137.54,134.89 L138.61,135.69 L139.69,136.52 L140.76,137.37 L141.83,138.26 L142.90,139.16 L143.97,140.09 L145.04,141.04 L146.11,142.00 L147.18,142.98 L148.25,143.97 L149.32,144.97 L150.39,145.97 L151.46,146.99 L152.54,148.00 L153.61,149.01 L154.68,150.03 L155.75,151.03 L156.82,152.03 L157.89,153.02 L158.96,154.00 L160.03,154.96 L161.10,155.91 L162.17,156.84 L163.24,157.74 L164.31,158.63 L165.39,159.48 L166.46,160.31 L167.53,161.11 L168.60,161.88 L169.67,162.62 L170.74,163.32 L171.81,163.98 L172.88,164.60 L173.95,165.19 L175.02,165.73 L176.09,166.23 L177.17,166.69 L178.24,167.10 L179.31,167.46 L180.38,167.78 L181.45,168.05 L182.52,168.27 L183.59,168.45 L184.66,168.57 L185.73,168.65 L186.80,168.67 L187.87,168.65 L188.94,168.57 L190.02,168.45 L191.09,168.27 L192.16,168.05 L193.23,167.78 L194.30,167.46 L195.37,167.10 L196.44,166.69 L197.51,166.23 L198.58,165.73 L199.65,165.19 L200.72,164.60 L201.80,163.98 L202.87,163.32 L203.94,162.62 L205.01,161.88 L206.08,161.11 L207.15,160.31 L208.22,159.48 L209.29,158.63 L210.36,157.74 L211.43,156.84 L212.50,155.91 L213.57,154.96 L214.65,154.00 L215.72,153.02 L216.79,152.03 L217.86,151.03 L218.93,150.03 L220.00,149.01" fill="none" stroke="#e0e0e0" stroke-width="1.4"/>
<text x="83" y="86" fill="#666" font-family="monospace" font-size="9">01</text>
<rect x="228" y="72" width="152" height="152" fill="#0b0b0b" stroke="#444"/>
<line x1="236" y1="148.00" x2="372" y2="148.00" stroke="#292929"/>
<path d="M236.00,148.00 L237.07,146.79 L238.14,145.60 L239.21,144.44 L240.28,143.33 L241.35,142.24 L242.43,141.18 L243.50,140.16 L244.57,139.16 L245.64,138.20 L246.71,137.28 L247.78,136.40 L248.85,135.55 L249.92,134.74 L250.99,133.96 L252.06,133.23 L253.13,132.54 L254.20,131.89 L255.28,131.28 L256.35,130.72 L257.42,130.20 L258.49,129.72 L259.56,129.29 L260.63,128.91 L261.70,128.57 L262.77,128.28 L263.84,128.03 L264.91,127.83 L265.98,127.68 L267.06,127.58 L268.13,127.52 L269.20,127.51 L270.27,127.55 L271.34,127.63 L272.41,127.76 L273.48,127.93 L274.55,128.15 L275.62,128.42 L276.69,128.73 L277.76,129.08 L278.83,129.47 L279.91,129.91 L280.98,130.38 L282.05,130.89 L283.12,131.45 L284.19,132.03 L285.26,132.66 L286.33,133.31 L287.40,134.00 L288.47,134.72 L289.54,135.47 L290.61,136.25 L291.69,137.05 L292.76,137.88 L293.83,138.72 L294.90,139.59 L295.97,140.48 L297.04,141.39 L298.11,142.30 L299.18,143.23 L300.25,144.17 L301.32,145.12 L302.39,146.08 L303.46,147.04 L304.54,148.00 L305.61,148.96 L306.68,149.92 L307.75,150.88 L308.82,151.83 L309.89,152.77 L310.96,153.70 L312.03,154.61 L313.10,155.52 L314.17,156.41 L315.24,157.28 L316.31,158.12 L317.39,158.95 L318.46,159.75 L319.53,160.53 L320.60,161.28 L321.67,162.00 L322.74,162.69 L323.81,163.34 L324.88,163.97 L325.95,164.55 L327.02,165.11 L328.09,165.62 L329.17,166.09 L330.24,166.53 L331.31,166.92 L332.38,167.27 L333.45,167.58 L334.52,167.85 L335.59,168.07 L336.66,168.24 L337.73,168.37 L338.80,168.45 L339.87,168.49 L340.94,168.48 L342.02,168.42 L343.09,168.32 L344.16,168.17 L345.23,167.97 L346.30,167.72 L347.37,167.43 L348.44,167.09 L349.51,166.71 L350.58,166.28 L351.65,165.80 L352.72,165.28 L353.80,164.72 L354.87,164.11 L355.94,163.46 L357.01,162.77 L358.08,162.04 L359.15,161.26 L360.22,160.45 L361.29,159.60 L362.36,158.72 L363.43,157.80 L364.50,156.84 L365.57,155.84 L366.65,154.82 L367.72,153.76 L368.79,152.67 L369.86,151.56 L370.93,150.40 L372.00,149.21" fill="none" stroke="#e0e0e0" stroke-width="1.4"/>
<text x="235" y="86" fill="#666" font-family="monospace" font-size="9">02</text>
<rect x="380" y="72" width="152" height="152" fill="#0b0b0b" stroke="#444"/>
<line x1="388" y1="148.00" x2="524" y2="148.00" stroke="#292929"/>
<path d="M388.00,148.00 L389.07,143.08 L390.14,140.80 L391.21,138.88 L392.28,137.32 L393.35,136.10 L394.43,134.89 L395.50,134.01 L396.57,133.08 L397.64,132.37 L398.71,131.69 L399.78,131.09 L400.85,130.61 L401.92,130.11 L402.99,129.75 L404.06,129.38 L405.13,129.11 L406.20,128.86 L407.28,128.64 L408.35,128.51 L409.42,128.36 L410.49,128.31 L411.56,128.25 L412.63,128.26 L413.70,128.29 L414.77,128.34 L415.84,128.45 L416.91,128.56 L417.98,128.74 L419.06,128.91 L420.13,129.13 L421.20,129.37 L422.27,129.63 L423.34,129.95 L424.41,130.25 L425.48,130.61 L426.55,130.97 L427.62,131.37 L428.69,131.79 L429.76,132.22 L430.83,132.69 L431.91,133.15 L432.98,133.67 L434.05,134.18 L435.12,134.72 L436.19,135.27 L437.26,135.83 L438.33,136.44 L439.40,137.02 L440.47,137.65 L441.54,138.27 L442.61,138.91 L443.69,139.57 L444.76,140.23 L445.83,140.91 L446.90,141.58 L447.97,142.29 L449.04,142.98 L450.11,143.68 L451.18,144.40 L452.25,145.10 L453.32,145.84 L454.39,146.55 L455.46,147.28 L456.54,148.00 L457.61,148.72 L458.68,149.45 L459.75,150.16 L460.82,150.90 L461.89,151.60 L462.96,152.32 L464.03,153.02 L465.10,153.71 L466.17,154.42 L467.24,155.09 L468.31,155.77 L469.39,156.43 L470.46,157.09 L471.53,157.73 L472.60,158.35 L473.67,158.98 L474.74,159.56 L475.81,160.17 L476.88,160.73 L477.95,161.28 L479.02,161.82 L480.09,162.33 L481.17,162.85 L482.24,163.31 L483.31,163.78 L484.38,164.21 L485.45,164.63 L486.52,165.03 L487.59,165.39 L488.66,165.75 L489.73,166.05 L490.80,166.37 L491.87,166.63 L492.94,166.87 L494.02,167.09 L495.09,167.26 L496.16,167.44 L497.23,167.55 L498.30,167.66 L499.37,167.71 L500.44,167.74 L501.51,167.75 L502.58,167.69 L503.65,167.64 L504.72,167.49 L505.80,167.36 L506.87,167.14 L507.94,166.89 L509.01,166.62 L510.08,166.25 L511.15,165.89 L512.22,165.39 L513.29,164.91 L514.36,164.31 L515.43,163.63 L516.50,162.92 L517.57,161.99 L518.65,161.11 L519.72,159.90 L520.79,158.68 L521.86,157.12 L522.93,155.20 L524.00,152.92" fill="none" stroke="#e0e0e0" stroke-width="1.4"/>
<text x="387" y="86" fill="#666" font-family="monospace" font-size="9">03</text>
<rect x="532" y="72" width="152" height="152" fill="#0b0b0b" stroke="#444"/>
<line x1="540" y1="148.00" x2="676" y2="148.00" stroke="#292929"/>
<path d="M540.00,148.00 L541.07,127.21 L542.14,128.96 L543.21,126.89 L544.28,126.80 L545.35,126.80 L546.43,126.14 L547.50,126.80 L548.57,126.18 L549.64,126.83 L550.71,126.59 L551.78,126.95 L552.85,127.17 L553.92,127.22 L554.99,127.76 L556.06,127.69 L557.13,128.30 L558.20,128.34 L559.28,128.81 L560.35,129.09 L561.42,129.35 L562.49,129.85 L563.56,129.99 L564.63,130.58 L565.70,130.73 L566.77,131.26 L567.84,131.56 L568.91,131.94 L569.98,132.41 L571.06,132.66 L572.13,133.24 L573.20,133.46 L574.27,134.01 L575.34,134.33 L576.41,134.77 L577.48,135.23 L578.55,135.55 L579.62,136.11 L580.69,136.38 L581.76,136.95 L582.83,137.27 L583.91,137.75 L584.98,138.19 L586.05,138.57 L587.12,139.11 L588.19,139.41 L589.26,139.99 L590.33,140.32 L591.40,140.83 L592.47,141.25 L593.54,141.67 L594.61,142.19 L595.69,142.53 L596.76,143.10 L597.83,143.43 L598.90,143.97 L599.97,144.37 L601.04,144.82 L602.11,145.33 L603.18,145.68 L604.25,146.25 L605.32,146.58 L606.39,147.14 L607.46,147.52 L608.54,148.00 L609.61,148.48 L610.68,148.86 L611.75,149.42 L612.82,149.75 L613.89,150.32 L614.96,150.67 L616.03,151.18 L617.10,151.63 L618.17,152.03 L619.24,152.57 L620.31,152.90 L621.39,153.47 L622.46,153.81 L623.53,154.33 L624.60,154.75 L625.67,155.17 L626.74,155.68 L627.81,156.01 L628.88,156.59 L629.95,156.89 L631.02,157.43 L632.09,157.81 L633.17,158.25 L634.24,158.73 L635.31,159.05 L636.38,159.62 L637.45,159.89 L638.52,160.45 L639.59,160.77 L640.66,161.23 L641.73,161.67 L642.80,161.99 L643.87,162.54 L644.94,162.76 L646.02,163.34 L647.09,163.59 L648.16,164.06 L649.23,164.44 L650.30,164.74 L651.37,165.27 L652.44,165.42 L653.51,166.01 L654.58,166.15 L655.65,166.65 L656.72,166.91 L657.80,167.19 L658.87,167.66 L659.94,167.70 L661.01,168.31 L662.08,168.24 L663.15,168.78 L664.22,168.83 L665.29,169.05 L666.36,169.41 L667.43,169.17 L668.50,169.82 L669.57,169.20 L670.65,169.86 L671.72,169.20 L672.79,169.20 L673.86,169.11 L674.93,167.04 L676.00,168.79" fill="none" stroke="#e0e0e0" stroke-width="1.4"/>
<text x="539" y="86" fill="#666" font-family="monospace" font-size="9">04</text>
<rect x="76" y="224" width="152" height="152" fill="#0b0b0b" stroke="#444"/>
<line x1="84" y1="300.00" x2="220" y2="300.00" stroke="#292929"/>
<path d="M84.00,300.00 L85.07,298.99 L86.14,297.97 L87.21,296.97 L88.28,295.97 L89.35,294.98 L90.43,294.00 L91.50,293.04 L92.57,292.09 L93.64,291.16 L94.71,290.26 L95.78,289.37 L96.85,288.52 L97.92,287.69 L98.99,286.89 L100.06,286.12 L101.13,285.38 L102.20,284.68 L103.28,284.02 L104.35,283.40 L105.42,282.81 L106.49,282.27 L107.56,281.77 L108.63,281.31 L109.70,280.90 L110.77,280.54 L111.84,280.22 L112.91,279.95 L113.98,279.73 L115.06,279.55 L116.13,279.43 L117.20,279.35 L118.27,279.33 L119.34,279.35 L120.41,279.43 L121.48,279.55 L122.55,279.73 L123.62,279.95 L124.69,280.22 L125.76,280.54 L126.83,280.90 L127.91,281.31 L128.98,281.77 L130.05,282.27 L131.12,282.81 L132.19,283.40 L133.26,284.02 L134.33,284.68 L135.40,285.38 L136.47,286.12 L137.54,286.89 L138.61,287.69 L139.69,288.52 L140.76,289.37 L141.83,290.26 L142.90,291.16 L143.97,292.09 L145.04,293.04 L146.11,294.00 L147.18,294.98 L148.25,295.97 L149.32,296.97 L150.39,297.97 L151.46,298.99 L152.54,300.00 L153.61,301.01 L154.68,302.03 L155.75,303.03 L156.82,304.03 L157.89,305.02 L158.96,306.00 L160.03,306.96 L161.10,307.91 L162.17,308.84 L163.24,309.74 L164.31,310.63 L165.39,311.48 L166.46,312.31 L167.53,313.11 L168.60,313.88 L169.67,314.62 L170.74,315.32 L171.81,315.98 L172.88,316.60 L173.95,317.19 L175.02,317.73 L176.09,318.23 L177.17,318.69 L178.24,319.10 L179.31,319.46 L180.38,319.78 L181.45,320.05 L182.52,320.27 L183.59,320.45 L184.66,320.57 L185.73,320.65 L186.80,320.67 L187.87,320.65 L188.94,320.57 L190.02,320.45 L191.09,320.27 L192.16,320.05 L193.23,319.78 L194.30,319.46 L195.37,319.10 L196.44,318.69 L197.51,318.23 L198.58,317.73 L199.65,317.19 L200.72,316.60 L201.80,315.98 L202.87,315.32 L203.94,314.62 L205.01,313.88 L206.08,313.11 L207.15,312.31 L208.22,311.48 L209.29,310.63 L210.36,309.74 L211.43,308.84 L212.50,307.91 L213.57,306.96 L214.65,306.00 L215.72,305.02 L216.79,304.03 L217.86,303.03 L218.93,302.03 L220.00,301.01" fill="none" stroke="#e0e0e0" stroke-width="1.4"/>
<text x="83" y="238" fill="#666" font-family="monospace" font-size="9">05</text>
<rect x="228" y="224" width="152" height="152" fill="#0b0b0b" stroke="#444"/>
<line x1="236" y1="300.00" x2="372" y2="300.00" stroke="#292929"/>
<path d="M236.00,300.00 L237.07,298.83 L238.14,297.68 L239.21,296.55 L240.28,295.46 L241.35,294.40 L242.43,293.36 L243.50,292.35 L244.57,291.37 L245.64,290.42 L246.71,289.51 L247.78,288.63 L248.85,287.78 L249.92,286.97 L250.99,286.20 L252.06,285.46 L253.13,284.77 L254.20,284.11 L255.28,283.50 L256.35,282.92 L257.42,282.39 L258.49,281.90 L259.56,281.46 L260.63,281.06 L261.70,280.71 L262.77,280.40 L263.84,280.13 L264.91,279.92 L265.98,279.75 L267.06,279.63 L268.13,279.55 L269.20,279.52 L270.27,279.54 L271.34,279.60 L272.41,279.71 L273.48,279.87 L274.55,280.07 L275.62,280.32 L276.69,280.61 L277.76,280.94 L278.83,281.32 L279.91,281.74 L280.98,282.20 L282.05,282.70 L283.12,283.24 L284.19,283.82 L285.26,284.43 L286.33,285.08 L287.40,285.76 L288.47,286.48 L289.54,287.23 L290.61,288.00 L291.69,288.81 L292.76,289.64 L293.83,290.49 L294.90,291.37 L295.97,292.27 L297.04,293.19 L298.11,294.12 L299.18,295.07 L300.25,296.04 L301.32,297.01 L302.39,298.00 L303.46,299.00 L304.54,300.00 L305.61,301.00 L306.68,302.00 L307.75,302.99 L308.82,303.96 L309.89,304.93 L310.96,305.88 L312.03,306.81 L313.10,307.73 L314.17,308.63 L315.24,309.51 L316.31,310.36 L317.39,311.19 L318.46,312.00 L319.53,312.77 L320.60,313.52 L321.67,314.24 L322.74,314.92 L323.81,315.57 L324.88,316.18 L325.95,316.76 L327.02,317.30 L328.09,317.80 L329.17,318.26 L330.24,318.68 L331.31,319.06 L332.38,319.39 L333.45,319.68 L334.52,319.93 L335.59,320.13 L336.66,320.29 L337.73,320.40 L338.80,320.46 L339.87,320.48 L340.94,320.45 L342.02,320.37 L343.09,320.25 L344.16,320.08 L345.23,319.87 L346.30,319.60 L347.37,319.29 L348.44,318.94 L349.51,318.54 L350.58,318.10 L351.65,317.61 L352.72,317.08 L353.80,316.50 L354.87,315.89 L355.94,315.23 L357.01,314.54 L358.08,313.80 L359.15,313.03 L360.22,312.22 L361.29,311.37 L362.36,310.49 L363.43,309.58 L364.50,308.63 L365.57,307.65 L366.65,306.64 L367.72,305.60 L368.79,304.54 L369.86,303.45 L370.93,302.32 L372.00,301.17" fill="none" stroke="#e0e0e0" stroke-width="1.4"/>
<text x="235" y="238" fill="#666" font-family="monospace" font-size="9">06</text>
<rect x="380" y="224" width="152" height="152" fill="#0b0b0b" stroke="#444"/>
<line x1="388" y1="300.00" x2="524" y2="300.00" stroke="#292929"/>
<path d="M388.00,300.00 L389.07,295.69 L390.14,293.63 L391.21,291.88 L392.28,290.43 L393.35,289.28 L394.43,288.13 L395.50,287.26 L396.57,286.36 L397.64,285.64 L398.71,284.96 L399.78,284.33 L400.85,283.81 L401.92,283.28 L402.99,282.87 L404.06,282.45 L405.13,282.12 L406.20,281.81 L407.28,281.53 L408.35,281.33 L409.42,281.11 L410.49,280.98 L411.56,280.85 L412.63,280.77 L413.70,280.72 L414.77,280.69 L415.84,280.71 L416.91,280.73 L417.98,280.82 L419.06,280.91 L420.13,281.04 L421.20,281.20 L422.27,281.37 L423.34,281.59 L424.41,281.81 L425.48,282.08 L426.55,282.36 L427.62,282.67 L428.69,283.01 L429.76,283.36 L430.83,283.76 L431.91,284.15 L432.98,284.58 L434.05,285.03 L435.12,285.49 L436.19,285.99 L437.26,286.49 L438.33,287.04 L439.40,287.58 L440.47,288.16 L441.54,288.75 L442.61,289.35 L443.69,290.00 L444.76,290.63 L445.83,291.32 L446.90,292.00 L447.97,292.71 L449.04,293.45 L450.11,294.19 L451.18,295.00 L452.25,295.80 L453.32,296.68 L454.39,297.59 L455.46,298.59 L456.54,300.00 L457.61,301.41 L458.68,302.41 L459.75,303.32 L460.82,304.20 L461.89,305.00 L462.96,305.81 L464.03,306.55 L465.10,307.29 L466.17,308.00 L467.24,308.68 L468.31,309.37 L469.39,310.00 L470.46,310.65 L471.53,311.25 L472.60,311.84 L473.67,312.42 L474.74,312.96 L475.81,313.51 L476.88,314.01 L477.95,314.51 L479.02,314.97 L480.09,315.42 L481.17,315.85 L482.24,316.24 L483.31,316.64 L484.38,316.99 L485.45,317.33 L486.52,317.64 L487.59,317.92 L488.66,318.19 L489.73,318.41 L490.80,318.63 L491.87,318.80 L492.94,318.96 L494.02,319.09 L495.09,319.18 L496.16,319.27 L497.23,319.29 L498.30,319.31 L499.37,319.28 L500.44,319.23 L501.51,319.15 L502.58,319.02 L503.65,318.89 L504.72,318.67 L505.80,318.47 L506.87,318.19 L507.94,317.88 L509.01,317.55 L510.08,317.13 L511.15,316.72 L512.22,316.19 L513.29,315.67 L514.36,315.04 L515.43,314.36 L516.50,313.64 L517.57,312.74 L518.65,311.87 L519.72,310.72 L520.79,309.57 L521.86,308.12 L522.93,306.37 L524.00,304.31" fill="none" stroke="#e0e0e0" stroke-width="1.4"/>
<text x="387" y="238" fill="#666" font-family="monospace" font-size="9">07</text>
<rect x="532" y="224" width="152" height="152" fill="#0b0b0b" stroke="#444"/>
<line x1="540" y1="300.00" x2="676" y2="300.00" stroke="#292929"/>
<path d="M540.00,300.00 L541.07,281.42 L542.14,282.91 L543.21,280.98 L544.28,280.84 L545.35,280.74 L546.43,280.09 L547.50,280.60 L548.57,279.97 L549.64,280.48 L550.71,280.18 L551.78,280.44 L552.85,280.54 L553.92,280.52 L554.99,280.92 L556.06,280.78 L557.13,281.26 L558.20,281.20 L559.28,281.56 L560.35,281.72 L561.42,281.90 L562.49,282.25 L563.56,282.31 L564.63,282.76 L565.70,282.82 L566.77,283.23 L567.84,283.40 L568.91,283.69 L569.98,284.02 L571.06,284.18 L572.13,284.62 L573.20,284.74 L574.27,285.18 L575.34,285.37 L576.41,285.72 L577.48,286.03 L578.55,286.28 L579.62,286.69 L580.69,286.87 L581.76,287.33 L582.83,287.52 L583.91,287.93 L584.98,288.22 L586.05,288.53 L587.12,288.93 L588.19,289.16 L589.26,289.62 L590.33,289.83 L591.40,290.29 L592.47,290.55 L593.54,290.94 L594.61,291.31 L595.69,291.60 L596.76,292.07 L597.83,292.31 L598.90,292.83 L599.97,293.07 L601.04,293.58 L602.11,293.91 L603.18,294.35 L604.25,294.85 L605.32,295.16 L606.39,296.01 L607.46,296.05 L608.54,300.00 L609.61,303.95 L610.68,303.99 L611.75,304.84 L612.82,305.15 L613.89,305.65 L614.96,306.09 L616.03,306.42 L617.10,306.93 L618.17,307.17 L619.24,307.69 L620.31,307.93 L621.39,308.40 L622.46,308.69 L623.53,309.06 L624.60,309.45 L625.67,309.71 L626.74,310.17 L627.81,310.38 L628.88,310.84 L629.95,311.07 L631.02,311.47 L632.09,311.78 L633.17,312.07 L634.24,312.48 L635.31,312.67 L636.38,313.13 L637.45,313.31 L638.52,313.72 L639.59,313.97 L640.66,314.28 L641.73,314.63 L642.80,314.82 L643.87,315.26 L644.94,315.38 L646.02,315.82 L647.09,315.98 L648.16,316.31 L649.23,316.60 L650.30,316.77 L651.37,317.18 L652.44,317.24 L653.51,317.69 L654.58,317.75 L655.65,318.10 L656.72,318.28 L657.80,318.44 L658.87,318.80 L659.94,318.74 L661.01,319.22 L662.08,319.08 L663.15,319.48 L664.22,319.46 L665.29,319.56 L666.36,319.82 L667.43,319.52 L668.50,320.03 L669.57,319.40 L670.65,319.91 L671.72,319.26 L672.79,319.16 L673.86,319.02 L674.93,317.09 L676.00,318.58" fill="none" stroke="#e0e0e0" stroke-width="1.4"/>
<text x="539" y="238" fill="#666" font-family="monospace" font-size="9">08</text>
<rect x="76" y="376" width="152" height="152" fill="#0b0b0b" stroke="#444"/>
<line x1="84" y1="452.00" x2="220" y2="452.00" stroke="#292929"/>
<path d="M84.00,452.00 L85.07,450.99 L86.14,449.97 L87.21,448.97 L88.28,447.97 L89.35,446.98 L90.43,446.00 L91.50,445.04 L92.57,444.09 L93.64,443.16 L94.71,442.26 L95.78,441.37 L96.85,440.52 L97.92,439.69 L98.99,438.89 L100.06,438.12 L101.13,437.38 L102.20,436.68 L103.28,436.02 L104.35,435.40 L105.42,434.81 L106.49,434.27 L107.56,433.77 L108.63,433.31 L109.70,432.90 L110.77,432.54 L111.84,432.22 L112.91,431.95 L113.98,431.73 L115.06,431.55 L116.13,431.43 L117.20,431.35 L118.27,431.33 L119.34,431.35 L120.41,431.43 L121.48,431.55 L122.55,431.73 L123.62,431.95 L124.69,432.22 L125.76,432.54 L126.83,432.90 L127.91,433.31 L128.98,433.77 L130.05,434.27 L131.12,434.81 L132.19,435.40 L133.26,436.02 L134.33,436.68 L135.40,437.38 L136.47,438.12 L137.54,438.89 L138.61,439.69 L139.69,440.52 L140.76,441.37 L141.83,442.26 L142.90,443.16 L143.97,444.09 L145.04,445.04 L146.11,446.00 L147.18,446.98 L148.25,447.97 L149.32,448.97 L150.39,449.97 L151.46,450.99 L152.54,452.00 L153.61,453.01 L154.68,454.03 L155.75,455.03 L156.82,456.03 L157.89,457.02 L158.96,458.00 L160.03,458.96 L161.10,459.91 L162.17,460.84 L163.24,461.74 L164.31,462.63 L165.39,463.48 L166.46,464.31 L167.53,465.11 L168.60,465.88 L169.67,466.62 L170.74,467.32 L171.81,467.98 L172.88,468.60 L173.95,469.19 L175.02,469.73 L176.09,470.23 L177.17,470.69 L178.24,471.10 L179.31,471.46 L180.38,471.78 L181.45,472.05 L182.52,472.27 L183.59,472.45 L184.66,472.57 L185.73,472.65 L186.80,472.67 L187.87,472.65 L188.94,472.57 L190.02,472.45 L191.09,472.27 L192.16,472.05 L193.23,471.78 L194.30,471.46 L195.37,471.10 L196.44,470.69 L197.51,470.23 L198.58,469.73 L199.65,469.19 L200.72,468.60 L201.80,467.98 L202.87,467.32 L203.94,466.62 L205.01,465.88 L206.08,465.11 L207.15,464.31 L208.22,463.48 L209.29,462.63 L210.36,461.74 L211.43,460.84 L212.50,459.91 L213.57,458.96 L214.65,458.00 L215.72,457.02 L216.79,456.03 L217.86,455.03 L218.93,454.03 L220.00,453.01" fill="none" stroke="#e0e0e0" stroke-width="1.4"/>
<text x="83" y="390" fill="#666" font-family="monospace" font-size="9">09</text>
<rect x="228" y="376" width="152" height="152" fill="#0b0b0b" stroke="#444"/>
<line x1="236" y1="452.00" x2="372" y2="452.00" stroke="#292929"/>
<path d="M236.00,452.00 L237.07,450.87 L238.14,449.75 L239.21,448.66 L240.28,447.59 L241.35,446.55 L242.43,445.54 L243.50,444.55 L244.57,443.58 L245.64,442.64 L246.71,441.74 L247.78,440.86 L248.85,440.02 L249.92,439.21 L250.99,438.44 L252.06,437.70 L253.13,437.00 L254.20,436.34 L255.28,435.71 L256.35,435.13 L257.42,434.59 L258.49,434.09 L259.56,433.63 L260.63,433.22 L261.70,432.85 L262.77,432.52 L263.84,432.24 L264.91,432.01 L265.98,431.82 L267.06,431.68 L268.13,431.58 L269.20,431.53 L270.27,431.53 L271.34,431.58 L272.41,431.67 L273.48,431.81 L274.55,431.99 L275.62,432.22 L276.69,432.49 L277.76,432.81 L278.83,433.17 L279.91,433.58 L280.98,434.02 L282.05,434.51 L283.12,435.04 L284.19,435.60 L285.26,436.21 L286.33,436.85 L287.40,437.53 L288.47,438.24 L289.54,438.98 L290.61,439.76 L291.69,440.56 L292.76,441.40 L293.83,442.26 L294.90,443.14 L295.97,444.05 L297.04,444.99 L298.11,445.94 L299.18,446.91 L300.25,447.90 L301.32,448.90 L302.39,449.92 L303.46,450.96 L304.54,452.00 L305.61,453.04 L306.68,454.08 L307.75,455.10 L308.82,456.10 L309.89,457.09 L310.96,458.06 L312.03,459.01 L313.10,459.95 L314.17,460.86 L315.24,461.74 L316.31,462.60 L317.39,463.44 L318.46,464.24 L319.53,465.02 L320.60,465.76 L321.67,466.47 L322.74,467.15 L323.81,467.79 L324.88,468.40 L325.95,468.96 L327.02,469.49 L328.09,469.98 L329.17,470.42 L330.24,470.83 L331.31,471.19 L332.38,471.51 L333.45,471.78 L334.52,472.01 L335.59,472.19 L336.66,472.33 L337.73,472.42 L338.80,472.47 L339.87,472.47 L340.94,472.42 L342.02,472.32 L343.09,472.18 L344.16,471.99 L345.23,471.76 L346.30,471.48 L347.37,471.15 L348.44,470.78 L349.51,470.37 L350.58,469.91 L351.65,469.41 L352.72,468.87 L353.80,468.29 L354.87,467.66 L355.94,467.00 L357.01,466.30 L358.08,465.56 L359.15,464.79 L360.22,463.98 L361.29,463.14 L362.36,462.26 L363.43,461.36 L364.50,460.42 L365.57,459.45 L366.65,458.46 L367.72,457.45 L368.79,456.41 L369.86,455.34 L370.93,454.25 L372.00,453.13" fill="none" stroke="#e0e0e0" stroke-width="1.4"/>
<text x="235" y="390" fill="#666" font-family="monospace" font-size="9">10</text>
<rect x="380" y="376" width="152" height="152" fill="#0b0b0b" stroke="#444"/>
<line x1="388" y1="452.00" x2="524" y2="452.00" stroke="#292929"/>
<path d="M388.00,452.00 L389.07,448.34 L390.14,446.51 L391.21,444.94 L392.28,443.62 L393.35,442.54 L394.43,441.46 L395.50,440.62 L396.57,439.75 L397.64,439.02 L398.71,438.33 L399.78,437.69 L400.85,437.13 L401.92,436.57 L402.99,436.11 L404.06,435.65 L405.13,435.25 L406.20,434.89 L407.28,434.54 L408.35,434.27 L409.42,433.98 L410.49,433.77 L411.56,433.56 L412.63,433.40 L413.70,433.26 L414.77,433.15 L415.84,433.08 L416.91,433.02 L417.98,433.01 L419.06,433.01 L420.13,433.05 L421.20,433.12 L422.27,433.20 L423.34,433.33 L424.41,433.46 L425.48,433.64 L426.55,433.84 L427.62,434.05 L428.69,434.31 L429.76,434.57 L430.83,434.89 L431.91,435.20 L432.98,435.56 L434.05,435.93 L435.12,436.32 L436.19,436.76 L437.26,437.19 L438.33,437.68 L439.40,438.17 L440.47,438.70 L441.54,439.25 L442.61,439.81 L443.69,440.44 L444.76,441.05 L445.83,441.73 L446.90,442.42 L447.97,443.14 L449.04,443.92 L450.11,444.70 L451.18,445.60 L452.25,446.49 L453.32,447.51 L454.39,448.63 L455.46,449.89 L456.54,452.00 L457.61,454.11 L458.68,455.37 L459.75,456.49 L460.82,457.51 L461.89,458.40 L462.96,459.30 L464.03,460.08 L465.10,460.86 L466.17,461.58 L467.24,462.27 L468.31,462.95 L469.39,463.56 L470.46,464.19 L471.53,464.75 L472.60,465.30 L473.67,465.83 L474.74,466.32 L475.81,466.81 L476.88,467.24 L477.95,467.68 L479.02,468.07 L480.09,468.44 L481.17,468.80 L482.24,469.11 L483.31,469.43 L484.38,469.69 L485.45,469.95 L486.52,470.16 L487.59,470.36 L488.66,470.54 L489.73,470.67 L490.80,470.80 L491.87,470.88 L492.94,470.95 L494.02,470.99 L495.09,470.99 L496.16,470.98 L497.23,470.92 L498.30,470.85 L499.37,470.74 L500.44,470.60 L501.51,470.44 L502.58,470.23 L503.65,470.02 L504.72,469.73 L505.80,469.46 L506.87,469.11 L507.94,468.75 L509.01,468.35 L510.08,467.89 L511.15,467.43 L512.22,466.87 L513.29,466.31 L514.36,465.67 L515.43,464.98 L516.50,464.25 L517.57,463.38 L518.65,462.54 L519.72,461.46 L520.79,460.38 L521.86,459.06 L522.93,457.49 L524.00,455.66" fill="none" stroke="#e0e0e0" stroke-width="1.4"/>
<text x="387" y="390" fill="#666" font-family="monospace" font-size="9">11</text>
<rect x="532" y="376" width="152" height="152" fill="#0b0b0b" stroke="#444"/>
<line x1="540" y1="452.00" x2="676" y2="452.00" stroke="#292929"/>
<path d="M540.00,452.00 L541.07,436.26 L542.14,437.43 L543.21,435.68 L544.28,435.50 L545.35,435.30 L546.43,434.68 L547.50,435.00 L548.57,434.37 L549.64,434.72 L550.71,434.35 L551.78,434.50 L552.85,434.47 L553.92,434.38 L554.99,434.60 L556.06,434.40 L557.13,434.71 L558.20,434.56 L559.28,434.80 L560.35,434.80 L561.42,434.89 L562.49,435.08 L563.56,435.05 L564.63,435.34 L565.70,435.28 L566.77,435.56 L567.84,435.59 L568.91,435.77 L569.98,435.93 L571.06,436.00 L572.13,436.27 L573.20,436.29 L574.27,436.59 L575.34,436.63 L576.41,436.88 L577.48,437.02 L578.55,437.17 L579.62,437.43 L580.69,437.50 L581.76,437.82 L582.83,437.87 L583.91,438.18 L584.98,438.30 L586.05,438.53 L587.12,438.76 L588.19,438.90 L589.26,439.23 L590.33,439.31 L591.40,439.69 L592.47,439.78 L593.54,440.12 L594.61,440.32 L595.69,440.56 L596.76,440.91 L597.83,441.03 L598.90,441.52 L599.97,441.59 L601.04,442.14 L602.11,442.29 L603.18,442.79 L604.25,443.22 L605.32,443.50 L606.39,444.64 L607.46,444.31 L608.54,452.00 L609.61,459.69 L610.68,459.36 L611.75,460.50 L612.82,460.78 L613.89,461.21 L614.96,461.71 L616.03,461.86 L617.10,462.41 L618.17,462.48 L619.24,462.97 L620.31,463.09 L621.39,463.44 L622.46,463.68 L623.53,463.88 L624.60,464.22 L625.67,464.31 L626.74,464.69 L627.81,464.77 L628.88,465.10 L629.95,465.24 L631.02,465.47 L632.09,465.70 L633.17,465.82 L634.24,466.13 L635.31,466.18 L636.38,466.50 L637.45,466.57 L638.52,466.83 L639.59,466.98 L640.66,467.12 L641.73,467.37 L642.80,467.41 L643.87,467.71 L644.94,467.73 L646.02,468.00 L647.09,468.07 L648.16,468.23 L649.23,468.41 L650.30,468.44 L651.37,468.72 L652.44,468.66 L653.51,468.95 L654.58,468.92 L655.65,469.11 L656.72,469.20 L657.80,469.20 L658.87,469.44 L659.94,469.29 L661.01,469.60 L662.08,469.40 L663.15,469.62 L664.22,469.53 L665.29,469.50 L666.36,469.65 L667.43,469.28 L668.50,469.63 L669.57,469.00 L670.65,469.32 L671.72,468.70 L672.79,468.50 L673.86,468.32 L674.93,466.57 L676.00,467.74" fill="none" stroke="#e0e0e0" stroke-width="1.4"/>
<text x="539" y="390" fill="#666" font-family="monospace" font-size="9">12</text>
<rect x="76" y="528" width="152" height="152" fill="#0b0b0b" stroke="#444"/>
<line x1="84" y1="604.00" x2="220" y2="604.00" stroke="#292929"/>
<path d="M84.00,604.00 L85.07,602.99 L86.14,601.97 L87.21,600.97 L88.28,599.97 L89.35,598.98 L90.43,598.00 L91.50,597.04 L92.57,596.09 L93.64,595.16 L94.71,594.26 L95.78,593.37 L96.85,592.52 L97.92,591.69 L98.99,590.89 L100.06,590.12 L101.13,589.38 L102.20,588.68 L103.28,588.02 L104.35,587.40 L105.42,586.81 L106.49,586.27 L107.56,585.77 L108.63,585.31 L109.70,584.90 L110.77,584.54 L111.84,584.22 L112.91,583.95 L113.98,583.73 L115.06,583.55 L116.13,583.43 L117.20,583.35 L118.27,583.33 L119.34,583.35 L120.41,583.43 L121.48,583.55 L122.55,583.73 L123.62,583.95 L124.69,584.22 L125.76,584.54 L126.83,584.90 L127.91,585.31 L128.98,585.77 L130.05,586.27 L131.12,586.81 L132.19,587.40 L133.26,588.02 L134.33,588.68 L135.40,589.38 L136.47,590.12 L137.54,590.89 L138.61,591.69 L139.69,592.52 L140.76,593.37 L141.83,594.26 L142.90,595.16 L143.97,596.09 L145.04,597.04 L146.11,598.00 L147.18,598.98 L148.25,599.97 L149.32,600.97 L150.39,601.97 L151.46,602.99 L152.54,604.00 L153.61,605.01 L154.68,606.03 L155.75,607.03 L156.82,608.03 L157.89,609.02 L158.96,610.00 L160.03,610.96 L161.10,611.91 L162.17,612.84 L163.24,613.74 L164.31,614.63 L165.39,615.48 L166.46,616.31 L167.53,617.11 L168.60,617.88 L169.67,618.62 L170.74,619.32 L171.81,619.98 L172.88,620.60 L173.95,621.19 L175.02,621.73 L176.09,622.23 L177.17,622.69 L178.24,623.10 L179.31,623.46 L180.38,623.78 L181.45,624.05 L182.52,624.27 L183.59,624.45 L184.66,624.57 L185.73,624.65 L186.80,624.67 L187.87,624.65 L188.94,624.57 L190.02,624.45 L191.09,624.27 L192.16,624.05 L193.23,623.78 L194.30,623.46 L195.37,623.10 L196.44,622.69 L197.51,622.23 L198.58,621.73 L199.65,621.19 L200.72,620.60 L201.80,619.98 L202.87,619.32 L203.94,618.62 L205.01,617.88 L206.08,617.11 L207.15,616.31 L208.22,615.48 L209.29,614.63 L210.36,613.74 L211.43,612.84 L212.50,611.91 L213.57,610.96 L214.65,610.00 L215.72,609.02 L216.79,608.03 L217.86,607.03 L218.93,606.03 L220.00,605.01" fill="none" stroke="#e0e0e0" stroke-width="1.4"/>
<text x="83" y="542" fill="#666" font-family="monospace" font-size="9">13</text>
<rect x="228" y="528" width="152" height="152" fill="#0b0b0b" stroke="#444"/>
<line x1="236" y1="604.00" x2="372" y2="604.00" stroke="#292929"/>
<path d="M236.00,604.00 L237.07,602.91 L238.14,601.83 L239.21,600.77 L240.28,599.73 L241.35,598.71 L242.43,597.72 L243.50,596.74 L244.57,595.79 L245.64,594.86 L246.71,593.97 L247.78,593.10 L248.85,592.26 L249.92,591.45 L250.99,590.68 L252.06,589.94 L253.13,589.23 L254.20,588.56 L255.28,587.93 L256.35,587.34 L257.42,586.78 L258.49,586.27 L259.56,585.80 L260.63,585.37 L261.70,584.99 L262.77,584.65 L263.84,584.35 L264.91,584.10 L265.98,583.89 L267.06,583.73 L268.13,583.62 L269.20,583.55 L270.27,583.53 L271.34,583.56 L272.41,583.63 L273.48,583.75 L274.55,583.91 L275.62,584.12 L276.69,584.38 L277.76,584.68 L278.83,585.02 L279.91,585.41 L280.98,585.85 L282.05,586.32 L283.12,586.83 L284.19,587.39 L285.26,587.99 L286.33,588.62 L287.40,589.29 L288.47,590.00 L289.54,590.74 L290.61,591.51 L291.69,592.32 L292.76,593.16 L293.83,594.03 L294.90,594.92 L295.97,595.84 L297.04,596.79 L298.11,597.76 L299.18,598.75 L300.25,599.76 L301.32,600.80 L302.39,601.85 L303.46,602.92 L304.54,604.00 L305.61,605.08 L306.68,606.15 L307.75,607.20 L308.82,608.24 L309.89,609.25 L310.96,610.24 L312.03,611.21 L313.10,612.16 L314.17,613.08 L315.24,613.97 L316.31,614.84 L317.39,615.68 L318.46,616.49 L319.53,617.26 L320.60,618.00 L321.67,618.71 L322.74,619.38 L323.81,620.01 L324.88,620.61 L325.95,621.17 L327.02,621.68 L328.09,622.15 L329.17,622.59 L330.24,622.98 L331.31,623.32 L332.38,623.62 L333.45,623.88 L334.52,624.09 L335.59,624.25 L336.66,624.37 L337.73,624.44 L338.80,624.47 L339.87,624.45 L340.94,624.38 L342.02,624.27 L343.09,624.11 L344.16,623.90 L345.23,623.65 L346.30,623.35 L347.37,623.01 L348.44,622.63 L349.51,622.20 L350.58,621.73 L351.65,621.22 L352.72,620.66 L353.80,620.07 L354.87,619.44 L355.94,618.77 L357.01,618.06 L358.08,617.32 L359.15,616.55 L360.22,615.74 L361.29,614.90 L362.36,614.03 L363.43,613.14 L364.50,612.21 L365.57,611.26 L366.65,610.28 L367.72,609.29 L368.79,608.27 L369.86,607.23 L370.93,606.17 L372.00,605.09" fill="none" stroke="#e0e0e0" stroke-width="1.4"/>
<text x="235" y="542" fill="#666" font-family="monospace" font-size="9">14</text>
<rect x="380" y="528" width="152" height="152" fill="#0b0b0b" stroke="#444"/>
<line x1="388" y1="604.00" x2="524" y2="604.00" stroke="#292929"/>
<path d="M388.00,604.00 L389.07,601.02 L390.14,599.44 L391.21,598.06 L392.28,596.87 L393.35,595.87 L394.43,594.87 L395.50,594.05 L396.57,593.22 L397.64,592.49 L398.71,591.80 L399.78,591.14 L400.85,590.55 L401.92,589.96 L402.99,589.46 L404.06,588.95 L405.13,588.49 L406.20,588.07 L407.28,587.66 L408.35,587.32 L409.42,586.96 L410.49,586.67 L411.56,586.38 L412.63,586.13 L413.70,585.92 L414.77,585.72 L415.84,585.57 L416.91,585.41 L417.98,585.31 L419.06,585.23 L420.13,585.17 L421.20,585.15 L422.27,585.13 L423.34,585.17 L424.41,585.21 L425.48,585.30 L426.55,585.40 L427.62,585.53 L428.69,585.70 L429.76,585.87 L430.83,586.10 L431.91,586.34 L432.98,586.61 L434.05,586.91 L435.12,587.22 L436.19,587.59 L437.26,587.96 L438.33,588.38 L439.40,588.82 L440.47,589.29 L441.54,589.81 L442.61,590.32 L443.69,590.92 L444.76,591.51 L445.83,592.18 L446.90,592.87 L447.97,593.59 L449.04,594.42 L450.11,595.23 L451.18,596.21 L452.25,597.19 L453.32,598.35 L454.39,599.67 L455.46,601.19 L456.54,604.00 L457.61,606.81 L458.68,608.33 L459.75,609.65 L460.82,610.81 L461.89,611.79 L462.96,612.77 L464.03,613.58 L465.10,614.41 L466.17,615.13 L467.24,615.82 L468.31,616.49 L469.39,617.08 L470.46,617.68 L471.53,618.19 L472.60,618.71 L473.67,619.18 L474.74,619.62 L475.81,620.04 L476.88,620.41 L477.95,620.78 L479.02,621.09 L480.09,621.39 L481.17,621.66 L482.24,621.90 L483.31,622.13 L484.38,622.30 L485.45,622.47 L486.52,622.60 L487.59,622.70 L488.66,622.79 L489.73,622.83 L490.80,622.87 L491.87,622.85 L492.94,622.83 L494.02,622.77 L495.09,622.69 L496.16,622.59 L497.23,622.43 L498.30,622.28 L499.37,622.08 L500.44,621.87 L501.51,621.62 L502.58,621.33 L503.65,621.04 L504.72,620.68 L505.80,620.34 L506.87,619.93 L507.94,619.51 L509.01,619.05 L510.08,618.54 L511.15,618.04 L512.22,617.45 L513.29,616.86 L514.36,616.20 L515.43,615.51 L516.50,614.78 L517.57,613.95 L518.65,613.13 L519.72,612.13 L520.79,611.13 L521.86,609.94 L522.93,608.56 L524.00,606.98" fill="none" stroke="#e0e0e0" stroke-width="1.4"/>
<text x="387" y="542" fill="#666" font-family="monospace" font-size="9">15</text>
<rect x="532" y="528" width="152" height="152" fill="#0b0b0b" stroke="#444"/>
<line x1="540" y1="604.00" x2="676" y2="604.00" stroke="#292929"/>
<path d="M540.00,604.00 L541.07,591.64 L542.14,592.45 L543.21,590.95 L544.28,590.72 L545.35,590.41 L546.43,589.83 L547.50,589.95 L548.57,589.35 L549.64,589.51 L550.71,589.08 L551.78,589.11 L552.85,588.93 L553.92,588.78 L554.99,588.82 L556.06,588.55 L557.13,588.68 L558.20,588.42 L559.28,588.52 L560.35,588.38 L561.42,588.37 L562.49,588.37 L563.56,588.24 L564.63,588.35 L565.70,588.18 L566.77,588.31 L567.84,588.18 L568.91,588.26 L569.98,588.23 L571.06,588.20 L572.13,588.30 L573.20,588.19 L574.27,588.34 L575.34,588.23 L576.41,588.36 L577.48,588.32 L578.55,588.37 L579.62,588.44 L580.69,588.40 L581.76,588.57 L582.83,588.47 L583.91,588.67 L584.98,588.61 L586.05,588.76 L587.12,588.80 L588.19,588.84 L589.26,589.02 L590.33,588.96 L591.40,589.24 L592.47,589.16 L593.54,589.44 L594.61,589.45 L595.69,589.62 L596.76,589.83 L597.83,589.84 L598.90,590.28 L599.97,590.16 L601.04,590.76 L602.11,590.69 L603.18,591.26 L604.25,591.59 L605.32,591.83 L606.39,593.27 L607.46,592.55 L608.54,604.00 L609.61,615.45 L610.68,614.73 L611.75,616.17 L612.82,616.41 L613.89,616.74 L614.96,617.31 L616.03,617.24 L617.10,617.84 L618.17,617.72 L619.24,618.16 L620.31,618.17 L621.39,618.38 L622.46,618.55 L623.53,618.56 L624.60,618.84 L625.67,618.76 L626.74,619.04 L627.81,618.98 L628.88,619.16 L629.95,619.20 L631.02,619.24 L632.09,619.39 L633.17,619.33 L634.24,619.53 L635.31,619.43 L636.38,619.60 L637.45,619.56 L638.52,619.63 L639.59,619.68 L640.66,619.64 L641.73,619.77 L642.80,619.66 L643.87,619.81 L644.94,619.70 L646.02,619.80 L647.09,619.77 L648.16,619.74 L649.23,619.82 L650.30,619.69 L651.37,619.82 L652.44,619.65 L653.51,619.76 L654.58,619.63 L655.65,619.63 L656.72,619.62 L657.80,619.48 L658.87,619.58 L659.94,619.32 L661.01,619.45 L662.08,619.18 L663.15,619.22 L664.22,619.07 L665.29,618.89 L666.36,618.92 L667.43,618.49 L668.50,618.65 L669.57,618.05 L670.65,618.17 L671.72,617.59 L672.79,617.28 L673.86,617.05 L674.93,615.55 L676.00,616.36" fill="none" stroke="#e0e0e0" stroke-width="1.4"/>
<text x="539" y="542" fill="#666" font-family="monospace" font-size="9">16</text>
</svg>
