<svg xmlns="http://www.w3.org/2000/svg" width="760" height="760" viewBox="0 0 760 760">
<rect width="760" height="760" fill="#161616"/>
<text x="24" y="32" fill="#dedede" font-family="monospace" font-size="15">S3G VOT / FORMANT</text>
<text x="684" y="724" text-anchor="end" fill="#858585" font-family="monospace" font-size="11">U / FORMANT CENTER</text>
<text x="24" y="72" fill="#858585" font-family="monospace" font-size="11">V / BANDWIDTH AND VOWEL</text>
<text x="76" y="724" fill="#858585" font-family="monospace" font-size="11">ENERGY / LEVEL MATCHED</text>
<rect x="76" y="72" width="152" height="152" fill="#0b0b0b" stroke="#444"/>
<line x1="84" y1="148.00" x2="220" y2="148.00" stroke="#292929"/>
<path d="M84.00,148.00 L85.07,120.68 L86.14,112.61 L87.21,124.64 L88.28,142.28 L89.35,149.50 L90.43,143.17 L91.50,131.71 L92.57,124.99 L93.64,125.81 L94.71,130.77 L95.78,135.33 L96.85,137.74 L97.92,138.64 L98.99,139.33 L100.06,140.31 L101.13,141.51 L102.20,142.58 L103.28,143.45 L104.35,144.09 L105.42,144.59 L106.49,144.98 L107.56,145.30 L108.63,145.56 L109.70,145.78 L110.77,145.96 L111.84,146.13 L112.91,146.28 L113.98,146.42 L115.06,146.53 L116.13,146.65 L117.20,146.76 L118.27,146.86 L119.34,146.95 L120.41,147.04 L121.48,147.12 L122.55,147.20 L123.62,147.27 L124.69,147.34 L125.76,147.40 L126.83,147.46 L127.91,147.51 L128.98,147.56 L130.05,147.61 L131.12,147.65 L132.19,147.69 L133.26,147.73 L134.33,147.76 L135.40,147.79 L136.47,147.81 L137.54,147.84 L138.61,147.86 L139.69,147.88 L140.76,147.89 L141.83,147.91 L142.90,147.92 L143.97,147.94 L145.04,147.95 L146.11,147.96 L147.18,147.97 L148.25,147.97 L149.32,147.98 L150.39,147.99 L151.46,147.99 L152.54,148.00 L153.61,148.01 L154.68,148.01 L155.75,148.02 L156.82,148.03 L157.89,148.03 L158.96,148.04 L160.03,148.05 L161.10,148.06 L162.17,148.08 L163.24,148.09 L164.31,148.11 L165.39,148.12 L166.46,148.14 L167.53,148.16 L168.60,148.19 L169.67,148.21 L170.74,148.24 L171.81,148.27 L172.88,148.31 L173.95,148.35 L175.02,148.39 L176.09,148.44 L177.17,148.49 L178.24,148.54 L179.31,148.60 L180.38,148.66 L181.45,148.73 L182.52,148.80 L183.59,148.88 L184.66,148.96 L185.73,149.05 L186.80,149.14 L187.87,149.24 L188.94,149.35 L190.02,149.47 L191.09,149.58 L192.16,149.72 L193.23,149.87 L194.30,150.04 L195.37,150.22 L196.44,150.44 L197.51,150.70 L198.58,151.02 L199.65,151.41 L200.72,151.91 L201.80,152.55 L202.87,153.42 L203.94,154.49 L205.01,155.69 L206.08,156.67 L207.15,157.36 L208.22,158.26 L209.29,160.67 L210.36,165.23 L211.43,170.19 L212.50,171.01 L213.57,164.29 L214.65,152.83 L215.72,146.50 L216.79,153.72 L217.86,171.36 L218.93,183.39 L220.00,175.32" fill="none" stroke="#e0e0e0" stroke-width="1.4"/>
<text x="83" y="86" fill="#666" font-family="monospace" font-size="9">01</text>
<rect x="228" y="72" width="152" height="152" fill="#0b0b0b" stroke="#444"/>
<line x1="236" y1="148.00" x2="372" y2="148.00" stroke="#292929"/>
<path d="M236.00,148.00 L237.07,119.92 L238.14,109.60 L239.21,118.32 L240.28,133.44 L241.35,140.70 L242.43,137.11 L243.50,129.77 L244.57,126.99 L245.64,130.80 L246.71,137.78 L247.78,143.64 L248.85,146.75 L249.92,147.73 L250.99,147.89 L252.06,147.87 L253.13,147.81 L254.20,147.58 L255.28,147.24 L256.35,146.83 L257.42,146.47 L258.49,146.18 L259.56,146.00 L260.63,145.87 L261.70,145.80 L262.77,145.76 L263.84,145.75 L264.91,145.75 L265.98,145.76 L267.06,145.77 L268.13,145.79 L269.20,145.81 L270.27,145.84 L271.34,145.86 L272.41,145.89 L273.48,145.92 L274.55,145.96 L275.62,145.99 L276.69,146.04 L277.76,146.08 L278.83,146.13 L279.91,146.18 L280.98,146.24 L282.05,146.29 L283.12,146.36 L284.19,146.42 L285.26,146.49 L286.33,146.55 L287.40,146.63 L288.47,146.70 L289.54,146.77 L290.61,146.85 L291.69,146.93 L292.76,147.01 L293.83,147.10 L294.90,147.18 L295.97,147.27 L297.04,147.36 L298.11,147.45 L299.18,147.54 L300.25,147.63 L301.32,147.72 L302.39,147.81 L303.46,147.91 L304.54,148.00 L305.61,148.09 L306.68,148.19 L307.75,148.28 L308.82,148.37 L309.89,148.46 L310.96,148.55 L312.03,148.64 L313.10,148.73 L314.17,148.82 L315.24,148.90 L316.31,148.99 L317.39,149.07 L318.46,149.15 L319.53,149.23 L320.60,149.30 L321.67,149.37 L322.74,149.45 L323.81,149.51 L324.88,149.58 L325.95,149.64 L327.02,149.71 L328.09,149.76 L329.17,149.82 L330.24,149.87 L331.31,149.92 L332.38,149.96 L333.45,150.01 L334.52,150.04 L335.59,150.08 L336.66,150.11 L337.73,150.14 L338.80,150.16 L339.87,150.19 L340.94,150.21 L342.02,150.23 L343.09,150.24 L344.16,150.25 L345.23,150.25 L346.30,150.24 L347.37,150.20 L348.44,150.13 L349.51,150.00 L350.58,149.82 L351.65,149.53 L352.72,149.17 L353.80,148.76 L354.87,148.42 L355.94,148.19 L357.01,148.13 L358.08,148.11 L359.15,148.27 L360.22,149.25 L361.29,152.36 L362.36,158.22 L363.43,165.20 L364.50,169.01 L365.57,166.23 L366.65,158.89 L367.72,155.30 L368.79,162.56 L369.86,177.68 L370.93,186.40 L372.00,176.08" fill="none" stroke="#e0e0e0" stroke-width="1.4"/>
<text x="235" y="86" fill="#666" font-family="monospace" font-size="9">02</text>
<rect x="380" y="72" width="152" height="152" fill="#0b0b0b" stroke="#444"/>
<line x1="388" y1="148.00" x2="524" y2="148.00" stroke="#292929"/>
<path d="M388.00,148.00 L389.07,117.34 L390.14,105.09 L391.21,113.39 L392.28,130.32 L393.35,141.69 L394.43,143.49 L395.50,141.22 L396.57,141.78 L397.64,146.50 L398.71,152.14 L399.78,155.06 L400.85,154.48 L401.92,151.79 L402.99,148.86 L404.06,146.66 L405.13,145.37 L406.20,144.74 L407.28,144.54 L408.35,144.58 L409.42,144.75 L410.49,144.92 L411.56,145.07 L412.63,145.14 L413.70,145.18 L414.77,145.16 L415.84,145.14 L416.91,145.10 L417.98,145.08 L419.06,145.05 L420.13,145.05 L421.20,145.04 L422.27,145.05 L423.34,145.06 L424.41,145.09 L425.48,145.11 L426.55,145.15 L427.62,145.18 L428.69,145.23 L429.76,145.28 L430.83,145.34 L431.91,145.40 L432.98,145.47 L434.05,145.54 L435.12,145.62 L436.19,145.70 L437.26,145.80 L438.33,145.89 L439.40,145.99 L440.47,146.09 L441.54,146.20 L442.61,146.31 L443.69,146.43 L444.76,146.54 L445.83,146.67 L446.90,146.79 L447.97,146.92 L449.04,147.05 L450.11,147.18 L451.18,147.31 L452.25,147.45 L453.32,147.59 L454.39,147.72 L455.46,147.86 L456.54,148.00 L457.61,148.14 L458.68,148.28 L459.75,148.41 L460.82,148.55 L461.89,148.69 L462.96,148.82 L464.03,148.95 L465.10,149.08 L466.17,149.21 L467.24,149.33 L468.31,149.46 L469.39,149.57 L470.46,149.69 L471.53,149.80 L472.60,149.91 L473.67,150.01 L474.74,150.11 L475.81,150.20 L476.88,150.30 L477.95,150.38 L479.02,150.46 L480.09,150.53 L481.17,150.60 L482.24,150.66 L483.31,150.72 L484.38,150.77 L485.45,150.82 L486.52,150.85 L487.59,150.89 L488.66,150.91 L489.73,150.94 L490.80,150.95 L491.87,150.96 L492.94,150.95 L494.02,150.95 L495.09,150.92 L496.16,150.90 L497.23,150.86 L498.30,150.84 L499.37,150.82 L500.44,150.86 L501.51,150.93 L502.58,151.08 L503.65,151.25 L504.72,151.42 L505.80,151.46 L506.87,151.26 L507.94,150.63 L509.01,149.34 L510.08,147.14 L511.15,144.21 L512.22,141.52 L513.29,140.94 L514.36,143.86 L515.43,149.50 L516.50,154.22 L517.57,154.78 L518.65,152.51 L519.72,154.31 L520.79,165.68 L521.86,182.61 L522.93,190.91 L524.00,178.66" fill="none" stroke="#e0e0e0" stroke-width="1.4"/>
<text x="387" y="86" fill="#666" font-family="monospace" font-size="9">03</text>
<rect x="532" y="72" width="152" height="152" fill="#0b0b0b" stroke="#444"/>
<line x1="540" y1="148.00" x2="676" y2="148.00" stroke="#292929"/>
<path d="M540.00,148.00 L541.07,116.42 L542.14,104.15 L543.21,114.33 L544.28,135.35 L545.35,152.03 L546.43,158.19 L547.50,157.10 L548.57,154.75 L549.64,153.46 L550.71,152.20 L551.78,149.57 L552.85,146.09 L553.92,143.26 L554.99,142.18 L556.06,142.70 L557.13,144.00 L558.20,145.22 L559.28,145.96 L560.35,146.17 L561.42,146.05 L562.49,145.78 L563.56,145.53 L564.63,145.33 L565.70,145.23 L566.77,145.17 L567.84,145.16 L568.91,145.15 L569.98,145.15 L571.06,145.14 L572.13,145.15 L573.20,145.14 L574.27,145.15 L575.34,145.16 L576.41,145.18 L577.48,145.20 L578.55,145.24 L579.62,145.27 L580.69,145.32 L581.76,145.36 L582.83,145.42 L583.91,145.48 L584.98,145.55 L586.05,145.61 L587.12,145.69 L588.19,145.77 L589.26,145.86 L590.33,145.95 L591.40,146.05 L592.47,146.15 L593.54,146.25 L594.61,146.36 L595.69,146.47 L596.76,146.59 L597.83,146.71 L598.90,146.83 L599.97,146.95 L601.04,147.08 L602.11,147.20 L603.18,147.33 L604.25,147.47 L605.32,147.60 L606.39,147.73 L607.46,147.87 L608.54,148.00 L609.61,148.13 L610.68,148.27 L611.75,148.40 L612.82,148.53 L613.89,148.67 L614.96,148.80 L616.03,148.92 L617.10,149.05 L618.17,149.17 L619.24,149.29 L620.31,149.41 L621.39,149.53 L622.46,149.64 L623.53,149.75 L624.60,149.85 L625.67,149.95 L626.74,150.05 L627.81,150.14 L628.88,150.23 L629.95,150.31 L631.02,150.39 L632.09,150.45 L633.17,150.52 L634.24,150.58 L635.31,150.64 L636.38,150.68 L637.45,150.73 L638.52,150.76 L639.59,150.80 L640.66,150.82 L641.73,150.84 L642.80,150.85 L643.87,150.86 L644.94,150.85 L646.02,150.86 L647.09,150.85 L648.16,150.85 L649.23,150.84 L650.30,150.83 L651.37,150.77 L652.44,150.67 L653.51,150.47 L654.58,150.22 L655.65,149.95 L656.72,149.83 L657.80,150.04 L658.87,150.78 L659.94,152.00 L661.01,153.30 L662.08,153.82 L663.15,152.74 L664.22,149.91 L665.29,146.43 L666.36,143.80 L667.43,142.54 L668.50,141.25 L669.57,138.90 L670.65,137.81 L671.72,143.97 L672.79,160.65 L673.86,181.67 L674.93,191.85 L676.00,179.58" fill="none" stroke="#e0e0e0" stroke-width="1.4"/>
<text x="539" y="86" fill="#666" font-family="monospace" font-size="9">04</text>
<rect x="76" y="224" width="152" height="152" fill="#0b0b0b" stroke="#444"/>
<line x1="84" y1="300.00" x2="220" y2="300.00" stroke="#292929"/>
<path d="M84.00,300.00 L85.07,280.22 L86.14,269.59 L87.21,270.69 L88.28,280.79 L89.35,292.50 L90.43,299.24 L91.50,298.19 L92.57,291.54 L93.64,283.75 L94.71,278.93 L95.78,278.50 L96.85,281.49 L97.92,285.67 L98.99,289.25 L100.06,291.43 L101.13,292.49 L102.20,293.01 L103.28,293.56 L104.35,294.29 L105.42,295.17 L106.49,296.02 L107.56,296.76 L108.63,297.31 L109.70,297.73 L110.77,298.02 L111.84,298.26 L112.91,298.44 L113.98,298.60 L115.06,298.71 L116.13,298.82 L117.20,298.90 L118.27,298.98 L119.34,299.04 L120.41,299.11 L121.48,299.16 L122.55,299.22 L123.62,299.27 L124.69,299.33 L125.76,299.37 L126.83,299.43 L127.91,299.47 L128.98,299.51 L130.05,299.55 L131.12,299.59 L132.19,299.63 L133.26,299.66 L134.33,299.69 L135.40,299.72 L136.47,299.75 L137.54,299.78 L138.61,299.80 L139.69,299.82 L140.76,299.84 L141.83,299.86 L142.90,299.88 L143.97,299.90 L145.04,299.91 L146.11,299.93 L147.18,299.94 L148.25,299.95 L149.32,299.96 L150.39,299.98 L151.46,299.99 L152.54,300.00 L153.61,300.01 L154.68,300.02 L155.75,300.04 L156.82,300.05 L157.89,300.06 L158.96,300.07 L160.03,300.09 L161.10,300.10 L162.17,300.12 L163.24,300.14 L164.31,300.16 L165.39,300.18 L166.46,300.20 L167.53,300.22 L168.60,300.25 L169.67,300.28 L170.74,300.31 L171.81,300.34 L172.88,300.37 L173.95,300.41 L175.02,300.45 L176.09,300.49 L177.17,300.53 L178.24,300.57 L179.31,300.63 L180.38,300.67 L181.45,300.73 L182.52,300.78 L183.59,300.84 L184.66,300.89 L185.73,300.96 L186.80,301.02 L187.87,301.10 L188.94,301.18 L190.02,301.29 L191.09,301.40 L192.16,301.56 L193.23,301.74 L194.30,301.98 L195.37,302.27 L196.44,302.69 L197.51,303.24 L198.58,303.98 L199.65,304.83 L200.72,305.71 L201.80,306.44 L202.87,306.99 L203.94,307.51 L205.01,308.57 L206.08,310.75 L207.15,314.33 L208.22,318.51 L209.29,321.50 L210.36,321.07 L211.43,316.25 L212.50,308.46 L213.57,301.81 L214.65,300.76 L215.72,307.50 L216.79,319.21 L217.86,329.31 L218.93,330.41 L220.00,319.78" fill="none" stroke="#e0e0e0" stroke-width="1.4"/>
<text x="83" y="238" fill="#666" font-family="monospace" font-size="9">05</text>
<rect x="228" y="224" width="152" height="152" fill="#0b0b0b" stroke="#444"/>
<line x1="236" y1="300.00" x2="372" y2="300.00" stroke="#292929"/>
<path d="M236.00,300.00 L237.07,278.87 L238.14,266.39 L239.21,265.25 L240.28,273.30 L241.35,284.01 L242.43,291.44 L243.50,292.89 L244.57,289.99 L245.64,286.37 L246.71,285.34 L247.78,287.82 L248.85,292.73 L249.92,297.89 L250.99,301.69 L252.06,303.45 L253.13,303.57 L254.20,302.73 L255.28,301.63 L256.35,300.59 L257.42,299.73 L258.49,298.98 L259.56,298.36 L260.63,297.81 L261.70,297.38 L262.77,297.07 L263.84,296.88 L264.91,296.78 L265.98,296.76 L267.06,296.77 L268.13,296.81 L269.20,296.86 L270.27,296.91 L271.34,296.96 L272.41,297.01 L273.48,297.05 L274.55,297.10 L275.62,297.15 L276.69,297.20 L277.76,297.25 L278.83,297.32 L279.91,297.38 L280.98,297.45 L282.05,297.52 L283.12,297.61 L284.19,297.69 L285.26,297.78 L286.33,297.88 L287.40,297.98 L288.47,298.08 L289.54,298.19 L290.61,298.30 L291.69,298.42 L292.76,298.54 L293.83,298.66 L294.90,298.79 L295.97,298.91 L297.04,299.04 L298.11,299.18 L299.18,299.31 L300.25,299.45 L301.32,299.58 L302.39,299.72 L303.46,299.86 L304.54,300.00 L305.61,300.14 L306.68,300.28 L307.75,300.42 L308.82,300.55 L309.89,300.69 L310.96,300.82 L312.03,300.96 L313.10,301.09 L314.17,301.21 L315.24,301.34 L316.31,301.46 L317.39,301.58 L318.46,301.70 L319.53,301.81 L320.60,301.92 L321.67,302.02 L322.74,302.12 L323.81,302.22 L324.88,302.31 L325.95,302.39 L327.02,302.48 L328.09,302.55 L329.17,302.62 L330.24,302.68 L331.31,302.75 L332.38,302.80 L333.45,302.85 L334.52,302.90 L335.59,302.95 L336.66,302.99 L337.73,303.04 L338.80,303.09 L339.87,303.14 L340.94,303.19 L342.02,303.23 L343.09,303.24 L344.16,303.22 L345.23,303.12 L346.30,302.93 L347.37,302.62 L348.44,302.19 L349.51,301.64 L350.58,301.02 L351.65,300.27 L352.72,299.41 L353.80,298.37 L354.87,297.27 L355.94,296.43 L357.01,296.55 L358.08,298.31 L359.15,302.11 L360.22,307.27 L361.29,312.18 L362.36,314.66 L363.43,313.63 L364.50,310.01 L365.57,307.11 L366.65,308.56 L367.72,315.99 L368.79,326.70 L369.86,334.75 L370.93,333.61 L372.00,321.13" fill="none" stroke="#e0e0e0" stroke-width="1.4"/>
<text x="235" y="238" fill="#666" font-family="monospace" font-size="9">06</text>
<rect x="380" y="224" width="152" height="152" fill="#0b0b0b" stroke="#444"/>
<line x1="388" y1="300.00" x2="524" y2="300.00" stroke="#292929"/>
<path d="M388.00,300.00 L389.07,277.23 L390.14,263.59 L391.21,262.37 L392.28,271.84 L393.35,285.68 L394.43,297.59 L395.50,304.02 L396.57,305.42 L397.64,304.35 L398.71,303.49 L399.78,303.75 L400.85,304.60 L401.92,304.78 L402.99,303.58 L404.06,301.11 L405.13,298.21 L406.20,295.73 L407.28,294.26 L408.35,293.83 L409.42,294.20 L410.49,294.95 L411.56,295.78 L412.63,296.45 L413.70,296.90 L414.77,297.12 L415.84,297.18 L416.91,297.11 L417.98,297.00 L419.06,296.87 L420.13,296.76 L421.20,296.68 L422.27,296.65 L423.34,296.64 L424.41,296.66 L425.48,296.69 L426.55,296.74 L427.62,296.79 L428.69,296.85 L429.76,296.91 L430.83,296.98 L431.91,297.04 L432.98,297.12 L434.05,297.21 L435.12,297.30 L436.19,297.39 L437.26,297.49 L438.33,297.60 L439.40,297.71 L440.47,297.83 L441.54,297.95 L442.61,298.08 L443.69,298.21 L444.76,298.34 L445.83,298.48 L446.90,298.62 L447.97,298.77 L449.04,298.92 L450.11,299.07 L451.18,299.22 L452.25,299.37 L453.32,299.53 L454.39,299.69 L455.46,299.84 L456.54,300.00 L457.61,300.16 L458.68,300.31 L459.75,300.47 L460.82,300.63 L461.89,300.78 L462.96,300.93 L464.03,301.08 L465.10,301.23 L466.17,301.38 L467.24,301.52 L468.31,301.66 L469.39,301.79 L470.46,301.92 L471.53,302.05 L472.60,302.17 L473.67,302.29 L474.74,302.40 L475.81,302.51 L476.88,302.61 L477.95,302.70 L479.02,302.79 L480.09,302.88 L481.17,302.96 L482.24,303.02 L483.31,303.09 L484.38,303.15 L485.45,303.21 L486.52,303.26 L487.59,303.31 L488.66,303.34 L489.73,303.36 L490.80,303.35 L491.87,303.32 L492.94,303.24 L494.02,303.13 L495.09,303.00 L496.16,302.89 L497.23,302.82 L498.30,302.88 L499.37,303.10 L500.44,303.55 L501.51,304.22 L502.58,305.05 L503.65,305.80 L504.72,306.17 L505.80,305.74 L506.87,304.27 L507.94,301.79 L509.01,298.89 L510.08,296.42 L511.15,295.22 L512.22,295.40 L513.29,296.25 L514.36,296.51 L515.43,295.65 L516.50,294.58 L517.57,295.98 L518.65,302.41 L519.72,314.32 L520.79,328.16 L521.86,337.63 L522.93,336.41 L524.00,322.77" fill="none" stroke="#e0e0e0" stroke-width="1.4"/>
<text x="387" y="238" fill="#666" font-family="monospace" font-size="9">07</text>
<rect x="532" y="224" width="152" height="152" fill="#0b0b0b" stroke="#444"/>
<line x1="540" y1="300.00" x2="676" y2="300.00" stroke="#292929"/>
<path d="M540.00,300.00 L541.07,277.39 L542.14,264.60 L543.21,265.49 L544.28,278.29 L545.35,295.95 L546.43,310.91 L547.50,318.23 L548.57,317.48 L549.64,311.32 L550.71,303.57 L551.78,297.05 L552.85,293.06 L553.92,291.52 L554.99,291.82 L556.06,293.21 L557.13,295.12 L558.20,297.03 L559.28,298.55 L560.35,299.36 L561.42,299.45 L562.49,298.94 L563.56,298.16 L564.63,297.39 L565.70,296.85 L566.77,296.59 L567.84,296.59 L568.91,296.72 L569.98,296.89 L571.06,297.03 L572.13,297.11 L573.20,297.13 L574.27,297.12 L575.34,297.10 L576.41,297.09 L577.48,297.10 L578.55,297.12 L579.62,297.16 L580.69,297.21 L581.76,297.26 L582.83,297.32 L583.91,297.38 L584.98,297.45 L586.05,297.53 L587.12,297.61 L588.19,297.69 L589.26,297.78 L590.33,297.87 L591.40,297.97 L592.47,298.08 L593.54,298.19 L594.61,298.30 L595.69,298.41 L596.76,298.53 L597.83,298.66 L598.90,298.78 L599.97,298.91 L601.04,299.04 L602.11,299.17 L603.18,299.31 L604.25,299.45 L605.32,299.58 L606.39,299.72 L607.46,299.86 L608.54,300.00 L609.61,300.14 L610.68,300.28 L611.75,300.42 L612.82,300.55 L613.89,300.69 L614.96,300.83 L616.03,300.96 L617.10,301.09 L618.17,301.22 L619.24,301.34 L620.31,301.47 L621.39,301.59 L622.46,301.70 L623.53,301.81 L624.60,301.92 L625.67,302.03 L626.74,302.13 L627.81,302.22 L628.88,302.31 L629.95,302.39 L631.02,302.47 L632.09,302.55 L633.17,302.62 L634.24,302.68 L635.31,302.74 L636.38,302.79 L637.45,302.84 L638.52,302.88 L639.59,302.90 L640.66,302.91 L641.73,302.90 L642.80,302.88 L643.87,302.87 L644.94,302.89 L646.02,302.97 L647.09,303.11 L648.16,303.28 L649.23,303.41 L650.30,303.41 L651.37,303.15 L652.44,302.61 L653.51,301.84 L654.58,301.06 L655.65,300.55 L656.72,300.64 L657.80,301.45 L658.87,302.97 L659.94,304.88 L661.01,306.79 L662.08,308.18 L663.15,308.48 L664.22,306.94 L665.29,302.95 L666.36,296.43 L667.43,288.68 L668.50,282.52 L669.57,281.77 L670.65,289.09 L671.72,304.05 L672.79,321.71 L673.86,334.51 L674.93,335.40 L676.00,322.61" fill="none" stroke="#e0e0e0" stroke-width="1.4"/>
<text x="539" y="238" fill="#666" font-family="monospace" font-size="9">08</text>
<rect x="76" y="376" width="152" height="152" fill="#0b0b0b" stroke="#444"/>
<line x1="84" y1="452.00" x2="220" y2="452.00" stroke="#292929"/>
<path d="M84.00,452.00 L85.07,439.41 L86.14,430.41 L87.21,425.78 L88.28,426.38 L89.35,430.97 L90.43,437.73 L91.50,444.14 L92.57,448.38 L93.64,449.34 L94.71,447.25 L95.78,443.09 L96.85,438.43 L97.92,434.62 L98.99,432.69 L100.06,432.82 L101.13,434.75 L102.20,437.71 L103.28,440.96 L104.35,443.80 L105.42,445.94 L106.49,447.27 L107.56,448.01 L108.63,448.37 L109.70,448.62 L110.77,448.89 L111.84,449.29 L112.91,449.76 L113.98,450.28 L115.06,450.74 L116.13,451.14 L117.20,451.42 L118.27,451.62 L119.34,451.71 L120.41,451.76 L121.48,451.76 L122.55,451.74 L123.62,451.71 L124.69,451.69 L125.76,451.65 L126.83,451.63 L127.91,451.60 L128.98,451.58 L130.05,451.56 L131.12,451.55 L132.19,451.55 L133.26,451.55 L134.33,451.55 L135.40,451.56 L136.47,451.58 L137.54,451.60 L138.61,451.61 L139.69,451.64 L140.76,451.66 L141.83,451.69 L142.90,451.72 L143.97,451.75 L145.04,451.78 L146.11,451.81 L147.18,451.84 L148.25,451.87 L149.32,451.91 L150.39,451.94 L151.46,451.97 L152.54,452.00 L153.61,452.03 L154.68,452.06 L155.75,452.09 L156.82,452.13 L157.89,452.16 L158.96,452.19 L160.03,452.22 L161.10,452.25 L162.17,452.28 L163.24,452.31 L164.31,452.34 L165.39,452.36 L166.46,452.39 L167.53,452.40 L168.60,452.42 L169.67,452.44 L170.74,452.45 L171.81,452.45 L172.88,452.45 L173.95,452.45 L175.02,452.44 L176.09,452.42 L177.17,452.40 L178.24,452.37 L179.31,452.35 L180.38,452.31 L181.45,452.29 L182.52,452.26 L183.59,452.24 L184.66,452.24 L185.73,452.29 L186.80,452.38 L187.87,452.58 L188.94,452.86 L190.02,453.26 L191.09,453.72 L192.16,454.24 L193.23,454.71 L194.30,455.11 L195.37,455.38 L196.44,455.63 L197.51,455.99 L198.58,456.73 L199.65,458.06 L200.72,460.20 L201.80,463.04 L202.87,466.29 L203.94,469.25 L205.01,471.18 L206.08,471.31 L207.15,469.38 L208.22,465.57 L209.29,460.91 L210.36,456.75 L211.43,454.66 L212.50,455.62 L213.57,459.86 L214.65,466.27 L215.72,473.03 L216.79,477.62 L217.86,478.22 L218.93,473.59 L220.00,464.59" fill="none" stroke="#e0e0e0" stroke-width="1.4"/>
<text x="83" y="390" fill="#666" font-family="monospace" font-size="9">09</text>
<rect x="228" y="376" width="152" height="152" fill="#0b0b0b" stroke="#444"/>
<line x1="236" y1="452.00" x2="372" y2="452.00" stroke="#292929"/>
<path d="M236.00,452.00 L237.07,437.78 L238.14,427.11 L239.21,420.99 L240.28,420.41 L241.35,424.38 L242.43,431.31 L243.50,438.86 L244.57,445.23 L245.64,449.21 L246.71,450.73 L247.78,450.39 L248.85,449.34 L249.92,448.57 L250.99,448.79 L252.06,450.08 L253.13,452.14 L254.20,454.33 L255.28,456.05 L256.35,456.82 L257.42,456.55 L258.49,455.33 L259.56,453.50 L260.63,451.43 L261.70,449.49 L262.77,447.87 L263.84,446.72 L264.91,446.01 L265.98,445.70 L267.06,445.67 L268.13,445.84 L269.20,446.12 L270.27,446.46 L271.34,446.81 L272.41,447.17 L273.48,447.48 L274.55,447.78 L275.62,448.02 L276.69,448.22 L277.76,448.38 L278.83,448.51 L279.91,448.61 L280.98,448.70 L282.05,448.77 L283.12,448.85 L284.19,448.92 L285.26,449.01 L286.33,449.11 L287.40,449.23 L288.47,449.35 L289.54,449.49 L290.61,449.64 L291.69,449.79 L292.76,449.96 L293.83,450.13 L294.90,450.30 L295.97,450.48 L297.04,450.67 L298.11,450.85 L299.18,451.04 L300.25,451.23 L301.32,451.42 L302.39,451.61 L303.46,451.81 L304.54,452.00 L305.61,452.19 L306.68,452.39 L307.75,452.58 L308.82,452.77 L309.89,452.96 L310.96,453.15 L312.03,453.33 L313.10,453.52 L314.17,453.70 L315.24,453.87 L316.31,454.04 L317.39,454.21 L318.46,454.36 L319.53,454.51 L320.60,454.65 L321.67,454.77 L322.74,454.89 L323.81,454.99 L324.88,455.08 L325.95,455.15 L327.02,455.23 L328.09,455.30 L329.17,455.39 L330.24,455.49 L331.31,455.62 L332.38,455.78 L333.45,455.98 L334.52,456.22 L335.59,456.52 L336.66,456.83 L337.73,457.19 L338.80,457.54 L339.87,457.88 L340.94,458.16 L342.02,458.33 L343.09,458.30 L344.16,457.99 L345.23,457.28 L346.30,456.13 L347.37,454.51 L348.44,452.57 L349.51,450.50 L350.58,448.67 L351.65,447.45 L352.72,447.18 L353.80,447.95 L354.87,449.67 L355.94,451.86 L357.01,453.92 L358.08,455.21 L359.15,455.43 L360.22,454.66 L361.29,453.61 L362.36,453.27 L363.43,454.79 L364.50,458.77 L365.57,465.14 L366.65,472.69 L367.72,479.62 L368.79,483.59 L369.86,483.01 L370.93,476.89 L372.00,466.22" fill="none" stroke="#e0e0e0" stroke-width="1.4"/>
<text x="235" y="390" fill="#666" font-family="monospace" font-size="9">10</text>
<rect x="380" y="376" width="152" height="152" fill="#0b0b0b" stroke="#444"/>
<line x1="388" y1="452.00" x2="524" y2="452.00" stroke="#292929"/>
<path d="M388.00,452.00 L389.07,437.66 L390.14,427.09 L391.21,421.71 L392.28,422.65 L393.35,428.98 L394.43,438.90 L395.50,449.73 L396.57,459.13 L397.64,465.29 L398.71,467.60 L399.78,466.29 L400.85,462.45 L401.92,457.33 L402.99,452.20 L404.06,447.89 L405.13,444.89 L406.20,443.22 L407.28,442.73 L408.35,443.09 L409.42,444.04 L410.49,445.29 L411.56,446.68 L412.63,448.02 L413.70,449.19 L414.77,450.06 L415.84,450.59 L416.91,450.73 L417.98,450.53 L419.06,450.07 L420.13,449.48 L421.20,448.86 L422.27,448.34 L423.34,447.97 L424.41,447.79 L425.48,447.77 L426.55,447.90 L427.62,448.11 L428.69,448.36 L429.76,448.60 L430.83,448.81 L431.91,448.98 L432.98,449.10 L434.05,449.18 L435.12,449.25 L436.19,449.31 L437.26,449.38 L438.33,449.46 L439.40,449.55 L440.47,449.66 L441.54,449.79 L442.61,449.93 L443.69,450.07 L444.76,450.22 L445.83,450.38 L446.90,450.53 L447.97,450.69 L449.04,450.85 L450.11,451.01 L451.18,451.17 L452.25,451.33 L453.32,451.50 L454.39,451.67 L455.46,451.83 L456.54,452.00 L457.61,452.17 L458.68,452.33 L459.75,452.50 L460.82,452.67 L461.89,452.83 L462.96,452.99 L464.03,453.15 L465.10,453.31 L466.17,453.47 L467.24,453.62 L468.31,453.78 L469.39,453.93 L470.46,454.07 L471.53,454.21 L472.60,454.34 L473.67,454.45 L474.74,454.54 L475.81,454.62 L476.88,454.69 L477.95,454.75 L479.02,454.82 L480.09,454.90 L481.17,455.02 L482.24,455.19 L483.31,455.40 L484.38,455.64 L485.45,455.89 L486.52,456.10 L487.59,456.23 L488.66,456.21 L489.73,456.03 L490.80,455.66 L491.87,455.14 L492.94,454.52 L494.02,453.93 L495.09,453.47 L496.16,453.27 L497.23,453.41 L498.30,453.94 L499.37,454.81 L500.44,455.98 L501.51,457.32 L502.58,458.71 L503.65,459.96 L504.72,460.91 L505.80,461.27 L506.87,460.78 L507.94,459.11 L509.01,456.11 L510.08,451.80 L511.15,446.67 L512.22,441.55 L513.29,437.71 L514.36,436.40 L515.43,438.71 L516.50,444.87 L517.57,454.27 L518.65,465.10 L519.72,475.02 L520.79,481.35 L521.86,482.29 L522.93,476.91 L524.00,466.34" fill="none" stroke="#e0e0e0" stroke-width="1.4"/>
<text x="387" y="390" fill="#666" font-family="monospace" font-size="9">11</text>
<rect x="532" y="376" width="152" height="152" fill="#0b0b0b" stroke="#444"/>
<line x1="540" y1="452.00" x2="676" y2="452.00" stroke="#292929"/>
<path d="M540.00,452.00 L541.07,436.68 L542.14,426.21 L543.21,422.69 L544.28,427.09 L545.35,437.53 L546.43,450.79 L547.50,462.78 L548.57,470.30 L549.64,471.61 L550.71,467.06 L551.78,458.56 L552.85,449.03 L553.92,441.17 L554.99,436.92 L556.06,436.78 L557.13,440.09 L558.20,445.23 L559.28,450.43 L560.35,454.19 L561.42,455.75 L562.49,455.12 L563.56,452.96 L564.63,450.17 L565.70,447.69 L566.77,446.11 L567.84,445.66 L568.91,446.16 L569.98,447.24 L571.06,448.43 L572.13,449.38 L573.20,449.88 L574.27,449.92 L575.34,449.61 L576.41,449.16 L577.48,448.73 L578.55,448.45 L579.62,448.36 L580.69,448.45 L581.76,448.64 L582.83,448.88 L583.91,449.10 L584.98,449.26 L586.05,449.37 L587.12,449.44 L588.19,449.48 L589.26,449.53 L590.33,449.60 L591.40,449.69 L592.47,449.80 L593.54,449.93 L594.61,450.07 L595.69,450.22 L596.76,450.36 L597.83,450.50 L598.90,450.64 L599.97,450.78 L601.04,450.93 L602.11,451.07 L603.18,451.22 L604.25,451.38 L605.32,451.53 L606.39,451.69 L607.46,451.84 L608.54,452.00 L609.61,452.16 L610.68,452.31 L611.75,452.47 L612.82,452.62 L613.89,452.78 L614.96,452.93 L616.03,453.07 L617.10,453.22 L618.17,453.36 L619.24,453.50 L620.31,453.64 L621.39,453.78 L622.46,453.93 L623.53,454.07 L624.60,454.20 L625.67,454.31 L626.74,454.40 L627.81,454.47 L628.88,454.52 L629.95,454.56 L631.02,454.63 L632.09,454.74 L633.17,454.90 L634.24,455.12 L635.31,455.36 L636.38,455.55 L637.45,455.64 L638.52,455.55 L639.59,455.27 L640.66,454.84 L641.73,454.39 L642.80,454.08 L643.87,454.12 L644.94,454.62 L646.02,455.57 L647.09,456.76 L648.16,457.84 L649.23,458.34 L650.30,457.89 L651.37,456.31 L652.44,453.83 L653.51,451.04 L654.58,448.88 L655.65,448.25 L656.72,449.81 L657.80,453.57 L658.87,458.77 L659.94,463.91 L661.01,467.22 L662.08,467.08 L663.15,462.83 L664.22,454.97 L665.29,445.44 L666.36,436.94 L667.43,432.39 L668.50,433.70 L669.57,441.22 L670.65,453.21 L671.72,466.47 L672.79,476.91 L673.86,481.31 L674.93,477.79 L676.00,467.32" fill="none" stroke="#e0e0e0" stroke-width="1.4"/>
<text x="539" y="390" fill="#666" font-family="monospace" font-size="9">12</text>
<rect x="76" y="528" width="152" height="152" fill="#0b0b0b" stroke="#444"/>
<line x1="84" y1="604.00" x2="220" y2="604.00" stroke="#292929"/>
<path d="M84.00,604.00 L85.07,597.46 L86.14,592.46 L87.21,588.06 L88.28,585.02 L89.35,583.19 L90.43,582.84 L91.50,583.65 L92.57,585.55 L93.64,588.06 L94.71,590.92 L95.78,593.64 L96.85,595.99 L97.92,597.63 L98.99,598.50 L100.06,598.48 L101.13,597.73 L102.20,596.37 L103.28,594.68 L104.35,592.89 L105.42,591.30 L106.49,590.08 L107.56,589.46 L108.63,589.46 L109.70,590.15 L110.77,591.41 L111.84,593.17 L112.91,595.22 L113.98,597.42 L115.06,599.56 L116.13,601.53 L117.20,603.19 L118.27,604.49 L119.34,605.38 L120.41,605.91 L121.48,606.10 L122.55,606.04 L123.62,605.79 L124.69,605.45 L125.76,605.07 L126.83,604.71 L127.91,604.41 L128.98,604.20 L130.05,604.05 L131.12,603.98 L132.19,603.96 L133.26,603.98 L134.33,604.00 L135.40,604.02 L136.47,604.02 L137.54,604.00 L138.61,603.95 L139.69,603.88 L140.76,603.80 L141.83,603.71 L142.90,603.64 L143.97,603.58 L145.04,603.54 L146.11,603.53 L147.18,603.55 L148.25,603.60 L149.32,603.67 L150.39,603.77 L151.46,603.88 L152.54,604.00 L153.61,604.12 L154.68,604.23 L155.75,604.33 L156.82,604.40 L157.89,604.45 L158.96,604.47 L160.03,604.46 L161.10,604.42 L162.17,604.36 L163.24,604.29 L164.31,604.20 L165.39,604.12 L166.46,604.05 L167.53,604.00 L168.60,603.98 L169.67,603.98 L170.74,604.00 L171.81,604.02 L172.88,604.04 L173.95,604.02 L175.02,603.95 L176.09,603.80 L177.17,603.59 L178.24,603.29 L179.31,602.93 L180.38,602.55 L181.45,602.21 L182.52,601.96 L183.59,601.90 L184.66,602.09 L185.73,602.62 L186.80,603.51 L187.87,604.81 L188.94,606.47 L190.02,608.44 L191.09,610.58 L192.16,612.78 L193.23,614.83 L194.30,616.59 L195.37,617.85 L196.44,618.54 L197.51,618.54 L198.58,617.92 L199.65,616.70 L200.72,615.11 L201.80,613.32 L202.87,611.63 L203.94,610.27 L205.01,609.52 L206.08,609.50 L207.15,610.37 L208.22,612.01 L209.29,614.36 L210.36,617.08 L211.43,619.94 L212.50,622.45 L213.57,624.35 L214.65,625.16 L215.72,624.81 L216.79,622.98 L217.86,619.94 L218.93,615.54 L220.00,610.54" fill="none" stroke="#e0e0e0" stroke-width="1.4"/>
<text x="83" y="542" fill="#666" font-family="monospace" font-size="9">13</text>
<rect x="228" y="528" width="152" height="152" fill="#0b0b0b" stroke="#444"/>
<line x1="236" y1="604.00" x2="372" y2="604.00" stroke="#292929"/>
<path d="M236.00,604.00 L237.07,596.76 L238.14,591.00 L239.21,586.08 L240.28,582.78 L241.35,581.06 L242.43,581.20 L243.50,582.95 L244.57,586.20 L245.64,590.45 L246.71,595.36 L247.78,600.37 L248.85,605.11 L249.92,609.10 L250.99,612.12 L252.06,613.94 L253.13,614.57 L254.20,614.02 L255.28,612.51 L256.35,610.22 L257.42,607.46 L258.49,604.47 L259.56,601.55 L260.63,598.87 L261.70,596.63 L262.77,594.88 L263.84,593.69 L264.91,593.03 L265.98,592.86 L267.06,593.08 L268.13,593.64 L269.20,594.40 L270.27,595.31 L271.34,596.29 L272.41,597.28 L273.48,598.24 L274.55,599.14 L275.62,599.96 L276.69,600.68 L277.76,601.29 L278.83,601.80 L279.91,602.18 L280.98,602.44 L282.05,602.58 L283.12,602.60 L284.19,602.51 L285.26,602.34 L286.33,602.09 L287.40,601.80 L288.47,601.49 L289.54,601.20 L290.61,600.93 L291.69,600.73 L292.76,600.59 L293.83,600.55 L294.90,600.60 L295.97,600.73 L297.04,600.95 L298.11,601.25 L299.18,601.62 L300.25,602.03 L301.32,602.49 L302.39,602.98 L303.46,603.48 L304.54,604.00 L305.61,604.52 L306.68,605.02 L307.75,605.51 L308.82,605.97 L309.89,606.38 L310.96,606.75 L312.03,607.05 L313.10,607.27 L314.17,607.40 L315.24,607.45 L316.31,607.41 L317.39,607.27 L318.46,607.07 L319.53,606.80 L320.60,606.51 L321.67,606.20 L322.74,605.91 L323.81,605.66 L324.88,605.49 L325.95,605.40 L327.02,605.42 L328.09,605.56 L329.17,605.82 L330.24,606.20 L331.31,606.71 L332.38,607.32 L333.45,608.04 L334.52,608.86 L335.59,609.76 L336.66,610.72 L337.73,611.71 L338.80,612.69 L339.87,613.60 L340.94,614.36 L342.02,614.92 L343.09,615.14 L344.16,614.97 L345.23,614.31 L346.30,613.12 L347.37,611.37 L348.44,609.13 L349.51,606.45 L350.58,603.53 L351.65,600.54 L352.72,597.78 L353.80,595.49 L354.87,593.98 L355.94,593.43 L357.01,594.06 L358.08,595.88 L359.15,598.90 L360.22,602.89 L361.29,607.63 L362.36,612.64 L363.43,617.55 L364.50,621.80 L365.57,625.05 L366.65,626.80 L367.72,626.94 L368.79,625.22 L369.86,621.92 L370.93,617.00 L372.00,611.24" fill="none" stroke="#e0e0e0" stroke-width="1.4"/>
<text x="235" y="542" fill="#666" font-family="monospace" font-size="9">14</text>
<rect x="380" y="528" width="152" height="152" fill="#0b0b0b" stroke="#444"/>
<line x1="388" y1="604.00" x2="524" y2="604.00" stroke="#292929"/>
<path d="M388.00,604.00 L389.07,594.96 L390.14,587.97 L391.21,582.78 L392.28,580.42 L393.35,580.86 L394.43,584.12 L395.50,589.48 L396.57,596.23 L397.64,603.24 L398.71,609.61 L399.78,614.40 L400.85,617.09 L401.92,617.37 L402.99,615.41 L404.06,611.58 L405.13,606.62 L406.20,601.25 L407.28,596.32 L408.35,592.42 L409.42,590.04 L410.49,589.31 L411.56,590.18 L412.63,592.29 L413.70,595.19 L414.77,598.29 L415.84,601.11 L416.91,603.20 L417.98,604.33 L419.06,604.42 L420.13,603.59 L421.20,602.09 L422.27,600.26 L423.34,598.45 L424.41,596.99 L425.48,596.07 L426.55,595.84 L427.62,596.25 L428.69,597.19 L429.76,598.46 L430.83,599.83 L431.91,601.06 L432.98,601.99 L434.05,602.50 L435.12,602.57 L436.19,602.23 L437.26,601.62 L438.33,600.86 L439.40,600.12 L440.47,599.53 L441.54,599.20 L442.61,599.16 L443.69,599.45 L444.76,600.00 L445.83,600.75 L446.90,601.60 L447.97,602.46 L449.04,603.24 L450.11,603.88 L451.18,604.33 L452.25,604.57 L453.32,604.63 L454.39,604.52 L455.46,604.29 L456.54,604.00 L457.61,603.71 L458.68,603.48 L459.75,603.37 L460.82,603.43 L461.89,603.67 L462.96,604.12 L464.03,604.76 L465.10,605.54 L466.17,606.40 L467.24,607.25 L468.31,608.00 L469.39,608.55 L470.46,608.84 L471.53,608.80 L472.60,608.47 L473.67,607.88 L474.74,607.14 L475.81,606.38 L476.88,605.77 L477.95,605.43 L479.02,605.50 L480.09,606.01 L481.17,606.94 L482.24,608.17 L483.31,609.54 L484.38,610.81 L485.45,611.75 L486.52,612.16 L487.59,611.93 L488.66,611.01 L489.73,609.55 L490.80,607.74 L491.87,605.91 L492.94,604.41 L494.02,603.58 L495.09,603.67 L496.16,604.80 L497.23,606.89 L498.30,609.71 L499.37,612.81 L500.44,615.71 L501.51,617.82 L502.58,618.69 L503.65,617.96 L504.72,615.58 L505.80,611.68 L506.87,606.75 L507.94,601.38 L509.01,596.42 L510.08,592.59 L511.15,590.63 L512.22,590.91 L513.29,593.60 L514.36,598.39 L515.43,604.76 L516.50,611.77 L517.57,618.52 L518.65,623.88 L519.72,627.14 L520.79,627.58 L521.86,625.22 L522.93,620.03 L524.00,613.04" fill="none" stroke="#e0e0e0" stroke-width="1.4"/>
<text x="387" y="542" fill="#666" font-family="monospace" font-size="9">15</text>
<rect x="532" y="528" width="152" height="152" fill="#0b0b0b" stroke="#444"/>
<line x1="540" y1="604.00" x2="676" y2="604.00" stroke="#292929"/>
<path d="M540.00,604.00 L541.07,591.77 L542.14,583.09 L543.21,578.43 L544.28,578.95 L545.35,583.76 L546.43,591.52 L547.50,599.84 L548.57,606.75 L549.64,610.62 L550.71,611.06 L551.78,608.49 L552.85,604.35 L553.92,600.23 L554.99,597.68 L556.06,597.43 L557.13,599.50 L558.20,602.96 L559.28,606.50 L560.35,608.65 L561.42,608.47 L562.49,605.63 L563.56,600.70 L564.63,594.82 L565.70,589.51 L566.77,586.09 L567.84,585.40 L568.91,587.54 L569.98,591.88 L571.06,597.25 L572.13,602.31 L573.20,605.86 L574.27,607.24 L575.34,606.35 L576.41,603.73 L577.48,600.28 L578.55,597.05 L579.62,594.84 L580.69,594.15 L581.76,594.93 L582.83,596.78 L583.91,599.03 L584.98,601.01 L586.05,602.17 L587.12,602.31 L588.19,601.52 L589.26,600.17 L590.33,598.76 L591.40,597.75 L592.47,597.46 L593.54,597.97 L594.61,599.14 L595.69,600.67 L596.76,602.17 L597.83,603.33 L598.90,603.91 L599.97,603.90 L601.04,603.39 L602.11,602.62 L603.18,601.88 L604.25,601.43 L605.32,601.42 L606.39,601.92 L607.46,602.84 L608.54,604.00 L609.61,605.16 L610.68,606.08 L611.75,606.58 L612.82,606.57 L613.89,606.12 L614.96,605.38 L616.03,604.61 L617.10,604.10 L618.17,604.09 L619.24,604.67 L620.31,605.83 L621.39,607.33 L622.46,608.86 L623.53,610.03 L624.60,610.54 L625.67,610.25 L626.74,609.24 L627.81,607.83 L628.88,606.48 L629.95,605.69 L631.02,605.83 L632.09,606.99 L633.17,608.97 L634.24,611.22 L635.31,613.07 L636.38,613.85 L637.45,613.16 L638.52,610.95 L639.59,607.72 L640.66,604.27 L641.73,601.65 L642.80,600.76 L643.87,602.14 L644.94,605.69 L646.02,610.75 L647.09,616.12 L648.16,620.46 L649.23,622.60 L650.30,621.91 L651.37,618.49 L652.44,613.18 L653.51,607.30 L654.58,602.37 L655.65,599.53 L656.72,599.35 L657.80,601.50 L658.87,605.04 L659.94,608.50 L661.01,610.57 L662.08,610.32 L663.15,607.77 L664.22,603.65 L665.29,599.51 L666.36,596.94 L667.43,597.38 L668.50,601.25 L669.57,608.16 L670.65,616.48 L671.72,624.24 L672.79,629.05 L673.86,629.57 L674.93,624.91 L676.00,616.23" fill="none" stroke="#e0e0e0" stroke-width="1.4"/>
<text x="539" y="542" fill="#666" font-family="monospace" font-size="9">16</text>
</svg>
