<svg xmlns="http://www.w3.org/2000/svg" width="760" height="760" viewBox="0 0 760 760">
<rect width="760" height="760" fill="#161616"/>
<text x="24" y="32" fill="#dedede" font-family="monospace" font-size="15">S3G VOT / BODY / BASS</text>
<text x="684" y="724" text-anchor="end" fill="#858585" font-family="monospace" font-size="11">U / BRIGHTNESS</text>
<text x="24" y="72" fill="#858585" font-family="monospace" font-size="11">V / BODY AND ASYMMETRY</text>
<text x="76" y="724" fill="#858585" font-family="monospace" font-size="11">ENERGY / LEVEL MATCHED</text>
<rect x="76" y="72" width="152" height="152" fill="#0b0b0b" stroke="#444"/>
<line x1="84" y1="148.00" x2="220" y2="148.00" stroke="#292929"/>
<path d="M84.00,148.00 L85.07,146.99 L86.14,145.97 L87.21,144.97 L88.28,143.97 L89.35,142.98 L90.43,142.00 L91.50,141.04 L92.57,140.09 L93.64,139.16 L94.71,138.26 L95.78,137.37 L96.85,136.52 L97.92,135.69 L98.99,134.89 L100.06,134.12 L101.13,133.38 L102.20,132.68 L103.28,132.02 L104.35,131.40 L105.42,130.81 L106.49,130.27 L107.56,129.77 L108.63,129.31 L109.70,128.90 L110.77,128.54 L111.84,128.22 L112.91,127.95 L113.98,127.73 L115.06,127.55 L116.13,127.43 L117.20,127.35 L118.27,127.33 L119.34,127.35 L120.41,127.43 L121.48,127.55 L122.55,127.73 L123.62,127.95 L124.69,128.22 L125.76,128.54 L126.83,128.90 L127.91,129.31 L128.98,129.77 L130.05,130.27 L131.12,130.81 L132.19,131.40 L133.26,132.02 L134.33,132.68 L135.40,133.38 L136.47,134.12 L137.54,134.89 L138.61,135.69 L139.69,136.52 L140.76,137.37 L141.83,138.26 L142.90,139.16 L143.97,140.09 L145.04,141.04 L146.11,142.00 L147.18,142.98 L148.25,143.97 L149.32,144.97 L150.39,145.97 L151.46,146.99 L152.54,148.00 L153.61,149.01 L154.68,150.03 L155.75,151.03 L156.82,152.03 L157.89,153.02 L158.96,154.00 L160.03,154.96 L161.10,155.91 L162.17,156.84 L163.24,157.74 L164.31,158.63 L165.39,159.48 L166.46,160.31 L167.53,161.11 L168.60,161.88 L169.67,162.62 L170.74,163.32 L171.81,163.98 L172.88,164.60 L173.95,165.19 L175.02,165.73 L176.09,166.23 L177.17,166.69 L178.24,167.10 L179.31,167.46 L180.38,167.78 L181.45,168.05 L182.52,168.27 L183.59,168.45 L184.66,168.57 L185.73,168.65 L186.80,168.67 L187.87,168.65 L188.94,168.57 L190.02,168.45 L191.09,168.27 L192.16,168.05 L193.23,167.78 L194.30,167.46 L195.37,167.10 L196.44,166.69 L197.51,166.23 L198.58,165.73 L199.65,165.19 L200.72,164.60 L201.80,163.98 L202.87,163.32 L203.94,162.62 L205.01,161.88 L206.08,161.11 L207.15,160.31 L208.22,159.48 L209.29,158.63 L210.36,157.74 L211.43,156.84 L212.50,155.91 L213.57,154.96 L214.65,154.00 L215.72,153.02 L216.79,152.03 L217.86,151.03 L218.93,150.03 L220.00,149.01" fill="none" stroke="#e0e0e0" stroke-width="1.4"/>
<text x="83" y="86" fill="#666" font-family="monospace" font-size="9">01</text>
<rect x="228" y="72" width="152" height="152" fill="#0b0b0b" stroke="#444"/>
<line x1="236" y1="148.00" x2="372" y2="148.00" stroke="#292929"/>
<path d="M236.00,148.00 L237.07,145.81 L238.14,143.73 L239.21,141.84 L240.28,140.17 L241.35,138.68 L242.43,137.37 L243.50,136.20 L244.57,135.16 L245.64,134.23 L246.71,133.39 L247.78,132.65 L248.85,131.99 L249.92,131.42 L250.99,130.92 L252.06,130.50 L253.13,130.14 L254.20,129.85 L255.28,129.62 L256.35,129.45 L257.42,129.32 L258.49,129.25 L259.56,129.21 L260.63,129.20 L261.70,129.23 L262.77,129.29 L263.84,129.36 L264.91,129.45 L265.98,129.56 L267.06,129.68 L268.13,129.81 L269.20,129.94 L270.27,130.09 L271.34,130.24 L272.41,130.39 L273.48,130.55 L274.55,130.72 L275.62,130.89 L276.69,131.08 L277.76,131.28 L278.83,131.49 L279.91,131.72 L280.98,131.97 L282.05,132.24 L283.12,132.54 L284.19,132.86 L285.26,133.22 L286.33,133.61 L287.40,134.03 L288.47,134.49 L289.54,135.00 L290.61,135.54 L291.69,136.14 L292.76,136.77 L293.83,137.46 L294.90,138.19 L295.97,138.98 L297.04,139.82 L298.11,140.73 L299.18,141.72 L300.25,142.79 L301.32,143.95 L302.39,145.22 L303.46,146.58 L304.54,148.00 L305.61,149.42 L306.68,150.78 L307.75,152.05 L308.82,153.21 L309.89,154.28 L310.96,155.27 L312.03,156.18 L313.10,157.02 L314.17,157.81 L315.24,158.54 L316.31,159.23 L317.39,159.86 L318.46,160.46 L319.53,161.00 L320.60,161.51 L321.67,161.97 L322.74,162.39 L323.81,162.78 L324.88,163.14 L325.95,163.46 L327.02,163.76 L328.09,164.03 L329.17,164.28 L330.24,164.51 L331.31,164.72 L332.38,164.92 L333.45,165.11 L334.52,165.28 L335.59,165.45 L336.66,165.61 L337.73,165.76 L338.80,165.91 L339.87,166.06 L340.94,166.19 L342.02,166.32 L343.09,166.44 L344.16,166.55 L345.23,166.64 L346.30,166.71 L347.37,166.77 L348.44,166.80 L349.51,166.79 L350.58,166.75 L351.65,166.68 L352.72,166.55 L353.80,166.38 L354.87,166.15 L355.94,165.86 L357.01,165.50 L358.08,165.08 L359.15,164.58 L360.22,164.01 L361.29,163.35 L362.36,162.61 L363.43,161.77 L364.50,160.84 L365.57,159.80 L366.65,158.63 L367.72,157.32 L368.79,155.83 L369.86,154.16 L370.93,152.27 L372.00,150.19" fill="none" stroke="#e0e0e0" stroke-width="1.4"/>
<text x="235" y="86" fill="#666" font-family="monospace" font-size="9">02</text>
<rect x="380" y="72" width="152" height="152" fill="#0b0b0b" stroke="#444"/>
<line x1="388" y1="148.00" x2="524" y2="148.00" stroke="#292929"/>
<path d="M388.00,148.00 L389.07,140.76 L390.14,135.25 L391.21,131.61 L392.28,129.21 L393.35,127.55 L394.43,126.34 L395.50,125.43 L396.57,124.76 L397.64,124.29 L398.71,124.00 L399.78,123.89 L400.85,123.95 L401.92,124.17 L402.99,124.54 L404.06,125.05 L405.13,125.70 L406.20,126.45 L407.28,127.30 L408.35,128.23 L409.42,129.21 L410.49,130.24 L411.56,131.29 L412.63,132.34 L413.70,133.37 L414.77,134.37 L415.84,135.32 L416.91,136.21 L417.98,137.03 L419.06,137.77 L420.13,138.42 L421.20,138.97 L422.27,139.43 L423.34,139.78 L424.41,140.04 L425.48,140.20 L426.55,140.27 L427.62,140.26 L428.69,140.16 L429.76,139.99 L430.83,139.77 L431.91,139.49 L432.98,139.18 L434.05,138.83 L435.12,138.48 L436.19,138.12 L437.26,137.76 L438.33,137.43 L439.40,137.13 L440.47,136.87 L441.54,136.67 L442.61,136.52 L443.69,136.44 L444.76,136.43 L445.83,136.49 L446.90,136.64 L447.97,136.87 L449.04,137.19 L450.11,137.63 L451.18,138.20 L452.25,138.99 L453.32,140.14 L454.39,141.88 L455.46,144.53 L456.54,148.00 L457.61,151.47 L458.68,154.12 L459.75,155.86 L460.82,157.01 L461.89,157.80 L462.96,158.37 L464.03,158.81 L465.10,159.13 L466.17,159.36 L467.24,159.51 L468.31,159.57 L469.39,159.56 L470.46,159.48 L471.53,159.33 L472.60,159.13 L473.67,158.87 L474.74,158.57 L475.81,158.24 L476.88,157.88 L477.95,157.52 L479.02,157.17 L480.09,156.82 L481.17,156.51 L482.24,156.23 L483.31,156.01 L484.38,155.84 L485.45,155.74 L486.52,155.73 L487.59,155.80 L488.66,155.96 L489.73,156.22 L490.80,156.57 L491.87,157.03 L492.94,157.58 L494.02,158.23 L495.09,158.97 L496.16,159.79 L497.23,160.68 L498.30,161.63 L499.37,162.63 L500.44,163.66 L501.51,164.71 L502.58,165.76 L503.65,166.79 L504.72,167.77 L505.80,168.70 L506.87,169.55 L507.94,170.30 L509.01,170.95 L510.08,171.46 L511.15,171.83 L512.22,172.05 L513.29,172.11 L514.36,172.00 L515.43,171.71 L516.50,171.24 L517.57,170.57 L518.65,169.66 L519.72,168.45 L520.79,166.79 L521.86,164.39 L522.93,160.75 L524.00,155.24" fill="none" stroke="#e0e0e0" stroke-width="1.4"/>
<text x="387" y="86" fill="#666" font-family="monospace" font-size="9">03</text>
<rect x="532" y="72" width="152" height="152" fill="#0b0b0b" stroke="#444"/>
<line x1="540" y1="148.00" x2="676" y2="148.00" stroke="#292929"/>
<path d="M540.00,148.00 L541.07,133.15 L542.14,126.68 L543.21,124.70 L544.28,123.37 L545.35,122.89 L546.43,122.39 L547.50,121.97 L548.57,121.90 L549.64,121.74 L550.71,121.89 L551.78,122.21 L552.85,122.58 L553.92,123.29 L554.99,124.06 L556.06,124.99 L557.13,126.15 L558.20,127.31 L559.28,128.66 L560.35,130.07 L561.42,131.48 L562.49,133.02 L563.56,134.47 L564.63,135.93 L565.70,137.40 L566.77,138.72 L567.84,140.03 L568.91,141.23 L569.98,142.26 L571.06,143.26 L572.13,144.05 L573.20,144.73 L574.27,145.30 L575.34,145.65 L576.41,145.93 L577.48,146.04 L578.55,146.00 L579.62,145.89 L580.69,145.61 L581.76,145.25 L582.83,144.83 L583.91,144.26 L584.98,143.70 L586.05,143.06 L587.12,142.36 L588.19,141.72 L589.26,141.00 L590.33,140.33 L591.40,139.72 L592.47,139.07 L593.54,138.56 L594.61,138.07 L595.69,137.61 L596.76,137.33 L597.83,137.02 L598.90,136.82 L599.97,136.75 L601.04,136.62 L602.11,136.68 L603.18,136.75 L604.25,136.82 L605.32,137.30 L606.39,138.07 L607.46,141.03 L608.54,148.00 L609.61,154.97 L610.68,157.93 L611.75,158.70 L612.82,159.18 L613.89,159.25 L614.96,159.32 L616.03,159.38 L617.10,159.25 L618.17,159.18 L619.24,158.98 L620.31,158.67 L621.39,158.39 L622.46,157.93 L623.53,157.44 L624.60,156.93 L625.67,156.28 L626.74,155.67 L627.81,155.00 L628.88,154.28 L629.95,153.64 L631.02,152.94 L632.09,152.30 L633.17,151.74 L634.24,151.17 L635.31,150.75 L636.38,150.39 L637.45,150.11 L638.52,150.00 L639.59,149.96 L640.66,150.07 L641.73,150.35 L642.80,150.70 L643.87,151.27 L644.94,151.95 L646.02,152.74 L647.09,153.74 L648.16,154.77 L649.23,155.97 L650.30,157.28 L651.37,158.60 L652.44,160.07 L653.51,161.53 L654.58,162.98 L655.65,164.52 L656.72,165.93 L657.80,167.34 L658.87,168.69 L659.94,169.85 L661.01,171.01 L662.08,171.94 L663.15,172.71 L664.22,173.42 L665.29,173.79 L666.36,174.11 L667.43,174.26 L668.50,174.10 L669.57,174.03 L670.65,173.61 L671.72,173.11 L672.79,172.63 L673.86,171.30 L674.93,169.32 L676.00,162.85" fill="none" stroke="#e0e0e0" stroke-width="1.4"/>
<text x="539" y="86" fill="#666" font-family="monospace" font-size="9">04</text>
<rect x="76" y="224" width="152" height="152" fill="#0b0b0b" stroke="#444"/>
<line x1="84" y1="300.00" x2="220" y2="300.00" stroke="#292929"/>
<path d="M84.00,300.00 L85.07,298.99 L86.14,297.97 L87.21,296.97 L88.28,295.97 L89.35,294.98 L90.43,294.00 L91.50,293.04 L92.57,292.09 L93.64,291.16 L94.71,290.26 L95.78,289.37 L96.85,288.52 L97.92,287.69 L98.99,286.89 L100.06,286.12 L101.13,285.38 L102.20,284.68 L103.28,284.02 L104.35,283.40 L105.42,282.81 L106.49,282.27 L107.56,281.77 L108.63,281.31 L109.70,280.90 L110.77,280.54 L111.84,280.22 L112.91,279.95 L113.98,279.73 L115.06,279.55 L116.13,279.43 L117.20,279.35 L118.27,279.33 L119.34,279.35 L120.41,279.43 L121.48,279.55 L122.55,279.73 L123.62,279.95 L124.69,280.22 L125.76,280.54 L126.83,280.90 L127.91,281.31 L128.98,281.77 L130.05,282.27 L131.12,282.81 L132.19,283.40 L133.26,284.02 L134.33,284.68 L135.40,285.38 L136.47,286.12 L137.54,286.89 L138.61,287.69 L139.69,288.52 L140.76,289.37 L141.83,290.26 L142.90,291.16 L143.97,292.09 L145.04,293.04 L146.11,294.00 L147.18,294.98 L148.25,295.97 L149.32,296.97 L150.39,297.97 L151.46,298.99 L152.54,300.00 L153.61,301.01 L154.68,302.03 L155.75,303.03 L156.82,304.03 L157.89,305.02 L158.96,306.00 L160.03,306.96 L161.10,307.91 L162.17,308.84 L163.24,309.74 L164.31,310.63 L165.39,311.48 L166.46,312.31 L167.53,313.11 L168.60,313.88 L169.67,314.62 L170.74,315.32 L171.81,315.98 L172.88,316.60 L173.95,317.19 L175.02,317.73 L176.09,318.23 L177.17,318.69 L178.24,319.10 L179.31,319.46 L180.38,319.78 L181.45,320.05 L182.52,320.27 L183.59,320.45 L184.66,320.57 L185.73,320.65 L186.80,320.67 L187.87,320.65 L188.94,320.57 L190.02,320.45 L191.09,320.27 L192.16,320.05 L193.23,319.78 L194.30,319.46 L195.37,319.10 L196.44,318.69 L197.51,318.23 L198.58,317.73 L199.65,317.19 L200.72,316.60 L201.80,315.98 L202.87,315.32 L203.94,314.62 L205.01,313.88 L206.08,313.11 L207.15,312.31 L208.22,311.48 L209.29,310.63 L210.36,309.74 L211.43,308.84 L212.50,307.91 L213.57,306.96 L214.65,306.00 L215.72,305.02 L216.79,304.03 L217.86,303.03 L218.93,302.03 L220.00,301.01" fill="none" stroke="#e0e0e0" stroke-width="1.4"/>
<text x="83" y="238" fill="#666" font-family="monospace" font-size="9">05</text>
<rect x="228" y="224" width="152" height="152" fill="#0b0b0b" stroke="#444"/>
<line x1="236" y1="300.00" x2="372" y2="300.00" stroke="#292929"/>
<path d="M236.00,300.00 L237.07,297.36 L238.14,294.86 L239.21,292.62 L240.28,290.66 L241.35,288.98 L242.43,287.55 L243.50,286.35 L244.57,285.36 L245.64,284.54 L246.71,283.89 L247.78,283.38 L248.85,283.00 L249.92,282.74 L250.99,282.56 L252.06,282.46 L253.13,282.42 L254.20,282.41 L255.28,282.44 L256.35,282.47 L257.42,282.50 L258.49,282.53 L259.56,282.54 L260.63,282.53 L261.70,282.51 L262.77,282.47 L263.84,282.41 L264.91,282.35 L265.98,282.28 L267.06,282.21 L268.13,282.15 L269.20,282.11 L270.27,282.09 L271.34,282.09 L272.41,282.13 L273.48,282.19 L274.55,282.29 L275.62,282.43 L276.69,282.61 L277.76,282.81 L278.83,283.06 L279.91,283.34 L280.98,283.64 L282.05,283.98 L283.12,284.35 L284.19,284.75 L285.26,285.17 L286.33,285.63 L287.40,286.11 L288.47,286.63 L289.54,287.18 L290.61,287.77 L291.69,288.40 L292.76,289.07 L293.83,289.78 L294.90,290.54 L295.97,291.35 L297.04,292.21 L298.11,293.13 L299.18,294.11 L300.25,295.16 L301.32,296.27 L302.39,297.46 L303.46,298.71 L304.54,300.00 L305.61,301.29 L306.68,302.54 L307.75,303.73 L308.82,304.84 L309.89,305.89 L310.96,306.87 L312.03,307.79 L313.10,308.65 L314.17,309.46 L315.24,310.22 L316.31,310.93 L317.39,311.60 L318.46,312.23 L319.53,312.82 L320.60,313.37 L321.67,313.89 L322.74,314.37 L323.81,314.83 L324.88,315.25 L325.95,315.65 L327.02,316.02 L328.09,316.36 L329.17,316.66 L330.24,316.94 L331.31,317.19 L332.38,317.39 L333.45,317.57 L334.52,317.71 L335.59,317.81 L336.66,317.87 L337.73,317.91 L338.80,317.91 L339.87,317.89 L340.94,317.85 L342.02,317.79 L343.09,317.72 L344.16,317.65 L345.23,317.59 L346.30,317.53 L347.37,317.49 L348.44,317.47 L349.51,317.46 L350.58,317.47 L351.65,317.50 L352.72,317.53 L353.80,317.56 L354.87,317.59 L355.94,317.58 L357.01,317.54 L358.08,317.44 L359.15,317.26 L360.22,317.00 L361.29,316.62 L362.36,316.11 L363.43,315.46 L364.50,314.64 L365.57,313.65 L366.65,312.45 L367.72,311.02 L368.79,309.34 L369.86,307.38 L370.93,305.14 L372.00,302.64" fill="none" stroke="#e0e0e0" stroke-width="1.4"/>
<text x="235" y="238" fill="#666" font-family="monospace" font-size="9">06</text>
<rect x="380" y="224" width="152" height="152" fill="#0b0b0b" stroke="#444"/>
<line x1="388" y1="300.00" x2="524" y2="300.00" stroke="#292929"/>
<path d="M388.00,300.00 L389.07,291.19 L390.14,284.34 L391.21,279.68 L392.28,276.53 L393.35,274.40 L394.43,272.97 L395.50,272.10 L396.57,271.73 L397.64,271.78 L398.71,272.24 L399.78,273.05 L400.85,274.16 L401.92,275.52 L402.99,277.06 L404.06,278.73 L405.13,280.45 L406.20,282.17 L407.28,283.83 L408.35,285.39 L409.42,286.81 L410.49,288.06 L411.56,289.12 L412.63,289.99 L413.70,290.67 L414.77,291.16 L415.84,291.49 L416.91,291.67 L417.98,291.74 L419.06,291.71 L420.13,291.61 L421.20,291.48 L422.27,291.32 L423.34,291.16 L424.41,291.01 L425.48,290.88 L426.55,290.77 L427.62,290.69 L428.69,290.63 L429.76,290.59 L430.83,290.56 L431.91,290.53 L432.98,290.50 L434.05,290.47 L435.12,290.42 L436.19,290.36 L437.26,290.28 L438.33,290.20 L439.40,290.12 L440.47,290.04 L441.54,289.98 L442.61,289.95 L443.69,289.96 L444.76,290.04 L445.83,290.18 L446.90,290.40 L447.97,290.71 L449.04,291.13 L450.11,291.66 L451.18,292.32 L452.25,293.15 L453.32,294.22 L454.39,295.65 L455.46,297.59 L456.54,300.00 L457.61,302.41 L458.68,304.35 L459.75,305.78 L460.82,306.85 L461.89,307.68 L462.96,308.34 L464.03,308.87 L465.10,309.29 L466.17,309.60 L467.24,309.82 L468.31,309.96 L469.39,310.04 L470.46,310.05 L471.53,310.02 L472.60,309.96 L473.67,309.88 L474.74,309.80 L475.81,309.72 L476.88,309.64 L477.95,309.58 L479.02,309.53 L480.09,309.50 L481.17,309.47 L482.24,309.44 L483.31,309.41 L484.38,309.37 L485.45,309.31 L486.52,309.23 L487.59,309.12 L488.66,308.99 L489.73,308.84 L490.80,308.68 L491.87,308.52 L492.94,308.39 L494.02,308.29 L495.09,308.26 L496.16,308.33 L497.23,308.51 L498.30,308.84 L499.37,309.33 L500.44,310.01 L501.51,310.88 L502.58,311.94 L503.65,313.19 L504.72,314.61 L505.80,316.17 L506.87,317.83 L507.94,319.55 L509.01,321.27 L510.08,322.94 L511.15,324.48 L512.22,325.84 L513.29,326.95 L514.36,327.76 L515.43,328.22 L516.50,328.27 L517.57,327.90 L518.65,327.03 L519.72,325.60 L520.79,323.47 L521.86,320.32 L522.93,315.66 L524.00,308.81" fill="none" stroke="#e0e0e0" stroke-width="1.4"/>
<text x="387" y="238" fill="#666" font-family="monospace" font-size="9">07</text>
<rect x="532" y="224" width="152" height="152" fill="#0b0b0b" stroke="#444"/>
<line x1="540" y1="300.00" x2="676" y2="300.00" stroke="#292929"/>
<path d="M540.00,300.00 L541.07,283.39 L542.14,275.54 L543.21,272.49 L544.28,270.33 L545.35,269.31 L546.43,268.56 L547.50,268.22 L548.57,268.56 L549.64,269.09 L550.71,270.22 L551.78,271.73 L552.85,273.46 L553.92,275.63 L554.99,277.88 L556.06,280.26 L557.13,282.75 L558.20,285.06 L559.28,287.37 L560.35,289.48 L561.42,291.31 L562.49,292.99 L563.56,294.31 L564.63,295.38 L565.70,296.23 L566.77,296.74 L567.84,297.11 L568.91,297.25 L569.98,297.21 L571.06,297.13 L572.13,296.89 L573.20,296.64 L574.27,296.39 L575.34,296.08 L576.41,295.86 L577.48,295.63 L578.55,295.42 L579.62,295.29 L580.69,295.13 L581.76,295.02 L582.83,294.93 L583.91,294.77 L584.98,294.67 L586.05,294.49 L587.12,294.27 L588.19,294.06 L589.26,293.76 L590.33,293.45 L591.40,293.13 L592.47,292.75 L593.54,292.43 L594.61,292.09 L595.69,291.79 L596.76,291.59 L597.83,291.39 L598.90,291.32 L599.97,291.36 L601.04,291.43 L602.11,291.69 L603.18,292.00 L604.25,292.40 L605.32,293.06 L606.39,293.91 L607.46,295.93 L608.54,300.00 L609.61,304.07 L610.68,306.09 L611.75,306.94 L612.82,307.60 L613.89,308.00 L614.96,308.31 L616.03,308.57 L617.10,308.64 L618.17,308.68 L619.24,308.61 L620.31,308.41 L621.39,308.21 L622.46,307.91 L623.53,307.57 L624.60,307.25 L625.67,306.87 L626.74,306.55 L627.81,306.24 L628.88,305.94 L629.95,305.73 L631.02,305.51 L632.09,305.33 L633.17,305.23 L634.24,305.07 L635.31,304.98 L636.38,304.87 L637.45,304.71 L638.52,304.58 L639.59,304.37 L640.66,304.14 L641.73,303.92 L642.80,303.61 L643.87,303.36 L644.94,303.11 L646.02,302.87 L647.09,302.79 L648.16,302.75 L649.23,302.89 L650.30,303.26 L651.37,303.77 L652.44,304.62 L653.51,305.69 L654.58,307.01 L655.65,308.69 L656.72,310.52 L657.80,312.63 L658.87,314.94 L659.94,317.25 L661.01,319.74 L662.08,322.12 L663.15,324.37 L664.22,326.54 L665.29,328.27 L666.36,329.78 L667.43,330.91 L668.50,331.44 L669.57,331.78 L670.65,331.44 L671.72,330.69 L672.79,329.67 L673.86,327.51 L674.93,324.46 L676.00,316.61" fill="none" stroke="#e0e0e0" stroke-width="1.4"/>
<text x="539" y="238" fill="#666" font-family="monospace" font-size="9">08</text>
<rect x="76" y="376" width="152" height="152" fill="#0b0b0b" stroke="#444"/>
<line x1="84" y1="452.00" x2="220" y2="452.00" stroke="#292929"/>
<path d="M84.00,452.00 L85.07,450.99 L86.14,449.97 L87.21,448.97 L88.28,447.97 L89.35,446.98 L90.43,446.00 L91.50,445.04 L92.57,444.09 L93.64,443.16 L94.71,442.26 L95.78,441.37 L96.85,440.52 L97.92,439.69 L98.99,438.89 L100.06,438.12 L101.13,437.38 L102.20,436.68 L103.28,436.02 L104.35,435.40 L105.42,434.81 L106.49,434.27 L107.56,433.77 L108.63,433.31 L109.70,432.90 L110.77,432.54 L111.84,432.22 L112.91,431.95 L113.98,431.73 L115.06,431.55 L116.13,431.43 L117.20,431.35 L118.27,431.33 L119.34,431.35 L120.41,431.43 L121.48,431.55 L122.55,431.73 L123.62,431.95 L124.69,432.22 L125.76,432.54 L126.83,432.90 L127.91,433.31 L128.98,433.77 L130.05,434.27 L131.12,434.81 L132.19,435.40 L133.26,436.02 L134.33,436.68 L135.40,437.38 L136.47,438.12 L137.54,438.89 L138.61,439.69 L139.69,440.52 L140.76,441.37 L141.83,442.26 L142.90,443.16 L143.97,444.09 L145.04,445.04 L146.11,446.00 L147.18,446.98 L148.25,447.97 L149.32,448.97 L150.39,449.97 L151.46,450.99 L152.54,452.00 L153.61,453.01 L154.68,454.03 L155.75,455.03 L156.82,456.03 L157.89,457.02 L158.96,458.00 L160.03,458.96 L161.10,459.91 L162.17,460.84 L163.24,461.74 L164.31,462.63 L165.39,463.48 L166.46,464.31 L167.53,465.11 L168.60,465.88 L169.67,466.62 L170.74,467.32 L171.81,467.98 L172.88,468.60 L173.95,469.19 L175.02,469.73 L176.09,470.23 L177.17,470.69 L178.24,471.10 L179.31,471.46 L180.38,471.78 L181.45,472.05 L182.52,472.27 L183.59,472.45 L184.66,472.57 L185.73,472.65 L186.80,472.67 L187.87,472.65 L188.94,472.57 L190.02,472.45 L191.09,472.27 L192.16,472.05 L193.23,471.78 L194.30,471.46 L195.37,471.10 L196.44,470.69 L197.51,470.23 L198.58,469.73 L199.65,469.19 L200.72,468.60 L201.80,467.98 L202.87,467.32 L203.94,466.62 L205.01,465.88 L206.08,465.11 L207.15,464.31 L208.22,463.48 L209.29,462.63 L210.36,461.74 L211.43,460.84 L212.50,459.91 L213.57,458.96 L214.65,458.00 L215.72,457.02 L216.79,456.03 L217.86,455.03 L218.93,454.03 L220.00,453.01" fill="none" stroke="#e0e0e0" stroke-width="1.4"/>
<text x="83" y="390" fill="#666" font-family="monospace" font-size="9">09</text>
<rect x="228" y="376" width="152" height="152" fill="#0b0b0b" stroke="#444"/>
<line x1="236" y1="452.00" x2="372" y2="452.00" stroke="#292929"/>
<path d="M236.00,452.00 L237.07,449.20 L238.14,446.60 L239.21,444.32 L240.28,442.40 L241.35,440.86 L242.43,439.64 L243.50,438.72 L244.57,438.05 L245.64,437.59 L246.71,437.29 L247.78,437.11 L248.85,437.01 L249.92,436.94 L250.99,436.88 L252.06,436.78 L253.13,436.64 L254.20,436.43 L255.28,436.15 L256.35,435.80 L257.42,435.40 L258.49,434.95 L259.56,434.47 L260.63,433.99 L261.70,433.53 L262.77,433.09 L263.84,432.71 L264.91,432.40 L265.98,432.16 L267.06,432.00 L268.13,431.92 L269.20,431.92 L270.27,432.00 L271.34,432.15 L272.41,432.36 L273.48,432.63 L274.55,432.94 L275.62,433.30 L276.69,433.69 L277.76,434.11 L278.83,434.55 L279.91,435.02 L280.98,435.51 L282.05,436.02 L283.12,436.55 L284.19,437.09 L285.26,437.66 L286.33,438.25 L287.40,438.86 L288.47,439.49 L289.54,440.14 L290.61,440.81 L291.69,441.51 L292.76,442.23 L293.83,442.98 L294.90,443.76 L295.97,444.56 L297.04,445.39 L298.11,446.25 L299.18,447.14 L300.25,448.06 L301.32,449.01 L302.39,449.99 L303.46,450.99 L304.54,452.00 L305.61,453.01 L306.68,454.01 L307.75,454.99 L308.82,455.94 L309.89,456.86 L310.96,457.75 L312.03,458.61 L313.10,459.44 L314.17,460.24 L315.24,461.02 L316.31,461.77 L317.39,462.49 L318.46,463.19 L319.53,463.86 L320.60,464.51 L321.67,465.14 L322.74,465.75 L323.81,466.34 L324.88,466.91 L325.95,467.45 L327.02,467.98 L328.09,468.49 L329.17,468.98 L330.24,469.45 L331.31,469.89 L332.38,470.31 L333.45,470.70 L334.52,471.06 L335.59,471.37 L336.66,471.64 L337.73,471.85 L338.80,472.00 L339.87,472.08 L340.94,472.08 L342.02,472.00 L343.09,471.84 L344.16,471.60 L345.23,471.29 L346.30,470.91 L347.37,470.47 L348.44,470.01 L349.51,469.53 L350.58,469.05 L351.65,468.60 L352.72,468.20 L353.80,467.85 L354.87,467.57 L355.94,467.36 L357.01,467.22 L358.08,467.12 L359.15,467.06 L360.22,466.99 L361.29,466.89 L362.36,466.71 L363.43,466.41 L364.50,465.95 L365.57,465.28 L366.65,464.36 L367.72,463.14 L368.79,461.60 L369.86,459.68 L370.93,457.40 L372.00,454.80" fill="none" stroke="#e0e0e0" stroke-width="1.4"/>
<text x="235" y="390" fill="#666" font-family="monospace" font-size="9">10</text>
<rect x="380" y="376" width="152" height="152" fill="#0b0b0b" stroke="#444"/>
<line x1="388" y1="452.00" x2="524" y2="452.00" stroke="#292929"/>
<path d="M388.00,452.00 L389.07,441.30 L390.14,433.12 L391.21,427.80 L392.28,424.58 L393.35,422.87 L394.43,422.28 L395.50,422.61 L396.57,423.70 L397.64,425.38 L398.71,427.52 L399.78,429.92 L400.85,432.43 L401.92,434.87 L402.99,437.10 L404.06,439.00 L405.13,440.48 L406.20,441.50 L407.28,442.04 L408.35,442.13 L409.42,441.83 L410.49,441.22 L411.56,440.39 L412.63,439.44 L413.70,438.46 L414.77,437.54 L415.84,436.75 L416.91,436.13 L417.98,435.72 L419.06,435.54 L420.13,435.57 L421.20,435.80 L422.27,436.19 L423.34,436.71 L424.41,437.33 L425.48,438.00 L426.55,438.69 L427.62,439.37 L428.69,440.03 L429.76,440.65 L430.83,441.23 L431.91,441.75 L432.98,442.22 L434.05,442.64 L435.12,443.02 L436.19,443.36 L437.26,443.67 L438.33,443.95 L439.40,444.21 L440.47,444.46 L441.54,444.71 L442.61,444.95 L443.69,445.20 L444.76,445.46 L445.83,445.75 L446.90,446.06 L447.97,446.42 L449.04,446.82 L450.11,447.27 L451.18,447.78 L452.25,448.37 L453.32,449.05 L454.39,449.86 L455.46,450.85 L456.54,452.00 L457.61,453.15 L458.68,454.14 L459.75,454.95 L460.82,455.63 L461.89,456.22 L462.96,456.73 L464.03,457.18 L465.10,457.58 L466.17,457.94 L467.24,458.25 L468.31,458.54 L469.39,458.80 L470.46,459.05 L471.53,459.29 L472.60,459.54 L473.67,459.79 L474.74,460.05 L475.81,460.33 L476.88,460.64 L477.95,460.98 L479.02,461.36 L480.09,461.78 L481.17,462.25 L482.24,462.77 L483.31,463.35 L484.38,463.97 L485.45,464.63 L486.52,465.31 L487.59,466.00 L488.66,466.67 L489.73,467.29 L490.80,467.81 L491.87,468.20 L492.94,468.43 L494.02,468.46 L495.09,468.28 L496.16,467.87 L497.23,467.25 L498.30,466.46 L499.37,465.54 L500.44,464.56 L501.51,463.61 L502.58,462.78 L503.65,462.17 L504.72,461.87 L505.80,461.96 L506.87,462.50 L507.94,463.52 L509.01,465.00 L510.08,466.90 L511.15,469.13 L512.22,471.57 L513.29,474.08 L514.36,476.48 L515.43,478.62 L516.50,480.30 L517.57,481.39 L518.65,481.72 L519.72,481.13 L520.79,479.42 L521.86,476.20 L522.93,470.88 L524.00,462.70" fill="none" stroke="#e0e0e0" stroke-width="1.4"/>
<text x="387" y="390" fill="#666" font-family="monospace" font-size="9">11</text>
<rect x="532" y="376" width="152" height="152" fill="#0b0b0b" stroke="#444"/>
<line x1="540" y1="452.00" x2="676" y2="452.00" stroke="#292929"/>
<path d="M540.00,452.00 L541.07,431.40 L542.14,421.69 L543.21,418.14 L544.28,416.05 L545.35,415.79 L546.43,416.27 L547.50,417.64 L548.57,420.11 L549.64,422.96 L550.71,426.53 L551.78,430.36 L552.85,434.10 L553.92,437.89 L554.99,441.13 L556.06,443.89 L557.13,446.07 L558.20,447.41 L559.28,448.18 L560.35,448.25 L561.42,447.70 L562.49,446.85 L563.56,445.59 L564.63,444.23 L565.70,442.90 L566.77,441.59 L567.84,440.59 L568.91,439.80 L569.98,439.29 L571.06,439.17 L572.13,439.25 L573.20,439.63 L574.27,440.22 L575.34,440.90 L576.41,441.74 L577.48,442.57 L578.55,443.38 L579.62,444.21 L580.69,444.89 L581.76,445.54 L582.83,446.10 L583.91,446.52 L584.98,446.92 L586.05,447.20 L587.12,447.42 L588.19,447.62 L589.26,447.71 L590.33,447.81 L591.40,447.86 L592.47,447.85 L593.54,447.88 L594.61,447.85 L595.69,447.82 L596.76,447.84 L597.83,447.81 L598.90,447.87 L599.97,447.95 L601.04,448.04 L602.11,448.25 L603.18,448.46 L604.25,448.74 L605.32,449.15 L606.39,449.60 L607.46,450.48 L608.54,452.00 L609.61,453.52 L610.68,454.40 L611.75,454.85 L612.82,455.26 L613.89,455.54 L614.96,455.75 L616.03,455.96 L617.10,456.05 L618.17,456.13 L619.24,456.19 L620.31,456.16 L621.39,456.18 L622.46,456.15 L623.53,456.12 L624.60,456.15 L625.67,456.14 L626.74,456.19 L627.81,456.29 L628.88,456.38 L629.95,456.58 L631.02,456.80 L632.09,457.08 L633.17,457.48 L634.24,457.90 L635.31,458.46 L636.38,459.11 L637.45,459.79 L638.52,460.62 L639.59,461.43 L640.66,462.26 L641.73,463.10 L642.80,463.78 L643.87,464.37 L644.94,464.75 L646.02,464.83 L647.09,464.71 L648.16,464.20 L649.23,463.41 L650.30,462.41 L651.37,461.10 L652.44,459.77 L653.51,458.41 L654.58,457.15 L655.65,456.30 L656.72,455.75 L657.80,455.82 L658.87,456.59 L659.94,457.93 L661.01,460.11 L662.08,462.87 L663.15,466.11 L664.22,469.90 L665.29,473.64 L666.36,477.47 L667.43,481.04 L668.50,483.89 L669.57,486.36 L670.65,487.73 L671.72,488.21 L672.79,487.95 L673.86,485.86 L674.93,482.31 L676.00,472.60" fill="none" stroke="#e0e0e0" stroke-width="1.4"/>
<text x="539" y="390" fill="#666" font-family="monospace" font-size="9">12</text>
<rect x="76" y="528" width="152" height="152" fill="#0b0b0b" stroke="#444"/>
<line x1="84" y1="604.00" x2="220" y2="604.00" stroke="#292929"/>
<path d="M84.00,604.00 L85.07,602.99 L86.14,601.97 L87.21,600.97 L88.28,599.97 L89.35,598.98 L90.43,598.00 L91.50,597.04 L92.57,596.09 L93.64,595.16 L94.71,594.26 L95.78,593.37 L96.85,592.52 L97.92,591.69 L98.99,590.89 L100.06,590.12 L101.13,589.38 L102.20,588.68 L103.28,588.02 L104.35,587.40 L105.42,586.81 L106.49,586.27 L107.56,585.77 L108.63,585.31 L109.70,584.90 L110.77,584.54 L111.84,584.22 L112.91,583.95 L113.98,583.73 L115.06,583.55 L116.13,583.43 L117.20,583.35 L118.27,583.33 L119.34,583.35 L120.41,583.43 L121.48,583.55 L122.55,583.73 L123.62,583.95 L124.69,584.22 L125.76,584.54 L126.83,584.90 L127.91,585.31 L128.98,585.77 L130.05,586.27 L131.12,586.81 L132.19,587.40 L133.26,588.02 L134.33,588.68 L135.40,589.38 L136.47,590.12 L137.54,590.89 L138.61,591.69 L139.69,592.52 L140.76,593.37 L141.83,594.26 L142.90,595.16 L143.97,596.09 L145.04,597.04 L146.11,598.00 L147.18,598.98 L148.25,599.97 L149.32,600.97 L150.39,601.97 L151.46,602.99 L152.54,604.00 L153.61,605.01 L154.68,606.03 L155.75,607.03 L156.82,608.03 L157.89,609.02 L158.96,610.00 L160.03,610.96 L161.10,611.91 L162.17,612.84 L163.24,613.74 L164.31,614.63 L165.39,615.48 L166.46,616.31 L167.53,617.11 L168.60,617.88 L169.67,618.62 L170.74,619.32 L171.81,619.98 L172.88,620.60 L173.95,621.19 L175.02,621.73 L176.09,622.23 L177.17,622.69 L178.24,623.10 L179.31,623.46 L180.38,623.78 L181.45,624.05 L182.52,624.27 L183.59,624.45 L184.66,624.57 L185.73,624.65 L186.80,624.67 L187.87,624.65 L188.94,624.57 L190.02,624.45 L191.09,624.27 L192.16,624.05 L193.23,623.78 L194.30,623.46 L195.37,623.10 L196.44,622.69 L197.51,622.23 L198.58,621.73 L199.65,621.19 L200.72,620.60 L201.80,619.98 L202.87,619.32 L203.94,618.62 L205.01,617.88 L206.08,617.11 L207.15,616.31 L208.22,615.48 L209.29,614.63 L210.36,613.74 L211.43,612.84 L212.50,611.91 L213.57,610.96 L214.65,610.00 L215.72,609.02 L216.79,608.03 L217.86,607.03 L218.93,606.03 L220.00,605.01" fill="none" stroke="#e0e0e0" stroke-width="1.4"/>
<text x="83" y="542" fill="#666" font-family="monospace" font-size="9">13</text>
<rect x="228" y="528" width="152" height="152" fill="#0b0b0b" stroke="#444"/>
<line x1="236" y1="604.00" x2="372" y2="604.00" stroke="#292929"/>
<path d="M236.00,604.00 L237.07,601.14 L238.14,598.50 L239.21,596.25 L240.28,594.44 L241.35,593.05 L242.43,592.05 L243.50,591.35 L244.57,590.88 L245.64,590.58 L246.71,590.35 L247.78,590.14 L248.85,589.90 L249.92,589.58 L250.99,589.18 L252.06,588.67 L253.13,588.09 L254.20,587.44 L255.28,586.78 L256.35,586.12 L257.42,585.52 L258.49,584.99 L259.56,584.56 L260.63,584.24 L261.70,584.04 L262.77,583.93 L263.84,583.92 L264.91,583.97 L265.98,584.08 L267.06,584.22 L268.13,584.37 L269.20,584.54 L270.27,584.71 L271.34,584.89 L272.41,585.08 L273.48,585.28 L274.55,585.50 L275.62,585.75 L276.69,586.04 L277.76,586.37 L278.83,586.74 L279.91,587.15 L280.98,587.61 L282.05,588.11 L283.12,588.64 L284.19,589.21 L285.26,589.82 L286.33,590.45 L287.40,591.12 L288.47,591.81 L289.54,592.54 L290.61,593.30 L291.69,594.08 L292.76,594.89 L293.83,595.72 L294.90,596.57 L295.97,597.43 L297.04,598.30 L298.11,599.16 L299.18,600.02 L300.25,600.86 L301.32,601.67 L302.39,602.47 L303.46,603.24 L304.54,604.00 L305.61,604.76 L306.68,605.53 L307.75,606.33 L308.82,607.14 L309.89,607.98 L310.96,608.84 L312.03,609.70 L313.10,610.57 L314.17,611.43 L315.24,612.28 L316.31,613.11 L317.39,613.92 L318.46,614.70 L319.53,615.46 L320.60,616.19 L321.67,616.88 L322.74,617.55 L323.81,618.18 L324.88,618.79 L325.95,619.36 L327.02,619.89 L328.09,620.39 L329.17,620.85 L330.24,621.26 L331.31,621.63 L332.38,621.96 L333.45,622.25 L334.52,622.50 L335.59,622.72 L336.66,622.92 L337.73,623.11 L338.80,623.29 L339.87,623.46 L340.94,623.63 L342.02,623.78 L343.09,623.92 L344.16,624.03 L345.23,624.08 L346.30,624.07 L347.37,623.96 L348.44,623.76 L349.51,623.44 L350.58,623.01 L351.65,622.48 L352.72,621.88 L353.80,621.22 L354.87,620.56 L355.94,619.91 L357.01,619.33 L358.08,618.82 L359.15,618.42 L360.22,618.10 L361.29,617.86 L362.36,617.65 L363.43,617.42 L364.50,617.12 L365.57,616.65 L366.65,615.95 L367.72,614.95 L368.79,613.56 L369.86,611.75 L370.93,609.50 L372.00,606.86" fill="none" stroke="#e0e0e0" stroke-width="1.4"/>
<text x="235" y="542" fill="#666" font-family="monospace" font-size="9">14</text>
<rect x="380" y="528" width="152" height="152" fill="#0b0b0b" stroke="#444"/>
<line x1="388" y1="604.00" x2="524" y2="604.00" stroke="#292929"/>
<path d="M388.00,604.00 L389.07,592.10 L390.14,583.20 L391.21,577.81 L392.28,575.07 L393.35,574.29 L394.43,574.95 L395.50,576.67 L396.57,579.13 L397.64,581.95 L398.71,584.81 L399.78,587.39 L400.85,589.46 L401.92,590.85 L402.99,591.48 L404.06,591.38 L405.13,590.67 L406.20,589.51 L407.28,588.12 L408.35,586.71 L409.42,585.47 L410.49,584.56 L411.56,584.07 L412.63,584.04 L413.70,584.43 L414.77,585.18 L415.84,586.19 L416.91,587.32 L417.98,588.48 L419.06,589.55 L420.13,590.47 L421.20,591.20 L422.27,591.73 L423.34,592.08 L424.41,592.29 L425.48,592.40 L426.55,592.48 L427.62,592.57 L428.69,592.69 L429.76,592.89 L430.83,593.15 L431.91,593.49 L432.98,593.87 L434.05,594.30 L435.12,594.74 L436.19,595.20 L437.26,595.66 L438.33,596.12 L439.40,596.58 L440.47,597.06 L441.54,597.57 L442.61,598.12 L443.69,598.71 L444.76,599.35 L445.83,600.02 L446.90,600.71 L447.97,601.41 L449.04,602.10 L450.11,602.74 L451.18,603.32 L452.25,603.80 L453.32,604.16 L454.39,604.34 L455.46,604.27 L456.54,604.00 L457.61,603.73 L458.68,603.66 L459.75,603.84 L460.82,604.20 L461.89,604.68 L462.96,605.26 L464.03,605.90 L465.10,606.59 L466.17,607.29 L467.24,607.98 L468.31,608.65 L469.39,609.29 L470.46,609.88 L471.53,610.43 L472.60,610.94 L473.67,611.42 L474.74,611.88 L475.81,612.34 L476.88,612.80 L477.95,613.26 L479.02,613.70 L480.09,614.13 L481.17,614.51 L482.24,614.85 L483.31,615.11 L484.38,615.31 L485.45,615.43 L486.52,615.52 L487.59,615.60 L488.66,615.71 L489.73,615.92 L490.80,616.27 L491.87,616.80 L492.94,617.53 L494.02,618.45 L495.09,619.52 L496.16,620.68 L497.23,621.81 L498.30,622.82 L499.37,623.57 L500.44,623.96 L501.51,623.93 L502.58,623.44 L503.65,622.53 L504.72,621.29 L505.80,619.88 L506.87,618.49 L507.94,617.33 L509.01,616.62 L510.08,616.52 L511.15,617.15 L512.22,618.54 L513.29,620.61 L514.36,623.19 L515.43,626.05 L516.50,628.87 L517.57,631.33 L518.65,633.05 L519.72,633.71 L520.79,632.93 L521.86,630.19 L522.93,624.80 L524.00,615.90" fill="none" stroke="#e0e0e0" stroke-width="1.4"/>
<text x="387" y="542" fill="#666" font-family="monospace" font-size="9">15</text>
<rect x="532" y="528" width="152" height="152" fill="#0b0b0b" stroke="#444"/>
<line x1="540" y1="604.00" x2="676" y2="604.00" stroke="#292929"/>
<path d="M540.00,604.00 L541.07,580.54 L542.14,569.74 L543.21,566.33 L544.28,565.08 L545.35,566.38 L546.43,568.86 L547.50,572.50 L548.57,577.25 L549.64,582.01 L550.71,586.89 L551.78,591.16 L552.85,594.37 L553.92,596.65 L554.99,597.51 L556.06,597.26 L557.13,596.13 L558.20,594.17 L559.28,592.04 L560.35,589.88 L561.42,588.00 L562.49,586.80 L563.56,586.16 L564.63,586.31 L565.70,587.13 L566.77,588.37 L567.84,590.06 L568.91,591.81 L569.98,593.50 L571.06,595.07 L572.13,596.23 L573.20,597.12 L574.27,597.66 L575.34,597.84 L576.41,597.89 L577.48,597.74 L578.55,597.56 L579.62,597.47 L580.69,597.37 L581.76,597.45 L582.83,597.62 L583.91,597.84 L584.98,598.21 L586.05,598.54 L587.12,598.90 L588.19,599.27 L589.26,599.54 L590.33,599.86 L591.40,600.11 L592.47,600.36 L593.54,600.70 L594.61,601.01 L595.69,601.43 L596.76,601.93 L597.83,602.43 L598.90,603.04 L599.97,603.61 L601.04,604.18 L602.11,604.74 L603.18,605.15 L604.25,605.54 L605.32,605.76 L606.39,605.78 L607.46,605.35 L608.54,604.00 L609.61,602.65 L610.68,602.22 L611.75,602.24 L612.82,602.46 L613.89,602.85 L614.96,603.26 L616.03,603.82 L617.10,604.39 L618.17,604.96 L619.24,605.57 L620.31,606.07 L621.39,606.57 L622.46,606.99 L623.53,607.30 L624.60,607.64 L625.67,607.89 L626.74,608.14 L627.81,608.46 L628.88,608.73 L629.95,609.10 L631.02,609.46 L632.09,609.79 L633.17,610.16 L634.24,610.38 L635.31,610.55 L636.38,610.63 L637.45,610.53 L638.52,610.44 L639.59,610.26 L640.66,610.11 L641.73,610.16 L642.80,610.34 L643.87,610.88 L644.94,611.77 L646.02,612.93 L647.09,614.50 L648.16,616.19 L649.23,617.94 L650.30,619.63 L651.37,620.87 L652.44,621.69 L653.51,621.84 L654.58,621.20 L655.65,620.00 L656.72,618.12 L657.80,615.96 L658.87,613.83 L659.94,611.87 L661.01,610.74 L662.08,610.49 L663.15,611.35 L664.22,613.63 L665.29,616.84 L666.36,621.11 L667.43,625.99 L668.50,630.75 L669.57,635.50 L670.65,639.14 L671.72,641.62 L672.79,642.92 L673.86,641.67 L674.93,638.26 L676.00,627.46" fill="none" stroke="#e0e0e0" stroke-width="1.4"/>
<text x="539" y="542" fill="#666" font-family="monospace" font-size="9">16</text>
</svg>
