<svg xmlns="http://www.w3.org/2000/svg" width="760" height="760" viewBox="0 0 760 760">
<rect width="760" height="760" fill="#161616"/>
<text x="24" y="32" fill="#dedede" font-family="monospace" font-size="15">S3G VOT / DIGITAL</text>
<text x="684" y="724" text-anchor="end" fill="#858585" font-family="monospace" font-size="11">U / SAMPLE RESOLUTION</text>
<text x="24" y="72" fill="#858585" font-family="monospace" font-size="11">V / AMPLITUDE RESOLUTION</text>
<text x="76" y="724" fill="#858585" font-family="monospace" font-size="11">ENERGY / LEVEL MATCHED</text>
<rect x="76" y="72" width="152" height="152" fill="#0b0b0b" stroke="#444"/>
<line x1="84" y1="148.00" x2="220" y2="148.00" stroke="#292929"/>
<path d="M84.00,149.17 L85.07,149.17 L86.14,149.17 L87.21,149.17 L88.28,149.17 L89.35,149.17 L90.43,149.17 L91.50,149.17 L92.57,149.17 L93.64,149.17 L94.71,149.17 L95.78,149.17 L96.85,149.17 L97.92,149.17 L98.99,149.17 L100.06,149.17 L101.13,132.84 L102.20,132.84 L103.28,132.84 L104.35,132.84 L105.42,132.84 L106.49,132.84 L107.56,132.84 L108.63,132.84 L109.70,132.84 L110.77,132.84 L111.84,132.84 L112.91,132.84 L113.98,132.84 L115.06,132.84 L116.13,132.84 L117.20,132.84 L118.27,128.17 L119.34,128.17 L120.41,128.17 L121.48,128.17 L122.55,128.17 L123.62,128.17 L124.69,128.17 L125.76,128.17 L126.83,128.17 L127.91,128.17 L128.98,128.17 L130.05,128.17 L131.12,128.17 L132.19,128.17 L133.26,128.17 L134.33,128.17 L135.40,132.84 L136.47,132.84 L137.54,132.84 L138.61,132.84 L139.69,132.84 L140.76,132.84 L141.83,132.84 L142.90,132.84 L143.97,132.84 L145.04,132.84 L146.11,132.84 L147.18,132.84 L148.25,132.84 L149.32,132.84 L150.39,132.84 L151.46,132.84 L152.54,146.83 L153.61,146.83 L154.68,146.83 L155.75,146.83 L156.82,146.83 L157.89,146.83 L158.96,146.83 L160.03,146.83 L161.10,146.83 L162.17,146.83 L163.24,146.83 L164.31,146.83 L165.39,146.83 L166.46,146.83 L167.53,146.83 L168.60,146.83 L169.67,163.16 L170.74,163.16 L171.81,163.16 L172.88,163.16 L173.95,163.16 L175.02,163.16 L176.09,163.16 L177.17,163.16 L178.24,163.16 L179.31,163.16 L180.38,163.16 L181.45,163.16 L182.52,163.16 L183.59,163.16 L184.66,163.16 L185.73,163.16 L186.80,167.83 L187.87,167.83 L188.94,167.83 L190.02,167.83 L191.09,167.83 L192.16,167.83 L193.23,167.83 L194.30,167.83 L195.37,167.83 L196.44,167.83 L197.51,167.83 L198.58,167.83 L199.65,167.83 L200.72,167.83 L201.80,167.83 L202.87,167.83 L203.94,163.16 L205.01,163.16 L206.08,163.16 L207.15,163.16 L208.22,163.16 L209.29,163.16 L210.36,163.16 L211.43,163.16 L212.50,163.16 L213.57,163.16 L214.65,163.16 L215.72,163.16 L216.79,163.16 L217.86,163.16 L218.93,163.16 L220.00,163.16" fill="none" stroke="#e0e0e0" stroke-width="1.4"/>
<text x="83" y="86" fill="#666" font-family="monospace" font-size="9">01</text>
<rect x="228" y="72" width="152" height="152" fill="#0b0b0b" stroke="#444"/>
<line x1="236" y1="148.00" x2="372" y2="148.00" stroke="#292929"/>
<path d="M236.00,149.19 L237.07,149.19 L238.14,149.19 L239.21,149.19 L240.28,149.19 L241.35,144.32 L242.43,144.32 L243.50,144.32 L244.57,144.32 L245.64,144.32 L246.71,139.45 L247.78,139.45 L248.85,139.45 L249.92,139.45 L250.99,139.45 L252.06,134.58 L253.13,134.58 L254.20,134.58 L255.28,134.58 L256.35,132.14 L257.42,132.14 L258.49,132.14 L259.56,132.14 L260.63,132.14 L261.70,129.71 L262.77,129.71 L263.84,129.71 L264.91,129.71 L265.98,129.71 L267.06,127.27 L268.13,127.27 L269.20,127.27 L270.27,127.27 L271.34,127.27 L272.41,127.27 L273.48,127.27 L274.55,127.27 L275.62,127.27 L276.69,127.27 L277.76,127.27 L278.83,127.27 L279.91,127.27 L280.98,127.27 L282.05,129.71 L283.12,129.71 L284.19,129.71 L285.26,129.71 L286.33,129.71 L287.40,132.14 L288.47,132.14 L289.54,132.14 L290.61,132.14 L291.69,132.14 L292.76,137.01 L293.83,137.01 L294.90,137.01 L295.97,137.01 L297.04,141.88 L298.11,141.88 L299.18,141.88 L300.25,141.88 L301.32,141.88 L302.39,146.75 L303.46,146.75 L304.54,146.75 L305.61,146.75 L306.68,146.75 L307.75,149.19 L308.82,149.19 L309.89,149.19 L310.96,149.19 L312.03,149.19 L313.10,154.06 L314.17,154.06 L315.24,154.06 L316.31,154.06 L317.39,158.93 L318.46,158.93 L319.53,158.93 L320.60,158.93 L321.67,158.93 L322.74,163.80 L323.81,163.80 L324.88,163.80 L325.95,163.80 L327.02,163.80 L328.09,166.24 L329.17,166.24 L330.24,166.24 L331.31,166.24 L332.38,166.24 L333.45,168.67 L334.52,168.67 L335.59,168.67 L336.66,168.67 L337.73,168.67 L338.80,168.67 L339.87,168.67 L340.94,168.67 L342.02,168.67 L343.09,168.67 L344.16,168.67 L345.23,168.67 L346.30,168.67 L347.37,168.67 L348.44,166.24 L349.51,166.24 L350.58,166.24 L351.65,166.24 L352.72,166.24 L353.80,163.80 L354.87,163.80 L355.94,163.80 L357.01,163.80 L358.08,161.37 L359.15,161.37 L360.22,161.37 L361.29,161.37 L362.36,161.37 L363.43,156.50 L364.50,156.50 L365.57,156.50 L366.65,156.50 L367.72,156.50 L368.79,151.62 L369.86,151.62 L370.93,151.62 L372.00,151.62" fill="none" stroke="#e0e0e0" stroke-width="1.4"/>
<text x="235" y="86" fill="#666" font-family="monospace" font-size="9">02</text>
<rect x="380" y="72" width="152" height="152" fill="#0b0b0b" stroke="#444"/>
<line x1="388" y1="148.00" x2="524" y2="148.00" stroke="#292929"/>
<path d="M388.00,149.20 L389.07,149.20 L390.14,149.20 L391.21,144.33 L392.28,144.33 L393.35,144.33 L394.43,141.90 L395.50,141.90 L396.57,141.90 L397.64,139.47 L398.71,139.47 L399.78,139.47 L400.85,137.04 L401.92,137.04 L402.99,137.04 L404.06,134.61 L405.13,134.61 L406.20,134.61 L407.28,132.18 L408.35,132.18 L409.42,129.74 L410.49,129.74 L411.56,129.74 L412.63,129.74 L413.70,129.74 L414.77,129.74 L415.84,127.31 L416.91,127.31 L417.98,127.31 L419.06,127.31 L420.13,127.31 L421.20,127.31 L422.27,127.31 L423.34,127.31 L424.41,127.31 L425.48,127.31 L426.55,127.31 L427.62,127.31 L428.69,127.31 L429.76,127.31 L430.83,129.74 L431.91,129.74 L432.98,129.74 L434.05,129.74 L435.12,129.74 L436.19,129.74 L437.26,132.18 L438.33,132.18 L439.40,132.18 L440.47,134.61 L441.54,134.61 L442.61,134.61 L443.69,137.04 L444.76,137.04 L445.83,137.04 L446.90,139.47 L447.97,139.47 L449.04,141.90 L450.11,141.90 L451.18,141.90 L452.25,144.33 L453.32,144.33 L454.39,144.33 L455.46,146.77 L456.54,146.77 L457.61,146.77 L458.68,149.20 L459.75,149.20 L460.82,149.20 L461.89,151.63 L462.96,151.63 L464.03,151.63 L465.10,154.06 L466.17,154.06 L467.24,156.49 L468.31,156.49 L469.39,156.49 L470.46,158.92 L471.53,158.92 L472.60,158.92 L473.67,161.35 L474.74,161.35 L475.81,161.35 L476.88,163.79 L477.95,163.79 L479.02,163.79 L480.09,166.22 L481.17,166.22 L482.24,166.22 L483.31,166.22 L484.38,166.22 L485.45,166.22 L486.52,168.65 L487.59,168.65 L488.66,168.65 L489.73,168.65 L490.80,168.65 L491.87,168.65 L492.94,168.65 L494.02,168.65 L495.09,168.65 L496.16,168.65 L497.23,168.65 L498.30,168.65 L499.37,168.65 L500.44,168.65 L501.51,166.22 L502.58,166.22 L503.65,166.22 L504.72,166.22 L505.80,166.22 L506.87,163.79 L507.94,163.79 L509.01,163.79 L510.08,161.35 L511.15,161.35 L512.22,161.35 L513.29,158.92 L514.36,158.92 L515.43,158.92 L516.50,156.49 L517.57,156.49 L518.65,156.49 L519.72,154.06 L520.79,154.06 L521.86,154.06 L522.93,151.63 L524.00,151.63" fill="none" stroke="#e0e0e0" stroke-width="1.4"/>
<text x="387" y="86" fill="#666" font-family="monospace" font-size="9">03</text>
<rect x="532" y="72" width="152" height="152" fill="#0b0b0b" stroke="#444"/>
<line x1="540" y1="148.00" x2="676" y2="148.00" stroke="#292929"/>
<path d="M540.00,149.20 L541.07,149.20 L542.14,146.80 L543.21,146.80 L544.28,144.41 L545.35,144.41 L546.43,142.02 L547.50,142.02 L548.57,139.63 L549.64,139.63 L550.71,137.24 L551.78,137.24 L552.85,137.24 L553.92,137.24 L554.99,134.85 L556.06,134.85 L557.13,132.46 L558.20,132.46 L559.28,132.46 L560.35,132.46 L561.42,130.07 L562.49,130.07 L563.56,130.07 L564.63,130.07 L565.70,130.07 L566.77,130.07 L567.84,127.68 L568.91,127.68 L569.98,127.68 L571.06,127.68 L572.13,127.68 L573.20,127.68 L574.27,127.68 L575.34,127.68 L576.41,127.68 L577.48,127.68 L578.55,127.68 L579.62,127.68 L580.69,127.68 L581.76,127.68 L582.83,130.07 L583.91,130.07 L584.98,130.07 L586.05,130.07 L587.12,130.07 L588.19,130.07 L589.26,132.46 L590.33,132.46 L591.40,132.46 L592.47,132.46 L593.54,134.85 L594.61,134.85 L595.69,137.24 L596.76,137.24 L597.83,137.24 L598.90,137.24 L599.97,139.63 L601.04,139.63 L602.11,142.02 L603.18,142.02 L604.25,144.41 L605.32,144.41 L606.39,146.80 L607.46,146.80 L608.54,146.80 L609.61,146.80 L610.68,149.20 L611.75,149.20 L612.82,151.59 L613.89,151.59 L614.96,153.98 L616.03,153.98 L617.10,156.37 L618.17,156.37 L619.24,158.76 L620.31,158.76 L621.39,158.76 L622.46,158.76 L623.53,161.15 L624.60,161.15 L625.67,163.54 L626.74,163.54 L627.81,163.54 L628.88,163.54 L629.95,165.93 L631.02,165.93 L632.09,165.93 L633.17,165.93 L634.24,165.93 L635.31,165.93 L636.38,168.32 L637.45,168.32 L638.52,168.32 L639.59,168.32 L640.66,168.32 L641.73,168.32 L642.80,168.32 L643.87,168.32 L644.94,168.32 L646.02,168.32 L647.09,168.32 L648.16,168.32 L649.23,168.32 L650.30,168.32 L651.37,165.93 L652.44,165.93 L653.51,165.93 L654.58,165.93 L655.65,165.93 L656.72,165.93 L657.80,163.54 L658.87,163.54 L659.94,163.54 L661.01,163.54 L662.08,161.15 L663.15,161.15 L664.22,158.76 L665.29,158.76 L666.36,158.76 L667.43,158.76 L668.50,156.37 L669.57,156.37 L670.65,153.98 L671.72,153.98 L672.79,151.59 L673.86,151.59 L674.93,149.20 L676.00,149.20" fill="none" stroke="#e0e0e0" stroke-width="1.4"/>
<text x="539" y="86" fill="#666" font-family="monospace" font-size="9">04</text>
<rect x="76" y="224" width="152" height="152" fill="#0b0b0b" stroke="#444"/>
<line x1="84" y1="300.00" x2="220" y2="300.00" stroke="#292929"/>
<path d="M84.00,312.89 L85.07,312.89 L86.14,312.89 L87.21,312.89 L88.28,312.89 L89.35,312.89 L90.43,312.89 L91.50,312.89 L92.57,312.89 L93.64,312.89 L94.71,312.89 L95.78,312.89 L96.85,312.89 L97.92,312.89 L98.99,312.89 L100.06,312.89 L101.13,290.79 L102.20,290.79 L103.28,290.79 L104.35,290.79 L105.42,290.79 L106.49,290.79 L107.56,290.79 L108.63,290.79 L109.70,290.79 L110.77,290.79 L111.84,290.79 L112.91,290.79 L113.98,290.79 L115.06,290.79 L116.13,290.79 L117.20,290.79 L118.27,276.06 L119.34,276.06 L120.41,276.06 L121.48,276.06 L122.55,276.06 L123.62,276.06 L124.69,276.06 L125.76,276.06 L126.83,276.06 L127.91,276.06 L128.98,276.06 L130.05,276.06 L131.12,276.06 L132.19,276.06 L133.26,276.06 L134.33,276.06 L135.40,283.43 L136.47,283.43 L137.54,283.43 L138.61,283.43 L139.69,283.43 L140.76,283.43 L141.83,283.43 L142.90,283.43 L143.97,283.43 L145.04,283.43 L146.11,283.43 L147.18,283.43 L148.25,283.43 L149.32,283.43 L150.39,283.43 L151.46,283.43 L152.54,298.16 L153.61,298.16 L154.68,298.16 L155.75,298.16 L156.82,298.16 L157.89,298.16 L158.96,298.16 L160.03,298.16 L161.10,298.16 L162.17,298.16 L163.24,298.16 L164.31,298.16 L165.39,298.16 L166.46,298.16 L167.53,298.16 L168.60,298.16 L169.67,312.89 L170.74,312.89 L171.81,312.89 L172.88,312.89 L173.95,312.89 L175.02,312.89 L176.09,312.89 L177.17,312.89 L178.24,312.89 L179.31,312.89 L180.38,312.89 L181.45,312.89 L182.52,312.89 L183.59,312.89 L184.66,312.89 L185.73,312.89 L186.80,320.26 L187.87,320.26 L188.94,320.26 L190.02,320.26 L191.09,320.26 L192.16,320.26 L193.23,320.26 L194.30,320.26 L195.37,320.26 L196.44,320.26 L197.51,320.26 L198.58,320.26 L199.65,320.26 L200.72,320.26 L201.80,320.26 L202.87,320.26 L203.94,305.52 L205.01,305.52 L206.08,305.52 L207.15,305.52 L208.22,305.52 L209.29,305.52 L210.36,305.52 L211.43,305.52 L212.50,305.52 L213.57,305.52 L214.65,305.52 L215.72,305.52 L216.79,305.52 L217.86,305.52 L218.93,305.52 L220.00,305.52" fill="none" stroke="#e0e0e0" stroke-width="1.4"/>
<text x="83" y="238" fill="#666" font-family="monospace" font-size="9">05</text>
<rect x="228" y="224" width="152" height="152" fill="#0b0b0b" stroke="#444"/>
<line x1="236" y1="300.00" x2="372" y2="300.00" stroke="#292929"/>
<path d="M236.00,313.66 L237.07,313.66 L238.14,313.66 L239.21,313.66 L240.28,313.66 L241.35,306.55 L242.43,306.55 L243.50,306.55 L244.57,306.55 L245.64,306.55 L246.71,299.44 L247.78,299.44 L248.85,299.44 L249.92,299.44 L250.99,299.44 L252.06,292.34 L253.13,292.34 L254.20,292.34 L255.28,292.34 L256.35,285.23 L257.42,285.23 L258.49,285.23 L259.56,285.23 L260.63,285.23 L261.70,285.23 L262.77,285.23 L263.84,285.23 L264.91,285.23 L265.98,285.23 L267.06,278.12 L268.13,278.12 L269.20,278.12 L270.27,278.12 L271.34,278.12 L272.41,278.12 L273.48,278.12 L274.55,278.12 L275.62,278.12 L276.69,278.12 L277.76,278.12 L278.83,278.12 L279.91,278.12 L280.98,278.12 L282.05,278.12 L283.12,278.12 L284.19,278.12 L285.26,278.12 L286.33,278.12 L287.40,285.23 L288.47,285.23 L289.54,285.23 L290.61,285.23 L291.69,285.23 L292.76,285.23 L293.83,285.23 L294.90,285.23 L295.97,285.23 L297.04,292.34 L298.11,292.34 L299.18,292.34 L300.25,292.34 L301.32,292.34 L302.39,299.44 L303.46,299.44 L304.54,299.44 L305.61,299.44 L306.68,299.44 L307.75,299.44 L308.82,299.44 L309.89,299.44 L310.96,299.44 L312.03,299.44 L313.10,306.55 L314.17,306.55 L315.24,306.55 L316.31,306.55 L317.39,313.66 L318.46,313.66 L319.53,313.66 L320.60,313.66 L321.67,313.66 L322.74,313.66 L323.81,313.66 L324.88,313.66 L325.95,313.66 L327.02,313.66 L328.09,320.77 L329.17,320.77 L330.24,320.77 L331.31,320.77 L332.38,320.77 L333.45,320.77 L334.52,320.77 L335.59,320.77 L336.66,320.77 L337.73,320.77 L338.80,320.77 L339.87,320.77 L340.94,320.77 L342.02,320.77 L343.09,320.77 L344.16,320.77 L345.23,320.77 L346.30,320.77 L347.37,320.77 L348.44,313.66 L349.51,313.66 L350.58,313.66 L351.65,313.66 L352.72,313.66 L353.80,313.66 L354.87,313.66 L355.94,313.66 L357.01,313.66 L358.08,306.55 L359.15,306.55 L360.22,306.55 L361.29,306.55 L362.36,306.55 L363.43,299.44 L364.50,299.44 L365.57,299.44 L366.65,299.44 L367.72,299.44 L368.79,292.34 L369.86,292.34 L370.93,292.34 L372.00,292.34" fill="none" stroke="#e0e0e0" stroke-width="1.4"/>
<text x="235" y="238" fill="#666" font-family="monospace" font-size="9">06</text>
<rect x="380" y="224" width="152" height="152" fill="#0b0b0b" stroke="#444"/>
<line x1="388" y1="300.00" x2="524" y2="300.00" stroke="#292929"/>
<path d="M388.00,313.26 L389.07,313.26 L390.14,313.26 L391.21,306.43 L392.28,306.43 L393.35,306.43 L394.43,306.43 L395.50,306.43 L396.57,306.43 L397.64,299.60 L398.71,299.60 L399.78,299.60 L400.85,299.60 L401.92,299.60 L402.99,299.60 L404.06,292.77 L405.13,292.77 L406.20,292.77 L407.28,285.94 L408.35,285.94 L409.42,285.94 L410.49,285.94 L411.56,285.94 L412.63,285.94 L413.70,285.94 L414.77,285.94 L415.84,279.11 L416.91,279.11 L417.98,279.11 L419.06,279.11 L420.13,279.11 L421.20,279.11 L422.27,279.11 L423.34,279.11 L424.41,279.11 L425.48,279.11 L426.55,279.11 L427.62,279.11 L428.69,279.11 L429.76,279.11 L430.83,279.11 L431.91,279.11 L432.98,279.11 L434.05,279.11 L435.12,279.11 L436.19,279.11 L437.26,279.11 L438.33,279.11 L439.40,279.11 L440.47,285.94 L441.54,285.94 L442.61,285.94 L443.69,285.94 L444.76,285.94 L445.83,285.94 L446.90,285.94 L447.97,285.94 L449.04,292.77 L450.11,292.77 L451.18,292.77 L452.25,292.77 L453.32,292.77 L454.39,292.77 L455.46,299.60 L456.54,299.60 L457.61,299.60 L458.68,299.60 L459.75,299.60 L460.82,299.60 L461.89,306.43 L462.96,306.43 L464.03,306.43 L465.10,306.43 L466.17,306.43 L467.24,313.26 L468.31,313.26 L469.39,313.26 L470.46,313.26 L471.53,313.26 L472.60,313.26 L473.67,313.26 L474.74,313.26 L475.81,313.26 L476.88,320.09 L477.95,320.09 L479.02,320.09 L480.09,320.09 L481.17,320.09 L482.24,320.09 L483.31,320.09 L484.38,320.09 L485.45,320.09 L486.52,320.09 L487.59,320.09 L488.66,320.09 L489.73,320.09 L490.80,320.09 L491.87,320.09 L492.94,320.09 L494.02,320.09 L495.09,320.09 L496.16,320.09 L497.23,320.09 L498.30,320.09 L499.37,320.09 L500.44,320.09 L501.51,313.26 L502.58,313.26 L503.65,313.26 L504.72,313.26 L505.80,313.26 L506.87,313.26 L507.94,313.26 L509.01,313.26 L510.08,306.43 L511.15,306.43 L512.22,306.43 L513.29,299.60 L514.36,299.60 L515.43,299.60 L516.50,299.60 L517.57,299.60 L518.65,299.60 L519.72,292.77 L520.79,292.77 L521.86,292.77 L522.93,292.77 L524.00,292.77" fill="none" stroke="#e0e0e0" stroke-width="1.4"/>
<text x="387" y="238" fill="#666" font-family="monospace" font-size="9">07</text>
<rect x="532" y="224" width="152" height="152" fill="#0b0b0b" stroke="#444"/>
<line x1="540" y1="300.00" x2="676" y2="300.00" stroke="#292929"/>
<path d="M540.00,313.52 L541.07,313.52 L542.14,313.52 L543.21,313.52 L544.28,306.65 L545.35,306.65 L546.43,306.65 L547.50,306.65 L548.57,299.79 L549.64,299.79 L550.71,299.79 L551.78,299.79 L552.85,292.92 L553.92,292.92 L554.99,292.92 L556.06,292.92 L557.13,292.92 L558.20,292.92 L559.28,286.05 L560.35,286.05 L561.42,286.05 L562.49,286.05 L563.56,286.05 L564.63,286.05 L565.70,286.05 L566.77,286.05 L567.84,279.18 L568.91,279.18 L569.98,279.18 L571.06,279.18 L572.13,279.18 L573.20,279.18 L574.27,279.18 L575.34,279.18 L576.41,279.18 L577.48,279.18 L578.55,279.18 L579.62,279.18 L580.69,279.18 L581.76,279.18 L582.83,279.18 L583.91,279.18 L584.98,279.18 L586.05,279.18 L587.12,279.18 L588.19,279.18 L589.26,279.18 L590.33,279.18 L591.40,286.05 L592.47,286.05 L593.54,286.05 L594.61,286.05 L595.69,286.05 L596.76,286.05 L597.83,286.05 L598.90,286.05 L599.97,292.92 L601.04,292.92 L602.11,292.92 L603.18,292.92 L604.25,292.92 L605.32,292.92 L606.39,299.79 L607.46,299.79 L608.54,299.79 L609.61,299.79 L610.68,299.79 L611.75,299.79 L612.82,306.65 L613.89,306.65 L614.96,306.65 L616.03,306.65 L617.10,306.65 L618.17,306.65 L619.24,313.52 L620.31,313.52 L621.39,313.52 L622.46,313.52 L623.53,313.52 L624.60,313.52 L625.67,313.52 L626.74,313.52 L627.81,320.39 L628.88,320.39 L629.95,320.39 L631.02,320.39 L632.09,320.39 L633.17,320.39 L634.24,320.39 L635.31,320.39 L636.38,320.39 L637.45,320.39 L638.52,320.39 L639.59,320.39 L640.66,320.39 L641.73,320.39 L642.80,320.39 L643.87,320.39 L644.94,320.39 L646.02,320.39 L647.09,320.39 L648.16,320.39 L649.23,320.39 L650.30,320.39 L651.37,313.52 L652.44,313.52 L653.51,313.52 L654.58,313.52 L655.65,313.52 L656.72,313.52 L657.80,313.52 L658.87,313.52 L659.94,306.65 L661.01,306.65 L662.08,306.65 L663.15,306.65 L664.22,306.65 L665.29,306.65 L666.36,299.79 L667.43,299.79 L668.50,299.79 L669.57,299.79 L670.65,292.92 L671.72,292.92 L672.79,292.92 L673.86,292.92 L674.93,286.05 L676.00,286.05" fill="none" stroke="#e0e0e0" stroke-width="1.4"/>
<text x="539" y="238" fill="#666" font-family="monospace" font-size="9">08</text>
<rect x="76" y="376" width="152" height="152" fill="#0b0b0b" stroke="#444"/>
<line x1="84" y1="452.00" x2="220" y2="452.00" stroke="#292929"/>
<path d="M84.00,486.99 L85.07,486.99 L86.14,486.99 L87.21,486.99 L88.28,486.99 L89.35,486.99 L90.43,486.99 L91.50,486.99 L92.57,486.99 L93.64,486.99 L94.71,486.99 L95.78,486.99 L96.85,486.99 L97.92,486.99 L98.99,486.99 L100.06,486.99 L101.13,457.52 L102.20,457.52 L103.28,457.52 L104.35,457.52 L105.42,457.52 L106.49,457.52 L107.56,457.52 L108.63,457.52 L109.70,457.52 L110.77,457.52 L111.84,457.52 L112.91,457.52 L113.98,457.52 L115.06,457.52 L116.13,457.52 L117.20,457.52 L118.27,442.79 L119.34,442.79 L120.41,442.79 L121.48,442.79 L122.55,442.79 L123.62,442.79 L124.69,442.79 L125.76,442.79 L126.83,442.79 L127.91,442.79 L128.98,442.79 L130.05,442.79 L131.12,442.79 L132.19,442.79 L133.26,442.79 L134.33,442.79 L135.40,442.79 L136.47,442.79 L137.54,442.79 L138.61,442.79 L139.69,442.79 L140.76,442.79 L141.83,442.79 L142.90,442.79 L143.97,442.79 L145.04,442.79 L146.11,442.79 L147.18,442.79 L148.25,442.79 L149.32,442.79 L150.39,442.79 L151.46,442.79 L152.54,442.79 L153.61,442.79 L154.68,442.79 L155.75,442.79 L156.82,442.79 L157.89,442.79 L158.96,442.79 L160.03,442.79 L161.10,442.79 L162.17,442.79 L163.24,442.79 L164.31,442.79 L165.39,442.79 L166.46,442.79 L167.53,442.79 L168.60,442.79 L169.67,457.52 L170.74,457.52 L171.81,457.52 L172.88,457.52 L173.95,457.52 L175.02,457.52 L176.09,457.52 L177.17,457.52 L178.24,457.52 L179.31,457.52 L180.38,457.52 L181.45,457.52 L182.52,457.52 L183.59,457.52 L184.66,457.52 L185.73,457.52 L186.80,442.79 L187.87,442.79 L188.94,442.79 L190.02,442.79 L191.09,442.79 L192.16,442.79 L193.23,442.79 L194.30,442.79 L195.37,442.79 L196.44,442.79 L197.51,442.79 L198.58,442.79 L199.65,442.79 L200.72,442.79 L201.80,442.79 L202.87,442.79 L203.94,442.79 L205.01,442.79 L206.08,442.79 L207.15,442.79 L208.22,442.79 L209.29,442.79 L210.36,442.79 L211.43,442.79 L212.50,442.79 L213.57,442.79 L214.65,442.79 L215.72,442.79 L216.79,442.79 L217.86,442.79 L218.93,442.79 L220.00,442.79" fill="none" stroke="#e0e0e0" stroke-width="1.4"/>
<text x="83" y="390" fill="#666" font-family="monospace" font-size="9">09</text>
<rect x="228" y="376" width="152" height="152" fill="#0b0b0b" stroke="#444"/>
<line x1="236" y1="452.00" x2="372" y2="452.00" stroke="#292929"/>
<path d="M236.00,488.72 L237.07,488.72 L238.14,488.72 L239.21,488.72 L240.28,488.72 L241.35,473.41 L242.43,473.41 L243.50,473.41 L244.57,473.41 L245.64,473.41 L246.71,473.41 L247.78,473.41 L248.85,473.41 L249.92,473.41 L250.99,473.41 L252.06,473.41 L253.13,473.41 L254.20,473.41 L255.28,473.41 L256.35,458.10 L257.42,458.10 L258.49,458.10 L259.56,458.10 L260.63,458.10 L261.70,458.10 L262.77,458.10 L263.84,458.10 L264.91,458.10 L265.98,458.10 L267.06,458.10 L268.13,458.10 L269.20,458.10 L270.27,458.10 L271.34,458.10 L272.41,442.79 L273.48,442.79 L274.55,442.79 L275.62,442.79 L276.69,442.79 L277.76,442.79 L278.83,442.79 L279.91,442.79 L280.98,442.79 L282.05,442.79 L283.12,442.79 L284.19,442.79 L285.26,442.79 L286.33,442.79 L287.40,442.79 L288.47,442.79 L289.54,442.79 L290.61,442.79 L291.69,442.79 L292.76,442.79 L293.83,442.79 L294.90,442.79 L295.97,442.79 L297.04,442.79 L298.11,442.79 L299.18,442.79 L300.25,442.79 L301.32,442.79 L302.39,442.79 L303.46,442.79 L304.54,442.79 L305.61,442.79 L306.68,442.79 L307.75,458.10 L308.82,458.10 L309.89,458.10 L310.96,458.10 L312.03,458.10 L313.10,458.10 L314.17,458.10 L315.24,458.10 L316.31,458.10 L317.39,458.10 L318.46,458.10 L319.53,458.10 L320.60,458.10 L321.67,458.10 L322.74,458.10 L323.81,458.10 L324.88,458.10 L325.95,458.10 L327.02,458.10 L328.09,458.10 L329.17,458.10 L330.24,458.10 L331.31,458.10 L332.38,458.10 L333.45,458.10 L334.52,458.10 L335.59,458.10 L336.66,458.10 L337.73,458.10 L338.80,458.10 L339.87,458.10 L340.94,458.10 L342.02,458.10 L343.09,442.79 L344.16,442.79 L345.23,442.79 L346.30,442.79 L347.37,442.79 L348.44,442.79 L349.51,442.79 L350.58,442.79 L351.65,442.79 L352.72,442.79 L353.80,442.79 L354.87,442.79 L355.94,442.79 L357.01,442.79 L358.08,427.48 L359.15,427.48 L360.22,427.48 L361.29,427.48 L362.36,427.48 L363.43,427.48 L364.50,427.48 L365.57,427.48 L366.65,427.48 L367.72,427.48 L368.79,427.48 L369.86,427.48 L370.93,427.48 L372.00,427.48" fill="none" stroke="#e0e0e0" stroke-width="1.4"/>
<text x="235" y="390" fill="#666" font-family="monospace" font-size="9">10</text>
<rect x="380" y="376" width="152" height="152" fill="#0b0b0b" stroke="#444"/>
<line x1="388" y1="452.00" x2="524" y2="452.00" stroke="#292929"/>
<path d="M388.00,487.46 L389.07,487.46 L390.14,487.46 L391.21,487.46 L392.28,487.46 L393.35,487.46 L394.43,472.87 L395.50,472.87 L396.57,472.87 L397.64,472.87 L398.71,472.87 L399.78,472.87 L400.85,472.87 L401.92,472.87 L402.99,472.87 L404.06,472.87 L405.13,472.87 L406.20,472.87 L407.28,458.27 L408.35,458.27 L409.42,458.27 L410.49,458.27 L411.56,458.27 L412.63,458.27 L413.70,458.27 L414.77,458.27 L415.84,458.27 L416.91,458.27 L417.98,458.27 L419.06,458.27 L420.13,458.27 L421.20,458.27 L422.27,458.27 L423.34,458.27 L424.41,458.27 L425.48,443.68 L426.55,443.68 L427.62,443.68 L428.69,443.68 L429.76,443.68 L430.83,443.68 L431.91,443.68 L432.98,443.68 L434.05,443.68 L435.12,443.68 L436.19,443.68 L437.26,443.68 L438.33,443.68 L439.40,443.68 L440.47,443.68 L441.54,443.68 L442.61,443.68 L443.69,443.68 L444.76,443.68 L445.83,443.68 L446.90,443.68 L447.97,443.68 L449.04,443.68 L450.11,443.68 L451.18,443.68 L452.25,443.68 L453.32,443.68 L454.39,443.68 L455.46,443.68 L456.54,443.68 L457.61,443.68 L458.68,458.27 L459.75,458.27 L460.82,458.27 L461.89,458.27 L462.96,458.27 L464.03,458.27 L465.10,458.27 L466.17,458.27 L467.24,458.27 L468.31,458.27 L469.39,458.27 L470.46,458.27 L471.53,458.27 L472.60,458.27 L473.67,458.27 L474.74,458.27 L475.81,458.27 L476.88,458.27 L477.95,458.27 L479.02,458.27 L480.09,458.27 L481.17,458.27 L482.24,458.27 L483.31,458.27 L484.38,458.27 L485.45,458.27 L486.52,458.27 L487.59,458.27 L488.66,458.27 L489.73,458.27 L490.80,458.27 L491.87,443.68 L492.94,443.68 L494.02,443.68 L495.09,443.68 L496.16,443.68 L497.23,443.68 L498.30,443.68 L499.37,443.68 L500.44,443.68 L501.51,443.68 L502.58,443.68 L503.65,443.68 L504.72,443.68 L505.80,443.68 L506.87,443.68 L507.94,443.68 L509.01,443.68 L510.08,429.08 L511.15,429.08 L512.22,429.08 L513.29,429.08 L514.36,429.08 L515.43,429.08 L516.50,429.08 L517.57,429.08 L518.65,429.08 L519.72,429.08 L520.79,429.08 L521.86,429.08 L522.93,414.49 L524.00,414.49" fill="none" stroke="#e0e0e0" stroke-width="1.4"/>
<text x="387" y="390" fill="#666" font-family="monospace" font-size="9">11</text>
<rect x="532" y="376" width="152" height="152" fill="#0b0b0b" stroke="#444"/>
<line x1="540" y1="452.00" x2="676" y2="452.00" stroke="#292929"/>
<path d="M540.00,490.15 L541.07,490.15 L542.14,490.15 L543.21,490.15 L544.28,474.79 L545.35,474.79 L546.43,474.79 L547.50,474.79 L548.57,474.79 L549.64,474.79 L550.71,474.79 L551.78,474.79 L552.85,474.79 L553.92,474.79 L554.99,474.79 L556.06,474.79 L557.13,459.44 L558.20,459.44 L559.28,459.44 L560.35,459.44 L561.42,459.44 L562.49,459.44 L563.56,459.44 L564.63,459.44 L565.70,459.44 L566.77,459.44 L567.84,459.44 L568.91,459.44 L569.98,459.44 L571.06,459.44 L572.13,459.44 L573.20,459.44 L574.27,444.08 L575.34,444.08 L576.41,444.08 L577.48,444.08 L578.55,444.08 L579.62,444.08 L580.69,444.08 L581.76,444.08 L582.83,444.08 L583.91,444.08 L584.98,444.08 L586.05,444.08 L587.12,444.08 L588.19,444.08 L589.26,444.08 L590.33,444.08 L591.40,444.08 L592.47,444.08 L593.54,444.08 L594.61,444.08 L595.69,444.08 L596.76,444.08 L597.83,444.08 L598.90,444.08 L599.97,444.08 L601.04,444.08 L602.11,444.08 L603.18,444.08 L604.25,444.08 L605.32,444.08 L606.39,444.08 L607.46,444.08 L608.54,444.08 L609.61,444.08 L610.68,459.44 L611.75,459.44 L612.82,459.44 L613.89,459.44 L614.96,459.44 L616.03,459.44 L617.10,459.44 L618.17,459.44 L619.24,459.44 L620.31,459.44 L621.39,459.44 L622.46,459.44 L623.53,459.44 L624.60,459.44 L625.67,459.44 L626.74,459.44 L627.81,459.44 L628.88,459.44 L629.95,459.44 L631.02,459.44 L632.09,459.44 L633.17,459.44 L634.24,459.44 L635.31,459.44 L636.38,459.44 L637.45,459.44 L638.52,459.44 L639.59,459.44 L640.66,459.44 L641.73,459.44 L642.80,444.08 L643.87,444.08 L644.94,444.08 L646.02,444.08 L647.09,444.08 L648.16,444.08 L649.23,444.08 L650.30,444.08 L651.37,444.08 L652.44,444.08 L653.51,444.08 L654.58,444.08 L655.65,444.08 L656.72,444.08 L657.80,444.08 L658.87,444.08 L659.94,444.08 L661.01,444.08 L662.08,428.73 L663.15,428.73 L664.22,428.73 L665.29,428.73 L666.36,428.73 L667.43,428.73 L668.50,428.73 L669.57,428.73 L670.65,428.73 L671.72,428.73 L672.79,428.73 L673.86,428.73 L674.93,413.37 L676.00,413.37" fill="none" stroke="#e0e0e0" stroke-width="1.4"/>
<text x="539" y="390" fill="#666" font-family="monospace" font-size="9">12</text>
<rect x="76" y="528" width="152" height="152" fill="#0b0b0b" stroke="#444"/>
<line x1="84" y1="604.00" x2="220" y2="604.00" stroke="#292929"/>
<path d="M84.00,620.38 L85.07,620.38 L86.14,620.38 L87.21,620.38 L88.28,620.38 L89.35,620.38 L90.43,620.38 L91.50,620.38 L92.57,620.38 L93.64,620.38 L94.71,620.38 L95.78,620.38 L96.85,620.38 L97.92,620.38 L98.99,620.38 L100.06,620.38 L101.13,620.38 L102.20,620.38 L103.28,620.38 L104.35,620.38 L105.42,620.38 L106.49,620.38 L107.56,620.38 L108.63,620.38 L109.70,620.38 L110.77,620.38 L111.84,620.38 L112.91,620.38 L113.98,620.38 L115.06,620.38 L116.13,620.38 L117.20,620.38 L118.27,620.38 L119.34,620.38 L120.41,620.38 L121.48,620.38 L122.55,620.38 L123.62,620.38 L124.69,620.38 L125.76,620.38 L126.83,620.38 L127.91,620.38 L128.98,620.38 L130.05,620.38 L131.12,620.38 L132.19,620.38 L133.26,620.38 L134.33,620.38 L135.40,601.66 L136.47,601.66 L137.54,601.66 L138.61,601.66 L139.69,601.66 L140.76,601.66 L141.83,601.66 L142.90,601.66 L143.97,601.66 L145.04,601.66 L146.11,601.66 L147.18,601.66 L148.25,601.66 L149.32,601.66 L150.39,601.66 L151.46,601.66 L152.54,601.66 L153.61,601.66 L154.68,601.66 L155.75,601.66 L156.82,601.66 L157.89,601.66 L158.96,601.66 L160.03,601.66 L161.10,601.66 L162.17,601.66 L163.24,601.66 L164.31,601.66 L165.39,601.66 L166.46,601.66 L167.53,601.66 L168.60,601.66 L169.67,601.66 L170.74,601.66 L171.81,601.66 L172.88,601.66 L173.95,601.66 L175.02,601.66 L176.09,601.66 L177.17,601.66 L178.24,601.66 L179.31,601.66 L180.38,601.66 L181.45,601.66 L182.52,601.66 L183.59,601.66 L184.66,601.66 L185.73,601.66 L186.80,582.94 L187.87,582.94 L188.94,582.94 L190.02,582.94 L191.09,582.94 L192.16,582.94 L193.23,582.94 L194.30,582.94 L195.37,582.94 L196.44,582.94 L197.51,582.94 L198.58,582.94 L199.65,582.94 L200.72,582.94 L201.80,582.94 L202.87,582.94 L203.94,582.94 L205.01,582.94 L206.08,582.94 L207.15,582.94 L208.22,582.94 L209.29,582.94 L210.36,582.94 L211.43,582.94 L212.50,582.94 L213.57,582.94 L214.65,582.94 L215.72,582.94 L216.79,582.94 L217.86,582.94 L218.93,582.94 L220.00,582.94" fill="none" stroke="#e0e0e0" stroke-width="1.4"/>
<text x="83" y="542" fill="#666" font-family="monospace" font-size="9">13</text>
<rect x="228" y="528" width="152" height="152" fill="#0b0b0b" stroke="#444"/>
<line x1="236" y1="604.00" x2="372" y2="604.00" stroke="#292929"/>
<path d="M236.00,624.22 L237.07,624.22 L238.14,624.22 L239.21,624.22 L240.28,624.22 L241.35,624.22 L242.43,624.22 L243.50,624.22 L244.57,624.22 L245.64,624.22 L246.71,624.22 L247.78,624.22 L248.85,624.22 L249.92,624.22 L250.99,624.22 L252.06,624.22 L253.13,624.22 L254.20,624.22 L255.28,624.22 L256.35,624.22 L257.42,624.22 L258.49,624.22 L259.56,624.22 L260.63,624.22 L261.70,624.22 L262.77,624.22 L263.84,624.22 L264.91,624.22 L265.98,624.22 L267.06,624.22 L268.13,624.22 L269.20,624.22 L270.27,624.22 L271.34,624.22 L272.41,603.09 L273.48,603.09 L274.55,603.09 L275.62,603.09 L276.69,603.09 L277.76,603.09 L278.83,603.09 L279.91,603.09 L280.98,603.09 L282.05,603.09 L283.12,603.09 L284.19,603.09 L285.26,603.09 L286.33,603.09 L287.40,603.09 L288.47,603.09 L289.54,603.09 L290.61,603.09 L291.69,603.09 L292.76,603.09 L293.83,603.09 L294.90,603.09 L295.97,603.09 L297.04,603.09 L298.11,603.09 L299.18,603.09 L300.25,603.09 L301.32,603.09 L302.39,603.09 L303.46,603.09 L304.54,603.09 L305.61,603.09 L306.68,603.09 L307.75,603.09 L308.82,603.09 L309.89,603.09 L310.96,603.09 L312.03,603.09 L313.10,603.09 L314.17,603.09 L315.24,603.09 L316.31,603.09 L317.39,603.09 L318.46,603.09 L319.53,603.09 L320.60,603.09 L321.67,603.09 L322.74,603.09 L323.81,603.09 L324.88,603.09 L325.95,603.09 L327.02,603.09 L328.09,603.09 L329.17,603.09 L330.24,603.09 L331.31,603.09 L332.38,603.09 L333.45,603.09 L334.52,603.09 L335.59,603.09 L336.66,603.09 L337.73,603.09 L338.80,603.09 L339.87,603.09 L340.94,603.09 L342.02,603.09 L343.09,581.97 L344.16,581.97 L345.23,581.97 L346.30,581.97 L347.37,581.97 L348.44,581.97 L349.51,581.97 L350.58,581.97 L351.65,581.97 L352.72,581.97 L353.80,581.97 L354.87,581.97 L355.94,581.97 L357.01,581.97 L358.08,581.97 L359.15,581.97 L360.22,581.97 L361.29,581.97 L362.36,581.97 L363.43,581.97 L364.50,581.97 L365.57,581.97 L366.65,581.97 L367.72,581.97 L368.79,581.97 L369.86,581.97 L370.93,581.97 L372.00,581.97" fill="none" stroke="#e0e0e0" stroke-width="1.4"/>
<text x="235" y="542" fill="#666" font-family="monospace" font-size="9">14</text>
<rect x="380" y="528" width="152" height="152" fill="#0b0b0b" stroke="#444"/>
<line x1="388" y1="604.00" x2="524" y2="604.00" stroke="#292929"/>
<path d="M388.00,623.89 L389.07,623.89 L390.14,623.89 L391.21,623.89 L392.28,623.89 L393.35,623.89 L394.43,623.89 L395.50,623.89 L396.57,623.89 L397.64,623.89 L398.71,623.89 L399.78,623.89 L400.85,623.89 L401.92,623.89 L402.99,623.89 L404.06,623.89 L405.13,623.89 L406.20,623.89 L407.28,623.89 L408.35,623.89 L409.42,623.89 L410.49,623.89 L411.56,623.89 L412.63,623.89 L413.70,623.89 L414.77,623.89 L415.84,623.89 L416.91,623.89 L417.98,623.89 L419.06,623.89 L420.13,623.89 L421.20,623.89 L422.27,623.89 L423.34,623.89 L424.41,623.89 L425.48,603.44 L426.55,603.44 L427.62,603.44 L428.69,603.44 L429.76,603.44 L430.83,603.44 L431.91,603.44 L432.98,603.44 L434.05,603.44 L435.12,603.44 L436.19,603.44 L437.26,603.44 L438.33,603.44 L439.40,603.44 L440.47,603.44 L441.54,603.44 L442.61,603.44 L443.69,603.44 L444.76,603.44 L445.83,603.44 L446.90,603.44 L447.97,603.44 L449.04,603.44 L450.11,603.44 L451.18,603.44 L452.25,603.44 L453.32,603.44 L454.39,603.44 L455.46,603.44 L456.54,603.44 L457.61,603.44 L458.68,603.44 L459.75,603.44 L460.82,603.44 L461.89,603.44 L462.96,603.44 L464.03,603.44 L465.10,603.44 L466.17,603.44 L467.24,603.44 L468.31,603.44 L469.39,603.44 L470.46,603.44 L471.53,603.44 L472.60,603.44 L473.67,603.44 L474.74,603.44 L475.81,603.44 L476.88,603.44 L477.95,603.44 L479.02,603.44 L480.09,603.44 L481.17,603.44 L482.24,603.44 L483.31,603.44 L484.38,603.44 L485.45,603.44 L486.52,603.44 L487.59,603.44 L488.66,603.44 L489.73,603.44 L490.80,603.44 L491.87,582.99 L492.94,582.99 L494.02,582.99 L495.09,582.99 L496.16,582.99 L497.23,582.99 L498.30,582.99 L499.37,582.99 L500.44,582.99 L501.51,582.99 L502.58,582.99 L503.65,582.99 L504.72,582.99 L505.80,582.99 L506.87,582.99 L507.94,582.99 L509.01,582.99 L510.08,582.99 L511.15,582.99 L512.22,582.99 L513.29,582.99 L514.36,582.99 L515.43,582.99 L516.50,582.99 L517.57,582.99 L518.65,582.99 L519.72,582.99 L520.79,582.99 L521.86,582.99 L522.93,582.99 L524.00,582.99" fill="none" stroke="#e0e0e0" stroke-width="1.4"/>
<text x="387" y="542" fill="#666" font-family="monospace" font-size="9">15</text>
<rect x="532" y="528" width="152" height="152" fill="#0b0b0b" stroke="#444"/>
<line x1="540" y1="604.00" x2="676" y2="604.00" stroke="#292929"/>
<path d="M540.00,624.04 L541.07,624.04 L542.14,624.04 L543.21,624.04 L544.28,624.04 L545.35,624.04 L546.43,624.04 L547.50,624.04 L548.57,624.04 L549.64,624.04 L550.71,624.04 L551.78,624.04 L552.85,624.04 L553.92,624.04 L554.99,624.04 L556.06,624.04 L557.13,624.04 L558.20,624.04 L559.28,624.04 L560.35,624.04 L561.42,624.04 L562.49,624.04 L563.56,624.04 L564.63,624.04 L565.70,624.04 L566.77,624.04 L567.84,624.04 L568.91,624.04 L569.98,624.04 L571.06,624.04 L572.13,624.04 L573.20,624.04 L574.27,624.04 L575.34,624.04 L576.41,603.68 L577.48,603.68 L578.55,603.68 L579.62,603.68 L580.69,603.68 L581.76,603.68 L582.83,603.68 L583.91,603.68 L584.98,603.68 L586.05,603.68 L587.12,603.68 L588.19,603.68 L589.26,603.68 L590.33,603.68 L591.40,603.68 L592.47,603.68 L593.54,603.68 L594.61,603.68 L595.69,603.68 L596.76,603.68 L597.83,603.68 L598.90,603.68 L599.97,603.68 L601.04,603.68 L602.11,603.68 L603.18,603.68 L604.25,603.68 L605.32,603.68 L606.39,603.68 L607.46,603.68 L608.54,603.68 L609.61,603.68 L610.68,603.68 L611.75,603.68 L612.82,603.68 L613.89,603.68 L614.96,603.68 L616.03,603.68 L617.10,603.68 L618.17,603.68 L619.24,603.68 L620.31,603.68 L621.39,603.68 L622.46,603.68 L623.53,603.68 L624.60,603.68 L625.67,603.68 L626.74,603.68 L627.81,603.68 L628.88,603.68 L629.95,603.68 L631.02,603.68 L632.09,603.68 L633.17,603.68 L634.24,603.68 L635.31,603.68 L636.38,603.68 L637.45,603.68 L638.52,603.68 L639.59,603.68 L640.66,603.68 L641.73,603.68 L642.80,583.32 L643.87,583.32 L644.94,583.32 L646.02,583.32 L647.09,583.32 L648.16,583.32 L649.23,583.32 L650.30,583.32 L651.37,583.32 L652.44,583.32 L653.51,583.32 L654.58,583.32 L655.65,583.32 L656.72,583.32 L657.80,583.32 L658.87,583.32 L659.94,583.32 L661.01,583.32 L662.08,583.32 L663.15,583.32 L664.22,583.32 L665.29,583.32 L666.36,583.32 L667.43,583.32 L668.50,583.32 L669.57,583.32 L670.65,583.32 L671.72,583.32 L672.79,583.32 L673.86,583.32 L674.93,583.32 L676.00,583.32" fill="none" stroke="#e0e0e0" stroke-width="1.4"/>
<text x="539" y="542" fill="#666" font-family="monospace" font-size="9">16</text>
</svg>
