<svg xmlns="http://www.w3.org/2000/svg" width="760" height="760" viewBox="0 0 760 760">
<rect width="760" height="760" fill="#161616"/>
<text x="24" y="32" fill="#dedede" font-family="monospace" font-size="15">S3G VOT / RESIDUAL FEEDBACK</text>
<text x="684" y="724" text-anchor="end" fill="#858585" font-family="monospace" font-size="11">U / FEEDBACK AMOUNT</text>
<text x="24" y="72" fill="#858585" font-family="monospace" font-size="11">V / FEEDBACK LAG</text>
<text x="76" y="724" fill="#858585" font-family="monospace" font-size="11">ENERGY / RECURSIVE-PRESSURE RISE</text>
<rect x="76" y="72" width="152" height="152" fill="#0b0b0b" stroke="#444"/>
<line x1="84" y1="148.00" x2="220" y2="148.00" stroke="#292929"/>
<path d="M84.00,147.94 L85.07,147.21 L86.14,146.62 L87.21,146.25 L88.28,146.10 L89.35,146.07 L90.43,146.04 L91.50,145.89 L92.57,145.54 L93.64,145.03 L94.71,144.45 L95.78,143.92 L96.85,143.58 L97.92,143.49 L98.99,143.61 L100.06,143.85 L101.13,144.08 L102.20,144.18 L103.28,144.08 L104.35,143.81 L105.42,143.48 L106.49,143.22 L107.56,143.14 L108.63,143.28 L109.70,143.60 L110.77,144.00 L111.84,144.34 L112.91,144.50 L113.98,144.43 L115.06,144.18 L116.13,143.87 L117.20,143.61 L118.27,143.52 L119.34,143.64 L120.41,143.91 L121.48,144.23 L122.55,144.45 L123.62,144.48 L124.69,144.29 L125.76,143.94 L126.83,143.54 L127.91,143.24 L128.98,143.13 L130.05,143.25 L131.12,143.53 L132.19,143.86 L133.26,144.10 L134.33,144.17 L135.40,144.05 L136.47,143.81 L137.54,143.57 L138.61,143.48 L139.69,143.61 L140.76,143.99 L141.83,144.53 L142.90,145.11 L143.97,145.61 L145.04,145.92 L146.11,146.05 L147.18,146.07 L148.25,146.10 L149.32,146.29 L150.39,146.70 L151.46,147.32 L152.54,148.06 L153.61,148.79 L154.68,149.38 L155.75,149.75 L156.82,149.90 L157.89,149.93 L158.96,149.96 L160.03,150.11 L161.10,150.46 L162.17,150.97 L163.24,151.55 L164.31,152.08 L165.39,152.42 L166.46,152.51 L167.53,152.39 L168.60,152.15 L169.67,151.92 L170.74,151.82 L171.81,151.92 L172.88,152.19 L173.95,152.52 L175.02,152.78 L176.09,152.86 L177.17,152.72 L178.24,152.40 L179.31,152.00 L180.38,151.66 L181.45,151.50 L182.52,151.57 L183.59,151.82 L184.66,152.13 L185.73,152.39 L186.80,152.48 L187.87,152.36 L188.94,152.09 L190.02,151.77 L191.09,151.55 L192.16,151.52 L193.23,151.71 L194.30,152.06 L195.37,152.46 L196.44,152.76 L197.51,152.87 L198.58,152.75 L199.65,152.47 L200.72,152.14 L201.80,151.90 L202.87,151.83 L203.94,151.95 L205.01,152.19 L206.08,152.43 L207.15,152.52 L208.22,152.39 L209.29,152.01 L210.36,151.47 L211.43,150.89 L212.50,150.39 L213.57,150.08 L214.65,149.95 L215.72,149.93 L216.79,149.90 L217.86,149.71 L218.93,149.30 L220.00,148.68" fill="none" stroke="#e0e0e0" stroke-width="1.4"/>
<text x="83" y="86" fill="#666" font-family="monospace" font-size="9">01</text>
<rect x="228" y="72" width="152" height="152" fill="#0b0b0b" stroke="#444"/>
<line x1="236" y1="148.00" x2="372" y2="148.00" stroke="#292929"/>
<path d="M236.00,147.69 L237.07,146.37 L238.14,145.36 L239.21,144.77 L240.28,144.55 L241.35,144.54 L242.43,144.49 L243.50,144.18 L244.57,143.52 L245.64,142.58 L246.71,141.56 L247.78,140.69 L248.85,140.15 L249.92,140.03 L250.99,140.28 L252.06,140.72 L253.13,141.10 L254.20,141.23 L255.28,141.00 L256.35,140.51 L257.42,139.94 L258.49,139.51 L259.56,139.40 L260.63,139.68 L261.70,140.27 L262.77,140.97 L263.84,141.54 L264.91,141.77 L265.98,141.59 L267.06,141.12 L268.13,140.55 L269.20,140.13 L270.27,140.02 L271.34,140.26 L272.41,140.77 L273.48,141.33 L274.55,141.70 L275.62,141.70 L276.69,141.31 L277.76,140.66 L278.83,139.98 L279.91,139.50 L280.98,139.37 L282.05,139.62 L283.12,140.13 L284.19,140.71 L285.26,141.11 L286.33,141.19 L287.40,140.94 L288.47,140.51 L289.54,140.12 L290.61,140.00 L291.69,140.28 L292.76,140.98 L293.83,141.95 L294.90,142.98 L295.97,143.83 L297.04,144.34 L298.11,144.51 L299.18,144.52 L300.25,144.59 L301.32,144.96 L302.39,145.75 L303.46,146.93 L304.54,148.31 L305.61,149.63 L306.68,150.64 L307.75,151.23 L308.82,151.45 L309.89,151.46 L310.96,151.51 L312.03,151.82 L313.10,152.48 L314.17,153.42 L315.24,154.44 L316.31,155.31 L317.39,155.85 L318.46,155.97 L319.53,155.72 L320.60,155.28 L321.67,154.90 L322.74,154.77 L323.81,155.00 L324.88,155.49 L325.95,156.06 L327.02,156.49 L328.09,156.60 L329.17,156.32 L330.24,155.73 L331.31,155.03 L332.38,154.46 L333.45,154.23 L334.52,154.41 L335.59,154.88 L336.66,155.45 L337.73,155.87 L338.80,155.98 L339.87,155.74 L340.94,155.23 L342.02,154.67 L343.09,154.30 L344.16,154.30 L345.23,154.69 L346.30,155.34 L347.37,156.02 L348.44,156.50 L349.51,156.63 L350.58,156.38 L351.65,155.87 L352.72,155.29 L353.80,154.89 L354.87,154.81 L355.94,155.06 L357.01,155.49 L358.08,155.88 L359.15,156.00 L360.22,155.72 L361.29,155.02 L362.36,154.05 L363.43,153.02 L364.50,152.17 L365.57,151.66 L366.65,151.49 L367.72,151.48 L368.79,151.41 L369.86,151.04 L370.93,150.25 L372.00,149.07" fill="none" stroke="#e0e0e0" stroke-width="1.4"/>
<text x="235" y="86" fill="#666" font-family="monospace" font-size="9">02</text>
<rect x="380" y="72" width="152" height="152" fill="#0b0b0b" stroke="#444"/>
<line x1="388" y1="148.00" x2="524" y2="148.00" stroke="#292929"/>
<path d="M388.00,147.15 L389.07,143.97 L390.14,141.78 L391.21,140.72 L392.28,140.47 L393.35,140.57 L394.43,140.55 L395.50,139.99 L396.57,138.79 L397.64,137.26 L398.71,135.83 L399.78,134.80 L400.85,134.25 L401.92,134.20 L402.99,134.55 L404.06,135.11 L405.13,135.57 L406.20,135.65 L407.28,135.23 L408.35,134.51 L409.42,133.78 L410.49,133.31 L411.56,133.25 L412.63,133.64 L413.70,134.43 L414.77,135.39 L415.84,136.16 L416.91,136.40 L417.98,136.00 L419.06,135.20 L420.13,134.39 L421.20,133.89 L422.27,133.84 L423.34,134.25 L424.41,135.00 L425.48,135.81 L426.55,136.31 L427.62,136.20 L428.69,135.50 L429.76,134.54 L430.83,133.70 L431.91,133.22 L432.98,133.18 L434.05,133.57 L435.12,134.27 L436.19,135.03 L437.26,135.52 L438.33,135.54 L439.40,135.13 L440.47,134.57 L441.54,134.16 L442.61,134.13 L443.69,134.58 L444.76,135.54 L445.83,136.92 L446.90,138.46 L447.97,139.78 L449.04,140.54 L450.11,140.71 L451.18,140.59 L452.25,140.67 L453.32,141.35 L454.39,142.94 L455.46,145.53 L456.54,148.85 L457.61,152.03 L458.68,154.22 L459.75,155.28 L460.82,155.53 L461.89,155.43 L462.96,155.45 L464.03,156.01 L465.10,157.21 L466.17,158.74 L467.24,160.17 L468.31,161.20 L469.39,161.75 L470.46,161.80 L471.53,161.45 L472.60,160.89 L473.67,160.43 L474.74,160.35 L475.81,160.77 L476.88,161.49 L477.95,162.22 L479.02,162.69 L480.09,162.75 L481.17,162.36 L482.24,161.57 L483.31,160.61 L484.38,159.84 L485.45,159.60 L486.52,160.00 L487.59,160.80 L488.66,161.61 L489.73,162.11 L490.80,162.16 L491.87,161.75 L492.94,161.00 L494.02,160.19 L495.09,159.69 L496.16,159.80 L497.23,160.50 L498.30,161.46 L499.37,162.30 L500.44,162.78 L501.51,162.82 L502.58,162.43 L503.65,161.73 L504.72,160.97 L505.80,160.48 L506.87,160.46 L507.94,160.87 L509.01,161.43 L510.08,161.84 L511.15,161.87 L512.22,161.42 L513.29,160.46 L514.36,159.08 L515.43,157.54 L516.50,156.22 L517.57,155.46 L518.65,155.29 L519.72,155.41 L520.79,155.33 L521.86,154.65 L522.93,153.06 L524.00,150.47" fill="none" stroke="#e0e0e0" stroke-width="1.4"/>
<text x="387" y="86" fill="#666" font-family="monospace" font-size="9">03</text>
<rect x="532" y="72" width="152" height="152" fill="#0b0b0b" stroke="#444"/>
<line x1="540" y1="148.00" x2="676" y2="148.00" stroke="#292929"/>
<path d="M540.00,148.36 L541.07,142.88 L542.14,138.99 L543.21,137.38 L544.28,137.04 L545.35,137.15 L546.43,137.11 L547.50,136.52 L548.57,135.34 L549.64,133.97 L550.71,132.84 L551.78,132.10 L552.85,131.74 L553.92,131.73 L554.99,131.98 L556.06,132.36 L557.13,132.66 L558.20,132.63 L559.28,132.23 L560.35,131.61 L561.42,131.06 L562.49,130.74 L563.56,130.72 L564.63,131.03 L565.70,131.62 L566.77,132.36 L567.84,132.95 L568.91,133.07 L569.98,132.65 L571.06,131.93 L572.13,131.29 L573.20,130.95 L574.27,130.97 L575.34,131.33 L576.41,131.95 L577.48,132.61 L578.55,133.00 L579.62,132.84 L580.69,132.20 L581.76,131.43 L582.83,130.86 L583.91,130.59 L584.98,130.66 L586.05,131.01 L587.12,131.58 L588.19,132.16 L589.26,132.53 L590.33,132.51 L591.40,132.19 L592.47,131.80 L593.54,131.58 L594.61,131.65 L595.69,132.07 L596.76,132.87 L597.83,134.01 L598.90,135.33 L599.97,136.51 L601.04,137.20 L602.11,137.32 L603.18,137.17 L604.25,137.25 L605.32,137.97 L606.39,139.70 L607.46,142.85 L608.54,147.64 L609.61,153.12 L610.68,157.01 L611.75,158.62 L612.82,158.96 L613.89,158.85 L614.96,158.89 L616.03,159.48 L617.10,160.66 L618.17,162.03 L619.24,163.16 L620.31,163.90 L621.39,164.26 L622.46,164.27 L623.53,164.02 L624.60,163.64 L625.67,163.34 L626.74,163.37 L627.81,163.77 L628.88,164.39 L629.95,164.94 L631.02,165.26 L632.09,165.28 L633.17,164.97 L634.24,164.38 L635.31,163.64 L636.38,163.05 L637.45,162.93 L638.52,163.35 L639.59,164.07 L640.66,164.71 L641.73,165.05 L642.80,165.03 L643.87,164.67 L644.94,164.05 L646.02,163.39 L647.09,163.00 L648.16,163.16 L649.23,163.80 L650.30,164.57 L651.37,165.14 L652.44,165.41 L653.51,165.34 L654.58,164.99 L655.65,164.42 L656.72,163.84 L657.80,163.47 L658.87,163.49 L659.94,163.81 L661.01,164.20 L662.08,164.42 L663.15,164.35 L664.22,163.93 L665.29,163.13 L666.36,161.99 L667.43,160.67 L668.50,159.49 L669.57,158.80 L670.65,158.68 L671.72,158.83 L672.79,158.75 L673.86,158.03 L674.93,156.30 L676.00,153.15" fill="none" stroke="#e0e0e0" stroke-width="1.4"/>
<text x="539" y="86" fill="#666" font-family="monospace" font-size="9">04</text>
<rect x="76" y="224" width="152" height="152" fill="#0b0b0b" stroke="#444"/>
<line x1="84" y1="300.00" x2="220" y2="300.00" stroke="#292929"/>
<path d="M84.00,299.79 L85.07,298.88 L86.14,298.28 L87.21,298.11 L88.28,298.20 L89.35,298.23 L90.43,297.95 L91.50,297.37 L92.57,296.74 L93.64,296.37 L94.71,296.43 L95.78,296.88 L96.85,297.42 L97.92,297.71 L98.99,297.59 L100.06,297.18 L101.13,296.76 L102.20,296.62 L103.28,296.83 L104.35,297.21 L105.42,297.42 L106.49,297.22 L107.56,296.59 L108.63,295.79 L109.70,295.14 L110.77,294.86 L111.84,294.91 L112.91,295.07 L113.98,295.02 L115.06,294.63 L116.13,294.02 L117.20,293.48 L118.27,293.31 L119.34,293.60 L120.41,294.20 L121.48,294.80 L122.55,295.11 L123.62,295.09 L124.69,294.93 L125.76,294.94 L126.83,295.33 L127.91,296.06 L128.98,296.85 L130.05,297.36 L131.12,297.42 L132.19,297.12 L133.26,296.75 L134.33,296.61 L135.40,296.84 L136.47,297.28 L137.54,297.63 L138.61,297.63 L139.69,297.25 L140.76,296.71 L141.83,296.36 L142.90,296.42 L143.97,296.90 L145.04,297.57 L146.11,298.10 L147.18,298.29 L148.25,298.23 L149.32,298.19 L150.39,298.47 L151.46,299.19 L152.54,300.19 L153.61,301.13 L154.68,301.72 L155.75,301.89 L156.82,301.80 L157.89,301.77 L158.96,302.05 L160.03,302.63 L161.10,303.26 L162.17,303.63 L163.24,303.57 L164.31,303.12 L165.39,302.58 L166.46,302.29 L167.53,302.41 L168.60,302.82 L169.67,303.24 L170.74,303.38 L171.81,303.17 L172.88,302.79 L173.95,302.58 L175.02,302.78 L176.09,303.41 L177.17,304.21 L178.24,304.86 L179.31,305.14 L180.38,305.09 L181.45,304.93 L182.52,304.98 L183.59,305.37 L184.66,305.98 L185.73,306.52 L186.80,306.69 L187.87,306.40 L188.94,305.80 L190.02,305.20 L191.09,304.89 L192.16,304.91 L193.23,305.07 L194.30,305.06 L195.37,304.67 L196.44,303.94 L197.51,303.15 L198.58,302.64 L199.65,302.58 L200.72,302.88 L201.80,303.25 L202.87,303.39 L203.94,303.16 L205.01,302.72 L206.08,302.37 L207.15,302.37 L208.22,302.75 L209.29,303.29 L210.36,303.64 L211.43,303.58 L212.50,303.10 L213.57,302.43 L214.65,301.90 L215.72,301.71 L216.79,301.77 L217.86,301.81 L218.93,301.53 L220.00,300.81" fill="none" stroke="#e0e0e0" stroke-width="1.4"/>
<text x="83" y="238" fill="#666" font-family="monospace" font-size="9">05</text>
<rect x="228" y="224" width="152" height="152" fill="#0b0b0b" stroke="#444"/>
<line x1="236" y1="300.00" x2="372" y2="300.00" stroke="#292929"/>
<path d="M236.00,298.93 L237.07,297.47 L238.14,296.39 L239.21,296.24 L240.28,296.62 L241.35,296.77 L242.43,296.23 L243.50,295.08 L244.57,293.89 L245.64,293.27 L246.71,293.52 L247.78,294.52 L248.85,295.65 L249.92,296.18 L250.99,295.83 L252.06,294.89 L253.13,294.04 L254.20,293.81 L255.28,294.31 L256.35,295.12 L257.42,295.54 L258.49,295.05 L259.56,293.72 L260.63,292.17 L261.70,291.04 L262.77,290.65 L263.84,290.88 L264.91,291.26 L265.98,291.18 L267.06,290.42 L268.13,289.32 L269.20,288.44 L270.27,288.23 L271.34,288.84 L272.41,290.02 L273.48,291.13 L274.55,291.63 L275.62,291.44 L276.69,291.05 L277.76,291.05 L278.83,291.81 L279.91,293.27 L280.98,294.82 L282.05,295.73 L283.12,295.66 L284.19,294.87 L285.26,294.04 L286.33,293.78 L287.40,294.29 L288.47,295.22 L289.54,295.93 L290.61,295.85 L291.69,294.98 L292.76,293.89 L293.83,293.25 L294.90,293.47 L295.97,294.52 L297.04,295.91 L298.11,296.93 L299.18,297.20 L300.25,296.93 L301.32,296.76 L302.39,297.32 L303.46,298.82 L304.54,300.85 L305.61,302.64 L306.68,303.63 L307.75,303.75 L308.82,303.39 L309.89,303.23 L310.96,303.77 L312.03,304.92 L313.10,306.11 L314.17,306.73 L315.24,306.48 L316.31,305.48 L317.39,304.35 L318.46,303.82 L319.53,304.17 L320.60,305.11 L321.67,305.96 L322.74,306.19 L323.81,305.69 L324.88,304.88 L325.95,304.46 L327.02,304.95 L328.09,306.28 L329.17,307.83 L330.24,308.96 L331.31,309.35 L332.38,309.12 L333.45,308.74 L334.52,308.82 L335.59,309.58 L336.66,310.68 L337.73,311.56 L338.80,311.77 L339.87,311.16 L340.94,309.98 L342.02,308.87 L343.09,308.37 L344.16,308.56 L345.23,308.95 L346.30,308.95 L347.37,308.19 L348.44,306.74 L349.51,305.18 L350.58,304.27 L351.65,304.34 L352.72,305.13 L353.80,305.96 L354.87,306.22 L355.94,305.71 L357.01,304.78 L358.08,304.07 L359.15,304.15 L360.22,305.02 L361.29,306.11 L362.36,306.75 L363.43,306.53 L364.50,305.48 L365.57,304.09 L366.65,303.07 L367.72,302.80 L368.79,303.07 L369.86,303.24 L370.93,302.68 L372.00,301.18" fill="none" stroke="#e0e0e0" stroke-width="1.4"/>
<text x="235" y="238" fill="#666" font-family="monospace" font-size="9">06</text>
<rect x="380" y="224" width="152" height="152" fill="#0b0b0b" stroke="#444"/>
<line x1="388" y1="300.00" x2="524" y2="300.00" stroke="#292929"/>
<path d="M388.00,296.09 L389.07,294.63 L390.14,291.82 L391.21,290.94 L392.28,292.19 L393.35,292.56 L394.43,291.54 L395.50,289.63 L396.57,287.74 L397.64,286.92 L398.71,287.48 L399.78,289.30 L400.85,291.51 L401.92,292.66 L402.99,291.93 L404.06,289.98 L405.13,288.31 L406.20,287.87 L407.28,288.78 L408.35,290.38 L409.42,291.29 L410.49,290.32 L411.56,287.79 L412.63,285.28 L413.70,283.86 L414.77,283.55 L415.84,284.04 L416.91,284.67 L417.98,284.56 L419.06,283.53 L420.13,282.25 L421.20,281.41 L422.27,281.34 L423.34,282.18 L424.41,283.76 L425.48,285.29 L426.55,285.82 L427.62,285.27 L428.69,284.52 L429.76,284.47 L430.83,285.61 L431.91,288.02 L432.98,290.88 L434.05,292.65 L435.12,292.33 L436.19,290.43 L437.26,288.57 L438.33,287.94 L439.40,288.76 L440.47,290.50 L441.54,291.88 L442.61,291.68 L443.69,289.91 L444.76,287.92 L445.83,286.95 L446.90,287.40 L447.97,289.24 L449.04,291.84 L450.11,293.88 L451.18,294.40 L452.25,293.71 L453.32,293.17 L454.39,294.13 L455.46,297.29 L456.54,302.05 L457.61,306.29 L458.68,308.51 L459.75,308.77 L460.82,307.98 L461.89,307.51 L462.96,308.40 L464.03,310.40 L465.10,312.27 L466.17,313.08 L467.24,312.52 L468.31,310.71 L469.39,308.49 L470.46,307.35 L471.53,308.07 L472.60,310.02 L473.67,311.69 L474.74,312.14 L475.81,311.23 L476.88,309.62 L477.95,308.71 L479.02,309.68 L480.09,312.21 L481.17,314.72 L482.24,316.14 L483.31,316.46 L484.38,315.96 L485.45,315.34 L486.52,315.44 L487.59,316.47 L488.66,317.76 L489.73,318.59 L490.80,318.66 L491.87,317.82 L492.94,316.24 L494.02,314.71 L495.09,314.18 L496.16,314.73 L497.23,315.48 L498.30,315.53 L499.37,314.39 L500.44,311.99 L501.51,309.12 L502.58,307.35 L503.65,307.67 L504.72,309.57 L505.80,311.43 L506.87,312.07 L507.94,311.24 L509.01,309.50 L510.08,308.12 L511.15,308.32 L512.22,310.09 L513.29,312.08 L514.36,313.05 L515.43,312.60 L516.50,310.76 L517.57,308.16 L518.65,306.12 L519.72,305.60 L520.79,306.29 L521.86,306.84 L522.93,305.88 L524.00,302.71" fill="none" stroke="#e0e0e0" stroke-width="1.4"/>
<text x="387" y="238" fill="#666" font-family="monospace" font-size="9">07</text>
<rect x="532" y="224" width="152" height="152" fill="#0b0b0b" stroke="#444"/>
<line x1="540" y1="300.00" x2="676" y2="300.00" stroke="#292929"/>
<path d="M540.00,295.72 L541.07,294.75 L542.14,290.04 L543.21,287.64 L544.28,289.28 L545.35,289.35 L546.43,287.94 L547.50,286.11 L548.57,284.38 L549.64,283.76 L550.71,284.34 L551.78,286.08 L552.85,288.31 L553.92,289.47 L554.99,288.57 L556.06,286.41 L557.13,284.71 L558.20,284.31 L559.28,285.23 L560.35,286.88 L561.42,287.81 L562.49,286.70 L563.56,284.12 L564.63,281.96 L565.70,280.97 L566.77,280.89 L567.84,281.39 L568.91,281.94 L569.98,281.82 L571.06,280.96 L572.13,280.07 L573.20,279.61 L574.27,279.68 L575.34,280.35 L576.41,281.62 L577.48,282.85 L578.55,283.14 L579.62,282.48 L580.69,281.78 L581.76,281.75 L582.83,282.77 L583.91,285.03 L584.98,287.93 L586.05,289.78 L587.12,289.28 L588.19,287.04 L589.26,285.02 L590.33,284.40 L591.40,285.24 L592.47,287.02 L593.54,288.45 L594.61,288.16 L595.69,286.28 L596.76,284.43 L597.83,283.72 L598.90,284.26 L599.97,286.05 L601.04,288.68 L602.11,290.82 L603.18,291.31 L604.25,290.44 L605.32,289.77 L606.39,290.77 L607.46,294.47 L608.54,300.77 L609.61,307.06 L610.68,310.71 L611.75,311.63 L612.82,311.13 L613.89,310.82 L614.96,311.90 L616.03,313.97 L617.10,315.63 L618.17,316.23 L619.24,315.66 L620.31,313.92 L621.39,311.69 L622.46,310.53 L623.53,311.44 L624.60,313.59 L625.67,315.29 L626.74,315.69 L627.81,314.77 L628.88,313.12 L629.95,312.20 L631.02,313.30 L632.09,315.89 L633.17,318.05 L634.24,319.03 L635.31,319.11 L636.38,318.62 L637.45,318.06 L638.52,318.19 L639.59,319.04 L640.66,319.93 L641.73,320.39 L642.80,320.32 L643.87,319.65 L644.94,318.38 L646.02,317.15 L647.09,316.87 L648.16,317.52 L649.23,318.22 L650.30,318.25 L651.37,317.23 L652.44,314.97 L653.51,312.07 L654.58,310.23 L655.65,310.73 L656.72,312.97 L657.80,314.98 L658.87,315.60 L659.94,314.76 L661.01,312.99 L662.08,311.55 L663.15,311.84 L664.22,313.72 L665.29,315.57 L666.36,316.28 L667.43,315.74 L668.50,313.95 L669.57,311.32 L670.65,309.18 L671.72,308.70 L672.79,309.56 L673.86,310.24 L674.93,309.24 L676.00,305.53" fill="none" stroke="#e0e0e0" stroke-width="1.4"/>
<text x="539" y="238" fill="#666" font-family="monospace" font-size="9">08</text>
<rect x="76" y="376" width="152" height="152" fill="#0b0b0b" stroke="#444"/>
<line x1="84" y1="452.00" x2="220" y2="452.00" stroke="#292929"/>
<path d="M84.00,451.78 L85.07,450.55 L86.14,449.95 L87.21,450.02 L88.28,450.25 L89.35,450.13 L90.43,449.54 L91.50,448.98 L92.57,449.02 L93.64,449.72 L94.71,450.55 L95.78,450.83 L96.85,450.38 L97.92,449.65 L98.99,449.28 L100.06,449.40 L101.13,449.60 L102.20,449.28 L103.28,448.27 L104.35,447.11 L105.42,446.44 L106.49,446.43 L107.56,446.78 L108.63,446.93 L109.70,446.58 L110.77,446.10 L111.84,446.09 L112.91,446.78 L113.98,447.81 L115.06,448.47 L116.13,448.39 L117.20,447.86 L118.27,447.53 L119.34,447.73 L120.41,448.18 L121.48,448.25 L122.55,447.61 L123.62,446.63 L124.69,445.97 L125.76,445.99 L126.83,446.51 L127.91,446.99 L128.98,446.99 L130.05,446.68 L131.12,446.70 L132.19,447.42 L133.26,448.64 L134.33,449.68 L135.40,450.00 L136.47,449.74 L137.54,449.49 L138.61,449.73 L139.69,450.35 L140.76,450.77 L141.83,450.50 L142.90,449.68 L143.97,448.98 L145.04,448.95 L146.11,449.56 L147.18,450.28 L148.25,450.55 L149.32,450.40 L150.39,450.37 L151.46,450.99 L152.54,452.23 L153.61,453.44 L154.68,454.05 L155.75,454.00 L156.82,453.75 L157.89,453.87 L158.96,454.46 L160.03,455.02 L161.10,454.98 L162.17,454.28 L163.24,453.45 L164.31,453.17 L165.39,453.62 L166.46,454.35 L167.53,454.72 L168.60,454.60 L169.67,454.40 L170.74,454.72 L171.81,455.73 L172.88,456.89 L173.95,457.56 L175.02,457.57 L176.09,457.22 L177.17,457.07 L178.24,457.42 L179.31,457.90 L180.38,457.91 L181.45,457.22 L182.52,456.19 L183.59,455.53 L184.66,455.61 L185.73,456.14 L186.80,456.47 L187.87,456.27 L188.94,455.82 L190.02,455.75 L191.09,456.39 L192.16,457.37 L193.23,458.03 L194.30,458.01 L195.37,457.49 L196.44,457.01 L197.51,457.01 L198.58,457.32 L199.65,457.30 L200.72,456.58 L201.80,455.36 L202.87,454.32 L203.94,454.00 L205.01,454.26 L206.08,454.51 L207.15,454.27 L208.22,453.65 L209.29,453.23 L210.36,453.50 L211.43,454.32 L212.50,455.02 L213.57,455.05 L214.65,454.44 L215.72,453.72 L216.79,453.45 L217.86,453.60 L218.93,453.63 L220.00,453.01" fill="none" stroke="#e0e0e0" stroke-width="1.4"/>
<text x="83" y="390" fill="#666" font-family="monospace" font-size="9">09</text>
<rect x="228" y="376" width="152" height="152" fill="#0b0b0b" stroke="#444"/>
<line x1="236" y1="452.00" x2="372" y2="452.00" stroke="#292929"/>
<path d="M236.00,451.07 L237.07,448.45 L238.14,447.42 L239.21,447.88 L240.28,448.32 L241.35,448.21 L242.43,447.18 L243.50,446.13 L244.57,446.25 L245.64,447.77 L246.71,449.68 L247.78,450.34 L248.85,449.34 L249.92,447.75 L250.99,446.95 L252.06,447.22 L253.13,447.68 L254.20,447.04 L255.28,445.04 L256.35,442.90 L257.42,441.76 L258.49,441.80 L259.56,442.52 L260.63,442.95 L261.70,442.39 L262.77,441.50 L263.84,441.48 L264.91,442.81 L265.98,444.99 L267.06,446.45 L268.13,446.18 L269.20,444.92 L270.27,444.17 L271.34,444.53 L272.41,445.41 L273.48,445.55 L274.55,444.23 L275.62,442.30 L276.69,441.12 L277.76,441.19 L278.83,442.18 L279.91,443.22 L280.98,443.30 L282.05,442.67 L283.12,442.65 L284.19,444.05 L285.26,446.62 L286.33,448.82 L287.40,449.41 L288.47,448.67 L289.54,447.95 L290.61,448.33 L291.69,449.57 L292.76,450.38 L293.83,449.71 L294.90,447.86 L295.97,446.35 L297.04,446.26 L298.11,447.49 L299.18,449.05 L300.25,449.69 L301.32,449.30 L302.39,449.15 L303.46,450.43 L304.54,453.04 L305.61,455.45 L306.68,456.53 L307.75,456.33 L308.82,455.69 L309.89,455.74 L310.96,456.83 L312.03,457.88 L313.10,457.74 L314.17,456.22 L315.24,454.33 L316.31,453.65 L317.39,454.65 L318.46,456.25 L319.53,457.05 L320.60,456.77 L321.67,456.32 L322.74,456.96 L323.81,458.96 L324.88,461.10 L325.95,462.24 L327.02,462.20 L328.09,461.48 L329.17,461.05 L330.24,461.61 L331.31,462.50 L332.38,462.51 L333.45,461.18 L334.52,459.01 L335.59,457.55 L336.66,457.82 L337.73,459.08 L338.80,459.83 L339.87,459.47 L340.94,458.59 L342.02,458.45 L343.09,459.77 L344.16,461.70 L345.23,462.88 L346.30,462.81 L347.37,461.82 L348.44,460.78 L349.51,460.70 L350.58,461.33 L351.65,461.35 L352.72,459.95 L353.80,457.38 L354.87,455.17 L355.94,454.59 L357.01,455.33 L358.08,456.05 L359.15,455.67 L360.22,454.43 L361.29,453.62 L362.36,454.29 L363.43,456.14 L364.50,457.65 L365.57,457.74 L366.65,456.51 L367.72,454.95 L368.79,454.31 L369.86,454.70 L370.93,454.85 L372.00,453.57" fill="none" stroke="#e0e0e0" stroke-width="1.4"/>
<text x="235" y="390" fill="#666" font-family="monospace" font-size="9">10</text>
<rect x="380" y="376" width="152" height="152" fill="#0b0b0b" stroke="#444"/>
<line x1="388" y1="452.00" x2="524" y2="452.00" stroke="#292929"/>
<path d="M388.00,449.89 L389.07,443.14 L390.14,441.82 L391.21,443.99 L392.28,443.06 L393.35,442.52 L394.43,441.41 L395.50,439.58 L396.57,439.65 L397.64,442.48 L398.71,447.10 L399.78,448.58 L400.85,446.06 L401.92,442.95 L402.99,441.76 L404.06,442.26 L405.13,442.90 L406.20,441.75 L407.28,438.26 L408.35,435.37 L409.42,434.16 L410.49,434.19 L411.56,435.07 L412.63,435.93 L413.70,435.32 L414.77,434.17 L415.84,434.11 L416.91,435.88 L417.98,439.75 L419.06,443.04 L420.13,442.15 L421.20,439.19 L422.27,437.98 L423.34,438.66 L424.41,439.94 L425.48,440.08 L426.55,437.75 L427.62,434.91 L428.69,433.58 L429.76,433.67 L430.83,434.88 L431.91,436.58 L432.98,436.89 L434.05,435.85 L435.12,435.71 L436.19,437.81 L437.26,442.76 L438.33,447.90 L439.40,448.96 L440.47,446.72 L441.54,445.37 L442.61,446.48 L443.69,448.87 L444.76,450.29 L445.83,448.67 L446.90,444.36 L447.97,441.18 L449.04,440.93 L450.11,442.97 L451.18,445.88 L452.25,447.23 L453.32,446.18 L454.39,445.69 L455.46,448.69 L456.54,454.86 L457.61,459.98 L458.68,461.99 L459.75,461.85 L460.82,460.92 L461.89,460.91 L462.96,462.78 L464.03,464.48 L465.10,464.24 L466.17,461.49 L467.24,457.22 L468.31,455.41 L469.39,457.82 L470.46,461.10 L471.53,462.25 L472.60,461.70 L473.67,461.08 L474.74,462.30 L475.81,465.73 L476.88,468.61 L477.95,469.83 L479.02,469.80 L480.09,468.92 L481.17,468.06 L482.24,468.67 L483.31,469.82 L484.38,469.89 L485.45,468.12 L486.52,464.24 L487.59,460.95 L488.66,461.85 L489.73,464.80 L490.80,466.01 L491.87,465.33 L492.94,464.05 L494.02,463.91 L495.09,466.24 L496.16,469.09 L497.23,470.41 L498.30,470.32 L499.37,469.12 L500.44,467.42 L501.51,467.10 L502.58,468.14 L503.65,468.29 L504.72,466.18 L505.80,461.23 L506.87,456.09 L507.94,455.03 L509.01,457.27 L510.08,458.62 L511.15,457.51 L512.22,455.12 L513.29,453.70 L514.36,455.32 L515.43,459.63 L516.50,462.81 L517.57,463.07 L518.65,461.02 L519.72,458.11 L520.79,456.77 L521.86,457.81 L522.93,458.30 L524.00,455.30" fill="none" stroke="#e0e0e0" stroke-width="1.4"/>
<text x="387" y="390" fill="#666" font-family="monospace" font-size="9">11</text>
<rect x="532" y="376" width="152" height="152" fill="#0b0b0b" stroke="#444"/>
<line x1="540" y1="452.00" x2="676" y2="452.00" stroke="#292929"/>
<path d="M540.00,451.09 L541.07,440.90 L542.14,439.50 L543.21,443.28 L544.28,440.19 L545.35,438.78 L546.43,438.16 L547.50,436.09 L548.57,435.84 L549.64,438.69 L550.71,444.64 L551.78,446.29 L552.85,442.70 L553.92,439.11 L554.99,438.06 L556.06,438.46 L557.13,438.88 L558.20,437.81 L559.28,434.38 L560.35,432.05 L561.42,431.29 L562.49,431.30 L563.56,431.97 L564.63,432.84 L565.70,432.43 L566.77,431.48 L567.84,431.38 L568.91,432.77 L569.98,436.69 L571.06,440.71 L572.13,439.38 L573.20,435.69 L574.27,434.49 L575.34,435.19 L576.41,436.26 L577.48,436.39 L578.55,434.13 L579.62,431.73 L580.69,430.86 L581.76,430.96 L582.83,431.89 L583.91,433.51 L584.98,433.94 L586.05,432.96 L587.12,432.75 L588.19,434.56 L589.26,439.90 L590.33,446.59 L591.40,447.78 L592.47,444.27 L593.54,442.80 L594.61,444.69 L595.69,447.34 L596.76,448.76 L597.83,446.91 L598.90,441.53 L599.97,437.76 L601.04,437.51 L602.11,439.56 L603.18,442.69 L604.25,444.34 L605.32,442.97 L606.39,442.20 L607.46,445.91 L608.54,454.33 L609.61,461.44 L610.68,464.10 L611.75,464.26 L612.82,463.77 L613.89,464.07 L614.96,466.21 L616.03,468.06 L617.10,467.96 L618.17,465.23 L619.24,460.11 L620.31,457.69 L621.39,461.06 L622.46,464.98 L623.53,465.97 L624.60,465.46 L625.67,465.08 L626.74,466.33 L627.81,469.61 L628.88,471.92 L629.95,472.70 L631.02,472.68 L632.09,472.01 L633.17,471.14 L634.24,471.56 L635.31,472.50 L636.38,472.60 L637.45,471.22 L638.52,467.29 L639.59,463.27 L640.66,464.61 L641.73,468.29 L642.80,469.50 L643.87,468.79 L644.94,467.72 L646.02,467.59 L647.09,469.85 L648.16,472.25 L649.23,473.12 L650.30,473.02 L651.37,472.10 L652.44,470.47 L653.51,470.04 L654.58,471.03 L655.65,471.24 L656.72,469.42 L657.80,464.08 L658.87,457.39 L659.94,456.21 L661.01,459.72 L662.08,461.18 L663.15,459.29 L664.22,456.65 L665.29,455.22 L666.36,457.07 L667.43,462.45 L668.50,466.22 L669.57,466.48 L670.65,464.42 L671.72,461.29 L672.79,459.64 L673.86,461.01 L674.93,461.78 L676.00,458.08" fill="none" stroke="#e0e0e0" stroke-width="1.4"/>
<text x="539" y="390" fill="#666" font-family="monospace" font-size="9">12</text>
<rect x="76" y="528" width="152" height="152" fill="#0b0b0b" stroke="#444"/>
<line x1="84" y1="604.00" x2="220" y2="604.00" stroke="#292929"/>
<path d="M84.00,603.69 L85.07,602.37 L86.14,601.96 L87.21,602.16 L88.28,602.11 L89.35,601.61 L90.43,601.23 L91.50,601.68 L92.57,602.77 L93.64,603.36 L94.71,602.91 L95.78,602.06 L96.85,601.69 L97.92,601.76 L98.99,601.42 L100.06,600.27 L101.13,599.00 L102.20,598.50 L103.28,598.89 L104.35,599.40 L105.42,599.36 L106.49,599.07 L107.56,599.36 L108.63,600.39 L109.70,601.21 L110.77,600.98 L111.84,600.00 L112.91,599.29 L113.98,599.25 L115.06,599.26 L116.13,598.63 L117.20,597.64 L118.27,597.19 L119.34,597.74 L120.41,598.76 L121.48,599.30 L122.55,599.25 L123.62,599.41 L124.69,600.28 L125.76,601.22 L126.83,601.28 L127.91,600.36 L128.98,599.43 L130.05,599.27 L131.12,599.59 L132.19,599.54 L133.26,598.96 L134.33,598.63 L135.40,599.28 L136.47,600.69 L137.54,601.78 L138.61,602.00 L139.69,601.98 L140.76,602.49 L141.83,603.35 L142.90,603.66 L143.97,602.95 L145.04,601.89 L146.11,601.54 L147.18,602.03 L148.25,602.51 L149.32,602.42 L150.39,602.22 L151.46,602.82 L152.54,604.29 L153.61,605.63 L154.68,606.06 L155.75,605.84 L156.82,605.86 L157.89,606.39 L158.96,606.79 L160.03,606.32 L161.10,605.23 L162.17,604.65 L163.24,605.09 L164.31,605.94 L165.39,606.31 L166.46,606.24 L167.53,606.58 L168.60,607.73 L169.67,609.00 L170.74,609.50 L171.81,609.11 L172.88,608.60 L173.95,608.64 L175.02,608.93 L176.09,608.64 L177.17,607.61 L178.24,606.79 L179.31,607.02 L180.38,608.00 L181.45,608.71 L182.52,608.75 L183.59,608.74 L184.66,609.37 L185.73,610.36 L186.80,610.81 L187.87,610.26 L188.94,609.24 L190.02,608.70 L191.09,608.75 L192.16,608.59 L193.23,607.72 L194.30,606.78 L195.37,606.72 L196.44,607.64 L197.51,608.57 L198.58,608.73 L199.65,608.41 L200.72,608.46 L201.80,609.04 L202.87,609.37 L203.94,608.72 L205.01,607.31 L206.08,606.22 L207.15,606.00 L208.22,606.02 L209.29,605.51 L210.36,604.65 L211.43,604.34 L212.50,605.05 L213.57,606.11 L214.65,606.46 L215.72,605.97 L216.79,605.49 L217.86,605.58 L218.93,605.78 L220.00,605.18" fill="none" stroke="#e0e0e0" stroke-width="1.4"/>
<text x="83" y="542" fill="#666" font-family="monospace" font-size="9">13</text>
<rect x="228" y="528" width="152" height="152" fill="#0b0b0b" stroke="#444"/>
<line x1="236" y1="604.00" x2="372" y2="604.00" stroke="#292929"/>
<path d="M236.00,602.57 L237.07,600.08 L238.14,599.55 L239.21,599.98 L240.28,599.63 L241.35,598.93 L242.43,598.41 L243.50,599.20 L244.57,601.65 L245.64,602.97 L246.71,601.93 L247.78,600.25 L248.85,599.69 L249.92,599.88 L250.99,599.13 L252.06,596.88 L253.13,594.69 L254.20,593.90 L255.28,594.58 L256.35,595.50 L257.42,595.40 L258.49,594.93 L259.56,595.62 L260.63,597.93 L261.70,599.68 L262.77,599.02 L263.84,596.93 L264.91,595.61 L265.98,595.61 L267.06,595.61 L268.13,594.39 L269.20,592.67 L270.27,591.96 L271.34,592.89 L272.41,594.75 L273.48,595.76 L274.55,595.67 L275.62,596.14 L276.69,598.18 L277.76,600.18 L278.83,600.06 L279.91,597.93 L280.98,596.00 L282.05,595.74 L283.12,596.39 L284.19,596.23 L285.26,595.03 L286.33,594.41 L287.40,595.65 L288.47,598.54 L289.54,600.79 L290.61,601.18 L291.69,601.12 L292.76,602.31 L293.83,604.03 L294.90,604.48 L295.97,602.86 L297.04,600.49 L298.11,599.75 L299.18,600.77 L300.25,601.71 L301.32,601.30 L302.39,600.82 L303.46,602.12 L304.54,605.27 L305.61,607.85 L306.68,608.56 L307.75,608.09 L308.82,608.10 L309.89,609.10 L310.96,609.76 L312.03,608.76 L313.10,606.36 L314.17,605.07 L315.24,606.04 L316.31,607.75 L317.39,608.33 L318.46,608.12 L319.53,608.86 L320.60,611.13 L321.67,613.31 L322.74,614.09 L323.81,613.42 L324.88,612.51 L325.95,612.60 L327.02,613.08 L328.09,612.38 L329.17,610.07 L330.24,608.32 L331.31,608.98 L332.38,611.07 L333.45,612.39 L334.52,612.39 L335.59,612.39 L336.66,613.61 L337.73,615.33 L338.80,616.04 L339.87,615.11 L340.94,613.25 L342.02,612.24 L343.09,612.33 L344.16,611.86 L345.23,609.82 L346.30,607.82 L347.37,607.94 L348.44,610.08 L349.51,612.00 L350.58,612.26 L351.65,611.61 L352.72,611.77 L353.80,612.97 L354.87,613.59 L355.94,612.36 L357.01,609.46 L358.08,607.21 L359.15,606.83 L360.22,606.88 L361.29,605.69 L362.36,603.97 L363.43,603.52 L364.50,605.14 L365.57,607.51 L366.65,608.25 L367.72,607.23 L368.79,606.30 L369.86,606.70 L370.93,607.18 L372.00,605.88" fill="none" stroke="#e0e0e0" stroke-width="1.4"/>
<text x="235" y="542" fill="#666" font-family="monospace" font-size="9">14</text>
<rect x="380" y="528" width="152" height="152" fill="#0b0b0b" stroke="#444"/>
<line x1="388" y1="604.00" x2="524" y2="604.00" stroke="#292929"/>
<path d="M388.00,598.64 L389.07,593.86 L390.14,593.88 L391.21,595.00 L392.28,593.31 L393.35,593.34 L394.43,592.73 L395.50,592.63 L396.57,597.72 L397.64,601.34 L398.71,598.61 L399.78,595.38 L400.85,594.62 L401.92,594.61 L402.99,593.11 L404.06,589.96 L405.13,587.38 L406.20,586.51 L407.28,587.17 L408.35,588.22 L409.42,587.94 L410.49,587.45 L411.56,588.62 L412.63,593.08 L413.70,596.91 L414.77,594.84 L415.84,590.59 L416.91,588.69 L417.98,588.78 L419.06,588.75 L420.13,587.25 L421.20,585.33 L422.27,584.64 L423.34,585.50 L424.41,587.68 L425.48,589.06 L426.55,588.99 L427.62,590.19 L428.69,594.99 L429.76,599.67 L430.83,598.31 L431.91,592.89 L432.98,589.46 L434.05,589.19 L435.12,590.44 L436.19,590.64 L437.26,588.62 L438.33,587.49 L439.40,588.94 L440.47,593.95 L441.54,598.88 L442.61,599.82 L443.69,599.83 L444.76,602.88 L445.83,606.79 L446.90,607.11 L447.97,603.26 L449.04,597.77 L450.11,596.13 L451.18,598.59 L452.25,601.31 L453.32,600.08 L454.39,598.36 L455.46,600.68 L456.54,607.76 L457.61,613.20 L458.68,614.61 L459.75,613.83 L460.82,613.50 L461.89,615.10 L462.96,616.23 L464.03,614.92 L465.10,610.17 L466.17,607.23 L467.24,609.37 L468.31,612.77 L469.39,613.64 L470.46,613.23 L471.53,614.75 L472.60,618.11 L473.67,620.67 L474.74,621.46 L475.81,620.85 L476.88,619.86 L477.95,620.04 L479.02,620.55 L480.09,619.41 L481.17,614.93 L482.24,611.10 L483.31,613.18 L484.38,617.40 L485.45,619.31 L486.52,619.23 L487.59,619.26 L488.66,620.75 L489.73,622.68 L490.80,623.37 L491.87,622.50 L492.94,620.33 L494.02,618.95 L495.09,619.02 L496.16,617.82 L497.23,613.02 L498.30,608.34 L499.37,609.70 L500.44,615.11 L501.51,618.55 L502.58,618.82 L503.65,617.57 L504.72,617.37 L505.80,619.39 L506.87,620.52 L507.94,619.07 L509.01,614.06 L510.08,609.13 L511.15,608.18 L512.22,608.17 L513.29,605.13 L514.36,601.21 L515.43,600.90 L516.50,604.75 L517.57,610.24 L518.65,611.88 L519.72,609.42 L520.79,606.70 L521.86,607.93 L522.93,609.64 L524.00,607.33" fill="none" stroke="#e0e0e0" stroke-width="1.4"/>
<text x="387" y="542" fill="#666" font-family="monospace" font-size="9">15</text>
<rect x="532" y="528" width="152" height="152" fill="#0b0b0b" stroke="#444"/>
<line x1="540" y1="604.00" x2="676" y2="604.00" stroke="#292929"/>
<path d="M540.00,596.52 L541.07,590.09 L542.14,590.83 L543.21,592.80 L544.28,589.99 L545.35,590.92 L546.43,590.20 L547.50,588.47 L548.57,594.32 L549.64,599.77 L550.71,596.06 L551.78,592.17 L552.85,591.29 L553.92,590.70 L554.99,588.81 L556.06,586.12 L557.13,584.21 L558.20,583.57 L559.28,583.96 L560.35,584.66 L561.42,584.30 L562.49,583.99 L563.56,585.12 L564.63,589.97 L565.70,594.74 L566.77,591.72 L567.84,586.84 L568.91,585.16 L569.98,585.28 L571.06,585.13 L572.13,583.95 L573.20,582.63 L574.27,582.23 L575.34,582.75 L576.41,584.32 L577.48,585.45 L578.55,585.44 L579.62,586.91 L580.69,592.89 L581.76,599.19 L582.83,596.63 L583.91,589.37 L584.98,585.87 L586.05,585.71 L587.12,586.93 L588.19,587.49 L589.26,585.55 L590.33,584.41 L591.40,585.51 L592.47,590.54 L593.54,596.50 L594.61,597.73 L595.69,598.06 L596.76,602.50 L597.83,608.03 L598.90,607.79 L599.97,602.03 L601.04,594.83 L602.11,592.93 L603.18,596.30 L604.25,600.91 L605.32,599.31 L606.39,596.14 L607.46,598.29 L608.54,607.89 L609.61,615.70 L610.68,617.86 L611.75,617.24 L612.82,616.38 L613.89,617.99 L614.96,619.36 L616.03,618.52 L617.10,613.21 L618.17,609.61 L619.24,612.34 L620.31,616.28 L621.39,617.21 L622.46,616.91 L623.53,618.85 L624.60,621.98 L625.67,623.90 L626.74,624.40 L627.81,624.08 L628.88,623.45 L629.95,623.66 L631.02,624.00 L632.09,622.92 L633.17,618.05 L634.24,613.28 L635.31,616.32 L636.38,621.15 L637.45,622.85 L638.52,622.73 L639.59,622.89 L640.66,624.06 L641.73,625.38 L642.80,625.78 L643.87,625.26 L644.94,623.69 L646.02,622.56 L647.09,622.57 L648.16,621.10 L649.23,615.12 L650.30,608.82 L651.37,611.38 L652.44,618.65 L653.51,622.14 L654.58,622.30 L655.65,621.08 L656.72,620.52 L657.80,622.46 L658.87,623.60 L659.94,622.50 L661.01,617.47 L662.08,611.51 L663.15,610.28 L664.22,609.95 L665.29,605.51 L666.36,599.98 L667.43,600.22 L668.50,605.98 L669.57,613.18 L670.65,615.08 L671.72,611.71 L672.79,607.10 L673.86,608.70 L674.93,611.88 L676.00,609.72" fill="none" stroke="#e0e0e0" stroke-width="1.4"/>
<text x="539" y="542" fill="#666" font-family="monospace" font-size="9">16</text>
</svg>
