<svg xmlns="http://www.w3.org/2000/svg" width="760" height="760" viewBox="0 0 760 760">
<rect width="760" height="760" fill="#161616"/>
<text x="24" y="32" fill="#dedede" font-family="monospace" font-size="15">S3G VOT / CODEC RESIDUAL</text>
<text x="684" y="724" text-anchor="end" fill="#858585" font-family="monospace" font-size="11">U / RESIDUAL EMPHASIS</text>
<text x="24" y="72" fill="#858585" font-family="monospace" font-size="11">V / PREDICTOR MEMORY</text>
<text x="76" y="724" fill="#858585" font-family="monospace" font-size="11">ENERGY / RESIDUAL-PRESSURE RISE</text>
<rect x="76" y="72" width="152" height="152" fill="#0b0b0b" stroke="#444"/>
<line x1="84" y1="148.00" x2="220" y2="148.00" stroke="#292929"/>
<path d="M84.00,147.86 L85.07,146.88 L86.14,146.08 L87.21,145.35 L88.28,144.71 L89.35,144.18 L90.43,143.76 L91.50,143.46 L92.57,143.39 L93.64,143.25 L94.71,143.16 L95.78,143.09 L96.85,143.00 L97.92,142.89 L98.99,142.74 L100.06,142.40 L101.13,142.16 L102.20,141.90 L103.28,141.64 L104.35,141.39 L105.42,141.20 L106.49,141.07 L107.56,141.03 L108.63,141.23 L109.70,141.37 L110.77,141.60 L111.84,141.90 L112.91,142.22 L113.98,142.70 L115.06,143.00 L116.13,143.09 L117.20,143.24 L118.27,143.30 L119.34,143.24 L120.41,143.09 L121.48,142.71 L122.55,142.41 L123.62,142.08 L124.69,141.75 L125.76,141.46 L126.83,141.23 L127.91,141.08 L128.98,141.03 L130.05,141.07 L131.12,141.34 L132.19,141.54 L133.26,141.78 L134.33,142.05 L135.40,142.31 L136.47,142.54 L137.54,142.74 L138.61,142.89 L139.69,143.00 L140.76,143.09 L141.83,143.16 L142.90,143.25 L143.97,143.39 L145.04,143.60 L146.11,143.91 L147.18,144.47 L148.25,145.00 L149.32,145.64 L150.39,146.51 L151.46,147.31 L152.54,148.14 L153.61,149.12 L154.68,149.92 L155.75,150.65 L156.82,151.29 L157.89,151.82 L158.96,152.24 L160.03,152.54 L161.10,152.61 L162.17,152.75 L163.24,152.84 L164.31,152.91 L165.39,153.00 L166.46,153.11 L167.53,153.26 L168.60,153.60 L169.67,153.84 L170.74,154.10 L171.81,154.36 L172.88,154.61 L173.95,154.80 L175.02,154.93 L176.09,154.97 L177.17,154.77 L178.24,154.63 L179.31,154.40 L180.38,154.10 L181.45,153.78 L182.52,153.30 L183.59,153.00 L184.66,152.91 L185.73,152.76 L186.80,152.70 L187.87,152.76 L188.94,152.91 L190.02,153.29 L191.09,153.59 L192.16,153.92 L193.23,154.25 L194.30,154.54 L195.37,154.77 L196.44,154.92 L197.51,154.97 L198.58,154.93 L199.65,154.66 L200.72,154.46 L201.80,154.22 L202.87,153.95 L203.94,153.69 L205.01,153.46 L206.08,153.26 L207.15,153.11 L208.22,153.00 L209.29,152.91 L210.36,152.84 L211.43,152.75 L212.50,152.61 L213.57,152.40 L214.65,152.09 L215.72,151.53 L216.79,151.00 L217.86,150.36 L218.93,149.49 L220.00,148.69" fill="none" stroke="#e0e0e0" stroke-width="1.4"/>
<text x="83" y="86" fill="#666" font-family="monospace" font-size="9">01</text>
<rect x="228" y="72" width="152" height="152" fill="#0b0b0b" stroke="#444"/>
<line x1="236" y1="148.00" x2="372" y2="148.00" stroke="#292929"/>
<path d="M236.00,147.36 L237.07,146.25 L238.14,145.18 L239.21,144.20 L240.28,143.35 L241.35,142.63 L242.43,142.06 L243.50,141.63 L244.57,141.32 L245.64,141.11 L246.71,140.95 L247.78,140.82 L248.85,140.68 L249.92,140.51 L250.99,140.28 L252.06,140.00 L253.13,139.67 L254.20,139.30 L255.28,138.94 L256.35,137.96 L257.42,138.33 L258.49,138.14 L259.56,138.07 L260.63,138.12 L261.70,138.29 L262.77,138.57 L263.84,138.94 L264.91,139.99 L265.98,140.40 L267.06,140.78 L268.13,141.08 L269.20,140.63 L270.27,140.70 L271.34,140.63 L272.41,140.44 L273.48,140.14 L274.55,139.76 L275.62,138.70 L276.69,138.29 L277.76,137.93 L278.83,137.65 L279.91,137.48 L280.98,138.07 L282.05,138.14 L283.12,138.33 L284.19,138.60 L285.26,138.94 L286.33,139.30 L287.40,139.67 L288.47,140.00 L289.54,140.28 L290.61,140.51 L291.69,140.68 L292.76,140.82 L293.83,140.95 L294.90,141.11 L295.97,141.32 L297.04,141.63 L298.11,142.06 L299.18,143.27 L300.25,143.99 L301.32,144.85 L302.39,146.47 L303.46,147.54 L304.54,148.64 L305.61,149.75 L306.68,150.82 L307.75,151.80 L308.82,152.65 L309.89,153.37 L310.96,153.94 L312.03,154.37 L313.10,154.68 L314.17,154.89 L315.24,155.05 L316.31,155.18 L317.39,155.32 L318.46,155.49 L319.53,155.72 L320.60,156.00 L321.67,156.33 L322.74,156.70 L323.81,157.06 L324.88,158.04 L325.95,157.67 L327.02,157.86 L328.09,157.93 L329.17,157.88 L330.24,157.71 L331.31,157.43 L332.38,157.06 L333.45,156.01 L334.52,155.60 L335.59,155.22 L336.66,154.92 L337.73,155.37 L338.80,155.30 L339.87,155.37 L340.94,155.56 L342.02,155.86 L343.09,156.24 L344.16,157.30 L345.23,157.71 L346.30,158.07 L347.37,158.35 L348.44,158.52 L349.51,157.93 L350.58,157.86 L351.65,157.67 L352.72,157.40 L353.80,157.06 L354.87,156.70 L355.94,156.33 L357.01,156.00 L358.08,155.72 L359.15,155.49 L360.22,155.32 L361.29,155.18 L362.36,155.05 L363.43,154.89 L364.50,154.68 L365.57,154.37 L366.65,153.94 L367.72,152.73 L368.79,152.01 L369.86,151.15 L370.93,149.53 L372.00,148.46" fill="none" stroke="#e0e0e0" stroke-width="1.4"/>
<text x="235" y="86" fill="#666" font-family="monospace" font-size="9">02</text>
<rect x="380" y="72" width="152" height="152" fill="#0b0b0b" stroke="#444"/>
<line x1="388" y1="148.00" x2="524" y2="148.00" stroke="#292929"/>
<path d="M388.00,142.41 L389.07,141.26 L390.14,140.15 L391.21,139.12 L392.28,138.19 L393.35,137.37 L394.43,136.68 L395.50,136.11 L396.57,135.65 L397.64,135.27 L398.71,140.53 L399.78,140.23 L400.85,139.93 L401.92,134.01 L402.99,133.65 L404.06,133.24 L405.13,132.81 L406.20,132.35 L407.28,131.90 L408.35,131.48 L409.42,131.13 L410.49,130.85 L411.56,130.68 L412.63,130.63 L413.70,136.27 L414.77,136.43 L415.84,136.66 L416.91,136.94 L417.98,137.24 L419.06,137.51 L420.13,137.74 L421.20,137.88 L422.27,137.93 L423.34,137.88 L424.41,132.15 L425.48,131.92 L426.55,131.65 L427.62,131.35 L428.69,131.07 L429.76,130.84 L430.83,130.68 L431.91,130.63 L432.98,130.68 L434.05,130.85 L435.12,131.13 L436.19,131.48 L437.26,137.49 L438.33,137.94 L439.40,138.40 L440.47,138.83 L441.54,139.24 L442.61,139.60 L443.69,139.93 L444.76,140.23 L445.83,140.53 L446.90,140.86 L447.97,141.24 L449.04,141.70 L450.11,142.27 L451.18,142.96 L452.25,143.78 L453.32,144.71 L454.39,145.75 L455.46,146.85 L456.54,153.59 L457.61,154.74 L458.68,155.85 L459.75,156.88 L460.82,157.81 L461.89,158.63 L462.96,159.32 L464.03,159.89 L465.10,160.35 L466.17,160.73 L467.24,155.47 L468.31,155.77 L469.39,156.07 L470.46,161.99 L471.53,162.35 L472.60,162.76 L473.67,163.19 L474.74,163.65 L475.81,164.10 L476.88,164.52 L477.95,164.87 L479.02,165.15 L480.09,165.32 L481.17,165.37 L482.24,159.73 L483.31,159.57 L484.38,159.34 L485.45,159.06 L486.52,158.76 L487.59,158.49 L488.66,158.26 L489.73,158.12 L490.80,158.07 L491.87,158.12 L492.94,163.85 L494.02,164.08 L495.09,164.35 L496.16,164.65 L497.23,164.93 L498.30,165.16 L499.37,165.32 L500.44,165.37 L501.51,165.32 L502.58,165.15 L503.65,164.87 L504.72,164.52 L505.80,158.51 L506.87,158.06 L507.94,157.60 L509.01,157.17 L510.08,156.76 L511.15,156.40 L512.22,156.07 L513.29,155.77 L514.36,155.47 L515.43,155.14 L516.50,154.76 L517.57,154.30 L518.65,153.73 L519.72,153.04 L520.79,152.22 L521.86,151.29 L522.93,150.25 L524.00,149.15" fill="none" stroke="#e0e0e0" stroke-width="1.4"/>
<text x="387" y="86" fill="#666" font-family="monospace" font-size="9">03</text>
<rect x="532" y="72" width="152" height="152" fill="#0b0b0b" stroke="#444"/>
<line x1="540" y1="148.00" x2="676" y2="148.00" stroke="#292929"/>
<path d="M540.00,139.50 L541.07,138.99 L542.14,138.49 L543.21,137.99 L544.28,137.51 L545.35,137.04 L546.43,136.59 L547.50,136.16 L548.57,135.75 L549.64,135.36 L550.71,134.97 L551.78,134.61 L552.85,134.25 L553.92,133.89 L554.99,133.55 L556.06,133.21 L557.13,132.88 L558.20,132.57 L559.28,132.27 L560.35,131.98 L561.42,131.72 L562.49,131.48 L563.56,131.27 L564.63,131.09 L565.70,130.94 L566.77,130.82 L567.84,130.72 L568.91,130.65 L569.98,130.60 L571.06,130.56 L572.13,130.54 L573.20,130.53 L574.27,130.52 L575.34,130.53 L576.41,130.54 L577.48,130.56 L578.55,130.60 L579.62,130.65 L580.69,130.72 L581.76,130.82 L582.83,130.94 L583.91,131.09 L584.98,131.27 L586.05,131.48 L587.12,131.72 L588.19,131.98 L589.26,132.27 L590.33,132.57 L591.40,132.88 L592.47,133.21 L593.54,133.55 L594.61,133.89 L595.69,134.25 L596.76,134.61 L597.83,134.97 L598.90,135.36 L599.97,135.75 L601.04,136.16 L602.11,136.59 L603.18,137.04 L604.25,154.50 L605.32,154.98 L606.39,155.48 L607.46,155.98 L608.54,156.50 L609.61,157.01 L610.68,157.51 L611.75,158.01 L612.82,158.49 L613.89,158.96 L614.96,159.41 L616.03,159.84 L617.10,160.25 L618.17,160.64 L619.24,161.03 L620.31,161.39 L621.39,161.75 L622.46,162.11 L623.53,162.45 L624.60,162.79 L625.67,163.12 L626.74,163.43 L627.81,163.73 L628.88,164.02 L629.95,164.28 L631.02,164.52 L632.09,164.73 L633.17,164.91 L634.24,165.06 L635.31,165.18 L636.38,165.28 L637.45,165.35 L638.52,165.40 L639.59,165.44 L640.66,165.46 L641.73,165.47 L642.80,165.48 L643.87,165.47 L644.94,165.46 L646.02,165.44 L647.09,165.40 L648.16,165.35 L649.23,165.28 L650.30,165.18 L651.37,165.06 L652.44,164.91 L653.51,164.73 L654.58,164.52 L655.65,164.28 L656.72,164.02 L657.80,163.73 L658.87,163.43 L659.94,163.12 L661.01,162.79 L662.08,162.45 L663.15,162.11 L664.22,161.75 L665.29,161.39 L666.36,161.03 L667.43,160.64 L668.50,160.25 L669.57,159.84 L670.65,159.41 L671.72,158.96 L672.79,141.50 L673.86,141.02 L674.93,140.52 L676.00,140.02" fill="none" stroke="#e0e0e0" stroke-width="1.4"/>
<text x="539" y="86" fill="#666" font-family="monospace" font-size="9">04</text>
<rect x="76" y="224" width="152" height="152" fill="#0b0b0b" stroke="#444"/>
<line x1="84" y1="300.00" x2="220" y2="300.00" stroke="#292929"/>
<path d="M84.00,299.86 L85.07,298.95 L86.14,298.11 L87.21,297.40 L88.28,296.84 L89.35,296.45 L90.43,296.20 L91.50,296.05 L92.57,295.95 L93.64,295.83 L94.71,295.64 L95.78,295.36 L96.85,294.98 L97.92,294.38 L98.99,293.90 L100.06,293.44 L101.13,293.08 L102.20,292.85 L103.28,292.94 L104.35,293.05 L105.42,293.31 L106.49,293.68 L107.56,294.08 L108.63,294.45 L109.70,294.73 L110.77,294.88 L111.84,294.89 L112.91,294.76 L113.98,294.53 L115.06,294.26 L116.13,294.01 L117.20,293.84 L118.27,293.78 L119.34,293.84 L120.41,294.01 L121.48,294.26 L122.55,294.53 L123.62,294.76 L124.69,294.89 L125.76,294.88 L126.83,294.73 L127.91,294.45 L128.98,293.94 L130.05,293.53 L131.12,293.17 L132.19,292.91 L133.26,292.79 L134.33,292.99 L135.40,293.22 L136.47,293.59 L137.54,294.05 L138.61,294.53 L139.69,294.98 L140.76,295.36 L141.83,295.64 L142.90,295.83 L143.97,295.95 L145.04,296.05 L146.11,296.20 L147.18,296.45 L148.25,296.98 L149.32,297.54 L150.39,298.26 L151.46,299.09 L152.54,300.14 L153.61,301.05 L154.68,301.89 L155.75,302.60 L156.82,303.16 L157.89,303.55 L158.96,303.80 L160.03,303.95 L161.10,304.05 L162.17,304.17 L163.24,304.36 L164.31,304.64 L165.39,305.02 L166.46,305.62 L167.53,306.10 L168.60,306.56 L169.67,306.92 L170.74,307.15 L171.81,307.06 L172.88,306.95 L173.95,306.69 L175.02,306.32 L176.09,305.92 L177.17,305.55 L178.24,305.27 L179.31,305.12 L180.38,305.11 L181.45,305.24 L182.52,305.47 L183.59,305.74 L184.66,305.99 L185.73,306.16 L186.80,306.22 L187.87,306.16 L188.94,305.99 L190.02,305.74 L191.09,305.47 L192.16,305.24 L193.23,305.11 L194.30,305.12 L195.37,305.27 L196.44,305.55 L197.51,306.06 L198.58,306.47 L199.65,306.83 L200.72,307.09 L201.80,307.21 L202.87,307.01 L203.94,306.78 L205.01,306.41 L206.08,305.95 L207.15,305.47 L208.22,305.02 L209.29,304.64 L210.36,304.36 L211.43,304.17 L212.50,304.05 L213.57,303.95 L214.65,303.80 L215.72,303.55 L216.79,303.02 L217.86,302.46 L218.93,301.74 L220.00,300.91" fill="none" stroke="#e0e0e0" stroke-width="1.4"/>
<text x="83" y="238" fill="#666" font-family="monospace" font-size="9">05</text>
<rect x="228" y="224" width="152" height="152" fill="#0b0b0b" stroke="#444"/>
<line x1="236" y1="300.00" x2="372" y2="300.00" stroke="#292929"/>
<path d="M236.00,300.00 L237.07,298.15 L238.14,297.04 L239.21,296.09 L240.28,295.33 L241.35,294.79 L242.43,294.43 L243.50,294.21 L244.57,294.04 L245.64,293.84 L246.71,293.57 L247.78,293.18 L248.85,292.66 L249.92,292.05 L250.99,291.40 L252.06,290.78 L253.13,290.28 L254.20,289.96 L255.28,289.86 L256.35,289.98 L257.42,290.30 L258.49,290.74 L259.56,291.24 L260.63,291.70 L261.70,292.04 L262.77,292.22 L263.84,292.21 L264.91,292.03 L265.98,291.73 L267.06,291.38 L268.13,291.06 L269.20,290.84 L270.27,290.75 L271.34,290.84 L272.41,291.06 L273.48,291.38 L274.55,291.73 L275.62,292.03 L276.69,292.21 L277.76,292.22 L278.83,292.04 L279.91,291.70 L280.98,291.24 L282.05,290.74 L283.12,290.30 L284.19,289.98 L285.26,289.86 L286.33,289.96 L287.40,290.28 L288.47,290.78 L289.54,291.40 L290.61,292.05 L291.69,292.66 L292.76,293.18 L293.83,293.57 L294.90,293.84 L295.97,294.04 L297.04,294.21 L298.11,294.43 L299.18,294.79 L300.25,295.98 L301.32,296.73 L302.39,297.69 L303.46,298.80 L304.54,300.00 L305.61,301.85 L306.68,302.96 L307.75,303.91 L308.82,304.67 L309.89,305.21 L310.96,305.57 L312.03,305.79 L313.10,305.96 L314.17,306.16 L315.24,306.43 L316.31,306.82 L317.39,307.34 L318.46,307.95 L319.53,308.60 L320.60,309.22 L321.67,309.72 L322.74,310.04 L323.81,310.14 L324.88,310.02 L325.95,309.70 L327.02,309.26 L328.09,308.76 L329.17,308.30 L330.24,307.96 L331.31,307.78 L332.38,307.79 L333.45,307.97 L334.52,308.27 L335.59,308.62 L336.66,308.94 L337.73,309.16 L338.80,309.25 L339.87,309.16 L340.94,308.94 L342.02,308.62 L343.09,308.27 L344.16,307.97 L345.23,307.79 L346.30,307.78 L347.37,307.96 L348.44,308.30 L349.51,308.76 L350.58,309.26 L351.65,309.70 L352.72,310.02 L353.80,310.14 L354.87,310.04 L355.94,309.72 L357.01,309.22 L358.08,308.60 L359.15,307.95 L360.22,307.34 L361.29,306.82 L362.36,306.43 L363.43,306.16 L364.50,305.96 L365.57,305.79 L366.65,305.57 L367.72,305.21 L368.79,304.02 L369.86,303.27 L370.93,302.31 L372.00,301.20" fill="none" stroke="#e0e0e0" stroke-width="1.4"/>
<text x="235" y="238" fill="#666" font-family="monospace" font-size="9">06</text>
<rect x="380" y="224" width="152" height="152" fill="#0b0b0b" stroke="#444"/>
<line x1="388" y1="300.00" x2="524" y2="300.00" stroke="#292929"/>
<path d="M388.00,300.00 L389.07,298.64 L390.14,297.35 L391.21,296.22 L392.28,295.28 L393.35,294.53 L394.43,293.96 L395.50,293.51 L396.57,293.12 L397.64,292.72 L398.71,292.24 L399.78,291.66 L400.85,284.71 L401.92,283.94 L402.99,283.14 L404.06,282.38 L405.13,281.74 L406.20,281.27 L407.28,281.01 L408.35,280.97 L409.42,287.38 L410.49,287.66 L411.56,288.00 L412.63,288.31 L413.70,288.53 L414.77,288.61 L415.84,288.52 L416.91,288.29 L417.98,287.96 L419.06,287.59 L420.13,287.26 L421.20,287.03 L422.27,286.95 L423.34,287.03 L424.41,287.26 L425.48,287.59 L426.55,287.96 L427.62,288.29 L428.69,288.52 L429.76,288.61 L430.83,288.53 L431.91,282.06 L432.98,281.74 L434.05,281.40 L435.12,281.12 L436.19,280.97 L437.26,281.01 L438.33,281.27 L439.40,281.74 L440.47,288.64 L441.54,289.40 L442.61,290.20 L443.69,290.97 L444.76,291.66 L445.83,292.24 L446.90,292.72 L447.97,293.12 L449.04,293.51 L450.11,293.96 L451.18,294.53 L452.25,295.28 L453.32,296.22 L454.39,297.35 L455.46,298.64 L456.54,300.00 L457.61,301.36 L458.68,302.65 L459.75,303.78 L460.82,304.72 L461.89,305.47 L462.96,306.04 L464.03,306.49 L465.10,306.88 L466.17,307.28 L467.24,307.76 L468.31,308.34 L469.39,315.29 L470.46,316.06 L471.53,316.86 L472.60,317.62 L473.67,318.26 L474.74,318.73 L475.81,318.99 L476.88,319.03 L477.95,312.62 L479.02,312.34 L480.09,312.00 L481.17,311.69 L482.24,311.47 L483.31,311.39 L484.38,311.48 L485.45,311.71 L486.52,312.04 L487.59,312.41 L488.66,312.74 L489.73,312.97 L490.80,313.05 L491.87,312.97 L492.94,312.74 L494.02,312.41 L495.09,312.04 L496.16,311.71 L497.23,311.48 L498.30,311.39 L499.37,311.47 L500.44,317.94 L501.51,318.26 L502.58,318.60 L503.65,318.88 L504.72,319.03 L505.80,318.99 L506.87,318.73 L507.94,318.26 L509.01,311.36 L510.08,310.60 L511.15,309.80 L512.22,309.03 L513.29,308.34 L514.36,307.76 L515.43,307.28 L516.50,306.88 L517.57,306.49 L518.65,306.04 L519.72,305.47 L520.79,304.72 L521.86,303.78 L522.93,302.65 L524.00,301.36" fill="none" stroke="#e0e0e0" stroke-width="1.4"/>
<text x="387" y="238" fill="#666" font-family="monospace" font-size="9">07</text>
<rect x="532" y="224" width="152" height="152" fill="#0b0b0b" stroke="#444"/>
<line x1="540" y1="300.00" x2="676" y2="300.00" stroke="#292929"/>
<path d="M540.00,291.54 L541.07,291.02 L542.14,290.51 L543.21,290.02 L544.28,289.55 L545.35,289.10 L546.43,288.67 L547.50,288.26 L548.57,287.87 L549.64,287.47 L550.71,287.08 L551.78,286.69 L552.85,286.30 L553.92,285.91 L554.99,285.53 L556.06,285.16 L557.13,284.82 L558.20,284.51 L559.28,284.23 L560.35,283.99 L561.42,283.78 L562.49,283.61 L563.56,283.45 L564.63,283.30 L565.70,283.17 L566.77,283.04 L567.84,282.91 L568.91,282.78 L569.98,282.67 L571.06,282.57 L572.13,282.49 L573.20,282.44 L574.27,282.42 L575.34,282.44 L576.41,282.49 L577.48,282.57 L578.55,282.67 L579.62,282.78 L580.69,282.91 L581.76,283.04 L582.83,283.17 L583.91,283.30 L584.98,283.45 L586.05,283.61 L587.12,283.78 L588.19,283.99 L589.26,284.23 L590.33,284.51 L591.40,284.82 L592.47,285.16 L593.54,285.53 L594.61,285.91 L595.69,286.30 L596.76,286.69 L597.83,287.08 L598.90,287.47 L599.97,287.87 L601.04,288.26 L602.11,288.67 L603.18,289.10 L604.25,289.55 L605.32,290.02 L606.39,307.44 L607.46,307.95 L608.54,308.46 L609.61,308.98 L610.68,309.49 L611.75,309.98 L612.82,310.45 L613.89,310.90 L614.96,311.33 L616.03,311.74 L617.10,312.13 L618.17,312.53 L619.24,312.92 L620.31,313.31 L621.39,313.70 L622.46,314.09 L623.53,314.47 L624.60,314.84 L625.67,315.18 L626.74,315.49 L627.81,315.77 L628.88,316.01 L629.95,316.22 L631.02,316.39 L632.09,316.55 L633.17,316.70 L634.24,316.83 L635.31,316.96 L636.38,317.09 L637.45,317.22 L638.52,317.33 L639.59,317.43 L640.66,317.51 L641.73,317.56 L642.80,317.58 L643.87,317.56 L644.94,317.51 L646.02,317.43 L647.09,317.33 L648.16,317.22 L649.23,317.09 L650.30,316.96 L651.37,316.83 L652.44,316.70 L653.51,316.55 L654.58,316.39 L655.65,316.22 L656.72,316.01 L657.80,315.77 L658.87,315.49 L659.94,315.18 L661.01,314.84 L662.08,314.47 L663.15,314.09 L664.22,313.70 L665.29,313.31 L666.36,312.92 L667.43,312.53 L668.50,312.13 L669.57,311.74 L670.65,311.33 L671.72,310.90 L672.79,310.45 L673.86,309.98 L674.93,292.56 L676.00,292.05" fill="none" stroke="#e0e0e0" stroke-width="1.4"/>
<text x="539" y="238" fill="#666" font-family="monospace" font-size="9">08</text>
<rect x="76" y="376" width="152" height="152" fill="#0b0b0b" stroke="#444"/>
<line x1="84" y1="452.00" x2="220" y2="452.00" stroke="#292929"/>
<path d="M84.00,451.43 L85.07,450.32 L86.14,449.47 L87.21,448.97 L88.28,448.69 L89.35,448.61 L90.43,448.66 L91.50,448.56 L92.57,448.38 L93.64,447.90 L94.71,447.25 L95.78,446.48 L96.85,445.83 L97.92,445.26 L98.99,444.88 L100.06,444.89 L101.13,445.28 L102.20,445.72 L103.28,446.24 L104.35,446.58 L105.42,446.66 L106.49,446.54 L107.56,446.24 L108.63,445.96 L109.70,445.52 L110.77,445.30 L111.84,445.39 L112.91,445.68 L113.98,446.16 L115.06,446.74 L116.13,447.17 L117.20,447.49 L118.27,447.46 L119.34,447.20 L120.41,446.74 L121.48,446.17 L122.55,445.59 L123.62,445.40 L124.69,445.25 L125.76,445.44 L126.83,445.80 L127.91,446.25 L128.98,446.53 L130.05,446.54 L131.12,446.51 L132.19,446.15 L133.26,445.66 L134.33,445.14 L135.40,444.85 L136.47,444.89 L137.54,445.17 L138.61,445.84 L139.69,446.55 L140.76,447.20 L141.83,447.97 L142.90,448.33 L143.97,448.67 L145.04,448.71 L146.11,448.66 L147.18,448.76 L148.25,449.12 L149.32,449.68 L150.39,450.48 L151.46,451.47 L152.54,452.57 L153.61,453.68 L154.68,454.53 L155.75,455.03 L156.82,455.31 L157.89,455.39 L158.96,455.34 L160.03,455.44 L161.10,455.62 L162.17,456.10 L163.24,456.75 L164.31,457.52 L165.39,458.17 L166.46,458.74 L167.53,459.12 L168.60,459.11 L169.67,458.72 L170.74,458.28 L171.81,457.76 L172.88,457.42 L173.95,457.34 L175.02,457.46 L176.09,457.76 L177.17,458.04 L178.24,458.48 L179.31,458.70 L180.38,458.61 L181.45,458.32 L182.52,457.84 L183.59,457.26 L184.66,456.83 L185.73,456.51 L186.80,456.54 L187.87,456.80 L188.94,457.26 L190.02,457.83 L191.09,458.41 L192.16,458.60 L193.23,458.75 L194.30,458.56 L195.37,458.20 L196.44,457.75 L197.51,457.47 L198.58,457.46 L199.65,457.49 L200.72,457.85 L201.80,458.34 L202.87,458.86 L203.94,459.15 L205.01,459.11 L206.08,458.83 L207.15,458.16 L208.22,457.45 L209.29,456.80 L210.36,456.03 L211.43,455.67 L212.50,455.33 L213.57,455.29 L214.65,455.34 L215.72,455.24 L216.79,454.88 L217.86,454.32 L218.93,453.52 L220.00,452.53" fill="none" stroke="#e0e0e0" stroke-width="1.4"/>
<text x="83" y="390" fill="#666" font-family="monospace" font-size="9">09</text>
<rect x="228" y="376" width="152" height="152" fill="#0b0b0b" stroke="#444"/>
<line x1="236" y1="452.00" x2="372" y2="452.00" stroke="#292929"/>
<path d="M236.00,450.09 L237.07,448.20 L238.14,447.08 L239.21,446.86 L240.28,446.92 L241.35,447.24 L242.43,447.07 L243.50,446.92 L244.57,446.65 L245.64,445.55 L246.71,444.88 L247.78,443.41 L248.85,442.55 L249.92,441.80 L250.99,441.28 L252.06,441.71 L253.13,442.45 L254.20,443.44 L255.28,443.89 L256.35,444.94 L257.42,444.56 L258.49,444.57 L259.56,443.72 L260.63,442.71 L261.70,442.31 L262.77,442.02 L263.84,442.58 L264.91,442.76 L265.98,443.81 L267.06,444.99 L268.13,445.54 L269.20,445.93 L270.27,445.44 L271.34,444.66 L272.41,443.63 L273.48,443.09 L274.55,441.90 L275.62,441.49 L276.69,441.94 L277.76,442.66 L278.83,442.95 L279.91,443.98 L280.98,444.35 L282.05,444.57 L283.12,443.92 L284.19,443.04 L285.26,441.98 L286.33,441.53 L287.40,441.18 L288.47,441.71 L289.54,442.55 L290.61,443.70 L291.69,445.09 L292.76,445.95 L293.83,446.78 L294.90,447.46 L295.97,447.29 L297.04,447.55 L298.11,447.07 L299.18,447.24 L300.25,448.19 L301.32,449.40 L302.39,450.90 L303.46,452.65 L304.54,453.91 L305.61,455.80 L306.68,456.92 L307.75,457.14 L308.82,457.08 L309.89,456.76 L310.96,456.93 L312.03,457.08 L313.10,457.35 L314.17,458.45 L315.24,459.12 L316.31,460.59 L317.39,461.45 L318.46,462.20 L319.53,462.72 L320.60,462.29 L321.67,461.55 L322.74,460.56 L323.81,460.11 L324.88,459.06 L325.95,459.44 L327.02,459.43 L328.09,460.28 L329.17,461.29 L330.24,461.69 L331.31,461.98 L332.38,461.42 L333.45,461.24 L334.52,460.19 L335.59,459.01 L336.66,458.46 L337.73,458.07 L338.80,458.56 L339.87,459.34 L340.94,460.37 L342.02,460.91 L343.09,462.10 L344.16,462.51 L345.23,462.06 L346.30,461.34 L347.37,461.05 L348.44,460.02 L349.51,459.65 L350.58,459.43 L351.65,460.08 L352.72,460.96 L353.80,462.02 L354.87,462.47 L355.94,462.82 L357.01,462.29 L358.08,461.45 L359.15,460.30 L360.22,458.91 L361.29,458.05 L362.36,457.22 L363.43,456.54 L364.50,456.71 L365.57,456.45 L366.65,456.93 L367.72,456.76 L368.79,455.81 L369.86,454.60 L370.93,453.10 L372.00,451.35" fill="none" stroke="#e0e0e0" stroke-width="1.4"/>
<text x="235" y="390" fill="#666" font-family="monospace" font-size="9">10</text>
<rect x="380" y="376" width="152" height="152" fill="#0b0b0b" stroke="#444"/>
<line x1="388" y1="452.00" x2="524" y2="452.00" stroke="#292929"/>
<path d="M388.00,441.13 L389.07,439.88 L390.14,438.75 L391.21,443.26 L392.28,442.58 L393.35,442.11 L394.43,447.20 L395.50,446.87 L396.57,446.45 L397.64,440.43 L398.71,439.69 L399.78,433.38 L400.85,432.49 L401.92,431.70 L402.99,436.54 L404.06,436.21 L405.13,441.57 L406.20,441.71 L407.28,441.94 L408.35,442.15 L409.42,442.23 L410.49,442.13 L411.56,436.41 L412.63,436.01 L413.70,435.59 L414.77,435.27 L415.84,435.14 L416.91,440.67 L417.98,440.96 L419.06,441.37 L420.13,441.80 L421.20,442.11 L422.27,442.22 L423.34,442.11 L424.41,436.36 L425.48,435.94 L426.55,435.53 L427.62,435.23 L428.69,435.14 L429.76,435.27 L430.83,441.03 L431.91,441.44 L432.98,441.84 L434.05,442.13 L435.12,436.80 L436.19,436.72 L437.26,436.51 L438.33,436.27 L439.40,436.14 L440.47,436.21 L441.54,436.54 L442.61,442.57 L443.69,443.36 L444.76,449.68 L445.83,450.55 L446.90,451.30 L447.97,446.45 L449.04,446.87 L450.11,447.20 L451.18,447.54 L452.25,448.01 L453.32,448.70 L454.39,455.05 L455.46,456.18 L456.54,462.87 L457.61,464.12 L458.68,465.25 L459.75,460.74 L460.82,461.42 L461.89,461.89 L462.96,456.80 L464.03,457.13 L465.10,457.55 L466.17,463.57 L467.24,464.31 L468.31,470.62 L469.39,471.51 L470.46,472.30 L471.53,467.46 L472.60,467.79 L473.67,462.43 L474.74,462.29 L475.81,462.06 L476.88,461.85 L477.95,461.77 L479.02,461.87 L480.09,467.59 L481.17,467.99 L482.24,468.41 L483.31,468.73 L484.38,468.86 L485.45,463.33 L486.52,463.04 L487.59,462.63 L488.66,462.20 L489.73,461.89 L490.80,461.78 L491.87,461.89 L492.94,467.64 L494.02,468.06 L495.09,468.47 L496.16,468.77 L497.23,468.86 L498.30,468.73 L499.37,462.97 L500.44,462.56 L501.51,462.16 L502.58,461.87 L503.65,467.20 L504.72,467.28 L505.80,467.49 L506.87,467.73 L507.94,467.86 L509.01,467.79 L510.08,467.46 L511.15,461.43 L512.22,460.64 L513.29,454.32 L514.36,453.45 L515.43,452.70 L516.50,457.55 L517.57,457.13 L518.65,456.80 L519.72,456.46 L520.79,455.99 L521.86,455.30 L522.93,448.95 L524.00,447.82" fill="none" stroke="#e0e0e0" stroke-width="1.4"/>
<text x="387" y="390" fill="#666" font-family="monospace" font-size="9">11</text>
<rect x="532" y="376" width="152" height="152" fill="#0b0b0b" stroke="#444"/>
<line x1="540" y1="452.00" x2="676" y2="452.00" stroke="#292929"/>
<path d="M540.00,442.41 L541.07,441.82 L542.14,441.24 L543.21,440.69 L544.28,440.17 L545.35,439.69 L546.43,439.22 L547.50,438.77 L548.57,438.30 L549.64,437.83 L550.71,437.35 L551.78,436.86 L552.85,436.38 L553.92,435.92 L554.99,435.50 L556.06,435.13 L557.13,434.80 L558.20,434.52 L559.28,453.44 L560.35,453.20 L561.42,452.95 L562.49,433.53 L563.56,433.28 L564.63,433.03 L565.70,432.80 L566.77,432.61 L567.84,432.45 L568.91,432.35 L569.98,451.46 L571.06,451.44 L572.13,451.44 L573.20,451.45 L574.27,451.45 L575.34,432.27 L576.41,432.27 L577.48,432.27 L578.55,432.29 L579.62,432.35 L580.69,432.45 L581.76,432.61 L582.83,432.80 L583.91,433.03 L584.98,433.28 L586.05,433.53 L587.12,433.78 L588.19,434.02 L589.26,434.26 L590.33,434.52 L591.40,434.80 L592.47,435.13 L593.54,435.50 L594.61,435.92 L595.69,455.55 L596.76,456.03 L597.83,456.52 L598.90,457.01 L599.97,457.48 L601.04,438.77 L602.11,439.22 L603.18,439.69 L604.25,440.17 L605.32,459.87 L606.39,460.42 L607.46,460.99 L608.54,461.59 L609.61,462.18 L610.68,462.76 L611.75,463.31 L612.82,463.83 L613.89,464.31 L614.96,464.78 L616.03,465.23 L617.10,465.70 L618.17,466.17 L619.24,466.65 L620.31,467.14 L621.39,467.62 L622.46,468.08 L623.53,468.50 L624.60,468.87 L625.67,469.20 L626.74,469.48 L627.81,450.56 L628.88,450.80 L629.95,451.05 L631.02,470.47 L632.09,470.72 L633.17,470.97 L634.24,471.20 L635.31,471.39 L636.38,471.55 L637.45,471.65 L638.52,452.54 L639.59,452.56 L640.66,452.56 L641.73,452.55 L642.80,452.55 L643.87,471.73 L644.94,471.73 L646.02,471.73 L647.09,471.71 L648.16,471.65 L649.23,471.55 L650.30,471.39 L651.37,471.20 L652.44,470.97 L653.51,470.72 L654.58,470.47 L655.65,470.22 L656.72,469.98 L657.80,469.74 L658.87,469.48 L659.94,469.20 L661.01,468.87 L662.08,468.50 L663.15,468.08 L664.22,448.45 L665.29,447.97 L666.36,447.48 L667.43,446.99 L668.50,446.52 L669.57,465.23 L670.65,464.78 L671.72,464.31 L672.79,463.83 L673.86,444.13 L674.93,443.58 L676.00,443.01" fill="none" stroke="#e0e0e0" stroke-width="1.4"/>
<text x="539" y="390" fill="#666" font-family="monospace" font-size="9">12</text>
<rect x="76" y="528" width="152" height="152" fill="#0b0b0b" stroke="#444"/>
<line x1="84" y1="604.00" x2="220" y2="604.00" stroke="#292929"/>
<path d="M84.00,603.42 L85.07,602.24 L86.14,601.53 L87.21,600.98 L88.28,601.01 L89.35,601.08 L90.43,601.02 L91.50,600.81 L92.57,600.20 L93.64,599.35 L94.71,598.40 L95.78,597.66 L96.85,597.17 L97.92,597.30 L98.99,597.60 L100.06,598.08 L101.13,598.56 L102.20,598.72 L103.28,598.47 L104.35,597.85 L105.42,597.42 L106.49,596.92 L107.56,596.95 L108.63,597.28 L109.70,598.02 L110.77,598.73 L111.84,599.22 L112.91,599.33 L113.98,599.14 L115.06,598.68 L116.13,598.11 L117.20,597.61 L118.27,597.61 L119.34,597.90 L120.41,598.40 L121.48,598.97 L122.55,599.28 L123.62,599.19 L124.69,598.79 L125.76,598.01 L126.83,597.44 L127.91,596.85 L128.98,596.80 L130.05,597.21 L131.12,597.71 L132.19,598.29 L133.26,598.62 L134.33,598.57 L135.40,598.27 L136.47,597.79 L137.54,597.31 L138.61,597.15 L139.69,597.60 L140.76,598.24 L141.83,599.27 L142.90,600.22 L143.97,600.92 L145.04,601.24 L146.11,601.31 L147.18,601.22 L148.25,601.30 L149.32,601.56 L150.39,602.26 L151.46,603.40 L152.54,604.58 L153.61,605.76 L154.68,606.47 L155.75,607.02 L156.82,606.99 L157.89,606.92 L158.96,606.98 L160.03,607.19 L161.10,607.80 L162.17,608.65 L163.24,609.60 L164.31,610.34 L165.39,610.83 L166.46,610.70 L167.53,610.40 L168.60,609.92 L169.67,609.44 L170.74,609.28 L171.81,609.53 L172.88,610.15 L173.95,610.58 L175.02,611.08 L176.09,611.05 L177.17,610.72 L178.24,609.98 L179.31,609.27 L180.38,608.78 L181.45,608.67 L182.52,608.86 L183.59,609.32 L184.66,609.89 L185.73,610.39 L186.80,610.39 L187.87,610.10 L188.94,609.60 L190.02,609.03 L191.09,608.72 L192.16,608.81 L193.23,609.21 L194.30,609.99 L195.37,610.56 L196.44,611.15 L197.51,611.20 L198.58,610.79 L199.65,610.29 L200.72,609.71 L201.80,609.38 L202.87,609.43 L203.94,609.73 L205.01,610.21 L206.08,610.69 L207.15,610.85 L208.22,610.40 L209.29,609.76 L210.36,608.73 L211.43,607.78 L212.50,607.08 L213.57,606.76 L214.65,606.69 L215.72,606.78 L216.79,606.70 L217.86,606.44 L218.93,605.74 L220.00,604.60" fill="none" stroke="#e0e0e0" stroke-width="1.4"/>
<text x="83" y="542" fill="#666" font-family="monospace" font-size="9">13</text>
<rect x="228" y="528" width="152" height="152" fill="#0b0b0b" stroke="#444"/>
<line x1="236" y1="604.00" x2="372" y2="604.00" stroke="#292929"/>
<path d="M236.00,602.04 L237.07,600.02 L238.14,599.54 L239.21,598.78 L240.28,599.06 L241.35,599.58 L242.43,600.11 L243.50,599.15 L244.57,598.51 L245.64,596.92 L246.71,595.20 L247.78,594.21 L248.85,593.54 L249.92,593.96 L250.99,594.78 L252.06,595.83 L253.13,596.88 L254.20,596.41 L255.28,596.25 L256.35,595.15 L257.42,593.92 L258.49,593.44 L259.56,593.92 L260.63,594.80 L261.70,596.02 L262.77,596.73 L263.84,597.35 L264.91,597.66 L265.98,596.94 L267.06,595.88 L268.13,594.67 L269.20,594.21 L270.27,594.03 L271.34,594.86 L272.41,595.98 L273.48,597.18 L274.55,597.59 L275.62,597.01 L276.69,596.04 L277.76,594.77 L278.83,593.41 L279.91,592.85 L280.98,593.27 L282.05,594.10 L283.12,595.22 L284.19,595.80 L285.26,596.25 L286.33,596.41 L287.40,595.58 L288.47,594.53 L289.54,594.12 L290.61,593.96 L291.69,594.85 L292.76,596.17 L293.83,597.80 L294.90,599.53 L295.97,600.47 L297.04,600.45 L298.11,600.77 L299.18,600.23 L300.25,600.36 L301.32,600.73 L302.39,602.14 L303.46,603.93 L304.54,605.96 L305.61,607.98 L306.68,608.46 L307.75,609.22 L308.82,608.94 L309.89,608.42 L310.96,607.89 L312.03,608.85 L313.10,609.49 L314.17,611.08 L315.24,612.80 L316.31,613.79 L317.39,614.46 L318.46,614.04 L319.53,613.22 L320.60,612.17 L321.67,611.12 L322.74,611.59 L323.81,611.75 L324.88,612.85 L325.95,614.08 L327.02,614.56 L328.09,614.08 L329.17,613.20 L330.24,611.98 L331.31,611.27 L332.38,610.65 L333.45,610.34 L334.52,611.06 L335.59,612.12 L336.66,613.33 L337.73,613.79 L338.80,613.97 L339.87,613.14 L340.94,612.02 L342.02,610.82 L343.09,610.41 L344.16,610.99 L345.23,611.96 L346.30,613.23 L347.37,614.59 L348.44,615.15 L349.51,614.73 L350.58,613.90 L351.65,612.78 L352.72,612.20 L353.80,611.75 L354.87,611.59 L355.94,612.42 L357.01,613.47 L358.08,613.88 L359.15,614.04 L360.22,613.15 L361.29,611.83 L362.36,610.20 L363.43,608.47 L364.50,607.53 L365.57,607.55 L366.65,607.23 L367.72,607.77 L368.79,607.64 L369.86,607.27 L370.93,605.86 L372.00,604.07" fill="none" stroke="#e0e0e0" stroke-width="1.4"/>
<text x="235" y="542" fill="#666" font-family="monospace" font-size="9">14</text>
<rect x="380" y="528" width="152" height="152" fill="#0b0b0b" stroke="#444"/>
<line x1="388" y1="604.00" x2="524" y2="604.00" stroke="#292929"/>
<path d="M388.00,592.67 L389.07,591.30 L390.14,590.13 L391.21,594.94 L392.28,594.40 L393.35,599.74 L394.43,599.43 L395.50,598.95 L396.57,592.55 L397.64,591.56 L398.71,584.80 L399.78,583.78 L400.85,588.69 L401.92,588.31 L402.99,593.94 L404.06,594.10 L405.13,594.27 L406.20,594.27 L407.28,593.99 L408.35,587.81 L409.42,587.20 L410.49,586.68 L411.56,586.43 L412.63,592.18 L413.70,592.56 L414.77,598.74 L415.84,599.19 L416.91,593.73 L417.98,593.61 L419.06,587.57 L420.13,587.08 L421.20,586.68 L422.27,586.52 L423.34,592.34 L424.41,592.75 L425.48,593.24 L426.55,593.61 L427.62,593.73 L428.69,593.52 L429.76,587.41 L430.83,586.90 L431.91,586.52 L432.98,586.43 L434.05,586.68 L435.12,592.87 L436.19,593.48 L437.26,593.99 L438.33,594.27 L439.40,588.61 L440.47,588.44 L441.54,588.28 L442.61,588.31 L443.69,588.69 L444.76,595.11 L445.83,601.79 L446.90,602.89 L447.97,603.87 L449.04,604.62 L450.11,599.43 L451.18,599.74 L452.25,600.07 L453.32,600.60 L454.39,607.12 L455.46,608.29 L456.54,615.33 L457.61,616.70 L458.68,617.87 L459.75,613.06 L460.82,613.60 L461.89,608.26 L462.96,608.57 L464.03,609.05 L465.10,615.45 L466.17,616.44 L467.24,623.20 L468.31,624.22 L469.39,619.31 L470.46,619.69 L471.53,614.06 L472.60,613.90 L473.67,613.73 L474.74,613.73 L475.81,614.01 L476.88,620.19 L477.95,620.80 L479.02,621.32 L480.09,621.57 L481.17,615.82 L482.24,615.44 L483.31,609.26 L484.38,608.81 L485.45,614.27 L486.52,614.39 L487.59,620.43 L488.66,620.92 L489.73,621.32 L490.80,621.48 L491.87,615.66 L492.94,615.25 L494.02,614.76 L495.09,614.39 L496.16,614.27 L497.23,614.48 L498.30,620.59 L499.37,621.10 L500.44,621.48 L501.51,621.57 L502.58,621.32 L503.65,615.13 L504.72,614.52 L505.80,614.01 L506.87,613.73 L507.94,619.39 L509.01,619.56 L510.08,619.72 L511.15,619.69 L512.22,619.31 L513.29,612.89 L514.36,606.21 L515.43,605.11 L516.50,604.13 L517.57,603.38 L518.65,608.57 L519.72,608.26 L520.79,607.93 L521.86,607.40 L522.93,600.88 L524.00,599.71" fill="none" stroke="#e0e0e0" stroke-width="1.4"/>
<text x="387" y="542" fill="#666" font-family="monospace" font-size="9">15</text>
<rect x="532" y="528" width="152" height="152" fill="#0b0b0b" stroke="#444"/>
<line x1="540" y1="604.00" x2="676" y2="604.00" stroke="#292929"/>
<path d="M540.00,593.60 L541.07,592.95 L542.14,592.32 L543.21,591.74 L544.28,591.20 L545.35,590.70 L546.43,590.20 L547.50,589.69 L548.57,589.15 L549.64,588.58 L550.71,588.02 L551.78,587.47 L552.85,586.97 L553.92,586.54 L554.99,586.16 L556.06,606.62 L557.13,606.30 L558.20,605.97 L559.28,584.83 L560.35,584.47 L561.42,584.11 L562.49,583.79 L563.56,583.53 L564.63,583.32 L565.70,603.98 L566.77,603.87 L567.84,603.78 L568.91,603.68 L569.98,603.57 L571.06,582.64 L572.13,582.52 L573.20,582.43 L574.27,582.40 L575.34,582.43 L576.41,603.31 L577.48,603.44 L578.55,603.57 L579.62,603.68 L580.69,582.99 L581.76,583.08 L582.83,583.18 L583.91,583.32 L584.98,583.53 L586.05,583.79 L587.12,584.11 L588.19,605.26 L589.26,605.62 L590.33,585.17 L591.40,585.50 L592.47,585.82 L593.54,586.16 L594.61,586.54 L595.69,586.97 L596.76,608.27 L597.83,608.81 L598.90,609.38 L599.97,609.94 L601.04,610.48 L602.11,611.00 L603.18,590.70 L604.25,591.20 L605.32,612.54 L606.39,613.12 L607.46,613.74 L608.54,614.40 L609.61,615.05 L610.68,615.68 L611.75,616.26 L612.82,616.80 L613.89,617.30 L614.96,617.80 L616.03,618.31 L617.10,618.85 L618.17,619.42 L619.24,619.98 L620.31,620.53 L621.39,621.03 L622.46,621.46 L623.53,621.84 L624.60,601.38 L625.67,601.70 L626.74,602.03 L627.81,623.17 L628.88,623.53 L629.95,623.89 L631.02,624.21 L632.09,624.47 L633.17,624.68 L634.24,604.02 L635.31,604.13 L636.38,604.22 L637.45,604.32 L638.52,604.43 L639.59,625.36 L640.66,625.48 L641.73,625.57 L642.80,625.60 L643.87,625.57 L644.94,604.69 L646.02,604.56 L647.09,604.43 L648.16,604.32 L649.23,625.01 L650.30,624.92 L651.37,624.82 L652.44,624.68 L653.51,624.47 L654.58,624.21 L655.65,623.89 L656.72,602.74 L657.80,602.38 L658.87,622.83 L659.94,622.50 L661.01,622.18 L662.08,621.84 L663.15,621.46 L664.22,621.03 L665.29,599.73 L666.36,599.19 L667.43,598.62 L668.50,598.06 L669.57,597.52 L670.65,597.00 L671.72,617.30 L672.79,616.80 L673.86,595.46 L674.93,594.88 L676.00,594.26" fill="none" stroke="#e0e0e0" stroke-width="1.4"/>
<text x="539" y="542" fill="#666" font-family="monospace" font-size="9">16</text>
</svg>
