<svg xmlns="http://www.w3.org/2000/svg" width="760" height="760" viewBox="0 0 760 760">
<rect width="760" height="760" fill="#161616"/>
<text x="24" y="32" fill="#dedede" font-family="monospace" font-size="15">S3G VOT / BARBERPOLE</text>
<text x="684" y="724" text-anchor="end" fill="#858585" font-family="monospace" font-size="11">U / CYCLIC SPECTRAL CENTER</text>
<text x="24" y="72" fill="#858585" font-family="monospace" font-size="11">V / OCTAVE DENSITY</text>
<text x="76" y="724" fill="#858585" font-family="monospace" font-size="11">ENERGY / LEVEL MATCHED</text>
<rect x="76" y="72" width="152" height="152" fill="#0b0b0b" stroke="#444"/>
<line x1="84" y1="148.00" x2="220" y2="148.00" stroke="#292929"/>
<path d="M84.00,148.00 L85.07,146.96 L86.14,145.93 L87.21,144.90 L88.28,143.88 L89.35,142.87 L90.43,141.87 L91.50,140.89 L92.57,139.92 L93.64,138.98 L94.71,138.06 L95.78,137.17 L96.85,136.30 L97.92,135.46 L98.99,134.66 L100.06,133.89 L101.13,133.15 L102.20,132.45 L103.28,131.79 L104.35,131.17 L105.42,130.60 L106.49,130.07 L107.56,129.58 L108.63,129.13 L109.70,128.74 L110.77,128.39 L111.84,128.09 L112.91,127.84 L113.98,127.64 L115.06,127.49 L116.13,127.39 L117.20,127.33 L118.27,127.33 L119.34,127.38 L120.41,127.48 L121.48,127.62 L122.55,127.82 L123.62,128.06 L124.69,128.35 L125.76,128.69 L126.83,129.07 L127.91,129.50 L128.98,129.97 L130.05,130.48 L131.12,131.03 L132.19,131.63 L133.26,132.26 L134.33,132.92 L135.40,133.62 L136.47,134.36 L137.54,135.12 L138.61,135.91 L139.69,136.74 L140.76,137.58 L141.83,138.45 L142.90,139.35 L143.97,140.26 L145.04,141.19 L146.11,142.13 L147.18,143.09 L148.25,144.06 L149.32,145.04 L150.39,146.02 L151.46,147.01 L152.54,148.00 L153.61,148.99 L154.68,149.98 L155.75,150.96 L156.82,151.94 L157.89,152.91 L158.96,153.87 L160.03,154.81 L161.10,155.74 L162.17,156.65 L163.24,157.55 L164.31,158.42 L165.39,159.26 L166.46,160.09 L167.53,160.88 L168.60,161.64 L169.67,162.38 L170.74,163.08 L171.81,163.74 L172.88,164.37 L173.95,164.97 L175.02,165.52 L176.09,166.03 L177.17,166.50 L178.24,166.93 L179.31,167.31 L180.38,167.65 L181.45,167.94 L182.52,168.18 L183.59,168.38 L184.66,168.52 L185.73,168.62 L186.80,168.67 L187.87,168.67 L188.94,168.61 L190.02,168.51 L191.09,168.36 L192.16,168.16 L193.23,167.91 L194.30,167.61 L195.37,167.26 L196.44,166.87 L197.51,166.42 L198.58,165.93 L199.65,165.40 L200.72,164.83 L201.80,164.21 L202.87,163.55 L203.94,162.85 L205.01,162.11 L206.08,161.34 L207.15,160.54 L208.22,159.70 L209.29,158.83 L210.36,157.94 L211.43,157.02 L212.50,156.08 L213.57,155.11 L214.65,154.13 L215.72,153.13 L216.79,152.12 L217.86,151.10 L218.93,150.07 L220.00,149.04" fill="none" stroke="#e0e0e0" stroke-width="1.4"/>
<text x="83" y="86" fill="#666" font-family="monospace" font-size="9">01</text>
<rect x="228" y="72" width="152" height="152" fill="#0b0b0b" stroke="#444"/>
<line x1="236" y1="148.00" x2="372" y2="148.00" stroke="#292929"/>
<path d="M236.00,148.00 L237.07,142.18 L238.14,136.78 L239.21,132.16 L240.28,128.60 L241.35,126.29 L242.43,125.24 L243.50,125.39 L244.57,126.55 L245.64,128.46 L246.71,130.85 L247.78,133.44 L248.85,136.00 L249.92,138.41 L250.99,140.58 L252.06,142.56 L253.13,144.42 L254.20,146.29 L255.28,148.29 L256.35,150.51 L257.42,152.97 L258.49,155.62 L259.56,158.30 L260.63,160.79 L261.70,162.83 L262.77,164.14 L263.84,164.45 L264.91,163.58 L265.98,161.45 L267.06,158.10 L268.13,153.70 L269.20,148.53 L270.27,142.95 L271.34,137.39 L272.41,132.25 L273.48,127.91 L274.55,124.65 L275.62,122.63 L276.69,121.89 L277.76,122.36 L278.83,123.84 L279.91,126.08 L280.98,128.80 L282.05,131.73 L283.12,134.64 L284.19,137.39 L285.26,139.91 L286.33,142.24 L287.40,144.45 L288.47,146.67 L289.54,149.01 L290.61,151.58 L291.69,154.39 L292.76,157.37 L293.83,160.39 L294.90,163.22 L295.97,165.59 L297.04,167.21 L298.11,167.83 L299.18,167.26 L300.25,165.43 L301.32,162.36 L302.39,158.24 L303.46,153.32 L304.54,148.00 L305.61,142.68 L306.68,137.76 L307.75,133.64 L308.82,130.57 L309.89,128.74 L310.96,128.17 L312.03,128.79 L313.10,130.41 L314.17,132.78 L315.24,135.61 L316.31,138.63 L317.39,141.61 L318.46,144.42 L319.53,146.99 L320.60,149.33 L321.67,151.55 L322.74,153.76 L323.81,156.09 L324.88,158.61 L325.95,161.36 L327.02,164.27 L328.09,167.20 L329.17,169.92 L330.24,172.16 L331.31,173.64 L332.38,174.11 L333.45,173.37 L334.52,171.35 L335.59,168.09 L336.66,163.75 L337.73,158.61 L338.80,153.05 L339.87,147.47 L340.94,142.30 L342.02,137.90 L343.09,134.55 L344.16,132.42 L345.23,131.55 L346.30,131.86 L347.37,133.17 L348.44,135.21 L349.51,137.70 L350.58,140.38 L351.65,143.03 L352.72,145.49 L353.80,147.71 L354.87,149.71 L355.94,151.58 L357.01,153.44 L358.08,155.42 L359.15,157.59 L360.22,160.00 L361.29,162.56 L362.36,165.15 L363.43,167.54 L364.50,169.45 L365.57,170.61 L366.65,170.76 L367.72,169.71 L368.79,167.40 L369.86,163.84 L370.93,159.22 L372.00,153.82" fill="none" stroke="#e0e0e0" stroke-width="1.4"/>
<text x="235" y="86" fill="#666" font-family="monospace" font-size="9">02</text>
<rect x="380" y="72" width="152" height="152" fill="#0b0b0b" stroke="#444"/>
<line x1="388" y1="148.00" x2="524" y2="148.00" stroke="#292929"/>
<path d="M388.00,148.00 L389.07,124.98 L390.14,142.89 L391.21,163.50 L392.28,147.02 L393.35,130.53 L394.43,151.15 L395.50,169.07 L396.57,146.07 L397.64,123.07 L398.71,141.01 L399.78,161.65 L400.85,145.20 L401.92,128.75 L402.99,149.41 L404.06,167.38 L405.13,144.43 L406.20,121.49 L407.28,139.49 L408.35,160.19 L409.42,143.80 L410.49,127.43 L411.56,148.16 L412.63,166.21 L413.70,143.34 L414.77,120.48 L415.84,138.56 L416.91,159.35 L417.98,143.05 L419.06,126.76 L420.13,147.59 L421.20,165.73 L422.27,142.95 L423.34,120.19 L424.41,138.36 L425.48,159.25 L426.55,143.05 L427.62,126.86 L428.69,147.78 L429.76,166.02 L430.83,143.34 L431.91,120.67 L432.98,138.94 L434.05,159.92 L435.12,143.80 L436.19,127.70 L437.26,148.71 L438.33,167.03 L439.40,144.43 L440.47,121.84 L441.54,140.18 L442.61,161.24 L443.69,145.20 L444.76,129.16 L445.83,150.23 L446.90,168.61 L447.97,146.07 L449.04,123.53 L450.11,141.92 L451.18,163.02 L452.25,147.02 L453.32,131.02 L454.39,152.12 L455.46,170.52 L456.54,148.00 L457.61,125.48 L458.68,143.88 L459.75,164.98 L460.82,148.98 L461.89,132.98 L462.96,154.08 L464.03,172.47 L465.10,149.93 L466.17,127.39 L467.24,145.77 L468.31,166.84 L469.39,150.80 L470.46,134.76 L471.53,155.82 L472.60,174.16 L473.67,151.57 L474.74,128.97 L475.81,147.29 L476.88,168.30 L477.95,152.20 L479.02,136.08 L480.09,157.06 L481.17,175.33 L482.24,152.66 L483.31,129.98 L484.38,148.22 L485.45,169.14 L486.52,152.95 L487.59,136.75 L488.66,157.64 L489.73,175.81 L490.80,153.05 L491.87,130.27 L492.94,148.41 L494.02,169.24 L495.09,152.95 L496.16,136.65 L497.23,157.44 L498.30,175.52 L499.37,152.66 L500.44,129.79 L501.51,147.84 L502.58,168.57 L503.65,152.20 L504.72,135.81 L505.80,156.51 L506.87,174.51 L507.94,151.57 L509.01,128.62 L510.08,146.59 L511.15,167.25 L512.22,150.80 L513.29,134.35 L514.36,154.99 L515.43,172.93 L516.50,149.93 L517.57,126.93 L518.65,144.85 L519.72,165.47 L520.79,148.98 L521.86,132.50 L522.93,153.11 L524.00,171.02" fill="none" stroke="#e0e0e0" stroke-width="1.4"/>
<text x="387" y="86" fill="#666" font-family="monospace" font-size="9">03</text>
<rect x="532" y="72" width="152" height="152" fill="#0b0b0b" stroke="#444"/>
<line x1="540" y1="148.00" x2="676" y2="148.00" stroke="#292929"/>
<path d="M540.00,148.00 L541.07,146.96 L542.14,145.93 L543.21,144.90 L544.28,143.88 L545.35,142.87 L546.43,141.87 L547.50,140.89 L548.57,139.92 L549.64,138.98 L550.71,138.06 L551.78,137.17 L552.85,136.30 L553.92,135.46 L554.99,134.66 L556.06,133.89 L557.13,133.15 L558.20,132.45 L559.28,131.79 L560.35,131.17 L561.42,130.60 L562.49,130.07 L563.56,129.58 L564.63,129.13 L565.70,128.74 L566.77,128.39 L567.84,128.09 L568.91,127.84 L569.98,127.64 L571.06,127.49 L572.13,127.39 L573.20,127.33 L574.27,127.33 L575.34,127.38 L576.41,127.48 L577.48,127.62 L578.55,127.82 L579.62,128.06 L580.69,128.35 L581.76,128.69 L582.83,129.07 L583.91,129.50 L584.98,129.97 L586.05,130.48 L587.12,131.03 L588.19,131.63 L589.26,132.26 L590.33,132.92 L591.40,133.62 L592.47,134.36 L593.54,135.12 L594.61,135.91 L595.69,136.74 L596.76,137.58 L597.83,138.45 L598.90,139.35 L599.97,140.26 L601.04,141.19 L602.11,142.13 L603.18,143.09 L604.25,144.06 L605.32,145.04 L606.39,146.02 L607.46,147.01 L608.54,148.00 L609.61,148.99 L610.68,149.98 L611.75,150.96 L612.82,151.94 L613.89,152.91 L614.96,153.87 L616.03,154.81 L617.10,155.74 L618.17,156.65 L619.24,157.55 L620.31,158.42 L621.39,159.26 L622.46,160.09 L623.53,160.88 L624.60,161.64 L625.67,162.38 L626.74,163.08 L627.81,163.74 L628.88,164.37 L629.95,164.97 L631.02,165.52 L632.09,166.03 L633.17,166.50 L634.24,166.93 L635.31,167.31 L636.38,167.65 L637.45,167.94 L638.52,168.18 L639.59,168.38 L640.66,168.52 L641.73,168.62 L642.80,168.67 L643.87,168.67 L644.94,168.61 L646.02,168.51 L647.09,168.36 L648.16,168.16 L649.23,167.91 L650.30,167.61 L651.37,167.26 L652.44,166.87 L653.51,166.42 L654.58,165.93 L655.65,165.40 L656.72,164.83 L657.80,164.21 L658.87,163.55 L659.94,162.85 L661.01,162.11 L662.08,161.34 L663.15,160.54 L664.22,159.70 L665.29,158.83 L666.36,157.94 L667.43,157.02 L668.50,156.08 L669.57,155.11 L670.65,154.13 L671.72,153.13 L672.79,152.12 L673.86,151.10 L674.93,150.07 L676.00,149.04" fill="none" stroke="#e0e0e0" stroke-width="1.4"/>
<text x="539" y="86" fill="#666" font-family="monospace" font-size="9">04</text>
<rect x="76" y="224" width="152" height="152" fill="#0b0b0b" stroke="#444"/>
<line x1="84" y1="300.00" x2="220" y2="300.00" stroke="#292929"/>
<path d="M84.00,300.00 L85.07,298.23 L86.14,296.63 L87.21,295.07 L88.28,293.42 L89.35,291.84 L90.43,290.49 L91.50,289.22 L92.57,287.90 L93.64,286.67 L94.71,285.69 L95.78,284.79 L96.85,283.84 L97.92,282.97 L98.99,282.33 L100.06,281.76 L101.13,281.12 L102.20,280.55 L103.28,280.19 L104.35,279.89 L105.42,279.51 L106.49,279.20 L107.56,279.11 L108.63,279.10 L109.70,279.03 L110.77,279.04 L111.84,279.27 L112.91,279.58 L113.98,279.82 L115.06,280.12 L116.13,280.62 L117.20,281.16 L118.27,281.58 L119.34,282.03 L120.41,282.63 L121.48,283.23 L122.55,283.68 L123.62,284.12 L124.69,284.68 L125.76,285.22 L126.83,285.60 L127.91,285.96 L128.98,286.45 L130.05,286.95 L131.12,287.31 L132.19,287.69 L133.26,288.25 L134.33,288.84 L135.40,289.32 L136.47,289.83 L137.54,290.53 L138.61,291.27 L139.69,291.88 L140.76,292.51 L141.83,293.31 L142.90,294.10 L143.97,294.76 L145.04,295.40 L146.11,296.18 L147.18,296.93 L148.25,297.53 L149.32,298.09 L150.39,298.79 L151.46,299.47 L152.54,300.00 L153.61,300.53 L154.68,301.21 L155.75,301.91 L156.82,302.47 L157.89,303.07 L158.96,303.82 L160.03,304.60 L161.10,305.24 L162.17,305.90 L163.24,306.69 L164.31,307.49 L165.39,308.12 L166.46,308.73 L167.53,309.47 L168.60,310.17 L169.67,310.68 L170.74,311.16 L171.81,311.75 L172.88,312.31 L173.95,312.69 L175.02,313.05 L176.09,313.55 L177.17,314.04 L178.24,314.40 L179.31,314.78 L180.38,315.32 L181.45,315.88 L182.52,316.32 L183.59,316.77 L184.66,317.37 L185.73,317.97 L186.80,318.42 L187.87,318.84 L188.94,319.38 L190.02,319.88 L191.09,320.18 L192.16,320.42 L193.23,320.73 L194.30,320.96 L195.37,320.97 L196.44,320.90 L197.51,320.89 L198.58,320.80 L199.65,320.49 L200.72,320.11 L201.80,319.81 L202.87,319.45 L203.94,318.88 L205.01,318.24 L206.08,317.67 L207.15,317.03 L208.22,316.16 L209.29,315.21 L210.36,314.31 L211.43,313.33 L212.50,312.10 L213.57,310.78 L214.65,309.51 L215.72,308.16 L216.79,306.58 L217.86,304.93 L218.93,303.37 L220.00,301.77" fill="none" stroke="#e0e0e0" stroke-width="1.4"/>
<text x="83" y="238" fill="#666" font-family="monospace" font-size="9">05</text>
<rect x="228" y="224" width="152" height="152" fill="#0b0b0b" stroke="#444"/>
<line x1="236" y1="300.00" x2="372" y2="300.00" stroke="#292929"/>
<path d="M236.00,300.00 L237.07,290.32 L238.14,282.83 L239.21,278.03 L240.28,275.47 L241.35,274.36 L242.43,274.77 L243.50,277.38 L244.57,281.56 L245.64,286.00 L246.71,289.49 L247.78,291.74 L248.85,293.75 L249.92,295.86 L250.99,297.33 L252.06,297.42 L253.13,296.06 L254.20,294.70 L255.28,294.83 L256.35,296.36 L257.42,298.57 L258.49,300.70 L259.56,303.11 L260.63,306.81 L261.70,311.51 L262.77,316.00 L263.84,318.97 L264.91,319.80 L265.98,319.14 L267.06,317.08 L268.13,312.82 L269.20,305.91 L270.27,296.81 L271.34,287.72 L272.41,280.83 L273.48,276.61 L274.55,274.60 L275.62,274.02 L276.69,274.93 L277.76,277.99 L278.83,282.60 L279.91,287.43 L280.98,291.27 L282.05,293.83 L283.12,296.13 L284.19,298.51 L285.26,300.24 L286.33,300.57 L287.40,299.43 L288.47,298.29 L289.54,298.62 L290.61,300.34 L291.69,302.71 L292.76,304.98 L293.83,307.50 L294.90,311.27 L295.97,316.00 L297.04,320.47 L298.11,323.37 L299.18,324.09 L300.25,323.29 L301.32,321.03 L302.39,316.54 L303.46,309.37 L304.54,300.00 L305.61,290.63 L306.68,283.46 L307.75,278.97 L308.82,276.71 L309.89,275.91 L310.96,276.63 L312.03,279.53 L313.10,284.00 L314.17,288.73 L315.24,292.50 L316.31,295.02 L317.39,297.29 L318.46,299.66 L319.53,301.38 L320.60,301.71 L321.67,300.57 L322.74,299.43 L323.81,299.76 L324.88,301.49 L325.95,303.87 L327.02,306.17 L328.09,308.73 L329.17,312.57 L330.24,317.40 L331.31,322.01 L332.38,325.07 L333.45,325.98 L334.52,325.40 L335.59,323.39 L336.66,319.17 L337.73,312.28 L338.80,303.19 L339.87,294.09 L340.94,287.18 L342.02,282.92 L343.09,280.86 L344.16,280.20 L345.23,281.03 L346.30,284.00 L347.37,288.49 L348.44,293.19 L349.51,296.89 L350.58,299.30 L351.65,301.43 L352.72,303.64 L353.80,305.17 L354.87,305.30 L355.94,303.94 L357.01,302.58 L358.08,302.67 L359.15,304.14 L360.22,306.25 L361.29,308.26 L362.36,310.51 L363.43,314.00 L364.50,318.44 L365.57,322.62 L366.65,325.23 L367.72,325.64 L368.79,324.53 L369.86,321.97 L370.93,317.17 L372.00,309.68" fill="none" stroke="#e0e0e0" stroke-width="1.4"/>
<text x="235" y="238" fill="#666" font-family="monospace" font-size="9">06</text>
<rect x="380" y="224" width="152" height="152" fill="#0b0b0b" stroke="#444"/>
<line x1="388" y1="300.00" x2="524" y2="300.00" stroke="#292929"/>
<path d="M388.00,300.00 L389.07,275.50 L390.14,289.21 L391.21,306.65 L392.28,298.94 L393.35,291.25 L394.43,308.83 L395.50,322.84 L396.57,298.78 L397.64,274.72 L398.71,288.74 L399.78,306.33 L400.85,298.67 L401.92,290.98 L402.99,308.46 L404.06,322.20 L405.13,297.75 L406.20,273.30 L407.28,287.06 L408.35,304.56 L409.42,296.91 L410.49,289.29 L411.56,306.95 L412.63,321.03 L413.70,297.06 L414.77,273.09 L415.84,287.19 L416.91,304.88 L417.98,297.32 L419.06,289.72 L420.13,307.31 L421.20,321.16 L422.27,296.81 L423.34,272.48 L424.41,286.35 L425.48,303.97 L426.55,296.43 L427.62,288.93 L428.69,306.71 L429.76,320.91 L430.83,297.05 L431.91,273.21 L432.98,287.43 L434.05,305.24 L435.12,297.79 L436.19,290.31 L437.26,308.01 L438.33,321.98 L439.40,297.75 L440.47,273.52 L441.54,287.50 L442.61,305.22 L443.69,297.79 L444.76,290.39 L445.83,308.26 L446.90,322.55 L447.97,298.78 L449.04,275.02 L450.11,289.32 L451.18,307.20 L452.25,299.82 L453.32,292.41 L454.39,310.17 L455.46,324.18 L456.54,300.00 L457.61,275.82 L458.68,289.83 L459.75,307.59 L460.82,300.18 L461.89,292.80 L462.96,310.68 L464.03,324.98 L465.10,301.22 L466.17,277.45 L467.24,291.74 L468.31,309.61 L469.39,302.21 L470.46,294.78 L471.53,312.50 L472.60,326.48 L473.67,302.25 L474.74,278.02 L475.81,291.99 L476.88,309.69 L477.95,302.21 L479.02,294.76 L480.09,312.57 L481.17,326.79 L482.24,302.95 L483.31,279.09 L484.38,293.29 L485.45,311.07 L486.52,303.57 L487.59,296.03 L488.66,313.65 L489.73,327.52 L490.80,303.19 L491.87,278.84 L492.94,292.69 L494.02,310.28 L495.09,302.68 L496.16,295.12 L497.23,312.81 L498.30,326.91 L499.37,302.94 L500.44,278.97 L501.51,293.05 L502.58,310.71 L503.65,303.09 L504.72,295.44 L505.80,312.94 L506.87,326.70 L507.94,302.25 L509.01,277.80 L510.08,291.54 L511.15,309.02 L512.22,301.33 L513.29,293.67 L514.36,311.26 L515.43,325.28 L516.50,301.22 L517.57,277.16 L518.65,291.17 L519.72,308.75 L520.79,301.06 L521.86,293.35 L522.93,310.79 L524.00,324.50" fill="none" stroke="#e0e0e0" stroke-width="1.4"/>
<text x="387" y="238" fill="#666" font-family="monospace" font-size="9">07</text>
<rect x="532" y="224" width="152" height="152" fill="#0b0b0b" stroke="#444"/>
<line x1="540" y1="300.00" x2="676" y2="300.00" stroke="#292929"/>
<path d="M540.00,300.00 L541.07,298.23 L542.14,296.63 L543.21,295.07 L544.28,293.42 L545.35,291.84 L546.43,290.49 L547.50,289.22 L548.57,287.90 L549.64,286.67 L550.71,285.69 L551.78,284.79 L552.85,283.84 L553.92,282.97 L554.99,282.33 L556.06,281.76 L557.13,281.12 L558.20,280.55 L559.28,280.19 L560.35,279.89 L561.42,279.51 L562.49,279.20 L563.56,279.11 L564.63,279.10 L565.70,279.03 L566.77,279.04 L567.84,279.27 L568.91,279.58 L569.98,279.82 L571.06,280.12 L572.13,280.62 L573.20,281.16 L574.27,281.58 L575.34,282.03 L576.41,282.63 L577.48,283.23 L578.55,283.68 L579.62,284.12 L580.69,284.68 L581.76,285.22 L582.83,285.60 L583.91,285.96 L584.98,286.45 L586.05,286.95 L587.12,287.31 L588.19,287.69 L589.26,288.25 L590.33,288.84 L591.40,289.32 L592.47,289.83 L593.54,290.53 L594.61,291.27 L595.69,291.88 L596.76,292.51 L597.83,293.31 L598.90,294.10 L599.97,294.76 L601.04,295.40 L602.11,296.18 L603.18,296.93 L604.25,297.53 L605.32,298.09 L606.39,298.79 L607.46,299.47 L608.54,300.00 L609.61,300.53 L610.68,301.21 L611.75,301.91 L612.82,302.47 L613.89,303.07 L614.96,303.82 L616.03,304.60 L617.10,305.24 L618.17,305.90 L619.24,306.69 L620.31,307.49 L621.39,308.12 L622.46,308.73 L623.53,309.47 L624.60,310.17 L625.67,310.68 L626.74,311.16 L627.81,311.75 L628.88,312.31 L629.95,312.69 L631.02,313.05 L632.09,313.55 L633.17,314.04 L634.24,314.40 L635.31,314.78 L636.38,315.32 L637.45,315.88 L638.52,316.32 L639.59,316.77 L640.66,317.37 L641.73,317.97 L642.80,318.42 L643.87,318.84 L644.94,319.38 L646.02,319.88 L647.09,320.18 L648.16,320.42 L649.23,320.73 L650.30,320.96 L651.37,320.97 L652.44,320.90 L653.51,320.89 L654.58,320.80 L655.65,320.49 L656.72,320.11 L657.80,319.81 L658.87,319.45 L659.94,318.88 L661.01,318.24 L662.08,317.67 L663.15,317.03 L664.22,316.16 L665.29,315.21 L666.36,314.31 L667.43,313.33 L668.50,312.10 L669.57,310.78 L670.65,309.51 L671.72,308.16 L672.79,306.58 L673.86,304.93 L674.93,303.37 L676.00,301.77" fill="none" stroke="#e0e0e0" stroke-width="1.4"/>
<text x="539" y="238" fill="#666" font-family="monospace" font-size="9">08</text>
<rect x="76" y="376" width="152" height="152" fill="#0b0b0b" stroke="#444"/>
<line x1="84" y1="452.00" x2="220" y2="452.00" stroke="#292929"/>
<path d="M84.00,452.00 L85.07,448.41 L86.14,446.87 L87.21,445.49 L88.28,442.44 L89.35,439.61 L90.43,438.89 L91.50,438.38 L92.57,436.11 L93.64,434.02 L94.71,434.03 L95.78,434.20 L96.85,432.65 L97.92,431.28 L98.99,431.94 L100.06,432.72 L101.13,431.62 L102.20,430.56 L103.28,431.46 L104.35,432.36 L105.42,431.35 L106.49,430.35 L107.56,431.28 L108.63,432.32 L109.70,431.55 L110.77,430.93 L111.84,432.41 L112.91,434.01 L113.98,433.82 L115.06,433.67 L116.13,435.43 L117.20,437.17 L118.27,436.94 L119.34,436.71 L120.41,438.43 L121.48,440.16 L122.55,439.99 L123.62,439.78 L124.69,441.36 L125.76,442.85 L126.83,442.27 L127.91,441.57 L128.98,442.74 L130.05,443.86 L131.12,443.13 L132.19,442.48 L133.26,443.83 L134.33,445.30 L135.40,444.92 L136.47,444.63 L137.54,446.34 L138.61,448.08 L139.69,447.92 L140.76,447.73 L141.83,449.38 L142.90,451.01 L143.97,450.67 L145.04,450.27 L146.11,451.73 L147.18,453.08 L148.25,452.41 L149.32,451.59 L150.39,452.49 L151.46,453.26 L152.54,452.00 L153.61,450.74 L154.68,451.51 L155.75,452.41 L156.82,451.59 L157.89,450.92 L158.96,452.27 L160.03,453.73 L161.10,453.33 L162.17,452.99 L163.24,454.62 L164.31,456.27 L165.39,456.08 L166.46,455.92 L167.53,457.66 L168.60,459.37 L169.67,459.08 L170.74,458.70 L171.81,460.17 L172.88,461.52 L173.95,460.87 L175.02,460.14 L176.09,461.26 L177.17,462.43 L178.24,461.73 L179.31,461.15 L180.38,462.64 L181.45,464.22 L182.52,464.01 L183.59,463.84 L184.66,465.57 L185.73,467.29 L186.80,467.06 L187.87,466.83 L188.94,468.57 L190.02,470.33 L191.09,470.18 L192.16,469.99 L193.23,471.59 L194.30,473.07 L195.37,472.45 L196.44,471.68 L197.51,472.72 L198.58,473.65 L199.65,472.65 L200.72,471.64 L201.80,472.54 L202.87,473.44 L203.94,472.38 L205.01,471.28 L206.08,472.06 L207.15,472.72 L208.22,471.35 L209.29,469.80 L210.36,469.97 L211.43,469.98 L212.50,467.89 L213.57,465.62 L214.65,465.11 L215.72,464.39 L216.79,461.56 L217.86,458.51 L218.93,457.13 L220.00,455.59" fill="none" stroke="#e0e0e0" stroke-width="1.4"/>
<text x="83" y="390" fill="#666" font-family="monospace" font-size="9">09</text>
<rect x="228" y="376" width="152" height="152" fill="#0b0b0b" stroke="#444"/>
<line x1="236" y1="452.00" x2="372" y2="452.00" stroke="#292929"/>
<path d="M236.00,452.00 L237.07,438.32 L238.14,430.28 L239.21,426.30 L240.28,426.09 L241.35,426.56 L242.43,426.81 L243.50,430.05 L244.57,433.72 L245.64,437.31 L246.71,440.53 L247.78,441.43 L248.85,443.91 L249.92,447.71 L250.99,449.92 L252.06,449.94 L253.13,445.39 L254.20,440.83 L255.28,440.83 L256.35,443.02 L257.42,446.82 L258.49,449.36 L259.56,450.40 L260.63,453.88 L261.70,457.89 L262.77,462.14 L263.84,466.15 L264.91,467.37 L265.98,468.98 L267.06,470.09 L268.13,467.56 L269.20,461.07 L270.27,449.00 L271.34,436.92 L272.41,430.46 L273.48,427.95 L274.55,429.10 L275.62,430.77 L276.69,432.05 L277.76,436.14 L278.83,440.49 L279.91,444.59 L280.98,448.19 L282.05,449.36 L283.12,452.04 L284.19,456.00 L285.26,458.35 L286.33,458.53 L287.40,454.16 L288.47,449.82 L289.54,450.06 L290.61,452.49 L291.69,456.53 L292.76,459.27 L293.83,460.43 L294.90,463.92 L295.97,467.80 L297.04,471.76 L298.11,475.29 L299.18,475.86 L300.25,476.63 L301.32,476.74 L302.39,473.07 L303.46,465.36 L304.54,452.00 L305.61,438.64 L306.68,430.93 L307.75,427.26 L308.82,427.37 L309.89,428.14 L310.96,428.71 L312.03,432.24 L313.10,436.20 L314.17,440.08 L315.24,443.57 L316.31,444.73 L317.39,447.47 L318.46,451.51 L319.53,453.94 L320.60,454.18 L321.67,449.84 L322.74,445.47 L323.81,445.65 L324.88,448.00 L325.95,451.96 L327.02,454.64 L328.09,455.81 L329.17,459.41 L330.24,463.51 L331.31,467.86 L332.38,471.95 L333.45,473.23 L334.52,474.90 L335.59,476.05 L336.66,473.54 L337.73,467.08 L338.80,455.00 L339.87,442.93 L340.94,436.44 L342.02,433.91 L343.09,435.02 L344.16,436.63 L345.23,437.85 L346.30,441.86 L347.37,446.11 L348.44,450.12 L349.51,453.60 L350.58,454.64 L351.65,457.18 L352.72,460.98 L353.80,463.17 L354.87,463.17 L355.94,458.61 L357.01,454.06 L358.08,454.08 L359.15,456.29 L360.22,460.09 L361.29,462.57 L362.36,463.47 L363.43,466.69 L364.50,470.28 L365.57,473.95 L366.65,477.19 L367.72,477.44 L368.79,477.91 L369.86,477.70 L370.93,473.72 L372.00,465.68" fill="none" stroke="#e0e0e0" stroke-width="1.4"/>
<text x="235" y="390" fill="#666" font-family="monospace" font-size="9">10</text>
<rect x="380" y="376" width="152" height="152" fill="#0b0b0b" stroke="#444"/>
<line x1="388" y1="452.00" x2="524" y2="452.00" stroke="#292929"/>
<path d="M388.00,452.00 L389.07,427.65 L390.14,439.02 L391.21,452.07 L392.28,448.92 L393.35,445.70 L394.43,459.10 L395.50,472.10 L396.57,450.61 L397.64,429.12 L398.71,442.13 L399.78,455.55 L400.85,452.38 L401.92,449.31 L402.99,462.46 L404.06,473.96 L405.13,449.76 L406.20,425.57 L407.28,437.09 L408.35,450.28 L409.42,447.25 L410.49,444.14 L411.56,457.62 L412.63,470.71 L413.70,449.32 L414.77,427.93 L415.84,441.04 L416.91,454.55 L417.98,451.47 L419.06,448.46 L420.13,461.66 L421.20,473.18 L422.27,448.99 L423.34,424.81 L424.41,436.35 L425.48,449.58 L426.55,446.61 L427.62,443.58 L428.69,457.16 L429.76,470.35 L430.83,449.05 L431.91,427.76 L432.98,440.97 L434.05,454.58 L435.12,451.61 L436.19,448.73 L437.26,462.08 L438.33,473.78 L439.40,449.79 L440.47,425.79 L441.54,437.51 L442.61,450.90 L443.69,448.06 L444.76,445.15 L445.83,458.83 L446.90,472.11 L447.97,450.91 L449.04,429.71 L450.11,443.01 L451.18,456.71 L452.25,453.80 L453.32,450.97 L454.39,464.34 L455.46,476.03 L456.54,452.00 L457.61,427.97 L458.68,439.66 L459.75,453.03 L460.82,450.20 L461.89,447.29 L462.96,460.99 L464.03,474.29 L465.10,453.09 L466.17,431.89 L467.24,445.17 L468.31,458.85 L469.39,455.94 L470.46,453.10 L471.53,466.49 L472.60,478.21 L473.67,454.21 L474.74,430.22 L475.81,441.92 L476.88,455.27 L477.95,452.39 L479.02,449.42 L480.09,463.03 L481.17,476.24 L482.24,454.95 L483.31,433.65 L484.38,446.84 L485.45,460.42 L486.52,457.39 L487.59,454.42 L488.66,467.65 L489.73,479.19 L490.80,455.01 L491.87,430.82 L492.94,442.34 L494.02,455.54 L495.09,452.53 L496.16,449.45 L497.23,462.96 L498.30,476.07 L499.37,454.68 L500.44,433.29 L501.51,446.38 L502.58,459.86 L503.65,456.75 L504.72,453.72 L505.80,466.91 L506.87,478.43 L507.94,454.24 L509.01,430.04 L510.08,441.54 L511.15,454.69 L512.22,451.62 L513.29,448.45 L514.36,461.87 L515.43,474.88 L516.50,453.39 L517.57,431.90 L518.65,444.90 L519.72,458.30 L520.79,455.08 L521.86,451.93 L522.93,464.98 L524.00,476.35" fill="none" stroke="#e0e0e0" stroke-width="1.4"/>
<text x="387" y="390" fill="#666" font-family="monospace" font-size="9">11</text>
<rect x="532" y="376" width="152" height="152" fill="#0b0b0b" stroke="#444"/>
<line x1="540" y1="452.00" x2="676" y2="452.00" stroke="#292929"/>
<path d="M540.00,452.00 L541.07,448.41 L542.14,446.87 L543.21,445.49 L544.28,442.44 L545.35,439.61 L546.43,438.89 L547.50,438.38 L548.57,436.11 L549.64,434.02 L550.71,434.03 L551.78,434.20 L552.85,432.65 L553.92,431.28 L554.99,431.94 L556.06,432.72 L557.13,431.62 L558.20,430.56 L559.28,431.46 L560.35,432.36 L561.42,431.35 L562.49,430.35 L563.56,431.28 L564.63,432.32 L565.70,431.55 L566.77,430.93 L567.84,432.41 L568.91,434.01 L569.98,433.82 L571.06,433.67 L572.13,435.43 L573.20,437.17 L574.27,436.94 L575.34,436.71 L576.41,438.43 L577.48,440.16 L578.55,439.99 L579.62,439.78 L580.69,441.36 L581.76,442.85 L582.83,442.27 L583.91,441.57 L584.98,442.74 L586.05,443.86 L587.12,443.13 L588.19,442.48 L589.26,443.83 L590.33,445.30 L591.40,444.92 L592.47,444.63 L593.54,446.34 L594.61,448.08 L595.69,447.92 L596.76,447.73 L597.83,449.38 L598.90,451.01 L599.97,450.67 L601.04,450.27 L602.11,451.73 L603.18,453.08 L604.25,452.41 L605.32,451.59 L606.39,452.49 L607.46,453.26 L608.54,452.00 L609.61,450.74 L610.68,451.51 L611.75,452.41 L612.82,451.59 L613.89,450.92 L614.96,452.27 L616.03,453.73 L617.10,453.33 L618.17,452.99 L619.24,454.62 L620.31,456.27 L621.39,456.08 L622.46,455.92 L623.53,457.66 L624.60,459.37 L625.67,459.08 L626.74,458.70 L627.81,460.17 L628.88,461.52 L629.95,460.87 L631.02,460.14 L632.09,461.26 L633.17,462.43 L634.24,461.73 L635.31,461.15 L636.38,462.64 L637.45,464.22 L638.52,464.01 L639.59,463.84 L640.66,465.57 L641.73,467.29 L642.80,467.06 L643.87,466.83 L644.94,468.57 L646.02,470.33 L647.09,470.18 L648.16,469.99 L649.23,471.59 L650.30,473.07 L651.37,472.45 L652.44,471.68 L653.51,472.72 L654.58,473.65 L655.65,472.65 L656.72,471.64 L657.80,472.54 L658.87,473.44 L659.94,472.38 L661.01,471.28 L662.08,472.06 L663.15,472.72 L664.22,471.35 L665.29,469.80 L666.36,469.97 L667.43,469.98 L668.50,467.89 L669.57,465.62 L670.65,465.11 L671.72,464.39 L672.79,461.56 L673.86,458.51 L674.93,457.13 L676.00,455.59" fill="none" stroke="#e0e0e0" stroke-width="1.4"/>
<text x="539" y="390" fill="#666" font-family="monospace" font-size="9">12</text>
<rect x="76" y="528" width="152" height="152" fill="#0b0b0b" stroke="#444"/>
<line x1="84" y1="604.00" x2="220" y2="604.00" stroke="#292929"/>
<path d="M84.00,604.00 L85.07,597.54 L86.14,596.37 L87.21,595.64 L88.28,591.27 L89.35,587.31 L90.43,587.88 L91.50,588.95 L92.57,585.42 L93.64,582.03 L94.71,583.61 L95.78,585.19 L96.85,582.92 L97.92,581.02 L98.99,583.56 L100.06,586.30 L101.13,584.10 L102.20,581.88 L103.28,584.59 L104.35,587.12 L105.42,585.30 L106.49,583.26 L107.56,585.31 L108.63,587.67 L109.70,585.46 L110.77,583.55 L111.84,586.72 L112.91,589.88 L113.98,588.97 L115.06,588.06 L116.13,591.12 L117.20,593.96 L118.27,591.61 L119.34,589.24 L120.41,592.00 L121.48,594.93 L122.55,593.86 L123.62,592.76 L124.69,595.70 L125.76,598.65 L126.83,596.51 L127.91,594.10 L128.98,596.29 L130.05,598.23 L131.12,596.14 L132.19,594.37 L133.26,597.04 L134.33,600.01 L135.40,598.18 L136.47,596.51 L137.54,599.93 L138.61,603.30 L139.69,602.41 L140.76,601.30 L141.83,604.21 L142.90,607.27 L143.97,605.53 L145.04,603.77 L146.11,606.76 L147.18,609.37 L148.25,607.55 L149.32,605.40 L150.39,606.95 L151.46,608.11 L152.54,604.00 L153.61,599.89 L154.68,601.05 L155.75,602.60 L156.82,600.45 L157.89,598.63 L158.96,601.24 L160.03,604.23 L161.10,602.47 L162.17,600.73 L163.24,603.79 L164.31,606.70 L165.39,605.59 L166.46,604.70 L167.53,608.07 L168.60,611.49 L169.67,609.82 L170.74,607.99 L171.81,610.96 L172.88,613.63 L173.95,611.86 L175.02,609.77 L176.09,611.71 L177.17,613.90 L178.24,611.49 L179.31,609.35 L180.38,612.30 L181.45,615.24 L182.52,614.14 L183.59,613.07 L184.66,616.00 L185.73,618.76 L186.80,616.39 L187.87,614.04 L188.94,616.88 L190.02,619.94 L191.09,619.03 L192.16,618.12 L193.23,621.28 L194.30,624.45 L195.37,622.54 L196.44,620.33 L197.51,622.69 L198.58,624.74 L199.65,622.70 L200.72,620.88 L201.80,623.41 L202.87,626.12 L203.94,623.90 L205.01,621.70 L206.08,624.44 L207.15,626.98 L208.22,625.08 L209.29,622.81 L210.36,624.39 L211.43,625.97 L212.50,622.58 L213.57,619.05 L214.65,620.12 L215.72,620.69 L216.79,616.73 L217.86,612.36 L218.93,611.63 L220.00,610.46" fill="none" stroke="#e0e0e0" stroke-width="1.4"/>
<text x="83" y="542" fill="#666" font-family="monospace" font-size="9">13</text>
<rect x="228" y="528" width="152" height="152" fill="#0b0b0b" stroke="#444"/>
<line x1="236" y1="604.00" x2="372" y2="604.00" stroke="#292929"/>
<path d="M236.00,604.00 L237.07,586.52 L238.14,579.46 L239.21,576.32 L240.28,578.13 L241.35,579.76 L242.43,579.48 L243.50,583.82 L244.57,585.56 L245.64,586.98 L246.71,590.65 L247.78,590.18 L248.85,593.08 L249.92,598.48 L250.99,601.57 L252.06,603.02 L253.13,595.34 L254.20,587.62 L255.28,588.91 L256.35,591.79 L257.42,596.96 L258.49,599.68 L259.56,599.15 L260.63,602.94 L261.70,604.73 L262.77,607.15 L263.84,612.50 L264.91,613.59 L265.98,616.93 L267.06,620.77 L268.13,619.91 L269.20,615.31 L270.27,600.39 L271.34,585.46 L272.41,580.87 L273.48,580.02 L274.55,583.86 L275.62,587.22 L276.69,588.33 L277.76,593.71 L278.83,596.17 L279.91,598.01 L280.98,601.87 L282.05,601.41 L283.12,604.23 L284.19,609.51 L285.26,612.52 L286.33,613.98 L287.40,606.44 L288.47,598.97 L289.54,600.66 L290.61,604.01 L291.69,609.70 L292.76,612.92 L293.83,612.80 L294.90,616.84 L295.97,618.65 L297.04,620.81 L298.11,625.59 L299.18,625.77 L300.25,627.87 L301.32,630.17 L302.39,627.53 L303.46,620.97 L304.54,604.00 L305.61,587.03 L306.68,580.47 L307.75,577.83 L308.82,580.13 L309.89,582.23 L310.96,582.41 L312.03,587.19 L313.10,589.35 L314.17,591.16 L315.24,595.20 L316.31,595.08 L317.39,598.30 L318.46,603.99 L319.53,607.34 L320.60,609.03 L321.67,601.56 L322.74,594.02 L323.81,595.48 L324.88,598.49 L325.95,603.77 L327.02,606.59 L328.09,606.13 L329.17,609.99 L330.24,611.83 L331.31,614.29 L332.38,619.67 L333.45,620.78 L334.52,624.14 L335.59,627.98 L336.66,627.13 L337.73,622.54 L338.80,607.61 L339.87,592.69 L340.94,588.09 L342.02,587.23 L343.09,591.07 L344.16,594.41 L345.23,595.50 L346.30,600.85 L347.37,603.27 L348.44,605.06 L349.51,608.85 L350.58,608.32 L351.65,611.04 L352.72,616.21 L353.80,619.09 L354.87,620.38 L355.94,612.66 L357.01,604.98 L358.08,606.43 L359.15,609.52 L360.22,614.92 L361.29,617.82 L362.36,617.35 L363.43,621.02 L364.50,622.44 L365.57,624.18 L366.65,628.52 L367.72,628.24 L368.79,629.87 L369.86,631.68 L370.93,628.54 L372.00,621.48" fill="none" stroke="#e0e0e0" stroke-width="1.4"/>
<text x="235" y="542" fill="#666" font-family="monospace" font-size="9">14</text>
<rect x="380" y="528" width="152" height="152" fill="#0b0b0b" stroke="#444"/>
<line x1="388" y1="604.00" x2="524" y2="604.00" stroke="#292929"/>
<path d="M388.00,604.00 L389.07,579.92 L390.14,589.45 L391.21,598.57 L392.28,598.25 L393.35,597.42 L394.43,606.57 L395.50,619.15 L396.57,601.18 L397.64,583.20 L398.71,595.74 L399.78,604.90 L400.85,604.20 L401.92,604.18 L402.99,613.81 L404.06,624.01 L405.13,600.72 L406.20,577.44 L407.28,587.68 L408.35,597.36 L409.42,597.42 L410.49,596.82 L411.56,606.10 L412.63,618.80 L413.70,601.00 L414.77,583.24 L415.84,596.05 L416.91,605.44 L417.98,604.89 L419.06,604.86 L420.13,614.29 L421.20,624.13 L422.27,600.38 L423.34,576.62 L424.41,586.46 L425.48,595.90 L426.55,595.88 L427.62,595.34 L428.69,604.76 L429.76,617.60 L430.83,599.88 L431.91,582.12 L432.98,594.89 L434.05,604.25 L435.12,603.75 L436.19,603.92 L437.26,613.74 L438.33,624.14 L439.40,601.05 L440.47,577.96 L441.54,588.41 L442.61,598.30 L443.69,598.57 L444.76,598.19 L445.83,607.69 L446.90,620.61 L447.97,603.02 L449.04,585.48 L450.11,598.50 L451.18,608.10 L452.25,607.75 L453.32,607.91 L454.39,617.54 L455.46,627.57 L456.54,604.00 L457.61,580.43 L458.68,590.46 L459.75,600.09 L460.82,600.25 L461.89,599.90 L462.96,609.50 L464.03,622.52 L465.10,604.98 L466.17,587.39 L467.24,600.31 L468.31,609.81 L469.39,609.43 L470.46,609.70 L471.53,619.59 L472.60,630.04 L473.67,606.95 L474.74,583.86 L475.81,594.26 L476.88,604.08 L477.95,604.25 L479.02,603.75 L480.09,613.11 L481.17,625.88 L482.24,608.12 L483.31,590.40 L484.38,603.24 L485.45,612.66 L486.52,612.12 L487.59,612.10 L488.66,621.54 L489.73,631.38 L490.80,607.62 L491.87,583.87 L492.94,593.71 L494.02,603.14 L495.09,603.11 L496.16,602.56 L497.23,611.95 L498.30,624.76 L499.37,607.00 L500.44,589.20 L501.51,601.90 L502.58,611.18 L503.65,610.58 L504.72,610.64 L505.80,620.32 L506.87,630.56 L507.94,607.28 L509.01,583.99 L510.08,594.19 L511.15,603.82 L512.22,603.80 L513.29,603.10 L514.36,612.26 L515.43,624.80 L516.50,606.82 L517.57,588.85 L518.65,601.43 L519.72,610.58 L520.79,609.75 L521.86,609.43 L522.93,618.55 L524.00,628.08" fill="none" stroke="#e0e0e0" stroke-width="1.4"/>
<text x="387" y="542" fill="#666" font-family="monospace" font-size="9">15</text>
<rect x="532" y="528" width="152" height="152" fill="#0b0b0b" stroke="#444"/>
<line x1="540" y1="604.00" x2="676" y2="604.00" stroke="#292929"/>
<path d="M540.00,604.00 L541.07,597.54 L542.14,596.37 L543.21,595.64 L544.28,591.27 L545.35,587.31 L546.43,587.88 L547.50,588.95 L548.57,585.42 L549.64,582.03 L550.71,583.61 L551.78,585.19 L552.85,582.92 L553.92,581.02 L554.99,583.56 L556.06,586.30 L557.13,584.10 L558.20,581.88 L559.28,584.59 L560.35,587.12 L561.42,585.30 L562.49,583.26 L563.56,585.31 L564.63,587.67 L565.70,585.46 L566.77,583.55 L567.84,586.72 L568.91,589.88 L569.98,588.97 L571.06,588.06 L572.13,591.12 L573.20,593.96 L574.27,591.61 L575.34,589.24 L576.41,592.00 L577.48,594.93 L578.55,593.86 L579.62,592.76 L580.69,595.70 L581.76,598.65 L582.83,596.51 L583.91,594.10 L584.98,596.29 L586.05,598.23 L587.12,596.14 L588.19,594.37 L589.26,597.04 L590.33,600.01 L591.40,598.18 L592.47,596.51 L593.54,599.93 L594.61,603.30 L595.69,602.41 L596.76,601.30 L597.83,604.21 L598.90,607.27 L599.97,605.53 L601.04,603.77 L602.11,606.76 L603.18,609.37 L604.25,607.55 L605.32,605.40 L606.39,606.95 L607.46,608.11 L608.54,604.00 L609.61,599.89 L610.68,601.05 L611.75,602.60 L612.82,600.45 L613.89,598.63 L614.96,601.24 L616.03,604.23 L617.10,602.47 L618.17,600.73 L619.24,603.79 L620.31,606.70 L621.39,605.59 L622.46,604.70 L623.53,608.07 L624.60,611.49 L625.67,609.82 L626.74,607.99 L627.81,610.96 L628.88,613.63 L629.95,611.86 L631.02,609.77 L632.09,611.71 L633.17,613.90 L634.24,611.49 L635.31,609.35 L636.38,612.30 L637.45,615.24 L638.52,614.14 L639.59,613.07 L640.66,616.00 L641.73,618.76 L642.80,616.39 L643.87,614.04 L644.94,616.88 L646.02,619.94 L647.09,619.03 L648.16,618.12 L649.23,621.28 L650.30,624.45 L651.37,622.54 L652.44,620.33 L653.51,622.69 L654.58,624.74 L655.65,622.70 L656.72,620.88 L657.80,623.41 L658.87,626.12 L659.94,623.90 L661.01,621.70 L662.08,624.44 L663.15,626.98 L664.22,625.08 L665.29,622.81 L666.36,624.39 L667.43,625.97 L668.50,622.58 L669.57,619.05 L670.65,620.12 L671.72,620.69 L672.79,616.73 L673.86,612.36 L674.93,611.63 L676.00,610.46" fill="none" stroke="#e0e0e0" stroke-width="1.4"/>
<text x="539" y="542" fill="#666" font-family="monospace" font-size="9">16</text>
</svg>
