<svg xmlns="http://www.w3.org/2000/svg" width="760" height="760" viewBox="0 0 760 760">
<rect width="760" height="760" fill="#161616"/>
<text x="24" y="32" fill="#dedede" font-family="monospace" font-size="15">S3G VOT / CODEC CASCADE</text>
<text x="684" y="724" text-anchor="end" fill="#858585" font-family="monospace" font-size="11">U / TRANSCODE GENERATIONS</text>
<text x="24" y="72" fill="#858585" font-family="monospace" font-size="11">V / PACKET BLOCK SIZE</text>
<text x="76" y="724" fill="#858585" font-family="monospace" font-size="11">ENERGY / GENERATION-COLLAPSE RISE</text>
<rect x="76" y="72" width="152" height="152" fill="#0b0b0b" stroke="#444"/>
<line x1="84" y1="148.00" x2="220" y2="148.00" stroke="#292929"/>
<path d="M84.00,148.60 L85.07,147.95 L86.14,147.59 L87.21,147.24 L88.28,146.90 L89.35,146.58 L90.43,146.27 L91.50,145.98 L92.57,145.16 L93.64,144.93 L94.71,145.07 L95.78,144.82 L96.85,144.36 L97.92,144.22 L98.99,144.09 L100.06,143.99 L101.13,143.90 L102.20,143.83 L103.28,143.78 L104.35,143.73 L105.42,143.71 L106.49,143.69 L107.56,143.68 L108.63,143.68 L109.70,143.69 L110.77,143.70 L111.84,143.71 L112.91,143.73 L113.98,143.74 L115.06,143.76 L116.13,143.76 L117.20,143.77 L118.27,143.77 L119.34,143.77 L120.41,143.76 L121.48,143.74 L122.55,143.73 L123.62,143.71 L124.69,143.68 L125.76,143.66 L126.83,143.64 L127.91,143.62 L128.98,143.61 L130.05,143.60 L131.12,143.60 L132.19,143.61 L133.26,143.63 L134.33,143.66 L135.40,143.71 L136.47,143.77 L137.54,143.85 L138.61,143.94 L139.69,144.05 L140.76,144.18 L141.83,144.24 L142.90,144.41 L143.97,145.21 L145.04,145.44 L146.11,145.69 L147.18,145.96 L148.25,146.25 L149.32,146.56 L150.39,146.88 L151.46,147.82 L152.54,148.17 L153.61,148.51 L154.68,148.85 L155.75,149.18 L156.82,149.16 L157.89,149.55 L158.96,150.65 L160.03,150.91 L161.10,151.14 L162.17,151.36 L163.24,151.55 L164.31,151.72 L165.39,151.87 L166.46,152.00 L167.53,152.11 L168.60,152.20 L169.67,152.28 L170.74,152.34 L171.81,152.38 L172.88,152.41 L173.95,152.49 L175.02,152.50 L176.09,152.43 L177.17,152.42 L178.24,152.40 L179.31,152.38 L180.38,152.36 L181.45,152.33 L182.52,152.31 L183.59,152.28 L184.66,152.25 L185.73,152.22 L186.80,152.24 L187.87,152.23 L188.94,152.23 L190.02,152.23 L191.09,152.23 L192.16,152.24 L193.23,152.25 L194.30,152.27 L195.37,152.28 L196.44,152.28 L197.51,152.29 L198.58,152.29 L199.65,152.28 L200.72,152.26 L201.80,152.23 L202.87,152.18 L203.94,152.13 L205.01,152.06 L206.08,151.97 L207.15,151.86 L208.22,151.73 L209.29,151.59 L210.36,150.91 L211.43,150.71 L212.50,150.48 L213.57,150.24 L214.65,149.97 L215.72,149.68 L216.79,149.36 L217.86,149.04 L218.93,148.08 L220.00,147.73" fill="none" stroke="#e0e0e0" stroke-width="1.4"/>
<text x="83" y="86" fill="#666" font-family="monospace" font-size="9">01</text>
<rect x="228" y="72" width="152" height="152" fill="#0b0b0b" stroke="#444"/>
<line x1="236" y1="148.00" x2="372" y2="148.00" stroke="#292929"/>
<path d="M236.00,149.14 L237.07,147.46 L238.14,146.45 L239.21,145.90 L240.28,146.17 L241.35,145.56 L242.43,145.83 L243.50,145.13 L244.57,144.56 L245.64,143.81 L246.71,142.09 L247.78,142.42 L248.85,141.00 L249.92,141.63 L250.99,141.46 L252.06,141.31 L253.13,140.50 L254.20,140.40 L255.28,140.31 L256.35,140.91 L257.42,140.84 L258.49,140.80 L259.56,140.76 L260.63,140.74 L261.70,140.72 L262.77,140.71 L263.84,139.67 L264.91,140.33 L265.98,140.34 L267.06,140.73 L268.13,140.47 L269.20,140.49 L270.27,140.75 L271.34,140.76 L272.41,140.76 L273.48,140.76 L274.55,140.75 L275.62,140.75 L276.69,140.75 L277.76,140.74 L278.83,139.71 L279.91,140.07 L280.98,140.08 L282.05,140.10 L283.12,140.13 L284.19,140.17 L285.26,139.89 L286.33,139.94 L287.40,140.33 L288.47,140.41 L289.54,140.50 L290.61,140.60 L291.69,141.37 L292.76,141.51 L293.83,140.64 L294.90,141.77 L295.97,141.97 L297.04,142.82 L298.11,143.11 L299.18,143.43 L300.25,143.45 L301.32,143.84 L302.39,144.60 L303.46,146.51 L304.54,146.42 L305.61,148.09 L306.68,150.33 L307.75,150.84 L308.82,151.33 L309.89,151.32 L310.96,151.86 L312.03,151.91 L313.10,153.67 L314.17,153.83 L315.24,154.08 L316.31,154.30 L317.39,154.83 L318.46,154.88 L319.53,156.07 L320.60,155.61 L321.67,155.72 L322.74,155.81 L323.81,155.89 L324.88,155.95 L325.95,156.00 L327.02,156.09 L328.09,156.12 L329.17,155.45 L330.24,155.46 L331.31,155.46 L332.38,155.75 L333.45,155.74 L334.52,155.42 L335.59,155.40 L336.66,155.38 L337.73,155.36 L338.80,155.60 L339.87,155.57 L340.94,155.32 L342.02,155.31 L343.09,155.30 L344.16,155.29 L345.23,155.29 L346.30,155.28 L347.37,155.27 L348.44,155.26 L349.51,155.25 L350.58,155.22 L351.65,156.22 L352.72,155.83 L353.80,155.78 L354.87,155.05 L355.94,154.98 L357.01,154.89 L358.08,155.81 L359.15,155.03 L360.22,154.93 L361.29,154.37 L362.36,154.20 L363.43,153.46 L364.50,153.20 L365.57,152.92 L366.65,152.59 L367.72,152.23 L368.79,151.83 L369.86,151.39 L370.93,148.16 L372.00,146.67" fill="none" stroke="#e0e0e0" stroke-width="1.4"/>
<text x="235" y="86" fill="#666" font-family="monospace" font-size="9">02</text>
<rect x="380" y="72" width="152" height="152" fill="#0b0b0b" stroke="#444"/>
<line x1="388" y1="148.00" x2="524" y2="148.00" stroke="#292929"/>
<path d="M388.00,146.61 L389.07,146.70 L390.14,146.57 L391.21,146.70 L392.28,144.52 L393.35,140.73 L394.43,140.77 L395.50,139.71 L396.57,138.54 L397.64,137.81 L398.71,139.75 L399.78,137.90 L400.85,136.36 L401.92,136.01 L402.99,136.00 L404.06,135.99 L405.13,135.56 L406.20,135.63 L407.28,135.72 L408.35,135.61 L409.42,135.44 L410.49,135.49 L411.56,135.44 L412.63,135.30 L413.70,135.29 L414.77,135.16 L415.84,135.19 L416.91,135.02 L417.98,135.15 L419.06,135.14 L420.13,135.20 L421.20,135.01 L422.27,135.08 L423.34,135.06 L424.41,135.16 L425.48,135.12 L426.55,135.25 L427.62,135.24 L428.69,135.29 L429.76,135.33 L430.83,135.35 L431.91,135.37 L432.98,135.40 L434.05,135.38 L435.12,135.45 L436.19,135.47 L437.26,135.54 L438.33,135.65 L439.40,135.68 L440.47,135.76 L441.54,135.88 L442.61,135.92 L443.69,136.02 L444.76,136.18 L445.83,136.42 L446.90,136.42 L447.97,136.57 L449.04,136.71 L450.11,136.82 L451.18,136.90 L452.25,137.16 L453.32,137.62 L454.39,137.38 L455.46,137.89 L456.54,138.46 L457.61,138.48 L458.68,140.27 L459.75,144.57 L460.82,157.85 L461.89,158.27 L462.96,158.63 L464.03,158.70 L465.10,158.80 L466.17,159.68 L467.24,159.77 L468.31,159.91 L469.39,160.39 L470.46,160.35 L471.53,160.23 L472.60,160.39 L473.67,160.60 L474.74,160.78 L475.81,160.73 L476.88,160.93 L477.95,160.97 L479.02,160.98 L480.09,161.04 L481.17,161.13 L482.24,161.15 L483.31,161.06 L484.38,161.23 L485.45,161.30 L486.52,161.21 L487.59,161.22 L488.66,161.20 L489.73,161.24 L490.80,161.15 L491.87,161.18 L492.94,161.18 L494.02,161.18 L495.09,161.14 L496.16,161.07 L497.23,161.04 L498.30,161.01 L499.37,161.00 L500.44,160.92 L501.51,160.88 L502.58,160.83 L503.65,160.76 L504.72,160.73 L505.80,160.71 L506.87,160.63 L507.94,160.52 L509.01,160.49 L510.08,160.42 L511.15,160.31 L512.22,160.17 L513.29,160.19 L514.36,160.00 L515.43,159.76 L516.50,159.86 L517.57,159.60 L518.65,159.42 L519.72,159.30 L520.79,159.00 L521.86,158.74 L522.93,157.84 L524.00,156.11" fill="none" stroke="#e0e0e0" stroke-width="1.4"/>
<text x="387" y="86" fill="#666" font-family="monospace" font-size="9">03</text>
<rect x="532" y="72" width="152" height="152" fill="#0b0b0b" stroke="#444"/>
<line x1="540" y1="148.00" x2="676" y2="148.00" stroke="#292929"/>
<path d="M540.00,159.60 L541.07,143.98 L542.14,142.38 L543.21,145.09 L544.28,147.72 L545.35,140.00 L546.43,138.74 L547.50,138.17 L548.57,135.37 L549.64,134.59 L550.71,135.04 L551.78,134.28 L552.85,134.72 L553.92,133.96 L554.99,133.83 L556.06,133.70 L557.13,133.80 L558.20,133.63 L559.28,133.50 L560.35,133.43 L561.42,133.26 L562.49,133.19 L563.56,133.12 L564.63,133.06 L565.70,133.00 L566.77,132.96 L567.84,132.92 L568.91,132.88 L569.98,132.94 L571.06,132.92 L572.13,132.81 L573.20,132.80 L574.27,132.80 L575.34,132.80 L576.41,132.90 L577.48,132.92 L578.55,132.94 L579.62,132.96 L580.69,133.00 L581.76,133.04 L582.83,133.01 L583.91,133.06 L584.98,133.21 L586.05,133.28 L587.12,133.35 L588.19,133.42 L589.26,133.42 L590.33,133.51 L591.40,133.60 L592.47,133.69 L593.54,133.80 L594.61,133.91 L595.69,134.02 L596.76,134.13 L597.83,134.34 L598.90,134.46 L599.97,134.58 L601.04,134.71 L602.11,134.83 L603.18,134.96 L604.25,135.00 L605.32,135.14 L606.39,135.36 L607.46,135.50 L608.54,135.64 L609.61,135.78 L610.68,136.09 L611.75,136.35 L612.82,138.21 L613.89,141.59 L614.96,142.95 L616.03,145.60 L617.10,162.76 L618.17,163.32 L619.24,163.57 L620.31,163.69 L621.39,163.70 L622.46,163.83 L623.53,164.03 L624.60,164.12 L625.67,164.13 L626.74,164.23 L627.81,164.41 L628.88,164.49 L629.95,164.57 L631.02,164.64 L632.09,164.62 L633.17,164.68 L634.24,164.73 L635.31,164.78 L636.38,164.91 L637.45,164.94 L638.52,164.97 L639.59,165.00 L640.66,165.01 L641.73,165.02 L642.80,165.02 L643.87,165.02 L644.94,164.92 L646.02,164.90 L647.09,164.97 L648.16,164.94 L649.23,164.91 L650.30,164.86 L651.37,164.82 L652.44,164.76 L653.51,164.61 L654.58,164.55 L655.65,164.47 L656.72,164.39 L657.80,164.40 L658.87,164.31 L659.94,164.13 L661.01,164.03 L662.08,164.02 L663.15,163.92 L664.22,163.81 L665.29,163.69 L666.36,163.57 L667.43,163.45 L668.50,163.24 L669.57,163.12 L670.65,162.99 L671.72,162.86 L672.79,162.82 L673.86,162.67 L674.93,162.54 L676.00,161.41" fill="none" stroke="#e0e0e0" stroke-width="1.4"/>
<text x="539" y="86" fill="#666" font-family="monospace" font-size="9">04</text>
<rect x="76" y="224" width="152" height="152" fill="#0b0b0b" stroke="#444"/>
<line x1="84" y1="300.00" x2="220" y2="300.00" stroke="#292929"/>
<path d="M84.00,300.50 L85.07,300.15 L86.14,299.71 L87.21,299.27 L88.28,298.46 L89.35,298.13 L90.43,297.81 L91.50,297.52 L92.57,297.24 L93.64,297.00 L94.71,296.77 L95.78,296.57 L96.85,296.39 L97.92,296.24 L98.99,296.11 L100.06,296.00 L101.13,295.90 L102.20,295.83 L103.28,295.77 L104.35,295.73 L105.42,295.70 L106.49,295.69 L107.56,295.68 L108.63,295.68 L109.70,295.69 L110.77,295.70 L111.84,295.72 L112.91,295.73 L113.98,295.75 L115.06,295.76 L116.13,295.77 L117.20,295.78 L118.27,295.78 L119.34,295.78 L120.41,295.77 L121.48,295.75 L122.55,295.73 L123.62,295.71 L124.69,295.69 L125.76,295.66 L126.83,295.64 L127.91,295.62 L128.98,295.60 L130.05,295.59 L131.12,295.59 L132.19,295.60 L133.26,295.62 L134.33,295.65 L135.40,295.70 L136.47,295.76 L137.54,295.84 L138.61,295.94 L139.69,296.06 L140.76,296.20 L141.83,296.36 L142.90,296.55 L143.97,296.75 L145.04,296.98 L146.11,297.23 L147.18,297.51 L148.25,298.43 L149.32,298.76 L150.39,299.09 L151.46,299.44 L152.54,299.80 L153.61,300.15 L154.68,300.51 L155.75,301.51 L156.82,301.84 L157.89,302.15 L158.96,302.44 L160.03,302.72 L161.10,302.97 L162.17,303.19 L163.24,303.40 L164.31,303.58 L165.39,303.74 L166.46,303.88 L167.53,304.00 L168.60,304.09 L169.67,304.17 L170.74,304.24 L171.81,304.28 L172.88,304.31 L173.95,304.33 L175.02,304.33 L176.09,304.33 L177.17,304.32 L178.24,304.30 L179.31,304.27 L180.38,304.25 L181.45,304.22 L182.52,304.19 L183.59,304.17 L184.66,304.14 L185.73,304.13 L186.80,304.28 L187.87,304.25 L188.94,304.22 L190.02,304.20 L191.09,304.11 L192.16,304.12 L193.23,304.14 L194.30,304.15 L195.37,304.16 L196.44,304.17 L197.51,304.18 L198.58,304.18 L199.65,304.17 L200.72,304.15 L201.80,304.12 L202.87,304.07 L203.94,304.01 L205.01,303.94 L206.08,303.84 L207.15,303.73 L208.22,303.59 L209.29,303.44 L210.36,303.26 L211.43,303.06 L212.50,303.26 L213.57,303.04 L214.65,302.61 L215.72,302.32 L216.79,302.01 L217.86,301.67 L218.93,301.30 L220.00,300.90" fill="none" stroke="#e0e0e0" stroke-width="1.4"/>
<text x="83" y="238" fill="#666" font-family="monospace" font-size="9">05</text>
<rect x="228" y="224" width="152" height="152" fill="#0b0b0b" stroke="#444"/>
<line x1="236" y1="300.00" x2="372" y2="300.00" stroke="#292929"/>
<path d="M236.00,301.22 L237.07,300.66 L238.14,300.17 L239.21,299.54 L240.28,297.46 L241.35,295.35 L242.43,294.98 L243.50,294.65 L244.57,294.34 L245.64,294.07 L246.71,293.83 L247.78,293.61 L248.85,293.42 L249.92,293.25 L250.99,293.10 L252.06,292.97 L253.13,293.93 L254.20,293.31 L255.28,293.11 L256.35,292.94 L257.42,292.80 L258.49,292.51 L259.56,292.48 L260.63,292.45 L261.70,292.44 L262.77,292.42 L263.84,292.42 L264.91,292.42 L265.98,292.42 L267.06,292.43 L268.13,292.43 L269.20,292.44 L270.27,292.44 L271.34,292.38 L272.41,292.41 L273.48,292.44 L274.55,292.47 L275.62,292.45 L276.69,292.45 L277.76,292.45 L278.83,292.65 L279.91,292.66 L280.98,292.67 L282.05,292.68 L283.12,292.70 L284.19,292.71 L285.26,292.74 L286.33,292.77 L287.40,292.69 L288.47,292.76 L289.54,292.85 L290.61,292.94 L291.69,293.09 L292.76,293.19 L293.83,293.30 L294.90,293.44 L295.97,293.65 L297.04,293.85 L298.11,294.07 L299.18,295.48 L300.25,296.79 L301.32,297.97 L302.39,298.41 L303.46,298.88 L304.54,298.19 L305.61,298.69 L306.68,299.22 L307.75,300.66 L308.82,304.66 L309.89,305.02 L310.96,305.34 L312.03,305.64 L313.10,303.43 L314.17,302.33 L315.24,302.82 L316.31,305.28 L317.39,306.72 L318.46,306.88 L319.53,307.01 L320.60,307.13 L321.67,307.23 L322.74,307.32 L323.81,307.39 L324.88,307.45 L325.95,307.50 L327.02,307.45 L328.09,307.54 L329.17,307.61 L330.24,307.66 L331.31,307.60 L332.38,307.60 L333.45,307.59 L334.52,307.55 L335.59,307.53 L336.66,307.51 L337.73,307.48 L338.80,307.52 L339.87,307.63 L340.94,307.60 L342.02,307.57 L343.09,307.55 L344.16,307.48 L345.23,307.43 L346.30,307.39 L347.37,307.36 L348.44,307.43 L349.51,307.41 L350.58,307.39 L351.65,307.36 L352.72,307.32 L353.80,307.28 L354.87,307.22 L355.94,307.15 L357.01,307.07 L358.08,306.98 L359.15,306.88 L360.22,306.76 L361.29,306.62 L362.36,306.46 L363.43,306.29 L364.50,306.09 L365.57,306.20 L366.65,305.20 L367.72,304.43 L368.79,304.69 L369.86,304.72 L370.93,304.25 L372.00,303.03" fill="none" stroke="#e0e0e0" stroke-width="1.4"/>
<text x="235" y="238" fill="#666" font-family="monospace" font-size="9">06</text>
<rect x="380" y="224" width="152" height="152" fill="#0b0b0b" stroke="#444"/>
<line x1="388" y1="300.00" x2="524" y2="300.00" stroke="#292929"/>
<path d="M388.00,307.14 L389.07,304.33 L390.14,303.36 L391.21,301.99 L392.28,303.68 L393.35,303.30 L394.43,300.36 L395.50,298.44 L396.57,300.10 L397.64,296.76 L398.71,293.77 L399.78,292.29 L400.85,288.94 L401.92,287.70 L402.99,287.58 L404.06,287.47 L405.13,293.39 L406.20,290.64 L407.28,289.89 L408.35,289.05 L409.42,287.10 L410.49,286.14 L411.56,286.89 L412.63,286.84 L413.70,286.79 L414.77,286.75 L415.84,286.71 L416.91,286.68 L417.98,286.37 L419.06,285.96 L420.13,286.30 L421.20,286.29 L422.27,285.79 L423.34,286.42 L424.41,286.43 L425.48,286.44 L426.55,286.29 L427.62,286.41 L428.69,286.44 L429.76,286.48 L430.83,286.88 L431.91,286.62 L432.98,286.74 L434.05,286.80 L435.12,286.87 L436.19,287.12 L437.26,287.19 L438.33,287.27 L439.40,286.93 L440.47,286.90 L441.54,287.10 L442.61,287.20 L443.69,287.71 L444.76,287.90 L445.83,288.01 L446.90,288.11 L447.97,287.36 L449.04,288.31 L450.11,288.46 L451.18,288.61 L452.25,289.28 L453.32,291.48 L454.39,293.65 L455.46,294.64 L456.54,290.55 L457.61,289.89 L458.68,290.18 L459.75,290.44 L460.82,290.86 L461.89,292.69 L462.96,294.60 L464.03,295.58 L465.10,310.18 L466.17,307.72 L467.24,305.76 L468.31,311.60 L469.39,312.30 L470.46,312.62 L471.53,312.49 L472.60,312.59 L473.67,312.69 L474.74,312.79 L475.81,312.88 L476.88,312.96 L477.95,313.08 L479.02,313.64 L480.09,313.43 L481.17,313.50 L482.24,313.83 L483.31,313.67 L484.38,313.71 L485.45,313.75 L486.52,313.59 L487.59,313.39 L488.66,313.40 L489.73,313.40 L490.80,313.40 L491.87,313.38 L492.94,313.81 L494.02,313.39 L495.09,313.70 L496.16,313.66 L497.23,313.62 L498.30,313.57 L499.37,313.20 L500.44,314.01 L501.51,313.11 L502.58,313.06 L503.65,313.00 L504.72,313.11 L505.80,313.04 L506.87,312.96 L507.94,313.04 L509.01,313.17 L510.08,312.81 L511.15,312.71 L512.22,312.29 L513.29,312.14 L514.36,312.03 L515.43,311.91 L516.50,311.79 L517.57,311.66 L518.65,311.52 L519.72,311.71 L520.79,310.73 L521.86,311.05 L522.93,311.36 L524.00,310.29" fill="none" stroke="#e0e0e0" stroke-width="1.4"/>
<text x="387" y="238" fill="#666" font-family="monospace" font-size="9">07</text>
<rect x="532" y="224" width="152" height="152" fill="#0b0b0b" stroke="#444"/>
<line x1="540" y1="300.00" x2="676" y2="300.00" stroke="#292929"/>
<path d="M540.00,314.64 L541.07,314.02 L542.14,312.39 L543.21,311.23 L544.28,313.82 L545.35,312.69 L546.43,311.91 L547.50,309.19 L548.57,312.97 L549.64,311.49 L550.71,309.84 L551.78,305.14 L552.85,306.72 L553.92,302.21 L554.99,299.81 L556.06,295.61 L557.13,284.84 L558.20,286.43 L559.28,285.09 L560.35,284.86 L561.42,284.66 L562.49,284.40 L563.56,284.28 L564.63,284.26 L565.70,284.21 L566.77,284.12 L567.84,284.06 L568.91,284.04 L569.98,283.92 L571.06,283.94 L572.13,283.90 L573.20,283.91 L574.27,283.89 L575.34,283.87 L576.41,283.91 L577.48,283.92 L578.55,283.95 L579.62,283.96 L580.69,284.00 L581.76,284.05 L582.83,284.11 L583.91,284.17 L584.98,284.23 L586.05,284.31 L587.12,284.35 L588.19,284.45 L589.26,284.54 L590.33,284.63 L591.40,284.80 L592.47,284.90 L593.54,285.01 L594.61,285.12 L595.69,285.24 L596.76,285.40 L597.83,285.53 L598.90,285.66 L599.97,285.69 L601.04,285.81 L602.11,285.95 L603.18,286.09 L604.25,286.24 L605.32,286.39 L606.39,286.56 L607.46,286.72 L608.54,287.01 L609.61,287.16 L610.68,287.23 L611.75,287.39 L612.82,287.54 L613.89,287.71 L614.96,288.09 L616.03,288.76 L617.10,288.56 L618.17,288.60 L619.24,288.90 L620.31,289.23 L621.39,292.27 L622.46,294.25 L623.53,295.11 L624.60,297.14 L625.67,297.97 L626.74,302.32 L627.81,302.88 L628.88,310.04 L629.95,317.12 L631.02,317.24 L632.09,317.31 L633.17,317.37 L634.24,317.47 L635.31,317.52 L636.38,317.56 L637.45,317.60 L638.52,317.58 L639.59,317.60 L640.66,317.60 L641.73,317.61 L642.80,317.61 L643.87,317.61 L644.94,317.60 L646.02,317.61 L647.09,317.56 L648.16,317.55 L649.23,317.51 L650.30,317.46 L651.37,317.46 L652.44,317.40 L653.51,317.38 L654.58,317.27 L655.65,317.19 L656.72,317.13 L657.80,317.05 L658.87,316.95 L659.94,316.85 L661.01,316.73 L662.08,316.64 L663.15,316.51 L664.22,316.41 L665.29,316.31 L666.36,316.16 L667.43,316.03 L668.50,315.81 L669.57,315.71 L670.65,315.57 L671.72,315.44 L672.79,315.30 L673.86,315.08 L674.93,314.97 L676.00,314.85" fill="none" stroke="#e0e0e0" stroke-width="1.4"/>
<text x="539" y="238" fill="#666" font-family="monospace" font-size="9">08</text>
<rect x="76" y="376" width="152" height="152" fill="#0b0b0b" stroke="#444"/>
<line x1="84" y1="452.00" x2="220" y2="452.00" stroke="#292929"/>
<path d="M84.00,452.70 L85.07,451.92 L86.14,451.57 L87.21,451.22 L88.28,450.89 L89.35,450.57 L90.43,450.26 L91.50,449.98 L92.57,449.71 L93.64,448.89 L94.71,448.68 L95.78,448.50 L96.85,448.34 L97.92,448.19 L98.99,448.07 L100.06,447.97 L101.13,447.89 L102.20,447.82 L103.28,447.76 L104.35,447.72 L105.42,447.70 L106.49,447.68 L107.56,447.67 L108.63,447.67 L109.70,447.68 L110.77,447.69 L111.84,447.70 L112.91,447.72 L113.98,447.73 L115.06,447.74 L116.13,447.75 L117.20,447.75 L118.27,447.75 L119.34,447.75 L120.41,447.74 L121.48,447.73 L122.55,447.71 L123.62,447.69 L124.69,447.67 L125.76,447.65 L126.83,447.63 L127.91,447.61 L128.98,447.60 L130.05,447.59 L131.12,447.59 L132.19,447.60 L133.26,447.62 L134.33,447.66 L135.40,447.70 L136.47,447.76 L137.54,447.83 L138.61,447.93 L139.69,448.04 L140.76,448.16 L141.83,448.31 L142.90,449.03 L143.97,449.23 L145.04,449.45 L146.11,449.70 L147.18,449.96 L148.25,450.25 L149.32,450.55 L150.39,450.86 L151.46,451.86 L152.54,452.20 L153.61,452.54 L154.68,452.87 L155.75,453.20 L156.82,453.52 L157.89,453.82 L158.96,454.10 L160.03,454.37 L161.10,455.19 L162.17,455.39 L163.24,455.58 L164.31,455.75 L165.39,455.89 L166.46,456.02 L167.53,456.13 L168.60,456.22 L169.67,456.29 L170.74,456.35 L171.81,456.39 L172.88,456.42 L173.95,456.44 L175.02,456.45 L176.09,456.44 L177.17,456.43 L178.24,456.42 L179.31,456.40 L180.38,456.37 L181.45,456.35 L182.52,456.33 L183.59,456.30 L184.66,456.29 L185.73,456.27 L186.80,456.26 L187.87,456.25 L188.94,456.25 L190.02,456.25 L191.09,456.26 L192.16,456.26 L193.23,456.27 L194.30,456.29 L195.37,456.30 L196.44,456.30 L197.51,456.31 L198.58,456.30 L199.65,456.29 L200.72,456.27 L201.80,456.24 L202.87,456.20 L203.94,456.15 L205.01,456.08 L206.08,455.99 L207.15,455.88 L208.22,455.76 L209.29,455.07 L210.36,454.90 L211.43,454.70 L212.50,454.48 L213.57,454.24 L214.65,453.97 L215.72,453.69 L216.79,453.38 L217.86,453.06 L218.93,452.05 L220.00,451.70" fill="none" stroke="#e0e0e0" stroke-width="1.4"/>
<text x="83" y="390" fill="#666" font-family="monospace" font-size="9">09</text>
<rect x="228" y="376" width="152" height="152" fill="#0b0b0b" stroke="#444"/>
<line x1="236" y1="452.00" x2="372" y2="452.00" stroke="#292929"/>
<path d="M236.00,449.85 L237.07,452.73 L238.14,453.46 L239.21,453.93 L240.28,454.38 L241.35,454.78 L242.43,455.14 L243.50,455.45 L244.57,452.13 L245.64,449.22 L246.71,448.30 L247.78,447.73 L248.85,447.21 L249.92,446.73 L250.99,446.30 L252.06,445.91 L253.13,450.92 L254.20,453.27 L255.28,453.61 L256.35,453.93 L257.42,454.23 L258.49,454.50 L259.56,454.74 L260.63,454.95 L261.70,444.56 L262.77,444.00 L263.84,443.99 L264.91,443.99 L265.98,444.00 L267.06,444.00 L268.13,444.01 L269.20,444.02 L270.27,444.03 L271.34,444.03 L272.41,444.03 L273.48,444.04 L274.55,444.03 L275.62,444.03 L276.69,444.03 L277.76,444.03 L278.83,444.03 L279.91,444.04 L280.98,444.05 L282.05,444.06 L283.12,444.09 L284.19,444.12 L285.26,444.17 L286.33,444.23 L287.40,444.21 L288.47,444.26 L289.54,444.32 L290.61,444.38 L291.69,444.46 L292.76,444.55 L293.83,444.65 L294.90,444.77 L295.97,446.04 L297.04,446.31 L298.11,446.62 L299.18,446.96 L300.25,447.34 L301.32,447.76 L302.39,448.22 L303.46,450.52 L304.54,457.27 L305.61,457.48 L306.68,457.46 L307.75,457.43 L308.82,457.37 L309.89,457.30 L310.96,457.20 L312.03,456.39 L313.10,457.46 L314.17,458.77 L315.24,459.03 L316.31,459.26 L317.39,459.47 L318.46,459.65 L319.53,459.81 L320.60,459.95 L321.67,460.07 L322.74,460.18 L323.81,460.27 L324.88,460.34 L325.95,460.39 L327.02,460.44 L328.09,460.47 L329.17,460.49 L330.24,447.82 L331.31,447.86 L332.38,447.90 L333.45,447.94 L334.52,447.99 L335.59,448.03 L336.66,448.08 L337.73,448.12 L338.80,460.40 L339.87,460.39 L340.94,460.37 L342.02,460.36 L343.09,460.35 L344.16,460.34 L345.23,460.34 L346.30,460.33 L347.37,460.32 L348.44,460.30 L349.51,460.28 L350.58,460.26 L351.65,460.22 L352.72,460.18 L353.80,460.13 L354.87,460.06 L355.94,459.98 L357.01,459.89 L358.08,459.78 L359.15,459.65 L360.22,459.51 L361.29,459.34 L362.36,458.56 L363.43,458.32 L364.50,447.04 L365.57,447.01 L366.65,447.00 L367.72,447.01 L368.79,447.04 L369.86,447.61 L370.93,448.70 L372.00,449.22" fill="none" stroke="#e0e0e0" stroke-width="1.4"/>
<text x="235" y="390" fill="#666" font-family="monospace" font-size="9">10</text>
<rect x="380" y="376" width="152" height="152" fill="#0b0b0b" stroke="#444"/>
<line x1="388" y1="452.00" x2="524" y2="452.00" stroke="#292929"/>
<path d="M388.00,445.56 L389.07,457.42 L390.14,468.52 L391.21,473.73 L392.28,474.62 L393.35,475.22 L394.43,475.60 L395.50,475.82 L396.57,468.66 L397.64,456.42 L398.71,443.02 L399.78,440.31 L400.85,439.85 L401.92,439.32 L402.99,438.89 L404.06,438.53 L405.13,444.76 L406.20,463.88 L407.28,472.40 L408.35,473.51 L409.42,473.73 L410.49,473.89 L411.56,473.99 L412.63,474.06 L413.70,461.66 L414.77,437.06 L415.84,436.68 L416.91,436.63 L417.98,436.59 L419.06,436.57 L420.13,436.55 L421.20,436.54 L422.27,460.91 L423.34,447.06 L424.41,444.15 L425.48,443.95 L426.55,443.81 L427.62,443.73 L428.69,443.70 L429.76,443.70 L430.83,454.12 L431.91,466.66 L432.98,469.16 L434.05,469.94 L435.12,470.62 L436.19,471.20 L437.26,471.71 L438.33,472.15 L439.40,448.33 L440.47,437.84 L441.54,437.97 L442.61,438.13 L443.69,438.29 L444.76,438.46 L445.83,438.64 L446.90,438.83 L447.97,439.02 L449.04,439.25 L450.11,439.75 L451.18,440.02 L452.25,440.31 L453.32,440.62 L454.39,440.97 L455.46,444.06 L456.54,444.12 L457.61,445.17 L458.68,445.36 L459.75,445.85 L460.82,446.41 L461.89,447.05 L462.96,447.79 L464.03,454.46 L465.10,455.72 L466.17,451.78 L467.24,451.04 L468.31,450.82 L469.39,450.58 L470.46,450.34 L471.53,448.49 L472.60,447.39 L473.67,473.42 L474.74,463.98 L475.81,463.79 L476.88,463.46 L477.95,463.05 L479.02,462.54 L480.09,461.91 L481.17,455.88 L482.24,456.26 L483.31,449.44 L484.38,450.10 L485.45,449.91 L486.52,449.71 L487.59,449.50 L488.66,448.32 L489.73,447.61 L490.80,450.36 L491.87,449.56 L492.94,449.65 L494.02,449.62 L495.09,449.60 L496.16,449.58 L497.23,449.56 L498.30,449.54 L499.37,446.26 L500.44,444.57 L501.51,444.48 L502.58,444.38 L503.65,444.26 L504.72,444.14 L505.80,444.01 L506.87,443.87 L507.94,472.21 L509.01,462.92 L510.08,462.76 L511.15,462.58 L512.22,462.37 L513.29,462.15 L514.36,461.92 L515.43,461.75 L516.50,461.86 L517.57,446.71 L518.65,447.11 L519.72,446.90 L520.79,446.69 L521.86,446.49 L522.93,446.29 L524.00,446.26" fill="none" stroke="#e0e0e0" stroke-width="1.4"/>
<text x="387" y="390" fill="#666" font-family="monospace" font-size="9">11</text>
<rect x="532" y="376" width="152" height="152" fill="#0b0b0b" stroke="#444"/>
<line x1="540" y1="452.00" x2="676" y2="452.00" stroke="#292929"/>
<path d="M540.00,474.25 L541.07,468.77 L542.14,443.14 L543.21,439.85 L544.28,439.57 L545.35,439.37 L546.43,439.18 L547.50,439.01 L548.57,471.88 L549.64,467.33 L550.71,441.38 L551.78,438.22 L552.85,438.03 L553.92,437.88 L554.99,437.74 L556.06,437.61 L557.13,438.77 L558.20,452.11 L559.28,471.35 L560.35,471.74 L561.42,471.66 L562.49,471.57 L563.56,471.49 L564.63,471.41 L565.70,470.06 L566.77,437.55 L567.84,436.60 L568.91,436.55 L569.98,436.51 L571.06,436.48 L572.13,436.46 L573.20,436.45 L574.27,470.35 L575.34,453.77 L576.41,443.85 L577.48,443.42 L578.55,443.43 L579.62,443.46 L580.69,443.49 L581.76,443.53 L582.83,463.03 L583.91,440.25 L584.98,438.88 L586.05,440.33 L587.12,440.40 L588.19,440.47 L589.26,440.56 L590.33,440.65 L591.40,456.08 L592.47,437.68 L593.54,437.73 L594.61,437.87 L595.69,438.01 L596.76,438.15 L597.83,438.30 L598.90,438.46 L599.97,445.14 L601.04,473.41 L602.11,473.58 L603.18,473.74 L604.25,473.91 L605.32,474.08 L606.39,474.25 L607.46,474.43 L608.54,467.09 L609.61,440.42 L610.68,440.38 L611.75,440.55 L612.82,440.73 L613.89,440.91 L614.96,441.09 L616.03,442.95 L617.10,472.73 L618.17,470.81 L619.24,471.50 L620.31,469.74 L621.39,469.80 L622.46,469.86 L623.53,469.92 L624.60,469.38 L625.67,476.25 L626.74,475.95 L627.81,476.52 L628.88,476.90 L629.95,477.01 L631.02,477.11 L632.09,477.20 L633.17,476.79 L634.24,450.79 L635.31,449.34 L636.38,451.84 L637.45,448.94 L638.52,449.02 L639.59,449.13 L640.66,449.26 L641.73,449.10 L642.80,469.25 L643.87,443.59 L644.94,443.56 L646.02,443.54 L647.09,443.51 L648.16,443.47 L649.23,443.42 L650.30,443.37 L651.37,443.31 L652.44,443.18 L653.51,443.08 L654.58,442.99 L655.65,442.90 L656.72,442.80 L657.80,442.70 L658.87,442.58 L659.94,443.72 L661.01,456.79 L662.08,472.80 L663.15,472.67 L664.22,472.50 L665.29,472.31 L666.36,461.47 L667.43,458.31 L668.50,443.44 L669.57,441.64 L670.65,441.20 L671.72,441.04 L672.79,440.87 L673.86,440.70 L674.93,440.53 L676.00,440.36" fill="none" stroke="#e0e0e0" stroke-width="1.4"/>
<text x="539" y="390" fill="#666" font-family="monospace" font-size="9">12</text>
<rect x="76" y="528" width="152" height="152" fill="#0b0b0b" stroke="#444"/>
<line x1="84" y1="604.00" x2="220" y2="604.00" stroke="#292929"/>
<path d="M84.00,604.42 L85.07,604.26 L86.14,603.90 L87.21,603.53 L88.28,603.18 L89.35,602.12 L90.43,601.80 L91.50,601.51 L92.57,601.25 L93.64,601.00 L94.71,600.78 L95.78,600.58 L96.85,600.41 L97.92,600.26 L98.99,600.13 L100.06,600.02 L101.13,599.93 L102.20,599.85 L103.28,599.80 L104.35,599.75 L105.42,599.73 L106.49,599.71 L107.56,599.70 L108.63,599.70 L109.70,599.71 L110.77,599.72 L111.84,599.74 L112.91,599.75 L113.98,599.77 L115.06,599.78 L116.13,599.79 L117.20,599.80 L118.27,599.80 L119.34,599.79 L120.41,599.79 L121.48,599.77 L122.55,599.75 L123.62,599.73 L124.69,599.71 L125.76,599.68 L126.83,599.66 L127.91,599.64 L128.98,599.62 L130.05,599.61 L131.12,599.61 L132.19,599.62 L133.26,599.64 L134.33,599.67 L135.40,599.72 L136.47,599.78 L137.54,599.87 L138.61,599.96 L139.69,600.08 L140.76,600.22 L141.83,600.38 L142.90,600.56 L143.97,600.76 L145.04,600.99 L146.11,601.23 L147.18,602.19 L148.25,602.50 L149.32,602.82 L150.39,603.15 L151.46,603.50 L152.54,603.85 L153.61,604.21 L154.68,604.56 L155.75,605.63 L156.82,605.96 L157.89,606.26 L158.96,606.55 L160.03,606.82 L161.10,607.07 L162.17,607.29 L163.24,607.49 L164.31,607.67 L165.39,607.83 L166.46,607.97 L167.53,608.08 L168.60,608.18 L169.67,608.26 L170.74,608.32 L171.81,608.36 L172.88,608.39 L173.95,608.41 L175.02,608.42 L176.09,608.41 L177.17,608.40 L178.24,608.38 L179.31,608.36 L180.38,608.33 L181.45,608.31 L182.52,608.28 L183.59,608.25 L184.66,608.23 L185.73,608.22 L186.80,608.20 L187.87,608.19 L188.94,608.19 L190.02,608.19 L191.09,608.20 L192.16,608.21 L193.23,608.22 L194.30,608.24 L195.37,608.25 L196.44,608.26 L197.51,608.26 L198.58,608.26 L199.65,608.25 L200.72,608.23 L201.80,608.20 L202.87,608.16 L203.94,608.10 L205.01,608.02 L206.08,607.93 L207.15,607.82 L208.22,607.69 L209.29,607.53 L210.36,607.36 L211.43,607.16 L212.50,606.94 L213.57,606.01 L214.65,605.72 L215.72,605.42 L216.79,605.09 L217.86,604.75 L218.93,604.40 L220.00,604.04" fill="none" stroke="#e0e0e0" stroke-width="1.4"/>
<text x="83" y="542" fill="#666" font-family="monospace" font-size="9">13</text>
<rect x="228" y="528" width="152" height="152" fill="#0b0b0b" stroke="#444"/>
<line x1="236" y1="604.00" x2="372" y2="604.00" stroke="#292929"/>
<path d="M236.00,606.27 L237.07,605.08 L238.14,604.86 L239.21,604.34 L240.28,603.83 L241.35,601.94 L242.43,600.67 L243.50,598.93 L244.57,598.65 L245.64,598.39 L246.71,598.16 L247.78,597.96 L248.85,597.78 L249.92,597.62 L250.99,597.48 L252.06,597.36 L253.13,597.25 L254.20,597.16 L255.28,597.08 L256.35,597.01 L257.42,596.95 L258.49,596.91 L259.56,596.87 L260.63,596.85 L261.70,596.83 L262.77,596.81 L263.84,596.81 L264.91,596.80 L265.98,596.81 L267.06,596.81 L268.13,596.81 L269.20,596.82 L270.27,596.82 L271.34,596.83 L272.41,596.83 L273.48,596.83 L274.55,596.83 L275.62,596.83 L276.69,596.84 L277.76,596.84 L278.83,596.84 L279.91,596.85 L280.98,596.87 L282.05,596.89 L283.12,596.91 L284.19,596.95 L285.26,596.99 L286.33,597.04 L287.40,597.10 L288.47,597.17 L289.54,597.25 L290.61,597.34 L291.69,597.45 L292.76,597.57 L293.83,597.70 L294.90,597.85 L295.97,598.02 L297.04,598.21 L298.11,599.68 L299.18,601.02 L300.25,602.19 L301.32,602.60 L302.39,603.04 L303.46,603.50 L304.54,600.10 L305.61,600.31 L306.68,600.52 L307.75,601.21 L308.82,601.73 L309.89,602.37 L310.96,602.62 L312.03,602.89 L313.10,603.16 L314.17,603.45 L315.24,603.75 L316.31,605.12 L317.39,606.26 L318.46,606.66 L319.53,607.06 L320.60,607.47 L321.67,612.05 L322.74,612.14 L323.81,612.21 L324.88,612.27 L325.95,612.32 L327.02,612.36 L328.09,612.39 L329.17,612.41 L330.24,612.42 L331.31,612.43 L332.38,612.43 L333.45,612.42 L334.52,612.42 L335.59,612.41 L336.66,612.39 L337.73,612.38 L338.80,612.37 L339.87,612.36 L340.94,612.35 L342.02,612.34 L343.09,612.33 L344.16,612.32 L345.23,612.31 L346.30,612.30 L347.37,612.29 L348.44,612.27 L349.51,612.25 L350.58,612.22 L351.65,612.19 L352.72,612.15 L353.80,612.11 L354.87,612.05 L355.94,611.98 L357.01,611.95 L358.08,611.88 L359.15,611.79 L360.22,611.70 L361.29,611.59 L362.36,611.47 L363.43,611.34 L364.50,611.20 L365.57,609.82 L366.65,609.15 L367.72,608.95 L368.79,608.75 L369.86,608.53 L370.93,608.32 L372.00,608.10" fill="none" stroke="#e0e0e0" stroke-width="1.4"/>
<text x="235" y="542" fill="#666" font-family="monospace" font-size="9">14</text>
<rect x="380" y="528" width="152" height="152" fill="#0b0b0b" stroke="#444"/>
<line x1="388" y1="604.00" x2="524" y2="604.00" stroke="#292929"/>
<path d="M388.00,611.55 L389.07,594.22 L390.14,598.42 L391.21,599.67 L392.28,602.12 L393.35,612.23 L394.43,616.94 L395.50,617.97 L396.57,617.47 L397.64,617.42 L398.71,618.29 L399.78,617.49 L400.85,617.38 L401.92,617.27 L402.99,617.15 L404.06,617.03 L405.13,605.62 L406.20,599.43 L407.28,601.59 L408.35,602.63 L409.42,603.93 L410.49,609.17 L411.56,610.75 L412.63,611.42 L413.70,611.38 L414.77,611.38 L415.84,611.50 L416.91,611.48 L417.98,611.46 L419.06,611.44 L420.13,611.43 L421.20,611.42 L422.27,584.33 L423.34,583.14 L424.41,583.15 L425.48,583.17 L426.55,583.20 L427.62,583.24 L428.69,583.29 L429.76,583.35 L430.83,583.42 L431.91,583.50 L432.98,583.58 L434.05,583.67 L435.12,583.77 L436.19,583.88 L437.26,584.00 L438.33,584.12 L439.40,606.79 L440.47,615.07 L441.54,614.87 L442.61,614.35 L443.69,613.73 L444.76,609.17 L445.83,605.91 L446.90,602.27 L447.97,601.86 L449.04,601.69 L450.11,600.74 L451.18,600.54 L452.25,600.54 L453.32,600.37 L454.39,600.21 L455.46,600.24 L456.54,614.18 L457.61,614.34 L458.68,614.53 L459.75,614.73 L460.82,614.92 L461.89,615.16 L462.96,615.43 L464.03,615.62 L465.10,615.80 L466.17,615.98 L467.24,616.16 L468.31,616.34 L469.39,616.65 L470.46,616.93 L471.53,617.12 L472.60,617.30 L473.67,620.20 L474.74,616.49 L475.81,616.66 L476.88,616.78 L477.95,616.92 L479.02,617.05 L480.09,617.18 L481.17,617.00 L482.24,617.08 L483.31,617.15 L484.38,617.21 L485.45,616.96 L486.52,616.74 L487.59,616.47 L488.66,616.40 L489.73,616.29 L490.80,595.06 L491.87,592.73 L492.94,592.79 L494.02,592.85 L495.09,593.28 L496.16,593.61 L497.23,594.07 L498.30,594.16 L499.37,594.26 L500.44,594.36 L501.51,594.48 L502.58,596.28 L503.65,595.94 L504.72,597.03 L505.80,597.27 L506.87,597.51 L507.94,592.87 L509.01,596.35 L510.08,596.22 L511.15,596.09 L512.22,596.02 L513.29,596.02 L514.36,595.88 L515.43,595.73 L516.50,595.57 L517.57,594.90 L518.65,594.73 L519.72,594.04 L520.79,593.89 L521.86,593.70 L522.93,593.51 L524.00,593.32" fill="none" stroke="#e0e0e0" stroke-width="1.4"/>
<text x="387" y="542" fill="#666" font-family="monospace" font-size="9">15</text>
<rect x="532" y="528" width="152" height="152" fill="#0b0b0b" stroke="#444"/>
<line x1="540" y1="604.00" x2="676" y2="604.00" stroke="#292929"/>
<path d="M540.00,597.43 L541.07,587.89 L542.14,586.90 L543.21,590.38 L544.28,594.34 L545.35,617.02 L546.43,618.58 L547.50,618.45 L548.57,618.26 L549.64,618.10 L550.71,618.01 L551.78,617.83 L552.85,617.67 L553.92,617.54 L554.99,617.40 L556.06,617.27 L557.13,610.43 L558.20,614.06 L559.28,613.95 L560.35,608.06 L561.42,602.28 L562.49,585.10 L563.56,583.00 L564.63,582.80 L565.70,582.77 L566.77,582.70 L567.84,582.57 L568.91,582.58 L569.98,582.54 L571.06,582.51 L572.13,582.48 L573.20,582.47 L574.27,589.47 L575.34,614.76 L576.41,612.85 L577.48,610.35 L578.55,605.07 L579.62,585.34 L580.69,583.56 L581.76,583.42 L582.83,583.52 L583.91,583.58 L584.98,583.39 L586.05,583.68 L587.12,583.77 L588.19,583.86 L589.26,583.97 L590.33,584.08 L591.40,617.10 L592.47,615.76 L593.54,615.60 L594.61,615.79 L595.69,616.05 L596.76,616.32 L597.83,617.05 L598.90,617.49 L599.97,617.87 L601.04,618.06 L602.11,618.24 L603.18,618.45 L604.25,618.64 L605.32,618.81 L606.39,619.00 L607.46,619.18 L608.54,589.47 L609.61,606.37 L610.68,603.58 L611.75,602.09 L612.82,600.17 L613.89,593.82 L614.96,593.38 L616.03,594.04 L617.10,594.35 L618.17,594.63 L619.24,595.20 L620.31,595.44 L621.39,595.77 L622.46,596.06 L623.53,596.35 L624.60,596.56 L625.67,621.74 L626.74,621.20 L627.81,621.11 L628.88,621.27 L629.95,621.45 L631.02,621.94 L632.09,622.23 L633.17,622.43 L634.24,622.50 L635.31,622.57 L636.38,622.66 L637.45,622.72 L638.52,622.75 L639.59,622.77 L640.66,622.78 L641.73,622.79 L642.80,609.72 L643.87,589.84 L644.94,589.58 L646.02,589.56 L647.09,589.54 L648.16,589.54 L649.23,589.53 L650.30,589.53 L651.37,589.49 L652.44,589.44 L653.51,589.38 L654.58,589.33 L655.65,589.58 L656.72,589.42 L657.80,589.64 L658.87,589.64 L659.94,615.94 L661.01,613.78 L662.08,614.67 L663.15,614.54 L664.22,614.41 L665.29,614.32 L666.36,614.28 L667.43,614.13 L668.50,613.78 L669.57,613.63 L670.65,613.29 L671.72,612.89 L672.79,612.61 L673.86,612.20 L674.93,611.67 L676.00,611.39" fill="none" stroke="#e0e0e0" stroke-width="1.4"/>
<text x="539" y="542" fill="#666" font-family="monospace" font-size="9">16</text>
</svg>
