<svg xmlns="http://www.w3.org/2000/svg" width="760" height="760" viewBox="0 0 760 760">
<rect width="760" height="760" fill="#161616"/>
<text x="24" y="32" fill="#dedede" font-family="monospace" font-size="15">S3G VOT / CODEC CONCEAL</text>
<text x="684" y="724" text-anchor="end" fill="#858585" font-family="monospace" font-size="11">U / PACKET LOSS</text>
<text x="24" y="72" fill="#858585" font-family="monospace" font-size="11">V / CONCEALMENT METHOD</text>
<text x="76" y="724" fill="#858585" font-family="monospace" font-size="11">ENERGY / PACKET-LOSS RISE</text>
<rect x="76" y="72" width="152" height="152" fill="#0b0b0b" stroke="#444"/>
<line x1="84" y1="148.00" x2="220" y2="148.00" stroke="#292929"/>
<path d="M84.00,148.85 L85.07,148.23 L86.14,147.61 L87.21,147.01 L88.28,146.42 L89.35,145.86 L90.43,145.32 L91.50,144.82 L92.57,144.36 L93.64,143.94 L94.71,143.56 L95.78,143.22 L96.85,142.93 L97.92,142.69 L98.99,142.49 L100.06,142.33 L101.13,142.24 L102.20,142.16 L103.28,142.11 L104.35,142.09 L105.42,142.11 L106.49,142.15 L107.56,142.20 L108.63,142.27 L109.70,142.34 L110.77,142.42 L111.84,142.49 L112.91,142.56 L113.98,142.62 L115.06,142.67 L116.13,142.70 L117.20,142.72 L118.27,142.71 L119.34,142.69 L120.41,142.65 L121.48,142.59 L122.55,142.52 L123.62,142.43 L124.69,142.34 L125.76,142.24 L126.83,142.13 L127.91,142.03 L128.98,141.94 L130.05,141.86 L131.12,141.79 L132.19,141.75 L133.26,141.73 L134.33,141.75 L135.40,141.80 L136.47,141.89 L137.54,142.02 L138.61,142.19 L139.69,142.36 L140.76,142.61 L141.83,142.89 L142.90,143.23 L143.97,143.73 L145.04,144.17 L146.11,144.64 L147.18,145.15 L148.25,145.68 L149.32,146.24 L150.39,146.82 L151.46,147.41 L152.54,148.01 L153.61,148.61 L154.68,149.20 L155.75,149.77 L156.82,149.88 L157.89,150.43 L158.96,150.95 L160.03,151.45 L161.10,152.29 L162.17,152.68 L163.24,153.04 L164.31,153.35 L165.39,153.61 L166.46,153.83 L167.53,154.00 L168.60,154.13 L169.67,154.10 L170.74,154.20 L171.81,154.26 L172.88,154.29 L173.95,154.23 L175.02,154.16 L176.09,154.08 L177.17,153.99 L178.24,153.89 L179.31,153.78 L180.38,153.68 L181.45,153.58 L182.52,153.50 L183.59,153.43 L184.66,153.37 L185.73,153.33 L186.80,153.31 L187.87,153.30 L188.94,153.32 L190.02,153.35 L191.09,153.39 L192.16,153.45 L193.23,153.52 L194.30,153.60 L195.37,153.67 L196.44,153.75 L197.51,153.82 L198.58,153.87 L199.65,153.91 L200.72,153.93 L201.80,153.92 L202.87,153.87 L203.94,153.80 L205.01,153.68 L206.08,153.53 L207.15,153.33 L208.22,153.10 L209.29,152.81 L210.36,152.48 L211.43,152.10 L212.50,151.66 L213.57,151.19 L214.65,150.69 L215.72,150.16 L216.79,149.72 L217.86,149.14 L218.93,148.54 L220.00,147.93" fill="none" stroke="#e0e0e0" stroke-width="1.4"/>
<text x="83" y="86" fill="#666" font-family="monospace" font-size="9">01</text>
<rect x="228" y="72" width="152" height="152" fill="#0b0b0b" stroke="#444"/>
<line x1="236" y1="148.00" x2="372" y2="148.00" stroke="#292929"/>
<path d="M236.00,149.30 L237.07,148.37 L238.14,147.44 L239.21,146.54 L240.28,145.66 L241.35,144.81 L242.43,144.01 L243.50,143.26 L244.57,143.04 L245.64,142.37 L246.71,141.76 L247.78,141.21 L248.85,140.42 L249.92,140.06 L250.99,139.76 L252.06,139.52 L253.13,139.86 L254.20,139.58 L255.28,139.36 L256.35,139.21 L257.42,139.18 L258.49,139.24 L259.56,139.32 L260.63,139.42 L261.70,139.54 L262.77,139.65 L263.84,139.77 L264.91,139.87 L265.98,139.96 L267.06,140.03 L268.13,140.08 L269.20,140.10 L270.27,140.09 L271.34,140.06 L272.41,140.00 L273.48,139.91 L274.55,139.80 L275.62,139.67 L276.69,139.53 L277.76,139.38 L278.83,139.22 L279.91,139.07 L280.98,138.93 L282.05,138.81 L283.12,138.71 L284.19,138.65 L285.26,138.62 L286.33,138.65 L287.40,138.72 L288.47,138.85 L289.54,139.05 L290.61,139.31 L291.69,139.17 L292.76,139.36 L293.83,139.62 L294.90,139.94 L295.97,141.62 L297.04,142.27 L298.11,142.99 L299.18,143.75 L300.25,144.55 L301.32,145.39 L302.39,146.26 L303.46,147.15 L304.54,146.47 L305.61,147.34 L306.68,148.21 L307.75,149.09 L308.82,148.75 L309.89,149.64 L310.96,150.51 L312.03,151.36 L313.10,154.46 L314.17,155.06 L315.24,155.59 L316.31,156.05 L317.39,156.45 L318.46,156.78 L319.53,157.03 L320.60,157.23 L321.67,156.82 L322.74,157.12 L323.81,157.35 L324.88,157.52 L325.95,157.37 L327.02,157.27 L328.09,157.15 L329.17,157.01 L330.24,156.97 L331.31,156.82 L332.38,156.67 L333.45,156.52 L334.52,156.30 L335.59,156.19 L336.66,156.10 L337.73,156.04 L338.80,155.99 L339.87,155.98 L340.94,156.01 L342.02,156.05 L343.09,156.12 L344.16,156.21 L345.23,156.32 L346.30,156.43 L347.37,156.54 L348.44,156.66 L349.51,156.76 L350.58,156.84 L351.65,156.90 L352.72,156.92 L353.80,156.91 L354.87,156.84 L355.94,156.73 L357.01,156.56 L358.08,156.32 L359.15,156.03 L360.22,156.13 L361.29,155.86 L362.36,155.52 L363.43,155.12 L364.50,153.52 L365.57,152.82 L366.65,152.07 L367.72,151.27 L368.79,152.41 L369.86,151.66 L370.93,150.87 L372.00,150.03" fill="none" stroke="#e0e0e0" stroke-width="1.4"/>
<text x="235" y="86" fill="#666" font-family="monospace" font-size="9">02</text>
<rect x="380" y="72" width="152" height="152" fill="#0b0b0b" stroke="#444"/>
<line x1="388" y1="148.00" x2="524" y2="148.00" stroke="#292929"/>
<path d="M388.00,151.18 L389.07,149.75 L390.14,148.28 L391.21,146.78 L392.28,144.18 L393.35,142.81 L394.43,141.51 L395.50,140.29 L396.57,143.49 L397.64,142.13 L398.71,140.84 L399.78,139.64 L400.85,138.46 L401.92,137.46 L402.99,136.56 L404.06,135.78 L405.13,135.13 L406.20,134.56 L407.28,134.10 L408.35,133.74 L409.42,133.68 L410.49,133.77 L411.56,133.90 L412.63,134.07 L413.70,133.35 L414.77,133.47 L415.84,133.64 L416.91,133.83 L417.98,134.18 L419.06,134.39 L420.13,134.58 L421.20,134.76 L422.27,135.07 L423.34,135.07 L424.41,135.04 L425.48,134.96 L426.55,135.00 L427.62,134.90 L428.69,134.77 L429.76,134.60 L430.83,133.74 L431.91,133.49 L432.98,133.26 L434.05,133.07 L435.12,133.08 L436.19,132.96 L437.26,132.90 L438.33,132.91 L439.40,133.26 L440.47,133.25 L441.54,133.32 L442.61,133.47 L443.69,133.48 L444.76,133.72 L445.83,134.06 L446.90,134.50 L447.97,135.26 L449.04,135.95 L450.11,136.75 L451.18,137.66 L452.25,142.39 L453.32,143.75 L454.39,145.16 L455.46,146.60 L456.54,143.11 L457.61,144.47 L458.68,145.88 L459.75,147.32 L460.82,148.77 L461.89,150.22 L462.96,151.65 L464.03,153.05 L465.10,155.77 L466.17,156.95 L467.24,158.06 L468.31,159.07 L469.39,159.74 L470.46,160.59 L471.53,161.33 L472.60,161.96 L473.67,162.26 L474.74,162.76 L475.81,163.16 L476.88,163.45 L477.95,163.20 L479.02,163.04 L480.09,162.84 L481.17,162.61 L482.24,163.54 L483.31,163.35 L484.38,163.12 L485.45,162.86 L486.52,162.58 L487.59,162.29 L488.66,162.01 L489.73,161.74 L490.80,160.95 L491.87,160.94 L492.94,160.98 L494.02,161.06 L495.09,161.15 L496.16,161.28 L497.23,161.43 L498.30,161.60 L499.37,161.56 L500.44,161.72 L501.51,161.88 L502.58,162.02 L503.65,161.52 L504.72,161.67 L505.80,161.80 L506.87,161.91 L507.94,162.08 L509.01,161.92 L510.08,161.68 L511.15,161.34 L512.22,161.60 L513.29,161.30 L514.36,160.90 L515.43,160.39 L516.50,158.44 L517.57,157.53 L518.65,156.51 L519.72,155.40 L520.79,156.25 L521.86,155.11 L522.93,153.89 L524.00,152.58" fill="none" stroke="#e0e0e0" stroke-width="1.4"/>
<text x="387" y="86" fill="#666" font-family="monospace" font-size="9">03</text>
<rect x="532" y="72" width="152" height="152" fill="#0b0b0b" stroke="#444"/>
<line x1="540" y1="148.00" x2="676" y2="148.00" stroke="#292929"/>
<path d="M540.00,151.82 L541.07,150.08 L542.14,148.30 L543.21,146.47 L544.28,145.54 L545.35,143.81 L546.43,142.15 L547.50,140.57 L548.57,142.46 L549.64,140.81 L550.71,139.25 L551.78,137.79 L552.85,136.44 L553.92,135.21 L554.99,134.11 L556.06,133.15 L557.13,132.32 L558.20,131.63 L559.28,131.07 L560.35,130.64 L561.42,130.54 L562.49,130.64 L563.56,130.78 L564.63,130.97 L565.70,130.14 L566.77,130.30 L567.84,130.50 L568.91,130.74 L569.98,131.00 L571.06,131.27 L572.13,131.53 L573.20,131.78 L574.27,132.01 L575.34,132.18 L576.41,132.31 L577.48,132.38 L578.55,132.43 L579.62,132.41 L580.69,132.33 L581.76,132.20 L582.83,130.63 L583.91,130.33 L584.98,130.06 L586.05,129.82 L587.12,130.83 L588.19,130.59 L589.26,130.38 L590.33,130.21 L591.40,130.18 L592.47,130.09 L593.54,130.07 L594.61,130.15 L595.69,130.32 L596.76,130.61 L597.83,131.02 L598.90,131.55 L599.97,132.22 L601.04,133.01 L602.11,133.94 L603.18,135.00 L604.25,141.03 L605.32,142.68 L606.39,144.38 L607.46,146.12 L608.54,142.00 L609.61,143.65 L610.68,145.36 L611.75,147.11 L612.82,148.87 L613.89,150.62 L614.96,152.36 L616.03,154.06 L617.10,155.70 L618.17,157.27 L619.24,158.76 L620.31,160.14 L621.39,161.41 L622.46,162.56 L623.53,163.58 L624.60,164.47 L625.67,165.22 L626.74,165.84 L627.81,166.32 L628.88,166.67 L629.95,166.54 L631.02,166.44 L632.09,166.29 L633.17,166.07 L634.24,166.77 L635.31,166.55 L636.38,166.27 L637.45,165.95 L638.52,165.61 L639.59,165.26 L640.66,164.92 L641.73,164.60 L642.80,163.77 L643.87,163.71 L644.94,163.70 L646.02,163.75 L647.09,163.64 L648.16,163.64 L649.23,163.68 L650.30,163.78 L651.37,163.68 L652.44,163.82 L653.51,163.99 L654.58,164.17 L655.65,164.32 L656.72,164.50 L657.80,164.67 L658.87,164.79 L659.94,164.87 L661.01,164.89 L662.08,164.82 L663.15,164.67 L664.22,164.42 L665.29,164.06 L666.36,163.57 L667.43,162.96 L668.50,162.22 L669.57,161.34 L670.65,160.34 L671.72,159.20 L672.79,157.94 L673.86,156.56 L674.93,155.07 L676.00,153.48" fill="none" stroke="#e0e0e0" stroke-width="1.4"/>
<text x="539" y="86" fill="#666" font-family="monospace" font-size="9">04</text>
<rect x="76" y="224" width="152" height="152" fill="#0b0b0b" stroke="#444"/>
<line x1="84" y1="300.00" x2="220" y2="300.00" stroke="#292929"/>
<path d="M84.00,300.84 L85.07,300.13 L86.14,299.45 L87.21,298.78 L88.28,298.16 L89.35,297.59 L90.43,297.07 L91.50,296.62 L92.57,296.23 L93.64,295.92 L94.71,295.68 L95.78,295.51 L96.85,295.40 L97.92,295.34 L98.99,295.33 L100.06,295.36 L101.13,295.41 L102.20,295.48 L103.28,295.53 L104.35,295.55 L105.42,295.57 L106.49,295.57 L107.56,295.55 L108.63,295.48 L109.70,295.39 L110.77,295.21 L111.84,294.99 L112.91,294.72 L113.98,294.41 L115.06,294.09 L116.13,293.75 L117.20,293.39 L118.27,293.04 L119.34,292.71 L120.41,292.41 L121.48,292.15 L122.55,291.95 L123.62,291.80 L124.69,291.73 L125.76,291.74 L126.83,291.82 L127.91,291.99 L128.98,292.23 L130.05,292.55 L131.12,292.94 L132.19,293.39 L133.26,293.89 L134.33,294.43 L135.40,294.99 L136.47,295.57 L137.54,296.14 L138.61,296.71 L139.69,297.24 L140.76,297.74 L141.83,298.20 L142.90,298.61 L143.97,298.96 L145.04,299.25 L146.11,299.48 L147.18,299.67 L148.25,299.80 L149.32,299.89 L150.39,299.94 L151.46,299.98 L152.54,300.00 L153.61,300.02 L154.68,300.05 L155.75,300.11 L156.82,300.20 L157.89,300.33 L158.96,300.51 L160.03,300.75 L161.10,301.04 L162.17,301.39 L163.24,301.80 L164.31,302.25 L165.39,302.75 L166.46,303.29 L167.53,303.85 L168.60,304.43 L169.67,305.00 L170.74,305.57 L171.81,306.11 L172.88,306.60 L173.95,307.05 L175.02,307.44 L176.09,307.76 L177.17,308.01 L178.24,308.17 L179.31,308.26 L180.38,308.26 L181.45,308.19 L182.52,308.05 L183.59,307.85 L184.66,307.59 L185.73,307.29 L186.80,306.95 L187.87,306.61 L188.94,306.25 L190.02,305.90 L191.09,305.58 L192.16,305.27 L193.23,305.01 L194.30,304.79 L195.37,304.61 L196.44,304.48 L197.51,304.40 L198.58,304.37 L199.65,304.37 L200.72,304.40 L201.80,304.46 L202.87,304.52 L203.94,304.59 L205.01,304.64 L206.08,304.66 L207.15,304.66 L208.22,304.60 L209.29,304.49 L210.36,304.32 L211.43,304.08 L212.50,303.76 L213.57,303.38 L214.65,302.93 L215.72,302.41 L216.79,301.84 L217.86,301.21 L218.93,300.55 L220.00,299.86" fill="none" stroke="#e0e0e0" stroke-width="1.4"/>
<text x="83" y="238" fill="#666" font-family="monospace" font-size="9">05</text>
<rect x="228" y="224" width="152" height="152" fill="#0b0b0b" stroke="#444"/>
<line x1="236" y1="300.00" x2="372" y2="300.00" stroke="#292929"/>
<path d="M236.00,301.26 L237.07,300.21 L238.14,299.17 L239.21,298.18 L240.28,297.25 L241.35,296.38 L242.43,295.61 L243.50,294.93 L244.57,294.35 L245.64,293.89 L246.71,293.53 L247.78,293.27 L248.85,293.10 L249.92,293.02 L250.99,293.00 L252.06,293.05 L253.13,293.12 L254.20,293.22 L255.28,293.24 L256.35,293.19 L257.42,293.17 L258.49,293.17 L259.56,293.16 L260.63,293.13 L261.70,293.13 L262.77,292.88 L263.84,292.41 L264.91,291.84 L265.98,291.29 L267.06,290.85 L268.13,290.64 L269.20,290.12 L270.27,289.59 L271.34,289.08 L272.41,288.61 L273.48,288.22 L274.55,287.93 L275.62,287.73 L276.69,287.62 L277.76,287.63 L278.83,287.76 L279.91,288.00 L280.98,288.33 L282.05,288.80 L283.12,289.43 L284.19,290.16 L285.26,290.94 L286.33,291.74 L287.40,292.46 L288.47,293.29 L289.54,294.17 L290.61,295.06 L291.69,295.91 L292.76,296.67 L293.83,297.31 L294.90,297.92 L295.97,298.44 L297.04,298.88 L298.11,299.23 L299.18,299.50 L300.25,299.70 L301.32,299.84 L302.39,299.92 L303.46,299.97 L304.54,300.00 L305.61,300.04 L306.68,300.09 L307.75,300.17 L308.82,300.31 L309.89,300.50 L310.96,300.77 L312.03,301.13 L313.10,301.50 L314.17,301.99 L315.24,302.71 L316.31,303.56 L317.39,304.42 L318.46,305.19 L319.53,305.79 L320.60,306.65 L321.67,307.51 L322.74,308.36 L323.81,309.17 L324.88,309.92 L325.95,310.59 L327.02,311.17 L328.09,311.65 L329.17,312.02 L330.24,312.27 L331.31,312.40 L332.38,312.40 L333.45,312.30 L334.52,312.08 L335.59,311.78 L336.66,311.39 L337.73,310.94 L338.80,310.44 L339.87,309.92 L340.94,309.39 L342.02,308.86 L343.09,308.37 L344.16,307.92 L345.23,307.52 L346.30,307.19 L347.37,306.93 L348.44,306.73 L349.51,306.61 L350.58,306.56 L351.65,306.53 L352.72,306.56 L353.80,306.68 L354.87,306.83 L355.94,306.97 L357.01,307.04 L358.08,307.00 L359.15,306.99 L360.22,306.91 L361.29,306.74 L362.36,306.48 L363.43,306.12 L364.50,305.65 L365.57,305.08 L366.65,304.40 L367.72,303.62 L368.79,302.76 L369.86,301.83 L370.93,300.83 L372.00,299.80" fill="none" stroke="#e0e0e0" stroke-width="1.4"/>
<text x="235" y="238" fill="#666" font-family="monospace" font-size="9">06</text>
<rect x="380" y="224" width="152" height="152" fill="#0b0b0b" stroke="#444"/>
<line x1="388" y1="300.00" x2="524" y2="300.00" stroke="#292929"/>
<path d="M388.00,299.73 L389.07,298.79 L390.14,297.43 L391.21,295.92 L392.28,294.50 L393.35,293.42 L394.43,293.05 L395.50,292.21 L396.57,291.27 L397.64,290.35 L398.71,289.57 L399.78,289.01 L400.85,288.77 L401.92,288.67 L402.99,288.70 L404.06,288.80 L405.13,288.94 L406.20,289.05 L407.28,288.97 L408.35,288.89 L409.42,288.85 L410.49,288.84 L411.56,288.82 L412.63,288.79 L413.70,288.86 L414.77,288.46 L415.84,287.58 L416.91,286.49 L417.98,285.49 L419.06,284.84 L420.13,285.15 L421.20,284.71 L422.27,283.67 L423.34,282.38 L424.41,281.18 L425.48,280.43 L426.55,280.59 L427.62,280.64 L428.69,280.71 L429.76,280.79 L430.83,280.87 L431.91,280.96 L432.98,280.76 L434.05,281.41 L435.12,282.86 L436.19,284.67 L437.26,286.37 L438.33,287.50 L439.40,287.14 L440.47,287.93 L441.54,289.69 L442.61,291.86 L443.69,293.90 L444.76,295.26 L445.83,295.58 L446.90,296.54 L447.97,297.40 L449.04,298.12 L450.11,298.72 L451.18,299.17 L452.25,299.43 L453.32,299.58 L454.39,299.67 L455.46,299.75 L456.54,299.83 L457.61,299.94 L458.68,300.14 L459.75,300.39 L460.82,300.78 L461.89,301.25 L462.96,301.74 L464.03,302.17 L465.10,302.23 L466.17,302.93 L467.24,304.42 L468.31,306.24 L469.39,307.95 L470.46,309.09 L471.53,309.37 L472.60,310.78 L473.67,312.18 L474.74,313.55 L475.81,314.87 L476.88,316.08 L477.95,317.18 L479.02,318.13 L480.09,318.91 L481.17,319.51 L482.24,319.91 L483.31,320.12 L484.38,320.13 L485.45,319.96 L486.52,319.61 L487.59,319.11 L488.66,318.47 L489.73,317.74 L490.80,317.27 L491.87,316.75 L492.94,315.71 L494.02,314.45 L495.09,313.27 L496.16,312.45 L497.23,312.48 L498.30,312.29 L499.37,311.93 L500.44,311.49 L501.51,311.07 L502.58,310.76 L503.65,310.57 L504.72,310.60 L505.80,310.81 L506.87,311.09 L507.94,311.34 L509.01,311.45 L510.08,311.35 L511.15,311.33 L512.22,311.20 L513.29,310.93 L514.36,310.50 L515.43,309.92 L516.50,309.42 L517.57,308.61 L518.65,307.02 L519.72,305.08 L520.79,303.23 L521.86,301.88 L522.93,301.32 L524.00,299.64" fill="none" stroke="#e0e0e0" stroke-width="1.4"/>
<text x="387" y="238" fill="#666" font-family="monospace" font-size="9">07</text>
<rect x="532" y="224" width="152" height="152" fill="#0b0b0b" stroke="#444"/>
<line x1="540" y1="300.00" x2="676" y2="300.00" stroke="#292929"/>
<path d="M540.00,298.48 L541.07,297.75 L542.14,296.30 L543.21,294.52 L544.28,292.86 L545.35,291.72 L546.43,292.01 L547.50,291.41 L548.57,290.27 L549.64,288.90 L550.71,287.62 L551.78,286.73 L552.85,286.49 L553.92,286.43 L554.99,286.54 L556.06,286.74 L557.13,286.91 L558.20,286.98 L559.28,286.70 L560.35,286.60 L561.42,286.56 L562.49,286.54 L563.56,286.53 L564.63,286.49 L565.70,286.57 L566.77,286.08 L567.84,285.02 L568.91,283.70 L569.98,282.49 L571.06,281.71 L572.13,282.07 L573.20,281.55 L574.27,280.29 L575.34,278.72 L576.41,277.27 L577.48,276.36 L578.55,276.56 L579.62,276.62 L580.69,276.70 L581.76,276.80 L582.83,276.90 L583.91,277.01 L584.98,276.77 L586.05,277.55 L587.12,279.31 L588.19,281.49 L589.26,283.55 L590.33,284.92 L591.40,284.49 L592.47,285.45 L593.54,287.57 L594.61,290.20 L595.69,292.67 L596.76,294.31 L597.83,294.33 L598.90,295.07 L599.97,296.13 L601.04,297.28 L602.11,298.34 L603.18,299.10 L604.25,299.36 L605.32,299.53 L606.39,299.65 L607.46,299.74 L608.54,299.84 L609.61,299.98 L610.68,300.24 L611.75,300.59 L612.82,301.15 L613.89,301.79 L614.96,302.39 L616.03,302.85 L617.10,302.74 L618.17,303.60 L619.24,305.40 L620.31,307.61 L621.39,309.67 L622.46,311.05 L623.53,311.38 L624.60,313.07 L625.67,314.78 L626.74,316.46 L627.81,318.06 L628.88,319.53 L629.95,320.75 L631.02,321.77 L632.09,322.71 L633.17,323.49 L634.24,324.06 L635.31,324.38 L636.38,324.45 L637.45,324.18 L638.52,323.53 L639.59,322.66 L640.66,321.76 L641.73,321.02 L642.80,321.05 L643.87,320.52 L644.94,319.21 L646.02,317.57 L647.09,316.02 L648.16,315.01 L649.23,315.16 L650.30,314.94 L651.37,314.50 L652.44,313.97 L653.51,313.45 L654.58,313.08 L655.65,312.85 L656.72,312.88 L657.80,313.13 L658.87,313.48 L659.94,313.78 L661.01,313.91 L662.08,313.75 L663.15,313.62 L664.22,313.34 L665.29,312.93 L666.36,312.41 L667.43,311.80 L668.50,311.52 L669.57,310.57 L670.65,308.52 L671.72,306.01 L672.79,303.65 L673.86,302.07 L674.93,301.66 L676.00,299.65" fill="none" stroke="#e0e0e0" stroke-width="1.4"/>
<text x="539" y="238" fill="#666" font-family="monospace" font-size="9">08</text>
<rect x="76" y="376" width="152" height="152" fill="#0b0b0b" stroke="#444"/>
<line x1="84" y1="452.00" x2="220" y2="452.00" stroke="#292929"/>
<path d="M84.00,452.84 L85.07,452.06 L86.14,451.30 L87.21,450.59 L88.28,449.95 L89.35,449.40 L90.43,448.95 L91.50,448.61 L92.57,448.36 L93.64,448.21 L94.71,448.14 L95.78,448.14 L96.85,448.19 L97.92,448.27 L98.99,448.36 L100.06,448.44 L101.13,448.60 L102.20,448.59 L103.28,448.51 L104.35,448.34 L105.42,448.09 L106.49,447.76 L107.56,447.35 L108.63,446.87 L109.70,446.36 L110.77,445.82 L111.84,445.29 L112.91,444.78 L113.98,444.33 L115.06,443.95 L116.13,443.66 L117.20,443.48 L118.27,443.37 L119.34,443.42 L120.41,443.58 L121.48,443.85 L122.55,444.21 L123.62,444.64 L124.69,445.12 L125.76,445.63 L126.83,446.15 L127.91,446.64 L128.98,447.08 L130.05,447.47 L131.12,447.78 L132.19,448.00 L133.26,448.14 L134.33,448.20 L135.40,448.18 L136.47,448.11 L137.54,447.99 L138.61,447.86 L139.69,447.74 L140.76,447.64 L141.83,447.59 L142.90,447.62 L143.97,447.74 L145.04,447.95 L146.11,448.27 L147.18,448.70 L148.25,449.22 L149.32,449.83 L150.39,450.51 L151.46,451.24 L152.54,452.00 L153.61,452.76 L154.68,453.49 L155.75,454.17 L156.82,454.78 L157.89,455.30 L158.96,455.73 L160.03,456.05 L161.10,456.26 L162.17,456.38 L163.24,456.41 L164.31,456.36 L165.39,456.26 L166.46,456.14 L167.53,456.01 L168.60,455.89 L169.67,455.82 L170.74,455.80 L171.81,455.86 L172.88,456.00 L173.95,456.22 L175.02,456.53 L176.09,456.92 L177.17,457.36 L178.24,457.85 L179.31,458.37 L180.38,458.88 L181.45,459.36 L182.52,459.79 L183.59,460.15 L184.66,460.42 L185.73,460.58 L186.80,460.62 L187.87,460.55 L188.94,460.37 L190.02,460.07 L191.09,459.69 L192.16,459.23 L193.23,458.72 L194.30,458.18 L195.37,457.64 L196.44,457.13 L197.51,456.65 L198.58,456.24 L199.65,455.91 L200.72,455.66 L201.80,455.49 L202.87,455.41 L203.94,455.40 L205.01,455.45 L206.08,455.53 L207.15,455.64 L208.22,455.74 L209.29,455.81 L210.36,455.83 L211.43,455.78 L212.50,455.63 L213.57,455.39 L214.65,455.05 L215.72,454.60 L216.79,454.04 L217.86,453.41 L218.93,452.70 L220.00,451.94" fill="none" stroke="#e0e0e0" stroke-width="1.4"/>
<text x="83" y="390" fill="#666" font-family="monospace" font-size="9">09</text>
<rect x="228" y="376" width="152" height="152" fill="#0b0b0b" stroke="#444"/>
<line x1="236" y1="452.00" x2="372" y2="452.00" stroke="#292929"/>
<path d="M236.00,453.32 L237.07,452.14 L238.14,450.99 L239.21,449.92 L240.28,448.95 L241.35,448.12 L242.43,447.44 L243.50,446.91 L244.57,446.51 L245.64,446.19 L246.71,445.94 L247.78,445.77 L248.85,445.66 L249.92,445.63 L250.99,445.65 L252.06,445.72 L253.13,446.90 L254.20,446.89 L255.28,446.76 L256.35,446.51 L257.42,446.13 L258.49,445.62 L259.56,445.00 L260.63,444.28 L261.70,443.51 L262.77,442.80 L263.84,442.19 L264.91,441.70 L265.98,441.33 L267.06,441.11 L268.13,441.05 L269.20,441.15 L270.27,438.98 L271.34,439.05 L272.41,439.30 L273.48,439.70 L274.55,440.25 L275.62,440.90 L276.69,441.63 L277.76,442.41 L278.83,443.18 L279.91,443.93 L280.98,444.60 L282.05,445.17 L283.12,445.64 L284.19,445.97 L285.26,446.17 L286.33,446.25 L287.40,446.27 L288.47,446.16 L289.54,445.98 L290.61,445.78 L291.69,445.59 L292.76,445.45 L293.83,445.38 L294.90,445.42 L295.97,445.58 L297.04,445.81 L298.11,446.12 L299.18,446.51 L300.25,446.97 L301.32,447.49 L302.39,448.06 L303.46,448.67 L304.54,452.05 L305.61,453.20 L306.68,454.30 L307.75,455.34 L308.82,456.26 L309.89,457.06 L310.96,457.70 L312.03,458.19 L313.10,458.51 L314.17,458.69 L315.24,458.73 L316.31,458.66 L317.39,458.51 L318.46,458.32 L319.53,458.12 L320.60,457.95 L321.67,457.84 L322.74,457.81 L323.81,457.90 L324.88,458.11 L325.95,458.45 L327.02,458.92 L328.09,459.50 L329.17,460.18 L330.24,460.92 L331.31,461.67 L332.38,462.39 L333.45,463.04 L334.52,463.61 L335.59,464.06 L336.66,464.37 L337.73,464.51 L338.80,465.12 L339.87,465.01 L340.94,464.73 L342.02,464.28 L343.09,463.70 L344.16,463.01 L345.23,462.23 L346.30,461.42 L347.37,460.60 L348.44,459.82 L349.51,459.11 L350.58,458.48 L351.65,457.98 L352.72,457.59 L353.80,457.34 L354.87,457.22 L355.94,457.20 L357.01,457.28 L358.08,457.41 L359.15,457.57 L360.22,457.72 L361.29,457.83 L362.36,457.86 L363.43,457.77 L364.50,457.56 L365.57,457.19 L366.65,456.67 L367.72,455.99 L368.79,455.15 L369.86,454.19 L370.93,453.11 L372.00,451.97" fill="none" stroke="#e0e0e0" stroke-width="1.4"/>
<text x="235" y="390" fill="#666" font-family="monospace" font-size="9">10</text>
<rect x="380" y="376" width="152" height="152" fill="#0b0b0b" stroke="#444"/>
<line x1="388" y1="452.00" x2="524" y2="452.00" stroke="#292929"/>
<path d="M388.00,450.92 L389.07,449.26 L390.14,447.94 L391.21,446.96 L392.28,446.33 L393.35,446.06 L394.43,446.15 L395.50,446.60 L396.57,443.48 L397.64,442.91 L398.71,442.45 L399.78,442.10 L400.85,441.86 L401.92,441.74 L402.99,441.72 L404.06,441.81 L405.13,444.14 L406.20,444.18 L407.28,444.10 L408.35,443.90 L409.42,443.56 L410.49,443.09 L411.56,442.50 L412.63,441.81 L413.70,438.66 L414.77,437.62 L415.84,436.85 L416.91,436.33 L417.98,436.08 L419.06,436.10 L420.13,436.38 L421.20,436.92 L422.27,431.31 L423.34,431.21 L424.41,431.24 L425.48,431.38 L426.55,431.64 L427.62,432.00 L428.69,432.44 L429.76,432.94 L430.83,438.14 L431.91,439.21 L432.98,440.02 L434.05,440.59 L435.12,440.90 L436.19,440.96 L437.26,440.76 L438.33,440.31 L439.40,443.10 L440.47,442.93 L441.54,442.68 L442.61,442.39 L443.69,442.11 L444.76,441.91 L445.83,441.82 L446.90,441.90 L447.97,441.95 L449.04,442.17 L450.11,442.38 L451.18,442.58 L452.25,442.76 L453.32,442.94 L454.39,443.10 L455.46,443.26 L456.54,452.42 L457.61,454.26 L458.68,456.04 L459.75,457.71 L460.82,459.20 L461.89,460.48 L462.96,461.52 L464.03,462.30 L465.10,462.86 L466.17,463.28 L467.24,463.56 L468.31,463.72 L469.39,463.76 L470.46,463.72 L471.53,463.61 L472.60,463.46 L473.67,461.71 L474.74,461.55 L475.81,461.46 L476.88,461.45 L477.95,461.52 L479.02,461.65 L480.09,461.86 L481.17,462.14 L482.24,466.68 L483.31,467.67 L484.38,468.41 L485.45,468.89 L486.52,469.13 L487.59,469.12 L488.66,468.86 L489.73,468.35 L490.80,473.50 L491.87,473.46 L492.94,473.23 L494.02,472.82 L495.09,472.26 L496.16,471.58 L497.23,470.80 L498.30,469.97 L499.37,466.20 L500.44,464.94 L501.51,463.78 L502.58,462.78 L503.65,461.96 L504.72,461.35 L505.80,460.94 L506.87,460.74 L507.94,460.71 L509.01,460.83 L510.08,461.05 L511.15,461.30 L512.22,461.55 L513.29,461.72 L514.36,461.77 L515.43,461.64 L516.50,461.29 L517.57,460.70 L518.65,459.86 L519.72,458.75 L520.79,457.41 L521.86,455.85 L522.93,454.13 L524.00,452.28" fill="none" stroke="#e0e0e0" stroke-width="1.4"/>
<text x="387" y="390" fill="#666" font-family="monospace" font-size="9">11</text>
<rect x="532" y="376" width="152" height="152" fill="#0b0b0b" stroke="#444"/>
<line x1="540" y1="452.00" x2="676" y2="452.00" stroke="#292929"/>
<path d="M540.00,449.91 L541.07,447.99 L542.14,446.51 L543.21,445.48 L544.28,444.90 L545.35,444.77 L546.43,445.09 L547.50,445.86 L548.57,441.71 L549.64,441.03 L550.71,440.49 L551.78,440.07 L552.85,439.79 L553.92,439.63 L554.99,439.61 L556.06,439.72 L557.13,442.51 L558.20,442.64 L559.28,442.70 L560.35,442.70 L561.42,442.64 L562.49,442.51 L563.56,442.32 L564.63,442.06 L565.70,435.98 L566.77,434.74 L567.84,433.82 L568.91,433.21 L569.98,432.91 L571.06,432.93 L572.13,433.26 L573.20,433.90 L574.27,427.22 L575.34,426.98 L576.41,426.82 L577.48,426.73 L578.55,426.72 L579.62,426.77 L580.69,426.91 L581.76,427.11 L582.83,435.35 L583.91,436.63 L584.98,437.60 L586.05,438.27 L587.12,438.64 L588.19,438.71 L589.26,438.48 L590.33,437.94 L591.40,441.29 L592.47,441.26 L593.54,441.24 L594.61,441.23 L595.69,441.25 L596.76,441.32 L597.83,441.46 L598.90,441.68 L599.97,439.89 L601.04,440.15 L602.11,440.40 L603.18,440.63 L604.25,440.86 L605.32,441.07 L606.39,441.26 L607.46,441.44 L608.54,452.33 L609.61,454.41 L610.68,456.29 L611.75,457.92 L612.82,459.28 L613.89,460.32 L614.96,461.02 L616.03,461.38 L617.10,464.78 L618.17,465.39 L619.24,465.89 L620.31,466.27 L621.39,466.54 L622.46,466.70 L623.53,466.74 L624.60,466.67 L625.67,463.37 L626.74,463.18 L627.81,463.07 L628.88,463.03 L629.95,463.08 L631.02,463.21 L632.09,463.43 L633.17,463.72 L634.24,469.29 L635.31,470.46 L636.38,471.34 L637.45,471.92 L638.52,472.20 L639.59,472.19 L640.66,471.88 L641.73,471.27 L642.80,477.45 L643.87,477.61 L644.94,477.72 L646.02,477.77 L647.09,477.77 L648.16,477.70 L649.23,477.58 L650.30,477.40 L651.37,468.71 L652.44,467.25 L653.51,465.95 L654.58,464.87 L655.65,464.03 L656.72,463.45 L657.80,463.13 L658.87,463.07 L659.94,462.19 L661.01,462.33 L662.08,462.57 L663.15,462.86 L664.22,463.14 L665.29,463.33 L666.36,463.38 L667.43,463.22 L668.50,462.88 L669.57,462.19 L670.65,461.20 L671.72,459.92 L672.79,458.35 L673.86,456.54 L674.93,454.54 L676.00,452.39" fill="none" stroke="#e0e0e0" stroke-width="1.4"/>
<text x="539" y="390" fill="#666" font-family="monospace" font-size="9">12</text>
<rect x="76" y="528" width="152" height="152" fill="#0b0b0b" stroke="#444"/>
<line x1="84" y1="604.00" x2="220" y2="604.00" stroke="#292929"/>
<path d="M84.00,604.83 L85.07,603.97 L86.14,603.16 L87.21,602.42 L88.28,601.80 L89.35,601.31 L90.43,600.97 L91.50,600.78 L92.57,600.73 L93.64,600.78 L94.71,600.90 L95.78,601.07 L96.85,601.22 L97.92,601.34 L98.99,601.37 L100.06,601.29 L101.13,601.09 L102.20,600.76 L103.28,600.30 L104.35,599.73 L105.42,599.09 L106.49,598.40 L107.56,597.72 L108.63,597.08 L109.70,596.53 L110.77,596.09 L111.84,595.80 L112.91,595.67 L113.98,595.70 L115.06,595.87 L116.13,596.18 L117.20,596.58 L118.27,597.05 L119.34,597.53 L120.41,597.99 L121.48,598.38 L122.55,598.68 L123.62,598.87 L124.69,598.93 L125.76,598.86 L126.83,598.69 L127.91,598.43 L128.98,598.11 L130.05,597.79 L131.12,597.49 L132.19,597.27 L133.26,597.15 L134.33,597.16 L135.40,597.32 L136.47,597.64 L137.54,598.11 L138.61,598.72 L139.69,599.42 L140.76,600.19 L141.83,600.98 L142.90,601.75 L143.97,602.47 L145.04,603.08 L146.11,603.58 L147.18,603.94 L148.25,604.16 L149.32,604.25 L150.39,604.23 L151.46,604.13 L152.54,604.00 L153.61,603.86 L154.68,603.76 L155.75,603.74 L156.82,603.83 L157.89,604.06 L158.96,604.41 L160.03,604.91 L161.10,605.53 L162.17,606.24 L163.24,607.01 L164.31,607.80 L165.39,608.57 L166.46,609.28 L167.53,609.88 L168.60,610.35 L169.67,610.67 L170.74,610.83 L171.81,610.85 L172.88,610.73 L173.95,610.50 L175.02,610.20 L176.09,609.88 L177.17,609.57 L178.24,609.30 L179.31,609.13 L180.38,609.06 L181.45,609.12 L182.52,609.31 L183.59,609.61 L184.66,610.01 L185.73,610.46 L186.80,610.94 L187.87,611.41 L188.94,611.81 L190.02,612.12 L191.09,612.30 L192.16,612.32 L193.23,612.19 L194.30,611.90 L195.37,611.46 L196.44,610.91 L197.51,610.27 L198.58,609.59 L199.65,608.91 L200.72,608.26 L201.80,607.70 L202.87,607.24 L203.94,606.90 L205.01,606.70 L206.08,606.62 L207.15,606.66 L208.22,606.77 L209.29,606.93 L210.36,607.09 L211.43,607.22 L212.50,607.27 L213.57,607.21 L214.65,607.02 L215.72,606.68 L216.79,606.20 L217.86,605.57 L218.93,604.84 L220.00,604.02" fill="none" stroke="#e0e0e0" stroke-width="1.4"/>
<text x="83" y="542" fill="#666" font-family="monospace" font-size="9">13</text>
<rect x="228" y="528" width="152" height="152" fill="#0b0b0b" stroke="#444"/>
<line x1="236" y1="604.00" x2="372" y2="604.00" stroke="#292929"/>
<path d="M236.00,605.02 L237.07,603.93 L238.14,602.89 L239.21,601.95 L240.28,601.15 L241.35,600.51 L242.43,600.06 L243.50,599.80 L244.57,599.70 L245.64,599.74 L246.71,599.88 L247.78,600.06 L248.85,599.73 L249.92,599.90 L250.99,599.95 L252.06,599.84 L253.13,599.53 L254.20,599.02 L255.28,598.33 L256.35,597.47 L257.42,596.50 L258.49,595.47 L259.56,594.43 L260.63,593.47 L261.70,592.63 L262.77,591.97 L263.84,591.53 L264.91,591.32 L265.98,591.37 L267.06,591.63 L268.13,592.10 L269.20,592.71 L270.27,593.41 L271.34,594.14 L272.41,594.83 L273.48,595.43 L274.55,596.05 L275.62,596.34 L276.69,596.44 L277.76,596.35 L278.83,596.10 L279.91,595.72 L280.98,595.26 L282.05,594.78 L283.12,594.34 L284.19,594.01 L285.26,593.82 L286.33,593.84 L287.40,593.83 L288.47,594.31 L289.54,595.03 L290.61,595.94 L291.69,597.00 L292.76,598.17 L293.83,599.36 L294.90,600.53 L295.97,601.61 L297.04,602.55 L298.11,603.30 L299.18,603.84 L300.25,604.17 L301.32,604.31 L302.39,604.28 L303.46,604.14 L304.54,603.93 L305.61,603.72 L306.68,603.57 L307.75,603.55 L308.82,603.68 L309.89,604.02 L310.96,604.56 L312.03,605.31 L313.10,606.24 L314.17,607.32 L315.24,608.49 L316.31,609.69 L317.39,610.85 L318.46,611.92 L319.53,612.83 L320.60,613.54 L321.67,614.03 L322.74,614.28 L323.81,614.30 L324.88,614.11 L325.95,613.77 L327.02,613.32 L328.09,612.83 L329.17,612.36 L330.24,611.96 L331.31,611.70 L332.38,611.60 L333.45,611.69 L334.52,611.97 L335.59,612.42 L336.66,613.02 L337.73,613.71 L338.80,614.44 L339.87,615.15 L340.94,615.76 L342.02,616.22 L343.09,616.49 L344.16,616.53 L345.23,616.33 L346.30,615.89 L347.37,615.23 L348.44,614.39 L349.51,613.42 L350.58,612.39 L351.65,611.36 L352.72,610.38 L353.80,609.53 L354.87,608.83 L355.94,608.33 L357.01,608.02 L358.08,607.90 L359.15,607.95 L360.22,608.12 L361.29,608.36 L362.36,608.61 L363.43,608.80 L364.50,608.88 L365.57,608.79 L366.65,608.50 L367.72,607.99 L368.79,607.26 L369.86,606.31 L370.93,605.20 L372.00,603.96" fill="none" stroke="#e0e0e0" stroke-width="1.4"/>
<text x="235" y="542" fill="#666" font-family="monospace" font-size="9">14</text>
<rect x="380" y="528" width="152" height="152" fill="#0b0b0b" stroke="#444"/>
<line x1="388" y1="604.00" x2="524" y2="604.00" stroke="#292929"/>
<path d="M388.00,601.17 L389.07,602.93 L390.14,604.53 L391.21,605.89 L392.28,606.92 L393.35,607.60 L394.43,607.91 L395.50,607.86 L396.57,607.52 L397.64,606.94 L398.71,606.23 L399.78,605.49 L400.85,595.36 L401.92,595.65 L402.99,595.73 L404.06,595.54 L405.13,595.03 L406.20,594.19 L407.28,593.04 L408.35,591.61 L409.42,589.99 L410.49,588.26 L411.56,586.53 L412.63,584.92 L413.70,583.40 L414.77,582.30 L415.84,581.56 L416.91,581.22 L417.98,581.29 L419.06,581.74 L420.13,582.52 L421.20,583.54 L422.27,584.71 L423.34,585.93 L424.41,587.09 L425.48,588.09 L426.55,608.57 L427.62,609.47 L428.69,610.60 L429.76,611.85 L430.83,613.12 L431.91,614.32 L432.98,615.33 L434.05,616.07 L435.12,616.47 L436.19,616.49 L437.26,616.12 L438.33,615.38 L439.40,585.41 L440.47,586.22 L441.54,587.41 L442.61,588.93 L443.69,590.71 L444.76,592.66 L445.83,594.66 L446.90,596.61 L447.97,598.41 L449.04,599.97 L450.11,601.23 L451.18,602.14 L452.25,602.69 L453.32,602.92 L454.39,602.88 L455.46,602.63 L456.54,602.28 L457.61,601.93 L458.68,601.69 L459.75,601.64 L460.82,601.87 L461.89,602.43 L462.96,603.34 L464.03,604.59 L465.10,606.15 L466.17,607.95 L467.24,609.91 L468.31,611.91 L469.39,613.85 L470.46,615.64 L471.53,617.16 L472.60,618.35 L473.67,619.16 L474.74,619.57 L475.81,619.61 L476.88,619.30 L477.95,618.73 L479.02,617.98 L480.09,617.16 L481.17,616.37 L482.24,615.71 L483.31,615.26 L484.38,615.10 L485.45,615.25 L486.52,615.72 L487.59,616.48 L488.66,617.48 L489.73,618.63 L490.80,619.85 L491.87,621.03 L492.94,622.05 L494.02,622.82 L495.09,623.27 L496.16,623.34 L497.23,623.00 L498.30,622.27 L499.37,621.16 L500.44,619.76 L501.51,618.15 L502.58,616.42 L503.65,598.43 L504.72,596.70 L505.80,595.04 L506.87,593.54 L507.94,592.29 L509.01,591.37 L510.08,590.81 L511.15,590.63 L512.22,590.79 L513.29,591.27 L514.36,591.98 L515.43,592.83 L516.50,610.55 L517.57,610.41 L518.65,609.92 L519.72,609.07 L520.79,607.84 L521.86,606.27 L522.93,604.41 L524.00,602.34" fill="none" stroke="#e0e0e0" stroke-width="1.4"/>
<text x="387" y="542" fill="#666" font-family="monospace" font-size="9">15</text>
<rect x="532" y="528" width="152" height="152" fill="#0b0b0b" stroke="#444"/>
<line x1="540" y1="604.00" x2="676" y2="604.00" stroke="#292929"/>
<path d="M540.00,601.10 L541.07,603.35 L542.14,605.41 L543.21,607.15 L544.28,608.48 L545.35,609.35 L546.43,609.74 L547.50,609.68 L548.57,609.23 L549.64,608.50 L550.71,607.58 L551.78,606.63 L552.85,601.24 L553.92,601.72 L554.99,602.06 L556.06,602.16 L557.13,601.93 L558.20,601.29 L559.28,600.23 L560.35,598.74 L561.42,596.88 L562.49,594.74 L563.56,592.40 L564.63,590.01 L565.70,578.32 L566.77,576.92 L567.84,575.98 L568.91,575.56 L569.98,575.65 L571.06,576.23 L572.13,577.23 L573.20,578.54 L574.27,580.04 L575.34,581.60 L576.41,583.08 L577.48,584.35 L578.55,610.59 L579.62,611.75 L580.69,613.18 L581.76,614.79 L582.83,616.42 L583.91,617.96 L584.98,619.25 L586.05,620.20 L587.12,620.72 L588.19,620.74 L589.26,620.27 L590.33,619.31 L591.40,580.85 L592.47,581.74 L593.54,583.11 L594.61,584.90 L595.69,587.01 L596.76,589.33 L597.83,591.71 L598.90,594.02 L599.97,596.14 L601.04,597.94 L602.11,599.34 L603.18,600.31 L604.25,603.05 L605.32,603.34 L606.39,603.28 L607.46,602.98 L608.54,602.53 L609.61,602.09 L610.68,601.78 L611.75,601.73 L612.82,602.03 L613.89,602.74 L614.96,603.91 L616.03,605.52 L617.10,607.49 L618.17,609.80 L619.24,612.30 L620.31,614.87 L621.39,617.36 L622.46,619.64 L623.53,621.60 L624.60,623.12 L625.67,624.16 L626.74,624.69 L627.81,624.74 L628.88,624.35 L629.95,608.85 L631.02,608.04 L632.09,607.35 L633.17,606.86 L634.24,606.69 L635.31,606.87 L636.38,607.45 L637.45,608.42 L638.52,609.73 L639.59,611.31 L640.66,613.05 L641.73,614.85 L642.80,625.05 L643.87,626.55 L644.94,627.86 L646.02,628.86 L647.09,629.43 L648.16,629.52 L649.23,629.09 L650.30,628.14 L651.37,626.73 L652.44,624.93 L653.51,622.87 L654.58,620.66 L655.65,593.70 L656.72,591.46 L657.80,589.27 L658.87,587.26 L659.94,585.57 L661.01,584.29 L662.08,583.49 L663.15,583.18 L664.22,583.37 L665.29,584.00 L666.36,584.98 L667.43,586.21 L668.50,613.13 L669.57,612.94 L670.65,612.32 L671.72,611.22 L672.79,609.65 L673.86,607.64 L674.93,605.27 L676.00,602.63" fill="none" stroke="#e0e0e0" stroke-width="1.4"/>
<text x="539" y="542" fill="#666" font-family="monospace" font-size="9">16</text>
</svg>
