<svg xmlns="http://www.w3.org/2000/svg" width="760" height="760" viewBox="0 0 760 760">
<rect width="760" height="760" fill="#161616"/>
<text x="24" y="32" fill="#dedede" font-family="monospace" font-size="15">S3G VOT / GLITCH / PCM</text>
<text x="684" y="724" text-anchor="end" fill="#858585" font-family="monospace" font-size="11">U / DATA CORRUPTION</text>
<text x="24" y="72" fill="#858585" font-family="monospace" font-size="11">V / BIT PATTERN FAMILY</text>
<text x="76" y="724" fill="#858585" font-family="monospace" font-size="11">ENERGY / LEVEL MATCHED</text>
<rect x="76" y="72" width="152" height="152" fill="#0b0b0b" stroke="#444"/>
<line x1="84" y1="148.00" x2="220" y2="148.00" stroke="#292929"/>
<path d="M84.00,146.49 L85.07,149.69 L86.14,148.77 L87.21,147.85 L88.28,142.02 L89.35,141.11 L90.43,140.22 L91.50,139.34 L92.57,145.63 L93.64,144.78 L94.71,143.96 L95.78,143.15 L96.85,131.54 L97.92,130.78 L98.99,130.05 L100.06,129.35 L101.13,142.00 L102.20,141.36 L103.28,140.75 L104.35,140.18 L105.42,126.23 L106.49,125.73 L107.56,125.27 L108.63,124.86 L109.70,135.69 L110.77,135.36 L111.84,135.07 L112.91,134.82 L113.98,122.11 L115.06,121.95 L116.13,121.84 L117.20,121.77 L118.27,136.14 L119.34,136.16 L120.41,136.23 L121.48,136.35 L122.55,124.23 L123.62,124.43 L124.69,124.68 L125.76,124.97 L126.83,136.61 L127.91,136.98 L128.98,137.40 L130.05,137.86 L131.12,124.39 L132.19,124.93 L133.26,125.50 L134.33,126.10 L135.40,142.44 L136.47,143.12 L137.54,143.82 L138.61,144.55 L139.69,129.98 L140.76,130.76 L141.83,131.57 L142.90,132.40 L143.97,149.25 L145.04,145.99 L146.11,146.87 L147.18,147.76 L148.25,140.69 L149.32,141.61 L150.39,142.53 L151.46,143.45 L152.54,147.99 L153.61,144.78 L154.68,145.71 L155.75,146.63 L156.82,155.71 L157.89,156.62 L158.96,157.51 L160.03,158.39 L161.10,150.99 L162.17,151.84 L163.24,152.67 L164.31,153.47 L165.39,164.10 L166.46,164.86 L167.53,165.59 L168.60,166.29 L169.67,153.67 L170.74,154.31 L171.81,154.91 L172.88,155.48 L173.95,169.56 L175.02,170.06 L176.09,170.51 L177.17,170.93 L178.24,160.19 L179.31,160.52 L180.38,160.81 L181.45,161.06 L182.52,173.65 L183.59,173.81 L184.66,173.92 L185.73,173.99 L186.80,162.96 L187.87,162.94 L188.94,162.87 L190.02,162.75 L191.09,173.74 L192.16,173.54 L193.23,173.29 L194.30,173.00 L195.37,157.15 L196.44,156.77 L197.51,156.36 L198.58,155.90 L199.65,167.76 L200.72,167.23 L201.80,166.66 L202.87,166.05 L203.94,156.90 L205.01,156.23 L206.08,155.53 L207.15,154.79 L208.22,163.31 L209.29,162.53 L210.36,161.72 L211.43,160.90 L212.50,147.70 L213.57,150.96 L214.65,150.08 L215.72,149.19 L216.79,155.18 L217.86,154.27 L218.93,153.35 L220.00,152.42" fill="none" stroke="#e0e0e0" stroke-width="1.4"/>
<text x="83" y="86" fill="#666" font-family="monospace" font-size="9">01</text>
<rect x="228" y="72" width="152" height="152" fill="#0b0b0b" stroke="#444"/>
<line x1="236" y1="148.00" x2="372" y2="148.00" stroke="#292929"/>
<path d="M236.00,148.68 L237.07,147.84 L238.14,147.00 L239.21,146.17 L240.28,145.34 L241.35,134.19 L242.43,133.38 L243.50,132.58 L244.57,131.80 L245.64,151.11 L246.71,150.36 L247.78,149.63 L248.85,148.92 L249.92,148.23 L250.99,129.02 L252.06,128.38 L253.13,127.77 L254.20,127.19 L255.28,143.48 L256.35,142.96 L257.42,142.48 L258.49,142.03 L259.56,141.61 L260.63,124.74 L261.70,124.40 L262.77,124.09 L263.84,123.83 L264.91,135.97 L265.98,135.79 L267.06,135.64 L268.13,135.54 L269.20,135.48 L270.27,122.78 L271.34,122.80 L272.41,122.86 L273.48,122.96 L274.55,139.81 L275.62,139.99 L276.69,140.22 L277.76,140.48 L278.83,140.78 L279.91,122.28 L280.98,122.65 L282.05,123.07 L283.12,123.52 L284.19,140.33 L285.26,140.85 L286.33,141.40 L287.40,141.98 L288.47,142.59 L289.54,132.19 L290.61,132.85 L291.69,133.54 L292.76,134.25 L293.83,148.26 L294.90,149.01 L295.97,149.78 L297.04,150.57 L298.11,151.37 L299.18,135.34 L300.25,143.55 L301.32,144.38 L302.39,145.22 L303.46,146.56 L304.54,147.40 L305.61,148.24 L306.68,149.08 L307.75,149.92 L308.82,148.91 L309.89,157.13 L310.96,157.94 L312.03,158.74 L313.10,149.87 L314.17,150.64 L315.24,151.39 L316.31,152.12 L317.39,152.83 L318.46,168.60 L319.53,169.26 L320.60,169.90 L321.67,170.51 L322.74,153.24 L323.81,153.79 L324.88,154.30 L325.95,154.79 L327.02,155.24 L328.09,170.00 L329.17,170.38 L330.24,170.72 L331.31,171.02 L332.38,158.91 L333.45,159.14 L334.52,159.32 L335.59,159.47 L336.66,159.57 L337.73,175.50 L338.80,175.52 L339.87,175.50 L340.94,175.44 L342.02,154.35 L343.09,154.21 L344.16,154.02 L345.23,153.80 L346.30,153.53 L347.37,172.73 L348.44,172.39 L349.51,172.01 L350.58,171.59 L351.65,151.71 L352.72,151.22 L353.80,150.70 L354.87,150.15 L355.94,149.57 L357.01,168.47 L358.08,167.84 L359.15,167.17 L360.22,166.48 L361.29,149.72 L362.36,148.98 L363.43,148.23 L364.50,147.46 L365.57,146.67 L366.65,157.78 L367.72,156.97 L368.79,148.75 L369.86,147.92 L370.93,151.84 L372.00,151.00" fill="none" stroke="#e0e0e0" stroke-width="1.4"/>
<text x="235" y="86" fill="#666" font-family="monospace" font-size="9">02</text>
<rect x="380" y="72" width="152" height="152" fill="#0b0b0b" stroke="#444"/>
<line x1="388" y1="148.00" x2="524" y2="148.00" stroke="#292929"/>
<path d="M388.00,147.59 L389.07,147.23 L390.14,146.87 L391.21,146.51 L392.28,146.15 L393.35,145.79 L394.43,147.88 L395.50,147.53 L396.57,147.19 L397.64,146.86 L398.71,130.86 L399.78,130.54 L400.85,158.66 L401.92,158.36 L402.99,158.07 L404.06,157.80 L405.13,157.54 L406.20,157.28 L407.28,126.90 L408.35,126.68 L409.42,126.47 L410.49,126.28 L411.56,126.10 L412.63,125.93 L413.70,153.99 L414.77,153.86 L415.84,153.75 L416.91,153.65 L417.98,153.57 L419.06,153.51 L420.13,123.19 L421.20,123.16 L422.27,123.15 L423.34,123.16 L424.41,123.19 L425.48,123.23 L426.55,156.61 L427.62,156.69 L428.69,156.78 L429.76,156.90 L430.83,157.03 L431.91,157.18 L432.98,122.93 L434.05,123.11 L435.12,123.31 L436.19,123.52 L437.26,123.74 L438.33,123.98 L439.40,159.63 L440.47,159.90 L441.54,160.17 L442.61,160.46 L443.69,160.75 L444.76,161.06 L445.83,128.72 L446.90,144.72 L447.97,145.05 L449.04,145.39 L450.11,145.74 L451.18,146.09 L452.25,142.94 L453.32,143.30 L454.39,143.66 L455.46,144.02 L456.54,144.38 L457.61,144.74 L458.68,150.45 L459.75,150.81 L460.82,151.16 L461.89,151.52 L462.96,151.87 L464.03,152.21 L465.10,152.55 L466.17,152.89 L467.24,137.53 L468.31,137.85 L469.39,138.15 L470.46,138.45 L471.53,170.54 L472.60,170.81 L473.67,171.07 L474.74,171.33 L475.81,171.56 L476.88,171.79 L477.95,136.71 L479.02,136.90 L480.09,137.08 L481.17,137.25 L482.24,137.39 L483.31,137.52 L484.38,171.63 L485.45,171.73 L486.52,171.81 L487.59,171.87 L488.66,171.91 L489.73,171.94 L490.80,141.91 L491.87,141.90 L492.94,141.88 L494.02,141.83 L495.09,141.77 L496.16,141.69 L497.23,171.85 L498.30,171.74 L499.37,171.61 L500.44,171.46 L501.51,171.30 L502.58,171.12 L503.65,133.98 L504.72,133.77 L505.80,133.54 L506.87,133.31 L507.94,133.06 L509.01,132.79 L510.08,166.15 L511.15,165.87 L512.22,165.57 L513.29,165.26 L514.36,164.95 L515.43,148.94 L516.50,147.55 L517.57,147.21 L518.65,146.87 L519.72,146.52 L520.79,146.16 L521.86,145.81 L522.93,149.88 L524.00,149.52" fill="none" stroke="#e0e0e0" stroke-width="1.4"/>
<text x="387" y="86" fill="#666" font-family="monospace" font-size="9">03</text>
<rect x="532" y="72" width="152" height="152" fill="#0b0b0b" stroke="#444"/>
<line x1="540" y1="148.00" x2="676" y2="148.00" stroke="#292929"/>
<path d="M540.00,133.37 L541.07,161.60 L542.14,161.43 L543.21,161.26 L544.28,161.09 L545.35,160.92 L546.43,160.76 L547.50,133.30 L548.57,133.14 L549.64,132.99 L550.71,132.84 L551.78,132.69 L552.85,132.55 L553.92,132.41 L554.99,160.47 L556.06,160.34 L557.13,160.22 L558.20,160.10 L559.28,159.99 L560.35,159.88 L561.42,159.79 L562.49,127.96 L563.56,127.88 L564.63,127.80 L565.70,127.73 L566.77,127.67 L567.84,127.62 L568.91,127.57 L569.98,156.00 L571.06,155.97 L572.13,155.95 L573.20,155.93 L574.27,155.93 L575.34,155.93 L576.41,155.95 L577.48,129.99 L578.55,130.02 L579.62,130.06 L580.69,130.10 L581.76,130.15 L582.83,130.22 L583.91,130.28 L584.98,156.49 L586.05,156.57 L587.12,156.67 L588.19,156.76 L589.26,156.87 L590.33,156.98 L591.40,157.10 L592.47,132.90 L593.54,133.03 L594.61,133.17 L595.69,133.31 L596.76,133.45 L597.83,133.60 L598.90,133.75 L599.97,162.82 L601.04,162.98 L602.11,163.14 L603.18,163.30 L604.25,163.47 L605.32,163.64 L606.39,163.80 L607.46,131.97 L608.54,132.14 L609.61,160.70 L610.68,160.87 L611.75,161.04 L612.82,161.21 L613.89,161.37 L614.96,130.74 L616.03,130.90 L617.10,131.06 L618.17,131.22 L619.24,131.37 L620.31,131.52 L621.39,131.66 L622.46,162.94 L623.53,163.08 L624.60,163.21 L625.67,163.33 L626.74,163.45 L627.81,163.56 L628.88,163.66 L629.95,135.02 L631.02,135.11 L632.09,135.20 L633.17,135.28 L634.24,135.34 L635.31,135.41 L636.38,135.46 L637.45,161.47 L638.52,161.50 L639.59,161.53 L640.66,161.55 L641.73,161.57 L642.80,161.57 L643.87,161.57 L644.94,134.08 L646.02,134.06 L647.09,134.03 L648.16,134.00 L649.23,133.95 L650.30,133.90 L651.37,133.84 L652.44,166.36 L653.51,166.29 L654.58,166.20 L655.65,166.11 L656.72,166.02 L657.80,165.91 L658.87,165.80 L659.94,137.45 L661.01,137.33 L662.08,137.20 L663.15,137.06 L664.22,136.92 L665.29,136.78 L666.36,136.63 L667.43,165.53 L668.50,165.37 L669.57,165.22 L670.65,165.05 L671.72,164.89 L672.79,164.72 L673.86,164.56 L674.93,135.13 L676.00,134.96" fill="none" stroke="#e0e0e0" stroke-width="1.4"/>
<text x="539" y="86" fill="#666" font-family="monospace" font-size="9">04</text>
<rect x="76" y="224" width="152" height="152" fill="#0b0b0b" stroke="#444"/>
<line x1="84" y1="300.00" x2="220" y2="300.00" stroke="#292929"/>
<path d="M84.00,298.70 L85.07,300.99 L86.14,300.07 L87.21,299.15 L88.28,298.24 L89.35,300.69 L90.43,299.80 L91.50,302.13 L92.57,301.27 L93.64,282.93 L94.71,282.10 L95.78,281.30 L96.85,280.52 L97.92,279.76 L98.99,283.31 L100.06,285.83 L101.13,285.16 L102.20,284.52 L103.28,282.83 L104.35,285.47 L105.42,284.94 L106.49,284.45 L107.56,283.99 L108.63,286.39 L109.70,286.01 L110.77,285.68 L111.84,285.39 L112.91,281.59 L113.98,278.18 L115.06,278.02 L116.13,277.91 L117.20,277.84 L118.27,273.03 L119.34,273.05 L120.41,273.12 L121.48,273.24 L122.55,288.68 L123.62,285.67 L124.69,285.92 L125.76,286.21 L126.83,286.54 L127.91,289.86 L128.98,290.27 L130.05,290.73 L131.12,291.22 L132.19,279.41 L133.26,283.18 L134.33,283.79 L135.40,284.42 L136.47,285.09 L137.54,285.37 L138.61,286.10 L139.69,286.86 L140.76,287.64 L141.83,292.52 L142.90,293.34 L143.97,294.18 L145.04,295.05 L146.11,292.71 L147.18,293.63 L148.25,294.53 L149.32,295.44 L150.39,296.35 L151.46,300.40 L152.54,301.32 L153.61,305.45 L154.68,306.37 L155.75,307.29 L156.82,306.70 L157.89,307.61 L158.96,308.50 L160.03,312.58 L161.10,306.08 L162.17,306.92 L163.24,307.75 L164.31,308.55 L165.39,309.33 L166.46,309.92 L167.53,310.65 L168.60,314.56 L169.67,315.23 L170.74,312.49 L171.81,313.09 L172.88,316.87 L173.95,317.40 L175.02,317.89 L176.09,326.08 L177.17,326.49 L178.24,326.87 L179.31,327.20 L180.38,312.00 L181.45,312.24 L182.52,309.23 L183.59,309.39 L184.66,309.51 L185.73,306.71 L186.80,306.73 L187.87,306.71 L188.94,306.64 L190.02,331.39 L191.09,331.23 L192.16,327.82 L193.23,327.58 L194.30,327.29 L195.37,318.19 L196.44,317.81 L197.51,317.40 L198.58,316.94 L199.65,311.24 L200.72,310.70 L201.80,313.35 L202.87,312.74 L203.94,312.11 L205.01,308.28 L206.08,304.38 L207.15,303.65 L208.22,302.89 L209.29,318.18 L210.36,317.37 L211.43,316.55 L212.50,315.71 L213.57,314.84 L214.65,304.28 L215.72,303.39 L216.79,302.49 L217.86,301.58 L218.93,302.78 L220.00,301.86" fill="none" stroke="#e0e0e0" stroke-width="1.4"/>
<text x="83" y="238" fill="#666" font-family="monospace" font-size="9">05</text>
<rect x="228" y="224" width="152" height="152" fill="#0b0b0b" stroke="#444"/>
<line x1="236" y1="300.00" x2="372" y2="300.00" stroke="#292929"/>
<path d="M236.00,300.53 L237.07,299.62 L238.14,298.72 L239.21,297.81 L240.28,303.14 L241.35,302.26 L242.43,294.43 L243.50,293.57 L244.57,292.72 L245.64,291.89 L246.71,291.08 L247.78,289.35 L248.85,288.59 L249.92,287.84 L250.99,287.13 L252.06,286.44 L253.13,285.78 L254.20,277.86 L255.28,277.26 L256.35,276.70 L257.42,276.18 L258.49,275.69 L259.56,286.53 L260.63,286.12 L261.70,285.75 L262.77,285.42 L263.84,285.14 L264.91,291.12 L265.98,296.53 L267.06,296.38 L268.13,296.27 L269.20,296.20 L270.27,296.18 L271.34,274.73 L272.41,274.80 L273.48,274.91 L274.55,275.07 L275.62,275.27 L276.69,281.74 L277.76,281.62 L278.83,281.94 L279.91,282.31 L280.98,282.72 L282.05,283.17 L283.12,291.92 L284.19,292.44 L285.26,293.00 L286.33,293.60 L287.40,294.22 L288.47,294.88 L289.54,297.83 L290.61,298.54 L291.69,299.29 L292.76,300.05 L293.83,300.85 L294.90,282.48 L295.97,283.31 L297.04,284.15 L298.11,285.02 L299.18,285.89 L300.25,286.78 L301.32,298.21 L302.39,299.12 L303.46,300.02 L304.54,300.93 L305.61,301.84 L306.68,307.24 L307.75,308.14 L308.82,302.81 L309.89,303.70 L310.96,304.58 L312.03,305.44 L313.10,295.41 L314.17,296.25 L315.24,297.06 L316.31,297.85 L317.39,298.62 L318.46,322.95 L319.53,323.67 L320.60,324.36 L321.67,325.02 L322.74,325.64 L323.81,326.24 L324.88,315.74 L325.95,316.27 L327.02,316.75 L328.09,317.20 L329.17,317.61 L330.24,307.40 L331.31,307.73 L332.38,308.01 L333.45,302.03 L334.52,302.23 L335.59,302.38 L336.66,301.45 L337.73,301.52 L338.80,301.54 L339.87,301.52 L340.94,301.45 L342.02,338.21 L343.09,338.05 L344.16,337.86 L345.23,331.39 L346.30,331.10 L347.37,330.78 L348.44,319.00 L349.51,318.59 L350.58,318.15 L351.65,317.66 L352.72,317.14 L353.80,314.02 L354.87,313.42 L355.94,312.80 L357.01,312.14 L358.08,311.45 L359.15,310.73 L360.22,298.66 L361.29,297.89 L362.36,297.10 L363.43,296.29 L364.50,295.46 L365.57,316.77 L366.65,315.91 L367.72,315.03 L368.79,314.14 L369.86,307.02 L370.93,306.12 L372.00,299.44" fill="none" stroke="#e0e0e0" stroke-width="1.4"/>
<text x="235" y="238" fill="#666" font-family="monospace" font-size="9">06</text>
<rect x="380" y="224" width="152" height="152" fill="#0b0b0b" stroke="#444"/>
<line x1="388" y1="300.00" x2="524" y2="300.00" stroke="#292929"/>
<path d="M388.00,299.31 L389.07,298.82 L390.14,298.33 L391.21,297.84 L392.28,297.36 L393.35,296.88 L394.43,296.40 L395.50,289.18 L396.57,288.72 L397.64,288.27 L398.71,287.83 L399.78,287.40 L400.85,286.99 L401.92,286.59 L402.99,286.35 L404.06,285.98 L405.13,285.63 L406.20,285.29 L407.28,284.97 L408.35,284.67 L409.42,284.38 L410.49,292.54 L411.56,275.76 L412.63,275.53 L413.70,275.34 L414.77,275.16 L415.84,275.01 L416.91,274.87 L417.98,314.77 L419.06,314.69 L420.13,314.63 L421.20,314.59 L422.27,314.58 L423.34,314.59 L424.41,314.63 L425.48,299.16 L426.55,299.24 L427.62,299.35 L428.69,299.48 L429.76,299.63 L430.83,299.81 L431.91,300.01 L432.98,267.95 L434.05,284.73 L435.12,285.00 L436.19,285.28 L437.26,285.58 L438.33,285.90 L439.40,286.24 L440.47,284.82 L441.54,285.19 L442.61,285.58 L443.69,285.98 L444.76,286.39 L445.83,286.82 L446.90,287.26 L447.97,288.64 L449.04,289.10 L450.11,289.57 L451.18,290.04 L452.25,290.52 L453.32,291.00 L454.39,291.49 L455.46,304.21 L456.54,304.70 L457.61,305.20 L458.68,305.69 L459.75,306.17 L460.82,306.66 L461.89,307.14 L462.96,310.77 L464.03,311.24 L465.10,311.70 L466.17,312.15 L467.24,312.58 L468.31,313.01 L469.39,313.43 L470.46,312.13 L471.53,312.52 L472.60,312.89 L473.67,313.24 L474.74,313.58 L475.81,313.90 L476.88,314.20 L477.95,310.76 L479.02,311.02 L480.09,294.72 L481.17,294.94 L482.24,295.14 L483.31,295.32 L484.38,295.47 L485.45,284.00 L486.52,284.11 L487.59,284.20 L488.66,284.26 L489.73,284.29 L490.80,284.30 L491.87,284.29 L492.94,333.48 L494.02,333.42 L495.09,333.33 L496.16,333.23 L497.23,333.10 L498.30,332.94 L499.37,332.76 L500.44,329.93 L501.51,329.71 L502.58,312.93 L503.65,312.67 L504.72,312.38 L505.80,312.08 L506.87,311.76 L507.94,313.13 L509.01,312.78 L510.08,312.41 L511.15,312.02 L512.22,311.62 L513.29,311.20 L514.36,310.78 L515.43,300.74 L516.50,300.29 L517.57,299.84 L518.65,299.37 L519.72,298.90 L520.79,298.42 L521.86,297.93 L522.93,304.90 L524.00,304.41" fill="none" stroke="#e0e0e0" stroke-width="1.4"/>
<text x="387" y="238" fill="#666" font-family="monospace" font-size="9">07</text>
<rect x="532" y="224" width="152" height="152" fill="#0b0b0b" stroke="#444"/>
<line x1="540" y1="300.00" x2="676" y2="300.00" stroke="#292929"/>
<path d="M540.00,287.44 L541.07,315.44 L542.14,315.22 L543.21,315.01 L544.28,314.79 L545.35,314.58 L546.43,314.37 L547.50,314.17 L548.57,313.19 L549.64,312.99 L550.71,312.80 L551.78,312.61 L552.85,312.43 L553.92,312.25 L554.99,312.08 L556.06,290.57 L557.13,290.41 L558.20,290.26 L559.28,290.12 L560.35,289.99 L561.42,289.86 L562.49,289.75 L563.56,289.64 L564.63,280.41 L565.70,280.32 L566.77,280.25 L567.84,280.18 L568.91,280.12 L569.98,280.07 L571.06,280.04 L572.13,313.24 L573.20,313.22 L574.27,313.22 L575.34,313.22 L576.41,313.24 L577.48,313.26 L578.55,313.30 L579.62,313.35 L580.69,303.74 L581.76,303.81 L582.83,303.89 L583.91,303.98 L584.98,304.07 L586.05,304.18 L587.12,304.30 L588.19,282.18 L589.26,282.32 L590.33,282.46 L591.40,282.61 L592.47,282.76 L593.54,282.93 L594.61,283.10 L595.69,283.27 L596.76,281.24 L597.83,281.43 L598.90,281.62 L599.97,281.82 L601.04,282.02 L602.11,282.23 L603.18,282.44 L604.25,309.14 L605.32,309.35 L606.39,309.57 L607.46,309.78 L608.54,310.00 L609.61,282.00 L610.68,282.22 L611.75,282.43 L612.82,290.27 L613.89,290.49 L614.96,290.69 L616.03,290.90 L617.10,291.10 L618.17,291.30 L619.24,291.49 L620.31,318.67 L621.39,318.86 L622.46,319.03 L623.53,319.20 L624.60,319.37 L625.67,319.53 L626.74,319.67 L627.81,319.82 L628.88,312.52 L629.95,312.65 L631.02,312.76 L632.09,312.87 L633.17,312.97 L634.24,313.05 L635.31,313.13 L636.38,289.03 L637.45,289.09 L638.52,289.14 L639.59,289.17 L640.66,289.20 L641.73,289.22 L642.80,289.22 L643.87,289.22 L644.94,291.69 L646.02,291.67 L647.09,291.63 L648.16,291.58 L649.23,291.53 L650.30,291.46 L651.37,291.38 L652.44,323.94 L653.51,323.84 L654.58,323.73 L655.65,323.62 L656.72,323.49 L657.80,323.36 L658.87,323.22 L659.94,323.07 L661.01,313.26 L662.08,313.09 L663.15,312.92 L664.22,312.74 L665.29,312.56 L666.36,312.37 L667.43,312.18 L668.50,285.72 L669.57,285.51 L670.65,285.31 L671.72,285.10 L672.79,284.89 L673.86,284.68 L674.93,284.46 L676.00,284.24" fill="none" stroke="#e0e0e0" stroke-width="1.4"/>
<text x="539" y="238" fill="#666" font-family="monospace" font-size="9">08</text>
<rect x="76" y="376" width="152" height="152" fill="#0b0b0b" stroke="#444"/>
<line x1="84" y1="452.00" x2="220" y2="452.00" stroke="#292929"/>
<path d="M84.00,446.04 L85.07,447.50 L86.14,446.53 L87.21,445.57 L88.28,444.61 L89.35,443.67 L90.43,445.05 L91.50,444.13 L92.57,443.23 L93.64,442.34 L94.71,441.48 L95.78,449.45 L96.85,448.63 L97.92,447.84 L98.99,447.07 L100.06,446.34 L101.13,445.64 L102.20,441.11 L103.28,440.48 L104.35,439.88 L105.42,439.33 L106.49,438.81 L107.56,431.42 L108.63,430.99 L109.70,430.59 L110.77,430.25 L111.84,432.36 L112.91,432.11 L113.98,425.88 L115.06,425.71 L116.13,425.59 L117.20,425.52 L118.27,425.50 L119.34,431.46 L120.41,431.53 L121.48,431.65 L122.55,431.82 L123.62,432.03 L124.69,432.29 L125.76,422.34 L126.83,422.69 L127.91,423.08 L128.98,423.51 L130.05,426.42 L131.12,444.07 L132.19,444.63 L133.26,445.22 L134.33,445.86 L135.40,444.10 L136.47,444.80 L137.54,440.91 L138.61,441.68 L139.69,442.47 L140.76,443.29 L141.83,444.13 L142.90,450.24 L143.97,451.13 L145.04,452.03 L146.11,452.95 L147.18,453.89 L148.25,454.83 L149.32,450.31 L150.39,451.28 L151.46,452.24 L152.54,453.21 L153.61,451.76 L154.68,454.96 L155.75,455.93 L156.82,456.88 L157.89,457.83 L158.96,458.76 L160.03,459.68 L161.10,455.18 L162.17,456.07 L163.24,456.93 L164.31,457.78 L165.39,458.60 L166.46,461.35 L167.53,462.12 L168.60,462.85 L169.67,463.55 L170.74,466.64 L171.81,467.28 L172.88,466.47 L173.95,467.03 L175.02,467.55 L176.09,470.45 L177.17,470.89 L178.24,469.63 L179.31,469.98 L180.38,472.71 L181.45,472.97 L182.52,473.18 L183.59,473.34 L184.66,465.18 L185.73,465.25 L186.80,465.27 L187.87,465.25 L188.94,465.18 L190.02,471.94 L191.09,471.78 L192.16,471.56 L193.23,471.30 L194.30,468.58 L195.37,468.23 L196.44,465.98 L197.51,465.55 L198.58,467.49 L199.65,466.97 L200.72,466.41 L201.80,475.56 L202.87,474.92 L203.94,471.83 L205.01,471.13 L206.08,470.40 L207.15,469.63 L208.22,465.61 L209.29,464.79 L210.36,463.95 L211.43,463.08 L212.50,462.20 L213.57,460.20 L214.65,459.28 L215.72,458.34 L216.79,457.40 L217.86,456.44 L218.93,455.48 L220.00,451.19" fill="none" stroke="#e0e0e0" stroke-width="1.4"/>
<text x="83" y="390" fill="#666" font-family="monospace" font-size="9">09</text>
<rect x="228" y="376" width="152" height="152" fill="#0b0b0b" stroke="#444"/>
<line x1="236" y1="452.00" x2="372" y2="452.00" stroke="#292929"/>
<path d="M236.00,445.98 L237.07,445.19 L238.14,444.40 L239.21,447.51 L240.28,446.73 L241.35,445.96 L242.43,456.46 L243.50,455.71 L244.57,454.97 L245.64,454.25 L246.71,453.54 L247.78,452.86 L248.85,446.22 L249.92,445.57 L250.99,444.95 L252.06,444.35 L253.13,443.77 L254.20,443.23 L255.28,435.07 L256.35,434.58 L257.42,434.13 L258.49,437.60 L259.56,437.21 L260.63,436.85 L261.70,422.34 L262.77,422.05 L263.84,421.80 L264.91,425.49 L265.98,425.31 L267.06,425.18 L268.13,428.65 L269.20,428.59 L270.27,428.57 L271.34,428.59 L272.41,428.65 L273.48,428.75 L274.55,426.65 L275.62,426.83 L276.69,423.14 L277.76,423.39 L278.83,423.68 L279.91,424.00 L280.98,437.84 L282.05,438.23 L283.12,442.55 L284.19,443.00 L285.26,443.49 L286.33,444.00 L287.40,446.71 L288.47,447.29 L289.54,447.88 L290.61,448.51 L291.69,449.15 L292.76,449.82 L293.83,449.09 L294.90,449.80 L295.97,450.52 L297.04,451.26 L298.11,452.01 L299.18,452.77 L300.25,454.63 L301.32,455.41 L302.39,452.30 L303.46,453.09 L304.54,453.88 L305.61,454.67 L306.68,453.43 L307.75,450.32 L308.82,451.10 L309.89,451.87 L310.96,452.63 L312.03,453.38 L313.10,467.12 L314.17,467.85 L315.24,468.55 L316.31,469.24 L317.39,469.91 L318.46,470.56 L319.53,460.61 L320.60,461.21 L321.67,461.78 L322.74,462.33 L323.81,462.84 L324.88,463.33 L325.95,465.95 L327.02,470.27 L328.09,470.66 L329.17,471.02 L330.24,471.34 L331.31,471.62 L332.38,482.71 L333.45,479.02 L334.52,479.20 L335.59,479.33 L336.66,479.43 L337.73,479.49 L338.80,462.24 L339.87,462.22 L340.94,462.16 L342.02,462.06 L343.09,461.93 L344.16,461.75 L345.23,464.95 L346.30,464.70 L347.37,464.41 L348.44,464.09 L349.51,463.74 L350.58,463.35 L351.65,460.92 L352.72,460.47 L353.80,459.98 L354.87,459.46 L355.94,458.92 L357.01,458.34 L358.08,456.93 L359.15,456.31 L360.22,455.66 L361.29,454.99 L362.36,454.31 L363.43,453.60 L364.50,466.82 L365.57,466.09 L366.65,465.34 L367.72,464.57 L368.79,463.80 L369.86,463.02 L370.93,452.47 L372.00,451.69" fill="none" stroke="#e0e0e0" stroke-width="1.4"/>
<text x="235" y="390" fill="#666" font-family="monospace" font-size="9">10</text>
<rect x="380" y="376" width="152" height="152" fill="#0b0b0b" stroke="#444"/>
<line x1="388" y1="452.00" x2="524" y2="452.00" stroke="#292929"/>
<path d="M388.00,441.69 L389.07,441.28 L390.14,440.88 L391.21,440.47 L392.28,440.07 L393.35,439.67 L394.43,439.28 L395.50,438.89 L396.57,435.72 L397.64,435.35 L398.71,434.98 L399.78,434.63 L400.85,434.28 L401.92,433.95 L402.99,433.63 L404.06,441.78 L405.13,441.48 L406.20,441.20 L407.28,450.82 L408.35,450.57 L409.42,450.33 L410.49,450.12 L411.56,449.91 L412.63,448.99 L413.70,448.82 L414.77,448.68 L415.84,448.55 L416.91,448.44 L417.98,448.35 L419.06,448.28 L420.13,426.83 L421.20,426.80 L422.27,426.79 L423.34,426.80 L424.41,426.83 L425.48,426.88 L426.55,426.95 L427.62,427.04 L428.69,432.97 L429.76,433.10 L430.83,433.25 L431.91,433.41 L432.98,433.60 L434.05,433.80 L435.12,434.02 L436.19,435.40 L437.26,435.65 L438.33,445.80 L439.40,446.08 L440.47,446.38 L441.54,446.68 L442.61,447.01 L443.69,447.34 L444.76,455.74 L445.83,456.10 L446.90,456.46 L447.97,456.83 L449.04,457.21 L450.11,457.60 L451.18,458.00 L452.25,450.09 L453.32,450.49 L454.39,450.90 L455.46,451.30 L456.54,451.71 L457.61,452.12 L458.68,452.53 L459.75,452.93 L460.82,460.69 L461.89,461.09 L462.96,461.49 L464.03,461.87 L465.10,462.25 L466.17,462.63 L467.24,462.99 L468.31,454.08 L469.39,454.43 L470.46,454.76 L471.53,455.09 L472.60,455.39 L473.67,455.69 L474.74,455.97 L475.81,446.35 L476.88,438.02 L477.95,438.25 L479.02,438.47 L480.09,438.67 L481.17,438.85 L482.24,439.02 L483.31,439.17 L484.38,476.69 L485.45,476.80 L486.52,476.89 L487.59,476.96 L488.66,477.01 L489.73,477.04 L490.80,477.05 L491.87,477.04 L492.94,476.17 L494.02,476.12 L495.09,476.05 L496.16,475.96 L497.23,475.86 L498.30,475.73 L499.37,475.58 L500.44,475.00 L501.51,474.82 L502.58,474.62 L503.65,474.40 L504.72,474.16 L505.80,473.91 L506.87,463.76 L507.94,463.48 L509.01,465.20 L510.08,464.89 L511.15,464.57 L512.22,464.24 L513.29,463.89 L514.36,463.54 L515.43,463.17 L516.50,458.56 L517.57,458.18 L518.65,457.79 L519.72,457.40 L520.79,457.00 L521.86,456.60 L522.93,456.19 L524.00,455.78" fill="none" stroke="#e0e0e0" stroke-width="1.4"/>
<text x="387" y="390" fill="#666" font-family="monospace" font-size="9">11</text>
<rect x="532" y="376" width="152" height="152" fill="#0b0b0b" stroke="#444"/>
<line x1="540" y1="452.00" x2="676" y2="452.00" stroke="#292929"/>
<path d="M540.00,433.34 L541.07,455.40 L542.14,455.16 L543.21,454.92 L544.28,454.69 L545.35,454.46 L546.43,454.23 L547.50,454.00 L548.57,453.78 L549.64,468.01 L550.71,467.79 L551.78,467.59 L552.85,467.39 L553.92,467.19 L554.99,467.00 L556.06,466.82 L557.13,466.65 L558.20,465.96 L559.28,465.81 L560.35,465.66 L561.42,465.52 L562.49,465.40 L563.56,465.28 L564.63,465.17 L565.70,465.08 L566.77,464.99 L567.84,465.75 L568.91,465.69 L569.98,465.63 L571.06,465.59 L572.13,465.56 L573.20,465.55 L574.27,465.54 L575.34,465.55 L576.41,429.12 L577.48,429.15 L578.55,429.19 L579.62,429.25 L580.69,429.31 L581.76,429.38 L582.83,429.47 L583.91,429.57 L584.98,429.67 L586.05,436.20 L587.12,436.33 L588.19,436.47 L589.26,436.61 L590.33,436.77 L591.40,436.93 L592.47,437.11 L593.54,437.29 L594.61,429.79 L595.69,429.98 L596.76,430.19 L597.83,430.39 L598.90,430.61 L599.97,430.82 L601.04,431.04 L602.11,431.27 L603.18,431.50 L604.25,440.17 L605.32,440.41 L606.39,440.65 L607.46,440.88 L608.54,441.12 L609.61,463.65 L610.68,463.89 L611.75,464.12 L612.82,433.61 L613.89,433.84 L614.96,434.07 L616.03,434.30 L617.10,434.52 L618.17,434.74 L619.24,434.95 L620.31,435.15 L621.39,435.36 L622.46,449.67 L623.53,449.86 L624.60,450.04 L625.67,450.21 L626.74,450.37 L627.81,450.53 L628.88,450.67 L629.95,450.81 L631.02,454.80 L632.09,454.92 L633.17,455.03 L634.24,455.12 L635.31,455.21 L636.38,455.28 L637.45,455.35 L638.52,455.40 L639.59,455.44 L640.66,441.66 L641.73,441.67 L642.80,441.68 L643.87,441.67 L644.94,441.66 L646.02,441.63 L647.09,441.59 L648.16,441.53 L649.23,476.49 L650.30,476.41 L651.37,476.33 L652.44,476.23 L653.51,476.12 L654.58,476.01 L655.65,475.88 L656.72,475.74 L657.80,475.60 L658.87,467.23 L659.94,467.07 L661.01,466.90 L662.08,466.72 L663.15,466.53 L664.22,466.34 L665.29,466.13 L666.36,465.93 L667.43,457.31 L668.50,457.09 L669.57,456.87 L670.65,456.64 L671.72,456.41 L672.79,456.18 L673.86,455.95 L674.93,455.71 L676.00,455.47" fill="none" stroke="#e0e0e0" stroke-width="1.4"/>
<text x="539" y="390" fill="#666" font-family="monospace" font-size="9">12</text>
<rect x="76" y="528" width="152" height="152" fill="#0b0b0b" stroke="#444"/>
<line x1="84" y1="604.00" x2="220" y2="604.00" stroke="#292929"/>
<path d="M84.00,596.87 L85.07,597.40 L86.14,596.39 L87.21,595.38 L88.28,594.37 L89.35,593.38 L90.43,604.29 L91.50,603.32 L92.57,602.37 L93.64,601.44 L94.71,600.53 L95.78,599.65 L96.85,593.22 L97.92,592.39 L98.99,593.13 L100.06,592.36 L101.13,591.63 L102.20,590.93 L103.28,592.12 L104.35,591.49 L105.42,590.91 L106.49,590.36 L107.56,589.86 L108.63,589.40 L109.70,584.29 L110.77,583.93 L111.84,583.61 L112.91,583.34 L113.98,583.11 L115.06,582.94 L116.13,588.44 L117.20,588.37 L118.27,588.34 L119.34,588.37 L120.41,588.44 L121.48,587.02 L122.55,586.10 L123.62,586.33 L124.69,586.60 L125.76,586.92 L126.83,587.28 L127.91,587.70 L128.98,581.14 L130.05,581.65 L131.12,582.19 L132.19,582.78 L133.26,583.40 L134.33,584.07 L135.40,591.55 L136.47,592.29 L137.54,593.06 L138.61,595.41 L139.69,596.24 L140.76,597.10 L141.83,586.33 L142.90,587.24 L143.97,588.17 L145.04,589.12 L146.11,590.09 L147.18,591.07 L148.25,599.74 L149.32,600.74 L150.39,601.75 L151.46,602.76 L152.54,603.78 L153.61,606.34 L154.68,612.48 L155.75,613.49 L156.82,614.49 L157.89,615.49 L158.96,616.47 L160.03,617.43 L161.10,615.48 L162.17,616.41 L163.24,617.32 L164.31,618.20 L165.39,619.06 L166.46,619.89 L167.53,613.31 L168.60,614.08 L169.67,614.82 L170.74,615.52 L171.81,616.18 L172.88,616.81 L173.95,617.70 L175.02,618.25 L176.09,618.75 L177.17,619.21 L178.24,619.62 L179.31,619.98 L180.38,631.09 L181.45,631.36 L182.52,631.58 L183.59,631.75 L184.66,633.43 L185.73,633.50 L186.80,616.44 L187.87,616.41 L188.94,616.34 L190.02,617.76 L191.09,617.59 L192.16,617.36 L193.23,626.58 L194.30,626.27 L195.37,625.90 L196.44,625.49 L197.51,625.03 L198.58,624.53 L199.65,616.77 L200.72,616.19 L201.80,615.56 L202.87,614.90 L203.94,614.20 L205.01,613.46 L206.08,609.07 L207.15,609.81 L208.22,608.98 L209.29,608.12 L210.36,607.24 L211.43,606.33 L212.50,617.13 L213.57,616.19 L214.65,615.22 L215.72,614.24 L216.79,613.25 L217.86,612.24 L218.93,594.91 L220.00,593.90" fill="none" stroke="#e0e0e0" stroke-width="1.4"/>
<text x="83" y="542" fill="#666" font-family="monospace" font-size="9">13</text>
<rect x="228" y="528" width="152" height="152" fill="#0b0b0b" stroke="#444"/>
<line x1="236" y1="604.00" x2="372" y2="604.00" stroke="#292929"/>
<path d="M236.00,599.88 L237.07,599.01 L238.14,598.14 L239.21,599.89 L240.28,599.03 L241.35,598.18 L242.43,597.33 L243.50,609.10 L244.57,605.66 L245.64,604.87 L246.71,604.08 L247.78,603.32 L248.85,605.20 L249.92,604.49 L250.99,592.87 L252.06,592.20 L253.13,591.57 L254.20,590.97 L255.28,590.40 L256.35,589.86 L257.42,589.36 L258.49,588.32 L259.56,587.89 L260.63,587.49 L261.70,587.14 L262.77,586.83 L263.84,586.55 L264.91,586.32 L265.98,583.88 L267.06,586.35 L268.13,586.24 L269.20,586.18 L270.27,586.16 L271.34,586.18 L272.41,586.24 L273.48,587.75 L274.55,585.28 L275.62,585.47 L276.69,585.71 L277.76,585.98 L278.83,586.30 L279.91,586.65 L280.98,586.06 L282.05,586.49 L283.12,586.96 L284.19,587.46 L285.26,588.00 L286.33,588.57 L287.40,589.17 L288.47,597.40 L289.54,598.06 L290.61,598.75 L291.69,599.47 L292.76,597.59 L293.83,598.35 L294.90,599.13 L295.97,584.98 L297.04,583.17 L298.11,584.00 L299.18,584.85 L300.25,585.70 L301.32,586.56 L302.39,590.05 L303.46,591.82 L304.54,592.69 L305.61,593.57 L306.68,594.44 L307.75,597.92 L308.82,598.79 L309.89,599.64 L310.96,614.84 L312.03,615.67 L313.10,613.87 L314.17,614.67 L315.24,615.45 L316.31,616.21 L317.39,619.57 L318.46,622.15 L319.53,622.84 L320.60,623.50 L321.67,624.14 L322.74,624.74 L323.81,625.31 L324.88,625.85 L325.95,618.00 L327.02,618.47 L328.09,618.90 L329.17,619.29 L330.24,619.65 L331.31,619.96 L332.38,620.24 L333.45,620.45 L334.52,620.64 L335.59,623.41 L336.66,623.52 L337.73,623.58 L338.80,623.60 L339.87,623.58 L340.94,620.12 L342.02,620.02 L343.09,617.25 L344.16,617.06 L345.23,616.82 L346.30,616.55 L347.37,616.23 L348.44,610.87 L349.51,610.48 L350.58,610.05 L351.65,609.58 L352.72,609.07 L353.80,608.54 L354.87,607.97 L355.94,626.44 L357.01,625.81 L358.08,625.14 L359.15,624.45 L360.22,623.74 L361.29,625.62 L362.36,624.86 L363.43,623.53 L364.50,622.73 L365.57,619.30 L366.65,618.47 L367.72,617.63 L368.79,616.77 L369.86,615.91 L370.93,596.23 L372.00,595.36" fill="none" stroke="#e0e0e0" stroke-width="1.4"/>
<text x="235" y="542" fill="#666" font-family="monospace" font-size="9">14</text>
<rect x="380" y="528" width="152" height="152" fill="#0b0b0b" stroke="#444"/>
<line x1="388" y1="604.00" x2="524" y2="604.00" stroke="#292929"/>
<path d="M388.00,594.05 L389.07,593.55 L390.14,593.06 L391.21,592.57 L392.28,592.09 L393.35,591.60 L394.43,591.13 L395.50,590.66 L396.57,590.20 L397.64,596.96 L398.71,596.52 L399.78,596.09 L400.85,595.68 L401.92,595.27 L402.99,594.88 L404.06,601.78 L405.13,601.42 L406.20,596.11 L407.28,595.79 L408.35,595.49 L409.42,595.20 L410.49,594.94 L411.56,594.70 L412.63,594.47 L413.70,594.27 L414.77,594.10 L415.84,584.18 L416.91,584.05 L417.98,583.94 L419.06,583.85 L420.13,583.79 L421.20,583.76 L422.27,583.75 L423.34,583.76 L424.41,593.76 L425.48,593.82 L426.55,593.91 L427.62,594.02 L428.69,594.15 L429.76,594.30 L430.83,594.48 L431.91,594.68 L432.98,594.90 L434.05,612.91 L435.12,613.17 L436.19,613.46 L437.26,613.76 L438.33,614.08 L439.40,614.42 L440.47,614.78 L441.54,607.88 L442.61,582.19 L443.69,582.59 L444.76,583.01 L445.83,583.44 L446.90,583.88 L447.97,584.33 L449.04,584.79 L450.11,585.26 L451.18,585.73 L452.25,592.80 L453.32,593.28 L454.39,593.77 L455.46,594.26 L456.54,594.76 L457.61,595.25 L458.68,595.74 L459.75,596.23 L460.82,610.48 L461.89,610.96 L462.96,611.44 L464.03,611.91 L465.10,612.37 L466.17,612.82 L467.24,613.26 L468.31,613.69 L469.39,614.11 L470.46,624.97 L471.53,625.36 L472.60,633.01 L473.67,633.36 L474.74,633.70 L475.81,634.03 L476.88,634.33 L477.95,634.61 L479.02,606.78 L480.09,607.02 L481.17,607.24 L482.24,607.44 L483.31,607.62 L484.38,607.78 L485.45,607.91 L486.52,608.02 L487.59,608.10 L488.66,604.24 L489.73,604.28 L490.80,604.29 L491.87,604.28 L492.94,604.24 L494.02,604.18 L495.09,604.10 L496.16,603.99 L497.23,632.43 L498.30,632.28 L499.37,632.10 L500.44,631.90 L501.51,631.68 L502.58,631.43 L503.65,631.17 L504.72,630.89 L505.80,630.58 L506.87,607.45 L507.94,607.11 L509.01,606.76 L510.08,599.11 L511.15,598.72 L512.22,598.32 L513.29,597.90 L514.36,597.47 L515.43,620.60 L516.50,620.15 L517.57,619.69 L518.65,619.22 L519.72,618.74 L520.79,618.26 L521.86,617.78 L522.93,617.29 L524.00,616.79" fill="none" stroke="#e0e0e0" stroke-width="1.4"/>
<text x="387" y="542" fill="#666" font-family="monospace" font-size="9">15</text>
<rect x="532" y="528" width="152" height="152" fill="#0b0b0b" stroke="#444"/>
<line x1="540" y1="604.00" x2="676" y2="604.00" stroke="#292929"/>
<path d="M540.00,581.31 L541.07,596.89 L542.14,596.62 L543.21,596.34 L544.28,596.07 L545.35,595.79 L546.43,595.53 L547.50,595.26 L548.57,595.00 L549.64,611.14 L550.71,610.90 L551.78,610.65 L552.85,610.42 L553.92,610.19 L554.99,609.97 L556.06,609.76 L557.13,609.56 L558.20,609.37 L559.28,609.54 L560.35,609.37 L561.42,609.21 L562.49,609.06 L563.56,608.92 L564.63,608.80 L565.70,608.69 L566.77,608.59 L567.84,608.50 L568.91,591.60 L569.98,591.54 L571.06,591.50 L572.13,591.46 L573.20,591.44 L574.27,591.43 L575.34,591.44 L576.41,591.46 L577.48,591.50 L578.55,604.86 L579.62,604.93 L580.69,605.00 L581.76,605.09 L582.83,605.19 L583.91,605.30 L584.98,605.42 L586.05,605.56 L587.12,605.71 L588.19,593.73 L589.26,593.90 L590.33,594.08 L591.40,594.28 L592.47,594.48 L593.54,594.69 L594.61,594.91 L595.69,595.13 L596.76,595.37 L597.83,592.93 L598.90,593.18 L599.97,593.43 L601.04,593.69 L602.11,593.96 L603.18,594.22 L604.25,594.49 L605.32,594.77 L606.39,595.04 L607.46,586.01 L608.54,586.29 L609.61,570.71 L610.68,570.99 L611.75,571.26 L612.82,571.54 L613.89,571.81 L614.96,572.07 L616.03,572.34 L617.10,618.06 L618.17,618.31 L619.24,618.56 L620.31,618.80 L621.39,619.04 L622.46,619.27 L623.53,619.48 L624.60,619.70 L625.67,619.90 L626.74,610.11 L627.81,610.29 L628.88,610.46 L629.95,610.62 L631.02,610.77 L632.09,610.90 L633.17,611.03 L634.24,611.14 L635.31,611.24 L636.38,625.74 L637.45,625.81 L638.52,625.87 L639.59,625.92 L640.66,625.95 L641.73,625.97 L642.80,625.98 L643.87,625.97 L644.94,625.95 L646.02,629.10 L647.09,629.06 L648.16,629.00 L649.23,628.92 L650.30,628.83 L651.37,628.73 L652.44,628.62 L653.51,628.50 L654.58,628.36 L655.65,610.54 L656.72,610.38 L657.80,610.20 L658.87,610.02 L659.94,609.83 L661.01,609.63 L662.08,609.42 L663.15,609.20 L664.22,608.97 L665.29,592.55 L666.36,592.31 L667.43,592.06 L668.50,591.81 L669.57,591.55 L670.65,591.29 L671.72,591.02 L672.79,590.75 L673.86,590.47 L674.93,589.55 L676.00,589.28" fill="none" stroke="#e0e0e0" stroke-width="1.4"/>
<text x="539" y="542" fill="#666" font-family="monospace" font-size="9">16</text>
</svg>
