<svg xmlns="http://www.w3.org/2000/svg" width="760" height="760" viewBox="0 0 760 760">
<rect width="760" height="760" fill="#161616"/>
<text x="24" y="32" fill="#dedede" font-family="monospace" font-size="15">S3G VOT / VOCAL / CHOIR</text>
<text x="684" y="724" text-anchor="end" fill="#858585" font-family="monospace" font-size="11">U / STRAIN</text>
<text x="24" y="72" fill="#858585" font-family="monospace" font-size="11">V / VOWEL FAMILY</text>
<text x="76" y="724" fill="#858585" font-family="monospace" font-size="11">ENERGY / LEVEL MATCHED</text>
<rect x="76" y="72" width="152" height="152" fill="#0b0b0b" stroke="#444"/>
<line x1="84" y1="148.00" x2="220" y2="148.00" stroke="#292929"/>
<path d="M84.00,148.00 L85.07,143.51 L86.14,140.53 L87.21,139.79 L88.28,140.86 L89.35,142.40 L90.43,142.83 L91.50,141.18 L92.57,137.57 L93.64,133.18 L94.71,129.60 L95.78,128.07 L96.85,128.78 L97.92,130.81 L98.99,132.61 L100.06,132.77 L101.13,130.81 L102.20,127.37 L103.28,123.91 L104.35,121.97 L105.42,122.33 L106.49,124.65 L107.56,127.60 L108.63,129.60 L109.70,129.59 L110.77,127.61 L111.84,124.76 L112.91,122.64 L113.98,122.51 L115.06,124.63 L116.13,128.14 L117.20,131.49 L118.27,133.25 L119.34,132.82 L120.41,130.78 L121.48,128.55 L122.55,127.68 L123.62,129.01 L124.69,132.27 L125.76,136.19 L126.83,139.15 L127.91,140.05 L128.98,138.85 L130.05,136.57 L131.12,134.83 L132.19,134.91 L133.26,137.17 L134.33,140.82 L135.40,144.33 L136.47,146.23 L137.54,145.87 L138.61,143.75 L139.69,141.27 L140.76,139.99 L141.83,140.85 L142.90,143.63 L143.97,147.14 L145.04,149.76 L146.11,150.34 L147.18,148.77 L148.25,146.03 L149.32,143.71 L150.39,143.17 L151.46,144.84 L152.54,148.00 L153.61,151.16 L154.68,152.83 L155.75,152.29 L156.82,149.97 L157.89,147.23 L158.96,145.66 L160.03,146.24 L161.10,148.86 L162.17,152.37 L163.24,155.15 L164.31,156.01 L165.39,154.73 L166.46,152.25 L167.53,150.13 L168.60,149.77 L169.67,151.67 L170.74,155.18 L171.81,158.83 L172.88,161.09 L173.95,161.17 L175.02,159.43 L176.09,157.15 L177.17,155.95 L178.24,156.85 L179.31,159.81 L180.38,163.73 L181.45,166.99 L182.52,168.32 L183.59,167.45 L184.66,165.22 L185.73,163.18 L186.80,162.75 L187.87,164.51 L188.94,167.86 L190.02,171.37 L191.09,173.49 L192.16,173.36 L193.23,171.24 L194.30,168.39 L195.37,166.41 L196.44,166.40 L197.51,168.40 L198.58,171.35 L199.65,173.67 L200.72,174.03 L201.80,172.09 L202.87,168.63 L203.94,165.19 L205.01,163.23 L206.08,163.39 L207.15,165.19 L208.22,167.22 L209.29,167.93 L210.36,166.40 L211.43,162.82 L212.50,158.43 L213.57,154.82 L214.65,153.17 L215.72,153.60 L216.79,155.14 L217.86,156.21 L218.93,155.47 L220.00,152.49" fill="none" stroke="#e0e0e0" stroke-width="1.4"/>
<text x="83" y="86" fill="#666" font-family="monospace" font-size="9">01</text>
<rect x="228" y="72" width="152" height="152" fill="#0b0b0b" stroke="#444"/>
<line x1="236" y1="148.00" x2="372" y2="148.00" stroke="#292929"/>
<path d="M236.00,144.92 L237.07,140.53 L238.14,137.64 L239.21,137.00 L240.28,138.17 L241.35,139.81 L242.43,140.36 L243.50,138.84 L244.57,135.38 L245.64,131.14 L246.71,127.72 L247.78,126.34 L248.85,127.20 L249.92,129.37 L250.99,131.32 L252.06,131.64 L253.13,129.84 L254.20,126.56 L255.28,123.28 L256.35,121.50 L257.42,122.01 L258.49,124.46 L259.56,127.54 L260.63,129.67 L261.70,129.79 L262.77,127.94 L263.84,125.22 L264.91,123.21 L265.98,123.18 L267.06,125.38 L268.13,128.97 L269.20,132.39 L270.27,134.20 L271.34,133.83 L272.41,131.85 L273.48,129.67 L274.55,128.83 L275.62,130.19 L276.69,133.45 L277.76,137.37 L278.83,140.32 L279.91,141.22 L280.98,140.01 L282.05,137.74 L283.12,135.98 L284.19,136.05 L285.26,138.29 L286.33,141.90 L287.40,145.38 L288.47,147.25 L289.54,146.87 L290.61,144.75 L291.69,142.26 L292.76,140.98 L293.83,141.83 L294.90,144.60 L295.97,148.10 L297.04,150.73 L298.11,151.33 L299.18,149.79 L300.25,147.10 L301.32,144.83 L302.39,144.35 L303.46,146.07 L304.54,149.29 L305.61,152.38 L306.68,154.00 L307.75,153.42 L308.82,151.07 L309.89,148.32 L310.96,146.73 L312.03,147.30 L313.10,149.91 L314.17,153.40 L315.24,156.18 L316.31,157.04 L317.39,155.78 L318.46,153.33 L319.53,151.24 L320.60,150.90 L321.67,152.81 L322.74,156.32 L323.81,159.98 L324.88,162.25 L325.95,162.34 L327.02,160.61 L328.09,158.35 L329.17,157.15 L330.24,158.04 L331.31,160.98 L332.38,164.85 L333.45,168.07 L334.52,169.37 L335.59,168.45 L336.66,166.18 L337.73,164.09 L338.80,163.59 L339.87,165.26 L340.94,168.51 L342.02,171.92 L343.09,173.93 L344.16,173.68 L345.23,171.45 L346.30,168.49 L347.37,166.38 L348.44,166.24 L349.51,168.09 L350.58,170.88 L351.65,173.04 L352.72,173.25 L353.80,171.16 L354.87,167.56 L355.94,163.97 L357.01,161.86 L358.08,161.87 L359.15,163.51 L360.22,165.39 L361.29,165.95 L362.36,164.28 L363.43,160.58 L364.50,156.07 L365.57,152.35 L366.65,150.60 L367.72,150.92 L368.79,152.35 L369.86,153.33 L370.93,152.50 L372.00,149.45" fill="none" stroke="#e0e0e0" stroke-width="1.4"/>
<text x="235" y="86" fill="#666" font-family="monospace" font-size="9">02</text>
<rect x="380" y="72" width="152" height="152" fill="#0b0b0b" stroke="#444"/>
<line x1="388" y1="148.00" x2="524" y2="148.00" stroke="#292929"/>
<path d="M388.00,141.60 L389.07,137.37 L390.14,134.63 L391.21,134.11 L392.28,135.38 L393.35,137.14 L394.43,137.82 L395.50,136.46 L396.57,133.19 L397.64,129.16 L398.71,125.94 L399.78,124.74 L400.85,125.75 L401.92,128.06 L402.99,130.14 L404.06,130.63 L405.13,129.01 L406.20,125.94 L407.28,122.86 L408.35,121.26 L409.42,121.91 L410.49,124.48 L411.56,127.67 L412.63,129.90 L413.70,130.15 L414.77,128.44 L415.84,125.87 L416.91,124.00 L417.98,124.07 L419.06,126.33 L420.13,129.95 L421.20,133.40 L422.27,135.25 L423.34,134.94 L424.41,133.03 L425.48,130.93 L426.55,130.13 L427.62,131.50 L428.69,134.74 L429.76,138.61 L430.83,141.54 L431.91,142.42 L432.98,141.23 L434.05,138.98 L435.12,137.25 L436.19,137.30 L437.26,139.50 L438.33,143.06 L439.40,146.48 L440.47,148.32 L441.54,147.95 L442.61,145.85 L443.69,143.40 L444.76,142.15 L445.83,142.99 L446.90,145.75 L447.97,149.23 L449.04,151.86 L450.11,152.49 L451.18,151.02 L452.25,148.42 L453.32,146.25 L454.39,145.85 L455.46,147.63 L456.54,150.90 L457.61,153.89 L458.68,155.43 L459.75,154.82 L460.82,152.47 L461.89,149.73 L462.96,148.15 L464.03,148.70 L465.10,151.26 L466.17,154.71 L467.24,157.45 L468.31,158.30 L469.39,157.07 L470.46,154.65 L471.53,152.60 L472.60,152.27 L473.67,154.17 L474.74,157.64 L475.81,161.25 L476.88,163.49 L477.95,163.58 L479.02,161.86 L480.09,159.62 L481.17,158.41 L482.24,159.26 L483.31,162.13 L484.38,165.92 L485.45,169.04 L486.52,170.26 L487.59,169.30 L488.66,166.98 L489.73,164.83 L490.80,164.25 L491.87,165.80 L492.94,168.90 L494.02,172.15 L495.09,174.01 L496.16,173.64 L497.23,171.30 L498.30,168.23 L499.37,166.01 L500.44,165.71 L501.51,167.38 L502.58,169.97 L503.65,171.94 L504.72,171.98 L505.80,169.76 L506.87,166.04 L507.94,162.34 L509.01,160.09 L510.08,159.94 L511.15,161.40 L512.22,163.10 L513.29,163.51 L514.36,161.72 L515.43,157.94 L516.50,153.36 L517.57,149.57 L518.65,147.72 L519.72,147.93 L520.79,149.25 L521.86,150.12 L522.93,149.22 L524.00,146.14" fill="none" stroke="#e0e0e0" stroke-width="1.4"/>
<text x="387" y="86" fill="#666" font-family="monospace" font-size="9">03</text>
<rect x="532" y="72" width="152" height="152" fill="#0b0b0b" stroke="#444"/>
<line x1="540" y1="148.00" x2="676" y2="148.00" stroke="#292929"/>
<path d="M540.00,138.13 L541.07,134.13 L542.14,131.59 L543.21,131.21 L544.28,132.60 L545.35,134.45 L546.43,135.27 L547.50,134.11 L548.57,131.09 L549.64,127.33 L550.71,124.37 L551.78,123.37 L552.85,124.52 L553.92,126.94 L554.99,129.14 L556.06,129.79 L557.13,128.38 L558.20,125.56 L559.28,122.73 L560.35,121.33 L561.42,122.12 L562.49,124.77 L563.56,128.01 L564.63,130.32 L565.70,130.69 L566.77,129.15 L567.84,126.76 L568.91,125.05 L569.98,125.21 L571.06,127.50 L572.13,131.11 L573.20,134.53 L574.27,136.40 L575.34,136.16 L576.41,134.35 L577.48,132.34 L578.55,131.61 L579.62,132.96 L580.69,136.14 L581.76,139.93 L582.83,142.79 L583.91,143.67 L584.98,142.51 L586.05,140.33 L587.12,138.64 L588.19,138.70 L589.26,140.85 L590.33,144.32 L591.40,147.65 L592.47,149.46 L593.54,149.10 L594.61,147.08 L595.69,144.72 L596.76,143.53 L597.83,144.38 L598.90,147.11 L599.97,150.54 L601.04,153.16 L602.11,153.84 L603.18,152.48 L604.25,150.03 L605.32,148.00 L606.39,147.70 L607.46,149.54 L608.54,152.83 L609.61,155.69 L610.68,157.14 L611.75,156.50 L612.82,154.18 L613.89,151.49 L614.96,149.92 L616.03,150.44 L617.10,152.92 L618.17,156.26 L619.24,158.93 L620.31,159.75 L621.39,158.54 L622.46,156.19 L623.53,154.18 L624.60,153.86 L625.67,155.70 L626.74,159.07 L627.81,162.57 L628.88,164.73 L629.95,164.80 L631.02,163.10 L632.09,160.88 L633.17,159.67 L634.24,160.45 L635.31,163.18 L636.38,166.80 L637.45,169.78 L638.52,170.89 L639.59,169.86 L640.66,167.51 L641.73,165.31 L642.80,164.63 L643.87,166.02 L644.94,168.91 L646.02,171.94 L647.09,173.61 L648.16,173.10 L649.23,170.67 L650.30,167.53 L651.37,165.20 L652.44,164.74 L653.51,166.20 L654.58,168.55 L655.65,170.30 L656.72,170.16 L657.80,167.82 L658.87,164.04 L659.94,160.26 L661.01,157.91 L662.08,157.60 L663.15,158.86 L664.22,160.36 L665.29,160.61 L666.36,158.73 L667.43,154.91 L668.50,150.32 L669.57,146.51 L670.65,144.60 L671.72,144.70 L672.79,145.88 L673.86,146.64 L674.93,145.68 L676.00,142.61" fill="none" stroke="#e0e0e0" stroke-width="1.4"/>
<text x="539" y="86" fill="#666" font-family="monospace" font-size="9">04</text>
<rect x="76" y="224" width="152" height="152" fill="#0b0b0b" stroke="#444"/>
<line x1="84" y1="300.00" x2="220" y2="300.00" stroke="#292929"/>
<path d="M84.00,298.70 L85.07,294.69 L86.14,291.89 L87.21,290.56 L88.28,290.51 L89.35,291.18 L90.43,291.81 L91.50,291.73 L92.57,290.54 L93.64,288.27 L94.71,285.34 L95.78,282.49 L96.85,280.46 L97.92,279.82 L98.99,280.75 L100.06,282.99 L101.13,285.90 L102.20,288.66 L103.28,290.53 L104.35,291.07 L105.42,290.28 L106.49,288.56 L107.56,286.59 L108.63,285.13 L109.70,284.72 L110.77,285.53 L111.84,287.31 L112.91,289.43 L113.98,291.12 L115.06,291.69 L116.13,290.76 L117.20,288.40 L118.27,285.09 L119.34,281.60 L120.41,278.72 L121.48,277.05 L122.55,276.82 L123.62,277.79 L124.69,279.40 L125.76,280.88 L126.83,281.58 L127.91,281.14 L128.98,279.65 L130.05,277.57 L131.12,275.64 L132.19,274.64 L133.26,275.11 L134.33,277.19 L135.40,280.60 L136.47,284.67 L137.54,288.60 L138.61,291.66 L139.69,293.45 L140.76,293.98 L141.83,293.69 L142.90,293.28 L143.97,293.47 L145.04,294.78 L146.11,297.31 L147.18,300.77 L148.25,304.49 L149.32,307.67 L150.39,309.64 L151.46,310.04 L152.54,308.94 L153.61,306.85 L154.68,304.54 L155.75,302.79 L156.82,302.15 L157.89,302.82 L158.96,304.52 L160.03,306.65 L161.10,308.47 L162.17,309.33 L163.24,308.93 L164.31,307.38 L165.39,305.20 L166.46,303.16 L167.53,302.03 L168.60,302.33 L169.67,304.20 L170.74,307.31 L171.81,311.01 L172.88,314.47 L173.95,317.02 L175.02,318.28 L176.09,318.33 L177.17,317.62 L178.24,316.87 L179.31,316.78 L180.38,317.85 L181.45,320.14 L182.52,323.30 L183.59,326.63 L184.66,329.35 L185.73,330.76 L186.80,330.53 L187.87,328.78 L188.94,326.02 L190.02,323.03 L191.09,320.55 L192.16,319.14 L193.23,318.91 L194.30,319.57 L195.37,320.48 L196.44,320.91 L197.51,320.25 L198.58,318.22 L199.65,314.99 L200.72,311.12 L201.80,307.41 L202.87,304.61 L203.94,303.26 L205.01,303.45 L206.08,304.85 L207.15,306.78 L208.22,308.47 L209.29,309.25 L210.36,308.81 L211.43,307.26 L212.50,305.10 L213.57,303.07 L214.65,301.86 L215.72,301.93 L216.79,303.33 L217.86,305.64 L218.93,308.17 L220.00,310.10" fill="none" stroke="#e0e0e0" stroke-width="1.4"/>
<text x="83" y="238" fill="#666" font-family="monospace" font-size="9">05</text>
<rect x="228" y="224" width="152" height="152" fill="#0b0b0b" stroke="#444"/>
<line x1="236" y1="300.00" x2="372" y2="300.00" stroke="#292929"/>
<path d="M236.00,295.58 L237.07,291.70 L238.14,289.05 L239.21,287.88 L240.28,288.00 L241.35,288.85 L242.43,289.69 L243.50,289.83 L244.57,288.88 L245.64,286.86 L246.71,284.19 L247.78,281.57 L248.85,279.76 L249.92,279.32 L250.99,280.41 L252.06,282.77 L253.13,285.77 L254.20,288.59 L255.28,290.50 L256.35,291.07 L257.42,290.28 L258.49,288.55 L259.56,286.55 L260.63,285.04 L261.70,284.55 L262.77,285.27 L263.84,286.94 L264.91,288.95 L265.98,290.54 L267.06,291.03 L268.13,290.05 L269.20,287.67 L270.27,284.38 L271.34,280.92 L272.41,278.10 L273.48,276.52 L274.55,276.38 L275.62,277.48 L276.69,279.21 L277.76,280.86 L278.83,281.75 L279.91,281.53 L280.98,280.27 L282.05,278.43 L283.12,276.76 L284.19,275.99 L285.26,276.67 L286.33,278.94 L287.40,282.51 L288.47,286.71 L289.54,290.74 L290.61,293.89 L291.69,295.74 L292.76,296.32 L293.83,296.06 L294.90,295.65 L295.97,295.82 L297.04,297.06 L298.11,299.51 L299.18,302.86 L300.25,306.45 L301.32,309.52 L302.39,311.38 L303.46,311.68 L304.54,310.52 L305.61,308.26 L306.68,305.79 L307.75,303.90 L308.82,303.15 L309.89,303.72 L310.96,305.34 L312.03,307.41 L313.10,309.20 L314.17,310.07 L315.24,309.71 L316.31,308.23 L317.39,306.15 L318.46,304.21 L319.53,303.18 L320.60,303.58 L321.67,305.52 L322.74,308.68 L323.81,312.41 L324.88,315.89 L325.95,318.45 L327.02,319.70 L328.09,319.71 L329.17,318.95 L330.24,318.12 L331.31,317.93 L332.38,318.84 L333.45,320.94 L334.52,323.89 L335.59,326.99 L336.66,329.46 L337.73,330.63 L338.80,330.18 L339.87,328.21 L340.94,325.26 L342.02,322.08 L343.09,319.43 L344.16,317.85 L345.23,317.48 L346.30,318.01 L347.37,318.82 L348.44,319.19 L349.51,318.50 L350.58,316.48 L351.65,313.29 L352.72,309.50 L353.80,305.87 L354.87,303.18 L355.94,301.92 L357.01,302.20 L358.08,303.68 L359.15,305.69 L360.22,307.44 L361.29,308.28 L362.36,307.89 L363.43,306.37 L364.50,304.23 L365.57,302.18 L366.65,300.93 L367.72,300.91 L368.79,302.17 L369.86,304.33 L370.93,306.66 L372.00,308.39" fill="none" stroke="#e0e0e0" stroke-width="1.4"/>
<text x="235" y="238" fill="#666" font-family="monospace" font-size="9">06</text>
<rect x="380" y="224" width="152" height="152" fill="#0b0b0b" stroke="#444"/>
<line x1="388" y1="300.00" x2="524" y2="300.00" stroke="#292929"/>
<path d="M388.00,292.26 L389.07,288.57 L390.14,286.12 L391.21,285.14 L392.28,285.46 L393.35,286.51 L394.43,287.56 L395.50,287.93 L396.57,287.23 L397.64,285.48 L398.71,283.08 L399.78,280.73 L400.85,279.16 L401.92,278.90 L402.99,280.13 L404.06,282.58 L405.13,285.62 L406.20,288.47 L407.28,290.39 L408.35,290.96 L409.42,290.18 L410.49,288.45 L411.56,286.44 L412.63,284.89 L413.70,284.34 L414.77,284.96 L415.84,286.52 L416.91,288.42 L417.98,289.91 L419.06,290.34 L420.13,289.34 L421.20,287.00 L422.27,283.77 L423.34,280.42 L424.41,277.72 L425.48,276.26 L426.55,276.26 L427.62,277.48 L428.69,279.37 L429.76,281.18 L430.83,282.27 L431.91,282.28 L432.98,281.27 L434.05,279.71 L435.12,278.30 L436.19,277.77 L437.26,278.65 L438.33,281.08 L439.40,284.76 L440.47,289.04 L441.54,293.13 L442.61,296.32 L443.69,298.21 L444.76,298.82 L445.83,298.58 L446.90,298.17 L447.97,298.30 L449.04,299.47 L450.11,301.81 L451.18,305.02 L452.25,308.47 L453.32,311.40 L454.39,313.15 L455.46,313.39 L456.54,312.20 L457.61,309.79 L458.68,307.20 L459.75,305.20 L460.82,304.35 L461.89,304.83 L462.96,306.36 L464.03,308.37 L465.10,310.13 L466.17,311.01 L467.24,310.70 L468.31,309.30 L469.39,307.33 L470.46,305.50 L471.53,304.57 L472.60,305.04 L473.67,307.02 L474.74,310.18 L475.81,313.88 L476.88,317.33 L477.95,319.83 L479.02,321.02 L480.09,320.98 L481.17,320.15 L482.24,319.22 L483.31,318.88 L484.38,319.61 L485.45,321.49 L486.52,324.17 L487.59,326.99 L488.66,329.19 L489.73,330.10 L490.80,329.42 L491.87,327.26 L492.94,324.14 L494.02,320.81 L495.09,318.03 L496.16,316.32 L497.23,315.81 L498.30,316.22 L499.37,316.94 L500.44,317.24 L501.51,316.54 L502.58,314.56 L503.65,311.45 L504.72,307.77 L505.80,304.27 L506.87,301.70 L507.94,300.54 L509.01,300.90 L510.08,302.43 L511.15,304.48 L512.22,306.25 L513.29,307.11 L514.36,306.74 L515.43,305.25 L516.50,303.11 L517.57,301.04 L518.65,299.72 L519.72,299.58 L520.79,300.68 L521.86,302.62 L522.93,304.73 L524.00,306.21" fill="none" stroke="#e0e0e0" stroke-width="1.4"/>
<text x="387" y="238" fill="#666" font-family="monospace" font-size="9">07</text>
<rect x="532" y="224" width="152" height="152" fill="#0b0b0b" stroke="#444"/>
<line x1="540" y1="300.00" x2="676" y2="300.00" stroke="#292929"/>
<path d="M540.00,288.82 L541.07,285.39 L542.14,283.19 L543.21,282.44 L544.28,282.96 L545.35,284.21 L546.43,285.46 L547.50,286.07 L548.57,285.64 L549.64,284.17 L550.71,282.07 L551.78,280.00 L552.85,278.67 L553.92,278.59 L554.99,279.93 L556.06,282.42 L557.13,285.46 L558.20,288.28 L559.28,290.18 L560.35,290.75 L561.42,289.98 L562.49,288.27 L563.56,286.28 L564.63,284.71 L565.70,284.11 L566.77,284.65 L567.84,286.10 L568.91,287.88 L569.98,289.29 L571.06,289.68 L572.13,288.71 L573.20,286.46 L574.27,283.38 L575.34,280.20 L576.41,277.68 L577.48,276.40 L578.55,276.54 L579.62,277.91 L580.69,279.94 L581.76,281.91 L582.83,283.19 L583.91,283.44 L584.98,282.71 L586.05,281.43 L587.12,280.30 L588.19,280.01 L589.26,281.08 L590.33,283.62 L591.40,287.36 L592.47,291.65 L593.54,295.73 L594.61,298.91 L595.69,300.81 L596.76,301.43 L597.83,301.21 L598.90,300.80 L599.97,300.89 L601.04,301.98 L602.11,304.19 L603.18,307.23 L604.25,310.52 L605.32,313.29 L606.39,314.94 L607.46,315.12 L608.54,313.95 L609.61,311.43 L610.68,308.77 L611.75,306.70 L612.82,305.78 L613.89,306.16 L614.96,307.61 L616.03,309.54 L617.10,311.24 L618.17,312.12 L619.24,311.86 L620.31,310.56 L621.39,308.71 L622.46,307.01 L623.53,306.17 L624.60,306.68 L625.67,308.65 L626.74,311.75 L627.81,315.35 L628.88,318.67 L629.95,321.06 L631.02,322.16 L632.09,322.03 L633.17,321.10 L634.24,320.06 L635.31,319.56 L636.38,320.08 L637.45,321.69 L638.52,324.06 L639.59,326.57 L640.66,328.45 L641.73,329.10 L642.80,328.20 L643.87,325.87 L644.94,322.63 L646.02,319.21 L647.09,316.33 L648.16,314.52 L649.23,313.91 L650.30,314.21 L651.37,314.83 L652.44,315.08 L653.51,314.38 L654.58,312.47 L655.65,309.48 L656.72,305.96 L657.80,302.62 L658.87,300.19 L659.94,299.13 L661.01,299.54 L662.08,301.09 L663.15,303.11 L664.22,304.87 L665.29,305.71 L666.36,305.34 L667.43,303.85 L668.50,301.71 L669.57,299.61 L670.65,298.21 L671.72,297.93 L672.79,298.82 L673.86,300.52 L674.93,302.35 L676.00,303.56" fill="none" stroke="#e0e0e0" stroke-width="1.4"/>
<text x="539" y="238" fill="#666" font-family="monospace" font-size="9">08</text>
<rect x="76" y="376" width="152" height="152" fill="#0b0b0b" stroke="#444"/>
<line x1="84" y1="452.00" x2="220" y2="452.00" stroke="#292929"/>
<path d="M84.00,449.16 L85.07,445.65 L86.14,442.94 L87.21,441.17 L88.28,440.34 L89.35,440.34 L90.43,440.95 L91.50,441.91 L92.57,442.94 L93.64,443.78 L94.71,444.27 L95.78,444.33 L96.85,443.97 L97.92,443.29 L98.99,442.45 L100.06,441.62 L101.13,440.97 L102.20,440.59 L103.28,440.51 L104.35,440.66 L105.42,440.91 L106.49,441.05 L107.56,440.89 L108.63,440.24 L109.70,438.98 L110.77,437.08 L111.84,434.65 L112.91,431.87 L113.98,429.03 L115.06,426.46 L116.13,424.49 L117.20,423.41 L118.27,423.41 L119.34,424.54 L120.41,426.74 L121.48,429.77 L122.55,433.33 L123.62,437.01 L124.69,440.41 L125.76,443.17 L126.83,445.01 L127.91,445.79 L128.98,445.51 L130.05,444.30 L131.12,442.41 L132.19,440.18 L133.26,437.95 L134.33,436.06 L135.40,434.74 L136.47,434.16 L137.54,434.36 L138.61,435.25 L139.69,436.68 L140.76,438.43 L141.83,440.27 L142.90,442.01 L143.97,443.52 L145.04,444.76 L146.11,445.76 L147.18,446.64 L148.25,447.55 L149.32,448.67 L150.39,450.12 L151.46,451.98 L152.54,454.22 L153.61,456.73 L154.68,459.31 L155.75,461.71 L156.82,463.66 L157.89,464.92 L158.96,465.33 L160.03,464.84 L161.10,463.50 L162.17,461.52 L163.24,459.18 L164.31,456.86 L165.39,454.94 L166.46,453.75 L167.53,453.54 L168.60,454.46 L169.67,456.49 L170.74,459.46 L171.81,463.10 L172.88,467.03 L173.95,470.86 L175.02,474.22 L176.09,476.80 L177.17,478.40 L178.24,478.96 L179.31,478.57 L180.38,477.39 L181.45,475.70 L182.52,473.79 L183.59,471.95 L184.66,470.40 L185.73,469.28 L186.80,468.63 L187.87,468.39 L188.94,468.43 L190.02,468.58 L191.09,468.65 L192.16,468.50 L193.23,468.07 L194.30,467.35 L195.37,466.45 L196.44,465.52 L197.51,464.76 L198.58,464.35 L199.65,464.46 L200.72,465.15 L201.80,466.38 L202.87,468.02 L203.94,469.84 L205.01,471.53 L206.08,472.77 L207.15,473.26 L208.22,472.78 L209.29,471.22 L210.36,468.61 L211.43,465.11 L212.50,461.00 L213.57,456.66 L214.65,452.49 L215.72,448.88 L216.79,446.14 L217.86,444.48 L218.93,443.95 L220.00,444.47" fill="none" stroke="#e0e0e0" stroke-width="1.4"/>
<text x="83" y="390" fill="#666" font-family="monospace" font-size="9">09</text>
<rect x="228" y="376" width="152" height="152" fill="#0b0b0b" stroke="#444"/>
<line x1="236" y1="452.00" x2="372" y2="452.00" stroke="#292929"/>
<path d="M236.00,446.15 L237.07,442.79 L238.14,440.27 L239.21,438.74 L240.28,438.17 L241.35,438.46 L242.43,439.37 L243.50,440.61 L244.57,441.90 L245.64,442.99 L246.71,443.67 L247.78,443.87 L248.85,443.59 L249.92,442.94 L250.99,442.07 L252.06,441.17 L253.13,440.39 L254.20,439.87 L255.28,439.62 L256.35,439.61 L257.42,439.71 L258.49,439.75 L259.56,439.53 L260.63,438.88 L261.70,437.68 L262.77,435.92 L263.84,433.68 L264.91,431.14 L265.98,428.59 L267.06,426.32 L268.13,424.67 L269.20,423.90 L270.27,424.17 L271.34,425.54 L272.41,427.91 L273.48,431.06 L274.55,434.67 L275.62,438.34 L276.69,441.67 L277.76,444.32 L278.83,446.02 L279.91,446.65 L280.98,446.20 L282.05,444.84 L283.12,442.84 L284.19,440.52 L285.26,438.25 L286.33,436.36 L287.40,435.11 L288.47,434.65 L289.54,435.01 L290.61,436.12 L291.69,437.80 L292.76,439.82 L293.83,441.94 L294.90,443.97 L295.97,445.74 L297.04,447.21 L298.11,448.39 L299.18,449.41 L300.25,450.40 L301.32,451.53 L302.39,452.93 L303.46,454.69 L304.54,456.79 L305.61,458.99 L306.68,461.25 L307.75,463.33 L308.82,464.99 L309.89,466.00 L310.96,466.21 L312.03,465.57 L313.10,464.16 L314.17,462.18 L315.24,459.90 L316.31,457.68 L317.39,455.90 L318.46,454.87 L319.53,454.83 L320.60,455.90 L321.67,458.05 L322.74,461.11 L323.81,464.77 L324.88,468.68 L325.95,472.43 L327.02,475.64 L328.09,478.03 L329.17,479.39 L330.24,479.69 L331.31,479.01 L332.38,477.54 L333.45,475.57 L334.52,473.40 L335.59,471.34 L336.66,469.60 L337.73,468.35 L338.80,467.62 L339.87,467.36 L340.94,467.44 L342.02,467.67 L343.09,467.86 L344.16,467.87 L345.23,467.61 L346.30,467.06 L347.37,466.30 L348.44,465.49 L349.51,464.79 L350.58,464.40 L351.65,464.45 L352.72,465.02 L353.80,466.07 L354.87,467.48 L355.94,469.02 L357.01,470.41 L358.08,471.34 L359.15,471.53 L360.22,470.78 L361.29,468.99 L362.36,466.21 L363.43,462.59 L364.50,458.43 L365.57,454.11 L366.65,450.01 L367.72,446.51 L368.79,443.93 L369.86,442.43 L370.93,442.07 L372.00,442.75" fill="none" stroke="#e0e0e0" stroke-width="1.4"/>
<text x="235" y="390" fill="#666" font-family="monospace" font-size="9">10</text>
<rect x="380" y="376" width="152" height="152" fill="#0b0b0b" stroke="#444"/>
<line x1="388" y1="452.00" x2="524" y2="452.00" stroke="#292929"/>
<path d="M388.00,442.97 L389.07,439.82 L390.14,437.55 L391.21,436.29 L392.28,436.02 L393.35,436.60 L394.43,437.80 L395.50,439.31 L396.57,440.85 L397.64,442.13 L398.71,442.98 L399.78,443.30 L400.85,443.09 L401.92,442.45 L402.99,441.55 L404.06,440.57 L405.13,439.68 L406.20,439.01 L407.28,438.62 L408.35,438.47 L409.42,438.46 L410.49,438.43 L411.56,438.19 L412.63,437.58 L413.70,436.50 L414.77,434.92 L415.84,432.92 L416.91,430.68 L417.98,428.46 L419.06,426.54 L420.13,425.22 L421.20,424.75 L422.27,425.28 L423.34,426.85 L424.41,429.35 L425.48,432.57 L426.55,436.17 L427.62,439.77 L428.69,443.00 L429.76,445.50 L430.83,447.04 L431.91,447.51 L432.98,446.92 L434.05,445.45 L435.12,443.37 L436.19,441.02 L437.26,438.77 L438.33,436.95 L439.40,435.81 L440.47,435.51 L441.54,436.07 L442.61,437.41 L443.69,439.34 L444.76,441.62 L445.83,444.01 L446.90,446.29 L447.97,448.29 L449.04,449.96 L450.11,451.30 L451.18,452.41 L452.25,453.45 L453.32,454.56 L454.39,455.89 L455.46,457.52 L456.54,459.45 L457.61,461.31 L458.68,463.22 L459.75,464.97 L460.82,466.33 L461.89,467.10 L462.96,467.13 L464.03,466.38 L465.10,464.94 L466.17,462.98 L467.24,460.80 L468.31,458.72 L469.39,457.10 L470.46,456.24 L471.53,456.35 L472.60,457.54 L473.67,459.76 L474.74,462.83 L475.81,466.45 L476.88,470.25 L477.95,473.84 L479.02,476.84 L480.09,478.98 L481.17,480.07 L482.24,480.08 L483.31,479.11 L484.38,477.37 L485.45,475.14 L486.52,472.75 L487.59,470.49 L488.66,468.62 L489.73,467.27 L490.80,466.49 L491.87,466.24 L492.94,466.36 L494.02,466.68 L495.09,467.00 L496.16,467.16 L497.23,467.05 L498.30,466.65 L499.37,466.02 L500.44,465.29 L501.51,464.63 L502.58,464.21 L503.65,464.17 L504.72,464.58 L505.80,465.41 L506.87,466.54 L507.94,467.77 L509.01,468.83 L510.08,469.44 L511.15,469.34 L512.22,468.33 L513.29,466.35 L514.36,463.44 L515.43,459.77 L516.50,455.64 L517.57,451.39 L518.65,447.41 L519.72,444.08 L520.79,441.67 L521.86,440.35 L522.93,440.15 L524.00,440.95" fill="none" stroke="#e0e0e0" stroke-width="1.4"/>
<text x="387" y="390" fill="#666" font-family="monospace" font-size="9">11</text>
<rect x="532" y="376" width="152" height="152" fill="#0b0b0b" stroke="#444"/>
<line x1="540" y1="452.00" x2="676" y2="452.00" stroke="#292929"/>
<path d="M540.00,439.70 L541.07,436.84 L542.14,434.88 L543.21,433.93 L544.28,433.96 L545.35,434.83 L546.43,436.29 L547.50,438.04 L548.57,439.78 L549.64,441.23 L550.71,442.21 L551.78,442.61 L552.85,442.45 L553.92,441.82 L554.99,440.89 L556.06,439.84 L557.13,438.86 L558.20,438.08 L559.28,437.57 L560.35,437.32 L561.42,437.23 L562.49,437.16 L563.56,436.95 L564.63,436.43 L565.70,435.51 L566.77,434.17 L567.84,432.47 L568.91,430.57 L569.98,428.71 L571.06,427.16 L572.13,426.19 L573.20,426.02 L574.27,426.79 L575.34,428.51 L576.41,431.09 L577.48,434.31 L578.55,437.83 L579.62,441.31 L580.69,444.37 L581.76,446.70 L582.83,448.07 L583.91,448.38 L584.98,447.69 L586.05,446.15 L587.12,444.06 L588.19,441.75 L589.26,439.58 L590.33,437.90 L591.40,436.93 L592.47,436.82 L593.54,437.60 L594.61,439.16 L595.69,441.32 L596.76,443.84 L597.83,446.46 L598.90,448.95 L599.97,451.14 L601.04,452.96 L602.11,454.41 L603.18,455.59 L604.25,456.63 L605.32,457.70 L606.39,458.93 L607.46,460.41 L608.54,462.15 L609.61,463.64 L610.68,465.19 L611.75,466.60 L612.82,467.67 L613.89,468.20 L614.96,468.07 L616.03,467.25 L617.10,465.82 L618.17,463.94 L619.24,461.88 L620.31,459.97 L621.39,458.52 L622.46,457.82 L623.53,458.06 L624.60,459.32 L625.67,461.55 L626.74,464.55 L627.81,468.04 L628.88,471.65 L629.95,474.99 L631.02,477.71 L632.09,479.54 L633.17,480.33 L634.24,480.05 L635.31,478.80 L636.38,476.81 L637.45,474.37 L638.52,471.80 L639.59,469.41 L640.66,467.44 L641.73,466.03 L642.80,465.24 L643.87,465.01 L644.94,465.19 L646.02,465.59 L647.09,466.03 L648.16,466.31 L649.23,466.33 L650.30,466.06 L651.37,465.53 L652.44,464.86 L653.51,464.20 L654.58,463.72 L655.65,463.55 L656.72,463.76 L657.80,464.33 L658.87,465.16 L659.94,466.05 L661.01,466.77 L662.08,467.06 L663.15,466.67 L664.22,465.45 L665.29,463.33 L666.36,460.35 L667.43,456.70 L668.50,452.65 L669.57,448.55 L670.65,444.77 L671.72,441.64 L672.79,439.43 L673.86,438.28 L674.93,438.22 L676.00,439.10" fill="none" stroke="#e0e0e0" stroke-width="1.4"/>
<text x="539" y="390" fill="#666" font-family="monospace" font-size="9">12</text>
<rect x="76" y="528" width="152" height="152" fill="#0b0b0b" stroke="#444"/>
<line x1="84" y1="604.00" x2="220" y2="604.00" stroke="#292929"/>
<path d="M84.00,599.85 L85.07,596.49 L86.14,593.64 L87.21,591.56 L88.28,590.39 L89.35,590.20 L90.43,590.95 L91.50,592.51 L92.57,594.64 L93.64,597.07 L94.71,599.46 L95.78,601.49 L96.85,602.88 L97.92,603.41 L98.99,602.94 L100.06,601.46 L101.13,599.05 L102.20,595.89 L103.28,592.24 L104.35,588.41 L105.42,584.72 L106.49,581.49 L107.56,578.99 L108.63,577.38 L109.70,576.76 L110.77,577.12 L111.84,578.34 L112.91,580.23 L113.98,582.55 L115.06,584.99 L116.13,587.30 L117.20,589.21 L118.27,590.56 L119.34,591.23 L120.41,591.20 L121.48,590.56 L122.55,589.44 L123.62,588.04 L124.69,586.59 L125.76,585.32 L126.83,584.42 L127.91,584.04 L128.98,584.25 L130.05,585.04 L131.12,586.34 L132.19,588.00 L133.26,589.83 L134.33,591.63 L135.40,593.19 L136.47,594.35 L137.54,595.01 L138.61,595.12 L139.69,594.75 L140.76,593.99 L141.83,593.05 L142.90,592.13 L143.97,591.47 L145.04,591.29 L146.11,591.77 L147.18,593.00 L148.25,595.00 L149.32,597.70 L150.39,600.96 L151.46,604.53 L152.54,608.15 L153.61,611.51 L154.68,614.36 L155.75,616.44 L156.82,617.61 L157.89,617.80 L158.96,617.05 L160.03,615.49 L161.10,613.36 L162.17,610.93 L163.24,608.54 L164.31,606.51 L165.39,605.12 L166.46,604.59 L167.53,605.06 L168.60,606.54 L169.67,608.95 L170.74,612.11 L171.81,615.76 L172.88,619.59 L173.95,623.28 L175.02,626.51 L176.09,629.01 L177.17,630.62 L178.24,631.24 L179.31,630.88 L180.38,629.66 L181.45,627.77 L182.52,625.45 L183.59,623.01 L184.66,620.70 L185.73,618.79 L186.80,617.44 L187.87,616.77 L188.94,616.80 L190.02,617.44 L191.09,618.56 L192.16,619.96 L193.23,621.41 L194.30,622.68 L195.37,623.58 L196.44,623.96 L197.51,623.75 L198.58,622.96 L199.65,621.66 L200.72,620.00 L201.80,618.17 L202.87,616.37 L203.94,614.81 L205.01,613.65 L206.08,612.99 L207.15,612.88 L208.22,613.25 L209.29,614.01 L210.36,614.95 L211.43,615.87 L212.50,616.53 L213.57,616.71 L214.65,616.23 L215.72,615.00 L216.79,613.00 L217.86,610.30 L218.93,607.04 L220.00,603.47" fill="none" stroke="#e0e0e0" stroke-width="1.4"/>
<text x="83" y="542" fill="#666" font-family="monospace" font-size="9">13</text>
<rect x="228" y="528" width="152" height="152" fill="#0b0b0b" stroke="#444"/>
<line x1="236" y1="604.00" x2="372" y2="604.00" stroke="#292929"/>
<path d="M236.00,596.79 L237.07,593.58 L238.14,590.99 L239.21,589.23 L240.28,588.42 L241.35,588.61 L242.43,589.71 L243.50,591.56 L244.57,593.90 L245.64,596.42 L246.71,598.81 L247.78,600.75 L248.85,601.96 L249.92,602.27 L250.99,601.57 L252.06,599.88 L253.13,597.31 L254.20,594.07 L255.28,590.44 L256.35,586.74 L257.42,583.28 L258.49,580.36 L259.56,578.21 L260.63,576.99 L261.70,576.73 L262.77,577.41 L263.84,578.86 L264.91,580.89 L265.98,583.23 L267.06,585.61 L268.13,587.76 L269.20,589.45 L270.27,590.56 L271.34,590.99 L272.41,590.78 L273.48,590.03 L274.55,588.89 L275.62,587.58 L276.69,586.32 L277.76,585.33 L278.83,584.77 L279.91,584.76 L280.98,585.33 L282.05,586.46 L283.12,588.02 L284.19,589.84 L285.26,591.74 L286.33,593.49 L287.40,594.92 L288.47,595.88 L289.54,596.31 L290.61,596.19 L291.69,595.61 L292.76,594.72 L293.83,593.72 L294.90,592.86 L295.97,592.36 L297.04,592.44 L298.11,593.23 L299.18,594.82 L300.25,597.18 L301.32,600.22 L302.39,603.75 L303.46,607.51 L304.54,611.21 L305.61,614.42 L306.68,617.01 L307.75,618.77 L308.82,619.58 L309.89,619.39 L310.96,618.29 L312.03,616.44 L313.10,614.10 L314.17,611.58 L315.24,609.19 L316.31,607.25 L317.39,606.04 L318.46,605.73 L319.53,606.43 L320.60,608.12 L321.67,610.69 L322.74,613.93 L323.81,617.56 L324.88,621.26 L325.95,624.72 L327.02,627.64 L328.09,629.79 L329.17,631.01 L330.24,631.27 L331.31,630.59 L332.38,629.14 L333.45,627.11 L334.52,624.77 L335.59,622.39 L336.66,620.24 L337.73,618.55 L338.80,617.44 L339.87,617.01 L340.94,617.22 L342.02,617.97 L343.09,619.11 L344.16,620.42 L345.23,621.68 L346.30,622.67 L347.37,623.23 L348.44,623.24 L349.51,622.67 L350.58,621.54 L351.65,619.98 L352.72,618.16 L353.80,616.26 L354.87,614.51 L355.94,613.08 L357.01,612.12 L358.08,611.69 L359.15,611.81 L360.22,612.39 L361.29,613.28 L362.36,614.28 L363.43,615.14 L364.50,615.64 L365.57,615.56 L366.65,614.77 L367.72,613.18 L368.79,610.82 L369.86,607.78 L370.93,604.25 L372.00,600.49" fill="none" stroke="#e0e0e0" stroke-width="1.4"/>
<text x="235" y="542" fill="#666" font-family="monospace" font-size="9">14</text>
<rect x="380" y="528" width="152" height="152" fill="#0b0b0b" stroke="#444"/>
<line x1="388" y1="604.00" x2="524" y2="604.00" stroke="#292929"/>
<path d="M388.00,593.54 L389.07,590.57 L390.14,588.29 L391.21,586.89 L392.28,586.48 L393.35,587.03 L394.43,588.46 L395.50,590.55 L396.57,593.04 L397.64,595.62 L398.71,597.96 L399.78,599.75 L400.85,600.78 L401.92,600.86 L402.99,599.95 L404.06,598.09 L405.13,595.42 L406.20,592.19 L407.28,588.67 L408.35,585.17 L409.42,582.02 L410.49,579.47 L411.56,577.72 L412.63,576.89 L413.70,577.00 L414.77,577.96 L415.84,579.60 L416.91,581.72 L417.98,584.04 L419.06,586.29 L420.13,588.25 L421.20,589.71 L422.27,590.57 L423.34,590.80 L424.41,590.44 L425.48,589.63 L426.55,588.53 L427.62,587.37 L428.69,586.36 L429.76,585.68 L430.83,585.50 L431.91,585.87 L432.98,586.80 L434.05,588.22 L435.12,589.99 L436.19,591.94 L437.26,593.84 L438.33,595.52 L439.40,596.78 L440.47,597.53 L441.54,597.72 L442.61,597.39 L443.69,596.65 L444.76,595.68 L445.83,594.70 L446.90,593.95 L447.97,593.66 L449.04,594.02 L450.11,595.15 L451.18,597.09 L452.25,599.80 L453.32,603.13 L454.39,606.86 L455.46,610.74 L456.54,614.46 L457.61,617.43 L458.68,619.71 L459.75,621.11 L460.82,621.52 L461.89,620.97 L462.96,619.54 L464.03,617.45 L465.10,614.96 L466.17,612.38 L467.24,610.04 L468.31,608.25 L469.39,607.22 L470.46,607.14 L471.53,608.05 L472.60,609.91 L473.67,612.58 L474.74,615.81 L475.81,619.33 L476.88,622.83 L477.95,625.98 L479.02,628.53 L480.09,630.28 L481.17,631.11 L482.24,631.00 L483.31,630.04 L484.38,628.40 L485.45,626.28 L486.52,623.96 L487.59,621.71 L488.66,619.75 L489.73,618.29 L490.80,617.43 L491.87,617.20 L492.94,617.56 L494.02,618.37 L495.09,619.47 L496.16,620.63 L497.23,621.64 L498.30,622.32 L499.37,622.50 L500.44,622.13 L501.51,621.20 L502.58,619.78 L503.65,618.01 L504.72,616.06 L505.80,614.16 L506.87,612.48 L507.94,611.22 L509.01,610.47 L510.08,610.28 L511.15,610.61 L512.22,611.35 L513.29,612.32 L514.36,613.30 L515.43,614.05 L516.50,614.34 L517.57,613.98 L518.65,612.85 L519.72,610.91 L520.79,608.20 L521.86,604.87 L522.93,601.14 L524.00,597.26" fill="none" stroke="#e0e0e0" stroke-width="1.4"/>
<text x="387" y="542" fill="#666" font-family="monospace" font-size="9">15</text>
<rect x="532" y="528" width="152" height="152" fill="#0b0b0b" stroke="#444"/>
<line x1="540" y1="604.00" x2="676" y2="604.00" stroke="#292929"/>
<path d="M540.00,590.20 L541.07,587.54 L542.14,585.63 L543.21,584.63 L544.28,584.61 L545.35,585.52 L546.43,587.23 L547.50,589.51 L548.57,592.09 L549.64,594.65 L550.71,596.88 L551.78,598.51 L552.85,599.32 L553.92,599.20 L554.99,598.11 L556.06,596.15 L557.13,593.48 L558.20,590.34 L559.28,587.02 L560.35,583.83 L561.42,581.05 L562.49,578.92 L563.56,577.60 L564.63,577.17 L565.70,577.61 L566.77,578.81 L567.84,580.60 L568.91,582.74 L569.98,584.98 L571.06,587.07 L572.13,588.80 L573.20,590.03 L574.27,590.66 L575.34,590.72 L576.41,590.26 L577.48,589.45 L578.55,588.46 L579.62,587.51 L580.69,586.79 L581.76,586.47 L582.83,586.66 L583.91,587.40 L584.98,588.66 L586.05,590.34 L587.12,592.27 L588.19,594.27 L589.26,596.14 L590.33,597.69 L591.40,598.77 L592.47,599.30 L593.54,599.28 L594.61,598.78 L595.69,597.93 L596.76,596.94 L597.83,596.04 L598.90,595.46 L599.97,595.42 L601.04,596.08 L602.11,597.55 L603.18,599.82 L604.25,602.81 L605.32,606.36 L606.39,610.23 L607.46,614.14 L608.54,617.80 L609.61,620.46 L610.68,622.37 L611.75,623.37 L612.82,623.39 L613.89,622.48 L614.96,620.77 L616.03,618.49 L617.10,615.91 L618.17,613.35 L619.24,611.12 L620.31,609.49 L621.39,608.68 L622.46,608.80 L623.53,609.89 L624.60,611.85 L625.67,614.52 L626.74,617.66 L627.81,620.98 L628.88,624.17 L629.95,626.95 L631.02,629.08 L632.09,630.40 L633.17,630.83 L634.24,630.39 L635.31,629.19 L636.38,627.40 L637.45,625.26 L638.52,623.02 L639.59,620.93 L640.66,619.20 L641.73,617.97 L642.80,617.34 L643.87,617.28 L644.94,617.74 L646.02,618.55 L647.09,619.54 L648.16,620.49 L649.23,621.21 L650.30,621.53 L651.37,621.34 L652.44,620.60 L653.51,619.34 L654.58,617.66 L655.65,615.73 L656.72,613.73 L657.80,611.86 L658.87,610.31 L659.94,609.23 L661.01,608.70 L662.08,608.72 L663.15,609.22 L664.22,610.07 L665.29,611.06 L666.36,611.96 L667.43,612.54 L668.50,612.58 L669.57,611.92 L670.65,610.45 L671.72,608.18 L672.79,605.19 L673.86,601.64 L674.93,597.77 L676.00,593.86" fill="none" stroke="#e0e0e0" stroke-width="1.4"/>
<text x="539" y="542" fill="#666" font-family="monospace" font-size="9">16</text>
</svg>
