<svg xmlns="http://www.w3.org/2000/svg" width="760" height="760" viewBox="0 0 760 760">
<rect width="760" height="760" fill="#161616"/>
<text x="24" y="32" fill="#dedede" font-family="monospace" font-size="15">S3G VOT / PULSE / REED</text>
<text x="684" y="724" text-anchor="end" fill="#858585" font-family="monospace" font-size="11">U / EDGE BRIGHTNESS</text>
<text x="24" y="72" fill="#858585" font-family="monospace" font-size="11">V / PULSE WIDTH</text>
<text x="76" y="724" fill="#858585" font-family="monospace" font-size="11">ENERGY / LEVEL MATCHED</text>
<rect x="76" y="72" width="152" height="152" fill="#0b0b0b" stroke="#444"/>
<line x1="84" y1="148.00" x2="220" y2="148.00" stroke="#292929"/>
<path d="M84.00,134.55 L85.07,134.55 L86.14,134.55 L87.21,134.55 L88.28,134.55 L89.35,134.55 L90.43,134.55 L91.50,134.55 L92.57,134.55 L93.64,134.55 L94.71,134.55 L95.78,134.56 L96.85,134.56 L97.92,134.58 L98.99,134.60 L100.06,134.63 L101.13,134.69 L102.20,134.77 L103.28,134.90 L104.35,135.09 L105.42,135.36 L106.49,135.73 L107.56,136.23 L108.63,136.88 L109.70,137.70 L110.77,138.70 L111.84,139.89 L112.91,141.26 L113.98,142.79 L115.06,144.45 L116.13,146.20 L117.20,147.98 L118.27,149.76 L119.34,151.46 L120.41,153.05 L121.48,154.50 L122.55,155.77 L123.62,156.85 L124.69,157.75 L125.76,158.47 L126.83,159.03 L127.91,159.45 L128.98,159.77 L130.05,159.99 L131.12,160.14 L132.19,160.25 L133.26,160.31 L134.33,160.36 L135.40,160.38 L136.47,160.40 L137.54,160.41 L138.61,160.41 L139.69,160.41 L140.76,160.42 L141.83,160.42 L142.90,160.42 L143.97,160.42 L145.04,160.42 L146.11,160.42 L147.18,160.42 L148.25,160.42 L149.32,160.42 L150.39,160.42 L151.46,160.42 L152.54,160.42 L153.61,160.42 L154.68,160.42 L155.75,160.42 L156.82,160.42 L157.89,160.42 L158.96,160.42 L160.03,160.42 L161.10,160.42 L162.17,160.42 L163.24,160.42 L164.31,160.42 L165.39,160.41 L166.46,160.41 L167.53,160.41 L168.60,160.40 L169.67,160.38 L170.74,160.36 L171.81,160.31 L172.88,160.25 L173.95,160.14 L175.02,159.99 L176.09,159.77 L177.17,159.45 L178.24,159.03 L179.31,158.47 L180.38,157.75 L181.45,156.85 L182.52,155.77 L183.59,154.50 L184.66,153.05 L185.73,151.46 L186.80,149.76 L187.87,147.98 L188.94,146.20 L190.02,144.45 L191.09,142.79 L192.16,141.26 L193.23,139.89 L194.30,138.70 L195.37,137.70 L196.44,136.88 L197.51,136.23 L198.58,135.73 L199.65,135.36 L200.72,135.09 L201.80,134.90 L202.87,134.77 L203.94,134.69 L205.01,134.63 L206.08,134.60 L207.15,134.58 L208.22,134.56 L209.29,134.56 L210.36,134.55 L211.43,134.55 L212.50,134.55 L213.57,134.55 L214.65,134.55 L215.72,134.55 L216.79,134.55 L217.86,134.55 L218.93,134.55 L220.00,134.55" fill="none" stroke="#e0e0e0" stroke-width="1.4"/>
<text x="83" y="86" fill="#666" font-family="monospace" font-size="9">01</text>
<rect x="228" y="72" width="152" height="152" fill="#0b0b0b" stroke="#444"/>
<line x1="236" y1="148.00" x2="372" y2="148.00" stroke="#292929"/>
<path d="M236.00,135.74 L237.07,135.74 L238.14,135.74 L239.21,135.74 L240.28,135.74 L241.35,135.74 L242.43,135.74 L243.50,135.74 L244.57,135.74 L245.64,135.74 L246.71,135.74 L247.78,135.74 L248.85,135.74 L249.92,135.74 L250.99,135.74 L252.06,135.74 L253.13,135.74 L254.20,135.74 L255.28,135.74 L256.35,135.74 L257.42,135.74 L258.49,135.74 L259.56,135.74 L260.63,135.74 L261.70,135.74 L262.77,135.74 L263.84,135.74 L264.91,135.76 L265.98,135.96 L267.06,137.35 L268.13,142.02 L269.20,149.79 L270.27,156.16 L271.34,158.75 L272.41,159.26 L273.48,159.31 L274.55,159.31 L275.62,159.31 L276.69,159.31 L277.76,159.31 L278.83,159.31 L279.91,159.31 L280.98,159.31 L282.05,159.31 L283.12,159.31 L284.19,159.31 L285.26,159.31 L286.33,159.31 L287.40,159.31 L288.47,159.31 L289.54,159.31 L290.61,159.31 L291.69,159.31 L292.76,159.31 L293.83,159.31 L294.90,159.31 L295.97,159.31 L297.04,159.31 L298.11,159.31 L299.18,159.31 L300.25,159.31 L301.32,159.31 L302.39,159.31 L303.46,159.31 L304.54,159.31 L305.61,159.31 L306.68,159.31 L307.75,159.31 L308.82,159.31 L309.89,159.31 L310.96,159.31 L312.03,159.31 L313.10,159.31 L314.17,159.31 L315.24,159.31 L316.31,159.31 L317.39,159.31 L318.46,159.31 L319.53,159.31 L320.60,159.31 L321.67,159.31 L322.74,159.31 L323.81,159.31 L324.88,159.31 L325.95,159.31 L327.02,159.31 L328.09,159.31 L329.17,159.31 L330.24,159.31 L331.31,159.31 L332.38,159.31 L333.45,159.31 L334.52,159.31 L335.59,159.31 L336.66,159.26 L337.73,158.75 L338.80,156.16 L339.87,149.79 L340.94,142.02 L342.02,137.35 L343.09,135.96 L344.16,135.76 L345.23,135.74 L346.30,135.74 L347.37,135.74 L348.44,135.74 L349.51,135.74 L350.58,135.74 L351.65,135.74 L352.72,135.74 L353.80,135.74 L354.87,135.74 L355.94,135.74 L357.01,135.74 L358.08,135.74 L359.15,135.74 L360.22,135.74 L361.29,135.74 L362.36,135.74 L363.43,135.74 L364.50,135.74 L365.57,135.74 L366.65,135.74 L367.72,135.74 L368.79,135.74 L369.86,135.74 L370.93,135.74 L372.00,135.74" fill="none" stroke="#e0e0e0" stroke-width="1.4"/>
<text x="235" y="86" fill="#666" font-family="monospace" font-size="9">02</text>
<rect x="380" y="72" width="152" height="152" fill="#0b0b0b" stroke="#444"/>
<line x1="388" y1="148.00" x2="524" y2="148.00" stroke="#292929"/>
<path d="M388.00,135.90 L389.07,135.90 L390.14,135.89 L391.21,135.90 L392.28,135.90 L393.35,135.89 L394.43,135.89 L395.50,135.90 L396.57,135.90 L397.64,135.89 L398.71,135.89 L399.78,135.90 L400.85,135.90 L401.92,135.89 L402.99,135.89 L404.06,135.90 L405.13,135.90 L406.20,135.89 L407.28,135.88 L408.35,135.90 L409.42,135.91 L410.49,135.89 L411.56,135.88 L412.63,135.90 L413.70,135.92 L414.77,135.89 L415.84,135.87 L416.91,135.89 L417.98,135.94 L419.06,135.92 L420.13,137.24 L421.20,152.71 L422.27,159.07 L423.34,159.21 L424.41,159.21 L425.48,159.16 L426.55,159.15 L427.62,159.18 L428.69,159.19 L429.76,159.17 L430.83,159.16 L431.91,159.18 L432.98,159.19 L434.05,159.17 L435.12,159.16 L436.19,159.18 L437.26,159.18 L438.33,159.17 L439.40,159.16 L440.47,159.18 L441.54,159.18 L442.61,159.17 L443.69,159.16 L444.76,159.17 L445.83,159.18 L446.90,159.17 L447.97,159.17 L449.04,159.17 L450.11,159.18 L451.18,159.17 L452.25,159.17 L453.32,159.17 L454.39,159.18 L455.46,159.17 L456.54,159.17 L457.61,159.17 L458.68,159.18 L459.75,159.17 L460.82,159.17 L461.89,159.17 L462.96,159.18 L464.03,159.17 L465.10,159.17 L466.17,159.17 L467.24,159.18 L468.31,159.17 L469.39,159.16 L470.46,159.17 L471.53,159.18 L472.60,159.18 L473.67,159.16 L474.74,159.17 L475.81,159.18 L476.88,159.18 L477.95,159.16 L479.02,159.17 L480.09,159.19 L481.17,159.18 L482.24,159.16 L483.31,159.17 L484.38,159.19 L485.45,159.18 L486.52,159.15 L487.59,159.16 L488.66,159.21 L489.73,159.21 L490.80,159.07 L491.87,152.71 L492.94,137.24 L494.02,135.92 L495.09,135.94 L496.16,135.89 L497.23,135.87 L498.30,135.89 L499.37,135.92 L500.44,135.90 L501.51,135.88 L502.58,135.89 L503.65,135.91 L504.72,135.90 L505.80,135.88 L506.87,135.89 L507.94,135.90 L509.01,135.90 L510.08,135.89 L511.15,135.89 L512.22,135.90 L513.29,135.90 L514.36,135.89 L515.43,135.89 L516.50,135.90 L517.57,135.90 L518.65,135.89 L519.72,135.89 L520.79,135.90 L521.86,135.90 L522.93,135.89 L524.00,135.90" fill="none" stroke="#e0e0e0" stroke-width="1.4"/>
<text x="387" y="86" fill="#666" font-family="monospace" font-size="9">03</text>
<rect x="532" y="72" width="152" height="152" fill="#0b0b0b" stroke="#444"/>
<line x1="540" y1="148.00" x2="676" y2="148.00" stroke="#292929"/>
<path d="M540.00,135.93 L541.07,135.92 L542.14,135.90 L543.21,135.92 L544.28,135.94 L545.35,135.92 L546.43,135.90 L547.50,135.92 L548.57,135.94 L549.64,135.92 L550.71,135.90 L551.78,135.92 L552.85,135.94 L553.92,135.92 L554.99,135.90 L556.06,135.92 L557.13,135.94 L558.20,135.92 L559.28,135.89 L560.35,135.92 L561.42,135.95 L562.49,135.91 L563.56,135.88 L564.63,135.93 L565.70,135.97 L566.77,135.91 L567.84,135.84 L568.91,135.92 L569.98,136.06 L571.06,135.96 L572.13,136.10 L573.20,153.78 L574.27,158.96 L575.34,159.24 L576.41,159.26 L577.48,159.11 L578.55,159.08 L579.62,159.17 L580.69,159.21 L581.76,159.14 L582.83,159.11 L583.91,159.16 L584.98,159.19 L586.05,159.14 L587.12,159.12 L588.19,159.16 L589.26,159.18 L590.33,159.15 L591.40,159.12 L592.47,159.16 L593.54,159.18 L594.61,159.15 L595.69,159.13 L596.76,159.15 L597.83,159.18 L598.90,159.15 L599.97,159.13 L601.04,159.15 L602.11,159.17 L603.18,159.15 L604.25,159.13 L605.32,159.15 L606.39,159.17 L607.46,159.15 L608.54,159.13 L609.61,159.15 L610.68,159.17 L611.75,159.15 L612.82,159.13 L613.89,159.15 L614.96,159.17 L616.03,159.15 L617.10,159.13 L618.17,159.15 L619.24,159.18 L620.31,159.15 L621.39,159.13 L622.46,159.15 L623.53,159.18 L624.60,159.16 L625.67,159.12 L626.74,159.15 L627.81,159.18 L628.88,159.16 L629.95,159.12 L631.02,159.14 L632.09,159.19 L633.17,159.16 L634.24,159.11 L635.31,159.14 L636.38,159.21 L637.45,159.17 L638.52,159.08 L639.59,159.11 L640.66,159.26 L641.73,159.24 L642.80,158.96 L643.87,153.78 L644.94,136.10 L646.02,135.96 L647.09,136.06 L648.16,135.92 L649.23,135.84 L650.30,135.91 L651.37,135.97 L652.44,135.93 L653.51,135.88 L654.58,135.91 L655.65,135.95 L656.72,135.92 L657.80,135.89 L658.87,135.92 L659.94,135.94 L661.01,135.92 L662.08,135.90 L663.15,135.92 L664.22,135.94 L665.29,135.92 L666.36,135.90 L667.43,135.92 L668.50,135.94 L669.57,135.92 L670.65,135.90 L671.72,135.92 L672.79,135.94 L673.86,135.92 L674.93,135.90 L676.00,135.92" fill="none" stroke="#e0e0e0" stroke-width="1.4"/>
<text x="539" y="86" fill="#666" font-family="monospace" font-size="9">04</text>
<rect x="76" y="224" width="152" height="152" fill="#0b0b0b" stroke="#444"/>
<line x1="84" y1="300.00" x2="220" y2="300.00" stroke="#292929"/>
<path d="M84.00,281.95 L85.07,281.95 L86.14,281.96 L87.21,281.96 L88.28,281.97 L89.35,281.99 L90.43,282.02 L91.50,282.07 L92.57,282.15 L93.64,282.27 L94.71,282.45 L95.78,282.70 L96.85,283.06 L97.92,283.54 L98.99,284.17 L100.06,284.97 L101.13,285.96 L102.20,287.16 L103.28,288.55 L104.35,290.12 L105.42,291.84 L106.49,293.68 L107.56,295.58 L108.63,297.48 L109.70,299.33 L110.77,301.07 L111.84,302.67 L112.91,304.09 L113.98,305.32 L115.06,306.34 L116.13,307.17 L117.20,307.83 L118.27,308.33 L119.34,308.71 L120.41,308.98 L121.48,309.16 L122.55,309.29 L123.62,309.37 L124.69,309.43 L125.76,309.46 L126.83,309.48 L127.91,309.49 L128.98,309.50 L130.05,309.50 L131.12,309.51 L132.19,309.51 L133.26,309.51 L134.33,309.51 L135.40,309.51 L136.47,309.51 L137.54,309.51 L138.61,309.51 L139.69,309.51 L140.76,309.51 L141.83,309.51 L142.90,309.51 L143.97,309.51 L145.04,309.51 L146.11,309.51 L147.18,309.51 L148.25,309.51 L149.32,309.51 L150.39,309.51 L151.46,309.51 L152.54,309.51 L153.61,309.51 L154.68,309.51 L155.75,309.51 L156.82,309.51 L157.89,309.51 L158.96,309.51 L160.03,309.51 L161.10,309.51 L162.17,309.51 L163.24,309.51 L164.31,309.51 L165.39,309.51 L166.46,309.51 L167.53,309.51 L168.60,309.51 L169.67,309.51 L170.74,309.51 L171.81,309.51 L172.88,309.51 L173.95,309.51 L175.02,309.50 L176.09,309.50 L177.17,309.49 L178.24,309.48 L179.31,309.46 L180.38,309.43 L181.45,309.37 L182.52,309.29 L183.59,309.16 L184.66,308.98 L185.73,308.71 L186.80,308.33 L187.87,307.83 L188.94,307.17 L190.02,306.34 L191.09,305.32 L192.16,304.09 L193.23,302.67 L194.30,301.07 L195.37,299.33 L196.44,297.48 L197.51,295.58 L198.58,293.68 L199.65,291.84 L200.72,290.12 L201.80,288.55 L202.87,287.16 L203.94,285.96 L205.01,284.97 L206.08,284.17 L207.15,283.54 L208.22,283.06 L209.29,282.70 L210.36,282.45 L211.43,282.27 L212.50,282.15 L213.57,282.07 L214.65,282.02 L215.72,281.99 L216.79,281.97 L217.86,281.96 L218.93,281.96 L220.00,281.95" fill="none" stroke="#e0e0e0" stroke-width="1.4"/>
<text x="83" y="238" fill="#666" font-family="monospace" font-size="9">05</text>
<rect x="228" y="224" width="152" height="152" fill="#0b0b0b" stroke="#444"/>
<line x1="236" y1="300.00" x2="372" y2="300.00" stroke="#292929"/>
<path d="M236.00,283.74 L237.07,283.74 L238.14,283.74 L239.21,283.74 L240.28,283.74 L241.35,283.74 L242.43,283.74 L243.50,283.74 L244.57,283.74 L245.64,283.74 L246.71,283.74 L247.78,283.74 L248.85,283.74 L249.92,283.74 L250.99,283.74 L252.06,283.74 L253.13,283.74 L254.20,283.74 L255.28,283.74 L256.35,283.83 L257.42,284.62 L258.49,288.07 L259.56,295.47 L260.63,303.29 L261.70,307.37 L262.77,308.42 L263.84,308.56 L264.91,308.57 L265.98,308.57 L267.06,308.57 L268.13,308.57 L269.20,308.57 L270.27,308.57 L271.34,308.57 L272.41,308.57 L273.48,308.57 L274.55,308.57 L275.62,308.57 L276.69,308.57 L277.76,308.57 L278.83,308.57 L279.91,308.57 L280.98,308.57 L282.05,308.57 L283.12,308.57 L284.19,308.57 L285.26,308.57 L286.33,308.57 L287.40,308.57 L288.47,308.57 L289.54,308.57 L290.61,308.57 L291.69,308.57 L292.76,308.57 L293.83,308.57 L294.90,308.57 L295.97,308.57 L297.04,308.57 L298.11,308.57 L299.18,308.57 L300.25,308.57 L301.32,308.57 L302.39,308.57 L303.46,308.57 L304.54,308.57 L305.61,308.57 L306.68,308.57 L307.75,308.57 L308.82,308.57 L309.89,308.57 L310.96,308.57 L312.03,308.57 L313.10,308.57 L314.17,308.57 L315.24,308.57 L316.31,308.57 L317.39,308.57 L318.46,308.57 L319.53,308.57 L320.60,308.57 L321.67,308.57 L322.74,308.57 L323.81,308.57 L324.88,308.57 L325.95,308.57 L327.02,308.57 L328.09,308.57 L329.17,308.57 L330.24,308.57 L331.31,308.57 L332.38,308.57 L333.45,308.57 L334.52,308.57 L335.59,308.57 L336.66,308.57 L337.73,308.57 L338.80,308.57 L339.87,308.57 L340.94,308.57 L342.02,308.57 L343.09,308.57 L344.16,308.57 L345.23,308.56 L346.30,308.42 L347.37,307.37 L348.44,303.29 L349.51,295.47 L350.58,288.07 L351.65,284.62 L352.72,283.83 L353.80,283.74 L354.87,283.74 L355.94,283.74 L357.01,283.74 L358.08,283.74 L359.15,283.74 L360.22,283.74 L361.29,283.74 L362.36,283.74 L363.43,283.74 L364.50,283.74 L365.57,283.74 L366.65,283.74 L367.72,283.74 L368.79,283.74 L369.86,283.74 L370.93,283.74 L372.00,283.74" fill="none" stroke="#e0e0e0" stroke-width="1.4"/>
<text x="235" y="238" fill="#666" font-family="monospace" font-size="9">06</text>
<rect x="380" y="224" width="152" height="152" fill="#0b0b0b" stroke="#444"/>
<line x1="388" y1="300.00" x2="524" y2="300.00" stroke="#292929"/>
<path d="M388.00,283.95 L389.07,283.96 L390.14,283.97 L391.21,283.96 L392.28,283.95 L393.35,283.96 L394.43,283.97 L395.50,283.96 L396.57,283.95 L397.64,283.96 L398.71,283.97 L399.78,283.96 L400.85,283.95 L401.92,283.96 L402.99,283.98 L404.06,283.96 L405.13,283.94 L406.20,283.96 L407.28,284.00 L408.35,283.96 L409.42,283.90 L410.49,284.16 L411.56,294.58 L412.63,307.96 L413.70,308.49 L414.77,308.41 L415.84,308.42 L416.91,308.47 L417.98,308.47 L419.06,308.44 L420.13,308.43 L421.20,308.46 L422.27,308.46 L423.34,308.44 L424.41,308.44 L425.48,308.45 L426.55,308.46 L427.62,308.44 L428.69,308.44 L429.76,308.45 L430.83,308.46 L431.91,308.44 L432.98,308.44 L434.05,308.45 L435.12,308.46 L436.19,308.45 L437.26,308.44 L438.33,308.45 L439.40,308.46 L440.47,308.45 L441.54,308.44 L442.61,308.45 L443.69,308.46 L444.76,308.45 L445.83,308.44 L446.90,308.45 L447.97,308.45 L449.04,308.45 L450.11,308.44 L451.18,308.45 L452.25,308.45 L453.32,308.45 L454.39,308.44 L455.46,308.45 L456.54,308.45 L457.61,308.45 L458.68,308.44 L459.75,308.45 L460.82,308.45 L461.89,308.45 L462.96,308.44 L464.03,308.45 L465.10,308.45 L466.17,308.45 L467.24,308.44 L468.31,308.45 L469.39,308.46 L470.46,308.45 L471.53,308.44 L472.60,308.45 L473.67,308.46 L474.74,308.45 L475.81,308.44 L476.88,308.45 L477.95,308.46 L479.02,308.45 L480.09,308.44 L481.17,308.44 L482.24,308.46 L483.31,308.45 L484.38,308.44 L485.45,308.44 L486.52,308.46 L487.59,308.45 L488.66,308.44 L489.73,308.44 L490.80,308.46 L491.87,308.46 L492.94,308.43 L494.02,308.44 L495.09,308.47 L496.16,308.47 L497.23,308.42 L498.30,308.41 L499.37,308.49 L500.44,307.96 L501.51,294.58 L502.58,284.16 L503.65,283.90 L504.72,283.96 L505.80,284.00 L506.87,283.96 L507.94,283.94 L509.01,283.96 L510.08,283.98 L511.15,283.96 L512.22,283.95 L513.29,283.96 L514.36,283.97 L515.43,283.96 L516.50,283.95 L517.57,283.96 L518.65,283.97 L519.72,283.96 L520.79,283.95 L521.86,283.96 L522.93,283.97 L524.00,283.96" fill="none" stroke="#e0e0e0" stroke-width="1.4"/>
<text x="387" y="238" fill="#666" font-family="monospace" font-size="9">07</text>
<rect x="532" y="224" width="152" height="152" fill="#0b0b0b" stroke="#444"/>
<line x1="540" y1="300.00" x2="676" y2="300.00" stroke="#292929"/>
<path d="M540.00,283.97 L541.07,284.00 L542.14,284.02 L543.21,284.00 L544.28,283.97 L545.35,284.00 L546.43,284.02 L547.50,283.99 L548.57,283.97 L549.64,284.00 L550.71,284.03 L551.78,283.99 L552.85,283.96 L553.92,284.01 L554.99,284.05 L556.06,283.98 L557.13,283.93 L558.20,284.01 L559.28,284.10 L560.35,283.98 L561.42,283.81 L562.49,283.93 L563.56,294.22 L564.63,308.64 L565.70,308.58 L566.77,308.34 L567.84,308.34 L568.91,308.47 L569.98,308.49 L571.06,308.40 L572.13,308.38 L573.20,308.45 L574.27,308.47 L575.34,308.41 L576.41,308.39 L577.48,308.44 L578.55,308.46 L579.62,308.42 L580.69,308.40 L581.76,308.44 L582.83,308.46 L583.91,308.42 L584.98,308.40 L586.05,308.44 L587.12,308.45 L588.19,308.42 L589.26,308.41 L590.33,308.43 L591.40,308.45 L592.47,308.42 L593.54,308.41 L594.61,308.43 L595.69,308.45 L596.76,308.43 L597.83,308.41 L598.90,308.43 L599.97,308.45 L601.04,308.43 L602.11,308.41 L603.18,308.43 L604.25,308.45 L605.32,308.43 L606.39,308.41 L607.46,308.43 L608.54,308.45 L609.61,308.43 L610.68,308.41 L611.75,308.43 L612.82,308.45 L613.89,308.43 L614.96,308.41 L616.03,308.43 L617.10,308.45 L618.17,308.43 L619.24,308.41 L620.31,308.43 L621.39,308.45 L622.46,308.43 L623.53,308.41 L624.60,308.42 L625.67,308.45 L626.74,308.43 L627.81,308.41 L628.88,308.42 L629.95,308.45 L631.02,308.44 L632.09,308.40 L633.17,308.42 L634.24,308.46 L635.31,308.44 L636.38,308.40 L637.45,308.42 L638.52,308.46 L639.59,308.44 L640.66,308.39 L641.73,308.41 L642.80,308.47 L643.87,308.45 L644.94,308.38 L646.02,308.40 L647.09,308.49 L648.16,308.47 L649.23,308.34 L650.30,308.34 L651.37,308.58 L652.44,308.64 L653.51,294.22 L654.58,283.93 L655.65,283.81 L656.72,283.98 L657.80,284.10 L658.87,284.01 L659.94,283.93 L661.01,283.98 L662.08,284.05 L663.15,284.01 L664.22,283.96 L665.29,283.99 L666.36,284.03 L667.43,284.00 L668.50,283.97 L669.57,283.99 L670.65,284.02 L671.72,284.00 L672.79,283.97 L673.86,284.00 L674.93,284.02 L676.00,284.00" fill="none" stroke="#e0e0e0" stroke-width="1.4"/>
<text x="539" y="238" fill="#666" font-family="monospace" font-size="9">08</text>
<rect x="76" y="376" width="152" height="152" fill="#0b0b0b" stroke="#444"/>
<line x1="84" y1="452.00" x2="220" y2="452.00" stroke="#292929"/>
<path d="M84.00,425.81 L85.07,425.88 L86.14,426.07 L87.21,426.41 L88.28,426.91 L89.35,427.60 L90.43,428.50 L91.50,429.63 L92.57,431.01 L93.64,432.64 L94.71,434.50 L95.78,436.57 L96.85,438.79 L97.92,441.11 L98.99,443.46 L100.06,445.77 L101.13,447.97 L102.20,450.02 L103.28,451.85 L104.35,453.45 L105.42,454.81 L106.49,455.92 L107.56,456.80 L108.63,457.49 L109.70,458.00 L110.77,458.38 L111.84,458.64 L112.91,458.82 L113.98,458.94 L115.06,459.02 L116.13,459.07 L117.20,459.10 L118.27,459.12 L119.34,459.13 L120.41,459.13 L121.48,459.14 L122.55,459.14 L123.62,459.14 L124.69,459.14 L125.76,459.14 L126.83,459.14 L127.91,459.14 L128.98,459.14 L130.05,459.14 L131.12,459.14 L132.19,459.14 L133.26,459.14 L134.33,459.14 L135.40,459.14 L136.47,459.14 L137.54,459.14 L138.61,459.14 L139.69,459.14 L140.76,459.14 L141.83,459.14 L142.90,459.14 L143.97,459.14 L145.04,459.14 L146.11,459.14 L147.18,459.14 L148.25,459.14 L149.32,459.14 L150.39,459.14 L151.46,459.14 L152.54,459.14 L153.61,459.14 L154.68,459.14 L155.75,459.14 L156.82,459.14 L157.89,459.14 L158.96,459.14 L160.03,459.14 L161.10,459.14 L162.17,459.14 L163.24,459.14 L164.31,459.14 L165.39,459.14 L166.46,459.14 L167.53,459.14 L168.60,459.14 L169.67,459.14 L170.74,459.14 L171.81,459.14 L172.88,459.14 L173.95,459.14 L175.02,459.14 L176.09,459.14 L177.17,459.14 L178.24,459.14 L179.31,459.14 L180.38,459.14 L181.45,459.14 L182.52,459.14 L183.59,459.14 L184.66,459.13 L185.73,459.13 L186.80,459.12 L187.87,459.10 L188.94,459.07 L190.02,459.02 L191.09,458.94 L192.16,458.82 L193.23,458.64 L194.30,458.38 L195.37,458.00 L196.44,457.49 L197.51,456.80 L198.58,455.92 L199.65,454.81 L200.72,453.45 L201.80,451.85 L202.87,450.02 L203.94,447.97 L205.01,445.77 L206.08,443.46 L207.15,441.11 L208.22,438.79 L209.29,436.57 L210.36,434.50 L211.43,432.64 L212.50,431.01 L213.57,429.63 L214.65,428.50 L215.72,427.60 L216.79,426.91 L217.86,426.41 L218.93,426.07 L220.00,425.88" fill="none" stroke="#e0e0e0" stroke-width="1.4"/>
<text x="83" y="390" fill="#666" font-family="monospace" font-size="9">09</text>
<rect x="228" y="376" width="152" height="152" fill="#0b0b0b" stroke="#444"/>
<line x1="236" y1="452.00" x2="372" y2="452.00" stroke="#292929"/>
<path d="M236.00,428.91 L237.07,428.91 L238.14,428.91 L239.21,428.91 L240.28,428.91 L241.35,428.91 L242.43,428.91 L243.50,428.91 L244.57,428.91 L245.64,428.91 L246.71,428.95 L247.78,429.41 L248.85,432.01 L249.92,439.18 L250.99,448.97 L252.06,455.56 L253.13,457.75 L254.20,458.11 L255.28,458.14 L256.35,458.14 L257.42,458.14 L258.49,458.14 L259.56,458.14 L260.63,458.14 L261.70,458.14 L262.77,458.14 L263.84,458.14 L264.91,458.14 L265.98,458.14 L267.06,458.14 L268.13,458.14 L269.20,458.14 L270.27,458.14 L271.34,458.14 L272.41,458.14 L273.48,458.14 L274.55,458.14 L275.62,458.14 L276.69,458.14 L277.76,458.14 L278.83,458.14 L279.91,458.14 L280.98,458.14 L282.05,458.14 L283.12,458.14 L284.19,458.14 L285.26,458.14 L286.33,458.14 L287.40,458.14 L288.47,458.14 L289.54,458.14 L290.61,458.14 L291.69,458.14 L292.76,458.14 L293.83,458.14 L294.90,458.14 L295.97,458.14 L297.04,458.14 L298.11,458.14 L299.18,458.14 L300.25,458.14 L301.32,458.14 L302.39,458.14 L303.46,458.14 L304.54,458.14 L305.61,458.14 L306.68,458.14 L307.75,458.14 L308.82,458.14 L309.89,458.14 L310.96,458.14 L312.03,458.14 L313.10,458.14 L314.17,458.14 L315.24,458.14 L316.31,458.14 L317.39,458.14 L318.46,458.14 L319.53,458.14 L320.60,458.14 L321.67,458.14 L322.74,458.14 L323.81,458.14 L324.88,458.14 L325.95,458.14 L327.02,458.14 L328.09,458.14 L329.17,458.14 L330.24,458.14 L331.31,458.14 L332.38,458.14 L333.45,458.14 L334.52,458.14 L335.59,458.14 L336.66,458.14 L337.73,458.14 L338.80,458.14 L339.87,458.14 L340.94,458.14 L342.02,458.14 L343.09,458.14 L344.16,458.14 L345.23,458.14 L346.30,458.14 L347.37,458.14 L348.44,458.14 L349.51,458.14 L350.58,458.14 L351.65,458.14 L352.72,458.14 L353.80,458.14 L354.87,458.11 L355.94,457.75 L357.01,455.56 L358.08,448.97 L359.15,439.18 L360.22,432.01 L361.29,429.41 L362.36,428.95 L363.43,428.91 L364.50,428.91 L365.57,428.91 L366.65,428.91 L367.72,428.91 L368.79,428.91 L369.86,428.91 L370.93,428.91 L372.00,428.91" fill="none" stroke="#e0e0e0" stroke-width="1.4"/>
<text x="235" y="390" fill="#666" font-family="monospace" font-size="9">10</text>
<rect x="380" y="376" width="152" height="152" fill="#0b0b0b" stroke="#444"/>
<line x1="388" y1="452.00" x2="524" y2="452.00" stroke="#292929"/>
<path d="M388.00,429.37 L389.07,429.35 L390.14,429.33 L391.21,429.35 L392.28,429.37 L393.35,429.34 L394.43,429.32 L395.50,429.35 L396.57,429.38 L397.64,429.34 L398.71,429.30 L399.78,429.35 L400.85,429.47 L401.92,434.36 L402.99,454.74 L404.06,457.92 L405.13,457.99 L406.20,458.06 L407.28,458.05 L408.35,458.00 L409.42,458.00 L410.49,458.04 L411.56,458.04 L412.63,458.01 L413.70,458.01 L414.77,458.03 L415.84,458.03 L416.91,458.01 L417.98,458.01 L419.06,458.03 L420.13,458.03 L421.20,458.02 L422.27,458.01 L423.34,458.03 L424.41,458.03 L425.48,458.02 L426.55,458.01 L427.62,458.03 L428.69,458.03 L429.76,458.02 L430.83,458.01 L431.91,458.02 L432.98,458.03 L434.05,458.02 L435.12,458.01 L436.19,458.02 L437.26,458.03 L438.33,458.02 L439.40,458.01 L440.47,458.02 L441.54,458.03 L442.61,458.02 L443.69,458.01 L444.76,458.02 L445.83,458.03 L446.90,458.02 L447.97,458.01 L449.04,458.02 L450.11,458.03 L451.18,458.02 L452.25,458.01 L453.32,458.02 L454.39,458.03 L455.46,458.02 L456.54,458.01 L457.61,458.02 L458.68,458.03 L459.75,458.02 L460.82,458.01 L461.89,458.02 L462.96,458.03 L464.03,458.02 L465.10,458.01 L466.17,458.02 L467.24,458.03 L468.31,458.02 L469.39,458.01 L470.46,458.02 L471.53,458.03 L472.60,458.02 L473.67,458.01 L474.74,458.02 L475.81,458.03 L476.88,458.02 L477.95,458.01 L479.02,458.02 L480.09,458.03 L481.17,458.02 L482.24,458.01 L483.31,458.02 L484.38,458.03 L485.45,458.03 L486.52,458.01 L487.59,458.02 L488.66,458.03 L489.73,458.03 L490.80,458.01 L491.87,458.02 L492.94,458.03 L494.02,458.03 L495.09,458.01 L496.16,458.01 L497.23,458.03 L498.30,458.03 L499.37,458.01 L500.44,458.01 L501.51,458.04 L502.58,458.04 L503.65,458.00 L504.72,458.00 L505.80,458.05 L506.87,458.06 L507.94,457.99 L509.01,457.92 L510.08,454.74 L511.15,434.36 L512.22,429.47 L513.29,429.35 L514.36,429.30 L515.43,429.34 L516.50,429.38 L517.57,429.35 L518.65,429.32 L519.72,429.34 L520.79,429.37 L521.86,429.35 L522.93,429.33 L524.00,429.35" fill="none" stroke="#e0e0e0" stroke-width="1.4"/>
<text x="387" y="390" fill="#666" font-family="monospace" font-size="9">11</text>
<rect x="532" y="376" width="152" height="152" fill="#0b0b0b" stroke="#444"/>
<line x1="540" y1="452.00" x2="676" y2="452.00" stroke="#292929"/>
<path d="M540.00,429.47 L541.07,429.41 L542.14,429.36 L543.21,429.42 L544.28,429.47 L545.35,429.40 L546.43,429.35 L547.50,429.43 L548.57,429.51 L549.64,429.39 L550.71,429.28 L551.78,429.44 L552.85,429.72 L553.92,432.73 L554.99,456.43 L556.06,457.76 L557.13,457.88 L558.20,458.10 L559.28,458.09 L560.35,457.95 L561.42,457.94 L562.49,458.04 L563.56,458.05 L564.63,457.97 L565.70,457.96 L566.77,458.03 L567.84,458.04 L568.91,457.98 L569.98,457.97 L571.06,458.02 L572.13,458.03 L573.20,457.99 L574.27,457.98 L575.34,458.02 L576.41,458.03 L577.48,457.99 L578.55,457.98 L579.62,458.01 L580.69,458.03 L581.76,457.99 L582.83,457.98 L583.91,458.01 L584.98,458.02 L586.05,458.00 L587.12,457.98 L588.19,458.01 L589.26,458.02 L590.33,458.00 L591.40,457.98 L592.47,458.01 L593.54,458.02 L594.61,458.00 L595.69,457.98 L596.76,458.01 L597.83,458.02 L598.90,458.00 L599.97,457.98 L601.04,458.01 L602.11,458.02 L603.18,458.00 L604.25,457.98 L605.32,458.00 L606.39,458.02 L607.46,458.00 L608.54,457.98 L609.61,458.00 L610.68,458.02 L611.75,458.00 L612.82,457.98 L613.89,458.00 L614.96,458.02 L616.03,458.01 L617.10,457.98 L618.17,458.00 L619.24,458.02 L620.31,458.01 L621.39,457.98 L622.46,458.00 L623.53,458.02 L624.60,458.01 L625.67,457.98 L626.74,458.00 L627.81,458.02 L628.88,458.01 L629.95,457.98 L631.02,458.00 L632.09,458.02 L633.17,458.01 L634.24,457.98 L635.31,457.99 L636.38,458.03 L637.45,458.01 L638.52,457.98 L639.59,457.99 L640.66,458.03 L641.73,458.02 L642.80,457.98 L643.87,457.99 L644.94,458.03 L646.02,458.02 L647.09,457.97 L648.16,457.98 L649.23,458.04 L650.30,458.03 L651.37,457.96 L652.44,457.97 L653.51,458.05 L654.58,458.04 L655.65,457.94 L656.72,457.95 L657.80,458.09 L658.87,458.10 L659.94,457.88 L661.01,457.76 L662.08,456.43 L663.15,432.73 L664.22,429.72 L665.29,429.44 L666.36,429.28 L667.43,429.39 L668.50,429.51 L669.57,429.43 L670.65,429.35 L671.72,429.40 L672.79,429.47 L673.86,429.42 L674.93,429.36 L676.00,429.41" fill="none" stroke="#e0e0e0" stroke-width="1.4"/>
<text x="539" y="390" fill="#666" font-family="monospace" font-size="9">12</text>
<rect x="76" y="528" width="152" height="152" fill="#0b0b0b" stroke="#444"/>
<line x1="84" y1="604.00" x2="220" y2="604.00" stroke="#292929"/>
<path d="M84.00,566.83 L85.07,567.33 L86.14,568.80 L87.21,571.15 L88.28,574.21 L89.35,577.80 L90.43,581.70 L91.50,585.70 L92.57,589.62 L93.64,593.30 L94.71,596.62 L95.78,599.50 L96.85,601.93 L97.92,603.90 L98.99,605.46 L100.06,606.64 L101.13,607.52 L102.20,608.14 L103.28,608.58 L104.35,608.87 L105.42,609.06 L106.49,609.18 L107.56,609.26 L108.63,609.30 L109.70,609.33 L110.77,609.34 L111.84,609.35 L112.91,609.36 L113.98,609.36 L115.06,609.36 L116.13,609.36 L117.20,609.36 L118.27,609.36 L119.34,609.36 L120.41,609.36 L121.48,609.36 L122.55,609.36 L123.62,609.36 L124.69,609.36 L125.76,609.36 L126.83,609.36 L127.91,609.36 L128.98,609.36 L130.05,609.36 L131.12,609.36 L132.19,609.36 L133.26,609.36 L134.33,609.36 L135.40,609.36 L136.47,609.36 L137.54,609.36 L138.61,609.36 L139.69,609.36 L140.76,609.36 L141.83,609.36 L142.90,609.36 L143.97,609.36 L145.04,609.36 L146.11,609.36 L147.18,609.36 L148.25,609.36 L149.32,609.36 L150.39,609.36 L151.46,609.36 L152.54,609.36 L153.61,609.36 L154.68,609.36 L155.75,609.36 L156.82,609.36 L157.89,609.36 L158.96,609.36 L160.03,609.36 L161.10,609.36 L162.17,609.36 L163.24,609.36 L164.31,609.36 L165.39,609.36 L166.46,609.36 L167.53,609.36 L168.60,609.36 L169.67,609.36 L170.74,609.36 L171.81,609.36 L172.88,609.36 L173.95,609.36 L175.02,609.36 L176.09,609.36 L177.17,609.36 L178.24,609.36 L179.31,609.36 L180.38,609.36 L181.45,609.36 L182.52,609.36 L183.59,609.36 L184.66,609.36 L185.73,609.36 L186.80,609.36 L187.87,609.36 L188.94,609.36 L190.02,609.36 L191.09,609.36 L192.16,609.36 L193.23,609.35 L194.30,609.34 L195.37,609.33 L196.44,609.30 L197.51,609.26 L198.58,609.18 L199.65,609.06 L200.72,608.87 L201.80,608.58 L202.87,608.14 L203.94,607.52 L205.01,606.64 L206.08,605.46 L207.15,603.90 L208.22,601.93 L209.29,599.50 L210.36,596.62 L211.43,593.30 L212.50,589.62 L213.57,585.70 L214.65,581.70 L215.72,577.80 L216.79,574.21 L217.86,571.15 L218.93,568.80 L220.00,567.33" fill="none" stroke="#e0e0e0" stroke-width="1.4"/>
<text x="83" y="542" fill="#666" font-family="monospace" font-size="9">13</text>
<rect x="228" y="528" width="152" height="152" fill="#0b0b0b" stroke="#444"/>
<line x1="236" y1="604.00" x2="372" y2="604.00" stroke="#292929"/>
<path d="M236.00,560.15 L237.07,560.17 L238.14,560.51 L239.21,562.97 L240.28,571.72 L241.35,587.11 L242.43,600.48 L243.50,606.21 L244.57,607.42 L245.64,607.55 L246.71,607.56 L247.78,607.56 L248.85,607.56 L249.92,607.56 L250.99,607.56 L252.06,607.56 L253.13,607.56 L254.20,607.56 L255.28,607.56 L256.35,607.56 L257.42,607.56 L258.49,607.56 L259.56,607.56 L260.63,607.56 L261.70,607.56 L262.77,607.56 L263.84,607.56 L264.91,607.56 L265.98,607.56 L267.06,607.56 L268.13,607.56 L269.20,607.56 L270.27,607.56 L271.34,607.56 L272.41,607.56 L273.48,607.56 L274.55,607.56 L275.62,607.56 L276.69,607.56 L277.76,607.56 L278.83,607.56 L279.91,607.56 L280.98,607.56 L282.05,607.56 L283.12,607.56 L284.19,607.56 L285.26,607.56 L286.33,607.56 L287.40,607.56 L288.47,607.56 L289.54,607.56 L290.61,607.56 L291.69,607.56 L292.76,607.56 L293.83,607.56 L294.90,607.56 L295.97,607.56 L297.04,607.56 L298.11,607.56 L299.18,607.56 L300.25,607.56 L301.32,607.56 L302.39,607.56 L303.46,607.56 L304.54,607.56 L305.61,607.56 L306.68,607.56 L307.75,607.56 L308.82,607.56 L309.89,607.56 L310.96,607.56 L312.03,607.56 L313.10,607.56 L314.17,607.56 L315.24,607.56 L316.31,607.56 L317.39,607.56 L318.46,607.56 L319.53,607.56 L320.60,607.56 L321.67,607.56 L322.74,607.56 L323.81,607.56 L324.88,607.56 L325.95,607.56 L327.02,607.56 L328.09,607.56 L329.17,607.56 L330.24,607.56 L331.31,607.56 L332.38,607.56 L333.45,607.56 L334.52,607.56 L335.59,607.56 L336.66,607.56 L337.73,607.56 L338.80,607.56 L339.87,607.56 L340.94,607.56 L342.02,607.56 L343.09,607.56 L344.16,607.56 L345.23,607.56 L346.30,607.56 L347.37,607.56 L348.44,607.56 L349.51,607.56 L350.58,607.56 L351.65,607.56 L352.72,607.56 L353.80,607.56 L354.87,607.56 L355.94,607.56 L357.01,607.56 L358.08,607.56 L359.15,607.56 L360.22,607.56 L361.29,607.56 L362.36,607.56 L363.43,607.55 L364.50,607.42 L365.57,606.21 L366.65,600.48 L367.72,587.11 L368.79,571.72 L369.86,562.97 L370.93,560.51 L372.00,560.17" fill="none" stroke="#e0e0e0" stroke-width="1.4"/>
<text x="235" y="542" fill="#666" font-family="monospace" font-size="9">14</text>
<rect x="380" y="528" width="152" height="152" fill="#0b0b0b" stroke="#444"/>
<line x1="388" y1="604.00" x2="524" y2="604.00" stroke="#292929"/>
<path d="M388.00,562.15 L389.07,562.24 L390.14,562.36 L391.21,562.26 L392.28,563.97 L393.35,592.14 L394.43,607.17 L395.50,607.50 L396.57,607.42 L397.64,607.33 L398.71,607.36 L399.78,607.43 L400.85,607.41 L401.92,607.35 L402.99,607.37 L404.06,607.41 L405.13,607.40 L406.20,607.36 L407.28,607.37 L408.35,607.40 L409.42,607.40 L410.49,607.37 L411.56,607.37 L412.63,607.40 L413.70,607.40 L414.77,607.37 L415.84,607.37 L416.91,607.40 L417.98,607.40 L419.06,607.38 L420.13,607.38 L421.20,607.39 L422.27,607.40 L423.34,607.38 L424.41,607.38 L425.48,607.39 L426.55,607.40 L427.62,607.38 L428.69,607.38 L429.76,607.39 L430.83,607.40 L431.91,607.38 L432.98,607.38 L434.05,607.39 L435.12,607.40 L436.19,607.38 L437.26,607.38 L438.33,607.39 L439.40,607.40 L440.47,607.38 L441.54,607.38 L442.61,607.39 L443.69,607.39 L444.76,607.38 L445.83,607.38 L446.90,607.39 L447.97,607.39 L449.04,607.38 L450.11,607.38 L451.18,607.39 L452.25,607.39 L453.32,607.39 L454.39,607.38 L455.46,607.39 L456.54,607.39 L457.61,607.39 L458.68,607.38 L459.75,607.39 L460.82,607.39 L461.89,607.39 L462.96,607.38 L464.03,607.38 L465.10,607.39 L466.17,607.39 L467.24,607.38 L468.31,607.38 L469.39,607.39 L470.46,607.39 L471.53,607.38 L472.60,607.38 L473.67,607.40 L474.74,607.39 L475.81,607.38 L476.88,607.38 L477.95,607.40 L479.02,607.39 L480.09,607.38 L481.17,607.38 L482.24,607.40 L483.31,607.39 L484.38,607.38 L485.45,607.38 L486.52,607.40 L487.59,607.39 L488.66,607.38 L489.73,607.38 L490.80,607.40 L491.87,607.39 L492.94,607.38 L494.02,607.38 L495.09,607.40 L496.16,607.40 L497.23,607.37 L498.30,607.37 L499.37,607.40 L500.44,607.40 L501.51,607.37 L502.58,607.37 L503.65,607.40 L504.72,607.40 L505.80,607.37 L506.87,607.36 L507.94,607.40 L509.01,607.41 L510.08,607.37 L511.15,607.35 L512.22,607.41 L513.29,607.43 L514.36,607.36 L515.43,607.33 L516.50,607.42 L517.57,607.50 L518.65,607.17 L519.72,592.14 L520.79,563.97 L521.86,562.26 L522.93,562.36 L524.00,562.24" fill="none" stroke="#e0e0e0" stroke-width="1.4"/>
<text x="387" y="542" fill="#666" font-family="monospace" font-size="9">15</text>
<rect x="532" y="528" width="152" height="152" fill="#0b0b0b" stroke="#444"/>
<line x1="540" y1="604.00" x2="676" y2="604.00" stroke="#292929"/>
<path d="M540.00,562.29 L541.07,562.57 L542.14,562.88 L543.21,562.53 L544.28,562.35 L545.35,593.79 L546.43,607.21 L547.50,607.67 L548.57,607.48 L549.64,607.20 L550.71,607.28 L551.78,607.47 L552.85,607.42 L553.92,607.28 L554.99,607.31 L556.06,607.43 L557.13,607.41 L558.20,607.30 L559.28,607.32 L560.35,607.41 L561.42,607.40 L562.49,607.32 L563.56,607.33 L564.63,607.40 L565.70,607.39 L566.77,607.33 L567.84,607.33 L568.91,607.39 L569.98,607.39 L571.06,607.33 L572.13,607.33 L573.20,607.38 L574.27,607.39 L575.34,607.34 L576.41,607.33 L577.48,607.38 L578.55,607.39 L579.62,607.34 L580.69,607.33 L581.76,607.38 L582.83,607.39 L583.91,607.35 L584.98,607.33 L586.05,607.37 L587.12,607.39 L588.19,607.35 L589.26,607.33 L590.33,607.37 L591.40,607.39 L592.47,607.35 L593.54,607.33 L594.61,607.37 L595.69,607.39 L596.76,607.35 L597.83,607.33 L598.90,607.37 L599.97,607.39 L601.04,607.36 L602.11,607.34 L603.18,607.36 L604.25,607.39 L605.32,607.36 L606.39,607.34 L607.46,607.36 L608.54,607.39 L609.61,607.36 L610.68,607.34 L611.75,607.36 L612.82,607.39 L613.89,607.36 L614.96,607.34 L616.03,607.36 L617.10,607.39 L618.17,607.37 L619.24,607.33 L620.31,607.35 L621.39,607.39 L622.46,607.37 L623.53,607.33 L624.60,607.35 L625.67,607.39 L626.74,607.37 L627.81,607.33 L628.88,607.35 L629.95,607.39 L631.02,607.37 L632.09,607.33 L633.17,607.35 L634.24,607.39 L635.31,607.38 L636.38,607.33 L637.45,607.34 L638.52,607.39 L639.59,607.38 L640.66,607.33 L641.73,607.34 L642.80,607.39 L643.87,607.38 L644.94,607.33 L646.02,607.33 L647.09,607.39 L648.16,607.39 L649.23,607.33 L650.30,607.33 L651.37,607.39 L652.44,607.40 L653.51,607.33 L654.58,607.32 L655.65,607.40 L656.72,607.41 L657.80,607.32 L658.87,607.30 L659.94,607.41 L661.01,607.43 L662.08,607.31 L663.15,607.28 L664.22,607.42 L665.29,607.47 L666.36,607.28 L667.43,607.20 L668.50,607.48 L669.57,607.67 L670.65,607.21 L671.72,593.79 L672.79,562.35 L673.86,562.53 L674.93,562.88 L676.00,562.57" fill="none" stroke="#e0e0e0" stroke-width="1.4"/>
<text x="539" y="542" fill="#666" font-family="monospace" font-size="9">16</text>
</svg>
