<svg xmlns="http://www.w3.org/2000/svg" width="760" height="760" viewBox="0 0 760 760">
<rect width="760" height="760" fill="#161616"/>
<text x="24" y="32" fill="#dedede" font-family="monospace" font-size="15">S3G VOT / RESIDUAL COMB</text>
<text x="684" y="724" text-anchor="end" fill="#858585" font-family="monospace" font-size="11">U / COMB MEMORY</text>
<text x="24" y="72" fill="#858585" font-family="monospace" font-size="11">V / PREDICTOR LAG</text>
<text x="76" y="724" fill="#858585" font-family="monospace" font-size="11">ENERGY / COMB-MEMORY RISE</text>
<rect x="76" y="72" width="152" height="152" fill="#0b0b0b" stroke="#444"/>
<line x1="84" y1="148.00" x2="220" y2="148.00" stroke="#292929"/>
<path d="M84.00,147.09 L85.07,146.14 L86.14,145.37 L87.21,144.86 L88.28,144.69 L89.35,144.81 L90.43,145.02 L91.50,145.09 L92.57,144.87 L93.64,144.34 L94.71,143.65 L95.78,142.92 L96.85,142.23 L97.92,141.68 L98.99,141.38 L100.06,141.44 L101.13,141.90 L102.20,142.62 L103.28,143.27 L104.35,143.68 L105.42,143.76 L106.49,143.48 L107.56,142.98 L108.63,142.47 L109.70,142.06 L110.77,141.84 L111.84,141.92 L112.91,142.37 L113.98,143.08 L115.06,143.81 L116.13,144.35 L117.20,144.59 L118.27,144.42 L119.34,143.90 L120.41,143.25 L121.48,142.64 L122.55,142.13 L123.62,141.82 L124.69,141.79 L125.76,142.10 L126.83,142.65 L127.91,143.20 L128.98,143.55 L130.05,143.56 L131.12,143.23 L132.19,142.72 L133.26,142.18 L134.33,141.70 L135.40,141.38 L136.47,141.33 L137.54,141.68 L138.61,142.45 L139.69,143.41 L140.76,144.27 L141.83,144.92 L142.90,145.28 L143.97,145.31 L145.04,145.12 L146.11,144.92 L147.18,144.88 L148.25,145.15 L149.32,145.81 L150.39,146.80 L151.46,147.87 L152.54,148.91 L153.61,149.86 L154.68,150.63 L155.75,151.14 L156.82,151.31 L157.89,151.19 L158.96,150.98 L160.03,150.91 L161.10,151.13 L162.17,151.66 L163.24,152.35 L164.31,153.08 L165.39,153.77 L166.46,154.32 L167.53,154.62 L168.60,154.56 L169.67,154.10 L170.74,153.38 L171.81,152.73 L172.88,152.32 L173.95,152.24 L175.02,152.52 L176.09,153.02 L177.17,153.53 L178.24,153.94 L179.31,154.16 L180.38,154.08 L181.45,153.63 L182.52,152.92 L183.59,152.19 L184.66,151.65 L185.73,151.41 L186.80,151.58 L187.87,152.10 L188.94,152.75 L190.02,153.36 L191.09,153.87 L192.16,154.18 L193.23,154.21 L194.30,153.90 L195.37,153.35 L196.44,152.80 L197.51,152.45 L198.58,152.44 L199.65,152.77 L200.72,153.28 L201.80,153.82 L202.87,154.30 L203.94,154.62 L205.01,154.67 L206.08,154.32 L207.15,153.55 L208.22,152.59 L209.29,151.73 L210.36,151.08 L211.43,150.72 L212.50,150.69 L213.57,150.88 L214.65,151.08 L215.72,151.12 L216.79,150.85 L217.86,150.19 L218.93,149.20 L220.00,148.13" fill="none" stroke="#e0e0e0" stroke-width="1.4"/>
<text x="83" y="86" fill="#666" font-family="monospace" font-size="9">01</text>
<rect x="228" y="72" width="152" height="152" fill="#0b0b0b" stroke="#444"/>
<line x1="236" y1="148.00" x2="372" y2="148.00" stroke="#292929"/>
<path d="M236.00,144.15 L237.07,142.96 L238.14,142.03 L239.21,141.47 L240.28,141.46 L241.35,142.19 L242.43,143.29 L243.50,143.79 L244.57,143.19 L245.64,141.74 L246.71,140.23 L247.78,139.07 L248.85,138.16 L249.92,137.48 L250.99,137.15 L252.06,137.43 L253.13,138.79 L254.20,141.11 L255.28,143.02 L256.35,143.81 L257.42,143.43 L258.49,141.92 L259.56,140.05 L260.63,138.73 L261.70,138.01 L262.77,137.75 L263.84,138.10 L264.91,139.45 L265.98,141.75 L267.06,143.82 L268.13,144.91 L269.20,145.00 L270.27,143.85 L271.34,141.64 L272.41,139.71 L273.48,138.56 L274.55,137.87 L275.62,137.52 L276.69,137.65 L277.76,138.55 L278.83,140.27 L279.91,141.97 L280.98,142.72 L282.05,142.26 L283.12,140.78 L284.19,139.21 L285.26,138.16 L286.33,137.49 L287.40,137.12 L288.47,137.17 L289.54,138.02 L290.61,140.18 L291.69,143.05 L292.76,145.10 L293.83,146.16 L294.90,146.36 L295.97,145.61 L297.04,144.19 L298.11,143.03 L299.18,142.69 L300.25,143.37 L301.32,145.37 L302.39,148.15 L303.46,150.34 L304.54,151.85 L305.61,153.04 L306.68,153.97 L307.75,154.53 L308.82,154.54 L309.89,153.81 L310.96,152.71 L312.03,152.21 L313.10,152.81 L314.17,154.26 L315.24,155.77 L316.31,156.93 L317.39,157.84 L318.46,158.52 L319.53,158.85 L320.60,158.57 L321.67,157.21 L322.74,154.89 L323.81,152.98 L324.88,152.19 L325.95,152.57 L327.02,154.08 L328.09,155.95 L329.17,157.27 L330.24,157.99 L331.31,158.25 L332.38,157.90 L333.45,156.55 L334.52,154.25 L335.59,152.18 L336.66,151.09 L337.73,151.00 L338.80,152.15 L339.87,154.36 L340.94,156.29 L342.02,157.44 L343.09,158.13 L344.16,158.48 L345.23,158.35 L346.30,157.45 L347.37,155.73 L348.44,154.03 L349.51,153.28 L350.58,153.74 L351.65,155.22 L352.72,156.79 L353.80,157.84 L354.87,158.51 L355.94,158.88 L357.01,158.83 L358.08,157.98 L359.15,155.82 L360.22,152.95 L361.29,150.90 L362.36,149.84 L363.43,149.64 L364.50,150.39 L365.57,151.81 L366.65,152.97 L367.72,153.31 L368.79,152.63 L369.86,150.63 L370.93,147.85 L372.00,145.66" fill="none" stroke="#e0e0e0" stroke-width="1.4"/>
<text x="235" y="86" fill="#666" font-family="monospace" font-size="9">02</text>
<rect x="380" y="72" width="152" height="152" fill="#0b0b0b" stroke="#444"/>
<line x1="388" y1="148.00" x2="524" y2="148.00" stroke="#292929"/>
<path d="M388.00,136.03 L389.07,135.25 L390.14,134.64 L391.21,134.22 L392.28,134.18 L393.35,135.30 L394.43,138.71 L395.50,141.78 L396.57,140.72 L397.64,136.56 L398.71,133.53 L399.78,132.31 L400.85,131.66 L401.92,131.20 L402.99,130.93 L404.06,131.05 L405.13,132.82 L406.20,139.75 L407.28,147.74 L408.35,150.46 L409.42,149.12 L410.49,143.07 L411.56,135.42 L412.63,132.03 L413.70,131.04 L414.77,130.79 L415.84,131.16 L416.91,133.44 L417.98,140.79 L419.06,148.97 L420.13,152.11 L421.20,152.11 L422.27,148.47 L423.34,139.36 L424.41,132.92 L425.48,131.20 L426.55,130.68 L427.62,130.49 L428.69,130.63 L429.76,131.73 L430.83,135.76 L431.91,142.32 L432.98,145.67 L434.05,143.93 L435.12,137.88 L436.19,133.00 L437.26,131.41 L438.33,130.95 L439.40,130.78 L440.47,130.88 L441.54,131.66 L442.61,135.65 L443.69,145.90 L444.76,152.74 L445.83,154.73 L446.90,154.62 L447.97,151.90 L449.04,145.29 L450.11,139.31 L451.18,137.30 L452.25,138.34 L453.32,143.99 L454.39,153.81 L455.46,158.58 L456.54,159.97 L457.61,160.75 L458.68,161.36 L459.75,161.78 L460.82,161.82 L461.89,160.70 L462.96,157.29 L464.03,154.22 L465.10,155.28 L466.17,159.44 L467.24,162.47 L468.31,163.69 L469.39,164.34 L470.46,164.80 L471.53,165.07 L472.60,164.95 L473.67,163.18 L474.74,156.25 L475.81,148.26 L476.88,145.54 L477.95,146.88 L479.02,152.93 L480.09,160.58 L481.17,163.97 L482.24,164.96 L483.31,165.21 L484.38,164.84 L485.45,162.56 L486.52,155.21 L487.59,147.03 L488.66,143.89 L489.73,143.89 L490.80,147.53 L491.87,156.64 L492.94,163.08 L494.02,164.80 L495.09,165.32 L496.16,165.51 L497.23,165.37 L498.30,164.27 L499.37,160.24 L500.44,153.68 L501.51,150.33 L502.58,152.07 L503.65,158.12 L504.72,163.00 L505.80,164.59 L506.87,165.05 L507.94,165.22 L509.01,165.12 L510.08,164.34 L511.15,160.35 L512.22,150.10 L513.29,143.26 L514.36,141.27 L515.43,141.38 L516.50,144.10 L517.57,150.71 L518.65,156.69 L519.72,158.70 L520.79,157.66 L521.86,152.01 L522.93,142.19 L524.00,137.42" fill="none" stroke="#e0e0e0" stroke-width="1.4"/>
<text x="387" y="86" fill="#666" font-family="monospace" font-size="9">03</text>
<rect x="532" y="72" width="152" height="152" fill="#0b0b0b" stroke="#444"/>
<line x1="540" y1="148.00" x2="676" y2="148.00" stroke="#292929"/>
<path d="M540.00,131.66 L541.07,131.34 L542.14,131.09 L543.21,130.89 L544.28,130.83 L545.35,131.58 L546.43,135.42 L547.50,140.54 L548.57,139.73 L549.64,133.96 L550.71,130.47 L551.78,129.59 L552.85,129.29 L553.92,129.09 L554.99,128.94 L556.06,128.93 L557.13,130.05 L558.20,138.34 L559.28,151.81 L560.35,156.25 L561.42,154.80 L562.49,146.01 L563.56,133.53 L564.63,129.14 L565.70,128.33 L566.77,128.17 L567.84,128.38 L568.91,130.18 L569.98,139.62 L571.06,153.26 L572.13,157.80 L573.20,157.92 L574.27,153.73 L575.34,139.64 L576.41,129.75 L577.48,128.14 L578.55,127.93 L579.62,127.92 L580.69,128.05 L581.76,128.77 L582.83,132.83 L583.91,142.85 L584.98,149.03 L586.05,146.90 L587.12,137.33 L588.19,130.27 L589.26,128.81 L590.33,128.66 L591.40,128.71 L592.47,128.85 L593.54,129.32 L594.61,132.71 L595.69,147.64 L596.76,158.54 L597.83,160.84 L598.90,160.71 L599.97,157.62 L601.04,147.57 L602.11,137.24 L603.18,133.99 L604.25,134.78 L605.32,141.77 L606.39,157.27 L607.46,163.44 L608.54,164.34 L609.61,164.66 L610.68,164.91 L611.75,165.11 L612.82,165.17 L613.89,164.42 L614.96,160.58 L616.03,155.46 L617.10,156.27 L618.17,162.04 L619.24,165.53 L620.31,166.41 L621.39,166.71 L622.46,166.91 L623.53,167.06 L624.60,167.07 L625.67,165.95 L626.74,157.66 L627.81,144.19 L628.88,139.75 L629.95,141.20 L631.02,149.99 L632.09,162.47 L633.17,166.86 L634.24,167.67 L635.31,167.83 L636.38,167.62 L637.45,165.82 L638.52,156.38 L639.59,142.74 L640.66,138.20 L641.73,138.08 L642.80,142.27 L643.87,156.36 L644.94,166.25 L646.02,167.86 L647.09,168.07 L648.16,168.08 L649.23,167.95 L650.30,167.23 L651.37,163.17 L652.44,153.15 L653.51,146.97 L654.58,149.10 L655.65,158.67 L656.72,165.73 L657.80,167.19 L658.87,167.34 L659.94,167.29 L661.01,167.15 L662.08,166.68 L663.15,163.29 L664.22,148.36 L665.29,137.46 L666.36,135.16 L667.43,135.29 L668.50,138.38 L669.57,148.43 L670.65,158.76 L671.72,162.01 L672.79,161.22 L673.86,154.23 L674.93,138.73 L676.00,132.56" fill="none" stroke="#e0e0e0" stroke-width="1.4"/>
<text x="539" y="86" fill="#666" font-family="monospace" font-size="9">04</text>
<rect x="76" y="224" width="152" height="152" fill="#0b0b0b" stroke="#444"/>
<line x1="84" y1="300.00" x2="220" y2="300.00" stroke="#292929"/>
<path d="M84.00,299.15 L85.07,298.05 L86.14,297.24 L87.21,296.83 L88.28,296.86 L89.35,297.22 L90.43,297.54 L91.50,297.41 L92.57,296.75 L93.64,295.75 L94.71,294.75 L95.78,293.96 L96.85,293.51 L97.92,293.54 L98.99,294.11 L100.06,294.98 L101.13,295.64 L102.20,295.83 L103.28,295.49 L104.35,294.73 L105.42,293.95 L106.49,293.46 L107.56,293.39 L108.63,293.87 L109.70,294.81 L110.77,295.79 L111.84,296.45 L112.91,296.64 L113.98,296.27 L115.06,295.45 L116.13,294.62 L117.20,294.10 L118.27,294.00 L119.34,294.40 L120.41,295.21 L121.48,296.01 L122.55,296.45 L123.62,296.36 L124.69,295.69 L125.76,294.73 L126.83,293.90 L127.91,293.36 L128.98,293.23 L130.05,293.60 L131.12,294.40 L132.19,295.23 L133.26,295.70 L134.33,295.65 L135.40,295.09 L136.47,294.34 L137.54,293.76 L138.61,293.54 L139.69,293.83 L140.76,294.73 L141.83,295.98 L142.90,297.08 L143.97,297.83 L145.04,298.16 L146.11,298.03 L147.18,297.63 L148.25,297.36 L149.32,297.55 L150.39,298.34 L151.46,299.58 L152.54,300.85 L153.61,301.95 L154.68,302.76 L155.75,303.17 L156.82,303.14 L157.89,302.78 L158.96,302.46 L160.03,302.59 L161.10,303.25 L162.17,304.25 L163.24,305.25 L164.31,306.04 L165.39,306.49 L166.46,306.46 L167.53,305.89 L168.60,305.02 L169.67,304.36 L170.74,304.17 L171.81,304.51 L172.88,305.27 L173.95,306.05 L175.02,306.54 L176.09,306.61 L177.17,306.13 L178.24,305.19 L179.31,304.21 L180.38,303.55 L181.45,303.36 L182.52,303.73 L183.59,304.55 L184.66,305.38 L185.73,305.90 L186.80,306.00 L187.87,305.60 L188.94,304.79 L190.02,303.99 L191.09,303.55 L192.16,303.64 L193.23,304.31 L194.30,305.27 L195.37,306.10 L196.44,306.64 L197.51,306.77 L198.58,306.40 L199.65,305.60 L200.72,304.77 L201.80,304.30 L202.87,304.35 L203.94,304.91 L205.01,305.66 L206.08,306.24 L207.15,306.46 L208.22,306.17 L209.29,305.27 L210.36,304.02 L211.43,302.92 L212.50,302.17 L213.57,301.84 L214.65,301.97 L215.72,302.37 L216.79,302.64 L217.86,302.45 L218.93,301.66 L220.00,300.42" fill="none" stroke="#e0e0e0" stroke-width="1.4"/>
<text x="83" y="238" fill="#666" font-family="monospace" font-size="9">05</text>
<rect x="228" y="224" width="152" height="152" fill="#0b0b0b" stroke="#444"/>
<line x1="236" y1="300.00" x2="372" y2="300.00" stroke="#292929"/>
<path d="M236.00,296.28 L237.07,294.64 L238.14,293.58 L239.21,293.06 L240.28,293.28 L241.35,294.52 L242.43,296.14 L243.50,296.47 L244.57,294.97 L245.64,292.55 L246.71,290.64 L247.78,289.45 L248.85,288.86 L249.92,288.98 L250.99,290.34 L252.06,293.19 L253.13,295.55 L254.20,296.17 L255.28,295.12 L256.35,292.61 L257.42,290.25 L258.49,289.08 L259.56,288.96 L260.63,290.08 L261.70,292.89 L262.77,295.91 L263.84,297.48 L264.91,297.76 L265.98,296.61 L267.06,293.79 L268.13,291.07 L269.20,289.79 L270.27,289.61 L271.34,290.59 L272.41,292.99 L273.48,295.64 L274.55,296.91 L275.62,296.60 L276.69,294.47 L277.76,291.43 L278.83,289.47 L279.91,288.59 L280.98,288.44 L282.05,289.23 L283.12,291.42 L284.19,294.21 L285.26,295.70 L286.33,295.47 L287.40,293.55 L288.47,291.07 L289.54,289.59 L290.61,289.15 L291.69,289.72 L292.76,291.90 L293.83,295.66 L294.90,298.48 L295.97,299.84 L297.04,300.23 L298.11,299.56 L299.18,297.77 L300.25,296.15 L301.32,296.08 L302.39,297.94 L303.46,301.13 L304.54,303.72 L305.61,305.36 L306.68,306.42 L307.75,306.94 L308.82,306.72 L309.89,305.48 L310.96,303.86 L312.03,303.53 L313.10,305.03 L314.17,307.45 L315.24,309.36 L316.31,310.55 L317.39,311.14 L318.46,311.02 L319.53,309.66 L320.60,306.81 L321.67,304.45 L322.74,303.83 L323.81,304.88 L324.88,307.39 L325.95,309.75 L327.02,310.92 L328.09,311.04 L329.17,309.92 L330.24,307.11 L331.31,304.09 L332.38,302.52 L333.45,302.24 L334.52,303.39 L335.59,306.21 L336.66,308.93 L337.73,310.21 L338.80,310.39 L339.87,309.41 L340.94,307.01 L342.02,304.36 L343.09,303.09 L344.16,303.40 L345.23,305.53 L346.30,308.57 L347.37,310.53 L348.44,311.41 L349.51,311.56 L350.58,310.77 L351.65,308.58 L352.72,305.79 L353.80,304.30 L354.87,304.53 L355.94,306.45 L357.01,308.93 L358.08,310.41 L359.15,310.85 L360.22,310.28 L361.29,308.10 L362.36,304.34 L363.43,301.52 L364.50,300.16 L365.57,299.77 L366.65,300.44 L367.72,302.23 L368.79,303.85 L369.86,303.92 L370.93,302.06 L372.00,298.87" fill="none" stroke="#e0e0e0" stroke-width="1.4"/>
<text x="235" y="238" fill="#666" font-family="monospace" font-size="9">06</text>
<rect x="380" y="224" width="152" height="152" fill="#0b0b0b" stroke="#444"/>
<line x1="388" y1="300.00" x2="524" y2="300.00" stroke="#292929"/>
<path d="M388.00,288.19 L389.07,286.47 L390.14,285.72 L391.21,285.30 L392.28,285.25 L393.35,286.48 L394.43,291.75 L395.50,296.79 L396.57,294.56 L397.64,287.57 L398.71,283.80 L399.78,282.66 L400.85,282.18 L401.92,282.09 L402.99,282.96 L404.06,288.96 L405.13,300.34 L406.20,304.32 L407.28,302.95 L408.35,295.19 L409.42,285.52 L410.49,282.32 L411.56,281.80 L412.63,282.70 L413.70,288.28 L414.77,300.69 L415.84,306.04 L416.91,306.86 L417.98,305.60 L419.06,298.49 L420.13,286.54 L421.20,282.52 L422.27,281.93 L423.34,282.76 L424.41,287.45 L425.48,298.35 L426.55,304.28 L427.62,304.78 L428.69,300.33 L429.76,288.63 L430.83,282.55 L431.91,281.41 L432.98,281.27 L434.05,281.77 L435.12,284.61 L436.19,294.30 L437.26,302.14 L438.33,303.10 L439.40,298.09 L440.47,287.98 L441.54,283.28 L442.61,282.44 L443.69,282.75 L444.76,285.05 L445.83,295.63 L446.90,306.69 L447.97,309.33 L449.04,309.86 L450.11,309.20 L451.18,304.87 L452.25,296.09 L453.32,292.11 L454.39,295.01 L455.46,305.07 L456.54,311.81 L457.61,313.53 L458.68,314.28 L459.75,314.70 L460.82,314.75 L461.89,313.52 L462.96,308.25 L464.03,303.21 L465.10,305.44 L466.17,312.43 L467.24,316.20 L468.31,317.34 L469.39,317.82 L470.46,317.91 L471.53,317.04 L472.60,311.04 L473.67,299.66 L474.74,295.68 L475.81,297.05 L476.88,304.81 L477.95,314.48 L479.02,317.68 L480.09,318.20 L481.17,317.30 L482.24,311.72 L483.31,299.31 L484.38,293.96 L485.45,293.14 L486.52,294.40 L487.59,301.51 L488.66,313.46 L489.73,317.48 L490.80,318.07 L491.87,317.24 L492.94,312.55 L494.02,301.65 L495.09,295.72 L496.16,295.22 L497.23,299.67 L498.30,311.37 L499.37,317.45 L500.44,318.59 L501.51,318.73 L502.58,318.23 L503.65,315.39 L504.72,305.70 L505.80,297.86 L506.87,296.90 L507.94,301.91 L509.01,312.02 L510.08,316.72 L511.15,317.56 L512.22,317.25 L513.29,314.95 L514.36,304.37 L515.43,293.31 L516.50,290.67 L517.57,290.14 L518.65,290.80 L519.72,295.13 L520.79,303.91 L521.86,307.89 L522.93,304.99 L524.00,294.93" fill="none" stroke="#e0e0e0" stroke-width="1.4"/>
<text x="387" y="238" fill="#666" font-family="monospace" font-size="9">07</text>
<rect x="532" y="224" width="152" height="152" fill="#0b0b0b" stroke="#444"/>
<line x1="540" y1="300.00" x2="676" y2="300.00" stroke="#292929"/>
<path d="M540.00,284.11 L541.07,282.76 L542.14,282.44 L543.21,282.22 L544.28,282.09 L545.35,282.62 L546.43,288.18 L547.50,297.85 L548.57,296.66 L549.64,286.28 L550.71,281.49 L551.78,280.74 L552.85,280.50 L553.92,280.37 L554.99,280.60 L556.06,285.36 L557.13,303.63 L558.20,310.67 L559.28,310.00 L560.35,300.72 L561.42,284.55 L562.49,280.24 L563.56,279.70 L564.63,280.05 L565.70,284.45 L566.77,303.36 L567.84,311.82 L568.91,312.71 L569.98,312.03 L571.06,305.38 L572.13,285.92 L573.20,279.98 L574.27,279.39 L575.34,279.77 L576.41,283.51 L577.48,299.69 L578.55,309.86 L579.62,311.08 L580.69,307.33 L581.76,290.14 L582.83,280.35 L583.91,279.42 L584.98,279.40 L586.05,279.63 L587.12,281.32 L588.19,293.31 L589.26,307.42 L590.33,309.79 L591.40,304.56 L592.47,288.48 L593.54,281.35 L594.61,280.59 L595.69,280.74 L596.76,281.95 L597.83,293.04 L598.90,311.86 L599.97,314.96 L601.04,315.36 L602.11,315.07 L603.18,311.29 L604.25,297.42 L605.32,289.16 L606.39,291.14 L607.46,305.40 L608.54,315.89 L609.61,317.24 L610.68,317.56 L611.75,317.78 L612.82,317.91 L613.89,317.38 L614.96,311.82 L616.03,302.15 L617.10,303.34 L618.17,313.72 L619.24,318.51 L620.31,319.26 L621.39,319.50 L622.46,319.63 L623.53,319.40 L624.60,314.64 L625.67,296.37 L626.74,289.33 L627.81,290.00 L628.88,299.28 L629.95,315.45 L631.02,319.76 L632.09,320.30 L633.17,319.95 L634.24,315.55 L635.31,296.64 L636.38,288.18 L637.45,287.29 L638.52,287.97 L639.59,294.62 L640.66,314.08 L641.73,320.02 L642.80,320.61 L643.87,320.23 L644.94,316.49 L646.02,300.31 L647.09,290.14 L648.16,288.92 L649.23,292.67 L650.30,309.86 L651.37,319.65 L652.44,320.58 L653.51,320.60 L654.58,320.37 L655.65,318.68 L656.72,306.69 L657.80,292.58 L658.87,290.21 L659.94,295.44 L661.01,311.52 L662.08,318.65 L663.15,319.41 L664.22,319.26 L665.29,318.05 L666.36,306.96 L667.43,288.14 L668.50,285.04 L669.57,284.64 L670.65,284.93 L671.72,288.71 L672.79,302.58 L673.86,310.84 L674.93,308.86 L676.00,294.60" fill="none" stroke="#e0e0e0" stroke-width="1.4"/>
<text x="539" y="238" fill="#666" font-family="monospace" font-size="9">08</text>
<rect x="76" y="376" width="152" height="152" fill="#0b0b0b" stroke="#444"/>
<line x1="84" y1="452.00" x2="220" y2="452.00" stroke="#292929"/>
<path d="M84.00,451.28 L85.07,450.04 L86.14,449.21 L87.21,448.89 L88.28,449.01 L89.35,449.35 L90.43,449.46 L91.50,449.00 L92.57,448.00 L93.64,446.88 L94.71,446.04 L95.78,445.71 L96.85,445.94 L97.92,446.62 L98.99,447.36 L100.06,447.63 L101.13,447.23 L102.20,446.37 L103.28,445.56 L104.35,445.20 L105.42,445.48 L106.49,446.36 L107.56,447.45 L108.63,448.17 L109.70,448.26 L110.77,447.73 L111.84,446.86 L112.91,446.19 L113.98,446.10 L115.06,446.66 L116.13,447.62 L117.20,448.47 L118.27,448.77 L119.34,448.40 L120.41,447.46 L121.48,446.46 L122.55,445.90 L123.62,445.95 L124.69,446.55 L125.76,447.38 L126.83,447.92 L127.91,447.83 L128.98,447.08 L130.05,446.05 L131.12,445.29 L132.19,445.08 L133.26,445.48 L134.33,446.37 L135.40,447.33 L136.47,447.83 L137.54,447.68 L138.61,447.03 L139.69,446.34 L140.76,446.11 L141.83,446.56 L142.90,447.67 L143.97,449.06 L145.04,450.12 L146.11,450.63 L147.18,450.62 L148.25,450.28 L149.32,450.04 L150.39,450.35 L151.46,451.35 L152.54,452.72 L153.61,453.96 L154.68,454.79 L155.75,455.11 L156.82,454.99 L157.89,454.65 L158.96,454.54 L160.03,455.00 L161.10,456.00 L162.17,457.12 L163.24,457.96 L164.31,458.29 L165.39,458.06 L166.46,457.38 L167.53,456.64 L168.60,456.37 L169.67,456.77 L170.74,457.63 L171.81,458.44 L172.88,458.80 L173.95,458.52 L175.02,457.64 L176.09,456.55 L177.17,455.83 L178.24,455.74 L179.31,456.27 L180.38,457.14 L181.45,457.81 L182.52,457.90 L183.59,457.34 L184.66,456.38 L185.73,455.53 L186.80,455.23 L187.87,455.60 L188.94,456.54 L190.02,457.54 L191.09,458.10 L192.16,458.05 L193.23,457.45 L194.30,456.62 L195.37,456.08 L196.44,456.17 L197.51,456.92 L198.58,457.95 L199.65,458.71 L200.72,458.92 L201.80,458.52 L202.87,457.63 L203.94,456.67 L205.01,456.17 L206.08,456.32 L207.15,456.97 L208.22,457.66 L209.29,457.89 L210.36,457.44 L211.43,456.33 L212.50,454.94 L213.57,453.88 L214.65,453.37 L215.72,453.38 L216.79,453.72 L217.86,453.96 L218.93,453.65 L220.00,452.65" fill="none" stroke="#e0e0e0" stroke-width="1.4"/>
<text x="83" y="390" fill="#666" font-family="monospace" font-size="9">09</text>
<rect x="228" y="376" width="152" height="152" fill="#0b0b0b" stroke="#444"/>
<line x1="236" y1="452.00" x2="372" y2="452.00" stroke="#292929"/>
<path d="M236.00,448.60 L237.07,446.67 L238.14,445.53 L239.21,445.11 L240.28,445.36 L241.35,446.10 L242.43,446.65 L243.50,446.08 L244.57,444.42 L245.64,442.67 L246.71,441.49 L247.78,441.05 L248.85,441.46 L249.92,442.81 L250.99,444.76 L252.06,445.84 L253.13,445.17 L254.20,443.30 L255.28,441.59 L256.35,440.92 L257.42,441.52 L258.49,443.60 L259.56,446.49 L260.63,448.37 L261.70,448.62 L262.77,447.37 L263.84,445.09 L264.91,443.25 L265.98,442.89 L267.06,444.15 L268.13,446.55 L269.20,448.61 L270.27,449.30 L271.34,448.42 L272.41,446.02 L273.48,443.36 L274.55,441.97 L275.62,442.01 L276.69,443.33 L277.76,445.43 L278.83,446.93 L279.91,446.78 L280.98,444.93 L282.05,442.47 L283.12,440.89 L284.19,440.51 L285.26,441.26 L286.33,443.19 L287.40,445.66 L288.47,447.06 L289.54,446.73 L290.61,445.05 L291.69,443.28 L292.76,442.63 L293.83,443.50 L294.90,446.08 L295.97,449.46 L297.04,451.74 L298.11,452.64 L299.18,452.48 L300.25,451.54 L301.32,450.60 L302.39,450.92 L303.46,452.88 L304.54,455.40 L305.61,457.33 L306.68,458.47 L307.75,458.89 L308.82,458.64 L309.89,457.90 L310.96,457.35 L312.03,457.92 L313.10,459.58 L314.17,461.33 L315.24,462.51 L316.31,462.95 L317.39,462.54 L318.46,461.19 L319.53,459.24 L320.60,458.16 L321.67,458.83 L322.74,460.70 L323.81,462.41 L324.88,463.08 L325.95,462.48 L327.02,460.40 L328.09,457.51 L329.17,455.63 L330.24,455.38 L331.31,456.63 L332.38,458.91 L333.45,460.75 L334.52,461.11 L335.59,459.85 L336.66,457.45 L337.73,455.39 L338.80,454.70 L339.87,455.58 L340.94,457.98 L342.02,460.64 L343.09,462.03 L344.16,461.99 L345.23,460.67 L346.30,458.57 L347.37,457.07 L348.44,457.22 L349.51,459.07 L350.58,461.53 L351.65,463.11 L352.72,463.49 L353.80,462.74 L354.87,460.81 L355.94,458.34 L357.01,456.94 L358.08,457.27 L359.15,458.95 L360.22,460.72 L361.29,461.37 L362.36,460.50 L363.43,457.92 L364.50,454.54 L365.57,452.26 L366.65,451.36 L367.72,451.52 L368.79,452.46 L369.86,453.40 L370.93,453.08 L372.00,451.12" fill="none" stroke="#e0e0e0" stroke-width="1.4"/>
<text x="235" y="390" fill="#666" font-family="monospace" font-size="9">10</text>
<rect x="380" y="376" width="152" height="152" fill="#0b0b0b" stroke="#444"/>
<line x1="388" y1="452.00" x2="524" y2="452.00" stroke="#292929"/>
<path d="M388.00,439.98 L389.07,438.07 L390.14,437.15 L391.21,436.78 L392.28,436.83 L393.35,437.32 L394.43,437.96 L395.50,437.70 L396.57,436.30 L397.64,434.91 L398.71,434.04 L399.78,433.68 L400.85,433.86 L401.92,434.90 L402.99,437.58 L404.06,440.62 L405.13,440.61 L406.20,437.80 L407.28,435.25 L408.35,434.31 L409.42,435.13 L410.49,438.98 L411.56,446.78 L412.63,453.04 L413.70,454.64 L414.77,452.47 L415.84,447.02 L416.91,441.71 L417.98,440.08 L419.06,442.63 L420.13,448.68 L421.20,454.04 L422.27,455.89 L423.34,454.42 L424.41,448.80 L425.48,441.08 L426.55,436.85 L427.62,436.26 L428.69,438.43 L429.76,443.12 L430.83,447.35 L431.91,447.50 L432.98,442.99 L434.05,437.24 L435.12,434.27 L436.19,433.57 L437.26,434.33 L438.33,437.04 L439.40,442.28 L440.47,446.68 L441.54,446.71 L442.61,442.89 L443.69,438.84 L444.76,437.28 L445.83,438.50 L446.90,443.82 L447.97,452.98 L449.04,459.08 L450.11,461.07 L451.18,461.01 L452.25,459.45 L453.32,457.29 L454.39,457.26 L455.46,460.49 L456.54,464.02 L457.61,465.93 L458.68,466.85 L459.75,467.22 L460.82,467.17 L461.89,466.68 L462.96,466.04 L464.03,466.30 L465.10,467.70 L466.17,469.09 L467.24,469.96 L468.31,470.32 L469.39,470.14 L470.46,469.10 L471.53,466.42 L472.60,463.38 L473.67,463.39 L474.74,466.20 L475.81,468.75 L476.88,469.69 L477.95,468.87 L479.02,465.02 L480.09,457.22 L481.17,450.96 L482.24,449.36 L483.31,451.53 L484.38,456.98 L485.45,462.29 L486.52,463.92 L487.59,461.37 L488.66,455.32 L489.73,449.96 L490.80,448.11 L491.87,449.58 L492.94,455.20 L494.02,462.92 L495.09,467.15 L496.16,467.74 L497.23,465.57 L498.30,460.88 L499.37,456.65 L500.44,456.50 L501.51,461.01 L502.58,466.76 L503.65,469.73 L504.72,470.43 L505.80,469.67 L506.87,466.96 L507.94,461.72 L509.01,457.32 L510.08,457.29 L511.15,461.11 L512.22,465.16 L513.29,466.72 L514.36,465.50 L515.43,460.18 L516.50,451.02 L517.57,444.92 L518.65,442.93 L519.72,442.99 L520.79,444.55 L521.86,446.71 L522.93,446.74 L524.00,443.51" fill="none" stroke="#e0e0e0" stroke-width="1.4"/>
<text x="387" y="390" fill="#666" font-family="monospace" font-size="9">11</text>
<rect x="532" y="376" width="152" height="152" fill="#0b0b0b" stroke="#444"/>
<line x1="540" y1="452.00" x2="676" y2="452.00" stroke="#292929"/>
<path d="M540.00,435.07 L541.07,433.77 L542.14,433.27 L543.21,433.02 L544.28,432.92 L545.35,433.03 L546.43,433.34 L547.50,433.29 L548.57,432.61 L549.64,431.94 L550.71,431.54 L551.78,431.32 L552.85,431.28 L553.92,431.67 L554.99,433.28 L556.06,436.11 L557.13,436.96 L558.20,434.91 L559.28,432.80 L560.35,431.99 L561.42,432.60 L562.49,436.25 L563.56,445.87 L564.63,455.58 L565.70,458.84 L566.77,457.01 L567.84,450.65 L568.91,443.43 L569.98,440.64 L571.06,443.40 L572.13,451.09 L573.20,458.21 L574.27,460.85 L575.34,459.59 L576.41,453.13 L577.48,442.49 L578.55,435.95 L579.62,434.50 L580.69,436.42 L581.76,441.64 L582.83,447.18 L583.91,447.87 L584.98,442.41 L586.05,435.41 L587.12,432.09 L588.19,431.32 L589.26,431.76 L590.33,433.82 L591.40,438.89 L592.47,444.62 L593.54,445.60 L594.61,441.54 L595.69,437.01 L596.76,435.19 L597.83,436.18 L598.90,441.80 L599.97,453.96 L601.04,463.19 L602.11,466.16 L603.18,466.47 L604.25,465.20 L605.32,463.07 L606.39,462.83 L607.46,465.87 L608.54,468.93 L609.61,470.23 L610.68,470.73 L611.75,470.98 L612.82,471.08 L613.89,470.97 L614.96,470.66 L616.03,470.71 L617.10,471.39 L618.17,472.06 L619.24,472.46 L620.31,472.68 L621.39,472.72 L622.46,472.33 L623.53,470.72 L624.60,467.89 L625.67,467.04 L626.74,469.09 L627.81,471.20 L628.88,472.01 L629.95,471.40 L631.02,467.75 L632.09,458.13 L633.17,448.42 L634.24,445.16 L635.31,446.99 L636.38,453.35 L637.45,460.57 L638.52,463.36 L639.59,460.60 L640.66,452.91 L641.73,445.79 L642.80,443.15 L643.87,444.41 L644.94,450.87 L646.02,461.51 L647.09,468.05 L648.16,469.50 L649.23,467.58 L650.30,462.36 L651.37,456.82 L652.44,456.13 L653.51,461.59 L654.58,468.59 L655.65,471.91 L656.72,472.68 L657.80,472.24 L658.87,470.18 L659.94,465.11 L661.01,459.38 L662.08,458.40 L663.15,462.46 L664.22,466.99 L665.29,468.81 L666.36,467.82 L667.43,462.20 L668.50,450.04 L669.57,440.81 L670.65,437.84 L671.72,437.53 L672.79,438.80 L673.86,440.93 L674.93,441.17 L676.00,438.13" fill="none" stroke="#e0e0e0" stroke-width="1.4"/>
<text x="539" y="390" fill="#666" font-family="monospace" font-size="9">12</text>
<rect x="76" y="528" width="152" height="152" fill="#0b0b0b" stroke="#444"/>
<line x1="84" y1="604.00" x2="220" y2="604.00" stroke="#292929"/>
<path d="M84.00,603.13 L85.07,601.99 L86.14,601.28 L87.21,601.13 L88.28,601.29 L89.35,601.35 L90.43,600.96 L91.50,600.11 L92.57,599.08 L93.64,598.31 L94.71,598.09 L95.78,598.40 L96.85,598.86 L97.92,599.04 L98.99,598.71 L100.06,598.03 L101.13,597.39 L102.20,597.22 L103.28,597.66 L104.35,598.46 L105.42,599.14 L106.49,599.32 L107.56,598.98 L108.63,598.44 L109.70,598.16 L110.77,598.43 L111.84,599.17 L112.91,599.98 L113.98,600.40 L115.06,600.23 L116.13,599.61 L117.20,599.00 L118.27,598.79 L119.34,599.13 L120.41,599.77 L121.48,600.25 L122.55,600.19 L123.62,599.58 L124.69,598.74 L125.76,598.13 L126.83,598.06 L127.91,598.50 L128.98,599.07 L130.05,599.31 L131.12,599.02 L132.19,598.33 L133.26,597.65 L134.33,597.42 L135.40,597.81 L136.47,598.59 L137.54,599.32 L138.61,599.61 L139.69,599.40 L140.76,598.99 L141.83,598.84 L142.90,599.29 L143.97,600.29 L145.04,601.46 L146.11,602.36 L147.18,602.72 L148.25,602.66 L149.32,602.57 L150.39,602.86 L151.46,603.69 L152.54,604.87 L153.61,606.01 L154.68,606.72 L155.75,606.87 L156.82,606.71 L157.89,606.65 L158.96,607.04 L160.03,607.89 L161.10,608.92 L162.17,609.69 L163.24,609.91 L164.31,609.60 L165.39,609.14 L166.46,608.96 L167.53,609.29 L168.60,609.97 L169.67,610.61 L170.74,610.78 L171.81,610.34 L172.88,609.54 L173.95,608.86 L175.02,608.68 L176.09,609.02 L177.17,609.56 L178.24,609.84 L179.31,609.57 L180.38,608.83 L181.45,608.02 L182.52,607.60 L183.59,607.77 L184.66,608.39 L185.73,609.00 L186.80,609.21 L187.87,608.87 L188.94,608.23 L190.02,607.75 L191.09,607.81 L192.16,608.42 L193.23,609.26 L194.30,609.87 L195.37,609.94 L196.44,609.50 L197.51,608.93 L198.58,608.69 L199.65,608.98 L200.72,609.67 L201.80,610.35 L202.87,610.58 L203.94,610.19 L205.01,609.41 L206.08,608.68 L207.15,608.39 L208.22,608.60 L209.29,609.01 L210.36,609.16 L211.43,608.71 L212.50,607.71 L213.57,606.54 L214.65,605.64 L215.72,605.28 L216.79,605.34 L217.86,605.43 L218.93,605.14 L220.00,604.31" fill="none" stroke="#e0e0e0" stroke-width="1.4"/>
<text x="83" y="542" fill="#666" font-family="monospace" font-size="9">13</text>
<rect x="228" y="528" width="152" height="152" fill="#0b0b0b" stroke="#444"/>
<line x1="236" y1="604.00" x2="372" y2="604.00" stroke="#292929"/>
<path d="M236.00,600.26 L237.07,598.80 L238.14,597.92 L239.21,597.72 L240.28,597.89 L241.35,597.89 L242.43,597.34 L243.50,596.26 L244.57,595.00 L245.64,594.07 L246.71,593.81 L247.78,594.19 L248.85,594.75 L249.92,594.94 L250.99,594.51 L252.06,593.67 L253.13,592.93 L254.20,592.84 L255.28,593.63 L256.35,594.97 L257.42,596.07 L258.49,596.34 L259.56,595.90 L260.63,595.35 L261.70,595.41 L262.77,596.44 L263.84,598.08 L264.91,599.48 L265.98,600.00 L267.06,599.51 L268.13,598.47 L269.20,597.68 L270.27,597.70 L271.34,598.51 L272.41,599.51 L273.48,599.98 L274.55,599.44 L275.62,598.04 L276.69,596.53 L277.76,595.66 L278.83,595.74 L279.91,596.48 L280.98,597.16 L282.05,597.11 L283.12,596.23 L284.19,595.00 L285.26,594.07 L286.33,593.92 L287.40,594.70 L288.47,595.98 L289.54,596.99 L290.61,597.20 L291.69,596.75 L292.76,596.24 L293.83,596.38 L294.90,597.62 L295.97,599.70 L297.04,601.76 L298.11,603.13 L299.18,603.63 L300.25,603.64 L301.32,603.83 L302.39,604.66 L303.46,606.08 L304.54,607.74 L305.61,609.20 L306.68,610.08 L307.75,610.28 L308.82,610.11 L309.89,610.11 L310.96,610.66 L312.03,611.74 L313.10,613.00 L314.17,613.93 L315.24,614.19 L316.31,613.81 L317.39,613.25 L318.46,613.06 L319.53,613.49 L320.60,614.33 L321.67,615.07 L322.74,615.16 L323.81,614.37 L324.88,613.03 L325.95,611.93 L327.02,611.66 L328.09,612.10 L329.17,612.65 L330.24,612.59 L331.31,611.56 L332.38,609.92 L333.45,608.52 L334.52,608.00 L335.59,608.49 L336.66,609.53 L337.73,610.32 L338.80,610.30 L339.87,609.49 L340.94,608.49 L342.02,608.02 L343.09,608.56 L344.16,609.96 L345.23,611.47 L346.30,612.34 L347.37,612.26 L348.44,611.52 L349.51,610.84 L350.58,610.89 L351.65,611.77 L352.72,613.00 L353.80,613.93 L354.87,614.08 L355.94,613.30 L357.01,612.02 L358.08,611.01 L359.15,610.80 L360.22,611.25 L361.29,611.76 L362.36,611.62 L363.43,610.38 L364.50,608.30 L365.57,606.24 L366.65,604.87 L367.72,604.37 L368.79,604.36 L369.86,604.17 L370.93,603.34 L372.00,601.92" fill="none" stroke="#e0e0e0" stroke-width="1.4"/>
<text x="235" y="542" fill="#666" font-family="monospace" font-size="9">14</text>
<rect x="380" y="528" width="152" height="152" fill="#0b0b0b" stroke="#444"/>
<line x1="388" y1="604.00" x2="524" y2="604.00" stroke="#292929"/>
<path d="M388.00,592.07 L389.07,590.91 L390.14,590.27 L391.21,590.05 L392.28,590.03 L393.35,589.87 L394.43,589.41 L395.50,588.70 L396.57,587.91 L397.64,587.30 L398.71,587.05 L399.78,587.15 L400.85,587.37 L401.92,587.38 L402.99,587.06 L404.06,586.51 L405.13,586.02 L406.20,585.88 L407.28,586.33 L408.35,587.37 L409.42,588.43 L410.49,588.75 L411.56,588.46 L412.63,588.34 L413.70,589.36 L414.77,592.64 L415.84,597.77 L416.91,601.70 L417.98,602.80 L419.06,601.59 L420.13,599.68 L421.20,599.11 L422.27,600.75 L423.34,603.58 L424.41,605.67 L425.48,605.94 L426.55,603.91 L427.62,599.90 L428.69,596.18 L429.76,594.67 L430.83,595.36 L431.91,596.94 L432.98,597.39 L434.05,595.48 L435.12,592.14 L436.19,589.47 L437.26,588.23 L438.33,588.27 L439.40,589.48 L440.47,591.23 L441.54,592.14 L442.61,591.60 L443.69,590.49 L444.76,589.87 L445.83,590.45 L446.90,593.06 L447.97,597.93 L449.04,602.80 L450.11,605.43 L451.18,606.08 L452.25,606.35 L453.32,607.99 L454.39,611.15 L455.46,614.07 L456.54,615.93 L457.61,617.09 L458.68,617.73 L459.75,617.95 L460.82,617.97 L461.89,618.13 L462.96,618.59 L464.03,619.30 L465.10,620.09 L466.17,620.70 L467.24,620.95 L468.31,620.85 L469.39,620.63 L470.46,620.62 L471.53,620.94 L472.60,621.49 L473.67,621.98 L474.74,622.12 L475.81,621.67 L476.88,620.63 L477.95,619.57 L479.02,619.25 L480.09,619.54 L481.17,619.66 L482.24,618.64 L483.31,615.36 L484.38,610.23 L485.45,606.30 L486.52,605.20 L487.59,606.41 L488.66,608.32 L489.73,608.89 L490.80,607.25 L491.87,604.42 L492.94,602.33 L494.02,602.06 L495.09,604.09 L496.16,608.10 L497.23,611.82 L498.30,613.33 L499.37,612.64 L500.44,611.06 L501.51,610.61 L502.58,612.52 L503.65,615.86 L504.72,618.53 L505.80,619.77 L506.87,619.73 L507.94,618.52 L509.01,616.77 L510.08,615.86 L511.15,616.40 L512.22,617.51 L513.29,618.13 L514.36,617.55 L515.43,614.94 L516.50,610.07 L517.57,605.20 L518.65,602.57 L519.72,601.92 L520.79,601.65 L521.86,600.01 L522.93,596.85 L524.00,593.93" fill="none" stroke="#e0e0e0" stroke-width="1.4"/>
<text x="387" y="542" fill="#666" font-family="monospace" font-size="9">15</text>
<rect x="532" y="528" width="152" height="152" fill="#0b0b0b" stroke="#444"/>
<line x1="540" y1="604.00" x2="676" y2="604.00" stroke="#292929"/>
<path d="M540.00,587.38 L541.07,586.70 L542.14,586.37 L543.21,586.18 L544.28,586.02 L545.35,585.78 L546.43,585.50 L547.50,585.21 L548.57,584.92 L549.64,584.68 L550.71,584.51 L551.78,584.41 L552.85,584.33 L553.92,584.20 L554.99,584.02 L556.06,583.82 L557.13,583.63 L558.20,583.52 L559.28,583.58 L560.35,583.92 L561.42,584.40 L562.49,584.56 L563.56,584.45 L564.63,584.54 L565.70,585.59 L566.77,589.22 L567.84,596.51 L568.91,603.05 L569.98,605.09 L571.06,603.61 L572.13,601.24 L573.20,601.05 L574.27,604.25 L575.34,608.80 L576.41,611.61 L577.48,611.86 L578.55,609.29 L579.62,603.68 L580.69,598.06 L581.76,595.85 L582.83,596.98 L583.91,599.25 L584.98,599.48 L586.05,595.89 L587.12,590.38 L588.19,586.80 L589.26,585.56 L590.33,585.66 L591.40,586.73 L592.47,588.25 L593.54,588.82 L594.61,587.87 L595.69,586.69 L596.76,586.24 L597.83,586.79 L598.90,589.08 L599.97,594.40 L601.04,601.00 L602.11,604.77 L603.18,605.53 L604.25,605.94 L605.32,608.93 L606.39,614.53 L607.46,618.84 L608.54,620.62 L609.61,621.30 L610.68,621.63 L611.75,621.82 L612.82,621.98 L613.89,622.22 L614.96,622.50 L616.03,622.79 L617.10,623.08 L618.17,623.32 L619.24,623.49 L620.31,623.59 L621.39,623.67 L622.46,623.80 L623.53,623.98 L624.60,624.18 L625.67,624.37 L626.74,624.48 L627.81,624.42 L628.88,624.08 L629.95,623.60 L631.02,623.44 L632.09,623.55 L633.17,623.46 L634.24,622.41 L635.31,618.78 L636.38,611.49 L637.45,604.95 L638.52,602.91 L639.59,604.39 L640.66,606.76 L641.73,606.95 L642.80,603.75 L643.87,599.20 L644.94,596.39 L646.02,596.14 L647.09,598.71 L648.16,604.32 L649.23,609.94 L650.30,612.15 L651.37,611.02 L652.44,608.75 L653.51,608.52 L654.58,612.11 L655.65,617.62 L656.72,621.20 L657.80,622.44 L658.87,622.34 L659.94,621.27 L661.01,619.75 L662.08,619.18 L663.15,620.13 L664.22,621.31 L665.29,621.76 L666.36,621.21 L667.43,618.92 L668.50,613.60 L669.57,607.00 L670.65,603.23 L671.72,602.47 L672.79,602.06 L673.86,599.07 L674.93,593.47 L676.00,589.16" fill="none" stroke="#e0e0e0" stroke-width="1.4"/>
<text x="539" y="542" fill="#666" font-family="monospace" font-size="9">16</text>
</svg>
