<svg xmlns="http://www.w3.org/2000/svg" width="760" height="760" viewBox="0 0 760 760">
<rect width="760" height="760" fill="#161616"/>
<text x="24" y="32" fill="#dedede" font-family="monospace" font-size="15">S3G VOT / RUNGLER</text>
<text x="684" y="724" text-anchor="end" fill="#858585" font-family="monospace" font-size="11">U / FEEDBACK AMOUNT</text>
<text x="24" y="72" fill="#858585" font-family="monospace" font-size="11">V / REGISTER TAP AND SEED</text>
<text x="76" y="724" fill="#858585" font-family="monospace" font-size="11">ENERGY / FEEDBACK RISE</text>
<rect x="76" y="72" width="152" height="152" fill="#0b0b0b" stroke="#444"/>
<line x1="84" y1="148.00" x2="220" y2="148.00" stroke="#292929"/>
<path d="M84.00,146.83 L85.07,145.97 L86.14,146.76 L87.21,147.06 L88.28,148.68 L89.35,146.60 L90.43,148.24 L91.50,146.68 L92.57,144.98 L93.64,144.38 L94.71,147.26 L95.78,145.47 L96.85,143.33 L97.92,144.27 L98.99,144.97 L100.06,143.04 L101.13,145.80 L102.20,142.77 L103.28,145.76 L104.35,144.61 L105.42,144.15 L106.49,142.74 L107.56,143.01 L108.63,144.47 L109.70,144.99 L110.77,144.04 L111.84,144.10 L112.91,144.51 L113.98,142.00 L115.06,141.99 L116.13,142.16 L117.20,142.97 L118.27,141.11 L119.34,143.00 L120.41,141.18 L121.48,143.37 L122.55,142.22 L123.62,143.04 L124.69,141.15 L125.76,141.82 L126.83,141.22 L127.91,141.39 L128.98,141.84 L130.05,144.59 L131.12,145.12 L132.19,142.33 L133.26,145.40 L134.33,142.57 L135.40,145.29 L136.47,145.67 L137.54,146.47 L138.61,145.58 L139.69,145.03 L140.76,147.19 L141.83,146.91 L142.90,143.97 L143.97,145.11 L145.04,145.33 L146.11,145.50 L147.18,145.49 L148.25,145.06 L149.32,145.49 L150.39,147.05 L151.46,148.75 L152.54,149.25 L153.61,150.18 L154.68,150.14 L155.75,148.10 L156.82,149.04 L157.89,147.32 L158.96,147.61 L160.03,148.06 L161.10,149.89 L162.17,152.04 L163.24,151.20 L164.31,150.87 L165.39,149.18 L166.46,150.83 L167.53,152.78 L168.60,150.01 L169.67,152.98 L170.74,153.86 L171.81,154.00 L172.88,154.06 L173.95,153.52 L175.02,154.24 L176.09,152.95 L177.17,151.40 L178.24,154.68 L179.31,154.02 L180.38,154.55 L181.45,151.94 L182.52,151.44 L183.59,153.16 L184.66,155.15 L185.73,155.01 L186.80,153.85 L187.87,152.83 L188.94,154.34 L190.02,154.82 L191.09,152.55 L192.16,153.48 L193.23,151.85 L194.30,151.19 L195.37,152.48 L196.44,154.00 L197.51,154.57 L198.58,154.31 L199.65,153.25 L200.72,153.00 L201.80,152.47 L202.87,150.79 L203.94,150.12 L205.01,152.35 L206.08,151.91 L207.15,150.64 L208.22,151.76 L209.29,151.37 L210.36,150.31 L211.43,151.96 L212.50,150.07 L213.57,147.87 L214.65,147.88 L215.72,149.65 L216.79,147.80 L217.86,146.88 L218.93,146.92 L220.00,149.01" fill="none" stroke="#e0e0e0" stroke-width="1.4"/>
<text x="83" y="86" fill="#666" font-family="monospace" font-size="9">01</text>
<rect x="228" y="72" width="152" height="152" fill="#0b0b0b" stroke="#444"/>
<line x1="236" y1="148.00" x2="372" y2="148.00" stroke="#292929"/>
<path d="M236.00,145.56 L237.07,143.64 L238.14,143.76 L239.21,145.49 L240.28,150.40 L241.35,149.14 L242.43,151.07 L243.50,149.91 L244.57,142.09 L245.64,141.17 L246.71,147.92 L247.78,147.09 L248.85,140.16 L249.92,140.26 L250.99,143.45 L252.06,138.65 L253.13,146.35 L254.20,139.86 L255.28,145.94 L256.35,145.89 L257.42,144.34 L258.49,140.16 L259.56,139.60 L260.63,145.23 L261.70,146.78 L262.77,146.26 L263.84,145.72 L264.91,144.96 L265.98,140.68 L267.06,137.83 L268.13,138.18 L269.20,140.51 L270.27,135.82 L271.34,138.20 L272.41,135.94 L273.48,139.57 L274.55,139.66 L275.62,140.42 L276.69,137.16 L277.76,137.25 L278.83,137.22 L279.91,135.96 L280.98,136.22 L282.05,143.12 L283.12,147.16 L284.19,139.70 L285.26,144.83 L286.33,139.84 L287.40,143.54 L288.47,146.74 L289.54,148.86 L290.61,148.44 L291.69,144.94 L292.76,149.61 L293.83,148.65 L294.90,141.45 L295.97,141.55 L297.04,142.44 L298.11,142.66 L299.18,141.44 L300.25,141.16 L301.32,141.49 L302.39,143.01 L303.46,150.00 L304.54,151.70 L305.61,152.54 L306.68,152.88 L307.75,149.63 L308.82,148.31 L309.89,144.44 L310.96,144.63 L312.03,145.02 L313.10,148.13 L314.17,155.06 L315.24,155.07 L316.31,153.23 L317.39,148.28 L318.46,148.36 L319.53,157.16 L320.60,149.39 L321.67,155.54 L322.74,157.59 L323.81,157.85 L324.88,158.06 L325.95,158.02 L327.02,158.34 L328.09,158.55 L329.17,150.40 L330.24,159.54 L331.31,160.06 L332.38,158.93 L333.45,153.79 L334.52,151.17 L335.59,152.71 L336.66,159.32 L337.73,160.83 L338.80,159.91 L339.87,154.76 L340.94,158.81 L342.02,159.23 L343.09,155.98 L344.16,155.47 L345.23,152.25 L346.30,150.86 L347.37,150.60 L348.44,158.58 L349.51,159.97 L350.58,159.82 L351.65,157.83 L352.72,156.85 L353.80,155.79 L354.87,150.86 L355.94,149.25 L357.01,152.98 L358.08,156.02 L359.15,151.44 L360.22,154.56 L361.29,154.50 L362.36,151.89 L363.43,154.96 L364.50,153.43 L365.57,146.51 L366.65,144.70 L367.72,147.81 L368.79,145.58 L369.86,143.65 L370.93,144.68 L372.00,148.15" fill="none" stroke="#e0e0e0" stroke-width="1.4"/>
<text x="235" y="86" fill="#666" font-family="monospace" font-size="9">02</text>
<rect x="380" y="72" width="152" height="152" fill="#0b0b0b" stroke="#444"/>
<line x1="388" y1="148.00" x2="524" y2="148.00" stroke="#292929"/>
<path d="M388.00,146.64 L389.07,143.64 L390.14,143.26 L391.21,143.34 L392.28,151.17 L393.35,161.57 L394.43,161.09 L395.50,160.90 L396.57,136.33 L397.64,140.74 L398.71,145.67 L399.78,148.80 L400.85,139.80 L401.92,139.45 L402.99,134.83 L404.06,129.10 L405.13,135.99 L406.20,152.92 L407.28,144.49 L408.35,146.59 L409.42,146.20 L410.49,140.83 L411.56,137.50 L412.63,153.09 L413.70,156.41 L414.77,156.27 L415.84,156.10 L416.91,145.31 L417.98,145.02 L419.06,136.49 L420.13,136.49 L421.20,137.83 L422.27,125.90 L423.34,125.69 L424.41,126.04 L425.48,125.91 L426.55,140.91 L427.62,137.72 L428.69,136.71 L429.76,136.80 L430.83,136.94 L431.91,126.35 L432.98,126.52 L434.05,128.13 L435.12,157.11 L436.19,144.34 L437.26,139.97 L438.33,143.82 L439.40,138.89 L440.47,147.59 L441.54,158.62 L442.61,158.92 L443.69,155.71 L444.76,159.48 L445.83,149.13 L446.90,142.98 L447.97,141.08 L449.04,141.47 L450.11,141.82 L451.18,131.44 L452.25,131.78 L453.32,132.15 L454.39,132.53 L455.46,150.37 L456.54,152.73 L457.61,153.12 L458.68,153.49 L459.75,153.77 L460.82,137.79 L461.89,135.16 L462.96,135.49 L464.03,135.85 L465.10,146.95 L466.17,155.98 L467.24,156.35 L468.31,156.17 L469.39,148.32 L470.46,137.84 L471.53,167.24 L472.60,159.36 L473.67,141.92 L474.74,158.41 L475.81,158.66 L476.88,158.89 L477.95,159.11 L479.02,159.31 L480.09,170.22 L481.17,141.90 L482.24,164.10 L483.31,170.69 L484.38,160.07 L485.45,159.56 L486.52,151.52 L487.59,151.60 L488.66,160.35 L489.73,171.13 L490.80,171.14 L491.87,162.42 L492.94,166.62 L494.02,160.31 L495.09,160.18 L496.16,153.86 L497.23,152.39 L498.30,151.22 L499.37,140.35 L500.44,167.74 L501.51,170.24 L502.58,170.05 L503.65,159.11 L504.72,158.83 L505.80,158.43 L506.87,151.04 L507.94,149.43 L509.01,138.99 L510.08,167.89 L511.15,157.40 L512.22,157.21 L513.29,156.58 L514.36,155.04 L515.43,155.95 L516.50,155.66 L517.57,146.61 L518.65,135.49 L519.72,135.25 L520.79,137.57 L521.86,134.39 L522.93,144.76 L524.00,144.51" fill="none" stroke="#e0e0e0" stroke-width="1.4"/>
<text x="387" y="86" fill="#666" font-family="monospace" font-size="9">03</text>
<rect x="532" y="72" width="152" height="152" fill="#0b0b0b" stroke="#444"/>
<line x1="540" y1="148.00" x2="676" y2="148.00" stroke="#292929"/>
<path d="M540.00,148.70 L541.07,147.58 L542.14,147.31 L543.21,147.05 L544.28,148.42 L545.35,168.26 L546.43,167.90 L547.50,167.72 L548.57,135.83 L549.64,145.44 L550.71,145.46 L551.78,146.62 L552.85,144.71 L553.92,144.48 L554.99,127.40 L556.06,124.86 L557.13,124.91 L558.20,164.93 L559.28,143.97 L560.35,144.98 L561.42,144.82 L562.49,143.89 L563.56,142.87 L564.63,159.45 L565.70,164.40 L566.77,164.30 L567.84,164.20 L568.91,144.04 L569.98,143.97 L571.06,142.25 L572.13,142.22 L573.20,142.29 L574.27,122.27 L575.34,122.10 L576.41,122.38 L577.48,122.16 L578.55,143.44 L579.62,142.42 L580.69,142.44 L581.76,142.52 L582.83,142.62 L583.91,122.64 L584.98,122.76 L586.05,122.98 L587.12,164.92 L588.19,144.94 L589.26,143.51 L590.33,145.25 L591.40,143.85 L592.47,145.73 L593.54,166.04 L594.61,166.26 L595.69,165.20 L596.76,166.69 L597.83,146.86 L598.90,146.59 L599.97,145.69 L601.04,145.95 L602.11,146.22 L603.18,126.39 L604.25,126.66 L605.32,126.93 L606.39,127.21 L607.46,148.76 L608.54,149.54 L609.61,149.81 L610.68,150.09 L611.75,150.37 L612.82,129.92 L613.89,129.15 L614.96,129.41 L616.03,129.67 L617.10,150.03 L618.17,151.96 L619.24,152.21 L620.31,152.43 L621.39,151.02 L622.46,131.14 L623.53,172.15 L624.60,171.96 L625.67,132.04 L626.74,153.74 L627.81,153.92 L628.88,154.09 L629.95,154.25 L631.02,154.40 L632.09,174.63 L633.17,134.82 L634.24,149.01 L635.31,174.97 L636.38,154.96 L637.45,155.03 L638.52,153.42 L639.59,153.47 L640.66,155.18 L641.73,175.30 L642.80,175.30 L643.87,170.08 L644.94,168.19 L646.02,155.14 L647.09,155.10 L648.16,153.56 L649.23,153.50 L650.30,153.20 L651.37,133.00 L652.44,171.21 L653.51,174.63 L654.58,174.50 L655.65,154.25 L656.72,154.09 L657.80,153.91 L658.87,152.36 L659.94,151.87 L661.01,131.59 L662.08,173.16 L663.15,165.72 L664.22,152.75 L665.29,152.45 L666.36,152.13 L667.43,151.95 L668.50,151.71 L669.57,149.77 L670.65,129.41 L671.72,129.14 L672.79,132.65 L673.86,128.59 L674.93,148.42 L676.00,148.14" fill="none" stroke="#e0e0e0" stroke-width="1.4"/>
<text x="539" y="86" fill="#666" font-family="monospace" font-size="9">04</text>
<rect x="76" y="224" width="152" height="152" fill="#0b0b0b" stroke="#444"/>
<line x1="84" y1="300.00" x2="220" y2="300.00" stroke="#292929"/>
<path d="M84.00,301.13 L85.07,301.24 L86.14,297.54 L87.21,298.79 L88.28,300.31 L89.35,296.49 L90.43,296.36 L91.50,296.99 L92.57,296.48 L93.64,295.50 L94.71,295.68 L95.78,298.55 L96.85,294.87 L97.92,295.80 L98.99,296.24 L100.06,298.13 L101.13,296.92 L102.20,296.66 L103.28,296.21 L104.35,294.91 L105.42,296.31 L106.49,296.39 L107.56,296.92 L108.63,295.75 L109.70,295.46 L110.77,294.53 L111.84,296.59 L112.91,296.06 L113.98,292.85 L115.06,296.16 L116.13,294.00 L117.20,295.93 L118.27,292.83 L119.34,296.34 L120.41,295.84 L121.48,292.49 L122.55,294.43 L123.62,292.32 L124.69,292.51 L125.76,293.35 L126.83,292.84 L127.91,294.72 L128.98,296.98 L130.05,296.46 L131.12,297.37 L132.19,297.41 L133.26,296.78 L134.33,297.49 L135.40,294.99 L136.47,295.28 L137.54,295.81 L138.61,297.36 L139.69,296.91 L140.76,295.03 L141.83,295.90 L142.90,299.69 L143.97,299.86 L145.04,299.58 L146.11,296.41 L147.18,298.03 L148.25,299.57 L149.32,298.84 L150.39,301.01 L151.46,298.01 L152.54,301.09 L153.61,301.67 L154.68,302.72 L155.75,302.96 L156.82,303.07 L157.89,302.21 L158.96,301.87 L160.03,300.09 L161.10,302.30 L162.17,300.46 L163.24,301.54 L164.31,301.30 L165.39,304.59 L166.46,301.26 L167.53,301.50 L168.60,301.80 L169.67,302.47 L170.74,305.93 L171.81,303.23 L172.88,302.86 L173.95,305.62 L175.02,305.34 L176.09,303.76 L177.17,303.20 L178.24,304.31 L179.31,304.39 L180.38,304.42 L181.45,304.28 L182.52,303.71 L183.59,305.20 L184.66,306.85 L185.73,307.27 L186.80,303.94 L187.87,306.26 L188.94,304.80 L190.02,305.06 L191.09,306.23 L192.16,304.92 L193.23,306.05 L194.30,304.56 L195.37,304.94 L196.44,306.65 L197.51,303.05 L198.58,303.69 L199.65,303.00 L200.72,305.30 L201.80,304.22 L202.87,306.07 L203.94,303.82 L205.01,305.61 L206.08,302.91 L207.15,303.55 L208.22,301.22 L209.29,302.09 L210.36,302.26 L211.43,303.69 L212.50,304.04 L213.57,301.75 L214.65,303.54 L215.72,301.58 L216.79,299.23 L217.86,300.59 L218.93,302.30 L220.00,299.36" fill="none" stroke="#e0e0e0" stroke-width="1.4"/>
<text x="83" y="238" fill="#666" font-family="monospace" font-size="9">05</text>
<rect x="228" y="224" width="152" height="152" fill="#0b0b0b" stroke="#444"/>
<line x1="236" y1="300.00" x2="372" y2="300.00" stroke="#292929"/>
<path d="M236.00,304.57 L237.07,304.06 L238.14,294.92 L239.21,296.63 L240.28,303.75 L241.35,291.33 L242.43,292.31 L243.50,293.94 L244.57,291.95 L245.64,291.36 L246.71,292.07 L247.78,301.00 L248.85,288.63 L249.92,290.64 L250.99,294.47 L252.06,298.24 L253.13,297.87 L254.20,298.05 L255.28,298.42 L256.35,289.28 L257.42,295.25 L258.49,294.51 L259.56,297.26 L260.63,294.01 L261.70,293.98 L262.77,295.08 L263.84,297.74 L264.91,295.92 L265.98,290.03 L267.06,296.31 L268.13,291.34 L269.20,295.43 L270.27,287.43 L271.34,297.93 L272.41,297.23 L273.48,286.84 L274.55,294.62 L275.62,286.83 L276.69,286.82 L277.76,285.54 L278.83,285.44 L279.91,288.05 L280.98,297.14 L282.05,294.99 L283.12,297.76 L284.19,297.97 L285.26,297.85 L286.33,300.08 L287.40,293.70 L288.47,291.01 L289.54,294.16 L290.61,298.26 L291.69,297.19 L292.76,289.94 L293.83,289.92 L294.90,301.72 L295.97,300.74 L297.04,301.11 L298.11,294.20 L299.18,299.39 L300.25,301.60 L301.32,294.49 L302.39,305.42 L303.46,294.82 L304.54,304.50 L305.61,304.54 L306.68,305.55 L307.75,307.53 L308.82,307.89 L309.89,308.05 L310.96,306.23 L312.03,299.26 L313.10,301.65 L314.17,298.77 L315.24,298.43 L316.31,297.99 L317.39,307.34 L318.46,300.40 L319.53,300.61 L320.60,301.07 L321.67,301.27 L322.74,309.30 L323.81,300.60 L324.88,300.89 L325.95,310.65 L327.02,309.43 L328.09,303.40 L329.17,302.98 L330.24,302.21 L331.31,304.49 L332.38,302.48 L333.45,305.66 L334.52,304.17 L335.59,308.27 L336.66,312.21 L337.73,312.49 L338.80,304.20 L339.87,309.75 L340.94,306.38 L342.02,305.32 L343.09,307.61 L344.16,308.11 L345.23,313.11 L346.30,302.80 L347.37,309.94 L348.44,310.22 L349.51,303.27 L350.58,306.56 L351.65,302.84 L352.72,305.83 L353.80,306.71 L354.87,311.85 L355.94,303.33 L357.01,310.70 L358.08,305.16 L359.15,308.62 L360.22,299.01 L361.29,303.70 L362.36,298.72 L363.43,305.19 L364.50,308.10 L365.57,305.32 L366.65,306.99 L367.72,305.41 L368.79,297.35 L369.86,303.25 L370.93,303.47 L372.00,296.39" fill="none" stroke="#e0e0e0" stroke-width="1.4"/>
<text x="235" y="238" fill="#666" font-family="monospace" font-size="9">06</text>
<rect x="380" y="224" width="152" height="152" fill="#0b0b0b" stroke="#444"/>
<line x1="388" y1="300.00" x2="524" y2="300.00" stroke="#292929"/>
<path d="M388.00,305.01 L389.07,304.57 L390.14,295.23 L391.21,294.22 L392.28,315.32 L393.35,280.50 L394.43,303.92 L395.50,292.79 L396.57,291.61 L397.64,291.22 L398.71,291.99 L399.78,312.38 L400.85,277.75 L401.92,278.05 L402.99,295.65 L404.06,294.80 L405.13,298.77 L406.20,298.49 L407.28,310.53 L408.35,276.04 L409.42,284.95 L410.49,288.65 L411.56,297.25 L412.63,291.49 L413.70,294.09 L414.77,308.95 L415.84,307.36 L416.91,289.06 L417.98,296.27 L419.06,296.31 L420.13,294.00 L421.20,295.83 L422.27,293.57 L423.34,308.56 L424.41,308.52 L425.48,286.31 L426.55,296.37 L427.62,286.48 L428.69,286.56 L429.76,274.36 L430.83,274.51 L431.91,274.73 L432.98,297.24 L434.05,289.77 L435.12,297.69 L436.19,297.94 L437.26,308.60 L438.33,310.83 L439.40,310.54 L440.47,289.33 L441.54,297.94 L442.61,299.70 L443.69,299.92 L444.76,290.23 L445.83,278.50 L446.90,285.08 L447.97,295.52 L449.04,301.83 L450.11,301.85 L451.18,302.83 L452.25,312.94 L453.32,281.42 L454.39,316.48 L455.46,294.55 L456.54,305.01 L457.61,305.38 L458.68,305.72 L459.75,318.28 L460.82,318.96 L461.89,319.48 L462.96,307.56 L464.03,304.08 L465.10,298.54 L466.17,298.74 L467.24,286.81 L468.31,287.16 L469.39,289.71 L470.46,300.26 L471.53,300.56 L472.60,300.90 L473.67,301.20 L474.74,289.81 L475.81,289.44 L476.88,289.76 L477.95,312.23 L479.02,311.74 L480.09,302.75 L481.17,302.93 L482.24,290.77 L483.31,296.30 L484.38,291.06 L485.45,307.97 L486.52,304.20 L487.59,311.74 L488.66,313.54 L489.73,300.31 L490.80,318.37 L491.87,303.10 L492.94,306.73 L494.02,303.74 L495.09,303.72 L496.16,312.49 L497.23,325.72 L498.30,290.94 L499.37,325.10 L500.44,304.22 L501.51,303.79 L502.58,312.35 L503.65,302.43 L504.72,289.99 L505.80,314.11 L506.87,318.71 L507.94,301.25 L509.01,310.91 L510.08,309.82 L511.15,310.24 L512.22,290.19 L513.29,319.57 L514.36,286.79 L515.43,299.37 L516.50,308.37 L517.57,307.95 L518.65,307.43 L519.72,319.17 L520.79,316.22 L521.86,318.11 L522.93,296.25 L524.00,295.42" fill="none" stroke="#e0e0e0" stroke-width="1.4"/>
<text x="387" y="238" fill="#666" font-family="monospace" font-size="9">07</text>
<rect x="532" y="224" width="152" height="152" fill="#0b0b0b" stroke="#444"/>
<line x1="540" y1="300.00" x2="676" y2="300.00" stroke="#292929"/>
<path d="M540.00,300.75 L541.07,300.46 L542.14,298.85 L543.21,298.12 L544.28,320.74 L545.35,276.27 L546.43,319.39 L547.50,297.04 L548.57,296.69 L549.64,296.42 L550.71,296.48 L551.78,318.75 L552.85,274.40 L553.92,274.29 L554.99,296.46 L556.06,295.15 L557.13,296.51 L558.20,296.31 L559.28,317.37 L560.35,272.97 L561.42,275.49 L562.49,293.85 L563.56,295.46 L564.63,293.93 L565.70,294.67 L566.77,316.35 L567.84,312.16 L568.91,275.82 L569.98,294.87 L571.06,294.82 L572.13,294.63 L573.20,294.71 L574.27,311.12 L575.34,316.01 L576.41,316.03 L577.48,293.05 L578.55,294.87 L579.62,293.17 L580.69,293.24 L581.76,272.08 L582.83,272.19 L583.91,272.31 L584.98,295.46 L586.05,293.89 L587.12,295.77 L588.19,295.93 L589.26,315.94 L590.33,317.56 L591.40,317.74 L592.47,294.96 L593.54,296.89 L594.61,297.18 L595.69,297.42 L596.76,311.97 L597.83,274.90 L598.90,275.34 L599.97,296.74 L601.04,298.71 L602.11,299.01 L603.18,299.29 L604.25,319.45 L605.32,276.85 L606.39,321.41 L607.46,298.69 L608.54,300.75 L609.61,301.04 L610.68,301.31 L611.75,322.46 L612.82,323.14 L613.89,323.46 L614.96,302.49 L616.03,302.69 L617.10,301.28 L618.17,301.54 L619.24,280.56 L620.31,280.81 L621.39,281.16 L622.46,302.56 L623.53,302.78 L624.60,303.01 L625.67,303.22 L626.74,282.18 L627.81,282.36 L628.88,282.55 L629.95,305.73 L631.02,305.85 L632.09,304.27 L633.17,304.40 L634.24,283.27 L635.31,289.81 L636.38,283.47 L637.45,306.10 L638.52,305.04 L639.59,306.58 L640.66,306.71 L641.73,284.95 L642.80,327.38 L643.87,290.71 L644.94,305.62 L646.02,304.91 L647.09,304.86 L648.16,306.54 L649.23,327.74 L650.30,283.37 L651.37,327.52 L652.44,304.41 L653.51,304.77 L654.58,305.89 L655.65,303.98 L656.72,282.55 L657.80,319.81 L658.87,311.21 L659.94,303.22 L661.01,304.78 L662.08,304.54 L663.15,304.32 L664.22,288.55 L665.29,324.86 L666.36,280.55 L667.43,301.55 L668.50,303.04 L669.57,302.77 L670.65,302.48 L671.72,323.44 L672.79,323.10 L673.86,322.85 L674.93,299.57 L676.00,299.27" fill="none" stroke="#e0e0e0" stroke-width="1.4"/>
<text x="539" y="238" fill="#666" font-family="monospace" font-size="9">08</text>
<rect x="76" y="376" width="152" height="152" fill="#0b0b0b" stroke="#444"/>
<line x1="84" y1="452.00" x2="220" y2="452.00" stroke="#292929"/>
<path d="M84.00,452.33 L85.07,450.19 L86.14,453.21 L87.21,450.55 L88.28,451.41 L89.35,449.70 L90.43,449.58 L91.50,449.94 L92.57,451.73 L93.64,450.00 L94.71,448.09 L95.78,447.25 L96.85,448.77 L97.92,450.67 L98.99,450.04 L100.06,446.76 L101.13,450.02 L102.20,449.31 L103.28,445.75 L104.35,447.16 L105.42,448.88 L106.49,445.57 L107.56,448.62 L108.63,445.43 L109.70,448.77 L110.77,447.94 L111.84,448.49 L112.91,447.05 L113.98,445.54 L115.06,445.69 L116.13,446.50 L117.20,444.40 L118.27,445.49 L119.34,445.93 L120.41,447.65 L121.48,448.36 L122.55,447.40 L123.62,447.36 L124.69,447.05 L125.76,445.58 L126.83,445.38 L127.91,449.01 L128.98,449.09 L130.05,448.99 L131.12,447.33 L132.19,445.36 L133.26,445.72 L134.33,447.32 L135.40,449.04 L136.47,449.37 L137.54,450.08 L138.61,447.44 L139.69,447.12 L140.76,449.85 L141.83,449.42 L142.90,447.56 L143.97,448.37 L145.04,452.04 L146.11,451.25 L147.18,451.28 L148.25,450.51 L149.32,452.51 L150.39,453.51 L151.46,453.46 L152.54,451.20 L153.61,452.06 L154.68,454.35 L155.75,452.40 L156.82,454.30 L157.89,455.09 L158.96,452.68 L160.03,452.96 L161.10,453.29 L162.17,453.83 L163.24,455.30 L164.31,454.36 L165.39,455.96 L166.46,455.66 L167.53,453.95 L168.60,457.06 L169.67,457.88 L170.74,456.43 L171.81,454.63 L172.88,457.14 L173.95,455.98 L175.02,456.93 L176.09,454.94 L177.17,455.36 L178.24,457.80 L179.31,456.58 L180.38,457.39 L181.45,459.61 L182.52,459.57 L183.59,458.97 L184.66,459.75 L185.73,459.60 L186.80,458.46 L187.87,457.78 L188.94,455.65 L190.02,456.31 L191.09,455.56 L192.16,456.18 L193.23,455.42 L194.30,455.92 L195.37,459.31 L196.44,458.88 L197.51,456.31 L198.58,457.12 L199.65,455.00 L200.72,457.47 L201.80,457.06 L202.87,455.83 L203.94,457.45 L205.01,453.77 L206.08,454.01 L207.15,456.92 L208.22,453.37 L209.29,455.32 L210.36,453.31 L211.43,452.29 L212.50,452.05 L213.57,451.86 L214.65,451.94 L215.72,454.32 L216.79,453.94 L217.86,453.14 L218.93,450.95 L220.00,453.77" fill="none" stroke="#e0e0e0" stroke-width="1.4"/>
<text x="83" y="390" fill="#666" font-family="monospace" font-size="9">09</text>
<rect x="228" y="376" width="152" height="152" fill="#0b0b0b" stroke="#444"/>
<line x1="236" y1="452.00" x2="372" y2="452.00" stroke="#292929"/>
<path d="M236.00,454.10 L237.07,447.70 L238.14,454.59 L239.21,451.22 L240.28,453.01 L241.35,445.93 L242.43,449.99 L243.50,447.76 L244.57,454.87 L245.64,448.34 L246.71,444.04 L247.78,443.16 L248.85,450.08 L249.92,453.20 L250.99,451.18 L252.06,441.72 L253.13,450.62 L254.20,450.41 L255.28,440.44 L256.35,441.39 L257.42,449.67 L258.49,441.74 L259.56,446.98 L260.63,438.98 L261.70,450.55 L262.77,445.80 L263.84,448.65 L264.91,443.20 L265.98,444.64 L267.06,443.10 L268.13,446.82 L269.20,439.11 L270.27,440.15 L271.34,440.58 L272.41,448.44 L273.48,447.25 L274.55,445.57 L275.62,445.88 L276.69,447.91 L277.76,443.87 L278.83,441.12 L279.91,449.12 L280.98,449.26 L282.05,450.15 L283.12,442.34 L284.19,441.39 L285.26,442.30 L286.33,447.37 L287.40,450.08 L288.47,446.20 L289.54,449.25 L290.61,443.25 L291.69,443.43 L292.76,452.25 L293.83,451.65 L294.90,443.62 L295.97,444.18 L297.04,453.81 L298.11,453.19 L299.18,447.70 L300.25,447.24 L301.32,455.32 L302.39,455.90 L303.46,457.54 L304.54,448.21 L305.61,453.73 L306.68,457.59 L307.75,454.73 L308.82,457.16 L309.89,459.62 L310.96,454.27 L312.03,451.62 L313.10,454.08 L314.17,456.84 L315.24,456.77 L316.31,453.49 L317.39,458.00 L318.46,457.04 L319.53,452.12 L320.60,461.72 L321.67,462.58 L322.74,459.35 L323.81,453.81 L324.88,463.03 L325.95,460.22 L327.02,459.75 L328.09,454.62 L329.17,455.46 L330.24,460.77 L331.31,456.94 L332.38,456.68 L333.45,464.42 L334.52,464.95 L335.59,464.53 L336.66,466.62 L337.73,465.24 L338.80,464.65 L339.87,462.71 L340.94,455.74 L342.02,458.97 L343.09,455.82 L344.16,456.61 L345.23,455.25 L346.30,454.09 L347.37,465.00 L348.44,463.30 L349.51,455.28 L350.58,457.81 L351.65,455.78 L352.72,464.28 L353.80,459.69 L354.87,457.41 L355.94,460.09 L357.01,451.71 L358.08,452.31 L359.15,460.85 L360.22,453.00 L361.29,453.89 L362.36,450.03 L363.43,449.70 L364.50,450.39 L365.57,450.23 L366.65,449.81 L367.72,452.45 L368.79,451.65 L369.86,450.52 L370.93,448.17 L372.00,456.73" fill="none" stroke="#e0e0e0" stroke-width="1.4"/>
<text x="235" y="390" fill="#666" font-family="monospace" font-size="9">10</text>
<rect x="380" y="376" width="152" height="152" fill="#0b0b0b" stroke="#444"/>
<line x1="388" y1="452.00" x2="524" y2="452.00" stroke="#292929"/>
<path d="M388.00,456.36 L389.07,446.98 L390.14,449.80 L391.21,466.41 L392.28,463.51 L393.35,444.97 L394.43,454.14 L395.50,445.11 L396.57,465.37 L397.64,435.93 L398.71,443.06 L399.78,442.69 L400.85,451.99 L401.92,463.57 L402.99,450.34 L404.06,441.32 L405.13,450.69 L406.20,450.42 L407.28,445.59 L408.35,428.42 L409.42,449.65 L410.49,446.34 L411.56,440.19 L412.63,427.72 L413.70,460.79 L414.77,440.02 L415.84,448.59 L416.91,439.05 L417.98,460.18 L419.06,457.31 L420.13,448.26 L421.20,438.67 L422.27,438.61 L423.34,428.02 L424.41,459.35 L425.48,440.43 L426.55,442.94 L427.62,445.49 L428.69,460.33 L429.76,460.37 L430.83,442.43 L431.91,449.04 L432.98,449.22 L434.05,457.30 L435.12,428.42 L436.19,448.85 L437.26,449.60 L438.33,450.39 L439.40,460.43 L440.47,429.52 L441.54,442.35 L442.61,442.08 L443.69,443.82 L444.76,464.14 L445.83,464.56 L446.90,443.40 L447.97,443.78 L449.04,453.86 L450.11,463.40 L451.18,433.09 L452.25,445.40 L453.32,455.47 L454.39,455.89 L455.46,468.19 L456.54,436.56 L457.61,456.93 L458.68,457.55 L459.75,457.91 L460.82,458.14 L461.89,470.18 L462.96,459.03 L464.03,450.15 L465.10,458.37 L466.17,471.95 L467.24,445.17 L468.31,451.54 L469.39,454.79 L470.46,454.42 L471.53,442.62 L472.60,468.27 L473.67,462.73 L474.74,461.01 L475.81,453.60 L476.88,475.32 L477.95,475.53 L479.02,461.03 L480.09,454.53 L481.17,455.05 L482.24,452.62 L483.31,448.54 L484.38,455.17 L485.45,461.39 L486.52,465.06 L487.59,469.34 L488.66,477.07 L489.73,465.21 L490.80,465.22 L491.87,465.12 L492.94,474.44 L494.02,476.47 L495.09,455.56 L496.16,455.71 L497.23,455.17 L498.30,443.12 L499.37,450.56 L500.44,461.17 L501.51,454.53 L502.58,454.48 L503.65,474.74 L504.72,475.47 L505.80,457.30 L506.87,457.87 L507.94,453.91 L509.01,441.64 L510.08,443.47 L511.15,461.34 L512.22,455.73 L513.29,451.41 L514.36,439.12 L515.43,442.89 L516.50,450.29 L517.57,449.94 L518.65,449.50 L519.72,437.21 L520.79,436.80 L521.86,448.28 L522.93,447.87 L524.00,457.13" fill="none" stroke="#e0e0e0" stroke-width="1.4"/>
<text x="387" y="390" fill="#666" font-family="monospace" font-size="9">11</text>
<rect x="532" y="376" width="152" height="152" fill="#0b0b0b" stroke="#444"/>
<line x1="540" y1="452.00" x2="676" y2="452.00" stroke="#292929"/>
<path d="M540.00,452.82 L541.07,450.83 L542.14,450.58 L543.21,472.95 L544.28,470.78 L545.35,449.64 L546.43,451.11 L547.50,449.13 L548.57,471.62 L549.64,428.71 L550.71,448.28 L551.78,448.03 L552.85,449.53 L553.92,470.35 L554.99,436.87 L556.06,447.09 L557.13,448.63 L558.20,448.43 L559.28,465.85 L560.35,425.26 L561.42,447.90 L562.49,447.66 L563.56,445.84 L564.63,424.74 L565.70,468.40 L566.77,445.50 L567.84,447.15 L568.91,445.32 L569.98,468.06 L571.06,467.60 L572.13,446.92 L573.20,445.16 L574.27,445.14 L575.34,424.45 L576.41,467.58 L577.48,445.22 L578.55,445.60 L579.62,446.40 L580.69,468.20 L581.76,468.29 L582.83,446.65 L583.91,447.46 L584.98,447.60 L586.05,456.74 L587.12,425.11 L588.19,448.06 L589.26,448.24 L590.33,448.43 L591.40,468.16 L592.47,426.03 L593.54,447.31 L594.61,447.55 L595.69,448.36 L596.76,470.83 L597.83,471.09 L598.90,448.54 L599.97,448.81 L601.04,450.83 L602.11,470.22 L603.18,428.58 L604.25,449.92 L605.32,451.96 L606.39,452.25 L607.46,473.60 L608.54,430.60 L609.61,453.12 L610.68,453.42 L611.75,453.71 L612.82,449.26 L613.89,474.97 L614.96,454.56 L616.03,453.09 L617.10,455.06 L618.17,476.42 L619.24,434.61 L620.31,454.14 L621.39,454.57 L622.46,454.79 L623.53,437.07 L624.60,467.27 L625.67,457.04 L626.74,457.03 L627.81,455.67 L628.88,478.65 L629.95,478.83 L631.02,457.55 L632.09,456.32 L633.17,456.51 L634.24,440.41 L635.31,441.08 L636.38,456.76 L637.45,457.04 L638.52,458.66 L639.59,463.21 L640.66,479.79 L641.73,458.77 L642.80,458.78 L643.87,458.77 L644.94,479.75 L646.02,479.76 L647.09,456.95 L648.16,456.89 L649.23,456.76 L650.30,435.62 L651.37,435.83 L652.44,456.93 L653.51,456.32 L654.58,456.18 L655.65,478.82 L656.72,478.66 L657.80,455.99 L658.87,456.43 L659.94,455.29 L661.01,435.52 L662.08,439.00 L663.15,456.31 L664.22,455.84 L665.29,454.13 L666.36,432.82 L667.43,452.57 L668.50,453.35 L669.57,453.09 L670.65,452.80 L671.72,431.47 L672.79,431.18 L673.86,451.95 L674.93,451.66 L676.00,453.13" fill="none" stroke="#e0e0e0" stroke-width="1.4"/>
<text x="539" y="390" fill="#666" font-family="monospace" font-size="9">12</text>
<rect x="76" y="528" width="152" height="152" fill="#0b0b0b" stroke="#444"/>
<line x1="84" y1="604.00" x2="220" y2="604.00" stroke="#292929"/>
<path d="M84.00,602.58 L85.07,605.58 L86.14,603.97 L87.21,602.27 L88.28,601.99 L89.35,601.65 L90.43,601.14 L91.50,600.18 L92.57,600.22 L93.64,602.26 L94.71,600.86 L95.78,601.81 L96.85,600.51 L97.92,601.76 L98.99,601.73 L100.06,602.09 L101.13,599.95 L102.20,601.70 L103.28,599.50 L104.35,601.18 L105.42,598.02 L106.49,601.12 L107.56,599.37 L108.63,597.28 L109.70,598.86 L110.77,600.80 L111.84,600.08 L112.91,600.70 L113.98,600.33 L115.06,597.88 L116.13,598.49 L117.20,600.50 L118.27,599.91 L119.34,596.54 L120.41,596.72 L121.48,597.90 L122.55,598.69 L123.62,596.69 L124.69,596.90 L125.76,597.97 L126.83,598.19 L127.91,598.83 L128.98,600.84 L130.05,598.41 L131.12,598.61 L132.19,599.07 L133.26,600.48 L134.33,599.81 L135.40,602.00 L136.47,600.90 L137.54,599.88 L138.61,600.96 L139.69,599.21 L140.76,601.26 L141.83,599.44 L142.90,599.93 L143.97,602.19 L145.04,600.56 L146.11,603.58 L147.18,604.32 L148.25,601.95 L149.32,602.08 L150.39,601.86 L151.46,604.82 L152.54,605.45 L153.61,602.44 L154.68,603.92 L155.75,605.26 L156.82,604.00 L157.89,603.92 L158.96,607.46 L160.03,606.63 L161.10,606.32 L162.17,604.63 L163.24,606.97 L164.31,605.55 L165.39,605.09 L166.46,605.76 L167.53,609.09 L168.60,606.52 L169.67,606.17 L170.74,608.53 L171.81,607.22 L172.88,607.18 L173.95,606.73 L175.02,608.27 L176.09,610.00 L177.17,610.65 L178.24,608.46 L179.31,609.70 L180.38,608.45 L181.45,608.98 L182.52,610.82 L183.59,607.62 L184.66,609.23 L185.73,611.16 L186.80,608.79 L187.87,609.60 L188.94,607.59 L190.02,608.66 L191.09,609.20 L192.16,611.12 L193.23,609.49 L194.30,607.50 L195.37,609.94 L196.44,609.66 L197.51,608.77 L198.58,610.68 L199.65,610.18 L200.72,607.31 L201.80,606.77 L202.87,609.83 L203.94,607.84 L205.01,609.70 L206.08,609.30 L207.15,607.67 L208.22,605.85 L209.29,605.04 L210.36,606.58 L211.43,608.40 L212.50,608.10 L213.57,607.56 L214.65,605.06 L215.72,606.07 L216.79,605.09 L217.86,602.76 L218.93,602.54 L220.00,602.47" fill="none" stroke="#e0e0e0" stroke-width="1.4"/>
<text x="83" y="542" fill="#666" font-family="monospace" font-size="9">13</text>
<rect x="228" y="528" width="152" height="152" fill="#0b0b0b" stroke="#444"/>
<line x1="236" y1="604.00" x2="372" y2="604.00" stroke="#292929"/>
<path d="M236.00,601.74 L237.07,607.39 L238.14,600.23 L239.21,598.74 L240.28,598.40 L241.35,597.00 L242.43,598.17 L243.50,597.41 L244.57,595.20 L245.64,603.43 L246.71,599.78 L247.78,603.48 L248.85,598.37 L249.92,599.19 L250.99,601.95 L252.06,602.12 L253.13,600.24 L254.20,602.68 L255.28,599.72 L256.35,601.17 L257.42,592.36 L258.49,601.66 L259.56,600.34 L260.63,592.00 L261.70,599.38 L262.77,601.00 L263.84,600.75 L264.91,600.87 L265.98,598.78 L267.06,591.71 L268.13,599.19 L269.20,600.66 L270.27,600.79 L271.34,592.44 L272.41,592.29 L273.48,595.89 L274.55,599.51 L275.62,592.54 L276.69,590.89 L277.76,592.57 L278.83,593.14 L279.91,598.61 L280.98,599.13 L282.05,593.20 L283.12,592.46 L284.19,597.44 L285.26,601.20 L286.33,601.64 L287.40,602.83 L288.47,601.51 L289.54,598.40 L290.61,602.08 L291.69,595.30 L292.76,604.17 L293.83,596.35 L294.90,596.29 L295.97,604.53 L297.04,596.99 L298.11,603.53 L299.18,604.81 L300.25,598.39 L301.32,599.04 L302.39,597.41 L303.46,605.83 L304.54,607.43 L305.61,599.15 L306.68,604.02 L307.75,607.17 L308.82,600.81 L309.89,602.02 L310.96,610.58 L312.03,606.71 L313.10,609.68 L314.17,602.99 L315.24,610.38 L316.31,604.53 L317.39,604.55 L318.46,603.13 L319.53,611.27 L320.60,605.45 L321.67,603.72 L322.74,611.46 L323.81,606.04 L324.88,605.56 L325.95,606.60 L327.02,610.03 L328.09,613.71 L329.17,614.17 L330.24,610.51 L331.31,614.07 L332.38,607.95 L333.45,613.42 L334.52,616.34 L335.59,608.00 L336.66,613.49 L337.73,616.01 L338.80,611.48 L339.87,614.85 L340.94,606.32 L342.02,608.32 L343.09,614.30 L344.16,617.43 L345.23,614.09 L346.30,607.00 L347.37,611.67 L348.44,614.44 L349.51,613.86 L350.58,616.70 L351.65,612.92 L352.72,606.68 L353.80,604.64 L354.87,613.42 L355.94,612.68 L357.01,615.29 L358.08,613.34 L359.15,610.70 L360.22,603.76 L361.29,604.45 L362.36,610.90 L363.43,613.38 L364.50,611.50 L365.57,609.67 L366.65,604.75 L367.72,606.23 L368.79,608.80 L369.86,600.25 L370.93,601.09 L372.00,600.61" fill="none" stroke="#e0e0e0" stroke-width="1.4"/>
<text x="235" y="542" fill="#666" font-family="monospace" font-size="9">14</text>
<rect x="380" y="528" width="152" height="152" fill="#0b0b0b" stroke="#444"/>
<line x1="388" y1="604.00" x2="524" y2="604.00" stroke="#292929"/>
<path d="M388.00,607.76 L389.07,606.61 L390.14,587.49 L391.21,598.60 L392.28,598.21 L393.35,586.30 L394.43,597.54 L395.50,598.92 L396.57,585.14 L397.64,605.55 L398.71,603.49 L399.78,615.80 L400.85,598.09 L401.92,594.97 L402.99,595.13 L404.06,598.60 L405.13,603.30 L406.20,597.81 L407.28,602.78 L408.35,601.27 L409.42,581.63 L410.49,602.13 L411.56,601.93 L412.63,587.24 L413.70,601.58 L414.77,601.44 L415.84,610.02 L416.91,601.21 L417.98,592.18 L419.06,580.21 L420.13,601.00 L421.20,600.97 L422.27,611.31 L423.34,598.02 L424.41,592.38 L425.48,610.42 L426.55,601.12 L427.62,596.39 L428.69,580.53 L429.76,592.08 L430.83,592.23 L431.91,612.67 L432.98,592.72 L434.05,592.76 L435.12,581.46 L436.19,601.37 L437.26,602.80 L438.33,614.59 L439.40,603.36 L440.47,603.56 L441.54,611.56 L442.61,604.26 L443.69,595.25 L444.76,616.47 L445.83,597.95 L446.90,596.30 L447.97,617.42 L449.04,597.04 L450.11,599.26 L451.18,586.88 L452.25,598.21 L453.32,598.61 L454.39,587.48 L455.46,604.39 L456.54,608.42 L457.61,590.52 L458.68,607.65 L459.75,609.78 L460.82,590.01 L461.89,601.83 L462.96,611.55 L464.03,591.97 L465.10,612.29 L466.17,603.32 L467.24,623.04 L468.31,604.17 L469.39,607.55 L470.46,593.19 L471.53,605.42 L472.60,605.34 L473.67,594.09 L474.74,613.70 L475.81,606.16 L476.88,595.15 L477.95,607.06 L479.02,612.16 L480.09,606.14 L481.17,609.47 L482.24,614.28 L483.31,625.39 L484.38,607.68 L485.45,617.11 L486.52,626.58 L487.59,609.10 L488.66,617.27 L489.73,606.60 L490.80,616.52 L491.87,617.37 L492.94,596.72 L494.02,607.95 L495.09,617.23 L496.16,628.66 L497.23,616.99 L498.30,607.55 L499.37,596.86 L500.44,616.58 L501.51,616.42 L502.58,627.75 L503.65,607.13 L504.72,606.43 L505.80,594.65 L506.87,612.21 L507.94,614.98 L509.01,626.22 L510.08,614.38 L511.15,613.59 L512.22,593.27 L513.29,606.69 L514.36,613.05 L515.43,624.21 L516.50,612.32 L517.57,604.35 L518.65,605.08 L519.72,602.38 L520.79,610.78 L521.86,616.57 L522.93,607.41 L524.00,601.46" fill="none" stroke="#e0e0e0" stroke-width="1.4"/>
<text x="387" y="542" fill="#666" font-family="monospace" font-size="9">15</text>
<rect x="532" y="528" width="152" height="152" fill="#0b0b0b" stroke="#444"/>
<line x1="540" y1="604.00" x2="676" y2="604.00" stroke="#292929"/>
<path d="M540.00,605.64 L541.07,604.32 L542.14,582.72 L543.21,603.08 L544.28,602.80 L545.35,581.87 L546.43,602.25 L547.50,603.07 L548.57,581.06 L549.64,603.16 L550.71,602.83 L551.78,623.17 L552.85,601.20 L553.92,600.47 L554.99,583.84 L556.06,600.15 L557.13,601.54 L558.20,582.70 L559.28,601.15 L560.35,600.56 L561.42,578.49 L562.49,600.66 L563.56,600.52 L564.63,599.72 L565.70,600.28 L566.77,600.17 L567.84,617.24 L568.91,600.01 L569.98,598.22 L571.06,577.53 L572.13,599.86 L573.20,599.84 L574.27,619.60 L575.34,599.81 L576.41,598.44 L577.48,620.30 L578.55,599.94 L579.62,599.91 L580.69,577.76 L581.76,598.45 L582.83,598.55 L583.91,620.99 L584.98,598.80 L586.05,598.94 L587.12,578.45 L588.19,600.94 L589.26,601.15 L590.33,621.99 L591.40,601.54 L592.47,601.74 L593.54,621.84 L594.61,602.19 L595.69,600.70 L596.76,623.31 L597.83,602.35 L598.90,601.45 L599.97,624.07 L601.04,601.97 L602.11,602.29 L603.18,581.88 L604.25,602.80 L605.32,603.08 L606.39,582.72 L607.46,604.12 L608.54,605.51 L609.61,587.85 L610.68,606.10 L611.75,606.48 L612.82,584.44 L613.89,605.35 L614.96,607.35 L616.03,585.30 L617.10,607.89 L618.17,606.43 L619.24,628.62 L620.31,606.94 L621.39,608.62 L622.46,586.76 L623.53,607.63 L624.60,607.85 L625.67,587.41 L626.74,609.80 L627.81,608.44 L628.88,588.03 L629.95,608.89 L631.02,610.15 L632.09,591.64 L633.17,609.23 L634.24,610.89 L635.31,630.11 L636.38,609.51 L637.45,611.31 L638.52,629.17 L639.59,610.20 L640.66,611.45 L641.73,590.43 L642.80,611.46 L643.87,611.47 L644.94,589.26 L646.02,609.70 L647.09,611.37 L648.16,631.95 L649.23,611.23 L650.30,609.42 L651.37,588.72 L652.44,610.92 L653.51,610.79 L654.58,631.30 L655.65,608.78 L656.72,608.61 L657.80,587.79 L658.87,608.68 L659.94,609.78 L661.01,630.21 L662.08,609.35 L663.15,609.11 L664.22,586.65 L665.29,608.11 L666.36,608.40 L667.43,628.79 L668.50,607.89 L669.57,605.92 L670.65,608.60 L671.72,605.36 L672.79,606.79 L673.86,627.02 L674.93,606.21 L676.00,604.79" fill="none" stroke="#e0e0e0" stroke-width="1.4"/>
<text x="539" y="542" fill="#666" font-family="monospace" font-size="9">16</text>
</svg>
