<svg xmlns="http://www.w3.org/2000/svg" width="760" height="760" viewBox="0 0 760 760">
<rect width="760" height="760" fill="#161616"/>
<text x="24" y="32" fill="#dedede" font-family="monospace" font-size="15">S3G VOT / ORGAN</text>
<text x="684" y="724" text-anchor="end" fill="#858585" font-family="monospace" font-size="11">U / REGISTRATION</text>
<text x="24" y="72" fill="#858585" font-family="monospace" font-size="11">V / DRAWBAR FAMILY</text>
<text x="76" y="724" fill="#858585" font-family="monospace" font-size="11">ENERGY / LEVEL MATCHED</text>
<rect x="76" y="72" width="152" height="152" fill="#0b0b0b" stroke="#444"/>
<line x1="84" y1="148.00" x2="220" y2="148.00" stroke="#292929"/>
<path d="M84.00,148.00 L85.07,146.42 L86.14,144.84 L87.21,143.30 L88.28,141.79 L89.35,140.33 L90.43,138.93 L91.50,137.59 L92.57,136.33 L93.64,135.15 L94.71,134.06 L95.78,133.06 L96.85,132.16 L97.92,131.34 L98.99,130.62 L100.06,130.00 L101.13,129.46 L102.20,129.00 L103.28,128.62 L104.35,128.32 L105.42,128.08 L106.49,127.91 L107.56,127.80 L108.63,127.73 L109.70,127.72 L110.77,127.74 L111.84,127.80 L112.91,127.89 L113.98,128.01 L115.06,128.16 L116.13,128.33 L117.20,128.53 L118.27,128.76 L119.34,129.01 L120.41,129.28 L121.48,129.58 L122.55,129.91 L123.62,130.27 L124.69,130.66 L125.76,131.07 L126.83,131.52 L127.91,132.00 L128.98,132.51 L130.05,133.05 L131.12,133.62 L132.19,134.22 L133.26,134.85 L134.33,135.50 L135.40,136.17 L136.47,136.86 L137.54,137.57 L138.61,138.29 L139.69,139.03 L140.76,139.77 L141.83,140.52 L142.90,141.27 L143.97,142.02 L145.04,142.77 L146.11,143.53 L147.18,144.28 L148.25,145.02 L149.32,145.77 L150.39,146.51 L151.46,147.26 L152.54,148.00 L153.61,148.74 L154.68,149.49 L155.75,150.23 L156.82,150.98 L157.89,151.72 L158.96,152.47 L160.03,153.23 L161.10,153.98 L162.17,154.73 L163.24,155.48 L164.31,156.23 L165.39,156.97 L166.46,157.71 L167.53,158.43 L168.60,159.14 L169.67,159.83 L170.74,160.50 L171.81,161.15 L172.88,161.78 L173.95,162.38 L175.02,162.95 L176.09,163.49 L177.17,164.00 L178.24,164.48 L179.31,164.93 L180.38,165.34 L181.45,165.73 L182.52,166.09 L183.59,166.42 L184.66,166.72 L185.73,166.99 L186.80,167.24 L187.87,167.47 L188.94,167.67 L190.02,167.84 L191.09,167.99 L192.16,168.11 L193.23,168.20 L194.30,168.26 L195.37,168.28 L196.44,168.27 L197.51,168.20 L198.58,168.09 L199.65,167.92 L200.72,167.68 L201.80,167.38 L202.87,167.00 L203.94,166.54 L205.01,166.00 L206.08,165.38 L207.15,164.66 L208.22,163.84 L209.29,162.94 L210.36,161.94 L211.43,160.85 L212.50,159.67 L213.57,158.41 L214.65,157.07 L215.72,155.67 L216.79,154.21 L217.86,152.70 L218.93,151.16 L220.00,149.58" fill="none" stroke="#e0e0e0" stroke-width="1.4"/>
<text x="83" y="86" fill="#666" font-family="monospace" font-size="9">01</text>
<rect x="228" y="72" width="152" height="152" fill="#0b0b0b" stroke="#444"/>
<line x1="236" y1="148.00" x2="372" y2="148.00" stroke="#292929"/>
<path d="M236.00,148.00 L237.07,146.35 L238.14,144.71 L239.21,143.10 L240.28,141.54 L241.35,140.02 L242.43,138.58 L243.50,137.20 L244.57,135.91 L245.64,134.72 L246.71,133.62 L247.78,132.62 L248.85,131.72 L249.92,130.92 L250.99,130.23 L252.06,129.63 L253.13,129.13 L254.20,128.71 L255.28,128.38 L256.35,128.13 L257.42,127.94 L258.49,127.82 L259.56,127.75 L260.63,127.73 L261.70,127.76 L262.77,127.82 L263.84,127.91 L264.91,128.04 L265.98,128.18 L267.06,128.35 L268.13,128.54 L269.20,128.75 L270.27,128.98 L271.34,129.23 L272.41,129.51 L273.48,129.81 L274.55,130.13 L275.62,130.48 L276.69,130.86 L277.76,131.27 L278.83,131.71 L279.91,132.18 L280.98,132.69 L282.05,133.22 L283.12,133.79 L284.19,134.39 L285.26,135.02 L286.33,135.67 L287.40,136.34 L288.47,137.03 L289.54,137.74 L290.61,138.47 L291.69,139.20 L292.76,139.94 L293.83,140.68 L294.90,141.42 L295.97,142.17 L297.04,142.91 L298.11,143.65 L299.18,144.38 L300.25,145.11 L301.32,145.84 L302.39,146.56 L303.46,147.28 L304.54,148.00 L305.61,148.72 L306.68,149.44 L307.75,150.16 L308.82,150.89 L309.89,151.62 L310.96,152.35 L312.03,153.09 L313.10,153.83 L314.17,154.58 L315.24,155.32 L316.31,156.06 L317.39,156.80 L318.46,157.53 L319.53,158.26 L320.60,158.97 L321.67,159.66 L322.74,160.33 L323.81,160.98 L324.88,161.61 L325.95,162.21 L327.02,162.78 L328.09,163.31 L329.17,163.82 L330.24,164.29 L331.31,164.73 L332.38,165.14 L333.45,165.52 L334.52,165.87 L335.59,166.19 L336.66,166.49 L337.73,166.77 L338.80,167.02 L339.87,167.25 L340.94,167.46 L342.02,167.65 L343.09,167.82 L344.16,167.96 L345.23,168.09 L346.30,168.18 L347.37,168.24 L348.44,168.27 L349.51,168.25 L350.58,168.18 L351.65,168.06 L352.72,167.87 L353.80,167.62 L354.87,167.29 L355.94,166.87 L357.01,166.37 L358.08,165.77 L359.15,165.08 L360.22,164.28 L361.29,163.38 L362.36,162.38 L363.43,161.28 L364.50,160.09 L365.57,158.80 L366.65,157.42 L367.72,155.98 L368.79,154.46 L369.86,152.90 L370.93,151.29 L372.00,149.65" fill="none" stroke="#e0e0e0" stroke-width="1.4"/>
<text x="235" y="86" fill="#666" font-family="monospace" font-size="9">02</text>
<rect x="380" y="72" width="152" height="152" fill="#0b0b0b" stroke="#444"/>
<line x1="388" y1="148.00" x2="524" y2="148.00" stroke="#292929"/>
<path d="M388.00,148.00 L389.07,146.26 L390.14,144.53 L391.21,142.84 L392.28,141.19 L393.35,139.61 L394.43,138.10 L395.50,136.68 L396.57,135.36 L397.64,134.14 L398.71,133.02 L399.78,132.02 L400.85,131.14 L401.92,130.37 L402.99,129.71 L404.06,129.16 L405.13,128.71 L406.20,128.36 L407.28,128.09 L408.35,127.90 L409.42,127.79 L410.49,127.73 L411.56,127.73 L412.63,127.78 L413.70,127.86 L414.77,127.97 L415.84,128.11 L416.91,128.27 L417.98,128.44 L419.06,128.63 L420.13,128.84 L421.20,129.06 L422.27,129.29 L423.34,129.54 L424.41,129.80 L425.48,130.09 L426.55,130.40 L427.62,130.74 L428.69,131.10 L429.76,131.50 L430.83,131.93 L431.91,132.39 L432.98,132.89 L434.05,133.42 L435.12,133.98 L436.19,134.58 L437.26,135.21 L438.33,135.86 L439.40,136.54 L440.47,137.24 L441.54,137.95 L442.61,138.68 L443.69,139.41 L444.76,140.15 L445.83,140.89 L446.90,141.63 L447.97,142.36 L449.04,143.09 L450.11,143.81 L451.18,144.52 L452.25,145.23 L453.32,145.93 L454.39,146.62 L455.46,147.31 L456.54,148.00 L457.61,148.69 L458.68,149.38 L459.75,150.07 L460.82,150.77 L461.89,151.48 L462.96,152.19 L464.03,152.91 L465.10,153.64 L466.17,154.37 L467.24,155.11 L468.31,155.85 L469.39,156.59 L470.46,157.32 L471.53,158.05 L472.60,158.76 L473.67,159.46 L474.74,160.14 L475.81,160.79 L476.88,161.42 L477.95,162.02 L479.02,162.58 L480.09,163.11 L481.17,163.61 L482.24,164.07 L483.31,164.50 L484.38,164.90 L485.45,165.26 L486.52,165.60 L487.59,165.91 L488.66,166.20 L489.73,166.46 L490.80,166.71 L491.87,166.94 L492.94,167.16 L494.02,167.37 L495.09,167.56 L496.16,167.73 L497.23,167.89 L498.30,168.03 L499.37,168.14 L500.44,168.22 L501.51,168.27 L502.58,168.27 L503.65,168.21 L504.72,168.10 L505.80,167.91 L506.87,167.64 L507.94,167.29 L509.01,166.84 L510.08,166.29 L511.15,165.63 L512.22,164.86 L513.29,163.98 L514.36,162.98 L515.43,161.86 L516.50,160.64 L517.57,159.32 L518.65,157.90 L519.72,156.39 L520.79,154.81 L521.86,153.16 L522.93,151.47 L524.00,149.74" fill="none" stroke="#e0e0e0" stroke-width="1.4"/>
<text x="387" y="86" fill="#666" font-family="monospace" font-size="9">03</text>
<rect x="532" y="72" width="152" height="152" fill="#0b0b0b" stroke="#444"/>
<line x1="540" y1="148.00" x2="676" y2="148.00" stroke="#292929"/>
<path d="M540.00,148.00 L541.07,146.22 L542.14,144.46 L543.21,142.73 L544.28,141.05 L545.35,139.43 L546.43,137.90 L547.50,136.46 L548.57,135.12 L549.64,133.89 L550.71,132.77 L551.78,131.77 L552.85,130.90 L553.92,130.14 L554.99,129.50 L556.06,128.97 L557.13,128.54 L558.20,128.22 L559.28,127.98 L560.35,127.82 L561.42,127.74 L562.49,127.71 L563.56,127.74 L564.63,127.81 L565.70,127.92 L566.77,128.05 L567.84,128.21 L568.91,128.38 L569.98,128.57 L571.06,128.76 L572.13,128.97 L573.20,129.19 L574.27,129.42 L575.34,129.67 L576.41,129.93 L577.48,130.21 L578.55,130.51 L579.62,130.84 L580.69,131.20 L581.76,131.59 L582.83,132.01 L583.91,132.47 L584.98,132.96 L586.05,133.49 L587.12,134.06 L588.19,134.65 L589.26,135.28 L590.33,135.94 L591.40,136.62 L592.47,137.32 L593.54,138.04 L594.61,138.76 L595.69,139.50 L596.76,140.24 L597.83,140.98 L598.90,141.71 L599.97,142.44 L601.04,143.17 L602.11,143.88 L603.18,144.58 L604.25,145.28 L605.32,145.97 L606.39,146.65 L607.46,147.33 L608.54,148.00 L609.61,148.67 L610.68,149.35 L611.75,150.03 L612.82,150.72 L613.89,151.42 L614.96,152.12 L616.03,152.83 L617.10,153.56 L618.17,154.29 L619.24,155.02 L620.31,155.76 L621.39,156.50 L622.46,157.24 L623.53,157.96 L624.60,158.68 L625.67,159.38 L626.74,160.06 L627.81,160.72 L628.88,161.35 L629.95,161.94 L631.02,162.51 L632.09,163.04 L633.17,163.53 L634.24,163.99 L635.31,164.41 L636.38,164.80 L637.45,165.16 L638.52,165.49 L639.59,165.79 L640.66,166.07 L641.73,166.33 L642.80,166.58 L643.87,166.81 L644.94,167.03 L646.02,167.24 L647.09,167.43 L648.16,167.62 L649.23,167.79 L650.30,167.95 L651.37,168.08 L652.44,168.19 L653.51,168.26 L654.58,168.29 L655.65,168.26 L656.72,168.18 L657.80,168.02 L658.87,167.78 L659.94,167.46 L661.01,167.03 L662.08,166.50 L663.15,165.86 L664.22,165.10 L665.29,164.23 L666.36,163.23 L667.43,162.11 L668.50,160.88 L669.57,159.54 L670.65,158.10 L671.72,156.57 L672.79,154.95 L673.86,153.27 L674.93,151.54 L676.00,149.78" fill="none" stroke="#e0e0e0" stroke-width="1.4"/>
<text x="539" y="86" fill="#666" font-family="monospace" font-size="9">04</text>
<rect x="76" y="224" width="152" height="152" fill="#0b0b0b" stroke="#444"/>
<line x1="84" y1="300.00" x2="220" y2="300.00" stroke="#292929"/>
<path d="M84.00,300.00 L85.07,296.97 L86.14,293.99 L87.21,291.13 L88.28,288.43 L89.35,285.94 L90.43,283.69 L91.50,281.71 L92.57,280.01 L93.64,278.60 L94.71,277.48 L95.78,276.62 L96.85,276.02 L97.92,275.65 L98.99,275.47 L100.06,275.47 L101.13,275.61 L102.20,275.88 L103.28,276.25 L104.35,276.69 L105.42,277.21 L106.49,277.78 L107.56,278.40 L108.63,279.07 L109.70,279.77 L110.77,280.52 L111.84,281.29 L112.91,282.09 L113.98,282.92 L115.06,283.75 L116.13,284.58 L117.20,285.40 L118.27,286.20 L119.34,286.95 L120.41,287.66 L121.48,288.32 L122.55,288.92 L123.62,289.45 L124.69,289.93 L125.76,290.37 L126.83,290.77 L127.91,291.15 L128.98,291.52 L130.05,291.91 L131.12,292.33 L132.19,292.80 L133.26,293.32 L134.33,293.89 L135.40,294.53 L136.47,295.21 L137.54,295.93 L138.61,296.67 L139.69,297.41 L140.76,298.13 L141.83,298.79 L142.90,299.38 L143.97,299.87 L145.04,300.26 L146.11,300.52 L147.18,300.67 L148.25,300.70 L149.32,300.62 L150.39,300.47 L151.46,300.25 L152.54,300.00 L153.61,299.75 L154.68,299.53 L155.75,299.38 L156.82,299.30 L157.89,299.33 L158.96,299.48 L160.03,299.74 L161.10,300.13 L162.17,300.62 L163.24,301.21 L164.31,301.87 L165.39,302.59 L166.46,303.33 L167.53,304.07 L168.60,304.79 L169.67,305.47 L170.74,306.11 L171.81,306.68 L172.88,307.20 L173.95,307.67 L175.02,308.09 L176.09,308.48 L177.17,308.85 L178.24,309.23 L179.31,309.63 L180.38,310.07 L181.45,310.55 L182.52,311.08 L183.59,311.68 L184.66,312.34 L185.73,313.05 L186.80,313.80 L187.87,314.60 L188.94,315.42 L190.02,316.25 L191.09,317.08 L192.16,317.91 L193.23,318.71 L194.30,319.48 L195.37,320.23 L196.44,320.93 L197.51,321.60 L198.58,322.22 L199.65,322.79 L200.72,323.31 L201.80,323.75 L202.87,324.12 L203.94,324.39 L205.01,324.53 L206.08,324.53 L207.15,324.35 L208.22,323.98 L209.29,323.38 L210.36,322.52 L211.43,321.40 L212.50,319.99 L213.57,318.29 L214.65,316.31 L215.72,314.06 L216.79,311.57 L217.86,308.87 L218.93,306.01 L220.00,303.03" fill="none" stroke="#e0e0e0" stroke-width="1.4"/>
<text x="83" y="238" fill="#666" font-family="monospace" font-size="9">05</text>
<rect x="228" y="224" width="152" height="152" fill="#0b0b0b" stroke="#444"/>
<line x1="236" y1="300.00" x2="372" y2="300.00" stroke="#292929"/>
<path d="M236.00,300.00 L237.07,296.73 L238.14,293.52 L239.21,290.45 L240.28,287.57 L241.35,284.94 L242.43,282.59 L243.50,280.55 L244.57,278.84 L245.64,277.46 L246.71,276.41 L247.78,275.65 L248.85,275.17 L249.92,274.94 L250.99,274.92 L252.06,275.07 L253.13,275.36 L254.20,275.77 L255.28,276.27 L256.35,276.83 L257.42,277.45 L258.49,278.10 L259.56,278.80 L260.63,279.53 L261.70,280.30 L262.77,281.09 L263.84,281.92 L264.91,282.78 L265.98,283.65 L267.06,284.54 L268.13,285.42 L269.20,286.28 L270.27,287.12 L271.34,287.90 L272.41,288.62 L273.48,289.27 L274.55,289.85 L275.62,290.34 L276.69,290.77 L277.76,291.13 L278.83,291.45 L279.91,291.75 L280.98,292.04 L282.05,292.35 L283.12,292.70 L284.19,293.12 L285.26,293.60 L286.33,294.17 L287.40,294.81 L288.47,295.53 L289.54,296.30 L290.61,297.10 L291.69,297.91 L292.76,298.69 L293.83,299.41 L294.90,300.05 L295.97,300.57 L297.04,300.96 L298.11,301.21 L299.18,301.30 L300.25,301.24 L301.32,301.06 L302.39,300.77 L303.46,300.40 L304.54,300.00 L305.61,299.60 L306.68,299.23 L307.75,298.94 L308.82,298.76 L309.89,298.70 L310.96,298.79 L312.03,299.04 L313.10,299.43 L314.17,299.95 L315.24,300.59 L316.31,301.31 L317.39,302.09 L318.46,302.90 L319.53,303.70 L320.60,304.47 L321.67,305.19 L322.74,305.83 L323.81,306.40 L324.88,306.88 L325.95,307.30 L327.02,307.65 L328.09,307.96 L329.17,308.25 L330.24,308.55 L331.31,308.87 L332.38,309.23 L333.45,309.66 L334.52,310.15 L335.59,310.73 L336.66,311.38 L337.73,312.10 L338.80,312.88 L339.87,313.72 L340.94,314.58 L342.02,315.46 L343.09,316.35 L344.16,317.22 L345.23,318.08 L346.30,318.91 L347.37,319.70 L348.44,320.47 L349.51,321.20 L350.58,321.90 L351.65,322.55 L352.72,323.17 L353.80,323.73 L354.87,324.23 L355.94,324.64 L357.01,324.93 L358.08,325.08 L359.15,325.06 L360.22,324.83 L361.29,324.35 L362.36,323.59 L363.43,322.54 L364.50,321.16 L365.57,319.45 L366.65,317.41 L367.72,315.06 L368.79,312.43 L369.86,309.55 L370.93,306.48 L372.00,303.27" fill="none" stroke="#e0e0e0" stroke-width="1.4"/>
<text x="235" y="238" fill="#666" font-family="monospace" font-size="9">06</text>
<rect x="380" y="224" width="152" height="152" fill="#0b0b0b" stroke="#444"/>
<line x1="388" y1="300.00" x2="524" y2="300.00" stroke="#292929"/>
<path d="M388.00,300.00 L389.07,296.38 L390.14,292.85 L391.21,289.49 L392.28,286.37 L393.35,283.55 L394.43,281.08 L395.50,278.99 L396.57,277.29 L397.64,275.98 L398.71,275.05 L399.78,274.47 L400.85,274.20 L401.92,274.19 L402.99,274.40 L404.06,274.78 L405.13,275.29 L406.20,275.89 L407.28,276.55 L408.35,277.24 L409.42,277.97 L410.49,278.71 L411.56,279.47 L412.63,280.25 L413.70,281.05 L414.77,281.89 L415.84,282.77 L416.91,283.67 L417.98,284.60 L419.06,285.55 L420.13,286.50 L421.20,287.43 L422.27,288.31 L423.34,289.14 L424.41,289.88 L425.48,290.53 L426.55,291.08 L427.62,291.52 L428.69,291.85 L429.76,292.11 L430.83,292.30 L431.91,292.45 L432.98,292.60 L434.05,292.77 L435.12,293.01 L436.19,293.33 L437.26,293.76 L438.33,294.30 L439.40,294.97 L440.47,295.74 L441.54,296.60 L442.61,297.52 L443.69,298.46 L444.76,299.37 L445.83,300.22 L446.90,300.96 L447.97,301.56 L449.04,301.98 L450.11,302.20 L451.18,302.23 L452.25,302.06 L453.32,301.71 L454.39,301.23 L455.46,300.64 L456.54,300.00 L457.61,299.36 L458.68,298.77 L459.75,298.29 L460.82,297.94 L461.89,297.77 L462.96,297.80 L464.03,298.02 L465.10,298.44 L466.17,299.04 L467.24,299.78 L468.31,300.63 L469.39,301.54 L470.46,302.48 L471.53,303.40 L472.60,304.26 L473.67,305.03 L474.74,305.70 L475.81,306.24 L476.88,306.67 L477.95,306.99 L479.02,307.23 L480.09,307.40 L481.17,307.55 L482.24,307.70 L483.31,307.89 L484.38,308.15 L485.45,308.48 L486.52,308.92 L487.59,309.47 L488.66,310.12 L489.73,310.86 L490.80,311.69 L491.87,312.57 L492.94,313.50 L494.02,314.45 L495.09,315.40 L496.16,316.33 L497.23,317.23 L498.30,318.11 L499.37,318.95 L500.44,319.75 L501.51,320.53 L502.58,321.29 L503.65,322.03 L504.72,322.76 L505.80,323.45 L506.87,324.11 L507.94,324.71 L509.01,325.22 L510.08,325.60 L511.15,325.81 L512.22,325.80 L513.29,325.53 L514.36,324.95 L515.43,324.02 L516.50,322.71 L517.57,321.01 L518.65,318.92 L519.72,316.45 L520.79,313.63 L521.86,310.51 L522.93,307.15 L524.00,303.62" fill="none" stroke="#e0e0e0" stroke-width="1.4"/>
<text x="387" y="238" fill="#666" font-family="monospace" font-size="9">07</text>
<rect x="532" y="224" width="152" height="152" fill="#0b0b0b" stroke="#444"/>
<line x1="540" y1="300.00" x2="676" y2="300.00" stroke="#292929"/>
<path d="M540.00,300.00 L541.07,296.23 L542.14,292.56 L543.21,289.06 L544.28,285.84 L545.35,282.94 L546.43,280.42 L547.50,278.31 L548.57,276.63 L549.64,275.37 L550.71,274.51 L551.78,274.01 L552.85,273.84 L553.92,273.94 L554.99,274.26 L556.06,274.75 L557.13,275.35 L558.20,276.03 L559.28,276.75 L560.35,277.50 L561.42,278.25 L562.49,279.02 L563.56,279.79 L564.63,280.58 L565.70,281.39 L566.77,282.24 L567.84,283.12 L568.91,284.04 L569.98,284.99 L571.06,285.97 L572.13,286.94 L573.20,287.90 L574.27,288.82 L575.34,289.67 L576.41,290.42 L577.48,291.08 L578.55,291.61 L579.62,292.02 L580.69,292.32 L581.76,292.51 L582.83,292.64 L583.91,292.72 L584.98,292.80 L586.05,292.91 L587.12,293.08 L588.19,293.36 L589.26,293.76 L590.33,294.29 L591.40,294.97 L592.47,295.77 L593.54,296.68 L594.61,297.65 L595.69,298.66 L596.76,299.65 L597.83,300.57 L598.90,301.36 L599.97,302.00 L601.04,302.44 L602.11,302.66 L603.18,302.66 L604.25,302.44 L605.32,302.02 L606.39,301.44 L607.46,300.75 L608.54,300.00 L609.61,299.25 L610.68,298.56 L611.75,297.98 L612.82,297.56 L613.89,297.34 L614.96,297.34 L616.03,297.56 L617.10,298.00 L618.17,298.64 L619.24,299.43 L620.31,300.35 L621.39,301.34 L622.46,302.35 L623.53,303.32 L624.60,304.23 L625.67,305.03 L626.74,305.71 L627.81,306.24 L628.88,306.64 L629.95,306.92 L631.02,307.09 L632.09,307.20 L633.17,307.28 L634.24,307.36 L635.31,307.49 L636.38,307.68 L637.45,307.98 L638.52,308.39 L639.59,308.92 L640.66,309.58 L641.73,310.33 L642.80,311.18 L643.87,312.10 L644.94,313.06 L646.02,314.03 L647.09,315.01 L648.16,315.96 L649.23,316.88 L650.30,317.76 L651.37,318.61 L652.44,319.42 L653.51,320.21 L654.58,320.98 L655.65,321.75 L656.72,322.50 L657.80,323.25 L658.87,323.97 L659.94,324.65 L661.01,325.25 L662.08,325.74 L663.15,326.06 L664.22,326.16 L665.29,325.99 L666.36,325.49 L667.43,324.63 L668.50,323.37 L669.57,321.69 L670.65,319.58 L671.72,317.06 L672.79,314.16 L673.86,310.94 L674.93,307.44 L676.00,303.77" fill="none" stroke="#e0e0e0" stroke-width="1.4"/>
<text x="539" y="238" fill="#666" font-family="monospace" font-size="9">08</text>
<rect x="76" y="376" width="152" height="152" fill="#0b0b0b" stroke="#444"/>
<line x1="84" y1="452.00" x2="220" y2="452.00" stroke="#292929"/>
<path d="M84.00,452.00 L85.07,447.37 L86.14,442.90 L87.21,438.76 L88.28,435.06 L89.35,431.90 L90.43,429.34 L91.50,427.38 L92.57,426.00 L93.64,425.14 L94.71,424.73 L95.78,424.68 L96.85,424.90 L97.92,425.31 L98.99,425.86 L100.06,426.50 L101.13,427.21 L102.20,427.99 L103.28,428.84 L104.35,429.77 L105.42,430.81 L106.49,431.95 L107.56,433.19 L108.63,434.51 L109.70,435.89 L110.77,437.28 L111.84,438.64 L112.91,439.94 L113.98,441.13 L115.06,442.20 L116.13,443.11 L117.20,443.88 L118.27,444.50 L119.34,444.99 L120.41,445.36 L121.48,445.64 L122.55,445.83 L123.62,445.94 L124.69,445.98 L125.76,445.94 L126.83,445.82 L127.91,445.63 L128.98,445.37 L130.05,445.06 L131.12,444.73 L132.19,444.42 L133.26,444.18 L134.33,444.08 L135.40,444.15 L136.47,444.45 L137.54,445.00 L138.61,445.81 L139.69,446.84 L140.76,448.04 L141.83,449.35 L142.90,450.67 L143.97,451.91 L145.04,452.96 L146.11,453.74 L147.18,454.21 L148.25,454.32 L149.32,454.09 L150.39,453.58 L151.46,452.85 L152.54,452.00 L153.61,451.15 L154.68,450.42 L155.75,449.91 L156.82,449.68 L157.89,449.79 L158.96,450.26 L160.03,451.04 L161.10,452.09 L162.17,453.33 L163.24,454.65 L164.31,455.96 L165.39,457.16 L166.46,458.19 L167.53,459.00 L168.60,459.55 L169.67,459.85 L170.74,459.92 L171.81,459.82 L172.88,459.58 L173.95,459.27 L175.02,458.94 L176.09,458.63 L177.17,458.37 L178.24,458.18 L179.31,458.06 L180.38,458.02 L181.45,458.06 L182.52,458.17 L183.59,458.36 L184.66,458.64 L185.73,459.01 L186.80,459.50 L187.87,460.12 L188.94,460.89 L190.02,461.80 L191.09,462.87 L192.16,464.06 L193.23,465.36 L194.30,466.72 L195.37,468.11 L196.44,469.49 L197.51,470.81 L198.58,472.05 L199.65,473.19 L200.72,474.23 L201.80,475.16 L202.87,476.01 L203.94,476.79 L205.01,477.50 L206.08,478.14 L207.15,478.69 L208.22,479.10 L209.29,479.32 L210.36,479.27 L211.43,478.86 L212.50,478.00 L213.57,476.62 L214.65,474.66 L215.72,472.10 L216.79,468.94 L217.86,465.24 L218.93,461.10 L220.00,456.63" fill="none" stroke="#e0e0e0" stroke-width="1.4"/>
<text x="83" y="390" fill="#666" font-family="monospace" font-size="9">09</text>
<rect x="228" y="376" width="152" height="152" fill="#0b0b0b" stroke="#444"/>
<line x1="236" y1="452.00" x2="372" y2="452.00" stroke="#292929"/>
<path d="M236.00,452.00 L237.07,446.88 L238.14,441.97 L239.21,437.45 L240.28,433.48 L241.35,430.16 L242.43,427.56 L243.50,425.68 L244.57,424.47 L245.64,423.86 L246.71,423.75 L247.78,424.01 L248.85,424.54 L249.92,425.23 L250.99,426.00 L252.06,426.83 L253.13,427.67 L254.20,428.55 L255.28,429.47 L256.35,430.46 L257.42,431.56 L258.49,432.77 L259.56,434.09 L260.63,435.52 L261.70,437.01 L262.77,438.52 L263.84,440.00 L264.91,441.39 L265.98,442.66 L267.06,443.77 L268.13,444.70 L269.20,445.46 L270.27,446.04 L271.34,446.47 L272.41,446.78 L273.48,446.98 L274.55,447.10 L275.62,447.15 L276.69,447.11 L277.76,446.99 L278.83,446.78 L279.91,446.47 L280.98,446.07 L282.05,445.59 L283.12,445.08 L284.19,444.58 L285.26,444.17 L286.33,443.90 L287.40,443.86 L288.47,444.10 L289.54,444.66 L290.61,445.54 L291.69,446.73 L292.76,448.14 L293.83,449.70 L294.90,451.28 L295.97,452.76 L297.04,454.00 L298.11,454.91 L299.18,455.40 L300.25,455.44 L301.32,455.04 L302.39,454.26 L303.46,453.20 L304.54,452.00 L305.61,450.80 L306.68,449.74 L307.75,448.96 L308.82,448.56 L309.89,448.60 L310.96,449.09 L312.03,450.00 L313.10,451.24 L314.17,452.72 L315.24,454.30 L316.31,455.86 L317.39,457.27 L318.46,458.46 L319.53,459.34 L320.60,459.90 L321.67,460.14 L322.74,460.10 L323.81,459.83 L324.88,459.42 L325.95,458.92 L327.02,458.41 L328.09,457.93 L329.17,457.53 L330.24,457.22 L331.31,457.01 L332.38,456.89 L333.45,456.85 L334.52,456.90 L335.59,457.02 L336.66,457.22 L337.73,457.53 L338.80,457.96 L339.87,458.54 L340.94,459.30 L342.02,460.23 L343.09,461.34 L344.16,462.61 L345.23,464.00 L346.30,465.48 L347.37,466.99 L348.44,468.48 L349.51,469.91 L350.58,471.23 L351.65,472.44 L352.72,473.54 L353.80,474.53 L354.87,475.45 L355.94,476.33 L357.01,477.17 L358.08,478.00 L359.15,478.77 L360.22,479.46 L361.29,479.99 L362.36,480.25 L363.43,480.14 L364.50,479.53 L365.57,478.32 L366.65,476.44 L367.72,473.84 L368.79,470.52 L369.86,466.55 L370.93,462.03 L372.00,457.12" fill="none" stroke="#e0e0e0" stroke-width="1.4"/>
<text x="235" y="390" fill="#666" font-family="monospace" font-size="9">10</text>
<rect x="380" y="376" width="152" height="152" fill="#0b0b0b" stroke="#444"/>
<line x1="388" y1="452.00" x2="524" y2="452.00" stroke="#292929"/>
<path d="M388.00,452.00 L389.07,446.14 L390.14,440.55 L391.21,435.48 L392.28,431.14 L393.35,427.65 L394.43,425.09 L395.50,423.44 L396.57,422.62 L397.64,422.51 L398.71,422.94 L399.78,423.74 L400.85,424.75 L401.92,425.84 L402.99,426.91 L404.06,427.92 L405.13,428.85 L406.20,429.73 L407.28,430.62 L408.35,431.57 L409.42,432.65 L410.49,433.87 L411.56,435.26 L412.63,436.80 L413.70,438.45 L414.77,440.13 L415.84,441.78 L416.91,443.32 L417.98,444.68 L419.06,445.84 L420.13,446.76 L421.20,447.45 L422.27,447.93 L423.34,448.25 L424.41,448.44 L425.48,448.54 L426.55,448.57 L427.62,448.55 L428.69,448.46 L429.76,448.29 L430.83,448.01 L431.91,447.59 L432.98,447.03 L434.05,446.34 L435.12,445.56 L436.19,444.75 L437.26,444.02 L438.33,443.46 L439.40,443.18 L440.47,443.27 L441.54,443.81 L442.61,444.81 L443.69,446.24 L444.76,448.03 L445.83,450.03 L446.90,452.10 L447.97,454.04 L449.04,455.67 L450.11,456.83 L451.18,457.41 L452.25,457.36 L453.32,456.68 L454.39,455.46 L455.46,453.83 L456.54,452.00 L457.61,450.17 L458.68,448.54 L459.75,447.32 L460.82,446.64 L461.89,446.59 L462.96,447.17 L464.03,448.33 L465.10,449.96 L466.17,451.90 L467.24,453.97 L468.31,455.97 L469.39,457.76 L470.46,459.19 L471.53,460.19 L472.60,460.73 L473.67,460.82 L474.74,460.54 L475.81,459.98 L476.88,459.25 L477.95,458.44 L479.02,457.66 L480.09,456.97 L481.17,456.41 L482.24,455.99 L483.31,455.71 L484.38,455.54 L485.45,455.45 L486.52,455.43 L487.59,455.46 L488.66,455.56 L489.73,455.75 L490.80,456.07 L491.87,456.55 L492.94,457.24 L494.02,458.16 L495.09,459.32 L496.16,460.68 L497.23,462.22 L498.30,463.87 L499.37,465.55 L500.44,467.20 L501.51,468.74 L502.58,470.13 L503.65,471.35 L504.72,472.43 L505.80,473.38 L506.87,474.27 L507.94,475.15 L509.01,476.08 L510.08,477.09 L511.15,478.16 L512.22,479.25 L513.29,480.26 L514.36,481.06 L515.43,481.49 L516.50,481.38 L517.57,480.56 L518.65,478.91 L519.72,476.35 L520.79,472.86 L521.86,468.52 L522.93,463.45 L524.00,457.86" fill="none" stroke="#e0e0e0" stroke-width="1.4"/>
<text x="387" y="390" fill="#666" font-family="monospace" font-size="9">11</text>
<rect x="532" y="376" width="152" height="152" fill="#0b0b0b" stroke="#444"/>
<line x1="540" y1="452.00" x2="676" y2="452.00" stroke="#292929"/>
<path d="M540.00,452.00 L541.07,445.79 L542.14,439.88 L543.21,434.57 L544.28,430.07 L545.35,426.53 L546.43,424.02 L547.50,422.52 L548.57,421.92 L549.64,422.08 L550.71,422.79 L551.78,423.86 L552.85,425.11 L553.92,426.38 L554.99,427.56 L556.06,428.62 L557.13,429.54 L558.20,430.38 L559.28,431.21 L560.35,432.09 L561.42,433.12 L562.49,434.32 L563.56,435.73 L564.63,437.31 L565.70,439.03 L566.77,440.80 L567.84,442.53 L568.91,444.13 L569.98,445.55 L571.06,446.71 L572.13,447.62 L573.20,448.26 L574.27,448.68 L575.34,448.93 L576.41,449.05 L577.48,449.10 L578.55,449.10 L579.62,449.07 L580.69,448.98 L581.76,448.81 L582.83,448.53 L583.91,448.09 L584.98,447.48 L586.05,446.70 L587.12,445.80 L588.19,444.84 L589.26,443.94 L590.33,443.22 L591.40,442.81 L592.47,442.81 L593.54,443.32 L594.61,444.36 L595.69,445.91 L596.76,447.88 L597.83,450.12 L598.90,452.44 L599.97,454.63 L601.04,456.47 L602.11,457.78 L603.18,458.42 L604.25,458.33 L605.32,457.51 L606.39,456.06 L607.46,454.16 L608.54,452.00 L609.61,449.84 L610.68,447.94 L611.75,446.49 L612.82,445.67 L613.89,445.58 L614.96,446.22 L616.03,447.53 L617.10,449.37 L618.17,451.56 L619.24,453.88 L620.31,456.12 L621.39,458.09 L622.46,459.64 L623.53,460.68 L624.60,461.19 L625.67,461.19 L626.74,460.78 L627.81,460.06 L628.88,459.16 L629.95,458.20 L631.02,457.30 L632.09,456.52 L633.17,455.91 L634.24,455.47 L635.31,455.19 L636.38,455.02 L637.45,454.93 L638.52,454.90 L639.59,454.90 L640.66,454.95 L641.73,455.07 L642.80,455.32 L643.87,455.74 L644.94,456.38 L646.02,457.29 L647.09,458.45 L648.16,459.87 L649.23,461.47 L650.30,463.20 L651.37,464.97 L652.44,466.69 L653.51,468.27 L654.58,469.68 L655.65,470.88 L656.72,471.91 L657.80,472.79 L658.87,473.62 L659.94,474.46 L661.01,475.38 L662.08,476.44 L663.15,477.62 L664.22,478.89 L665.29,480.14 L666.36,481.21 L667.43,481.92 L668.50,482.08 L669.57,481.48 L670.65,479.98 L671.72,477.47 L672.79,473.93 L673.86,469.43 L674.93,464.12 L676.00,458.21" fill="none" stroke="#e0e0e0" stroke-width="1.4"/>
<text x="539" y="390" fill="#666" font-family="monospace" font-size="9">12</text>
<rect x="76" y="528" width="152" height="152" fill="#0b0b0b" stroke="#444"/>
<line x1="84" y1="604.00" x2="220" y2="604.00" stroke="#292929"/>
<path d="M84.00,604.00 L85.07,597.03 L86.14,590.65 L87.21,585.27 L88.28,581.08 L89.35,578.00 L90.43,575.84 L91.50,574.40 L92.57,573.59 L93.64,573.40 L94.71,573.85 L95.78,574.91 L96.85,576.47 L97.92,578.31 L98.99,580.20 L100.06,581.97 L101.13,583.55 L102.20,584.98 L103.28,586.32 L104.35,587.58 L105.42,588.73 L106.49,589.68 L107.56,590.42 L108.63,591.00 L109.70,591.57 L110.77,592.30 L111.84,593.28 L112.91,594.45 L113.98,595.60 L115.06,596.46 L116.13,596.81 L117.20,596.65 L118.27,596.17 L119.34,595.69 L120.41,595.55 L121.48,595.92 L122.55,596.75 L123.62,597.80 L124.69,598.76 L125.76,599.37 L126.83,599.53 L127.91,599.30 L128.98,598.83 L130.05,598.27 L131.12,597.68 L132.19,597.07 L133.26,596.40 L134.33,595.72 L135.40,595.12 L136.47,594.76 L137.54,594.77 L138.61,595.20 L139.69,595.99 L140.76,597.01 L141.83,598.13 L142.90,599.30 L143.97,600.54 L145.04,601.89 L146.11,603.36 L147.18,604.78 L148.25,605.91 L149.32,606.47 L150.39,606.27 L151.46,605.35 L152.54,604.00 L153.61,602.65 L154.68,601.73 L155.75,601.53 L156.82,602.09 L157.89,603.22 L158.96,604.64 L160.03,606.11 L161.10,607.46 L162.17,608.70 L163.24,609.87 L164.31,610.99 L165.39,612.01 L166.46,612.80 L167.53,613.23 L168.60,613.24 L169.67,612.88 L170.74,612.28 L171.81,611.60 L172.88,610.93 L173.95,610.32 L175.02,609.73 L176.09,609.17 L177.17,608.70 L178.24,608.47 L179.31,608.63 L180.38,609.24 L181.45,610.20 L182.52,611.25 L183.59,612.08 L184.66,612.45 L185.73,612.31 L186.80,611.83 L187.87,611.35 L188.94,611.19 L190.02,611.54 L191.09,612.40 L192.16,613.55 L193.23,614.72 L194.30,615.70 L195.37,616.43 L196.44,617.00 L197.51,617.58 L198.58,618.32 L199.65,619.27 L200.72,620.42 L201.80,621.68 L202.87,623.02 L203.94,624.45 L205.01,626.03 L206.08,627.80 L207.15,629.69 L208.22,631.53 L209.29,633.09 L210.36,634.15 L211.43,634.60 L212.50,634.41 L213.57,633.60 L214.65,632.16 L215.72,630.00 L216.79,626.92 L217.86,622.73 L218.93,617.35 L220.00,610.97" fill="none" stroke="#e0e0e0" stroke-width="1.4"/>
<text x="83" y="542" fill="#666" font-family="monospace" font-size="9">13</text>
<rect x="228" y="528" width="152" height="152" fill="#0b0b0b" stroke="#444"/>
<line x1="236" y1="604.00" x2="372" y2="604.00" stroke="#292929"/>
<path d="M236.00,604.00 L237.07,596.11 L238.14,588.95 L239.21,583.04 L240.28,578.60 L241.35,575.52 L242.43,573.54 L243.50,572.39 L244.57,571.93 L245.64,572.13 L246.71,573.02 L247.78,574.57 L248.85,576.63 L249.92,578.95 L250.99,581.26 L252.06,583.36 L253.13,585.18 L254.20,586.76 L255.28,588.18 L256.35,589.47 L257.42,590.59 L258.49,591.47 L259.56,592.09 L260.63,592.54 L261.70,593.01 L262.77,593.72 L263.84,594.77 L264.91,596.07 L265.98,597.34 L267.06,598.23 L268.13,598.50 L269.20,598.10 L270.27,597.31 L271.34,596.55 L272.41,596.23 L273.48,596.59 L274.55,597.57 L275.62,598.86 L276.69,600.06 L277.76,600.83 L278.83,601.04 L279.91,600.75 L280.98,600.13 L282.05,599.37 L283.12,598.56 L284.19,597.71 L285.26,596.80 L286.33,595.86 L287.40,595.03 L288.47,594.49 L289.54,594.40 L290.61,594.82 L291.69,595.68 L292.76,596.82 L293.83,598.09 L294.90,599.44 L295.97,600.89 L297.04,602.50 L298.11,604.24 L299.18,605.93 L300.25,607.21 L301.32,607.75 L302.39,607.30 L303.46,605.93 L304.54,604.00 L305.61,602.07 L306.68,600.70 L307.75,600.25 L308.82,600.79 L309.89,602.07 L310.96,603.76 L312.03,605.50 L313.10,607.11 L314.17,608.56 L315.24,609.91 L316.31,611.18 L317.39,612.32 L318.46,613.18 L319.53,613.60 L320.60,613.51 L321.67,612.97 L322.74,612.14 L323.81,611.20 L324.88,610.29 L325.95,609.44 L327.02,608.63 L328.09,607.87 L329.17,607.25 L330.24,606.96 L331.31,607.17 L332.38,607.94 L333.45,609.14 L334.52,610.43 L335.59,611.41 L336.66,611.77 L337.73,611.45 L338.80,610.69 L339.87,609.90 L340.94,609.50 L342.02,609.77 L343.09,610.66 L344.16,611.93 L345.23,613.23 L346.30,614.28 L347.37,614.99 L348.44,615.46 L349.51,615.91 L350.58,616.53 L351.65,617.41 L352.72,618.53 L353.80,619.82 L354.87,621.24 L355.94,622.82 L357.01,624.64 L358.08,626.74 L359.15,629.05 L360.22,631.37 L361.29,633.43 L362.36,634.98 L363.43,635.87 L364.50,636.07 L365.57,635.61 L366.65,634.46 L367.72,632.48 L368.79,629.40 L369.86,624.96 L370.93,619.05 L372.00,611.89" fill="none" stroke="#e0e0e0" stroke-width="1.4"/>
<text x="235" y="542" fill="#666" font-family="monospace" font-size="9">14</text>
<rect x="380" y="528" width="152" height="152" fill="#0b0b0b" stroke="#444"/>
<line x1="388" y1="604.00" x2="524" y2="604.00" stroke="#292929"/>
<path d="M388.00,604.00 L389.07,594.31 L390.14,585.79 L391.21,579.26 L392.28,574.90 L393.35,572.41 L394.43,571.18 L395.50,570.69 L396.57,570.72 L397.64,571.32 L398.71,572.68 L399.78,574.87 L400.85,577.72 L401.92,580.84 L402.99,583.77 L404.06,586.21 L405.13,588.12 L406.20,589.65 L407.28,591.01 L408.35,592.27 L409.42,593.36 L410.49,594.09 L411.56,594.36 L412.63,594.33 L413.70,594.36 L414.77,594.87 L415.84,596.12 L416.91,597.97 L417.98,599.89 L419.06,601.19 L420.13,601.36 L421.20,600.32 L422.27,598.53 L423.34,596.81 L424.41,595.94 L425.48,596.35 L426.55,597.93 L427.62,600.10 L428.69,602.08 L429.76,603.28 L430.83,603.50 L431.91,602.90 L432.98,601.88 L434.05,600.77 L435.12,599.71 L436.19,598.64 L437.26,597.44 L438.33,596.08 L439.40,594.77 L440.47,593.82 L441.54,593.55 L442.61,594.05 L443.69,595.17 L444.76,596.60 L445.83,598.07 L446.90,599.52 L447.97,601.09 L449.04,603.00 L450.11,605.32 L451.18,607.77 L452.25,609.76 L453.32,610.59 L454.39,609.79 L455.46,607.39 L456.54,604.00 L457.61,600.61 L458.68,598.21 L459.75,597.41 L460.82,598.24 L461.89,600.23 L462.96,602.68 L464.03,605.00 L465.10,606.91 L466.17,608.48 L467.24,609.93 L468.31,611.40 L469.39,612.83 L470.46,613.95 L471.53,614.45 L472.60,614.18 L473.67,613.23 L474.74,611.92 L475.81,610.56 L476.88,609.36 L477.95,608.29 L479.02,607.23 L480.09,606.12 L481.17,605.10 L482.24,604.50 L483.31,604.72 L484.38,605.92 L485.45,607.90 L486.52,610.07 L487.59,611.65 L488.66,612.06 L489.73,611.19 L490.80,609.47 L491.87,607.68 L492.94,606.64 L494.02,606.81 L495.09,608.11 L496.16,610.03 L497.23,611.88 L498.30,613.13 L499.37,613.64 L500.44,613.67 L501.51,613.64 L502.58,613.91 L503.65,614.64 L504.72,615.73 L505.80,616.99 L506.87,618.35 L507.94,619.88 L509.01,621.79 L510.08,624.23 L511.15,627.16 L512.22,630.28 L513.29,633.13 L514.36,635.32 L515.43,636.68 L516.50,637.28 L517.57,637.31 L518.65,636.82 L519.72,635.59 L520.79,633.10 L521.86,628.74 L522.93,622.21 L524.00,613.69" fill="none" stroke="#e0e0e0" stroke-width="1.4"/>
<text x="387" y="542" fill="#666" font-family="monospace" font-size="9">15</text>
<rect x="532" y="528" width="152" height="152" fill="#0b0b0b" stroke="#444"/>
<line x1="540" y1="604.00" x2="676" y2="604.00" stroke="#292929"/>
<path d="M540.00,604.00 L541.07,593.23 L542.14,584.00 L543.21,577.28 L544.28,573.25 L545.35,571.36 L546.43,570.71 L547.50,570.59 L548.57,570.74 L549.64,571.34 L550.71,572.77 L551.78,575.22 L552.85,578.49 L553.92,582.05 L554.99,585.29 L556.06,587.81 L557.13,589.61 L558.20,590.97 L559.28,592.22 L560.35,593.50 L561.42,594.65 L562.49,595.36 L563.56,595.43 L564.63,595.02 L565.70,594.65 L566.77,594.95 L567.84,596.33 L568.91,598.62 L569.98,601.12 L571.06,602.84 L572.13,603.02 L573.20,601.52 L574.27,598.96 L575.34,596.49 L576.41,595.20 L577.48,595.70 L578.55,597.79 L579.62,600.65 L580.69,603.20 L581.76,604.64 L582.83,604.75 L583.91,603.85 L584.98,602.51 L586.05,601.23 L587.12,600.16 L588.19,599.12 L589.26,597.85 L590.33,596.28 L591.40,594.65 L592.47,593.42 L593.54,593.04 L594.61,593.64 L595.69,595.00 L596.76,596.65 L597.83,598.20 L598.90,599.55 L599.97,600.99 L601.04,602.92 L602.11,605.54 L603.18,608.55 L604.25,611.15 L605.32,612.34 L606.39,611.42 L607.46,608.37 L608.54,604.00 L609.61,599.63 L610.68,596.58 L611.75,595.66 L612.82,596.85 L613.89,599.45 L614.96,602.46 L616.03,605.08 L617.10,607.01 L618.17,608.45 L619.24,609.80 L620.31,611.35 L621.39,613.00 L622.46,614.36 L623.53,614.96 L624.60,614.58 L625.67,613.35 L626.74,611.72 L627.81,610.15 L628.88,608.88 L629.95,607.84 L631.02,606.77 L632.09,605.49 L633.17,604.15 L634.24,603.25 L635.31,603.36 L636.38,604.80 L637.45,607.35 L638.52,610.21 L639.59,612.30 L640.66,612.80 L641.73,611.51 L642.80,609.04 L643.87,606.48 L644.94,604.98 L646.02,605.16 L647.09,606.88 L648.16,609.38 L649.23,611.67 L650.30,613.05 L651.37,613.35 L652.44,612.98 L653.51,612.57 L654.58,612.64 L655.65,613.35 L656.72,614.50 L657.80,615.78 L658.87,617.03 L659.94,618.39 L661.01,620.19 L662.08,622.71 L663.15,625.95 L664.22,629.51 L665.29,632.78 L666.36,635.23 L667.43,636.66 L668.50,637.26 L669.57,637.41 L670.65,637.29 L671.72,636.64 L672.79,634.75 L673.86,630.72 L674.93,624.00 L676.00,614.77" fill="none" stroke="#e0e0e0" stroke-width="1.4"/>
<text x="539" y="542" fill="#666" font-family="monospace" font-size="9">16</text>
</svg>
