<svg xmlns="http://www.w3.org/2000/svg" width="760" height="760" viewBox="0 0 760 760">
<rect width="760" height="760" fill="#161616"/>
<text x="24" y="32" fill="#dedede" font-family="monospace" font-size="15">S3G VOT / GLITCH / FRACTURE</text>
<text x="684" y="724" text-anchor="end" fill="#858585" font-family="monospace" font-size="11">U / FRACTURE DEPTH</text>
<text x="24" y="72" fill="#858585" font-family="monospace" font-size="11">V / POLARITY AND DROPOUT MODE</text>
<text x="76" y="724" fill="#858585" font-family="monospace" font-size="11">ENERGY / LEVEL MATCHED</text>
<rect x="76" y="72" width="152" height="152" fill="#0b0b0b" stroke="#444"/>
<line x1="84" y1="148.00" x2="220" y2="148.00" stroke="#292929"/>
<path d="M84.00,150.17 L85.07,148.36 L86.14,145.56 L87.21,143.87 L88.28,142.30 L89.35,140.87 L90.43,139.59 L91.50,138.49 L92.57,137.56 L93.64,136.80 L94.71,136.18 L95.78,135.69 L96.85,135.30 L97.92,134.96 L98.99,134.66 L100.06,134.35 L101.13,138.58 L102.20,138.02 L103.28,137.50 L104.35,135.96 L105.42,135.50 L106.49,135.07 L107.56,134.67 L108.63,134.31 L109.70,133.98 L110.77,133.69 L111.84,133.44 L112.91,133.23 L113.98,133.05 L115.06,132.91 L116.13,132.81 L117.20,132.76 L118.27,123.60 L119.34,123.70 L120.41,122.98 L121.48,123.48 L122.55,124.17 L123.62,124.99 L124.69,125.92 L125.76,126.92 L126.83,127.95 L127.91,128.98 L128.98,129.97 L130.05,130.89 L131.12,131.71 L132.19,132.44 L133.26,133.06 L134.33,133.57 L135.40,138.58 L136.47,138.12 L137.54,138.73 L138.61,139.36 L139.69,140.02 L140.76,140.70 L141.83,141.40 L142.90,142.12 L143.97,142.85 L145.04,143.61 L146.11,144.37 L147.18,145.14 L148.25,145.93 L149.32,146.72 L150.39,147.52 L151.46,148.32 L152.54,150.17 L153.61,149.97 L154.68,149.81 L155.75,149.72 L156.82,148.70 L157.89,148.83 L158.96,149.11 L160.03,149.54 L161.10,150.11 L162.17,150.81 L163.24,151.64 L164.31,152.55 L165.39,153.51 L166.46,154.49 L167.53,155.46 L168.60,156.36 L169.67,158.21 L170.74,158.90 L171.81,159.44 L172.88,158.77 L173.95,158.97 L175.02,159.01 L176.09,158.88 L177.17,158.62 L178.24,158.24 L179.31,157.79 L180.38,157.29 L181.45,156.79 L182.52,156.32 L183.59,155.91 L184.66,155.60 L185.73,155.41 L186.80,176.74 L187.87,176.63 L188.94,175.28 L190.02,174.77 L191.09,174.09 L192.16,173.27 L193.23,172.34 L194.30,171.33 L195.37,170.30 L196.44,169.27 L197.51,168.29 L198.58,167.37 L199.65,166.54 L200.72,165.82 L201.80,165.20 L202.87,164.69 L203.94,165.30 L205.01,164.95 L206.08,163.60 L207.15,163.29 L208.22,162.96 L209.29,162.56 L210.36,162.07 L211.43,161.46 L212.50,160.69 L213.57,159.76 L214.65,158.66 L215.72,157.39 L216.79,155.95 L217.86,154.38 L218.93,152.70 L220.00,150.93" fill="none" stroke="#e0e0e0" stroke-width="1.4"/>
<text x="83" y="86" fill="#666" font-family="monospace" font-size="9">01</text>
<rect x="228" y="72" width="152" height="152" fill="#0b0b0b" stroke="#444"/>
<line x1="236" y1="148.00" x2="372" y2="148.00" stroke="#292929"/>
<path d="M236.00,151.48 L237.07,146.16 L238.14,143.56 L239.21,141.09 L240.28,138.83 L241.35,136.81 L242.43,135.08 L243.50,133.65 L244.57,132.53 L245.64,131.69 L246.71,143.25 L247.78,142.51 L248.85,139.14 L249.92,138.44 L250.99,137.77 L252.06,137.12 L253.13,136.50 L254.20,135.91 L255.28,135.35 L256.35,134.82 L257.42,130.08 L258.49,126.26 L259.56,124.89 L260.63,123.37 L261.70,121.74 L262.77,120.08 L263.84,118.45 L264.91,116.92 L265.98,115.55 L267.06,114.42 L268.13,131.47 L269.20,131.41 L270.27,131.39 L271.34,131.41 L272.41,131.47 L273.48,131.58 L274.55,131.72 L275.62,131.91 L276.69,132.14 L277.76,132.41 L278.83,146.33 L279.91,145.40 L280.98,142.00 L282.05,141.48 L283.12,141.21 L284.19,141.23 L285.26,141.54 L286.33,142.12 L287.40,142.95 L288.47,143.98 L289.54,147.81 L290.61,146.45 L291.69,147.74 L292.76,148.98 L293.83,150.11 L294.90,151.06 L295.97,151.79 L297.04,152.26 L298.11,152.46 L299.18,152.38 L300.25,141.47 L301.32,141.09 L302.39,143.56 L303.46,146.16 L304.54,148.84 L305.61,151.51 L306.68,154.12 L307.75,156.58 L308.82,158.85 L309.89,163.50 L310.96,162.59 L312.03,164.02 L313.10,165.15 L314.17,165.98 L315.24,166.56 L316.31,166.93 L317.39,167.13 L318.46,167.24 L319.53,167.31 L320.60,170.06 L321.67,167.63 L322.74,167.98 L323.81,168.52 L324.88,169.26 L325.95,170.23 L327.02,171.41 L328.09,172.79 L329.17,174.31 L330.24,175.93 L331.31,155.58 L332.38,151.85 L333.45,150.78 L334.52,149.79 L335.59,148.95 L336.66,148.31 L337.73,147.90 L338.80,147.77 L339.87,147.90 L340.94,148.31 L342.02,148.95 L343.09,149.79 L344.16,150.78 L345.23,151.85 L346.30,152.95 L347.37,153.99 L348.44,154.92 L349.51,155.67 L350.58,156.20 L351.65,156.47 L352.72,159.09 L353.80,156.14 L354.87,155.56 L355.94,154.73 L357.01,153.69 L358.08,152.50 L359.15,151.23 L360.22,149.94 L361.29,148.69 L362.36,147.57 L363.43,168.62 L364.50,167.79 L365.57,164.02 L366.65,162.59 L367.72,160.86 L368.79,158.85 L369.86,156.58 L370.93,154.12 L372.00,151.51" fill="none" stroke="#e0e0e0" stroke-width="1.4"/>
<text x="235" y="86" fill="#666" font-family="monospace" font-size="9">02</text>
<rect x="380" y="72" width="152" height="152" fill="#0b0b0b" stroke="#444"/>
<line x1="388" y1="148.00" x2="524" y2="148.00" stroke="#292929"/>
<path d="M388.00,152.11 L389.07,148.21 L390.14,150.40 L391.21,152.38 L392.28,154.07 L393.35,155.40 L394.43,156.31 L395.50,148.66 L396.57,141.98 L397.64,141.52 L398.71,141.07 L399.78,140.64 L400.85,140.21 L401.92,139.80 L402.99,134.21 L404.06,128.45 L405.13,128.73 L406.20,128.75 L407.28,128.46 L408.35,127.81 L409.42,126.79 L410.49,137.11 L411.56,136.86 L412.63,136.64 L413.70,136.43 L414.77,136.25 L415.84,136.09 L416.91,165.24 L417.98,166.94 L419.06,162.17 L420.13,163.25 L421.20,163.93 L422.27,164.16 L423.34,163.93 L424.41,169.45 L425.48,162.17 L426.55,160.73 L427.62,159.03 L428.69,157.16 L429.76,155.22 L430.83,153.32 L431.91,157.76 L432.98,150.03 L434.05,148.82 L435.12,147.98 L436.19,147.53 L437.26,147.50 L438.33,147.87 L439.40,138.66 L440.47,139.02 L441.54,139.40 L442.61,139.80 L443.69,140.21 L444.76,140.64 L445.83,132.66 L446.90,126.62 L447.97,127.16 L449.04,128.13 L450.11,129.56 L451.18,131.44 L452.25,133.74 L453.32,158.59 L454.39,150.40 L455.46,148.21 L456.54,145.91 L457.61,143.61 L458.68,141.42 L459.75,139.44 L460.82,137.75 L461.89,136.42 L462.96,135.51 L464.03,135.04 L465.10,135.01 L466.17,135.39 L467.24,136.13 L468.31,137.15 L469.39,138.38 L470.46,139.70 L471.53,141.02 L472.60,142.23 L473.67,143.23 L474.74,169.27 L475.81,169.56 L476.88,164.01 L477.95,165.03 L479.02,166.42 L480.09,168.13 L481.17,170.11 L482.24,161.59 L483.31,155.57 L484.38,155.73 L485.45,155.86 L486.52,155.97 L487.59,156.06 L488.66,156.12 L489.73,127.89 L490.80,127.66 L491.87,127.89 L492.94,128.57 L494.02,129.65 L495.09,131.09 L496.16,132.79 L497.23,183.00 L498.30,174.54 L499.37,172.27 L500.44,170.11 L501.51,168.13 L502.58,166.42 L503.65,171.24 L504.72,164.01 L505.80,163.36 L506.87,163.07 L507.94,163.09 L509.01,163.37 L510.08,163.81 L511.15,145.90 L512.22,138.38 L513.29,137.15 L514.36,136.13 L515.43,135.39 L516.50,135.01 L517.57,135.04 L518.65,168.46 L519.72,160.38 L520.79,158.08 L521.86,155.39 L522.93,152.41 L524.00,149.22" fill="none" stroke="#e0e0e0" stroke-width="1.4"/>
<text x="387" y="86" fill="#666" font-family="monospace" font-size="9">03</text>
<rect x="532" y="72" width="152" height="152" fill="#0b0b0b" stroke="#444"/>
<line x1="540" y1="148.00" x2="676" y2="148.00" stroke="#292929"/>
<path d="M540.00,148.96 L541.07,143.84 L542.14,146.43 L543.21,148.80 L544.28,150.85 L545.35,152.51 L546.43,147.32 L547.50,139.23 L548.57,138.98 L549.64,138.72 L550.71,138.47 L551.78,160.98 L552.85,152.07 L553.92,150.88 L554.99,149.68 L556.06,148.59 L557.13,144.96 L558.20,136.95 L559.28,136.77 L560.35,136.60 L561.42,136.44 L562.49,136.29 L563.56,157.99 L564.63,151.90 L565.70,153.88 L566.77,156.00 L567.84,158.14 L568.91,168.03 L569.98,162.07 L571.06,163.64 L572.13,164.82 L573.20,165.56 L574.27,173.64 L575.34,165.56 L576.41,164.82 L577.48,163.64 L578.55,162.07 L579.62,160.20 L580.69,135.73 L581.76,135.81 L582.83,135.91 L583.91,136.02 L584.98,136.15 L586.05,123.83 L587.12,125.16 L588.19,126.10 L589.26,126.63 L590.33,126.78 L591.40,155.53 L592.47,148.59 L593.54,149.68 L594.61,150.88 L595.69,152.07 L596.76,153.16 L597.83,154.03 L598.90,154.58 L599.97,154.75 L601.04,154.47 L602.11,153.73 L603.18,160.34 L604.25,150.85 L605.32,148.80 L606.39,146.43 L607.46,143.84 L608.54,148.96 L609.61,152.22 L610.68,147.54 L611.75,150.46 L612.82,153.06 L613.89,155.26 L614.96,150.61 L616.03,143.05 L617.10,143.31 L618.17,143.56 L619.24,143.81 L620.31,129.12 L621.39,130.21 L622.46,131.40 L623.53,132.60 L624.60,133.70 L625.67,142.40 L626.74,135.16 L627.81,135.38 L628.88,135.19 L629.95,134.57 L631.02,133.54 L632.09,167.97 L633.17,162.14 L634.24,164.34 L635.31,166.65 L636.38,168.97 L637.45,129.90 L638.52,120.21 L639.59,118.64 L640.66,117.46 L641.73,116.72 L642.80,184.96 L643.87,176.87 L644.94,176.09 L646.02,174.83 L647.09,173.17 L648.16,171.18 L649.23,154.38 L650.30,146.47 L651.37,146.37 L652.44,146.26 L653.51,146.13 L654.58,166.28 L655.65,157.12 L656.72,156.18 L657.80,155.65 L658.87,155.51 L659.94,163.53 L661.01,156.19 L662.08,156.86 L663.15,157.62 L664.22,158.36 L665.29,158.98 L666.36,128.25 L667.43,127.70 L668.50,127.53 L669.57,127.81 L670.65,128.55 L671.72,163.09 L672.79,153.06 L673.86,150.46 L674.93,147.54 L676.00,144.40" fill="none" stroke="#e0e0e0" stroke-width="1.4"/>
<text x="539" y="86" fill="#666" font-family="monospace" font-size="9">04</text>
<rect x="76" y="224" width="152" height="152" fill="#0b0b0b" stroke="#444"/>
<line x1="84" y1="300.00" x2="220" y2="300.00" stroke="#292929"/>
<path d="M84.00,303.11 L85.07,299.61 L86.14,297.75 L87.21,296.08 L88.28,294.67 L89.35,293.55 L90.43,292.73 L91.50,292.18 L92.57,291.84 L93.64,291.64 L94.71,291.47 L95.78,297.31 L96.85,296.38 L97.92,294.16 L98.99,293.77 L100.06,293.68 L101.13,293.87 L102.20,294.28 L103.28,294.82 L104.35,295.41 L105.42,295.94 L106.49,296.33 L107.56,280.52 L108.63,278.37 L109.70,278.10 L110.77,278.14 L111.84,278.45 L112.91,278.96 L113.98,279.55 L115.06,280.15 L116.13,280.65 L117.20,280.98 L118.27,282.65 L119.34,280.98 L120.41,280.65 L121.48,280.15 L122.55,279.55 L123.62,278.96 L124.69,278.45 L125.76,278.14 L126.83,278.10 L127.91,278.37 L128.98,278.98 L130.05,281.46 L131.12,282.67 L132.19,282.54 L133.26,284.08 L134.33,285.63 L135.40,287.09 L136.47,288.40 L137.54,289.47 L138.61,290.30 L139.69,290.88 L140.76,291.24 L141.83,293.02 L142.90,291.64 L143.97,291.84 L145.04,292.18 L146.11,292.73 L147.18,293.55 L148.25,294.67 L149.32,296.08 L150.39,297.75 L151.46,299.61 L152.54,303.11 L153.61,302.69 L154.68,300.82 L155.75,300.68 L156.82,300.78 L157.89,301.16 L158.96,301.83 L160.03,302.74 L161.10,303.84 L162.17,305.04 L163.24,306.24 L164.31,313.43 L165.39,312.25 L166.46,312.83 L167.53,313.65 L168.60,314.73 L169.67,316.03 L170.74,317.50 L171.81,319.05 L172.88,320.58 L173.95,322.00 L175.02,323.22 L176.09,306.62 L177.17,306.70 L178.24,307.05 L179.31,307.65 L180.38,308.45 L181.45,309.36 L182.52,310.29 L183.59,311.15 L184.66,311.84 L185.73,312.29 L186.80,323.57 L187.87,323.69 L188.94,322.48 L190.02,322.98 L191.09,323.57 L192.16,324.17 L193.23,324.67 L194.30,324.98 L195.37,325.03 L196.44,324.76 L197.51,324.15 L198.58,308.34 L199.65,307.18 L200.72,307.72 L201.80,308.30 L202.87,308.85 L203.94,309.25 L205.01,309.44 L206.08,309.35 L207.15,308.97 L208.22,308.29 L209.29,307.36 L210.36,313.20 L211.43,311.49 L212.50,311.28 L213.57,310.95 L214.65,310.40 L215.72,309.58 L216.79,308.46 L217.86,307.05 L218.93,305.38 L220.00,303.52" fill="none" stroke="#e0e0e0" stroke-width="1.4"/>
<text x="83" y="238" fill="#666" font-family="monospace" font-size="9">05</text>
<rect x="228" y="224" width="152" height="152" fill="#0b0b0b" stroke="#444"/>
<line x1="236" y1="300.00" x2="372" y2="300.00" stroke="#292929"/>
<path d="M236.00,301.10 L237.07,295.55 L238.14,293.30 L239.21,291.33 L240.28,289.72 L241.35,288.54 L242.43,287.79 L243.50,287.43 L244.57,301.41 L245.64,296.93 L246.71,295.58 L247.78,294.36 L248.85,293.40 L249.92,292.79 L250.99,292.59 L252.06,292.81 L253.13,283.52 L254.20,281.70 L255.28,279.74 L256.35,277.79 L257.42,275.98 L258.49,274.46 L259.56,273.32 L260.63,285.84 L261.70,285.57 L262.77,285.33 L263.84,285.13 L264.91,284.95 L265.98,284.81 L267.06,284.69 L268.13,284.61 L269.20,280.52 L270.27,277.55 L271.34,277.36 L272.41,276.84 L273.48,276.05 L274.55,275.10 L275.62,274.13 L276.69,300.13 L277.76,298.00 L278.83,298.70 L279.91,299.03 L280.98,298.94 L282.05,298.45 L283.12,297.63 L284.19,296.58 L285.26,295.44 L286.33,294.34 L287.40,293.42 L288.47,292.81 L289.54,292.59 L290.61,292.79 L291.69,293.40 L292.76,290.90 L293.83,287.68 L294.90,287.50 L295.97,287.38 L297.04,287.43 L298.11,287.79 L299.18,288.54 L300.25,289.72 L301.32,300.63 L302.39,299.96 L303.46,299.02 L304.54,297.95 L305.61,296.87 L306.68,295.93 L307.75,295.26 L308.82,309.32 L309.89,307.35 L310.96,308.10 L312.03,308.46 L313.10,308.51 L314.17,308.39 L315.24,308.21 L316.31,308.14 L317.39,302.49 L318.46,303.10 L319.53,303.30 L320.60,303.08 L321.67,302.47 L322.74,301.55 L323.81,300.45 L324.88,321.26 L325.95,319.91 L327.02,321.43 L328.09,322.57 L329.17,323.25 L330.24,323.46 L331.31,323.22 L332.38,322.62 L333.45,324.91 L334.52,320.79 L335.59,319.84 L336.66,319.05 L337.73,318.53 L338.80,318.34 L339.87,318.53 L340.94,322.20 L342.02,322.99 L343.09,320.79 L344.16,321.76 L345.23,322.62 L346.30,323.22 L347.37,323.46 L348.44,323.25 L349.51,309.76 L350.58,309.44 L351.65,309.08 L352.72,308.71 L353.80,308.30 L354.87,307.87 L355.94,307.42 L357.01,313.96 L358.08,312.74 L359.15,308.75 L360.22,308.28 L361.29,308.14 L362.36,308.21 L363.43,308.39 L364.50,308.51 L365.57,305.61 L366.65,301.83 L367.72,301.20 L368.79,300.56 L369.86,299.91 L370.93,299.26 L372.00,298.60" fill="none" stroke="#e0e0e0" stroke-width="1.4"/>
<text x="235" y="238" fill="#666" font-family="monospace" font-size="9">06</text>
<rect x="380" y="224" width="152" height="152" fill="#0b0b0b" stroke="#444"/>
<line x1="388" y1="300.00" x2="524" y2="300.00" stroke="#292929"/>
<path d="M388.00,301.82 L389.07,295.81 L390.14,298.24 L391.21,300.18 L392.28,301.46 L393.35,301.99 L394.43,310.45 L395.50,300.85 L396.57,299.42 L397.64,297.69 L398.71,295.92 L399.78,294.35 L400.85,287.99 L401.92,287.62 L402.99,287.27 L404.06,286.92 L405.13,286.59 L406.20,286.28 L407.28,285.99 L408.35,285.71 L409.42,285.44 L410.49,285.20 L411.56,284.98 L412.63,317.31 L413.70,308.32 L414.77,307.31 L415.84,305.70 L416.91,303.72 L417.98,310.29 L419.06,299.60 L420.13,297.97 L421.20,296.91 L422.27,296.54 L423.34,296.91 L424.41,297.97 L425.48,299.60 L426.55,301.59 L427.62,303.72 L428.69,305.70 L429.76,270.24 L430.83,260.86 L431.91,260.94 L432.98,261.84 L434.05,263.52 L435.12,265.88 L436.19,302.69 L437.26,300.16 L438.33,297.70 L439.40,295.54 L440.47,293.90 L441.54,292.94 L442.61,282.53 L443.69,282.76 L444.76,282.41 L445.83,281.63 L446.90,280.66 L447.97,299.42 L449.04,300.85 L450.11,301.76 L451.18,301.99 L452.25,301.46 L453.32,300.18 L454.39,286.21 L455.46,289.54 L456.54,293.13 L457.61,296.72 L458.68,300.05 L459.75,311.58 L460.82,305.07 L461.89,306.48 L462.96,307.13 L464.03,307.08 L465.10,306.50 L466.17,314.29 L467.24,304.63 L468.31,303.85 L469.39,303.50 L470.46,303.73 L471.53,307.68 L472.60,299.34 L473.67,299.67 L474.74,299.98 L475.81,300.27 L476.88,300.55 L477.95,329.07 L479.02,322.74 L480.09,324.42 L481.17,325.32 L482.24,325.40 L483.31,324.71 L484.38,301.97 L485.45,302.10 L486.52,302.20 L487.59,302.27 L488.66,302.33 L489.73,324.06 L490.80,315.02 L491.87,315.37 L492.94,316.37 L494.02,317.88 L495.09,319.73 L496.16,330.34 L497.23,323.39 L498.30,324.71 L499.37,325.40 L500.44,325.32 L501.51,309.97 L502.58,301.06 L503.65,300.82 L504.72,300.55 L505.80,300.27 L506.87,299.98 L507.94,299.67 L509.01,299.34 L510.08,298.99 L511.15,298.64 L512.22,298.27 L513.29,300.60 L514.36,290.34 L515.43,288.57 L516.50,286.84 L517.57,285.41 L518.65,284.50 L519.72,306.48 L520.79,305.07 L521.86,302.89 L522.93,300.05 L524.00,296.72" fill="none" stroke="#e0e0e0" stroke-width="1.4"/>
<text x="387" y="238" fill="#666" font-family="monospace" font-size="9">07</text>
<rect x="532" y="224" width="152" height="152" fill="#0b0b0b" stroke="#444"/>
<line x1="540" y1="300.00" x2="676" y2="300.00" stroke="#292929"/>
<path d="M540.00,307.61 L541.07,299.67 L542.14,302.50 L543.21,304.82 L544.28,306.42 L545.35,318.28 L546.43,307.20 L547.50,306.45 L548.57,305.13 L549.64,303.49 L550.71,294.13 L551.78,293.91 L552.85,293.69 L553.92,293.49 L554.99,293.29 L556.06,293.10 L557.13,292.91 L558.20,292.74 L559.28,292.57 L560.35,321.71 L561.42,313.27 L562.49,315.41 L563.56,316.86 L564.63,328.55 L565.70,317.27 L566.77,316.27 L567.84,314.62 L568.91,312.55 L569.98,310.32 L571.06,308.22 L572.13,306.50 L573.20,305.38 L574.27,288.89 L575.34,277.45 L576.41,276.36 L577.48,274.70 L578.55,272.69 L579.62,312.55 L580.69,314.62 L581.76,316.27 L582.83,317.27 L583.91,317.49 L584.98,267.17 L586.05,268.87 L587.12,271.28 L588.19,274.19 L589.26,307.80 L590.33,304.99 L591.40,302.52 L592.47,300.59 L593.54,299.38 L594.61,298.96 L595.69,299.31 L596.76,300.32 L597.83,301.80 L598.90,296.27 L599.97,284.03 L601.04,283.19 L602.11,282.91 L603.18,283.38 L604.25,317.49 L605.32,304.82 L606.39,302.50 L607.46,299.67 L608.54,307.61 L609.61,296.80 L610.68,297.06 L611.75,297.31 L612.82,297.55 L613.89,320.78 L614.96,310.19 L616.03,309.91 L617.10,309.07 L618.17,307.89 L619.24,298.98 L620.31,299.20 L621.39,299.41 L622.46,299.62 L623.53,304.79 L624.60,292.51 L625.67,290.59 L626.74,288.11 L627.81,285.31 L628.88,329.97 L629.95,321.82 L631.02,324.23 L632.09,325.93 L633.17,312.26 L634.24,301.30 L635.31,301.39 L636.38,301.47 L637.45,301.54 L638.52,301.60 L639.59,301.64 L640.66,301.67 L641.73,301.69 L642.80,299.18 L643.87,287.72 L644.94,286.60 L646.02,284.88 L647.09,282.78 L648.16,322.53 L649.23,324.46 L650.30,325.95 L651.37,326.78 L652.44,326.79 L653.51,276.25 L654.58,277.69 L655.65,279.83 L656.72,282.46 L657.80,285.31 L658.87,288.11 L659.94,290.59 L661.01,292.51 L662.08,293.72 L663.15,294.14 L664.22,293.79 L665.29,292.78 L666.36,291.31 L667.43,309.81 L668.50,298.52 L669.57,298.28 L670.65,298.04 L671.72,297.80 L672.79,286.68 L673.86,288.29 L674.93,290.60 L676.00,293.44" fill="none" stroke="#e0e0e0" stroke-width="1.4"/>
<text x="539" y="238" fill="#666" font-family="monospace" font-size="9">08</text>
<rect x="76" y="376" width="152" height="152" fill="#0b0b0b" stroke="#444"/>
<line x1="84" y1="452.00" x2="220" y2="452.00" stroke="#292929"/>
<path d="M84.00,453.03 L85.07,448.67 L86.14,446.65 L87.21,445.01 L88.28,443.85 L89.35,443.18 L90.43,442.91 L91.50,442.88 L92.57,445.04 L93.64,444.89 L94.71,442.27 L95.78,441.35 L96.85,439.98 L97.92,438.24 L98.99,436.29 L100.06,434.32 L101.13,448.75 L102.20,446.91 L103.28,446.77 L104.35,446.16 L105.42,445.16 L106.49,443.90 L107.56,442.59 L108.63,441.44 L109.70,433.73 L110.77,431.37 L111.84,430.71 L112.91,429.68 L113.98,428.42 L115.06,427.12 L116.13,425.99 L117.20,425.23 L118.27,427.10 L119.34,427.37 L120.41,425.99 L121.48,427.12 L122.55,428.42 L123.62,429.68 L124.69,430.71 L125.76,431.37 L126.83,442.77 L127.91,443.58 L128.98,442.59 L130.05,443.90 L131.12,445.16 L132.19,446.16 L133.26,446.77 L134.33,446.91 L135.40,434.70 L136.47,434.32 L137.54,436.29 L138.61,438.24 L139.69,439.98 L140.76,441.35 L141.83,442.27 L142.90,442.75 L143.97,448.78 L145.04,448.12 L146.11,449.59 L147.18,450.83 L148.25,451.69 L149.32,452.08 L150.39,452.00 L151.46,451.55 L152.54,453.03 L153.61,453.12 L154.68,455.14 L155.75,456.77 L156.82,457.93 L157.89,458.61 L158.96,458.88 L160.03,458.90 L161.10,461.03 L162.17,459.04 L163.24,459.52 L164.31,460.44 L165.39,461.81 L166.46,463.54 L167.53,465.50 L168.60,467.47 L169.67,471.37 L170.74,470.62 L171.81,471.50 L172.88,471.86 L173.95,471.76 L175.02,471.35 L176.09,470.81 L177.17,470.37 L178.24,467.82 L179.31,465.96 L180.38,466.20 L181.45,466.41 L182.52,466.59 L183.59,466.72 L184.66,466.82 L185.73,466.87 L186.80,478.97 L187.87,478.70 L188.94,475.79 L190.02,474.67 L191.09,473.37 L192.16,472.10 L193.23,471.08 L194.30,470.42 L195.37,463.29 L196.44,462.49 L197.51,459.20 L198.58,457.89 L199.65,456.63 L200.72,455.63 L201.80,455.02 L202.87,454.88 L203.94,471.37 L205.01,467.47 L206.08,465.50 L207.15,463.54 L208.22,461.81 L209.29,460.44 L210.36,459.52 L211.43,459.04 L212.50,461.03 L213.57,461.05 L214.65,458.88 L215.72,458.61 L216.79,457.93 L217.86,456.77 L218.93,455.14 L220.00,453.12" fill="none" stroke="#e0e0e0" stroke-width="1.4"/>
<text x="83" y="390" fill="#666" font-family="monospace" font-size="9">09</text>
<rect x="228" y="376" width="152" height="152" fill="#0b0b0b" stroke="#444"/>
<line x1="236" y1="452.00" x2="372" y2="452.00" stroke="#292929"/>
<path d="M236.00,457.39 L237.07,449.32 L238.14,446.53 L239.21,444.36 L240.28,442.98 L241.35,442.39 L242.43,442.47 L243.50,442.93 L244.57,443.46 L245.64,443.71 L246.71,443.39 L247.78,442.35 L248.85,440.54 L249.92,448.41 L250.99,450.01 L252.06,451.70 L253.13,453.13 L254.20,453.99 L255.28,454.11 L256.35,426.66 L257.42,427.14 L258.49,428.11 L259.56,429.26 L260.63,430.23 L261.70,430.73 L262.77,435.49 L263.84,429.64 L264.91,428.09 L265.98,426.13 L267.06,424.07 L268.13,422.28 L269.20,457.94 L270.27,453.41 L271.34,453.01 L272.41,451.90 L273.48,450.29 L274.55,448.50 L275.62,433.02 L276.69,429.64 L277.76,430.56 L278.83,430.73 L279.91,430.23 L280.98,429.26 L282.05,455.24 L283.12,452.10 L284.19,453.45 L285.26,454.11 L286.33,453.99 L287.40,453.13 L288.47,437.40 L289.54,435.31 L290.61,438.11 L291.69,440.54 L292.76,442.35 L293.83,443.39 L294.90,448.64 L295.97,443.46 L297.04,442.93 L298.11,442.47 L299.18,442.39 L300.25,442.98 L301.32,449.29 L302.39,446.53 L303.46,449.32 L304.54,452.46 L305.61,455.59 L306.68,458.39 L307.75,460.55 L308.82,455.47 L309.89,456.21 L310.96,456.94 L312.03,457.66 L313.10,458.37 L314.17,459.06 L315.24,466.46 L316.31,462.57 L317.39,464.38 L318.46,466.81 L319.53,469.61 L320.60,472.44 L321.67,456.72 L322.74,450.92 L323.81,450.80 L324.88,451.47 L325.95,452.82 L327.02,454.60 L328.09,456.50 L329.17,458.15 L330.24,459.27 L331.31,459.64 L332.38,459.20 L333.45,458.05 L334.52,483.72 L335.59,480.84 L336.66,482.64 L337.73,483.86 L338.80,484.29 L339.87,483.86 L340.94,457.95 L342.02,454.63 L343.09,456.42 L344.16,458.05 L345.23,459.20 L346.30,459.64 L347.37,464.20 L348.44,458.15 L349.51,456.50 L350.58,454.60 L351.65,452.82 L352.72,451.47 L353.80,482.92 L354.87,476.88 L355.94,474.97 L357.01,472.44 L358.08,469.61 L359.15,466.81 L360.22,469.31 L361.29,462.57 L362.36,461.52 L363.43,461.21 L364.50,461.46 L365.57,461.99 L366.65,456.36 L367.72,449.90 L368.79,449.01 L369.86,448.90 L370.93,449.56 L372.00,450.84" fill="none" stroke="#e0e0e0" stroke-width="1.4"/>
<text x="235" y="390" fill="#666" font-family="monospace" font-size="9">10</text>
<rect x="380" y="376" width="152" height="152" fill="#0b0b0b" stroke="#444"/>
<line x1="388" y1="452.00" x2="524" y2="452.00" stroke="#292929"/>
<path d="M388.00,464.41 L389.07,449.02 L390.14,445.51 L391.21,442.94 L392.28,441.55 L393.35,462.25 L394.43,450.46 L395.50,450.05 L396.57,449.64 L397.64,449.24 L398.71,448.85 L399.78,448.47 L400.85,448.10 L401.92,447.74 L402.99,447.40 L404.06,461.59 L405.13,464.25 L406.20,466.05 L407.28,466.69 L408.35,477.48 L409.42,464.49 L410.49,462.17 L411.56,459.66 L412.63,457.48 L413.70,467.45 L414.77,455.78 L415.84,456.66 L416.91,458.58 L417.98,461.20 L419.06,424.45 L420.13,421.82 L421.20,420.03 L422.27,419.40 L423.34,420.03 L424.41,444.19 L425.48,444.24 L426.55,444.31 L427.62,444.41 L428.69,468.03 L429.76,455.78 L430.83,456.08 L431.91,457.48 L432.98,459.66 L434.05,440.01 L435.12,426.80 L436.19,425.68 L437.26,425.64 L438.33,426.85 L439.40,429.25 L440.47,432.55 L441.54,436.30 L442.61,439.97 L443.69,443.06 L444.76,448.47 L445.83,448.85 L446.90,449.24 L447.97,449.64 L449.04,454.88 L450.11,442.14 L451.18,441.35 L452.25,441.55 L453.32,442.94 L454.39,470.20 L455.46,456.20 L456.54,453.05 L457.61,449.89 L458.68,447.26 L459.75,445.55 L460.82,445.02 L461.89,445.68 L462.96,447.31 L464.03,449.52 L465.10,456.46 L466.17,456.86 L467.24,457.25 L468.31,457.63 L469.39,464.32 L470.46,450.58 L471.53,447.60 L472.60,444.51 L473.67,441.85 L474.74,451.41 L475.81,439.41 L476.88,439.98 L477.95,441.61 L479.02,443.92 L480.09,486.73 L481.17,473.58 L482.24,472.54 L483.31,472.55 L484.38,473.70 L485.45,447.51 L486.52,444.89 L487.59,442.06 L488.66,439.55 L489.73,449.18 L490.80,437.20 L491.87,437.82 L492.94,439.55 L494.02,442.06 L495.09,478.67 L496.16,475.86 L497.23,473.70 L498.30,472.55 L499.37,472.54 L500.44,473.58 L501.51,475.37 L502.58,477.45 L503.65,479.30 L504.72,480.42 L505.80,459.93 L506.87,459.65 L507.94,459.34 L509.01,459.03 L510.08,470.06 L511.15,458.35 L512.22,458.00 L513.29,457.63 L514.36,457.25 L515.43,464.98 L516.50,451.79 L517.57,449.52 L518.65,447.31 L519.72,445.68 L520.79,445.02 L521.86,445.55 L522.93,447.26 L524.00,449.89" fill="none" stroke="#e0e0e0" stroke-width="1.4"/>
<text x="387" y="390" fill="#666" font-family="monospace" font-size="9">11</text>
<rect x="532" y="376" width="152" height="152" fill="#0b0b0b" stroke="#444"/>
<line x1="540" y1="452.00" x2="676" y2="452.00" stroke="#292929"/>
<path d="M540.00,467.53 L541.07,446.84 L542.14,442.89 L543.21,440.06 L544.28,466.46 L545.35,450.06 L546.43,449.80 L547.50,449.54 L548.57,465.42 L549.64,449.04 L550.71,448.80 L551.78,448.56 L552.85,470.50 L553.92,457.42 L554.99,461.19 L556.06,465.07 L557.13,484.57 L558.20,470.77 L559.28,471.70 L560.35,471.17 L561.42,485.50 L562.49,466.73 L563.56,463.85 L564.63,461.35 L565.70,448.95 L566.77,432.90 L567.84,431.59 L568.91,429.08 L569.98,462.11 L571.06,445.94 L572.13,445.91 L573.20,445.89 L574.27,491.63 L575.34,474.76 L576.41,472.67 L577.48,469.63 L578.55,441.90 L579.62,429.08 L580.69,431.59 L581.76,432.90 L582.83,448.95 L583.91,431.47 L584.98,429.22 L586.05,426.60 L587.12,462.94 L588.19,446.97 L589.26,447.13 L590.33,447.31 L591.40,442.68 L592.47,430.32 L593.54,434.61 L594.61,438.81 L595.69,470.50 L596.76,452.49 L597.83,452.03 L598.90,452.93 L599.97,471.00 L601.04,457.36 L602.11,459.76 L603.18,461.47 L604.25,466.46 L605.32,450.60 L606.39,450.86 L607.46,451.13 L608.54,467.53 L609.61,447.38 L610.68,443.97 L611.75,441.68 L612.82,456.93 L613.89,441.34 L614.96,443.05 L616.03,445.45 L617.10,475.23 L618.17,457.65 L619.24,457.24 L620.31,458.18 L621.39,464.57 L622.46,445.39 L623.53,441.63 L624.60,437.74 L625.67,450.50 L626.74,432.05 L627.81,431.11 L628.88,431.64 L629.95,449.57 L631.02,436.08 L632.09,438.97 L633.17,441.47 L634.24,486.12 L635.31,469.92 L636.38,471.22 L637.45,473.73 L638.52,472.95 L639.59,456.87 L640.66,456.91 L641.73,456.93 L642.80,473.06 L643.87,456.93 L644.94,456.91 L646.02,456.87 L647.09,452.74 L648.16,439.80 L649.23,442.17 L650.30,443.30 L651.37,459.16 L652.44,441.47 L653.51,438.97 L654.58,436.08 L655.65,472.13 L656.72,455.84 L657.80,455.68 L658.87,455.50 L659.94,450.50 L661.01,437.74 L662.08,441.63 L663.15,445.39 L664.22,470.60 L665.29,454.25 L666.36,454.01 L667.43,453.77 L668.50,475.23 L669.57,461.08 L670.65,462.97 L671.72,464.16 L672.79,456.93 L673.86,441.68 L674.93,443.97 L676.00,447.38" fill="none" stroke="#e0e0e0" stroke-width="1.4"/>
<text x="539" y="390" fill="#666" font-family="monospace" font-size="9">12</text>
<rect x="76" y="528" width="152" height="152" fill="#0b0b0b" stroke="#444"/>
<line x1="84" y1="604.00" x2="220" y2="604.00" stroke="#292929"/>
<path d="M84.00,605.60 L85.07,601.20 L86.14,599.43 L87.21,598.20 L88.28,597.59 L89.35,597.50 L90.43,597.69 L91.50,600.14 L92.57,597.62 L93.64,596.86 L94.71,595.52 L95.78,593.72 L96.85,591.75 L97.92,592.23 L98.99,588.53 L100.06,587.76 L101.13,587.61 L102.20,587.93 L103.28,588.44 L104.35,588.81 L105.42,595.07 L106.49,594.96 L107.56,595.45 L108.63,596.34 L109.70,597.33 L110.77,598.11 L111.84,584.30 L112.91,581.93 L113.98,582.46 L115.06,583.38 L116.13,584.39 L117.20,585.15 L118.27,587.74 L119.34,585.15 L120.41,584.39 L121.48,583.38 L122.55,582.46 L123.62,581.93 L124.69,581.99 L125.76,585.02 L126.83,583.97 L127.91,585.51 L128.98,587.00 L130.05,588.15 L131.12,588.76 L132.19,591.12 L133.26,588.44 L134.33,587.93 L135.40,587.61 L136.47,587.76 L137.54,588.53 L138.61,589.92 L139.69,591.75 L140.76,593.72 L141.83,595.52 L142.90,596.86 L143.97,597.62 L145.04,597.83 L146.11,600.00 L147.18,597.50 L148.25,597.59 L149.32,598.20 L150.39,599.43 L151.46,601.20 L152.54,605.60 L153.61,605.38 L154.68,607.15 L155.75,608.38 L156.82,608.98 L157.89,609.07 L158.96,608.89 L160.03,611.06 L161.10,608.96 L162.17,609.71 L163.24,611.06 L164.31,612.85 L165.39,614.83 L166.46,618.97 L167.53,620.36 L168.60,618.82 L169.67,618.96 L170.74,618.64 L171.81,618.13 L172.88,617.77 L173.95,620.13 L175.02,618.43 L176.09,619.57 L177.17,621.06 L178.24,622.60 L179.31,623.86 L180.38,624.58 L181.45,624.65 L182.52,624.11 L183.59,623.19 L184.66,622.19 L185.73,621.43 L186.80,623.46 L187.87,623.74 L188.94,622.19 L190.02,623.19 L191.09,624.11 L192.16,624.65 L193.23,624.58 L194.30,626.17 L195.37,622.60 L196.44,621.06 L197.51,619.57 L198.58,618.43 L199.65,617.82 L200.72,620.08 L201.80,620.45 L202.87,618.64 L203.94,618.96 L205.01,618.82 L206.08,618.05 L207.15,616.66 L208.22,617.14 L209.29,612.85 L210.36,611.06 L211.43,609.71 L212.50,608.96 L213.57,608.75 L214.65,609.57 L215.72,606.61 L216.79,605.96 L217.86,605.29 L218.93,604.63 L220.00,603.96" fill="none" stroke="#e0e0e0" stroke-width="1.4"/>
<text x="83" y="542" fill="#666" font-family="monospace" font-size="9">13</text>
<rect x="228" y="528" width="152" height="152" fill="#0b0b0b" stroke="#444"/>
<line x1="236" y1="604.00" x2="372" y2="604.00" stroke="#292929"/>
<path d="M236.00,607.85 L237.07,600.16 L238.14,597.88 L239.21,596.43 L240.28,595.92 L241.35,596.20 L242.43,601.86 L243.50,600.11 L244.57,598.91 L245.64,598.58 L246.71,599.18 L247.78,592.78 L248.85,590.12 L249.92,587.68 L250.99,585.89 L252.06,585.04 L253.13,603.45 L254.20,601.84 L255.28,600.00 L256.35,598.45 L257.42,597.58 L258.49,592.17 L259.56,585.71 L260.63,583.62 L261.70,581.45 L262.77,579.68 L263.84,583.63 L264.91,578.72 L265.98,579.63 L267.06,581.12 L268.13,582.70 L269.20,588.81 L270.27,584.33 L271.34,583.89 L272.41,582.70 L273.48,581.12 L274.55,584.56 L275.62,578.72 L276.69,578.71 L277.76,579.68 L278.83,581.45 L279.91,596.81 L280.98,592.15 L282.05,592.45 L283.12,592.77 L284.19,593.11 L285.26,593.48 L286.33,593.87 L287.40,594.29 L288.47,594.72 L289.54,595.18 L290.61,595.65 L291.69,602.15 L292.76,600.51 L293.83,599.18 L294.90,598.58 L295.97,598.91 L297.04,597.51 L298.11,596.89 L299.18,596.20 L300.25,595.92 L301.32,596.43 L302.39,602.80 L303.46,600.16 L304.54,602.92 L305.61,605.69 L306.68,607.97 L307.75,614.34 L308.82,609.92 L309.89,609.64 L310.96,608.95 L312.03,608.33 L313.10,608.26 L314.17,609.02 L315.24,610.69 L316.31,613.06 L317.39,615.72 L318.46,623.09 L319.53,619.95 L320.60,620.81 L321.67,620.72 L322.74,619.93 L323.81,623.80 L324.88,618.06 L325.95,617.89 L327.02,618.59 L328.09,620.13 L329.17,622.22 L330.24,629.32 L331.31,626.16 L332.38,627.13 L333.45,627.12 L334.52,626.21 L335.59,610.20 L336.66,607.00 L337.73,608.28 L338.80,608.75 L339.87,608.28 L340.94,620.00 L342.02,615.00 L343.09,614.90 L344.16,614.77 L345.23,614.61 L346.30,626.16 L347.37,624.39 L348.44,622.22 L349.51,620.13 L350.58,618.59 L351.65,617.89 L352.72,618.06 L353.80,618.88 L354.87,619.93 L355.94,620.72 L357.01,625.73 L358.08,619.95 L359.15,618.16 L360.22,615.72 L361.29,613.06 L362.36,615.62 L363.43,609.02 L364.50,608.26 L365.57,608.33 L366.65,608.95 L367.72,614.57 L368.79,609.92 L369.86,609.42 L370.93,607.97 L372.00,605.69" fill="none" stroke="#e0e0e0" stroke-width="1.4"/>
<text x="235" y="542" fill="#666" font-family="monospace" font-size="9">14</text>
<rect x="380" y="528" width="152" height="152" fill="#0b0b0b" stroke="#444"/>
<line x1="388" y1="604.00" x2="524" y2="604.00" stroke="#292929"/>
<path d="M388.00,616.22 L389.07,597.65 L390.14,594.07 L391.21,592.04 L392.28,591.77 L393.35,600.01 L394.43,599.60 L395.50,599.19 L396.57,598.79 L397.64,596.75 L398.71,594.24 L399.78,590.40 L400.85,586.01 L401.92,596.93 L402.99,596.59 L404.06,596.27 L405.13,595.96 L406.20,624.67 L407.28,607.60 L408.35,605.11 L409.42,603.89 L410.49,618.47 L411.56,606.50 L412.63,609.71 L413.70,613.16 L414.77,630.01 L415.84,617.25 L416.91,616.81 L417.98,614.76 L419.06,589.35 L420.13,578.31 L421.20,580.59 L422.27,581.44 L423.34,580.59 L424.41,593.44 L425.48,593.49 L426.55,593.56 L427.62,593.66 L428.69,593.77 L429.76,593.91 L430.83,594.06 L431.91,594.24 L432.98,606.50 L434.05,604.38 L435.12,603.89 L436.19,605.11 L437.26,583.16 L438.33,580.73 L439.40,578.78 L440.47,578.12 L441.54,593.28 L442.61,582.00 L443.69,586.01 L444.76,590.40 L445.83,608.32 L446.90,596.75 L447.97,597.55 L449.04,596.76 L450.11,594.94 L451.18,592.97 L452.25,591.77 L453.32,592.04 L454.39,608.15 L455.46,597.65 L456.54,602.13 L457.61,606.62 L458.68,610.20 L459.75,612.23 L460.82,612.50 L461.89,611.30 L462.96,609.33 L464.03,607.51 L465.10,606.72 L466.17,607.52 L467.24,610.03 L468.31,613.47 L469.39,595.72 L470.46,592.41 L471.53,590.28 L472.60,622.09 L473.67,608.31 L474.74,608.61 L475.81,608.89 L476.88,619.14 L477.95,618.43 L479.02,619.37 L480.09,621.92 L481.17,625.51 L482.24,629.31 L483.31,632.38 L484.38,633.97 L485.45,647.85 L486.52,631.90 L487.59,629.01 L488.66,625.96 L489.73,612.13 L490.80,598.91 L491.87,598.05 L492.94,595.70 L494.02,592.55 L495.09,631.90 L496.16,633.76 L497.23,633.97 L498.30,632.38 L499.37,591.11 L500.44,594.55 L501.51,597.77 L502.58,599.89 L503.65,609.40 L504.72,609.15 L505.80,608.89 L506.87,608.61 L507.94,591.14 L509.01,589.85 L510.08,590.28 L511.15,592.41 L512.22,606.99 L513.29,606.63 L514.36,606.25 L515.43,605.87 L516.50,620.81 L517.57,607.51 L518.65,609.33 L519.72,611.30 L520.79,609.27 L521.86,594.60 L522.93,595.78 L524.00,598.51" fill="none" stroke="#e0e0e0" stroke-width="1.4"/>
<text x="387" y="542" fill="#666" font-family="monospace" font-size="9">15</text>
<rect x="532" y="528" width="152" height="152" fill="#0b0b0b" stroke="#444"/>
<line x1="540" y1="604.00" x2="676" y2="604.00" stroke="#292929"/>
<path d="M540.00,620.70 L541.07,598.48 L542.14,594.91 L543.21,592.98 L544.28,619.76 L545.35,601.85 L546.43,601.62 L547.50,601.40 L548.57,602.49 L549.64,602.71 L550.71,604.75 L551.78,600.55 L552.85,600.35 L553.92,600.15 L554.99,599.97 L556.06,619.01 L557.13,617.80 L558.20,615.26 L559.28,629.93 L560.35,609.74 L561.42,608.58 L562.49,609.22 L563.56,611.57 L564.63,615.07 L565.70,618.81 L566.77,592.87 L567.84,573.56 L568.91,573.84 L569.98,575.86 L571.06,598.27 L572.13,598.24 L573.20,598.22 L574.27,615.90 L575.34,598.22 L576.41,598.24 L577.48,598.27 L578.55,620.76 L579.62,622.87 L580.69,623.28 L581.76,621.81 L582.83,578.35 L583.91,582.28 L584.98,585.99 L586.05,606.27 L587.12,589.47 L588.19,588.58 L589.26,586.36 L590.33,583.65 L591.40,581.44 L592.47,580.57 L593.54,581.55 L594.61,584.34 L595.69,588.41 L596.76,592.88 L597.83,596.75 L598.90,599.21 L599.97,599.86 L601.04,616.51 L602.11,596.69 L603.18,594.39 L604.25,592.91 L605.32,610.66 L606.39,594.91 L607.46,598.48 L608.54,620.70 L609.61,598.95 L610.68,595.85 L611.75,594.38 L612.82,621.64 L613.89,604.18 L614.96,604.41 L616.03,604.63 L617.10,606.16 L618.17,606.82 L619.24,609.28 L620.31,613.15 L621.39,617.61 L622.46,621.69 L623.53,624.48 L624.60,625.45 L625.67,624.59 L626.74,622.37 L627.81,611.47 L628.88,596.29 L629.95,597.44 L631.02,596.81 L632.09,620.03 L633.17,623.74 L634.24,627.67 L635.31,601.91 L636.38,582.74 L637.45,583.15 L638.52,585.27 L639.59,607.76 L640.66,607.79 L641.73,607.80 L642.80,612.83 L643.87,594.23 L644.94,591.76 L646.02,588.45 L647.09,607.72 L648.16,607.67 L649.23,607.60 L650.30,607.53 L651.37,627.67 L652.44,623.74 L653.51,620.03 L654.58,614.50 L655.65,597.44 L656.72,596.29 L657.80,593.78 L658.87,622.37 L659.94,624.59 L661.01,625.45 L662.08,605.32 L663.15,590.06 L664.22,593.74 L665.29,597.81 L666.36,609.28 L667.43,606.82 L668.50,606.16 L669.57,622.32 L670.65,604.41 L671.72,604.18 L672.79,603.95 L673.86,594.38 L674.93,595.85 L676.00,598.95" fill="none" stroke="#e0e0e0" stroke-width="1.4"/>
<text x="539" y="542" fill="#666" font-family="monospace" font-size="9">16</text>
</svg>
