<svg xmlns="http://www.w3.org/2000/svg" width="760" height="760" viewBox="0 0 760 760">
<rect width="760" height="760" fill="#161616"/>
<text x="24" y="32" fill="#dedede" font-family="monospace" font-size="15">S3G VOT / WAVE TERRAIN</text>
<text x="684" y="724" text-anchor="end" fill="#858585" font-family="monospace" font-size="11">U / TRAVERSAL ANGLE</text>
<text x="24" y="72" fill="#858585" font-family="monospace" font-size="11">V / TERRAIN DEFORMATION</text>
<text x="76" y="724" fill="#858585" font-family="monospace" font-size="11">ENERGY / QUIET CENTER, LOUD PERIMETER</text>
<rect x="76" y="72" width="152" height="152" fill="#0b0b0b" stroke="#444"/>
<line x1="84" y1="148.00" x2="220" y2="148.00" stroke="#292929"/>
<path d="M84.00,155.64 L85.07,153.62 L86.14,151.49 L87.21,149.55 L88.28,148.03 L89.35,147.08 L90.43,146.74 L91.50,146.90 L92.57,147.34 L93.64,147.79 L94.71,148.00 L95.78,147.72 L96.85,146.83 L97.92,145.24 L98.99,142.99 L100.06,140.20 L101.13,137.09 L102.20,133.91 L103.28,130.96 L104.35,128.40 L105.42,126.35 L106.49,124.78 L107.56,123.65 L108.63,122.89 L109.70,122.43 L110.77,122.25 L111.84,122.33 L112.91,122.70 L113.98,123.43 L115.06,124.62 L116.13,126.37 L117.20,128.81 L118.27,131.96 L119.34,135.70 L120.41,139.72 L121.48,143.63 L122.55,147.06 L123.62,149.83 L124.69,151.88 L125.76,153.28 L126.83,154.15 L127.91,154.64 L128.98,154.91 L130.05,155.15 L131.12,155.52 L132.19,156.18 L133.26,157.21 L134.33,158.57 L135.40,160.14 L136.47,161.70 L137.54,163.05 L138.61,164.03 L139.69,164.53 L140.76,164.42 L141.83,163.47 L142.90,161.34 L143.97,157.58 L145.04,152.16 L146.11,145.99 L147.18,140.64 L148.25,137.15 L149.32,135.69 L150.39,136.02 L151.46,137.90 L152.54,141.01 L153.61,144.64 L154.68,147.75 L155.75,149.46 L156.82,149.32 L157.89,147.40 L158.96,144.28 L160.03,140.95 L161.10,138.36 L162.17,137.02 L163.24,137.11 L164.31,138.79 L165.39,142.33 L166.46,147.87 L167.53,154.82 L168.60,161.71 L169.67,167.18 L170.74,170.86 L171.81,173.14 L172.88,174.51 L173.95,175.34 L175.02,175.84 L176.09,176.13 L177.17,176.26 L178.24,176.24 L179.31,176.08 L180.38,175.74 L181.45,175.16 L182.52,174.25 L183.59,172.89 L184.66,170.92 L185.73,168.22 L186.80,164.69 L187.87,160.44 L188.94,155.74 L190.02,151.02 L191.09,146.67 L192.16,142.97 L193.23,139.99 L194.30,137.68 L195.37,135.92 L196.44,134.58 L197.51,133.57 L198.58,132.80 L199.65,132.24 L200.72,131.84 L201.80,131.62 L202.87,131.57 L203.94,131.74 L205.01,132.20 L206.08,133.04 L207.15,134.39 L208.22,136.39 L209.29,139.12 L210.36,142.54 L211.43,146.39 L212.50,150.22 L213.57,153.61 L214.65,156.24 L215.72,158.01 L216.79,158.92 L217.86,159.06 L218.93,158.51 L220.00,157.33" fill="none" stroke="#e0e0e0" stroke-width="1.4"/>
<text x="83" y="86" fill="#666" font-family="monospace" font-size="9">01</text>
<rect x="228" y="72" width="152" height="152" fill="#0b0b0b" stroke="#444"/>
<line x1="236" y1="148.00" x2="372" y2="148.00" stroke="#292929"/>
<path d="M236.00,142.50 L237.07,140.07 L238.14,137.80 L239.21,135.82 L240.28,134.20 L241.35,132.95 L242.43,132.02 L243.50,131.36 L244.57,130.92 L245.64,130.68 L246.71,130.63 L247.78,130.80 L248.85,131.23 L249.92,132.00 L250.99,133.19 L252.06,134.89 L253.13,137.11 L254.20,139.77 L255.28,142.65 L256.35,145.43 L257.42,147.86 L258.49,149.79 L259.56,151.19 L260.63,152.09 L261.70,152.60 L262.77,152.82 L263.84,152.89 L264.91,152.92 L265.98,153.06 L267.06,153.42 L268.13,154.05 L269.20,154.93 L270.27,155.97 L271.34,157.01 L272.41,157.90 L273.48,158.51 L274.55,158.76 L275.62,158.56 L276.69,157.74 L277.76,156.04 L278.83,153.13 L279.91,148.98 L280.98,144.27 L282.05,140.18 L283.12,137.49 L284.19,136.32 L285.26,136.50 L286.33,137.84 L287.40,140.11 L288.47,142.77 L289.54,145.06 L290.61,146.29 L291.69,146.16 L292.76,144.70 L293.83,142.35 L294.90,139.85 L295.97,137.91 L297.04,136.91 L298.11,136.99 L299.18,138.26 L300.25,140.93 L301.32,145.11 L302.39,150.34 L303.46,155.54 L304.54,159.68 L305.61,162.49 L306.68,164.25 L307.75,165.35 L308.82,166.04 L309.89,166.50 L310.96,166.80 L312.03,166.99 L313.10,167.08 L314.17,167.06 L315.24,166.92 L316.31,166.59 L317.39,166.03 L318.46,165.13 L319.53,163.78 L320.60,161.88 L321.67,159.38 L322.74,156.33 L323.81,152.95 L324.88,149.55 L325.95,146.45 L327.02,143.82 L328.09,141.73 L329.17,140.14 L330.24,138.96 L331.31,138.11 L332.38,137.49 L333.45,137.06 L334.52,136.78 L335.59,136.62 L336.66,136.59 L337.73,136.69 L338.80,136.95 L339.87,137.42 L340.94,138.18 L342.02,139.31 L343.09,140.92 L344.16,143.08 L345.23,145.75 L346.30,148.73 L347.37,151.70 L348.44,154.33 L349.51,156.39 L350.58,157.80 L351.65,158.56 L352.72,158.74 L353.80,158.40 L354.87,157.58 L355.94,156.38 L357.01,154.91 L358.08,153.37 L359.15,151.95 L360.22,150.85 L361.29,150.17 L362.36,149.93 L363.43,150.05 L364.50,150.38 L365.57,150.72 L366.65,150.86 L367.72,150.64 L368.79,149.95 L369.86,148.73 L370.93,147.01 L372.00,144.88" fill="none" stroke="#e0e0e0" stroke-width="1.4"/>
<text x="235" y="86" fill="#666" font-family="monospace" font-size="9">02</text>
<rect x="380" y="72" width="152" height="152" fill="#0b0b0b" stroke="#444"/>
<line x1="388" y1="148.00" x2="524" y2="148.00" stroke="#292929"/>
<path d="M388.00,139.36 L389.07,142.09 L390.14,145.04 L391.21,147.90 L392.28,150.37 L393.35,152.32 L394.43,153.69 L395.50,154.54 L396.57,154.98 L397.64,155.10 L398.71,155.06 L399.78,154.98 L400.85,155.00 L401.92,155.25 L402.99,155.79 L404.06,156.58 L405.13,157.54 L406.20,158.49 L407.28,159.28 L408.35,159.78 L409.42,159.90 L410.49,159.54 L411.56,158.53 L412.63,156.60 L413.70,153.39 L414.77,148.88 L415.84,143.78 L416.91,139.34 L417.98,136.37 L419.06,134.99 L420.13,135.03 L421.20,136.31 L422.27,138.55 L423.34,141.21 L424.41,143.48 L425.48,144.65 L426.55,144.38 L427.62,142.73 L428.69,140.14 L429.76,137.40 L430.83,135.25 L431.91,134.10 L432.98,134.09 L434.05,135.33 L435.12,138.05 L436.19,142.36 L437.26,147.79 L438.33,153.19 L439.40,157.47 L440.47,160.37 L441.54,162.18 L442.61,163.29 L443.69,163.99 L444.76,164.45 L445.83,164.75 L446.90,164.94 L447.97,165.03 L449.04,165.01 L450.11,164.87 L451.18,164.54 L452.25,163.98 L453.32,163.06 L454.39,161.69 L455.46,159.74 L456.54,157.16 L457.61,154.02 L458.68,150.53 L459.75,147.04 L460.82,143.85 L461.89,141.17 L462.96,139.07 L464.03,137.50 L465.10,136.36 L466.17,135.57 L467.24,135.04 L468.31,134.70 L469.39,134.52 L470.46,134.48 L471.53,134.58 L472.60,134.81 L473.67,135.23 L474.74,135.86 L475.81,136.80 L476.88,138.13 L477.95,139.97 L479.02,142.38 L480.09,145.33 L481.17,148.62 L482.24,151.89 L483.31,154.80 L484.38,157.11 L485.45,158.74 L486.52,159.69 L487.59,160.03 L488.66,159.81 L489.73,159.09 L490.80,157.96 L491.87,156.56 L492.94,155.07 L494.02,153.71 L495.09,152.67 L496.16,152.08 L497.23,151.95 L498.30,152.19 L499.37,152.65 L500.44,153.11 L501.51,153.35 L502.58,153.21 L503.65,152.57 L504.72,151.37 L505.80,149.64 L506.87,147.46 L507.94,145.02 L509.01,142.52 L510.08,140.17 L511.15,138.14 L512.22,136.47 L513.29,135.18 L514.36,134.22 L515.43,133.54 L516.50,133.08 L517.57,132.82 L518.65,132.76 L519.72,132.92 L520.79,133.35 L521.86,134.12 L522.93,135.33 L524.00,137.07" fill="none" stroke="#e0e0e0" stroke-width="1.4"/>
<text x="387" y="86" fill="#666" font-family="monospace" font-size="9">03</text>
<rect x="532" y="72" width="152" height="152" fill="#0b0b0b" stroke="#444"/>
<line x1="540" y1="148.00" x2="676" y2="148.00" stroke="#292929"/>
<path d="M540.00,165.55 L541.07,166.83 L542.14,167.85 L543.21,168.46 L544.28,168.52 L545.35,167.88 L546.43,166.32 L547.50,163.43 L548.57,158.72 L549.64,152.15 L550.71,144.73 L551.78,138.24 L552.85,133.84 L553.92,131.70 L554.99,131.58 L556.06,133.20 L557.13,136.20 L558.20,139.79 L559.28,142.82 L560.35,144.28 L561.42,143.69 L562.49,141.13 L563.56,137.24 L564.63,133.13 L565.70,129.86 L566.77,128.01 L567.84,127.78 L568.91,129.34 L569.98,133.01 L571.06,138.93 L572.13,146.45 L573.20,153.93 L574.27,159.83 L575.34,163.77 L576.41,166.15 L577.48,167.55 L578.55,168.37 L579.62,168.84 L580.69,169.10 L581.76,169.21 L582.83,169.18 L583.91,169.02 L584.98,168.67 L586.05,168.08 L587.12,167.15 L588.19,165.74 L589.26,163.68 L590.33,160.81 L591.40,157.06 L592.47,152.51 L593.54,147.48 L594.61,142.45 L595.69,137.86 L596.76,134.02 L597.83,131.00 L598.90,128.75 L599.97,127.13 L601.04,126.00 L602.11,125.26 L603.18,124.81 L604.25,124.59 L605.32,124.58 L606.39,124.77 L607.46,125.18 L608.54,125.84 L609.61,126.83 L610.68,128.25 L611.75,130.26 L612.82,132.99 L613.89,136.55 L614.96,140.87 L616.03,145.68 L617.10,150.49 L618.17,154.78 L619.24,158.24 L620.31,160.72 L621.39,162.25 L622.46,162.90 L623.53,162.77 L624.60,161.94 L625.67,160.53 L626.74,158.73 L627.81,156.81 L628.88,155.08 L629.95,153.81 L631.02,153.17 L632.09,153.19 L633.17,153.75 L634.24,154.61 L635.31,155.48 L636.38,156.04 L637.45,156.05 L638.52,155.34 L639.59,153.84 L640.66,151.58 L641.73,148.69 L642.80,145.41 L643.87,142.04 L644.94,138.89 L646.02,136.18 L647.09,133.99 L648.16,132.32 L649.23,131.12 L650.30,130.31 L651.37,129.81 L652.44,129.59 L653.51,129.65 L654.58,130.00 L655.65,130.73 L656.72,131.94 L657.80,133.77 L658.87,136.34 L659.94,139.68 L661.01,143.65 L662.08,147.92 L663.15,152.03 L664.22,155.60 L665.29,158.41 L666.36,160.39 L667.43,161.62 L668.50,162.24 L669.57,162.41 L670.65,162.33 L671.72,162.19 L672.79,162.19 L673.86,162.50 L674.93,163.20 L676.00,164.27" fill="none" stroke="#e0e0e0" stroke-width="1.4"/>
<text x="539" y="86" fill="#666" font-family="monospace" font-size="9">04</text>
<rect x="76" y="224" width="152" height="152" fill="#0b0b0b" stroke="#444"/>
<line x1="84" y1="300.00" x2="220" y2="300.00" stroke="#292929"/>
<path d="M84.00,311.84 L85.07,312.12 L86.14,311.88 L87.21,311.14 L88.28,310.01 L89.35,308.62 L90.43,307.10 L91.50,305.49 L92.57,303.60 L93.64,301.18 L94.71,298.02 L95.78,294.31 L96.85,290.69 L97.92,287.82 L98.99,285.96 L100.06,285.01 L101.13,284.76 L102.20,285.11 L103.28,285.99 L104.35,287.31 L105.42,288.89 L106.49,290.51 L107.56,291.96 L108.63,293.13 L109.70,294.04 L110.77,294.77 L111.84,295.45 L112.91,296.21 L113.98,297.11 L115.06,298.19 L116.13,299.40 L117.20,300.64 L118.27,301.80 L119.34,302.75 L120.41,303.41 L121.48,303.72 L122.55,303.63 L123.62,303.14 L124.69,302.25 L125.76,301.01 L126.83,299.53 L127.91,297.95 L128.98,296.47 L130.05,295.26 L131.12,294.47 L132.19,294.21 L133.26,294.61 L134.33,295.78 L135.40,297.86 L136.47,300.85 L137.54,304.43 L138.61,307.94 L139.69,310.72 L140.76,312.50 L141.83,313.40 L142.90,313.51 L143.97,312.65 L145.04,310.09 L146.11,304.84 L147.18,297.56 L148.25,291.46 L149.32,288.18 L150.39,287.09 L151.46,287.41 L152.54,288.81 L153.61,290.91 L154.68,292.77 L155.75,293.17 L156.82,291.67 L157.89,289.11 L158.96,286.93 L160.03,285.75 L161.10,285.40 L162.17,285.69 L163.24,286.90 L164.31,290.26 L165.39,297.97 L166.46,308.50 L167.53,315.60 L168.60,318.61 L169.67,319.76 L170.74,320.25 L171.81,320.48 L172.88,320.57 L173.95,320.54 L175.02,320.37 L176.09,320.02 L177.17,319.40 L178.24,318.43 L179.31,317.00 L180.38,315.07 L181.45,312.64 L182.52,309.84 L183.59,306.87 L184.66,303.94 L185.73,301.24 L186.80,298.85 L187.87,296.79 L188.94,295.04 L190.02,293.55 L191.09,292.29 L192.16,291.22 L193.23,290.33 L194.30,289.60 L195.37,289.02 L196.44,288.58 L197.51,288.28 L198.58,288.11 L199.65,288.11 L200.72,288.29 L201.80,288.73 L202.87,289.51 L203.94,290.74 L205.01,292.49 L206.08,294.72 L207.15,297.23 L208.22,299.73 L209.29,301.96 L210.36,303.74 L211.43,305.06 L212.50,305.96 L213.57,306.53 L214.65,306.94 L215.72,307.36 L216.79,307.99 L217.86,308.90 L218.93,310.01 L220.00,311.08" fill="none" stroke="#e0e0e0" stroke-width="1.4"/>
<text x="83" y="238" fill="#666" font-family="monospace" font-size="9">05</text>
<rect x="228" y="224" width="152" height="152" fill="#0b0b0b" stroke="#444"/>
<line x1="236" y1="300.00" x2="372" y2="300.00" stroke="#292929"/>
<path d="M236.00,293.65 L237.07,293.80 L238.14,294.21 L239.21,294.83 L240.28,295.59 L241.35,296.36 L242.43,297.04 L243.50,297.59 L244.57,297.99 L245.64,298.31 L246.71,298.60 L247.78,298.92 L248.85,299.32 L249.92,299.80 L250.99,300.35 L252.06,300.91 L253.13,301.43 L254.20,301.84 L255.28,302.11 L256.35,302.19 L257.42,302.08 L258.49,301.77 L259.56,301.26 L260.63,300.57 L261.70,299.77 L262.77,298.91 L263.84,298.10 L264.91,297.43 L265.98,296.96 L267.06,296.77 L268.13,296.90 L269.20,297.43 L270.27,298.41 L271.34,299.84 L272.41,301.57 L273.48,303.26 L274.55,304.59 L275.62,305.43 L276.69,305.83 L277.76,305.83 L278.83,305.35 L279.91,304.03 L280.98,301.36 L282.05,297.68 L283.12,294.58 L284.19,292.91 L285.26,292.33 L286.33,292.46 L287.40,293.13 L288.47,294.16 L289.54,295.07 L290.61,295.25 L291.69,294.48 L292.76,293.19 L293.83,292.10 L294.90,291.50 L295.97,291.32 L297.04,291.47 L298.11,292.08 L299.18,293.77 L300.25,297.63 L301.32,302.91 L302.39,306.48 L303.46,308.01 L304.54,308.61 L305.61,308.88 L306.68,309.03 L307.75,309.10 L308.82,309.12 L309.89,309.08 L310.96,308.95 L312.03,308.68 L313.10,308.24 L314.17,307.58 L315.24,306.66 L316.31,305.50 L317.39,304.15 L318.46,302.73 L319.53,301.32 L320.60,300.03 L321.67,298.90 L322.74,297.93 L323.81,297.12 L324.88,296.44 L325.95,295.87 L327.02,295.41 L328.09,295.03 L329.17,294.73 L330.24,294.51 L331.31,294.36 L332.38,294.27 L333.45,294.26 L334.52,294.32 L335.59,294.48 L336.66,294.76 L337.73,295.22 L338.80,295.90 L339.87,296.83 L340.94,298.01 L342.02,299.32 L343.09,300.63 L344.16,301.80 L345.23,302.74 L346.30,303.45 L347.37,303.95 L348.44,304.29 L349.51,304.54 L350.58,304.79 L351.65,305.14 L352.72,305.63 L353.80,306.22 L354.87,306.79 L355.94,307.19 L357.01,307.36 L358.08,307.26 L359.15,306.91 L360.22,306.36 L361.29,305.67 L362.36,304.92 L363.43,304.12 L364.50,303.18 L365.57,301.96 L366.65,300.38 L367.72,298.52 L368.79,296.69 L369.86,295.25 L370.93,294.30 L372.00,293.80" fill="none" stroke="#e0e0e0" stroke-width="1.4"/>
<text x="235" y="238" fill="#666" font-family="monospace" font-size="9">06</text>
<rect x="380" y="224" width="152" height="152" fill="#0b0b0b" stroke="#444"/>
<line x1="388" y1="300.00" x2="524" y2="300.00" stroke="#292929"/>
<path d="M388.00,302.68 L389.07,303.06 L390.14,303.30 L391.21,303.35 L392.28,303.21 L393.35,302.86 L394.43,302.31 L395.50,301.58 L396.57,300.73 L397.64,299.84 L398.71,298.98 L399.78,298.26 L400.85,297.75 L401.92,297.50 L402.99,297.57 L404.06,298.03 L405.13,298.94 L406.20,300.30 L407.28,301.95 L408.35,303.57 L409.42,304.83 L410.49,305.59 L411.56,305.92 L412.63,305.86 L413.70,305.31 L414.77,303.93 L415.84,301.21 L416.91,297.49 L417.98,294.36 L419.06,292.63 L420.13,291.99 L421.20,292.06 L422.27,292.66 L423.34,293.62 L424.41,294.46 L425.48,294.58 L426.55,293.76 L427.62,292.43 L428.69,291.29 L429.76,290.64 L430.83,290.42 L431.91,290.52 L432.98,291.08 L434.05,292.71 L435.12,296.51 L436.19,301.72 L437.26,305.23 L438.33,306.71 L439.40,307.28 L440.47,307.53 L441.54,307.65 L442.61,307.71 L443.69,307.72 L444.76,307.66 L445.83,307.52 L446.90,307.25 L447.97,306.81 L449.04,306.16 L450.11,305.25 L451.18,304.11 L452.25,302.78 L453.32,301.38 L454.39,300.01 L455.46,298.75 L456.54,297.64 L457.61,296.71 L458.68,295.94 L459.75,295.29 L460.82,294.77 L461.89,294.34 L462.96,294.01 L464.03,293.76 L465.10,293.58 L466.17,293.48 L467.24,293.45 L468.31,293.49 L469.39,293.60 L470.46,293.82 L471.53,294.16 L472.60,294.67 L473.67,295.41 L474.74,296.40 L475.81,297.63 L476.88,299.00 L477.95,300.36 L479.02,301.58 L480.09,302.59 L481.17,303.36 L482.24,303.92 L483.31,304.32 L484.38,304.64 L485.45,304.95 L486.52,305.37 L487.59,305.92 L488.66,306.57 L489.73,307.20 L490.80,307.66 L491.87,307.89 L492.94,307.85 L494.02,307.56 L495.09,307.07 L496.16,306.44 L497.23,305.75 L498.30,305.01 L499.37,304.12 L500.44,302.96 L501.51,301.44 L502.58,299.63 L503.65,297.86 L504.72,296.45 L505.80,295.55 L506.87,295.08 L507.94,294.96 L509.01,295.13 L510.08,295.56 L511.15,296.20 L512.22,296.96 L513.29,297.74 L514.36,298.43 L515.43,298.97 L516.50,299.37 L517.57,299.69 L518.65,299.97 L519.72,300.28 L520.79,300.67 L521.86,301.13 L522.93,301.65 L524.00,302.19" fill="none" stroke="#e0e0e0" stroke-width="1.4"/>
<text x="387" y="238" fill="#666" font-family="monospace" font-size="9">07</text>
<rect x="532" y="224" width="152" height="152" fill="#0b0b0b" stroke="#444"/>
<line x1="540" y1="300.00" x2="676" y2="300.00" stroke="#292929"/>
<path d="M540.00,300.40 L541.07,303.04 L542.14,306.25 L543.21,309.39 L544.28,311.81 L545.35,313.25 L546.43,313.81 L547.50,313.60 L548.57,312.43 L549.64,309.60 L550.71,304.12 L551.78,296.65 L552.85,290.33 L553.92,286.80 L554.99,285.42 L556.06,285.43 L557.13,286.50 L558.20,288.27 L559.28,289.81 L560.35,289.93 L561.42,288.18 L562.49,285.41 L563.56,283.01 L564.63,281.61 L565.70,281.03 L566.77,281.10 L567.84,282.08 L568.91,285.18 L569.98,292.57 L571.06,302.75 L572.13,309.57 L573.20,312.38 L574.27,313.39 L575.34,313.75 L576.41,313.87 L577.48,313.87 L578.55,313.78 L579.62,313.56 L580.69,313.17 L581.76,312.54 L582.83,311.58 L583.91,310.19 L584.98,308.31 L586.05,305.96 L587.12,303.26 L588.19,300.41 L589.26,297.62 L590.33,295.07 L591.40,292.84 L592.47,290.94 L593.54,289.36 L594.61,288.06 L595.69,286.99 L596.76,286.12 L597.83,285.44 L598.90,284.93 L599.97,284.59 L601.04,284.39 L602.11,284.33 L603.18,284.42 L604.25,284.68 L605.32,285.13 L606.39,285.84 L607.46,286.90 L608.54,288.40 L609.61,290.42 L610.68,292.91 L611.75,295.69 L612.82,298.46 L613.89,300.96 L614.96,303.04 L616.03,304.65 L617.10,305.85 L618.17,306.74 L619.24,307.46 L620.31,308.20 L621.39,309.12 L622.46,310.33 L623.53,311.74 L624.60,313.09 L625.67,314.14 L626.74,314.71 L627.81,314.76 L628.88,314.31 L629.95,313.47 L631.02,312.36 L632.09,311.13 L633.17,309.78 L634.24,308.16 L635.31,306.00 L636.38,303.11 L637.45,299.66 L638.52,296.28 L639.59,293.64 L640.66,291.97 L641.73,291.17 L642.80,291.06 L643.87,291.52 L644.94,292.48 L646.02,293.86 L647.09,295.49 L648.16,297.14 L649.23,298.60 L650.30,299.78 L651.37,300.67 L652.44,301.38 L653.51,302.03 L654.58,302.74 L655.65,303.57 L656.72,304.56 L657.80,305.66 L658.87,306.78 L659.94,307.80 L661.01,308.61 L662.08,309.12 L663.15,309.26 L664.22,309.00 L665.29,308.33 L666.36,307.26 L667.43,305.84 L668.50,304.16 L669.57,302.38 L670.65,300.68 L671.72,299.23 L672.79,298.19 L673.86,297.67 L674.93,297.78 L676.00,298.65" fill="none" stroke="#e0e0e0" stroke-width="1.4"/>
<text x="539" y="238" fill="#666" font-family="monospace" font-size="9">08</text>
<rect x="76" y="376" width="152" height="152" fill="#0b0b0b" stroke="#444"/>
<line x1="84" y1="452.00" x2="220" y2="452.00" stroke="#292929"/>
<path d="M84.00,462.45 L85.07,464.12 L86.14,464.33 L87.21,463.96 L88.28,463.14 L89.35,462.09 L90.43,461.34 L91.50,461.18 L92.57,461.23 L93.64,460.67 L94.71,458.00 L95.78,450.09 L96.85,440.86 L97.92,437.98 L98.99,437.46 L100.06,437.30 L101.13,437.21 L102.20,437.15 L103.28,437.23 L104.35,437.94 L105.42,441.50 L106.49,450.99 L107.56,459.20 L108.63,461.98 L109.70,462.66 L110.77,462.79 L111.84,462.76 L112.91,462.57 L113.98,462.06 L115.06,460.80 L116.13,458.59 L117.20,456.52 L118.27,456.22 L119.34,457.77 L120.41,459.70 L121.48,460.87 L122.55,461.16 L123.62,460.49 L124.69,457.88 L125.76,451.96 L126.83,445.35 L127.91,441.87 L128.98,440.95 L130.05,441.31 L131.12,441.98 L132.19,441.83 L133.26,440.51 L134.33,439.01 L135.40,438.21 L136.47,438.06 L137.54,438.49 L138.61,440.63 L139.69,449.04 L140.76,460.33 L141.83,463.70 L142.90,464.30 L143.97,464.50 L145.04,464.62 L146.11,464.66 L147.18,464.31 L148.25,461.60 L149.32,452.87 L150.39,444.98 L151.46,442.35 L152.54,442.17 L153.61,443.17 L154.68,444.38 L155.75,444.11 L156.82,442.27 L157.89,440.79 L158.96,440.26 L160.03,440.21 L161.10,440.36 L162.17,440.85 L163.24,442.94 L164.31,452.25 L165.39,463.91 L166.46,466.70 L167.53,467.15 L168.60,467.30 L169.67,467.38 L170.74,467.38 L171.81,467.12 L172.88,466.00 L173.95,462.70 L175.02,456.64 L176.09,450.42 L177.17,446.51 L178.24,444.65 L179.31,443.96 L180.38,443.96 L181.45,444.58 L182.52,445.96 L183.59,448.05 L184.66,449.98 L185.73,450.32 L186.80,448.40 L187.87,445.34 L188.94,443.18 L190.02,442.28 L191.09,442.00 L192.16,441.98 L193.23,442.26 L194.30,443.45 L195.37,447.13 L196.44,453.37 L197.51,458.51 L198.58,461.33 L199.65,463.06 L200.72,464.59 L201.80,465.89 L202.87,466.65 L203.94,466.90 L205.01,466.80 L206.08,466.19 L207.15,463.64 L208.22,455.23 L209.29,445.57 L210.36,441.99 L211.43,441.04 L212.50,440.78 L213.57,440.79 L214.65,440.99 L215.72,441.34 L216.79,442.03 L217.86,443.78 L218.93,448.55 L220.00,456.84" fill="none" stroke="#e0e0e0" stroke-width="1.4"/>
<text x="83" y="390" fill="#666" font-family="monospace" font-size="9">09</text>
<rect x="228" y="376" width="152" height="152" fill="#0b0b0b" stroke="#444"/>
<line x1="236" y1="452.00" x2="372" y2="452.00" stroke="#292929"/>
<path d="M236.00,445.71 L237.07,445.66 L238.14,445.68 L239.21,446.00 L240.28,447.71 L241.35,452.30 L242.43,456.27 L243.50,457.59 L244.57,457.89 L245.64,457.92 L246.71,457.87 L247.78,457.74 L248.85,457.45 L249.92,456.79 L250.99,455.67 L252.06,454.62 L253.13,454.43 L254.20,455.14 L255.28,456.04 L256.35,456.56 L257.42,456.65 L258.49,456.28 L259.56,454.96 L260.63,452.03 L261.70,448.76 L262.77,447.02 L263.84,446.52 L264.91,446.65 L265.98,446.93 L267.06,446.81 L268.13,446.12 L269.20,445.34 L270.27,444.91 L271.34,444.79 L272.41,444.96 L273.48,445.95 L274.55,450.01 L275.62,455.47 L276.69,457.07 L277.76,457.33 L278.83,457.39 L279.91,457.41 L280.98,457.40 L282.05,457.20 L283.12,455.85 L284.19,451.58 L285.26,447.71 L286.33,446.40 L287.40,446.30 L288.47,446.77 L289.54,447.34 L290.61,447.20 L291.69,446.29 L292.76,445.56 L293.83,445.30 L294.90,445.27 L295.97,445.35 L297.04,445.58 L298.11,446.60 L299.18,451.14 L300.25,456.83 L301.32,458.20 L302.39,458.43 L303.46,458.52 L304.54,458.57 L305.61,458.59 L306.68,458.49 L307.75,457.97 L308.82,456.39 L309.89,453.46 L310.96,450.47 L312.03,448.59 L313.10,447.72 L314.17,447.42 L315.24,447.46 L316.31,447.80 L317.39,448.51 L318.46,449.57 L319.53,450.55 L320.60,450.76 L321.67,449.87 L322.74,448.42 L323.81,447.42 L324.88,447.03 L325.95,446.94 L327.02,446.97 L328.09,447.16 L329.17,447.79 L330.24,449.63 L331.31,452.72 L332.38,455.27 L333.45,456.69 L334.52,457.58 L335.59,458.37 L336.66,459.05 L337.73,459.46 L338.80,459.63 L339.87,459.63 L340.94,459.38 L342.02,458.18 L343.09,454.12 L344.16,449.46 L345.23,447.75 L346.30,447.33 L347.37,447.24 L348.44,447.27 L349.51,447.40 L350.58,447.61 L351.65,447.97 L352.72,448.84 L353.80,451.19 L354.87,455.25 L355.94,458.00 L357.01,458.83 L358.08,458.95 L359.15,458.78 L360.22,458.40 L361.29,457.89 L362.36,457.53 L363.43,457.46 L364.50,457.48 L365.57,457.21 L366.65,455.91 L367.72,452.05 L368.79,447.55 L369.86,446.13 L370.93,445.87 L372.00,445.77" fill="none" stroke="#e0e0e0" stroke-width="1.4"/>
<text x="235" y="390" fill="#666" font-family="monospace" font-size="9">10</text>
<rect x="380" y="376" width="152" height="152" fill="#0b0b0b" stroke="#444"/>
<line x1="388" y1="452.00" x2="524" y2="452.00" stroke="#292929"/>
<path d="M388.00,455.27 L389.07,455.94 L390.14,456.79 L391.21,457.28 L392.28,457.35 L393.35,456.95 L394.43,455.63 L395.50,452.74 L396.57,449.52 L397.64,447.79 L398.71,447.27 L399.78,447.35 L400.85,447.58 L401.92,447.43 L402.99,446.71 L404.06,445.91 L405.13,445.45 L406.20,445.29 L407.28,445.40 L408.35,446.33 L409.42,450.25 L410.49,455.53 L411.56,457.04 L412.63,457.25 L413.70,457.26 L414.77,457.24 L415.84,457.18 L416.91,456.93 L417.98,455.57 L419.06,451.35 L420.13,447.53 L421.20,446.21 L422.27,446.07 L423.34,446.48 L424.41,447.00 L425.48,446.82 L426.55,445.89 L427.62,445.14 L428.69,444.85 L429.76,444.78 L430.83,444.82 L431.91,445.02 L432.98,445.99 L434.05,450.39 L435.12,455.91 L436.19,457.22 L437.26,457.42 L438.33,457.49 L439.40,457.53 L440.47,457.53 L441.54,457.41 L442.61,456.89 L443.69,455.34 L444.76,452.48 L445.83,449.54 L446.90,447.71 L447.97,446.86 L449.04,446.57 L450.11,446.61 L451.18,446.94 L452.25,447.65 L453.32,448.69 L454.39,449.66 L455.46,449.88 L456.54,449.03 L457.61,447.64 L458.68,446.68 L459.75,446.32 L460.82,446.26 L461.89,446.32 L462.96,446.53 L464.03,447.17 L465.10,449.00 L466.17,452.05 L467.24,454.58 L468.31,456.00 L469.39,456.91 L470.46,457.72 L471.53,458.43 L472.60,458.87 L473.67,459.08 L474.74,459.12 L475.81,458.92 L476.88,457.79 L477.95,453.88 L479.02,449.38 L480.09,447.76 L481.17,447.39 L482.24,447.35 L483.31,447.43 L484.38,447.61 L485.45,447.85 L486.52,448.25 L487.59,449.15 L488.66,451.49 L489.73,455.50 L490.80,458.23 L491.87,459.08 L492.94,459.24 L494.02,459.12 L495.09,458.78 L496.16,458.32 L497.23,458.01 L498.30,457.97 L499.37,458.03 L500.44,457.80 L501.51,456.56 L502.58,452.82 L503.65,448.45 L504.72,447.10 L505.80,446.87 L506.87,446.80 L507.94,446.75 L509.01,446.72 L510.08,446.75 L511.15,447.08 L512.22,448.76 L513.29,453.25 L514.36,457.13 L515.43,458.42 L516.50,458.71 L517.57,458.74 L518.65,458.69 L519.72,458.55 L520.79,458.26 L521.86,457.62 L522.93,456.51 L524.00,455.47" fill="none" stroke="#e0e0e0" stroke-width="1.4"/>
<text x="387" y="390" fill="#666" font-family="monospace" font-size="9">11</text>
<rect x="532" y="376" width="152" height="152" fill="#0b0b0b" stroke="#444"/>
<line x1="540" y1="452.00" x2="676" y2="452.00" stroke="#292929"/>
<path d="M540.00,440.77 L541.07,440.41 L542.14,440.60 L543.21,442.40 L544.28,450.11 L545.35,460.53 L546.43,463.49 L547.50,463.83 L548.57,463.79 L549.64,463.68 L550.71,463.49 L551.78,462.93 L552.85,460.15 L553.92,451.70 L554.99,444.04 L556.06,441.34 L557.13,440.96 L558.20,441.70 L559.28,442.63 L560.35,442.18 L561.42,440.26 L562.49,438.67 L563.56,438.00 L564.63,437.78 L565.70,437.76 L566.77,438.06 L567.84,439.88 L568.91,448.52 L569.98,459.38 L571.06,461.90 L572.13,462.21 L573.20,462.25 L574.27,462.23 L575.34,462.15 L576.41,461.84 L577.48,460.72 L578.55,457.56 L579.62,451.80 L580.69,445.91 L581.76,442.20 L582.83,440.44 L583.91,439.80 L584.98,439.82 L586.05,440.43 L587.12,441.77 L588.19,443.79 L589.26,445.67 L590.33,446.07 L591.40,444.33 L592.47,441.54 L593.54,439.60 L594.61,438.87 L595.69,438.72 L596.76,438.83 L597.83,439.24 L598.90,440.51 L599.97,444.14 L601.04,450.19 L602.11,455.21 L603.18,458.05 L604.25,459.86 L605.32,461.50 L606.39,462.92 L607.46,463.83 L608.54,464.28 L609.61,464.40 L610.68,464.04 L611.75,461.86 L612.82,454.15 L613.89,445.26 L614.96,442.10 L616.03,441.44 L617.10,441.42 L618.17,441.66 L619.24,442.07 L620.31,442.63 L621.39,443.50 L622.46,445.37 L623.53,450.09 L624.60,458.13 L625.67,463.63 L626.74,465.41 L627.81,465.81 L628.88,465.66 L629.95,465.08 L631.02,464.27 L632.09,463.74 L633.17,463.76 L634.24,463.97 L635.31,463.60 L636.38,461.23 L637.45,453.91 L638.52,445.34 L639.59,442.74 L640.66,442.37 L641.73,442.32 L642.80,442.32 L643.87,442.35 L644.94,442.49 L646.02,443.22 L647.09,446.63 L648.16,455.62 L649.23,463.39 L650.30,466.03 L651.37,466.67 L652.44,466.80 L653.51,466.75 L654.58,466.54 L655.65,466.02 L656.72,464.79 L657.80,462.64 L658.87,460.61 L659.94,460.25 L661.01,461.62 L662.08,463.34 L663.15,464.33 L664.22,464.48 L665.29,463.72 L666.36,461.12 L667.43,455.39 L668.50,449.00 L669.57,445.55 L670.65,444.51 L671.72,444.67 L672.79,445.12 L673.86,444.78 L674.93,443.34 L676.00,441.73" fill="none" stroke="#e0e0e0" stroke-width="1.4"/>
<text x="539" y="390" fill="#666" font-family="monospace" font-size="9">12</text>
<rect x="76" y="528" width="152" height="152" fill="#0b0b0b" stroke="#444"/>
<line x1="84" y1="604.00" x2="220" y2="604.00" stroke="#292929"/>
<path d="M84.00,618.42 L85.07,622.07 L86.14,622.17 L87.21,621.98 L88.28,621.64 L89.35,621.20 L90.43,620.91 L91.50,620.92 L92.57,621.00 L93.64,620.97 L94.71,620.78 L95.78,620.05 L96.85,613.52 L97.92,591.70 L98.99,585.59 L100.06,584.91 L101.13,584.77 L102.20,584.94 L103.28,586.06 L104.35,590.17 L105.42,599.32 L106.49,609.40 L107.56,615.30 L108.63,617.74 L109.70,618.64 L110.77,618.96 L111.84,619.07 L112.91,619.08 L113.98,619.06 L115.06,618.99 L116.13,618.79 L117.20,618.01 L118.27,615.15 L119.34,609.20 L120.41,605.31 L121.48,607.31 L122.55,611.94 L123.62,614.36 L124.69,613.22 L125.76,605.81 L126.83,593.54 L127.91,587.86 L128.98,587.18 L130.05,589.12 L131.12,592.47 L132.19,592.88 L133.26,589.30 L134.33,586.48 L135.40,585.76 L136.47,586.39 L137.54,590.07 L138.61,601.28 L139.69,612.27 L140.76,616.47 L141.83,618.02 L142.90,619.33 L143.97,620.58 L145.04,621.26 L146.11,621.56 L147.18,621.74 L148.25,621.81 L149.32,621.13 L150.39,615.03 L151.46,599.25 L152.54,591.31 L153.61,589.62 L154.68,589.26 L155.75,588.78 L156.82,588.28 L157.89,588.14 L158.96,588.23 L160.03,588.41 L161.10,588.69 L162.17,589.17 L163.24,590.38 L164.31,595.37 L165.39,610.74 L166.46,621.64 L167.53,623.87 L168.60,624.03 L169.67,622.50 L170.74,614.99 L171.81,600.65 L172.88,593.16 L173.95,591.23 L175.02,590.80 L176.09,590.78 L177.17,590.93 L178.24,591.18 L179.31,591.45 L180.38,591.60 L181.45,591.55 L182.52,591.44 L183.59,591.43 L184.66,591.71 L185.73,592.59 L186.80,594.59 L187.87,596.80 L188.94,596.37 L190.02,593.59 L191.09,591.73 L192.16,591.22 L193.23,591.69 L194.30,596.54 L195.37,615.38 L196.44,624.31 L197.51,625.38 L198.58,625.44 L199.65,625.35 L200.72,625.30 L201.80,625.30 L202.87,625.23 L203.94,625.09 L205.01,624.66 L206.08,620.87 L207.15,600.89 L208.22,590.74 L209.29,589.39 L210.36,589.15 L211.43,589.17 L212.50,589.26 L213.57,589.04 L214.65,588.53 L215.72,588.12 L216.79,587.87 L217.86,587.73 L218.93,588.10 L220.00,595.79" fill="none" stroke="#e0e0e0" stroke-width="1.4"/>
<text x="83" y="542" fill="#666" font-family="monospace" font-size="9">13</text>
<rect x="228" y="528" width="152" height="152" fill="#0b0b0b" stroke="#444"/>
<line x1="236" y1="604.00" x2="372" y2="604.00" stroke="#292929"/>
<path d="M236.00,592.67 L237.07,592.75 L238.14,593.47 L239.21,596.21 L240.28,602.36 L241.35,609.15 L242.43,613.09 L243.50,614.68 L244.57,615.23 L245.64,615.38 L246.71,615.38 L247.78,615.33 L248.85,615.24 L249.92,615.11 L250.99,614.89 L252.06,614.29 L253.13,612.26 L254.20,608.15 L255.28,605.43 L256.35,606.69 L257.42,609.74 L258.49,611.30 L259.56,610.43 L260.63,605.31 L261.70,596.91 L262.77,592.97 L263.84,592.42 L264.91,593.64 L265.98,595.82 L267.06,596.02 L268.13,593.50 L269.20,591.50 L270.27,590.93 L271.34,591.27 L272.41,593.69 L273.48,601.21 L274.55,608.58 L275.62,611.35 L276.69,612.33 L277.76,613.15 L278.83,613.93 L279.91,614.33 L280.98,614.47 L282.05,614.54 L283.12,614.53 L284.19,614.03 L285.26,609.85 L286.33,599.11 L287.40,593.69 L288.47,592.51 L289.54,592.24 L290.61,591.89 L291.69,591.53 L292.76,591.42 L293.83,591.47 L294.90,591.59 L295.97,591.77 L297.04,592.10 L298.11,592.93 L299.18,596.32 L300.25,606.76 L301.32,614.16 L302.39,615.70 L303.46,615.84 L304.54,614.83 L305.61,609.78 L306.68,600.10 L307.75,595.07 L308.82,593.80 L309.89,593.57 L310.96,593.61 L312.03,593.77 L313.10,594.01 L314.17,594.25 L315.24,594.42 L316.31,594.46 L317.39,594.46 L318.46,594.53 L319.53,594.80 L320.60,595.48 L321.67,596.91 L322.74,598.50 L323.81,598.29 L324.88,596.49 L325.95,595.32 L327.02,595.06 L328.09,595.47 L329.17,598.85 L330.24,611.71 L331.31,617.86 L332.38,618.68 L333.45,618.80 L334.52,618.83 L335.59,618.89 L336.66,618.97 L337.73,619.02 L338.80,619.00 L339.87,618.80 L340.94,616.30 L342.02,602.84 L343.09,596.04 L344.16,595.20 L345.23,595.10 L346.30,595.19 L347.37,595.32 L348.44,595.23 L349.51,594.94 L350.58,594.72 L351.65,594.60 L352.72,594.56 L353.80,594.85 L354.87,600.10 L355.94,615.48 L357.01,617.99 L358.08,618.09 L359.15,617.98 L360.22,617.77 L361.29,617.49 L362.36,617.30 L363.43,617.31 L364.50,617.37 L365.57,617.35 L366.65,617.21 L367.72,616.71 L368.79,612.27 L369.86,597.45 L370.93,593.29 L372.00,592.80" fill="none" stroke="#e0e0e0" stroke-width="1.4"/>
<text x="235" y="542" fill="#666" font-family="monospace" font-size="9">14</text>
<rect x="380" y="528" width="152" height="152" fill="#0b0b0b" stroke="#444"/>
<line x1="388" y1="604.00" x2="524" y2="604.00" stroke="#292929"/>
<path d="M388.00,613.57 L389.07,609.59 L390.14,606.93 L391.21,608.11 L392.28,610.99 L393.35,612.43 L394.43,611.55 L395.50,606.58 L396.57,598.45 L397.64,594.60 L398.71,594.01 L399.78,595.11 L400.85,597.13 L401.92,597.25 L402.99,594.75 L404.06,592.76 L405.13,592.12 L406.20,592.38 L407.28,594.61 L408.35,601.75 L409.42,608.74 L410.49,611.32 L411.56,612.17 L412.63,612.87 L413.70,613.54 L414.77,613.83 L415.84,613.88 L416.91,613.86 L417.98,613.77 L419.06,613.20 L420.13,609.10 L421.20,598.71 L422.27,593.43 L423.34,592.21 L424.41,591.87 L425.48,591.46 L426.55,591.04 L427.62,590.87 L428.69,590.84 L429.76,590.89 L430.83,591.01 L431.91,591.26 L432.98,592.00 L434.05,595.20 L435.12,605.17 L436.19,612.24 L437.26,613.67 L438.33,613.76 L439.40,612.76 L440.47,607.88 L441.54,598.56 L442.61,593.70 L443.69,592.47 L444.76,592.23 L445.83,592.26 L446.90,592.40 L447.97,592.63 L449.04,592.87 L450.11,593.04 L451.18,593.08 L452.25,593.10 L453.32,593.19 L454.39,593.46 L455.46,594.15 L456.54,595.56 L457.61,597.11 L458.68,596.95 L459.75,595.27 L460.82,594.19 L461.89,593.99 L462.96,594.44 L464.03,597.74 L465.10,610.15 L466.17,616.12 L467.24,616.97 L468.31,617.16 L469.39,617.26 L470.46,617.39 L471.53,617.54 L472.60,617.66 L473.67,617.73 L474.74,617.61 L475.81,615.30 L476.88,602.46 L477.95,596.01 L479.02,595.29 L480.09,595.28 L481.17,595.45 L482.24,595.66 L483.31,595.66 L484.38,595.48 L485.45,595.35 L486.52,595.32 L487.59,595.36 L488.66,595.73 L489.73,600.86 L490.80,615.70 L491.87,618.19 L492.94,618.36 L494.02,618.33 L495.09,618.21 L496.16,618.01 L497.23,617.90 L498.30,617.98 L499.37,618.10 L500.44,618.13 L501.51,618.06 L502.58,617.63 L503.65,613.41 L504.72,599.24 L505.80,595.28 L506.87,594.85 L507.94,594.76 L509.01,594.87 L510.08,595.58 L511.15,598.24 L512.22,604.17 L513.29,610.70 L514.36,614.49 L515.43,616.03 L516.50,616.56 L517.57,616.70 L518.65,616.70 L519.72,616.63 L520.79,616.53 L521.86,616.39 L522.93,616.16 L524.00,615.55" fill="none" stroke="#e0e0e0" stroke-width="1.4"/>
<text x="387" y="542" fill="#666" font-family="monospace" font-size="9">15</text>
<rect x="532" y="528" width="152" height="152" fill="#0b0b0b" stroke="#444"/>
<line x1="540" y1="604.00" x2="676" y2="604.00" stroke="#292929"/>
<path d="M540.00,589.75 L541.07,590.05 L542.14,593.11 L543.21,602.99 L544.28,612.66 L545.35,616.17 L546.43,617.29 L547.50,618.18 L548.57,619.02 L549.64,619.35 L550.71,619.33 L551.78,619.20 L552.85,618.97 L553.92,618.07 L554.99,612.27 L556.06,597.69 L557.13,590.22 L558.20,588.42 L559.28,587.83 L560.35,587.14 L561.42,586.44 L562.49,586.08 L563.56,585.93 L564.63,585.87 L565.70,585.91 L566.77,586.14 L567.84,587.05 L568.91,591.39 L569.98,605.15 L571.06,614.87 L572.13,616.75 L573.20,616.76 L574.27,615.26 L575.34,608.34 L576.41,595.26 L577.48,588.39 L578.55,586.58 L579.62,586.14 L580.69,586.08 L581.76,586.20 L582.83,586.42 L583.91,586.68 L584.98,586.83 L586.05,586.82 L587.12,586.77 L588.19,586.83 L589.26,587.15 L590.33,588.05 L591.40,589.96 L592.47,592.09 L593.54,591.83 L594.61,589.45 L595.69,587.92 L596.76,587.63 L597.83,588.23 L598.90,592.82 L599.97,610.09 L601.04,618.40 L602.11,619.59 L603.18,619.88 L604.25,620.03 L605.32,620.24 L606.39,620.49 L607.46,620.69 L608.54,620.83 L609.61,620.71 L610.68,617.55 L611.75,599.74 L612.82,590.82 L613.89,589.89 L614.96,589.96 L616.03,590.27 L617.10,590.65 L618.17,590.73 L619.24,590.57 L620.31,590.49 L621.39,590.54 L622.46,590.71 L623.53,591.33 L624.60,598.57 L625.67,619.35 L626.74,622.93 L627.81,623.28 L628.88,623.36 L629.95,623.30 L631.02,623.14 L632.09,623.10 L633.17,623.33 L634.24,623.62 L635.31,623.79 L636.38,623.81 L637.45,623.33 L638.52,617.59 L639.59,597.97 L640.66,592.58 L641.73,592.09 L642.80,592.09 L643.87,592.35 L644.94,593.45 L646.02,597.25 L647.09,605.60 L648.16,614.80 L649.23,620.17 L650.30,622.40 L651.37,623.23 L652.44,623.51 L653.51,623.58 L654.58,623.57 L655.65,623.49 L656.72,623.37 L657.80,623.10 L658.87,622.31 L659.94,619.61 L661.01,614.11 L662.08,610.45 L663.15,612.11 L664.22,616.15 L665.29,618.18 L666.36,616.97 L667.43,610.05 L668.50,598.74 L669.57,593.38 L670.65,592.55 L671.72,594.07 L672.79,596.86 L673.86,596.99 L674.93,593.49 L676.00,590.67" fill="none" stroke="#e0e0e0" stroke-width="1.4"/>
<text x="539" y="542" fill="#666" font-family="monospace" font-size="9">16</text>
</svg>
