<svg xmlns="http://www.w3.org/2000/svg" width="760" height="760" viewBox="0 0 760 760">
<rect width="760" height="760" fill="#161616"/>
<text x="24" y="32" fill="#dedede" font-family="monospace" font-size="15">S3G VOT / GLASS / METAL</text>
<text x="684" y="724" text-anchor="end" fill="#858585" font-family="monospace" font-size="11">U / PARTIAL DENSITY</text>
<text x="24" y="72" fill="#858585" font-family="monospace" font-size="11">V / HARMONIC LATTICE</text>
<text x="76" y="724" fill="#858585" font-family="monospace" font-size="11">ENERGY / LEVEL MATCHED</text>
<rect x="76" y="72" width="152" height="152" fill="#0b0b0b" stroke="#444"/>
<line x1="84" y1="148.00" x2="220" y2="148.00" stroke="#292929"/>
<path d="M84.00,148.00 L85.07,147.58 L86.14,147.16 L87.21,146.74 L88.28,146.32 L89.35,145.91 L90.43,145.50 L91.50,145.10 L92.57,144.70 L93.64,144.31 L94.71,143.94 L95.78,143.57 L96.85,143.21 L97.92,142.86 L98.99,142.53 L100.06,142.21 L101.13,141.90 L102.20,141.61 L103.28,141.34 L104.35,141.08 L105.42,140.83 L106.49,140.61 L107.56,140.40 L108.63,140.21 L109.70,140.04 L110.77,139.88 L111.84,139.75 L112.91,139.64 L113.98,139.54 L115.06,139.47 L116.13,139.42 L117.20,139.39 L118.27,139.38 L119.34,139.39 L120.41,139.42 L121.48,139.47 L122.55,139.54 L123.62,139.64 L124.69,139.75 L125.76,139.88 L126.83,140.04 L127.91,140.21 L128.98,140.40 L130.05,140.61 L131.12,140.83 L132.19,141.08 L133.26,141.34 L134.33,141.61 L135.40,141.90 L136.47,142.21 L137.54,142.53 L138.61,142.86 L139.69,143.21 L140.76,143.57 L141.83,143.94 L142.90,144.31 L143.97,144.70 L145.04,145.10 L146.11,145.50 L147.18,145.91 L148.25,146.32 L149.32,146.74 L150.39,147.16 L151.46,147.58 L152.54,148.00 L153.61,148.42 L154.68,148.84 L155.75,149.26 L156.82,149.68 L157.89,150.09 L158.96,150.50 L160.03,150.90 L161.10,151.30 L162.17,151.69 L163.24,152.06 L164.31,152.43 L165.39,152.79 L166.46,153.14 L167.53,153.47 L168.60,153.79 L169.67,154.10 L170.74,154.39 L171.81,154.66 L172.88,154.92 L173.95,155.17 L175.02,155.39 L176.09,155.60 L177.17,155.79 L178.24,155.96 L179.31,156.12 L180.38,156.25 L181.45,156.36 L182.52,156.46 L183.59,156.53 L184.66,156.58 L185.73,156.61 L186.80,156.62 L187.87,156.61 L188.94,156.58 L190.02,156.53 L191.09,156.46 L192.16,156.36 L193.23,156.25 L194.30,156.12 L195.37,155.96 L196.44,155.79 L197.51,155.60 L198.58,155.39 L199.65,155.17 L200.72,154.92 L201.80,154.66 L202.87,154.39 L203.94,154.10 L205.01,153.79 L206.08,153.47 L207.15,153.14 L208.22,152.79 L209.29,152.43 L210.36,152.06 L211.43,151.69 L212.50,151.30 L213.57,150.90 L214.65,150.50 L215.72,150.09 L216.79,149.68 L217.86,149.26 L218.93,148.84 L220.00,148.42" fill="none" stroke="#e0e0e0" stroke-width="1.4"/>
<text x="83" y="86" fill="#666" font-family="monospace" font-size="9">01</text>
<rect x="228" y="72" width="152" height="152" fill="#0b0b0b" stroke="#444"/>
<line x1="236" y1="148.00" x2="372" y2="148.00" stroke="#292929"/>
<path d="M236.00,148.00 L237.07,137.75 L238.14,139.59 L239.21,142.38 L240.28,142.77 L241.35,142.11 L242.43,142.08 L243.50,143.69 L244.57,143.20 L245.64,142.60 L246.71,142.63 L247.78,140.83 L248.85,142.75 L249.92,141.92 L250.99,142.02 L252.06,141.48 L253.13,141.67 L254.20,141.69 L255.28,141.50 L256.35,141.08 L257.42,141.88 L258.49,142.98 L259.56,140.09 L260.63,141.35 L261.70,141.33 L262.77,141.80 L263.84,140.69 L264.91,139.74 L265.98,139.71 L267.06,139.56 L268.13,139.10 L269.20,139.19 L270.27,139.00 L271.34,139.96 L272.41,141.20 L273.48,140.68 L274.55,141.40 L275.62,141.31 L276.69,142.24 L277.76,141.34 L278.83,141.77 L279.91,142.20 L280.98,144.32 L282.05,143.51 L283.12,144.57 L284.19,144.15 L285.26,144.13 L286.33,144.35 L287.40,146.05 L288.47,145.36 L289.54,146.73 L290.61,147.25 L291.69,147.31 L292.76,153.18 L293.83,135.56 L294.90,142.89 L295.97,143.95 L297.04,144.21 L298.11,144.41 L299.18,144.84 L300.25,146.91 L301.32,146.54 L302.39,147.29 L303.46,147.67 L304.54,148.00 L305.61,148.33 L306.68,148.71 L307.75,149.46 L308.82,149.09 L309.89,151.16 L310.96,151.59 L312.03,151.79 L313.10,152.05 L314.17,153.11 L315.24,160.44 L316.31,142.82 L317.39,148.69 L318.46,148.75 L319.53,149.27 L320.60,150.64 L321.67,149.95 L322.74,151.65 L323.81,151.87 L324.88,151.85 L325.95,151.43 L327.02,152.49 L328.09,151.68 L329.17,153.80 L330.24,154.23 L331.31,154.66 L332.38,153.76 L333.45,154.69 L334.52,154.60 L335.59,155.32 L336.66,154.80 L337.73,156.04 L338.80,157.00 L339.87,156.81 L340.94,156.90 L342.02,156.44 L343.09,156.29 L344.16,156.26 L345.23,155.31 L346.30,154.20 L347.37,154.67 L348.44,154.65 L349.51,155.91 L350.58,153.02 L351.65,154.12 L352.72,154.92 L353.80,154.50 L354.87,154.31 L355.94,154.33 L357.01,154.52 L358.08,153.98 L359.15,154.08 L360.22,153.25 L361.29,155.17 L362.36,153.37 L363.43,153.40 L364.50,152.80 L365.57,152.31 L366.65,153.92 L367.72,153.89 L368.79,153.23 L369.86,153.62 L370.93,156.41 L372.00,158.25" fill="none" stroke="#e0e0e0" stroke-width="1.4"/>
<text x="235" y="86" fill="#666" font-family="monospace" font-size="9">02</text>
<rect x="380" y="72" width="152" height="152" fill="#0b0b0b" stroke="#444"/>
<line x1="388" y1="148.00" x2="524" y2="148.00" stroke="#292929"/>
<path d="M388.00,148.00 L389.07,126.69 L390.14,130.47 L391.21,137.92 L392.28,138.63 L393.35,138.35 L394.43,139.61 L395.50,142.00 L396.57,142.79 L397.64,142.68 L398.71,142.23 L399.78,140.46 L400.85,143.54 L401.92,142.56 L402.99,142.41 L404.06,142.85 L405.13,143.91 L406.20,143.54 L407.28,143.02 L408.35,143.50 L409.42,145.21 L410.49,144.30 L411.56,146.33 L412.63,146.70 L413.70,147.09 L414.77,147.98 L415.84,145.87 L416.91,144.27 L417.98,144.09 L419.06,144.00 L420.13,142.86 L421.20,143.16 L422.27,142.93 L423.34,144.38 L424.41,145.14 L425.48,144.85 L426.55,146.15 L427.62,146.07 L428.69,147.43 L429.76,144.81 L430.83,145.82 L431.91,145.76 L432.98,148.60 L434.05,148.13 L435.12,149.06 L436.19,148.12 L437.26,146.63 L438.33,147.55 L439.40,150.51 L440.47,148.08 L441.54,149.75 L442.61,150.79 L443.69,150.76 L444.76,153.11 L445.83,142.12 L446.90,147.47 L447.97,147.14 L449.04,147.45 L450.11,147.32 L451.18,146.41 L452.25,148.88 L453.32,147.51 L454.39,147.92 L455.46,148.28 L456.54,148.00 L457.61,147.72 L458.68,148.08 L459.75,148.49 L460.82,147.12 L461.89,149.59 L462.96,148.68 L464.03,148.55 L465.10,148.86 L466.17,148.53 L467.24,153.88 L468.31,142.89 L469.39,145.24 L470.46,145.21 L471.53,146.25 L472.60,147.92 L473.67,145.49 L474.74,148.45 L475.81,149.37 L476.88,147.88 L477.95,146.94 L479.02,147.87 L480.09,147.40 L481.17,150.24 L482.24,150.18 L483.31,151.19 L484.38,148.57 L485.45,149.93 L486.52,149.85 L487.59,151.15 L488.66,150.86 L489.73,151.62 L490.80,153.07 L491.87,152.84 L492.94,153.14 L494.02,152.00 L495.09,151.91 L496.16,151.73 L497.23,150.13 L498.30,148.02 L499.37,148.91 L500.44,149.30 L501.51,149.67 L502.58,151.70 L503.65,150.79 L504.72,152.50 L505.80,152.98 L506.87,152.46 L507.94,152.09 L509.01,153.15 L510.08,153.59 L511.15,153.44 L512.22,152.46 L513.29,155.54 L514.36,153.77 L515.43,153.32 L516.50,153.21 L517.57,154.00 L518.65,156.39 L519.72,157.65 L520.79,157.37 L521.86,158.08 L522.93,165.53 L524.00,169.31" fill="none" stroke="#e0e0e0" stroke-width="1.4"/>
<text x="387" y="86" fill="#666" font-family="monospace" font-size="9">03</text>
<rect x="532" y="72" width="152" height="152" fill="#0b0b0b" stroke="#444"/>
<line x1="540" y1="148.00" x2="676" y2="148.00" stroke="#292929"/>
<path d="M540.00,148.00 L541.07,125.53 L542.14,129.55 L543.21,137.58 L544.28,138.29 L545.35,138.09 L546.43,139.60 L547.50,141.87 L548.57,143.01 L549.64,143.01 L550.71,142.39 L551.78,140.95 L552.85,143.97 L553.92,143.07 L554.99,142.81 L556.06,143.53 L557.13,144.77 L558.20,144.34 L559.28,143.72 L560.35,144.44 L561.42,146.18 L562.49,145.30 L563.56,146.98 L564.63,147.59 L565.70,148.22 L566.77,148.95 L567.84,146.81 L568.91,145.28 L569.98,145.09 L571.06,145.05 L572.13,143.80 L573.20,144.09 L574.27,143.98 L575.34,145.50 L576.41,145.98 L577.48,145.77 L578.55,147.15 L579.62,147.13 L580.69,148.40 L581.76,145.57 L582.83,146.69 L583.91,146.42 L584.98,149.32 L586.05,148.79 L587.12,149.69 L588.19,148.70 L589.26,146.93 L590.33,148.01 L591.40,150.99 L592.47,148.30 L593.54,149.86 L594.61,150.98 L595.69,150.95 L596.76,151.73 L597.83,144.84 L598.90,148.70 L599.97,147.98 L601.04,148.34 L602.11,148.19 L603.18,146.97 L604.25,149.31 L605.32,147.76 L606.39,148.06 L607.46,148.46 L608.54,148.00 L609.61,147.54 L610.68,147.94 L611.75,148.24 L612.82,146.69 L613.89,149.03 L614.96,147.81 L616.03,147.66 L617.10,148.02 L618.17,147.30 L619.24,151.16 L620.31,144.27 L621.39,145.05 L622.46,145.02 L623.53,146.14 L624.60,147.70 L625.67,145.01 L626.74,147.99 L627.81,149.07 L628.88,147.30 L629.95,146.31 L631.02,147.21 L632.09,146.68 L633.17,149.58 L634.24,149.31 L635.31,150.43 L636.38,147.60 L637.45,148.87 L638.52,148.85 L639.59,150.23 L640.66,150.02 L641.73,150.50 L642.80,152.02 L643.87,151.91 L644.94,152.20 L646.02,150.95 L647.09,150.91 L648.16,150.72 L649.23,149.19 L650.30,147.05 L651.37,147.78 L652.44,148.41 L653.51,149.02 L654.58,150.70 L655.65,149.82 L656.72,151.56 L657.80,152.28 L658.87,151.66 L659.94,151.23 L661.01,152.47 L662.08,153.19 L663.15,152.93 L664.22,152.03 L665.29,155.05 L666.36,153.61 L667.43,152.99 L668.50,152.99 L669.57,154.13 L670.65,156.40 L671.72,157.91 L672.79,157.71 L673.86,158.42 L674.93,166.45 L676.00,170.47" fill="none" stroke="#e0e0e0" stroke-width="1.4"/>
<text x="539" y="86" fill="#666" font-family="monospace" font-size="9">04</text>
<rect x="76" y="224" width="152" height="152" fill="#0b0b0b" stroke="#444"/>
<line x1="84" y1="300.00" x2="220" y2="300.00" stroke="#292929"/>
<path d="M84.00,300.00 L85.07,299.58 L86.14,299.16 L87.21,298.74 L88.28,298.32 L89.35,297.91 L90.43,297.50 L91.50,297.10 L92.57,296.70 L93.64,296.31 L94.71,295.94 L95.78,295.57 L96.85,295.21 L97.92,294.86 L98.99,294.53 L100.06,294.21 L101.13,293.90 L102.20,293.61 L103.28,293.34 L104.35,293.08 L105.42,292.83 L106.49,292.61 L107.56,292.40 L108.63,292.21 L109.70,292.04 L110.77,291.88 L111.84,291.75 L112.91,291.64 L113.98,291.54 L115.06,291.47 L116.13,291.42 L117.20,291.39 L118.27,291.38 L119.34,291.39 L120.41,291.42 L121.48,291.47 L122.55,291.54 L123.62,291.64 L124.69,291.75 L125.76,291.88 L126.83,292.04 L127.91,292.21 L128.98,292.40 L130.05,292.61 L131.12,292.83 L132.19,293.08 L133.26,293.34 L134.33,293.61 L135.40,293.90 L136.47,294.21 L137.54,294.53 L138.61,294.86 L139.69,295.21 L140.76,295.57 L141.83,295.94 L142.90,296.31 L143.97,296.70 L145.04,297.10 L146.11,297.50 L147.18,297.91 L148.25,298.32 L149.32,298.74 L150.39,299.16 L151.46,299.58 L152.54,300.00 L153.61,300.42 L154.68,300.84 L155.75,301.26 L156.82,301.68 L157.89,302.09 L158.96,302.50 L160.03,302.90 L161.10,303.30 L162.17,303.69 L163.24,304.06 L164.31,304.43 L165.39,304.79 L166.46,305.14 L167.53,305.47 L168.60,305.79 L169.67,306.10 L170.74,306.39 L171.81,306.66 L172.88,306.92 L173.95,307.17 L175.02,307.39 L176.09,307.60 L177.17,307.79 L178.24,307.96 L179.31,308.12 L180.38,308.25 L181.45,308.36 L182.52,308.46 L183.59,308.53 L184.66,308.58 L185.73,308.61 L186.80,308.62 L187.87,308.61 L188.94,308.58 L190.02,308.53 L191.09,308.46 L192.16,308.36 L193.23,308.25 L194.30,308.12 L195.37,307.96 L196.44,307.79 L197.51,307.60 L198.58,307.39 L199.65,307.17 L200.72,306.92 L201.80,306.66 L202.87,306.39 L203.94,306.10 L205.01,305.79 L206.08,305.47 L207.15,305.14 L208.22,304.79 L209.29,304.43 L210.36,304.06 L211.43,303.69 L212.50,303.30 L213.57,302.90 L214.65,302.50 L215.72,302.09 L216.79,301.68 L217.86,301.26 L218.93,300.84 L220.00,300.42" fill="none" stroke="#e0e0e0" stroke-width="1.4"/>
<text x="83" y="238" fill="#666" font-family="monospace" font-size="9">05</text>
<rect x="228" y="224" width="152" height="152" fill="#0b0b0b" stroke="#444"/>
<line x1="236" y1="300.00" x2="372" y2="300.00" stroke="#292929"/>
<path d="M236.00,300.00 L237.07,294.68 L238.14,295.05 L239.21,296.59 L240.28,296.68 L241.35,295.72 L242.43,295.95 L243.50,295.71 L244.57,295.52 L245.64,295.29 L246.71,295.65 L247.78,295.95 L248.85,295.28 L249.92,295.13 L250.99,294.69 L252.06,294.62 L253.13,294.01 L254.20,294.02 L255.28,293.18 L256.35,293.03 L257.42,293.17 L258.49,292.84 L259.56,292.56 L260.63,292.75 L261.70,293.85 L262.77,293.89 L263.84,293.45 L264.91,293.89 L265.98,294.38 L267.06,292.65 L268.13,293.68 L269.20,294.64 L270.27,294.65 L271.34,293.84 L272.41,286.98 L273.48,288.55 L274.55,290.58 L275.62,290.44 L276.69,290.12 L277.76,291.48 L278.83,291.54 L279.91,292.14 L280.98,292.05 L282.05,292.80 L283.12,293.52 L284.19,293.28 L285.26,293.66 L286.33,293.63 L287.40,294.31 L288.47,294.38 L289.54,294.83 L290.61,294.51 L291.69,295.04 L292.76,296.01 L293.83,295.91 L294.90,296.56 L295.97,296.91 L297.04,298.87 L298.11,299.09 L299.18,298.90 L300.25,300.50 L301.32,302.15 L302.39,297.96 L303.46,299.47 L304.54,300.00 L305.61,300.53 L306.68,302.04 L307.75,297.85 L308.82,299.50 L309.89,301.10 L310.96,300.91 L312.03,301.13 L313.10,303.09 L314.17,303.44 L315.24,304.09 L316.31,303.99 L317.39,304.96 L318.46,305.49 L319.53,305.17 L320.60,305.62 L321.67,305.69 L322.74,306.37 L323.81,306.34 L324.88,306.72 L325.95,306.48 L327.02,307.20 L328.09,307.95 L329.17,307.86 L330.24,308.46 L331.31,308.52 L332.38,309.88 L333.45,309.56 L334.52,309.42 L335.59,311.45 L336.66,313.02 L337.73,306.16 L338.80,305.35 L339.87,305.36 L340.94,306.32 L342.02,307.35 L343.09,305.62 L344.16,306.11 L345.23,306.55 L346.30,306.11 L347.37,306.15 L348.44,307.25 L349.51,307.44 L350.58,307.16 L351.65,306.83 L352.72,306.97 L353.80,306.82 L354.87,305.98 L355.94,305.99 L357.01,305.38 L358.08,305.31 L359.15,304.87 L360.22,304.72 L361.29,304.05 L362.36,304.35 L363.43,304.71 L364.50,304.48 L365.57,304.29 L366.65,304.05 L367.72,304.28 L368.79,303.32 L369.86,303.41 L370.93,304.95 L372.00,305.32" fill="none" stroke="#e0e0e0" stroke-width="1.4"/>
<text x="235" y="238" fill="#666" font-family="monospace" font-size="9">06</text>
<rect x="380" y="224" width="152" height="152" fill="#0b0b0b" stroke="#444"/>
<line x1="388" y1="300.00" x2="524" y2="300.00" stroke="#292929"/>
<path d="M388.00,300.00 L389.07,281.67 L390.14,283.72 L391.21,290.47 L392.28,292.41 L393.35,291.78 L394.43,291.30 L395.50,291.79 L396.57,292.74 L397.64,293.86 L398.71,293.99 L399.78,296.57 L400.85,296.04 L401.92,296.45 L402.99,295.36 L404.06,295.80 L405.13,295.38 L406.20,295.95 L407.28,294.42 L408.35,294.34 L409.42,295.90 L410.49,295.33 L411.56,294.80 L412.63,295.53 L413.70,298.26 L414.77,299.42 L415.84,298.34 L416.91,299.24 L417.98,299.05 L419.06,298.34 L420.13,300.16 L421.20,301.38 L422.27,301.84 L423.34,300.64 L424.41,288.36 L425.48,291.34 L426.55,295.12 L427.62,294.38 L428.69,292.82 L429.76,295.54 L430.83,295.04 L431.91,296.23 L432.98,295.38 L434.05,295.46 L435.12,296.42 L436.19,295.61 L437.26,295.79 L438.33,294.81 L439.40,296.12 L440.47,295.69 L441.54,296.74 L442.61,294.99 L443.69,294.48 L444.76,296.69 L445.83,295.05 L446.90,296.42 L447.97,295.65 L449.04,299.92 L450.11,299.23 L451.18,297.08 L452.25,298.24 L453.32,299.22 L454.39,299.72 L455.46,300.38 L456.54,300.00 L457.61,299.62 L458.68,300.28 L459.75,300.78 L460.82,301.76 L461.89,302.92 L462.96,300.77 L464.03,300.08 L465.10,304.35 L466.17,303.58 L467.24,304.95 L468.31,303.31 L469.39,305.52 L470.46,305.01 L471.53,303.26 L472.60,304.31 L473.67,303.88 L474.74,305.19 L475.81,304.21 L476.88,304.39 L477.95,303.58 L479.02,304.54 L480.09,304.62 L481.17,303.77 L482.24,304.96 L483.31,304.46 L484.38,307.18 L485.45,305.62 L486.52,304.88 L487.59,308.66 L488.66,311.64 L489.73,299.36 L490.80,298.16 L491.87,298.62 L492.94,299.84 L494.02,301.66 L495.09,300.95 L496.16,300.76 L497.23,301.66 L498.30,300.58 L499.37,301.74 L500.44,304.47 L501.51,305.20 L502.58,304.67 L503.65,304.10 L504.72,305.66 L505.80,305.58 L506.87,304.05 L507.94,304.62 L509.01,304.20 L510.08,304.64 L511.15,303.55 L512.22,303.96 L513.29,303.43 L514.36,306.01 L515.43,306.14 L516.50,307.26 L517.57,308.21 L518.65,308.70 L519.72,308.22 L520.79,307.59 L521.86,309.53 L522.93,316.28 L524.00,318.33" fill="none" stroke="#e0e0e0" stroke-width="1.4"/>
<text x="387" y="238" fill="#666" font-family="monospace" font-size="9">07</text>
<rect x="532" y="224" width="152" height="152" fill="#0b0b0b" stroke="#444"/>
<line x1="540" y1="300.00" x2="676" y2="300.00" stroke="#292929"/>
<path d="M540.00,300.00 L541.07,278.74 L542.14,280.97 L543.21,288.97 L544.28,291.35 L545.35,290.98 L546.43,290.18 L547.50,291.00 L548.57,292.29 L549.64,293.68 L550.71,293.68 L551.78,296.76 L552.85,296.57 L553.92,297.06 L554.99,295.83 L556.06,296.31 L557.13,296.09 L558.20,296.62 L559.28,295.12 L560.35,295.17 L561.42,297.08 L562.49,296.43 L563.56,295.74 L564.63,296.42 L565.70,299.18 L566.77,300.61 L567.84,299.43 L568.91,300.33 L569.98,300.25 L571.06,299.09 L572.13,300.92 L573.20,301.66 L574.27,302.50 L575.34,301.75 L576.41,291.84 L577.48,294.43 L578.55,297.64 L579.62,296.85 L580.69,295.16 L581.76,297.87 L582.83,297.18 L583.91,298.28 L584.98,297.20 L586.05,296.98 L587.12,297.81 L588.19,296.81 L589.26,296.87 L590.33,295.77 L591.40,297.09 L592.47,296.54 L593.54,297.77 L594.61,295.89 L595.69,295.02 L596.76,297.31 L597.83,295.63 L598.90,297.07 L599.97,296.07 L601.04,300.52 L602.11,299.56 L603.18,297.07 L604.25,297.96 L605.32,298.72 L606.39,300.41 L607.46,300.72 L608.54,300.00 L609.61,299.28 L610.68,299.59 L611.75,301.28 L612.82,302.04 L613.89,302.93 L614.96,300.44 L616.03,299.48 L617.10,303.93 L618.17,302.93 L619.24,304.37 L620.31,302.69 L621.39,304.98 L622.46,304.11 L623.53,302.23 L624.60,303.46 L625.67,302.91 L626.74,304.23 L627.81,303.13 L628.88,303.19 L629.95,302.19 L631.02,303.02 L632.09,302.80 L633.17,301.72 L634.24,302.82 L635.31,302.13 L636.38,304.84 L637.45,303.15 L638.52,302.36 L639.59,305.57 L640.66,308.16 L641.73,298.25 L642.80,297.50 L643.87,298.34 L644.94,299.08 L646.02,300.91 L647.09,299.75 L648.16,299.67 L649.23,300.57 L650.30,299.39 L651.37,300.82 L652.44,303.58 L653.51,304.26 L654.58,303.57 L655.65,302.92 L656.72,304.83 L657.80,304.88 L658.87,303.38 L659.94,303.91 L661.01,303.69 L662.08,304.17 L663.15,302.94 L664.22,303.43 L665.29,303.24 L666.36,306.32 L667.43,306.32 L668.50,307.71 L669.57,309.00 L670.65,309.82 L671.72,309.02 L672.79,308.65 L673.86,311.03 L674.93,319.03 L676.00,321.26" fill="none" stroke="#e0e0e0" stroke-width="1.4"/>
<text x="539" y="238" fill="#666" font-family="monospace" font-size="9">08</text>
<rect x="76" y="376" width="152" height="152" fill="#0b0b0b" stroke="#444"/>
<line x1="84" y1="452.00" x2="220" y2="452.00" stroke="#292929"/>
<path d="M84.00,452.00 L85.07,451.58 L86.14,451.16 L87.21,450.74 L88.28,450.32 L89.35,449.91 L90.43,449.50 L91.50,449.10 L92.57,448.70 L93.64,448.31 L94.71,447.94 L95.78,447.57 L96.85,447.21 L97.92,446.86 L98.99,446.53 L100.06,446.21 L101.13,445.90 L102.20,445.61 L103.28,445.34 L104.35,445.08 L105.42,444.83 L106.49,444.61 L107.56,444.40 L108.63,444.21 L109.70,444.04 L110.77,443.88 L111.84,443.75 L112.91,443.64 L113.98,443.54 L115.06,443.47 L116.13,443.42 L117.20,443.39 L118.27,443.38 L119.34,443.39 L120.41,443.42 L121.48,443.47 L122.55,443.54 L123.62,443.64 L124.69,443.75 L125.76,443.88 L126.83,444.04 L127.91,444.21 L128.98,444.40 L130.05,444.61 L131.12,444.83 L132.19,445.08 L133.26,445.34 L134.33,445.61 L135.40,445.90 L136.47,446.21 L137.54,446.53 L138.61,446.86 L139.69,447.21 L140.76,447.57 L141.83,447.94 L142.90,448.31 L143.97,448.70 L145.04,449.10 L146.11,449.50 L147.18,449.91 L148.25,450.32 L149.32,450.74 L150.39,451.16 L151.46,451.58 L152.54,452.00 L153.61,452.42 L154.68,452.84 L155.75,453.26 L156.82,453.68 L157.89,454.09 L158.96,454.50 L160.03,454.90 L161.10,455.30 L162.17,455.69 L163.24,456.06 L164.31,456.43 L165.39,456.79 L166.46,457.14 L167.53,457.47 L168.60,457.79 L169.67,458.10 L170.74,458.39 L171.81,458.66 L172.88,458.92 L173.95,459.17 L175.02,459.39 L176.09,459.60 L177.17,459.79 L178.24,459.96 L179.31,460.12 L180.38,460.25 L181.45,460.36 L182.52,460.46 L183.59,460.53 L184.66,460.58 L185.73,460.61 L186.80,460.62 L187.87,460.61 L188.94,460.58 L190.02,460.53 L191.09,460.46 L192.16,460.36 L193.23,460.25 L194.30,460.12 L195.37,459.96 L196.44,459.79 L197.51,459.60 L198.58,459.39 L199.65,459.17 L200.72,458.92 L201.80,458.66 L202.87,458.39 L203.94,458.10 L205.01,457.79 L206.08,457.47 L207.15,457.14 L208.22,456.79 L209.29,456.43 L210.36,456.06 L211.43,455.69 L212.50,455.30 L213.57,454.90 L214.65,454.50 L215.72,454.09 L216.79,453.68 L217.86,453.26 L218.93,452.84 L220.00,452.42" fill="none" stroke="#e0e0e0" stroke-width="1.4"/>
<text x="83" y="390" fill="#666" font-family="monospace" font-size="9">09</text>
<rect x="228" y="376" width="152" height="152" fill="#0b0b0b" stroke="#444"/>
<line x1="236" y1="452.00" x2="372" y2="452.00" stroke="#292929"/>
<path d="M236.00,452.00 L237.07,448.99 L238.14,449.11 L239.21,449.05 L240.28,449.31 L241.35,449.41 L242.43,448.65 L243.50,448.54 L244.57,448.37 L245.64,448.20 L246.71,448.13 L247.78,447.48 L248.85,447.20 L249.92,447.01 L250.99,446.32 L252.06,446.39 L253.13,446.32 L254.20,446.37 L255.28,446.50 L256.35,445.83 L257.42,446.06 L258.49,446.26 L259.56,446.27 L260.63,446.53 L261.70,444.26 L262.77,441.71 L263.84,442.05 L264.91,442.27 L265.98,442.97 L267.06,443.46 L268.13,443.15 L269.20,443.31 L270.27,443.16 L271.34,443.21 L272.41,443.46 L273.48,443.29 L274.55,443.36 L275.62,443.69 L276.69,443.38 L277.76,443.96 L278.83,444.34 L279.91,444.83 L280.98,445.49 L282.05,445.25 L283.12,445.89 L284.19,446.28 L285.26,446.56 L286.33,447.12 L287.40,446.19 L288.47,444.83 L289.54,445.46 L290.61,445.93 L291.69,447.04 L292.76,448.05 L293.83,448.32 L294.90,448.89 L295.97,448.48 L297.04,448.44 L298.11,449.04 L299.18,449.31 L300.25,449.72 L301.32,450.46 L302.39,450.43 L303.46,451.32 L304.54,452.00 L305.61,452.68 L306.68,453.57 L307.75,453.54 L308.82,454.28 L309.89,454.69 L310.96,454.96 L312.03,455.56 L313.10,455.52 L314.17,455.11 L315.24,455.68 L316.31,455.95 L317.39,456.96 L318.46,458.07 L319.53,458.54 L320.60,459.17 L321.67,457.81 L322.74,456.88 L323.81,457.44 L324.88,457.72 L325.95,458.11 L327.02,458.75 L328.09,458.51 L329.17,459.17 L330.24,459.66 L331.31,460.04 L332.38,460.62 L333.45,460.31 L334.52,460.64 L335.59,460.71 L336.66,460.54 L337.73,460.79 L338.80,460.84 L339.87,460.69 L340.94,460.85 L342.02,460.54 L343.09,461.03 L344.16,461.73 L345.23,461.95 L346.30,462.29 L347.37,459.74 L348.44,457.47 L349.51,457.73 L350.58,457.74 L351.65,457.94 L352.72,458.17 L353.80,457.50 L354.87,457.63 L355.94,457.68 L357.01,457.61 L358.08,457.68 L359.15,456.99 L360.22,456.80 L361.29,456.52 L362.36,455.87 L363.43,455.80 L364.50,455.63 L365.57,455.46 L366.65,455.35 L367.72,454.59 L368.79,454.69 L369.86,454.95 L370.93,454.89 L372.00,455.01" fill="none" stroke="#e0e0e0" stroke-width="1.4"/>
<text x="235" y="390" fill="#666" font-family="monospace" font-size="9">10</text>
<rect x="380" y="376" width="152" height="152" fill="#0b0b0b" stroke="#444"/>
<line x1="388" y1="452.00" x2="524" y2="452.00" stroke="#292929"/>
<path d="M388.00,452.00 L389.07,438.38 L390.14,440.89 L391.21,443.49 L392.28,446.13 L393.35,446.75 L394.43,445.49 L395.50,445.94 L396.57,447.16 L397.64,447.37 L398.71,448.14 L399.78,447.40 L400.85,447.85 L401.92,447.83 L402.99,446.83 L404.06,447.39 L405.13,447.65 L406.20,448.82 L407.28,449.87 L408.35,448.99 L409.42,449.93 L410.49,450.96 L411.56,450.99 L412.63,452.36 L413.70,446.10 L414.77,437.93 L415.84,439.54 L416.91,441.32 L417.98,443.82 L419.06,444.64 L420.13,443.69 L421.20,443.61 L422.27,444.25 L423.34,445.23 L424.41,445.87 L425.48,445.53 L426.55,445.86 L427.62,445.83 L428.69,444.76 L429.76,445.75 L430.83,446.36 L431.91,446.96 L432.98,448.53 L434.05,447.65 L435.12,449.38 L436.19,448.44 L437.26,447.59 L438.33,447.40 L439.40,447.94 L440.47,446.37 L441.54,446.70 L442.61,446.68 L443.69,448.73 L444.76,450.36 L445.83,449.89 L446.90,449.65 L447.97,449.55 L449.04,451.02 L450.11,450.81 L451.18,450.61 L452.25,449.73 L453.32,450.95 L454.39,449.83 L455.46,451.45 L456.54,452.00 L457.61,452.55 L458.68,454.17 L459.75,453.05 L460.82,454.27 L461.89,453.39 L462.96,453.19 L464.03,452.98 L465.10,454.45 L466.17,454.35 L467.24,454.11 L468.31,453.64 L469.39,455.27 L470.46,457.32 L471.53,457.30 L472.60,457.63 L473.67,456.06 L474.74,456.60 L475.81,456.41 L476.88,455.56 L477.95,454.62 L479.02,456.35 L480.09,455.47 L481.17,457.04 L482.24,457.64 L483.31,458.25 L484.38,459.24 L485.45,458.17 L486.52,458.14 L487.59,458.47 L488.66,458.13 L489.73,458.77 L490.80,459.75 L491.87,460.39 L492.94,460.31 L494.02,459.36 L495.09,460.18 L496.16,462.68 L497.23,464.46 L498.30,466.07 L499.37,457.90 L500.44,451.64 L501.51,453.01 L502.58,453.04 L503.65,454.07 L504.72,455.01 L505.80,454.13 L506.87,455.18 L507.94,456.35 L509.01,456.61 L510.08,457.17 L511.15,456.17 L512.22,456.15 L513.29,456.60 L514.36,455.86 L515.43,456.63 L516.50,456.84 L517.57,458.06 L518.65,458.51 L519.72,457.25 L520.79,457.87 L521.86,460.51 L522.93,463.11 L524.00,465.62" fill="none" stroke="#e0e0e0" stroke-width="1.4"/>
<text x="387" y="390" fill="#666" font-family="monospace" font-size="9">11</text>
<rect x="532" y="376" width="152" height="152" fill="#0b0b0b" stroke="#444"/>
<line x1="540" y1="452.00" x2="676" y2="452.00" stroke="#292929"/>
<path d="M540.00,452.00 L541.07,433.43 L542.14,436.90 L543.21,441.04 L544.28,444.53 L545.35,445.38 L546.43,443.97 L547.50,444.61 L548.57,446.22 L549.64,446.39 L550.71,447.45 L551.78,446.78 L552.85,447.47 L553.92,447.60 L554.99,446.61 L556.06,447.17 L557.13,447.52 L558.20,449.06 L559.28,450.34 L560.35,449.66 L561.42,450.53 L562.49,451.85 L563.56,451.22 L564.63,452.84 L565.70,447.19 L566.77,439.01 L567.84,440.78 L568.91,442.77 L569.98,445.49 L571.06,446.15 L572.13,445.15 L573.20,445.04 L574.27,445.77 L575.34,446.94 L576.41,447.85 L577.48,447.48 L578.55,448.17 L579.62,447.68 L580.69,446.52 L581.76,447.47 L582.83,448.20 L583.91,448.61 L584.98,450.27 L586.05,449.29 L587.12,451.43 L588.19,449.79 L589.26,448.51 L590.33,447.81 L591.40,449.51 L592.47,448.89 L593.54,448.97 L594.61,448.43 L595.69,450.41 L596.76,452.22 L597.83,451.66 L598.90,451.07 L599.97,450.69 L601.04,452.16 L602.11,451.54 L603.18,451.41 L604.25,450.00 L605.32,451.36 L606.39,449.85 L607.46,451.63 L608.54,452.00 L609.61,452.37 L610.68,454.15 L611.75,452.64 L612.82,454.00 L613.89,452.59 L614.96,452.46 L616.03,451.84 L617.10,453.31 L618.17,452.93 L619.24,452.34 L620.31,451.78 L621.39,453.59 L622.46,455.57 L623.53,455.03 L624.60,455.11 L625.67,454.49 L626.74,456.19 L627.81,455.49 L628.88,454.21 L629.95,452.57 L631.02,454.71 L632.09,453.73 L633.17,455.39 L634.24,455.80 L635.31,456.53 L636.38,457.48 L637.45,456.32 L638.52,455.83 L639.59,456.52 L640.66,456.15 L641.73,457.06 L642.80,458.23 L643.87,458.96 L644.94,458.85 L646.02,457.85 L647.09,458.51 L648.16,461.23 L649.23,463.22 L650.30,464.99 L651.37,456.81 L652.44,451.16 L653.51,452.78 L654.58,452.15 L655.65,453.47 L656.72,454.34 L657.80,453.66 L658.87,454.94 L659.94,456.48 L661.01,456.83 L662.08,457.39 L663.15,456.40 L664.22,456.53 L665.29,457.22 L666.36,456.55 L667.43,457.61 L668.50,457.78 L669.57,459.39 L670.65,460.03 L671.72,458.62 L672.79,459.47 L673.86,462.96 L674.93,467.10 L676.00,470.57" fill="none" stroke="#e0e0e0" stroke-width="1.4"/>
<text x="539" y="390" fill="#666" font-family="monospace" font-size="9">12</text>
<rect x="76" y="528" width="152" height="152" fill="#0b0b0b" stroke="#444"/>
<line x1="84" y1="604.00" x2="220" y2="604.00" stroke="#292929"/>
<path d="M84.00,604.00 L85.07,603.58 L86.14,603.16 L87.21,602.74 L88.28,602.32 L89.35,601.91 L90.43,601.50 L91.50,601.10 L92.57,600.70 L93.64,600.31 L94.71,599.94 L95.78,599.57 L96.85,599.21 L97.92,598.86 L98.99,598.53 L100.06,598.21 L101.13,597.90 L102.20,597.61 L103.28,597.34 L104.35,597.08 L105.42,596.83 L106.49,596.61 L107.56,596.40 L108.63,596.21 L109.70,596.04 L110.77,595.88 L111.84,595.75 L112.91,595.64 L113.98,595.54 L115.06,595.47 L116.13,595.42 L117.20,595.39 L118.27,595.38 L119.34,595.39 L120.41,595.42 L121.48,595.47 L122.55,595.54 L123.62,595.64 L124.69,595.75 L125.76,595.88 L126.83,596.04 L127.91,596.21 L128.98,596.40 L130.05,596.61 L131.12,596.83 L132.19,597.08 L133.26,597.34 L134.33,597.61 L135.40,597.90 L136.47,598.21 L137.54,598.53 L138.61,598.86 L139.69,599.21 L140.76,599.57 L141.83,599.94 L142.90,600.31 L143.97,600.70 L145.04,601.10 L146.11,601.50 L147.18,601.91 L148.25,602.32 L149.32,602.74 L150.39,603.16 L151.46,603.58 L152.54,604.00 L153.61,604.42 L154.68,604.84 L155.75,605.26 L156.82,605.68 L157.89,606.09 L158.96,606.50 L160.03,606.90 L161.10,607.30 L162.17,607.69 L163.24,608.06 L164.31,608.43 L165.39,608.79 L166.46,609.14 L167.53,609.47 L168.60,609.79 L169.67,610.10 L170.74,610.39 L171.81,610.66 L172.88,610.92 L173.95,611.17 L175.02,611.39 L176.09,611.60 L177.17,611.79 L178.24,611.96 L179.31,612.12 L180.38,612.25 L181.45,612.36 L182.52,612.46 L183.59,612.53 L184.66,612.58 L185.73,612.61 L186.80,612.62 L187.87,612.61 L188.94,612.58 L190.02,612.53 L191.09,612.46 L192.16,612.36 L193.23,612.25 L194.30,612.12 L195.37,611.96 L196.44,611.79 L197.51,611.60 L198.58,611.39 L199.65,611.17 L200.72,610.92 L201.80,610.66 L202.87,610.39 L203.94,610.10 L205.01,609.79 L206.08,609.47 L207.15,609.14 L208.22,608.79 L209.29,608.43 L210.36,608.06 L211.43,607.69 L212.50,607.30 L213.57,606.90 L214.65,606.50 L215.72,606.09 L216.79,605.68 L217.86,605.26 L218.93,604.84 L220.00,604.42" fill="none" stroke="#e0e0e0" stroke-width="1.4"/>
<text x="83" y="542" fill="#666" font-family="monospace" font-size="9">13</text>
<rect x="228" y="528" width="152" height="152" fill="#0b0b0b" stroke="#444"/>
<line x1="236" y1="604.00" x2="372" y2="604.00" stroke="#292929"/>
<path d="M236.00,604.00 L237.07,601.97 L238.14,601.88 L239.21,601.77 L240.28,601.53 L241.35,601.44 L242.43,600.95 L243.50,600.77 L244.57,600.58 L245.64,600.45 L246.71,599.86 L247.78,599.81 L248.85,599.67 L249.92,599.51 L250.99,599.28 L252.06,599.10 L253.13,598.79 L254.20,598.78 L255.28,599.03 L256.35,596.09 L257.42,595.53 L258.49,595.51 L259.56,595.54 L260.63,595.59 L261.70,595.82 L262.77,595.50 L263.84,595.56 L264.91,595.61 L265.98,595.70 L267.06,595.49 L268.13,595.74 L269.20,595.95 L270.27,596.07 L271.34,596.37 L272.41,596.21 L273.48,596.10 L274.55,596.32 L275.62,596.93 L276.69,594.29 L277.76,594.84 L278.83,595.20 L279.91,595.57 L280.98,595.96 L282.05,596.53 L283.12,596.62 L284.19,596.99 L285.26,597.37 L286.33,597.73 L287.40,598.04 L288.47,598.58 L289.54,599.14 L290.61,599.62 L291.69,600.39 L292.76,599.89 L293.83,600.18 L294.90,600.56 L295.97,601.19 L297.04,599.69 L298.11,600.63 L299.18,601.23 L300.25,601.86 L301.32,602.46 L302.39,603.08 L303.46,603.48 L304.54,604.00 L305.61,604.52 L306.68,604.92 L307.75,605.54 L308.82,606.14 L309.89,606.77 L310.96,607.37 L312.03,608.31 L313.10,606.81 L314.17,607.44 L315.24,607.82 L316.31,608.11 L317.39,607.61 L318.46,608.38 L319.53,608.86 L320.60,609.42 L321.67,609.96 L322.74,610.27 L323.81,610.63 L324.88,611.01 L325.95,611.38 L327.02,611.47 L328.09,612.04 L329.17,612.43 L330.24,612.80 L331.31,613.16 L332.38,613.71 L333.45,611.07 L334.52,611.68 L335.59,611.90 L336.66,611.79 L337.73,611.63 L338.80,611.93 L339.87,612.05 L340.94,612.26 L342.02,612.51 L343.09,612.30 L344.16,612.39 L345.23,612.44 L346.30,612.50 L347.37,612.18 L348.44,612.41 L349.51,612.46 L350.58,612.49 L351.65,612.47 L352.72,611.91 L353.80,608.97 L354.87,609.22 L355.94,609.21 L357.01,608.90 L358.08,608.72 L359.15,608.49 L360.22,608.33 L361.29,608.19 L362.36,608.14 L363.43,607.55 L364.50,607.42 L365.57,607.23 L366.65,607.05 L367.72,606.56 L368.79,606.47 L369.86,606.23 L370.93,606.12 L372.00,606.03" fill="none" stroke="#e0e0e0" stroke-width="1.4"/>
<text x="235" y="542" fill="#666" font-family="monospace" font-size="9">14</text>
<rect x="380" y="528" width="152" height="152" fill="#0b0b0b" stroke="#444"/>
<line x1="388" y1="604.00" x2="524" y2="604.00" stroke="#292929"/>
<path d="M388.00,604.00 L389.07,594.64 L390.14,595.92 L391.21,597.51 L392.28,598.68 L393.35,599.62 L394.43,599.01 L395.50,599.51 L396.57,600.03 L397.64,600.63 L398.71,599.70 L399.78,600.68 L400.85,601.12 L401.92,601.40 L402.99,601.42 L404.06,602.00 L405.13,602.10 L406.20,602.92 L407.28,604.87 L408.35,593.24 L409.42,592.02 L410.49,592.63 L411.56,593.69 L412.63,594.69 L413.70,595.71 L414.77,595.02 L415.84,595.69 L416.91,596.10 L417.98,596.36 L419.06,595.97 L420.13,596.98 L421.20,597.74 L422.27,597.77 L423.34,598.17 L424.41,598.57 L425.48,597.75 L426.55,597.80 L427.62,598.48 L428.69,594.11 L429.76,594.83 L430.83,596.02 L431.91,596.72 L432.98,597.13 L434.05,597.75 L435.12,597.55 L436.19,598.33 L437.26,598.25 L438.33,598.31 L439.40,598.60 L440.47,599.39 L441.54,600.38 L442.61,600.59 L443.69,601.05 L444.76,601.74 L445.83,600.88 L446.90,600.78 L447.97,600.42 L449.04,600.62 L450.11,600.94 L451.18,601.92 L452.25,602.80 L453.32,603.32 L454.39,603.77 L455.46,603.79 L456.54,604.00 L457.61,604.21 L458.68,604.23 L459.75,604.68 L460.82,605.20 L461.89,606.08 L462.96,607.06 L464.03,607.38 L465.10,607.58 L466.17,607.22 L467.24,607.12 L468.31,606.26 L469.39,606.95 L470.46,607.41 L471.53,607.62 L472.60,608.61 L473.67,609.40 L474.74,609.69 L475.81,609.75 L476.88,609.67 L477.95,610.45 L479.02,610.25 L480.09,610.87 L481.17,611.28 L482.24,611.98 L483.31,613.17 L484.38,613.89 L485.45,609.52 L486.52,610.20 L487.59,610.25 L488.66,609.43 L489.73,609.83 L490.80,610.23 L491.87,610.26 L492.94,611.02 L494.02,612.03 L495.09,611.64 L496.16,611.90 L497.23,612.31 L498.30,612.98 L499.37,612.29 L500.44,613.31 L501.51,614.31 L502.58,615.37 L503.65,615.98 L504.72,614.76 L505.80,603.13 L506.87,605.08 L507.94,605.90 L509.01,606.00 L510.08,606.58 L511.15,606.60 L512.22,606.88 L513.29,607.32 L514.36,608.30 L515.43,607.37 L516.50,607.97 L517.57,608.49 L518.65,608.99 L519.72,608.38 L520.79,609.32 L521.86,610.49 L522.93,612.08 L524.00,613.36" fill="none" stroke="#e0e0e0" stroke-width="1.4"/>
<text x="387" y="542" fill="#666" font-family="monospace" font-size="9">15</text>
<rect x="532" y="528" width="152" height="152" fill="#0b0b0b" stroke="#444"/>
<line x1="540" y1="604.00" x2="676" y2="604.00" stroke="#292929"/>
<path d="M540.00,604.00 L541.07,589.87 L542.14,591.99 L543.21,594.68 L544.28,596.91 L545.35,598.34 L546.43,597.72 L547.50,598.53 L548.57,599.32 L549.64,600.32 L550.71,599.20 L551.78,600.65 L552.85,601.33 L553.92,601.78 L554.99,601.94 L556.06,602.89 L557.13,603.11 L558.20,604.06 L559.28,606.54 L560.35,592.38 L561.42,591.27 L562.49,592.02 L563.56,593.41 L564.63,594.79 L565.70,596.01 L566.77,595.27 L567.84,596.18 L568.91,596.81 L569.98,597.17 L571.06,596.73 L572.13,597.99 L573.20,599.02 L574.27,599.04 L575.34,599.24 L576.41,599.62 L577.48,598.19 L578.55,598.08 L579.62,598.17 L580.69,596.31 L581.76,596.58 L582.83,598.10 L583.91,598.82 L584.98,598.95 L586.05,599.27 L587.12,598.99 L588.19,600.22 L589.26,599.72 L590.33,599.47 L591.40,599.95 L592.47,600.68 L593.54,601.85 L594.61,601.77 L595.69,602.04 L596.76,602.91 L597.83,601.49 L598.90,601.17 L599.97,600.48 L601.04,601.56 L602.11,601.57 L603.18,602.71 L604.25,603.58 L605.32,604.05 L606.39,604.32 L607.46,604.10 L608.54,604.00 L609.61,603.90 L610.68,603.68 L611.75,603.95 L612.82,604.42 L613.89,605.29 L614.96,606.43 L616.03,606.44 L617.10,607.52 L618.17,606.83 L619.24,606.51 L620.31,605.09 L621.39,605.96 L622.46,606.23 L623.53,606.15 L624.60,607.32 L625.67,608.05 L626.74,608.53 L627.81,608.28 L628.88,607.78 L629.95,609.01 L631.02,608.73 L632.09,609.05 L633.17,609.18 L634.24,609.90 L635.31,611.42 L636.38,611.69 L637.45,609.83 L638.52,609.92 L639.59,609.81 L640.66,608.38 L641.73,608.76 L642.80,608.96 L643.87,608.98 L644.94,610.01 L646.02,611.27 L647.09,610.83 L648.16,611.19 L649.23,611.82 L650.30,612.73 L651.37,611.99 L652.44,613.21 L653.51,614.59 L654.58,615.98 L655.65,616.73 L656.72,615.62 L657.80,601.46 L658.87,603.94 L659.94,604.89 L661.01,605.11 L662.08,606.06 L663.15,606.22 L664.22,606.67 L665.29,607.35 L666.36,608.80 L667.43,607.68 L668.50,608.68 L669.57,609.47 L670.65,610.28 L671.72,609.66 L672.79,611.09 L673.86,613.32 L674.93,616.01 L676.00,618.13" fill="none" stroke="#e0e0e0" stroke-width="1.4"/>
<text x="539" y="542" fill="#666" font-family="monospace" font-size="9">16</text>
</svg>
