<svg xmlns="http://www.w3.org/2000/svg" width="760" height="760" viewBox="0 0 760 760">
<rect width="760" height="760" fill="#161616"/>
<text x="24" y="32" fill="#dedede" font-family="monospace" font-size="15">S3G VOT / HARMONIC MIRAGE</text>
<text x="684" y="724" text-anchor="end" fill="#858585" font-family="monospace" font-size="11">U / CONSONANCE TO CLUSTER</text>
<text x="24" y="72" fill="#858585" font-family="monospace" font-size="11">V / REGISTRATION AND INVERSION</text>
<text x="76" y="724" fill="#858585" font-family="monospace" font-size="11">ENERGY / LEVEL MATCHED</text>
<rect x="76" y="72" width="152" height="152" fill="#0b0b0b" stroke="#444"/>
<line x1="84" y1="148.00" x2="220" y2="148.00" stroke="#292929"/>
<path d="M84.00,148.00 L85.07,136.88 L86.14,127.19 L87.21,120.07 L88.28,116.15 L89.35,115.42 L90.43,117.38 L91.50,121.17 L92.57,125.87 L93.64,130.72 L94.71,135.27 L95.78,139.43 L96.85,143.38 L97.92,147.37 L98.99,151.60 L100.06,156.01 L101.13,160.31 L102.20,163.99 L103.28,166.51 L104.35,167.42 L105.42,166.55 L106.49,164.03 L107.56,160.29 L108.63,155.93 L109.70,151.57 L110.77,147.67 L111.84,144.48 L112.91,142.02 L113.98,140.14 L115.06,138.64 L116.13,137.37 L117.20,136.36 L118.27,135.72 L119.34,135.68 L120.41,136.41 L121.48,137.94 L122.55,140.12 L123.62,142.59 L124.69,144.89 L125.76,146.59 L126.83,147.41 L127.91,147.33 L128.98,146.57 L130.05,145.52 L131.12,144.64 L132.19,144.26 L133.26,144.50 L134.33,145.22 L135.40,146.11 L136.47,146.80 L137.54,146.99 L138.61,146.67 L139.69,146.06 L140.76,145.64 L141.83,145.95 L142.90,147.40 L143.97,150.10 L145.04,153.74 L146.11,157.64 L147.18,160.88 L148.25,162.56 L149.32,162.01 L150.39,159.07 L151.46,154.11 L152.54,148.00 L153.61,141.89 L154.68,136.93 L155.75,133.99 L156.82,133.44 L157.89,135.12 L158.96,138.36 L160.03,142.26 L161.10,145.90 L162.17,148.60 L163.24,150.05 L164.31,150.36 L165.39,149.94 L166.46,149.33 L167.53,149.01 L168.60,149.20 L169.67,149.89 L170.74,150.78 L171.81,151.50 L172.88,151.74 L173.95,151.36 L175.02,150.48 L176.09,149.43 L177.17,148.67 L178.24,148.59 L179.31,149.41 L180.38,151.11 L181.45,153.41 L182.52,155.88 L183.59,158.06 L184.66,159.59 L185.73,160.32 L186.80,160.28 L187.87,159.64 L188.94,158.63 L190.02,157.36 L191.09,155.86 L192.16,153.98 L193.23,151.52 L194.30,148.33 L195.37,144.43 L196.44,140.07 L197.51,135.71 L198.58,131.97 L199.65,129.45 L200.72,128.58 L201.80,129.49 L202.87,132.01 L203.94,135.69 L205.01,139.99 L206.08,144.40 L207.15,148.63 L208.22,152.62 L209.29,156.57 L210.36,160.73 L211.43,165.28 L212.50,170.13 L213.57,174.83 L214.65,178.62 L215.72,180.58 L216.79,179.85 L217.86,175.93 L218.93,168.81 L220.00,159.12" fill="none" stroke="#e0e0e0" stroke-width="1.4"/>
<text x="83" y="86" fill="#666" font-family="monospace" font-size="9">01</text>
<rect x="228" y="72" width="152" height="152" fill="#0b0b0b" stroke="#444"/>
<line x1="236" y1="148.00" x2="372" y2="148.00" stroke="#292929"/>
<path d="M236.00,148.00 L237.07,130.95 L238.14,117.68 L239.21,110.26 L240.28,108.53 L241.35,110.96 L242.43,115.92 L243.50,122.39 L244.57,129.68 L245.64,136.92 L246.71,143.07 L247.78,147.45 L248.85,150.17 L249.92,152.04 L250.99,153.79 L252.06,155.64 L253.13,157.33 L254.20,158.66 L255.28,159.68 L256.35,160.49 L257.42,160.75 L258.49,159.74 L259.56,157.00 L260.63,152.98 L261.70,148.94 L262.77,146.09 L263.84,144.72 L264.91,144.05 L265.98,143.11 L267.06,141.60 L268.13,140.07 L269.20,139.17 L270.27,138.89 L271.34,138.55 L272.41,137.62 L273.48,136.42 L274.55,136.05 L275.62,137.43 L276.69,140.38 L277.76,143.71 L278.83,146.13 L279.91,147.19 L280.98,147.33 L282.05,147.23 L283.12,147.05 L284.19,146.48 L285.26,145.30 L286.33,143.88 L287.40,143.00 L288.47,143.20 L289.54,144.36 L290.61,145.91 L291.69,147.41 L292.76,148.83 L293.83,150.33 L294.90,151.77 L295.97,152.76 L297.04,153.12 L298.11,153.27 L299.18,153.93 L300.25,155.32 L301.32,156.56 L302.39,156.11 L303.46,153.05 L304.54,148.00 L305.61,142.95 L306.68,139.89 L307.75,139.44 L308.82,140.68 L309.89,142.07 L310.96,142.73 L312.03,142.88 L313.10,143.24 L314.17,144.23 L315.24,145.67 L316.31,147.17 L317.39,148.59 L318.46,150.09 L319.53,151.64 L320.60,152.80 L321.67,153.00 L322.74,152.12 L323.81,150.70 L324.88,149.52 L325.95,148.95 L327.02,148.77 L328.09,148.67 L329.17,148.81 L330.24,149.87 L331.31,152.29 L332.38,155.62 L333.45,158.57 L334.52,159.95 L335.59,159.58 L336.66,158.38 L337.73,157.45 L338.80,157.11 L339.87,156.83 L340.94,155.93 L342.02,154.40 L343.09,152.89 L344.16,151.95 L345.23,151.28 L346.30,149.91 L347.37,147.06 L348.44,143.02 L349.51,139.00 L350.58,136.26 L351.65,135.25 L352.72,135.51 L353.80,136.32 L354.87,137.34 L355.94,138.67 L357.01,140.36 L358.08,142.21 L359.15,143.96 L360.22,145.83 L361.29,148.55 L362.36,152.93 L363.43,159.08 L364.50,166.32 L365.57,173.61 L366.65,180.08 L367.72,185.04 L368.79,187.47 L369.86,185.74 L370.93,178.32 L372.00,165.05" fill="none" stroke="#e0e0e0" stroke-width="1.4"/>
<text x="235" y="86" fill="#666" font-family="monospace" font-size="9">02</text>
<rect x="380" y="72" width="152" height="152" fill="#0b0b0b" stroke="#444"/>
<line x1="388" y1="148.00" x2="524" y2="148.00" stroke="#292929"/>
<path d="M388.00,148.00 L389.07,125.53 L390.14,110.31 L391.21,105.55 L392.28,109.45 L393.35,117.74 L394.43,127.11 L395.50,136.60 L396.57,146.32 L397.64,155.59 L398.71,162.51 L399.78,165.40 L400.85,164.21 L401.92,160.53 L402.99,156.03 L404.06,151.39 L405.13,146.58 L406.20,142.10 L407.28,139.37 L408.35,139.58 L409.42,142.22 L410.49,144.99 L411.56,145.69 L412.63,144.22 L413.70,142.71 L414.77,143.47 L415.84,146.72 L416.91,150.30 L417.98,151.85 L419.06,151.01 L420.13,149.57 L421.20,149.34 L422.27,149.98 L423.34,149.15 L424.41,144.95 L425.48,138.25 L426.55,132.43 L427.62,130.77 L428.69,133.83 L429.76,139.27 L430.83,144.14 L431.91,147.25 L432.98,149.33 L434.05,151.34 L435.12,152.80 L436.19,152.07 L437.26,148.28 L438.33,142.76 L439.40,138.36 L440.47,137.41 L441.54,140.18 L442.61,145.18 L443.69,150.65 L444.76,155.50 L445.83,158.94 L446.90,159.72 L447.97,156.51 L449.04,149.46 L450.11,141.25 L451.18,135.92 L452.25,136.07 L453.32,140.68 L454.39,145.94 L455.46,148.43 L456.54,148.00 L457.61,147.57 L458.68,150.06 L459.75,155.32 L460.82,159.93 L461.89,160.08 L462.96,154.75 L464.03,146.54 L465.10,139.49 L466.17,136.28 L467.24,137.06 L468.31,140.50 L469.39,145.35 L470.46,150.82 L471.53,155.82 L472.60,158.59 L473.67,157.64 L474.74,153.24 L475.81,147.72 L476.88,143.93 L477.95,143.20 L479.02,144.66 L480.09,146.67 L481.17,148.75 L482.24,151.86 L483.31,156.73 L484.38,162.17 L485.45,165.23 L486.52,163.57 L487.59,157.75 L488.66,151.05 L489.73,146.85 L490.80,146.02 L491.87,146.66 L492.94,146.43 L494.02,144.99 L495.09,144.15 L496.16,145.70 L497.23,149.28 L498.30,152.53 L499.37,153.29 L500.44,151.78 L501.51,150.31 L502.58,151.01 L503.65,153.78 L504.72,156.42 L505.80,156.63 L506.87,153.90 L507.94,149.42 L509.01,144.61 L510.08,139.97 L511.15,135.47 L512.22,131.79 L513.29,130.60 L514.36,133.49 L515.43,140.41 L516.50,149.68 L517.57,159.40 L518.65,168.89 L519.72,178.26 L520.79,186.55 L521.86,190.45 L522.93,185.69 L524.00,170.47" fill="none" stroke="#e0e0e0" stroke-width="1.4"/>
<text x="387" y="86" fill="#666" font-family="monospace" font-size="9">03</text>
<rect x="532" y="72" width="152" height="152" fill="#0b0b0b" stroke="#444"/>
<line x1="540" y1="148.00" x2="676" y2="148.00" stroke="#292929"/>
<path d="M540.00,148.00 L541.07,127.38 L542.14,114.13 L543.21,111.36 L544.28,116.89 L545.35,126.11 L546.43,135.60 L547.50,144.61 L548.57,153.57 L549.64,161.99 L550.71,167.97 L551.78,169.70 L552.85,167.10 L553.92,161.77 L554.99,155.50 L556.06,149.00 L557.13,142.35 L558.20,136.27 L559.28,132.48 L560.35,132.40 L561.42,135.55 L562.49,139.39 L563.56,141.39 L564.63,141.25 L565.70,141.08 L566.77,143.21 L567.84,147.78 L568.91,152.49 L569.98,154.80 L571.06,154.38 L572.13,153.25 L573.20,153.34 L574.27,154.25 L575.34,153.36 L576.41,148.57 L577.48,140.80 L578.55,133.77 L579.62,131.15 L580.69,133.69 L581.76,139.01 L582.83,144.02 L583.91,147.41 L584.98,149.92 L586.05,152.45 L587.12,154.32 L588.19,153.65 L589.26,149.48 L590.33,143.25 L591.40,138.19 L592.47,136.94 L593.54,139.87 L594.61,145.39 L595.69,151.51 L596.76,156.91 L597.83,160.53 L598.90,160.89 L599.97,156.51 L601.04,147.67 L602.11,137.47 L603.18,130.62 L604.25,130.22 L605.32,135.40 L606.39,142.08 L607.46,146.43 L608.54,148.00 L609.61,149.57 L610.68,153.92 L611.75,160.60 L612.82,165.78 L613.89,165.38 L614.96,158.53 L616.03,148.33 L617.10,139.49 L618.17,135.11 L619.24,135.47 L620.31,139.09 L621.39,144.49 L622.46,150.61 L623.53,156.13 L624.60,159.06 L625.67,157.81 L626.74,152.75 L627.81,146.52 L628.88,142.35 L629.95,141.68 L631.02,143.55 L632.09,146.08 L633.17,148.59 L634.24,151.98 L635.31,156.99 L636.38,162.31 L637.45,164.85 L638.52,162.23 L639.59,155.20 L640.66,147.43 L641.73,142.64 L642.80,141.75 L643.87,142.66 L644.94,142.75 L646.02,141.62 L647.09,141.20 L648.16,143.51 L649.23,148.22 L650.30,152.79 L651.37,154.92 L652.44,154.75 L653.51,154.61 L654.58,156.61 L655.65,160.45 L656.72,163.60 L657.80,163.52 L658.87,159.73 L659.94,153.65 L661.01,147.00 L662.08,140.50 L663.15,134.23 L664.22,128.90 L665.29,126.30 L666.36,128.03 L667.43,134.01 L668.50,142.43 L669.57,151.39 L670.65,160.40 L671.72,169.89 L672.79,179.11 L673.86,184.64 L674.93,181.87 L676.00,168.62" fill="none" stroke="#e0e0e0" stroke-width="1.4"/>
<text x="539" y="86" fill="#666" font-family="monospace" font-size="9">04</text>
<rect x="76" y="224" width="152" height="152" fill="#0b0b0b" stroke="#444"/>
<line x1="84" y1="300.00" x2="220" y2="300.00" stroke="#292929"/>
<path d="M84.00,300.00 L85.07,286.15 L86.14,275.20 L87.21,269.05 L88.28,268.00 L89.35,270.96 L90.43,276.17 L91.50,282.02 L92.57,287.69 L93.64,293.14 L94.71,298.63 L95.78,304.22 L96.85,309.42 L97.92,313.31 L98.99,315.10 L100.06,314.57 L101.13,312.31 L102.20,309.43 L103.28,307.00 L104.35,305.48 L105.42,304.50 L106.49,303.23 L107.56,300.93 L108.63,297.51 L109.70,293.74 L110.77,290.82 L111.84,289.69 L112.91,290.48 L113.98,292.29 L115.06,293.66 L116.13,293.36 L117.20,291.08 L118.27,287.72 L119.34,284.95 L120.41,284.42 L121.48,286.92 L122.55,291.98 L123.62,298.14 L124.69,303.68 L125.76,307.44 L126.83,309.24 L127.91,309.75 L128.98,309.93 L130.05,310.32 L131.12,310.68 L132.19,310.20 L133.26,308.01 L134.33,303.79 L135.40,298.11 L136.47,292.23 L137.54,287.49 L138.61,284.72 L139.69,284.02 L140.76,284.85 L141.83,286.59 L142.90,288.98 L143.97,292.27 L145.04,296.89 L146.11,302.85 L147.18,309.34 L148.25,314.70 L149.32,317.04 L150.39,315.05 L151.46,308.84 L152.54,300.00 L153.61,291.16 L154.68,284.95 L155.75,282.96 L156.82,285.30 L157.89,290.66 L158.96,297.15 L160.03,303.11 L161.10,307.73 L162.17,311.02 L163.24,313.41 L164.31,315.15 L165.39,315.98 L166.46,315.28 L167.53,312.51 L168.60,307.77 L169.67,301.89 L170.74,296.21 L171.81,291.99 L172.88,289.80 L173.95,289.32 L175.02,289.68 L176.09,290.07 L177.17,290.25 L178.24,290.76 L179.31,292.56 L180.38,296.32 L181.45,301.86 L182.52,308.02 L183.59,313.08 L184.66,315.58 L185.73,315.05 L186.80,312.28 L187.87,308.92 L188.94,306.64 L190.02,306.34 L191.09,307.71 L192.16,309.52 L193.23,310.31 L194.30,309.18 L195.37,306.26 L196.44,302.49 L197.51,299.07 L198.58,296.77 L199.65,295.50 L200.72,294.52 L201.80,293.00 L202.87,290.57 L203.94,287.69 L205.01,285.43 L206.08,284.90 L207.15,286.69 L208.22,290.58 L209.29,295.78 L210.36,301.37 L211.43,306.86 L212.50,312.31 L213.57,317.98 L214.65,323.83 L215.72,329.04 L216.79,332.00 L217.86,330.95 L218.93,324.80 L220.00,313.85" fill="none" stroke="#e0e0e0" stroke-width="1.4"/>
<text x="83" y="238" fill="#666" font-family="monospace" font-size="9">05</text>
<rect x="228" y="224" width="152" height="152" fill="#0b0b0b" stroke="#444"/>
<line x1="236" y1="300.00" x2="372" y2="300.00" stroke="#292929"/>
<path d="M236.00,300.00 L237.07,279.15 L238.14,265.11 L239.21,260.47 L240.28,263.24 L241.35,269.93 L242.43,278.25 L243.50,287.22 L244.57,295.73 L245.64,302.35 L246.71,306.32 L247.78,308.19 L248.85,308.87 L249.92,308.67 L250.99,307.54 L252.06,306.00 L253.13,305.06 L254.20,305.19 L255.28,305.66 L256.35,305.57 L257.42,304.83 L258.49,303.92 L259.56,302.66 L260.63,300.17 L261.70,296.26 L262.77,292.44 L263.84,290.68 L264.91,291.17 L265.98,291.96 L267.06,291.03 L268.13,288.46 L269.20,286.05 L270.27,285.14 L271.34,285.64 L272.41,287.10 L273.48,289.96 L274.55,294.86 L275.62,300.90 L276.69,305.57 L277.76,307.01 L278.83,305.92 L279.91,304.81 L280.98,305.45 L282.05,307.40 L283.12,309.04 L284.19,309.26 L285.26,307.83 L286.33,304.58 L287.40,299.27 L288.47,292.48 L289.54,286.18 L290.61,282.51 L291.69,282.30 L292.76,284.80 L293.83,288.84 L294.90,293.58 L295.97,298.22 L297.04,301.74 L298.11,303.66 L299.18,304.93 L300.25,307.06 L301.32,309.87 L302.39,310.83 L303.46,307.36 L304.54,300.00 L305.61,292.64 L306.68,289.17 L307.75,290.13 L308.82,292.94 L309.89,295.07 L310.96,296.34 L312.03,298.26 L313.10,301.78 L314.17,306.42 L315.24,311.16 L316.31,315.20 L317.39,317.70 L318.46,317.49 L319.53,313.82 L320.60,307.52 L321.67,300.73 L322.74,295.42 L323.81,292.17 L324.88,290.74 L325.95,290.96 L327.02,292.60 L328.09,294.55 L329.17,295.19 L330.24,294.08 L331.31,292.99 L332.38,294.43 L333.45,299.10 L334.52,305.14 L335.59,310.04 L336.66,312.90 L337.73,314.36 L338.80,314.86 L339.87,313.95 L340.94,311.54 L342.02,308.97 L343.09,308.04 L344.16,308.83 L345.23,309.32 L346.30,307.56 L347.37,303.74 L348.44,299.83 L349.51,297.34 L350.58,296.08 L351.65,295.17 L352.72,294.43 L353.80,294.34 L354.87,294.81 L355.94,294.94 L357.01,294.00 L358.08,292.46 L359.15,291.33 L360.22,291.13 L361.29,291.81 L362.36,293.68 L363.43,297.65 L364.50,304.27 L365.57,312.78 L366.65,321.75 L367.72,330.07 L368.79,336.76 L369.86,339.53 L370.93,334.89 L372.00,320.85" fill="none" stroke="#e0e0e0" stroke-width="1.4"/>
<text x="235" y="238" fill="#666" font-family="monospace" font-size="9">06</text>
<rect x="380" y="224" width="152" height="152" fill="#0b0b0b" stroke="#444"/>
<line x1="388" y1="300.00" x2="524" y2="300.00" stroke="#292929"/>
<path d="M388.00,300.00 L389.07,273.07 L390.14,258.50 L391.21,259.29 L392.28,269.25 L393.35,281.14 L394.43,292.62 L395.50,304.44 L396.57,315.40 L397.64,321.62 L398.71,320.46 L399.78,313.26 L400.85,303.67 L401.92,294.51 L402.99,287.45 L404.06,284.37 L405.13,286.80 L406.20,293.49 L407.28,300.17 L408.35,303.28 L409.42,303.40 L410.49,303.68 L411.56,305.30 L412.63,305.96 L413.70,303.50 L414.77,299.42 L415.84,297.04 L416.91,296.66 L417.98,294.84 L419.06,289.25 L420.13,282.83 L421.20,281.19 L422.27,286.12 L423.34,293.62 L424.41,298.82 L425.48,301.20 L426.55,303.54 L427.62,306.58 L428.69,307.24 L429.76,302.92 L430.83,295.93 L431.91,291.74 L432.98,293.11 L434.05,297.64 L435.12,301.34 L436.19,303.01 L437.26,303.92 L438.33,304.28 L439.40,302.14 L440.47,296.42 L441.54,289.50 L442.61,285.47 L443.69,286.44 L444.76,291.53 L445.83,298.83 L446.90,306.62 L447.97,312.16 L449.04,311.67 L450.11,303.80 L451.18,292.99 L452.25,287.01 L453.32,289.62 L454.39,296.64 L455.46,300.78 L456.54,300.00 L457.61,299.22 L458.68,303.36 L459.75,310.38 L460.82,312.99 L461.89,307.01 L462.96,296.20 L464.03,288.33 L465.10,287.84 L466.17,293.38 L467.24,301.17 L468.31,308.47 L469.39,313.56 L470.46,314.53 L471.53,310.50 L472.60,303.58 L473.67,297.86 L474.74,295.72 L475.81,296.08 L476.88,296.99 L477.95,298.66 L479.02,302.36 L480.09,306.89 L481.17,308.26 L482.24,304.07 L483.31,297.08 L484.38,292.76 L485.45,293.42 L486.52,296.46 L487.59,298.80 L488.66,301.18 L489.73,306.38 L490.80,313.88 L491.87,318.81 L492.94,317.17 L494.02,310.75 L495.09,305.16 L496.16,303.34 L497.23,302.96 L498.30,300.58 L499.37,296.50 L500.44,294.04 L501.51,294.70 L502.58,296.32 L503.65,296.60 L504.72,296.72 L505.80,299.83 L506.87,306.51 L507.94,313.20 L509.01,315.63 L510.08,312.55 L511.15,305.49 L512.22,296.33 L513.29,286.74 L514.36,279.54 L515.43,278.38 L516.50,284.60 L517.57,295.56 L518.65,307.38 L519.72,318.86 L520.79,330.75 L521.86,340.71 L522.93,341.50 L524.00,326.93" fill="none" stroke="#e0e0e0" stroke-width="1.4"/>
<text x="387" y="238" fill="#666" font-family="monospace" font-size="9">07</text>
<rect x="532" y="224" width="152" height="152" fill="#0b0b0b" stroke="#444"/>
<line x1="540" y1="300.00" x2="676" y2="300.00" stroke="#292929"/>
<path d="M540.00,300.00 L541.07,275.46 L542.14,263.34 L543.21,266.25 L544.28,277.39 L545.35,289.27 L546.43,299.97 L547.50,310.80 L548.57,320.78 L549.64,325.71 L550.71,322.61 L551.78,312.95 L552.85,300.83 L553.92,289.61 L554.99,281.37 L556.06,278.21 L557.13,281.60 L558.20,289.80 L559.28,297.84 L560.35,301.73 L561.42,302.17 L562.49,302.90 L563.56,305.44 L564.63,307.29 L565.70,305.88 L566.77,302.44 L567.84,300.24 L568.91,299.57 L569.98,296.98 L571.06,290.47 L572.13,283.63 L573.20,282.61 L574.27,289.07 L575.34,298.12 L576.41,303.92 L577.48,305.67 L578.55,306.51 L579.62,307.75 L580.69,306.61 L581.76,300.68 L582.83,292.51 L583.91,287.80 L584.98,289.22 L586.05,294.00 L587.12,297.88 L588.19,299.85 L589.26,301.58 L590.33,303.37 L591.40,302.94 L592.47,298.71 L593.54,292.80 L594.61,289.36 L595.69,290.65 L596.76,295.88 L597.83,303.21 L598.90,310.84 L599.97,315.74 L601.04,313.67 L602.11,303.16 L603.18,289.29 L604.25,281.02 L605.32,283.07 L606.39,291.33 L607.46,297.90 L608.54,300.00 L609.61,302.10 L610.68,308.67 L611.75,316.93 L612.82,318.98 L613.89,310.71 L614.96,296.84 L616.03,286.33 L617.10,284.26 L618.17,289.16 L619.24,296.79 L620.31,304.12 L621.39,309.35 L622.46,310.64 L623.53,307.20 L624.60,301.29 L625.67,297.06 L626.74,296.63 L627.81,298.42 L628.88,300.15 L629.95,302.12 L631.02,306.00 L632.09,310.78 L633.17,312.20 L634.24,307.49 L635.31,299.32 L636.38,293.39 L637.45,292.25 L638.52,293.49 L639.59,294.33 L640.66,296.08 L641.73,301.88 L642.80,310.93 L643.87,317.39 L644.94,316.37 L646.02,309.53 L647.09,303.02 L648.16,300.43 L649.23,299.76 L650.30,297.56 L651.37,294.12 L652.44,292.71 L653.51,294.56 L654.58,297.10 L655.65,297.83 L656.72,298.27 L657.80,302.16 L658.87,310.20 L659.94,318.40 L661.01,321.79 L662.08,318.63 L663.15,310.39 L664.22,299.17 L665.29,287.05 L666.36,277.39 L667.43,274.29 L668.50,279.22 L669.57,289.20 L670.65,300.03 L671.72,310.73 L672.79,322.61 L673.86,333.75 L674.93,336.66 L676.00,324.54" fill="none" stroke="#e0e0e0" stroke-width="1.4"/>
<text x="539" y="238" fill="#666" font-family="monospace" font-size="9">08</text>
<rect x="76" y="376" width="152" height="152" fill="#0b0b0b" stroke="#444"/>
<line x1="84" y1="452.00" x2="220" y2="452.00" stroke="#292929"/>
<path d="M84.00,452.00 L85.07,434.92 L86.14,423.41 L87.21,420.05 L88.28,423.54 L89.35,430.39 L90.43,437.61 L91.50,444.28 L92.57,451.06 L93.64,458.30 L94.71,464.87 L95.78,468.59 L96.85,467.98 L97.92,463.60 L98.99,457.79 L100.06,452.99 L101.13,450.26 L102.20,449.01 L103.28,448.18 L104.35,447.50 L105.42,447.65 L106.49,449.16 L107.56,451.25 L108.63,451.97 L109.70,449.73 L110.77,444.95 L111.84,440.23 L112.91,438.61 L113.98,441.26 L115.06,446.41 L116.13,450.65 L117.20,451.54 L118.27,449.54 L119.34,447.56 L120.41,448.46 L121.48,452.73 L122.55,457.92 L123.62,460.62 L124.69,459.07 L125.76,454.42 L126.83,449.73 L127.91,447.59 L128.98,448.42 L130.05,450.63 L131.12,452.26 L132.19,452.55 L133.26,452.02 L134.33,451.35 L135.40,450.26 L136.47,447.71 L137.54,443.10 L138.61,437.47 L139.69,433.29 L140.76,432.89 L141.83,436.82 L142.90,443.60 L143.97,451.06 L145.04,458.06 L146.11,464.97 L147.18,472.42 L148.25,479.50 L149.32,483.23 L150.39,480.11 L151.46,468.84 L152.54,452.00 L153.61,435.16 L154.68,423.89 L155.75,420.77 L156.82,424.50 L157.89,431.58 L158.96,439.03 L160.03,445.94 L161.10,452.94 L162.17,460.40 L163.24,467.18 L164.31,471.11 L165.39,470.71 L166.46,466.53 L167.53,460.90 L168.60,456.29 L169.67,453.74 L170.74,452.65 L171.81,451.98 L172.88,451.45 L173.95,451.74 L175.02,453.37 L176.09,455.58 L177.17,456.41 L178.24,454.27 L179.31,449.58 L180.38,444.93 L181.45,443.38 L182.52,446.08 L183.59,451.27 L184.66,455.54 L185.73,456.44 L186.80,454.46 L187.87,452.46 L188.94,453.35 L190.02,457.59 L191.09,462.74 L192.16,465.39 L193.23,463.77 L194.30,459.05 L195.37,454.27 L196.44,452.03 L197.51,452.75 L198.58,454.84 L199.65,456.35 L200.72,456.50 L201.80,455.82 L202.87,454.99 L203.94,453.74 L205.01,451.01 L206.08,446.21 L207.15,440.40 L208.22,436.02 L209.29,435.41 L210.36,439.13 L211.43,445.70 L212.50,452.94 L213.57,459.72 L214.65,466.39 L215.72,473.61 L216.79,480.46 L217.86,483.95 L218.93,480.59 L220.00,469.08" fill="none" stroke="#e0e0e0" stroke-width="1.4"/>
<text x="83" y="390" fill="#666" font-family="monospace" font-size="9">09</text>
<rect x="228" y="376" width="152" height="152" fill="#0b0b0b" stroke="#444"/>
<line x1="236" y1="452.00" x2="372" y2="452.00" stroke="#292929"/>
<path d="M236.00,452.00 L237.07,427.05 L238.14,413.45 L239.21,413.48 L240.28,421.56 L241.35,432.05 L242.43,442.90 L243.50,453.09 L244.57,460.62 L245.64,464.18 L246.71,464.33 L247.78,462.22 L248.85,458.54 L249.92,454.57 L250.99,452.24 L252.06,452.12 L253.13,452.59 L254.20,452.13 L255.28,451.13 L256.35,450.51 L257.42,450.09 L258.49,449.52 L259.56,449.31 L260.63,449.26 L261.70,447.28 L262.77,442.25 L263.84,437.22 L264.91,436.98 L265.98,442.30 L267.06,448.97 L268.13,452.83 L269.20,453.35 L270.27,451.85 L271.34,449.18 L272.41,446.75 L273.48,447.27 L274.55,451.71 L275.62,456.76 L276.69,458.04 L277.76,455.29 L278.83,452.04 L279.91,450.59 L280.98,449.99 L282.05,449.05 L283.12,448.62 L284.19,449.66 L285.26,451.29 L286.33,451.96 L287.40,451.20 L288.47,448.82 L289.54,444.15 L290.61,437.62 L291.69,432.14 L292.76,431.16 L293.83,435.63 L294.90,443.94 L295.97,453.89 L297.04,463.08 L298.11,469.06 L299.18,471.26 L300.25,472.16 L301.32,473.85 L302.39,473.66 L303.46,466.41 L304.54,452.00 L305.61,437.59 L306.68,430.34 L307.75,430.15 L308.82,431.84 L309.89,432.74 L310.96,434.94 L312.03,440.92 L313.10,450.11 L314.17,460.06 L315.24,468.37 L316.31,472.84 L317.39,471.86 L318.46,466.38 L319.53,459.85 L320.60,455.18 L321.67,452.80 L322.74,452.04 L323.81,452.71 L324.88,454.34 L325.95,455.38 L327.02,454.95 L328.09,454.01 L329.17,453.41 L330.24,451.96 L331.31,448.71 L332.38,445.96 L333.45,447.24 L334.52,452.29 L335.59,456.73 L336.66,457.25 L337.73,454.82 L338.80,452.15 L339.87,450.65 L340.94,451.17 L342.02,455.03 L343.09,461.70 L344.16,467.02 L345.23,466.78 L346.30,461.75 L347.37,456.72 L348.44,454.74 L349.51,454.69 L350.58,454.48 L351.65,453.91 L352.72,453.49 L353.80,452.87 L354.87,451.87 L355.94,451.41 L357.01,451.88 L358.08,451.76 L359.15,449.43 L360.22,445.46 L361.29,441.78 L362.36,439.67 L363.43,439.82 L364.50,443.38 L365.57,450.91 L366.65,461.10 L367.72,471.95 L368.79,482.44 L369.86,490.52 L370.93,490.55 L372.00,476.95" fill="none" stroke="#e0e0e0" stroke-width="1.4"/>
<text x="235" y="390" fill="#666" font-family="monospace" font-size="9">10</text>
<rect x="380" y="376" width="152" height="152" fill="#0b0b0b" stroke="#444"/>
<line x1="388" y1="452.00" x2="524" y2="452.00" stroke="#292929"/>
<path d="M388.00,452.00 L389.07,420.87 L390.14,408.77 L391.21,416.28 L392.28,430.86 L393.35,444.68 L394.43,458.68 L395.50,472.04 L396.57,477.87 L397.64,471.68 L398.71,457.61 L399.78,443.58 L400.85,434.76 L401.92,433.45 L402.99,439.89 L404.06,450.15 L405.13,457.47 L406.20,458.95 L407.28,458.03 L408.35,457.83 L409.42,456.33 L410.49,451.43 L411.56,446.25 L412.63,444.53 L413.70,443.99 L414.77,440.66 L415.84,437.23 L416.91,440.14 L417.98,448.95 L419.06,455.99 L420.13,457.29 L421.20,456.74 L422.27,457.01 L423.34,454.05 L424.41,445.33 L425.48,437.35 L426.55,438.14 L427.62,446.10 L428.69,453.05 L429.76,455.74 L430.83,457.13 L431.91,457.85 L432.98,454.35 L434.05,446.89 L435.12,442.08 L436.19,444.33 L437.26,449.99 L438.33,453.34 L439.40,453.62 L440.47,452.71 L441.54,450.01 L442.61,444.40 L443.69,438.52 L444.76,436.72 L445.83,440.35 L446.90,448.33 L447.97,459.28 L449.04,469.17 L450.11,470.42 L451.18,460.05 L452.25,446.90 L453.32,443.34 L454.39,449.70 L455.46,454.59 L456.54,452.00 L457.61,449.41 L458.68,454.30 L459.75,460.66 L460.82,457.10 L461.89,443.95 L462.96,433.58 L464.03,434.83 L465.10,444.72 L466.17,455.67 L467.24,463.65 L468.31,467.28 L469.39,465.48 L470.46,459.60 L471.53,453.99 L472.60,451.29 L473.67,450.38 L474.74,450.66 L475.81,454.01 L476.88,459.67 L477.95,461.92 L479.02,457.11 L480.09,449.65 L481.17,446.15 L482.24,446.87 L483.31,448.26 L484.38,450.95 L485.45,457.90 L486.52,465.86 L487.59,466.65 L488.66,458.67 L489.73,449.95 L490.80,446.99 L491.87,447.26 L492.94,446.71 L494.02,448.01 L495.09,455.05 L496.16,463.86 L497.23,466.77 L498.30,463.34 L499.37,460.01 L500.44,459.47 L501.51,457.75 L502.58,452.57 L503.65,447.67 L504.72,446.17 L505.80,445.97 L506.87,445.05 L507.94,446.53 L509.01,453.85 L510.08,464.11 L511.15,470.55 L512.22,469.24 L513.29,460.42 L514.36,446.39 L515.43,432.32 L516.50,426.13 L517.57,431.96 L518.65,445.32 L519.72,459.32 L520.79,473.14 L521.86,487.72 L522.93,495.23 L524.00,483.13" fill="none" stroke="#e0e0e0" stroke-width="1.4"/>
<text x="387" y="390" fill="#666" font-family="monospace" font-size="9">11</text>
<rect x="532" y="376" width="152" height="152" fill="#0b0b0b" stroke="#444"/>
<line x1="540" y1="452.00" x2="676" y2="452.00" stroke="#292929"/>
<path d="M540.00,452.00 L541.07,423.99 L542.14,414.72 L543.21,423.98 L544.28,438.61 L545.35,451.29 L546.43,464.04 L547.50,476.28 L548.57,480.32 L549.64,471.20 L550.71,453.78 L551.78,437.35 L552.85,428.00 L553.92,428.04 L554.99,436.95 L556.06,449.67 L557.13,458.50 L558.20,460.52 L559.28,459.80 L560.35,459.81 L561.42,458.15 L562.49,452.33 L563.56,446.03 L564.63,443.92 L565.70,444.08 L566.77,442.07 L567.84,439.94 L568.91,443.62 L569.98,452.28 L571.06,458.18 L572.13,458.18 L573.20,457.29 L574.27,458.25 L575.34,455.70 L576.41,445.95 L577.48,435.89 L578.55,435.01 L579.62,442.73 L580.69,450.78 L581.76,455.24 L582.83,458.31 L583.91,459.81 L584.98,455.74 L586.05,446.92 L587.12,441.17 L588.19,443.50 L589.26,449.81 L590.33,453.67 L591.40,454.33 L592.47,454.20 L593.54,452.82 L594.61,448.62 L595.69,443.65 L596.76,441.83 L597.83,444.45 L598.90,450.83 L599.97,460.20 L601.04,468.57 L602.11,467.62 L603.18,453.91 L604.25,437.30 L605.32,432.20 L606.39,440.13 L607.46,449.18 L608.54,452.00 L609.61,454.82 L610.68,463.87 L611.75,471.80 L612.82,466.70 L613.89,450.09 L614.96,436.38 L616.03,435.43 L617.10,443.80 L618.17,453.17 L619.24,459.55 L620.31,462.17 L621.39,460.35 L622.46,455.38 L623.53,451.18 L624.60,449.80 L625.67,449.67 L626.74,450.33 L627.81,454.19 L628.88,460.50 L629.95,462.83 L631.02,457.08 L632.09,448.26 L633.17,444.19 L634.24,445.69 L635.31,448.76 L636.38,453.22 L637.45,461.27 L638.52,468.99 L639.59,468.11 L640.66,458.05 L641.73,448.30 L642.80,445.75 L643.87,446.71 L644.94,445.82 L646.02,445.82 L647.09,451.72 L648.16,460.38 L649.23,464.06 L650.30,461.93 L651.37,459.92 L652.44,460.08 L653.51,457.97 L654.58,451.67 L655.65,445.85 L656.72,444.19 L657.80,444.20 L658.87,443.48 L659.94,445.50 L661.01,454.33 L662.08,467.05 L663.15,475.96 L664.22,476.00 L665.29,466.65 L666.36,450.22 L667.43,432.80 L668.50,423.68 L669.57,427.72 L670.65,439.96 L671.72,452.71 L672.79,465.39 L673.86,480.02 L674.93,489.28 L676.00,480.01" fill="none" stroke="#e0e0e0" stroke-width="1.4"/>
<text x="539" y="390" fill="#666" font-family="monospace" font-size="9">12</text>
<rect x="76" y="528" width="152" height="152" fill="#0b0b0b" stroke="#444"/>
<line x1="84" y1="604.00" x2="220" y2="604.00" stroke="#292929"/>
<path d="M84.00,604.00 L85.07,583.31 L86.14,572.39 L87.21,573.73 L88.28,582.33 L89.35,591.83 L90.43,600.03 L91.50,608.33 L92.57,617.10 L93.64,623.36 L94.71,623.43 L95.78,617.19 L96.85,608.47 L97.92,601.37 L98.99,596.99 L100.06,594.17 L101.13,592.44 L102.20,593.03 L103.28,596.64 L104.35,601.27 L105.42,603.64 L106.49,602.63 L107.56,600.52 L108.63,600.18 L109.70,601.58 L110.77,602.24 L111.84,601.08 L112.91,600.73 L113.98,604.63 L115.06,611.92 L116.13,616.59 L117.20,612.85 L118.27,601.54 L119.34,590.24 L120.41,586.52 L121.48,591.22 L122.55,598.55 L123.62,602.51 L124.69,602.22 L125.76,601.14 L126.83,601.88 L127.91,603.38 L128.98,603.15 L130.05,601.16 L131.12,600.28 L132.19,602.78 L133.26,607.57 L134.33,611.33 L135.40,612.09 L136.47,610.53 L137.54,607.89 L138.61,603.71 L139.69,596.80 L140.76,588.28 L141.83,582.25 L142.90,582.54 L143.97,589.02 L145.04,598.02 L146.11,606.55 L147.18,614.98 L148.25,624.71 L149.32,633.55 L150.39,635.13 L151.46,624.45 L152.54,604.00 L153.61,583.55 L154.68,572.87 L155.75,574.45 L156.82,583.29 L157.89,593.02 L158.96,601.45 L160.03,609.98 L161.10,618.98 L162.17,625.46 L163.24,625.75 L164.31,619.72 L165.39,611.20 L166.46,604.29 L167.53,600.11 L168.60,597.47 L169.67,595.91 L170.74,596.67 L171.81,600.43 L172.88,605.22 L173.95,607.72 L175.02,606.84 L176.09,604.85 L177.17,604.62 L178.24,606.12 L179.31,606.86 L180.38,605.78 L181.45,605.49 L182.52,609.45 L183.59,616.78 L184.66,621.48 L185.73,617.76 L186.80,606.46 L187.87,595.15 L188.94,591.41 L190.02,596.08 L191.09,603.37 L192.16,607.27 L193.23,606.92 L194.30,605.76 L195.37,606.42 L196.44,607.82 L197.51,607.48 L198.58,605.37 L199.65,604.36 L200.72,606.73 L201.80,611.36 L202.87,614.97 L203.94,615.56 L205.01,613.83 L206.08,611.01 L207.15,606.63 L208.22,599.53 L209.29,590.81 L210.36,584.57 L211.43,584.64 L212.50,590.90 L213.57,599.67 L214.65,607.97 L215.72,616.17 L216.79,625.67 L217.86,634.27 L218.93,635.61 L220.00,624.69" fill="none" stroke="#e0e0e0" stroke-width="1.4"/>
<text x="83" y="542" fill="#666" font-family="monospace" font-size="9">13</text>
<rect x="228" y="528" width="152" height="152" fill="#0b0b0b" stroke="#444"/>
<line x1="236" y1="604.00" x2="372" y2="604.00" stroke="#292929"/>
<path d="M236.00,604.00 L237.07,574.07 L238.14,562.19 L239.21,568.56 L240.28,582.02 L241.35,595.75 L242.43,608.64 L243.50,618.37 L244.57,621.94 L245.64,619.63 L246.71,613.85 L247.78,607.11 L248.85,602.36 L249.92,601.09 L250.99,601.01 L252.06,599.31 L253.13,596.95 L254.20,596.19 L255.28,596.81 L256.35,597.74 L257.42,598.93 L258.49,599.53 L259.56,598.77 L260.63,598.84 L261.70,601.75 L262.77,604.47 L263.84,603.48 L264.91,602.02 L265.98,605.27 L267.06,610.83 L268.13,611.67 L269.20,606.03 L270.27,597.96 L271.34,591.47 L272.41,589.62 L273.48,594.25 L274.55,601.55 L275.62,603.83 L276.69,599.73 L277.76,596.33 L278.83,598.28 L279.91,602.08 L280.98,603.46 L282.05,603.08 L283.12,602.78 L284.19,602.84 L285.26,604.13 L286.33,607.45 L287.40,610.83 L288.47,611.56 L289.54,609.39 L290.61,604.59 L291.69,596.43 L292.76,586.62 L293.83,580.28 L294.90,581.23 L295.97,589.13 L297.04,601.09 L298.11,612.55 L299.18,619.10 L300.25,621.50 L301.32,624.76 L302.39,627.86 L303.46,621.81 L304.54,604.00 L305.61,586.19 L306.68,580.14 L307.75,583.24 L308.82,586.50 L309.89,588.90 L310.96,595.45 L312.03,606.91 L313.10,618.87 L314.17,626.77 L315.24,627.72 L316.31,621.38 L317.39,611.57 L318.46,603.41 L319.53,598.61 L320.60,596.44 L321.67,597.17 L322.74,600.55 L323.81,603.87 L324.88,605.16 L325.95,605.22 L327.02,604.92 L328.09,604.54 L329.17,605.92 L330.24,609.72 L331.31,611.67 L332.38,608.27 L333.45,604.17 L334.52,606.45 L335.59,613.75 L336.66,618.38 L337.73,616.53 L338.80,610.04 L339.87,601.97 L340.94,596.33 L342.02,597.17 L343.09,602.73 L344.16,605.98 L345.23,604.52 L346.30,603.53 L347.37,606.25 L348.44,609.16 L349.51,609.23 L350.58,608.47 L351.65,609.07 L352.72,610.26 L353.80,611.19 L354.87,611.81 L355.94,611.05 L357.01,608.69 L358.08,606.99 L359.15,606.91 L360.22,605.64 L361.29,600.89 L362.36,594.15 L363.43,588.37 L364.50,586.06 L365.57,589.63 L366.65,599.36 L367.72,612.25 L368.79,625.98 L369.86,639.44 L370.93,645.81 L372.00,633.93" fill="none" stroke="#e0e0e0" stroke-width="1.4"/>
<text x="235" y="542" fill="#666" font-family="monospace" font-size="9">14</text>
<rect x="380" y="528" width="152" height="152" fill="#0b0b0b" stroke="#444"/>
<line x1="388" y1="604.00" x2="524" y2="604.00" stroke="#292929"/>
<path d="M388.00,604.00 L389.07,568.24 L390.14,560.15 L391.21,574.67 L392.28,592.35 L393.35,608.75 L394.43,625.75 L395.50,633.83 L396.57,623.85 L397.64,603.37 L398.71,587.29 L399.78,582.80 L400.85,589.38 L401.92,601.93 L402.99,611.56 L404.06,613.25 L405.13,610.67 L406.20,607.23 L407.28,600.80 L408.35,592.93 L409.42,590.84 L410.49,594.79 L411.56,597.46 L412.63,598.40 L413.70,603.25 L414.77,609.26 L415.84,609.15 L416.91,605.92 L417.98,606.09 L419.06,604.95 L420.13,596.71 L421.20,589.63 L422.27,592.91 L423.34,600.52 L424.41,603.82 L425.48,605.97 L426.55,609.53 L427.62,606.91 L428.69,596.26 L429.76,589.33 L430.83,593.03 L431.91,600.11 L432.98,604.43 L434.05,607.86 L435.12,609.04 L436.19,603.56 L437.26,596.31 L438.33,596.98 L439.40,604.58 L440.47,610.10 L441.54,610.07 L442.61,606.28 L443.69,599.41 L444.76,591.59 L445.83,587.72 L446.90,589.69 L447.97,596.84 L449.04,609.46 L450.11,621.81 L451.18,620.83 L452.25,605.49 L453.32,594.52 L454.39,599.50 L455.46,606.92 L456.54,604.00 L457.61,601.08 L458.68,608.50 L459.75,613.48 L460.82,602.51 L461.89,587.17 L462.96,586.19 L464.03,598.54 L465.10,611.16 L466.17,618.31 L467.24,620.28 L468.31,616.41 L469.39,608.59 L470.46,601.72 L471.53,597.93 L472.60,597.90 L473.67,603.42 L474.74,611.02 L475.81,611.69 L476.88,604.44 L477.95,598.96 L479.02,600.14 L480.09,603.57 L481.17,607.89 L482.24,614.97 L483.31,618.67 L484.38,611.74 L485.45,601.09 L486.52,598.47 L487.59,602.03 L488.66,604.18 L489.73,607.48 L490.80,615.09 L491.87,618.37 L492.94,611.29 L494.02,603.05 L495.09,601.91 L496.16,602.08 L497.23,598.85 L498.30,598.74 L499.37,604.75 L500.44,609.60 L501.51,610.54 L502.58,613.21 L503.65,617.16 L504.72,615.07 L505.80,607.20 L506.87,600.77 L507.94,597.33 L509.01,594.75 L510.08,596.44 L511.15,606.07 L512.22,618.62 L513.29,625.20 L514.36,620.71 L515.43,604.63 L516.50,584.15 L517.57,574.17 L518.65,582.25 L519.72,599.25 L520.79,615.65 L521.86,633.33 L522.93,647.85 L524.00,639.76" fill="none" stroke="#e0e0e0" stroke-width="1.4"/>
<text x="387" y="542" fill="#666" font-family="monospace" font-size="9">15</text>
<rect x="532" y="528" width="152" height="152" fill="#0b0b0b" stroke="#444"/>
<line x1="540" y1="604.00" x2="676" y2="604.00" stroke="#292929"/>
<path d="M540.00,604.00 L541.07,573.01 L542.14,568.08 L543.21,583.02 L544.28,598.88 L545.35,613.10 L546.43,628.38 L547.50,634.17 L548.57,620.67 L549.64,596.88 L550.71,579.80 L551.78,577.12 L552.85,587.01 L553.92,602.68 L554.99,614.35 L556.06,617.09 L557.13,614.92 L558.20,611.09 L559.28,603.07 L560.35,593.17 L561.42,590.17 L562.49,594.70 L563.56,598.23 L564.63,599.34 L565.70,604.01 L566.77,610.17 L567.84,610.43 L568.91,607.13 L569.98,606.01 L571.06,602.36 L572.13,592.07 L573.20,585.81 L574.27,593.07 L575.34,604.90 L576.41,609.64 L577.48,610.36 L578.55,611.68 L579.62,607.58 L580.69,596.39 L581.76,589.41 L582.83,593.08 L583.91,600.08 L584.98,604.74 L586.05,609.04 L587.12,610.58 L588.19,603.93 L589.26,594.66 L590.33,594.12 L591.40,601.91 L592.47,608.29 L593.54,609.13 L594.61,606.51 L595.69,601.53 L596.76,596.09 L597.83,594.01 L598.90,595.99 L599.97,601.41 L601.04,611.79 L602.11,622.03 L603.18,618.18 L604.25,598.66 L605.32,584.09 L606.39,588.83 L607.46,600.26 L608.54,604.00 L609.61,607.74 L610.68,619.17 L611.75,623.91 L612.82,609.34 L613.89,589.82 L614.96,585.97 L616.03,596.21 L617.10,606.59 L618.17,612.01 L619.24,613.99 L620.31,611.91 L621.39,606.47 L622.46,601.49 L623.53,598.87 L624.60,599.71 L625.67,606.09 L626.74,613.88 L627.81,613.34 L628.88,604.07 L629.95,597.42 L631.02,598.96 L632.09,603.26 L633.17,607.92 L634.24,614.92 L635.31,618.59 L636.38,611.61 L637.45,600.42 L638.52,596.32 L639.59,597.64 L640.66,598.36 L641.73,603.10 L642.80,614.93 L643.87,622.19 L644.94,615.93 L646.02,605.64 L647.09,601.99 L648.16,600.87 L649.23,597.57 L650.30,597.83 L651.37,603.99 L652.44,608.66 L653.51,609.77 L654.58,613.30 L655.65,617.83 L656.72,614.83 L657.80,604.93 L658.87,596.91 L659.94,593.08 L661.01,590.91 L662.08,593.65 L663.15,605.32 L664.22,620.99 L665.29,630.88 L666.36,628.20 L667.43,611.12 L668.50,587.33 L669.57,573.83 L670.65,579.62 L671.72,594.90 L672.79,609.12 L673.86,624.98 L674.93,639.92 L676.00,634.99" fill="none" stroke="#e0e0e0" stroke-width="1.4"/>
<text x="539" y="542" fill="#666" font-family="monospace" font-size="9">16</text>
</svg>
