<svg xmlns="http://www.w3.org/2000/svg" width="760" height="760" viewBox="0 0 760 760">
<rect width="760" height="760" fill="#161616"/>
<text x="24" y="32" fill="#dedede" font-family="monospace" font-size="15">S3G VOT / STRING</text>
<text x="684" y="724" text-anchor="end" fill="#858585" font-family="monospace" font-size="11">U / EXCITATION BRIGHTNESS</text>
<text x="24" y="72" fill="#858585" font-family="monospace" font-size="11">V / PLUCK AND BOW BALANCE</text>
<text x="76" y="724" fill="#858585" font-family="monospace" font-size="11">ENERGY / LEVEL MATCHED</text>
<rect x="76" y="72" width="152" height="152" fill="#0b0b0b" stroke="#444"/>
<line x1="84" y1="148.00" x2="220" y2="148.00" stroke="#292929"/>
<path d="M84.00,148.00 L85.07,146.99 L86.14,145.97 L87.21,144.97 L88.28,143.97 L89.35,142.98 L90.43,142.00 L91.50,141.04 L92.57,140.09 L93.64,139.16 L94.71,138.26 L95.78,137.37 L96.85,136.52 L97.92,135.69 L98.99,134.89 L100.06,134.12 L101.13,133.38 L102.20,132.68 L103.28,132.02 L104.35,131.40 L105.42,130.81 L106.49,130.27 L107.56,129.77 L108.63,129.31 L109.70,128.90 L110.77,128.54 L111.84,128.22 L112.91,127.95 L113.98,127.73 L115.06,127.55 L116.13,127.43 L117.20,127.35 L118.27,127.33 L119.34,127.35 L120.41,127.43 L121.48,127.55 L122.55,127.73 L123.62,127.95 L124.69,128.22 L125.76,128.54 L126.83,128.90 L127.91,129.31 L128.98,129.77 L130.05,130.27 L131.12,130.81 L132.19,131.40 L133.26,132.02 L134.33,132.68 L135.40,133.38 L136.47,134.12 L137.54,134.89 L138.61,135.69 L139.69,136.52 L140.76,137.37 L141.83,138.26 L142.90,139.16 L143.97,140.09 L145.04,141.04 L146.11,142.00 L147.18,142.98 L148.25,143.97 L149.32,144.97 L150.39,145.97 L151.46,146.99 L152.54,148.00 L153.61,149.01 L154.68,150.03 L155.75,151.03 L156.82,152.03 L157.89,153.02 L158.96,154.00 L160.03,154.96 L161.10,155.91 L162.17,156.84 L163.24,157.74 L164.31,158.63 L165.39,159.48 L166.46,160.31 L167.53,161.11 L168.60,161.88 L169.67,162.62 L170.74,163.32 L171.81,163.98 L172.88,164.60 L173.95,165.19 L175.02,165.73 L176.09,166.23 L177.17,166.69 L178.24,167.10 L179.31,167.46 L180.38,167.78 L181.45,168.05 L182.52,168.27 L183.59,168.45 L184.66,168.57 L185.73,168.65 L186.80,168.67 L187.87,168.65 L188.94,168.57 L190.02,168.45 L191.09,168.27 L192.16,168.05 L193.23,167.78 L194.30,167.46 L195.37,167.10 L196.44,166.69 L197.51,166.23 L198.58,165.73 L199.65,165.19 L200.72,164.60 L201.80,163.98 L202.87,163.32 L203.94,162.62 L205.01,161.88 L206.08,161.11 L207.15,160.31 L208.22,159.48 L209.29,158.63 L210.36,157.74 L211.43,156.84 L212.50,155.91 L213.57,154.96 L214.65,154.00 L215.72,153.02 L216.79,152.03 L217.86,151.03 L218.93,150.03 L220.00,149.01" fill="none" stroke="#e0e0e0" stroke-width="1.4"/>
<text x="83" y="86" fill="#666" font-family="monospace" font-size="9">01</text>
<rect x="228" y="72" width="152" height="152" fill="#0b0b0b" stroke="#444"/>
<line x1="236" y1="148.00" x2="372" y2="148.00" stroke="#292929"/>
<path d="M236.00,148.00 L237.07,145.23 L238.14,142.90 L239.21,141.10 L240.28,139.68 L241.35,138.51 L242.43,137.48 L243.50,136.55 L244.57,135.68 L245.64,134.86 L246.71,134.10 L247.78,133.40 L248.85,132.79 L249.92,132.31 L250.99,132.02 L252.06,131.92 L253.13,131.92 L254.20,131.84 L255.28,131.62 L256.35,131.29 L257.42,130.90 L258.49,130.50 L259.56,130.10 L260.63,129.72 L261.70,129.37 L262.77,129.06 L263.84,128.79 L264.91,128.58 L265.98,128.42 L267.06,128.33 L268.13,128.32 L269.20,128.38 L270.27,128.47 L271.34,128.58 L272.41,128.70 L273.48,128.85 L274.55,129.03 L275.62,129.25 L276.69,129.51 L277.76,129.81 L278.83,130.14 L279.91,130.52 L280.98,130.95 L282.05,131.42 L283.12,131.93 L284.19,132.50 L285.26,133.11 L286.33,133.77 L287.40,134.45 L288.47,135.14 L289.54,135.86 L290.61,136.61 L291.69,137.39 L292.76,138.18 L293.83,138.99 L294.90,139.82 L295.97,140.67 L297.04,141.53 L298.11,142.42 L299.18,143.31 L300.25,144.23 L301.32,145.16 L302.39,146.11 L303.46,147.06 L304.54,148.00 L305.61,148.94 L306.68,149.89 L307.75,150.84 L308.82,151.77 L309.89,152.69 L310.96,153.58 L312.03,154.47 L313.10,155.33 L314.17,156.18 L315.24,157.01 L316.31,157.82 L317.39,158.61 L318.46,159.39 L319.53,160.14 L320.60,160.86 L321.67,161.55 L322.74,162.23 L323.81,162.89 L324.88,163.50 L325.95,164.07 L327.02,164.58 L328.09,165.05 L329.17,165.48 L330.24,165.86 L331.31,166.19 L332.38,166.49 L333.45,166.75 L334.52,166.97 L335.59,167.15 L336.66,167.30 L337.73,167.42 L338.80,167.53 L339.87,167.62 L340.94,167.68 L342.02,167.67 L343.09,167.58 L344.16,167.42 L345.23,167.21 L346.30,166.94 L347.37,166.63 L348.44,166.28 L349.51,165.90 L350.58,165.50 L351.65,165.10 L352.72,164.71 L353.80,164.38 L354.87,164.16 L355.94,164.08 L357.01,164.08 L358.08,163.98 L359.15,163.69 L360.22,163.21 L361.29,162.60 L362.36,161.90 L363.43,161.14 L364.50,160.32 L365.57,159.45 L366.65,158.52 L367.72,157.49 L368.79,156.32 L369.86,154.90 L370.93,153.10 L372.00,150.77" fill="none" stroke="#e0e0e0" stroke-width="1.4"/>
<text x="235" y="86" fill="#666" font-family="monospace" font-size="9">02</text>
<rect x="380" y="72" width="152" height="152" fill="#0b0b0b" stroke="#444"/>
<line x1="388" y1="148.00" x2="524" y2="148.00" stroke="#292929"/>
<path d="M388.00,148.00 L389.07,136.50 L390.14,131.34 L391.21,129.41 L392.28,128.57 L393.35,128.11 L394.43,127.75 L395.50,127.38 L396.57,126.98 L397.64,126.55 L398.71,126.14 L399.78,125.74 L400.85,125.38 L401.92,125.23 L402.99,125.82 L404.06,128.27 L405.13,131.96 L406.20,133.79 L407.28,134.11 L408.35,133.91 L409.42,133.58 L410.49,133.26 L411.56,132.90 L412.63,132.54 L413.70,132.21 L414.77,131.92 L415.84,131.69 L416.91,131.49 L417.98,131.33 L419.06,131.30 L420.13,131.58 L421.20,132.31 L422.27,132.87 L423.34,133.07 L424.41,133.15 L425.48,133.24 L426.55,133.40 L427.62,133.58 L428.69,133.73 L429.76,133.90 L430.83,134.11 L431.91,134.38 L432.98,134.67 L434.05,134.98 L435.12,135.34 L436.19,135.81 L437.26,136.49 L438.33,137.23 L439.40,137.80 L440.47,138.31 L441.54,138.83 L442.61,139.43 L443.69,140.07 L444.76,140.66 L445.83,141.23 L446.90,141.80 L447.97,142.41 L449.04,143.04 L450.11,143.66 L451.18,144.29 L452.25,144.95 L453.32,145.71 L454.39,146.56 L455.46,147.31 L456.54,148.00 L457.61,148.69 L458.68,149.44 L459.75,150.29 L460.82,151.05 L461.89,151.71 L462.96,152.34 L464.03,152.96 L465.10,153.59 L466.17,154.20 L467.24,154.77 L468.31,155.34 L469.39,155.93 L470.46,156.57 L471.53,157.17 L472.60,157.69 L473.67,158.20 L474.74,158.77 L475.81,159.51 L476.88,160.19 L477.95,160.66 L479.02,161.02 L480.09,161.33 L481.17,161.62 L482.24,161.89 L483.31,162.10 L484.38,162.27 L485.45,162.42 L486.52,162.60 L487.59,162.76 L488.66,162.85 L489.73,162.93 L490.80,163.13 L491.87,163.69 L492.94,164.42 L494.02,164.70 L495.09,164.67 L496.16,164.51 L497.23,164.31 L498.30,164.08 L499.37,163.79 L500.44,163.46 L501.51,163.10 L502.58,162.74 L503.65,162.42 L504.72,162.09 L505.80,161.89 L506.87,162.21 L507.94,164.04 L509.01,167.73 L510.08,170.18 L511.15,170.77 L512.22,170.62 L513.29,170.26 L514.36,169.86 L515.43,169.45 L516.50,169.02 L517.57,168.62 L518.65,168.25 L519.72,167.89 L520.79,167.43 L521.86,166.59 L522.93,164.66 L524.00,159.50" fill="none" stroke="#e0e0e0" stroke-width="1.4"/>
<text x="387" y="86" fill="#666" font-family="monospace" font-size="9">03</text>
<rect x="532" y="72" width="152" height="152" fill="#0b0b0b" stroke="#444"/>
<line x1="540" y1="148.00" x2="676" y2="148.00" stroke="#292929"/>
<path d="M540.00,148.00 L541.07,122.67 L542.14,121.78 L543.21,122.58 L544.28,122.98 L545.35,123.86 L546.43,124.24 L547.50,124.22 L548.57,124.33 L549.64,124.05 L550.71,123.79 L551.78,123.63 L552.85,123.05 L553.92,122.36 L554.99,122.10 L556.06,125.80 L557.13,137.07 L558.20,138.25 L559.28,137.88 L560.35,137.19 L561.42,136.51 L562.49,136.35 L563.56,135.87 L564.63,135.40 L565.70,135.13 L566.77,134.71 L567.84,134.57 L568.91,134.37 L569.98,133.99 L571.06,133.85 L572.13,133.92 L573.20,135.98 L574.27,136.97 L575.34,136.86 L576.41,136.70 L577.48,136.72 L578.55,136.86 L579.62,137.04 L580.69,137.11 L581.76,137.08 L582.83,137.23 L583.91,137.43 L584.98,137.60 L586.05,137.82 L587.12,137.92 L588.19,138.15 L589.26,139.09 L590.33,140.12 L591.40,140.46 L592.47,140.72 L593.54,140.97 L594.61,141.53 L595.69,142.19 L596.76,142.55 L597.83,142.94 L598.90,143.25 L599.97,143.70 L601.04,144.24 L602.11,144.60 L603.18,145.04 L604.25,145.43 L605.32,146.00 L606.39,147.08 L607.46,147.57 L608.54,148.00 L609.61,148.43 L610.68,148.92 L611.75,150.00 L612.82,150.57 L613.89,150.96 L614.96,151.40 L616.03,151.76 L617.10,152.30 L618.17,152.75 L619.24,153.06 L620.31,153.45 L621.39,153.81 L622.46,154.47 L623.53,155.03 L624.60,155.28 L625.67,155.54 L626.74,155.88 L627.81,156.91 L628.88,157.85 L629.95,158.08 L631.02,158.18 L632.09,158.40 L633.17,158.57 L634.24,158.77 L635.31,158.92 L636.38,158.89 L637.45,158.96 L638.52,159.14 L639.59,159.28 L640.66,159.30 L641.73,159.14 L642.80,159.03 L643.87,160.02 L644.94,162.08 L646.02,162.15 L647.09,162.01 L648.16,161.63 L649.23,161.43 L650.30,161.29 L651.37,160.87 L652.44,160.60 L653.51,160.13 L654.58,159.65 L655.65,159.49 L656.72,158.81 L657.80,158.12 L658.87,157.75 L659.94,158.93 L661.01,170.20 L662.08,173.90 L663.15,173.64 L664.22,172.95 L665.29,172.37 L666.36,172.21 L667.43,171.95 L668.50,171.67 L669.57,171.78 L670.65,171.76 L671.72,172.14 L672.79,173.02 L673.86,173.42 L674.93,174.22 L676.00,173.33" fill="none" stroke="#e0e0e0" stroke-width="1.4"/>
<text x="539" y="86" fill="#666" font-family="monospace" font-size="9">04</text>
<rect x="76" y="224" width="152" height="152" fill="#0b0b0b" stroke="#444"/>
<line x1="84" y1="300.00" x2="220" y2="300.00" stroke="#292929"/>
<path d="M84.00,300.00 L85.07,298.99 L86.14,297.97 L87.21,296.97 L88.28,295.97 L89.35,294.98 L90.43,294.00 L91.50,293.04 L92.57,292.09 L93.64,291.16 L94.71,290.26 L95.78,289.37 L96.85,288.52 L97.92,287.69 L98.99,286.89 L100.06,286.12 L101.13,285.38 L102.20,284.68 L103.28,284.02 L104.35,283.40 L105.42,282.81 L106.49,282.27 L107.56,281.77 L108.63,281.31 L109.70,280.90 L110.77,280.54 L111.84,280.22 L112.91,279.95 L113.98,279.73 L115.06,279.55 L116.13,279.43 L117.20,279.35 L118.27,279.33 L119.34,279.35 L120.41,279.43 L121.48,279.55 L122.55,279.73 L123.62,279.95 L124.69,280.22 L125.76,280.54 L126.83,280.90 L127.91,281.31 L128.98,281.77 L130.05,282.27 L131.12,282.81 L132.19,283.40 L133.26,284.02 L134.33,284.68 L135.40,285.38 L136.47,286.12 L137.54,286.89 L138.61,287.69 L139.69,288.52 L140.76,289.37 L141.83,290.26 L142.90,291.16 L143.97,292.09 L145.04,293.04 L146.11,294.00 L147.18,294.98 L148.25,295.97 L149.32,296.97 L150.39,297.97 L151.46,298.99 L152.54,300.00 L153.61,301.01 L154.68,302.03 L155.75,303.03 L156.82,304.03 L157.89,305.02 L158.96,306.00 L160.03,306.96 L161.10,307.91 L162.17,308.84 L163.24,309.74 L164.31,310.63 L165.39,311.48 L166.46,312.31 L167.53,313.11 L168.60,313.88 L169.67,314.62 L170.74,315.32 L171.81,315.98 L172.88,316.60 L173.95,317.19 L175.02,317.73 L176.09,318.23 L177.17,318.69 L178.24,319.10 L179.31,319.46 L180.38,319.78 L181.45,320.05 L182.52,320.27 L183.59,320.45 L184.66,320.57 L185.73,320.65 L186.80,320.67 L187.87,320.65 L188.94,320.57 L190.02,320.45 L191.09,320.27 L192.16,320.05 L193.23,319.78 L194.30,319.46 L195.37,319.10 L196.44,318.69 L197.51,318.23 L198.58,317.73 L199.65,317.19 L200.72,316.60 L201.80,315.98 L202.87,315.32 L203.94,314.62 L205.01,313.88 L206.08,313.11 L207.15,312.31 L208.22,311.48 L209.29,310.63 L210.36,309.74 L211.43,308.84 L212.50,307.91 L213.57,306.96 L214.65,306.00 L215.72,305.02 L216.79,304.03 L217.86,303.03 L218.93,302.03 L220.00,301.01" fill="none" stroke="#e0e0e0" stroke-width="1.4"/>
<text x="83" y="238" fill="#666" font-family="monospace" font-size="9">05</text>
<rect x="228" y="224" width="152" height="152" fill="#0b0b0b" stroke="#444"/>
<line x1="236" y1="300.00" x2="372" y2="300.00" stroke="#292929"/>
<path d="M236.00,300.00 L237.07,297.52 L238.14,295.44 L239.21,293.81 L240.28,292.52 L241.35,291.46 L242.43,290.53 L243.50,289.69 L244.57,288.90 L245.64,288.14 L246.71,287.41 L247.78,286.70 L248.85,286.02 L249.92,285.35 L250.99,284.71 L252.06,284.10 L253.13,283.51 L254.20,282.95 L255.28,282.42 L256.35,281.92 L257.42,281.45 L258.49,281.01 L259.56,280.62 L260.63,280.27 L261.70,279.97 L262.77,279.72 L263.84,279.54 L264.91,279.45 L265.98,279.48 L267.06,279.70 L268.13,280.10 L269.20,280.58 L270.27,280.98 L271.34,281.25 L272.41,281.43 L273.48,281.58 L274.55,281.76 L275.62,281.99 L276.69,282.25 L277.76,282.55 L278.83,282.87 L279.91,283.22 L280.98,283.60 L282.05,284.01 L283.12,284.47 L284.19,284.95 L285.26,285.47 L286.33,286.02 L287.40,286.60 L288.47,287.21 L289.54,287.85 L290.61,288.51 L291.69,289.20 L292.76,289.92 L293.83,290.66 L294.90,291.43 L295.97,292.21 L297.04,293.03 L298.11,293.87 L299.18,294.77 L300.25,295.72 L301.32,296.73 L302.39,297.78 L303.46,298.87 L304.54,300.00 L305.61,301.13 L306.68,302.22 L307.75,303.27 L308.82,304.28 L309.89,305.23 L310.96,306.13 L312.03,306.97 L313.10,307.79 L314.17,308.57 L315.24,309.34 L316.31,310.08 L317.39,310.80 L318.46,311.49 L319.53,312.15 L320.60,312.79 L321.67,313.40 L322.74,313.98 L323.81,314.53 L324.88,315.05 L325.95,315.53 L327.02,315.99 L328.09,316.40 L329.17,316.78 L330.24,317.13 L331.31,317.45 L332.38,317.75 L333.45,318.01 L334.52,318.24 L335.59,318.42 L336.66,318.57 L337.73,318.75 L338.80,319.02 L339.87,319.42 L340.94,319.90 L342.02,320.30 L343.09,320.52 L344.16,320.55 L345.23,320.46 L346.30,320.28 L347.37,320.03 L348.44,319.73 L349.51,319.38 L350.58,318.99 L351.65,318.55 L352.72,318.08 L353.80,317.58 L354.87,317.05 L355.94,316.49 L357.01,315.90 L358.08,315.29 L359.15,314.65 L360.22,313.98 L361.29,313.30 L362.36,312.59 L363.43,311.86 L364.50,311.10 L365.57,310.31 L366.65,309.47 L367.72,308.54 L368.79,307.48 L369.86,306.19 L370.93,304.56 L372.00,302.48" fill="none" stroke="#e0e0e0" stroke-width="1.4"/>
<text x="235" y="238" fill="#666" font-family="monospace" font-size="9">06</text>
<rect x="380" y="224" width="152" height="152" fill="#0b0b0b" stroke="#444"/>
<line x1="388" y1="300.00" x2="524" y2="300.00" stroke="#292929"/>
<path d="M388.00,300.00 L389.07,289.79 L390.14,285.29 L391.21,283.69 L392.28,283.03 L393.35,282.76 L394.43,282.65 L395.50,282.66 L396.57,282.65 L397.64,282.53 L398.71,282.36 L399.78,282.16 L400.85,281.94 L401.92,281.72 L402.99,281.51 L404.06,281.28 L405.13,281.05 L406.20,280.82 L407.28,280.57 L408.35,280.32 L409.42,280.07 L410.49,279.83 L411.56,279.60 L412.63,279.42 L413.70,279.30 L414.77,279.13 L415.84,278.95 L416.91,278.83 L417.98,278.95 L419.06,279.82 L420.13,282.46 L421.20,286.02 L422.27,287.78 L423.34,288.10 L424.41,287.75 L425.48,287.42 L426.55,287.38 L427.62,287.61 L428.69,287.92 L429.76,288.11 L430.83,288.24 L431.91,288.36 L432.98,288.50 L434.05,288.68 L435.12,288.92 L436.19,289.17 L437.26,289.42 L438.33,289.69 L439.40,289.97 L440.47,290.25 L441.54,290.55 L442.61,290.88 L443.69,291.21 L444.76,291.58 L445.83,291.98 L446.90,292.37 L447.97,292.73 L449.04,293.09 L450.11,293.48 L451.18,293.98 L452.25,294.79 L453.32,295.97 L454.39,297.03 L455.46,298.18 L456.54,300.00 L457.61,301.82 L458.68,302.97 L459.75,304.03 L460.82,305.21 L461.89,306.02 L462.96,306.52 L464.03,306.91 L465.10,307.27 L466.17,307.63 L467.24,308.02 L468.31,308.42 L469.39,308.79 L470.46,309.12 L471.53,309.45 L472.60,309.75 L473.67,310.03 L474.74,310.31 L475.81,310.58 L476.88,310.83 L477.95,311.08 L479.02,311.32 L480.09,311.50 L481.17,311.64 L482.24,311.76 L483.31,311.89 L484.38,312.08 L485.45,312.39 L486.52,312.62 L487.59,312.58 L488.66,312.25 L489.73,311.90 L490.80,312.22 L491.87,313.98 L492.94,317.54 L494.02,320.18 L495.09,321.05 L496.16,321.17 L497.23,321.05 L498.30,320.87 L499.37,320.70 L500.44,320.58 L501.51,320.40 L502.58,320.17 L503.65,319.93 L504.72,319.68 L505.80,319.43 L506.87,319.18 L507.94,318.95 L509.01,318.72 L510.08,318.49 L511.15,318.28 L512.22,318.06 L513.29,317.84 L514.36,317.64 L515.43,317.47 L516.50,317.35 L517.57,317.34 L518.65,317.35 L519.72,317.24 L520.79,316.97 L521.86,316.31 L522.93,314.71 L524.00,310.21" fill="none" stroke="#e0e0e0" stroke-width="1.4"/>
<text x="387" y="238" fill="#666" font-family="monospace" font-size="9">07</text>
<rect x="532" y="224" width="152" height="152" fill="#0b0b0b" stroke="#444"/>
<line x1="540" y1="300.00" x2="676" y2="300.00" stroke="#292929"/>
<path d="M540.00,300.00 L541.07,276.66 L542.14,276.21 L543.21,277.15 L544.28,277.57 L545.35,278.62 L546.43,279.12 L547.50,279.96 L548.57,280.75 L549.64,280.84 L550.71,281.07 L551.78,281.23 L552.85,281.15 L553.92,281.29 L554.99,281.35 L556.06,281.29 L557.13,281.34 L558.20,281.24 L559.28,281.17 L560.35,281.10 L561.42,280.84 L562.49,280.77 L563.56,280.58 L564.63,280.37 L565.70,280.56 L566.77,280.24 L567.84,279.87 L568.91,279.50 L569.98,278.81 L571.06,278.76 L572.13,283.17 L573.20,293.40 L574.27,294.43 L575.34,294.06 L576.41,292.22 L577.48,291.22 L578.55,291.01 L579.62,291.40 L580.69,292.05 L581.76,292.03 L582.83,291.97 L583.91,291.91 L584.98,291.88 L586.05,291.88 L587.12,292.02 L588.19,292.17 L589.26,292.22 L590.33,292.32 L591.40,292.45 L592.47,292.51 L593.54,292.59 L594.61,292.73 L595.69,292.82 L596.76,292.95 L597.83,293.23 L598.90,293.38 L599.97,293.47 L601.04,293.43 L602.11,293.40 L603.18,293.46 L604.25,293.79 L605.32,295.99 L606.39,296.61 L607.46,296.78 L608.54,300.00 L609.61,303.22 L610.68,303.39 L611.75,304.01 L612.82,306.21 L613.89,306.54 L614.96,306.60 L616.03,306.57 L617.10,306.53 L618.17,306.62 L619.24,306.77 L620.31,307.05 L621.39,307.18 L622.46,307.27 L623.53,307.41 L624.60,307.49 L625.67,307.55 L626.74,307.68 L627.81,307.78 L628.88,307.83 L629.95,307.98 L631.02,308.12 L632.09,308.12 L633.17,308.09 L634.24,308.03 L635.31,307.97 L636.38,307.95 L637.45,308.60 L638.52,308.99 L639.59,308.78 L640.66,307.78 L641.73,305.94 L642.80,305.57 L643.87,306.60 L644.94,316.83 L646.02,321.24 L647.09,321.19 L648.16,320.50 L649.23,320.13 L650.30,319.76 L651.37,319.44 L652.44,319.63 L653.51,319.42 L654.58,319.23 L655.65,319.16 L656.72,318.90 L657.80,318.83 L658.87,318.76 L659.94,318.66 L661.01,318.71 L662.08,318.65 L663.15,318.71 L664.22,318.85 L665.29,318.77 L666.36,318.93 L667.43,319.16 L668.50,319.25 L669.57,320.04 L670.65,320.88 L671.72,321.38 L672.79,322.43 L673.86,322.85 L674.93,323.79 L676.00,323.34" fill="none" stroke="#e0e0e0" stroke-width="1.4"/>
<text x="539" y="238" fill="#666" font-family="monospace" font-size="9">08</text>
<rect x="76" y="376" width="152" height="152" fill="#0b0b0b" stroke="#444"/>
<line x1="84" y1="452.00" x2="220" y2="452.00" stroke="#292929"/>
<path d="M84.00,452.00 L85.07,450.99 L86.14,449.97 L87.21,448.97 L88.28,447.97 L89.35,446.98 L90.43,446.00 L91.50,445.04 L92.57,444.09 L93.64,443.16 L94.71,442.26 L95.78,441.37 L96.85,440.52 L97.92,439.69 L98.99,438.89 L100.06,438.12 L101.13,437.38 L102.20,436.68 L103.28,436.02 L104.35,435.40 L105.42,434.81 L106.49,434.27 L107.56,433.77 L108.63,433.31 L109.70,432.90 L110.77,432.54 L111.84,432.22 L112.91,431.95 L113.98,431.73 L115.06,431.55 L116.13,431.43 L117.20,431.35 L118.27,431.33 L119.34,431.35 L120.41,431.43 L121.48,431.55 L122.55,431.73 L123.62,431.95 L124.69,432.22 L125.76,432.54 L126.83,432.90 L127.91,433.31 L128.98,433.77 L130.05,434.27 L131.12,434.81 L132.19,435.40 L133.26,436.02 L134.33,436.68 L135.40,437.38 L136.47,438.12 L137.54,438.89 L138.61,439.69 L139.69,440.52 L140.76,441.37 L141.83,442.26 L142.90,443.16 L143.97,444.09 L145.04,445.04 L146.11,446.00 L147.18,446.98 L148.25,447.97 L149.32,448.97 L150.39,449.97 L151.46,450.99 L152.54,452.00 L153.61,453.01 L154.68,454.03 L155.75,455.03 L156.82,456.03 L157.89,457.02 L158.96,458.00 L160.03,458.96 L161.10,459.91 L162.17,460.84 L163.24,461.74 L164.31,462.63 L165.39,463.48 L166.46,464.31 L167.53,465.11 L168.60,465.88 L169.67,466.62 L170.74,467.32 L171.81,467.98 L172.88,468.60 L173.95,469.19 L175.02,469.73 L176.09,470.23 L177.17,470.69 L178.24,471.10 L179.31,471.46 L180.38,471.78 L181.45,472.05 L182.52,472.27 L183.59,472.45 L184.66,472.57 L185.73,472.65 L186.80,472.67 L187.87,472.65 L188.94,472.57 L190.02,472.45 L191.09,472.27 L192.16,472.05 L193.23,471.78 L194.30,471.46 L195.37,471.10 L196.44,470.69 L197.51,470.23 L198.58,469.73 L199.65,469.19 L200.72,468.60 L201.80,467.98 L202.87,467.32 L203.94,466.62 L205.01,465.88 L206.08,465.11 L207.15,464.31 L208.22,463.48 L209.29,462.63 L210.36,461.74 L211.43,460.84 L212.50,459.91 L213.57,458.96 L214.65,458.00 L215.72,457.02 L216.79,456.03 L217.86,455.03 L218.93,454.03 L220.00,453.01" fill="none" stroke="#e0e0e0" stroke-width="1.4"/>
<text x="83" y="390" fill="#666" font-family="monospace" font-size="9">09</text>
<rect x="228" y="376" width="152" height="152" fill="#0b0b0b" stroke="#444"/>
<line x1="236" y1="452.00" x2="372" y2="452.00" stroke="#292929"/>
<path d="M236.00,452.00 L237.07,449.80 L238.14,447.94 L239.21,446.48 L240.28,445.32 L241.35,444.34 L242.43,443.49 L243.50,442.72 L244.57,442.01 L245.64,441.32 L246.71,440.64 L247.78,439.98 L248.85,439.33 L249.92,438.70 L250.99,438.09 L252.06,437.49 L253.13,436.90 L254.20,436.29 L255.28,435.67 L256.35,435.05 L257.42,434.46 L258.49,433.95 L259.56,433.50 L260.63,433.12 L261.70,432.78 L262.77,432.48 L263.84,432.20 L264.91,431.96 L265.98,431.77 L267.06,431.63 L268.13,431.54 L269.20,431.49 L270.27,431.48 L271.34,431.51 L272.41,431.58 L273.48,431.71 L274.55,431.89 L275.62,432.15 L276.69,432.47 L277.76,432.82 L278.83,433.19 L279.91,433.61 L280.98,434.09 L282.05,434.69 L283.12,435.45 L284.19,436.36 L285.26,437.33 L286.33,438.23 L287.40,439.02 L288.47,439.74 L289.54,440.42 L290.61,441.09 L291.69,441.77 L292.76,442.47 L293.83,443.17 L294.90,443.88 L295.97,444.60 L297.04,445.34 L298.11,446.09 L299.18,446.89 L300.25,447.73 L301.32,448.63 L302.39,449.64 L303.46,450.76 L304.54,452.00 L305.61,453.24 L306.68,454.36 L307.75,455.37 L308.82,456.27 L309.89,457.11 L310.96,457.91 L312.03,458.66 L313.10,459.40 L314.17,460.12 L315.24,460.83 L316.31,461.53 L317.39,462.23 L318.46,462.91 L319.53,463.58 L320.60,464.26 L321.67,464.98 L322.74,465.77 L323.81,466.67 L324.88,467.64 L325.95,468.55 L327.02,469.31 L328.09,469.91 L329.17,470.39 L330.24,470.81 L331.31,471.18 L332.38,471.53 L333.45,471.85 L334.52,472.11 L335.59,472.29 L336.66,472.42 L337.73,472.49 L338.80,472.52 L339.87,472.51 L340.94,472.46 L342.02,472.37 L343.09,472.23 L344.16,472.04 L345.23,471.80 L346.30,471.52 L347.37,471.22 L348.44,470.88 L349.51,470.50 L350.58,470.05 L351.65,469.54 L352.72,468.95 L353.80,468.33 L354.87,467.71 L355.94,467.10 L357.01,466.51 L358.08,465.91 L359.15,465.30 L360.22,464.67 L361.29,464.02 L362.36,463.36 L363.43,462.68 L364.50,461.99 L365.57,461.28 L366.65,460.51 L367.72,459.66 L368.79,458.68 L369.86,457.52 L370.93,456.06 L372.00,454.20" fill="none" stroke="#e0e0e0" stroke-width="1.4"/>
<text x="235" y="390" fill="#666" font-family="monospace" font-size="9">10</text>
<rect x="380" y="376" width="152" height="152" fill="#0b0b0b" stroke="#444"/>
<line x1="388" y1="452.00" x2="524" y2="452.00" stroke="#292929"/>
<path d="M388.00,452.00 L389.07,442.85 L390.14,438.90 L391.21,437.59 L392.28,437.16 L393.35,437.04 L394.43,437.05 L395.50,437.19 L396.57,437.46 L397.64,437.62 L398.71,437.62 L399.78,437.53 L400.85,437.39 L401.92,437.28 L402.99,437.19 L404.06,437.14 L405.13,437.05 L406.20,436.81 L407.28,436.18 L408.35,435.02 L409.42,434.07 L410.49,433.66 L411.56,433.50 L412.63,433.43 L413.70,433.37 L414.77,433.25 L415.84,433.04 L416.91,432.76 L417.98,432.57 L419.06,432.52 L420.13,432.56 L421.20,432.61 L422.27,432.61 L423.34,432.57 L424.41,432.53 L425.48,432.51 L426.55,432.62 L427.62,433.02 L428.69,433.70 L429.76,434.15 L430.83,434.32 L431.91,434.39 L432.98,434.50 L434.05,434.85 L435.12,435.92 L436.19,438.64 L437.26,442.04 L438.33,443.77 L439.40,444.40 L440.47,444.63 L441.54,444.77 L442.61,444.90 L443.69,445.09 L444.76,445.38 L445.83,445.65 L446.90,445.82 L447.97,445.91 L449.04,445.97 L450.11,446.08 L451.18,446.26 L452.25,446.51 L453.32,446.87 L454.39,447.50 L455.46,448.93 L456.54,452.00 L457.61,455.07 L458.68,456.50 L459.75,457.13 L460.82,457.49 L461.89,457.74 L462.96,457.92 L464.03,458.03 L465.10,458.09 L466.17,458.18 L467.24,458.35 L468.31,458.62 L469.39,458.91 L470.46,459.10 L471.53,459.23 L472.60,459.37 L473.67,459.60 L474.74,460.23 L475.81,461.96 L476.88,465.36 L477.95,468.08 L479.02,469.15 L480.09,469.50 L481.17,469.61 L482.24,469.68 L483.31,469.85 L484.38,470.30 L485.45,470.98 L486.52,471.38 L487.59,471.49 L488.66,471.47 L489.73,471.43 L490.80,471.39 L491.87,471.39 L492.94,471.44 L494.02,471.48 L495.09,471.43 L496.16,471.24 L497.23,470.96 L498.30,470.75 L499.37,470.63 L500.44,470.57 L501.51,470.50 L502.58,470.34 L503.65,469.93 L504.72,468.98 L505.80,467.82 L506.87,467.19 L507.94,466.95 L509.01,466.86 L510.08,466.81 L511.15,466.72 L512.22,466.61 L513.29,466.47 L514.36,466.38 L515.43,466.38 L516.50,466.54 L517.57,466.81 L518.65,466.95 L519.72,466.96 L520.79,466.84 L521.86,466.41 L522.93,465.10 L524.00,461.15" fill="none" stroke="#e0e0e0" stroke-width="1.4"/>
<text x="387" y="390" fill="#666" font-family="monospace" font-size="9">11</text>
<rect x="532" y="376" width="152" height="152" fill="#0b0b0b" stroke="#444"/>
<line x1="540" y1="452.00" x2="676" y2="452.00" stroke="#292929"/>
<path d="M540.00,452.00 L541.07,430.02 L542.14,429.80 L543.21,430.93 L544.28,431.71 L545.35,432.88 L546.43,433.52 L547.50,434.24 L548.57,435.79 L549.64,436.44 L550.71,436.88 L551.78,437.09 L552.85,437.12 L553.92,437.44 L554.99,437.63 L556.06,437.99 L557.13,438.53 L558.20,438.65 L559.28,438.53 L560.35,435.65 L561.42,434.07 L562.49,434.18 L563.56,434.42 L564.63,434.66 L565.70,434.93 L566.77,434.95 L567.84,434.79 L568.91,434.17 L569.98,433.98 L571.06,434.01 L572.13,434.27 L573.20,434.45 L574.27,434.43 L575.34,434.29 L576.41,434.10 L577.48,433.83 L578.55,433.67 L579.62,433.99 L580.69,435.87 L581.76,436.25 L582.83,436.02 L583.91,435.52 L584.98,435.12 L586.05,434.55 L587.12,434.38 L588.19,439.29 L589.26,448.59 L590.33,449.15 L591.40,448.94 L592.47,448.38 L593.54,447.84 L594.61,447.64 L595.69,447.31 L596.76,447.51 L597.83,447.67 L598.90,447.34 L599.97,447.06 L601.04,446.50 L602.11,446.11 L603.18,445.93 L604.25,445.56 L605.32,445.41 L606.39,445.13 L607.46,445.08 L608.54,452.00 L609.61,458.92 L610.68,458.87 L611.75,458.59 L612.82,458.44 L613.89,458.07 L614.96,457.89 L616.03,457.50 L617.10,456.94 L618.17,456.66 L619.24,456.33 L620.31,456.49 L621.39,456.69 L622.46,456.36 L623.53,456.16 L624.60,455.62 L625.67,455.06 L626.74,454.85 L627.81,455.41 L628.88,464.71 L629.95,469.62 L631.02,469.45 L632.09,468.88 L633.17,468.48 L634.24,467.98 L635.31,467.75 L636.38,468.13 L637.45,470.01 L638.52,470.33 L639.59,470.17 L640.66,469.90 L641.73,469.71 L642.80,469.57 L643.87,469.55 L644.94,469.73 L646.02,469.99 L647.09,470.02 L648.16,469.83 L649.23,469.21 L650.30,469.05 L651.37,469.07 L652.44,469.34 L653.51,469.58 L654.58,469.82 L655.65,469.93 L656.72,468.35 L657.80,465.47 L658.87,465.35 L659.94,465.47 L661.01,466.01 L662.08,466.37 L663.15,466.56 L664.22,466.88 L665.29,466.91 L666.36,467.12 L667.43,467.56 L668.50,468.21 L669.57,469.76 L670.65,470.48 L671.72,471.12 L672.79,472.29 L673.86,473.07 L674.93,474.20 L676.00,473.98" fill="none" stroke="#e0e0e0" stroke-width="1.4"/>
<text x="539" y="390" fill="#666" font-family="monospace" font-size="9">12</text>
<rect x="76" y="528" width="152" height="152" fill="#0b0b0b" stroke="#444"/>
<line x1="84" y1="604.00" x2="220" y2="604.00" stroke="#292929"/>
<path d="M84.00,604.00 L85.07,602.99 L86.14,601.97 L87.21,600.97 L88.28,599.97 L89.35,598.98 L90.43,598.00 L91.50,597.04 L92.57,596.09 L93.64,595.16 L94.71,594.26 L95.78,593.37 L96.85,592.52 L97.92,591.69 L98.99,590.89 L100.06,590.12 L101.13,589.38 L102.20,588.68 L103.28,588.02 L104.35,587.40 L105.42,586.81 L106.49,586.27 L107.56,585.77 L108.63,585.31 L109.70,584.90 L110.77,584.54 L111.84,584.22 L112.91,583.95 L113.98,583.73 L115.06,583.55 L116.13,583.43 L117.20,583.35 L118.27,583.33 L119.34,583.35 L120.41,583.43 L121.48,583.55 L122.55,583.73 L123.62,583.95 L124.69,584.22 L125.76,584.54 L126.83,584.90 L127.91,585.31 L128.98,585.77 L130.05,586.27 L131.12,586.81 L132.19,587.40 L133.26,588.02 L134.33,588.68 L135.40,589.38 L136.47,590.12 L137.54,590.89 L138.61,591.69 L139.69,592.52 L140.76,593.37 L141.83,594.26 L142.90,595.16 L143.97,596.09 L145.04,597.04 L146.11,598.00 L147.18,598.98 L148.25,599.97 L149.32,600.97 L150.39,601.97 L151.46,602.99 L152.54,604.00 L153.61,605.01 L154.68,606.03 L155.75,607.03 L156.82,608.03 L157.89,609.02 L158.96,610.00 L160.03,610.96 L161.10,611.91 L162.17,612.84 L163.24,613.74 L164.31,614.63 L165.39,615.48 L166.46,616.31 L167.53,617.11 L168.60,617.88 L169.67,618.62 L170.74,619.32 L171.81,619.98 L172.88,620.60 L173.95,621.19 L175.02,621.73 L176.09,622.23 L177.17,622.69 L178.24,623.10 L179.31,623.46 L180.38,623.78 L181.45,624.05 L182.52,624.27 L183.59,624.45 L184.66,624.57 L185.73,624.65 L186.80,624.67 L187.87,624.65 L188.94,624.57 L190.02,624.45 L191.09,624.27 L192.16,624.05 L193.23,623.78 L194.30,623.46 L195.37,623.10 L196.44,622.69 L197.51,622.23 L198.58,621.73 L199.65,621.19 L200.72,620.60 L201.80,619.98 L202.87,619.32 L203.94,618.62 L205.01,617.88 L206.08,617.11 L207.15,616.31 L208.22,615.48 L209.29,614.63 L210.36,613.74 L211.43,612.84 L212.50,611.91 L213.57,610.96 L214.65,610.00 L215.72,609.02 L216.79,608.03 L217.86,607.03 L218.93,606.03 L220.00,605.01" fill="none" stroke="#e0e0e0" stroke-width="1.4"/>
<text x="83" y="542" fill="#666" font-family="monospace" font-size="9">13</text>
<rect x="228" y="528" width="152" height="152" fill="#0b0b0b" stroke="#444"/>
<line x1="236" y1="604.00" x2="372" y2="604.00" stroke="#292929"/>
<path d="M236.00,604.00 L237.07,601.94 L238.14,600.14 L239.21,598.63 L240.28,597.33 L241.35,596.21 L242.43,595.26 L243.50,594.46 L244.57,593.75 L245.64,593.09 L246.71,592.44 L247.78,591.80 L248.85,591.16 L249.92,590.56 L250.99,589.98 L252.06,589.43 L253.13,588.91 L254.20,588.41 L255.28,587.93 L256.35,587.47 L257.42,587.04 L258.49,586.64 L259.56,586.28 L260.63,585.95 L261.70,585.65 L262.77,585.39 L263.84,585.15 L264.91,584.95 L265.98,584.79 L267.06,584.66 L268.13,584.58 L269.20,584.53 L270.27,584.51 L271.34,584.53 L272.41,584.59 L273.48,584.68 L274.55,584.81 L275.62,584.98 L276.69,585.19 L277.76,585.43 L278.83,585.70 L279.91,586.01 L280.98,586.35 L282.05,586.72 L283.12,587.13 L284.19,587.57 L285.26,588.04 L286.33,588.53 L287.40,589.04 L288.47,589.58 L289.54,590.15 L290.61,590.75 L291.69,591.39 L292.76,592.06 L293.83,592.74 L294.90,593.43 L295.97,594.16 L297.04,594.94 L298.11,595.83 L299.18,596.88 L300.25,598.11 L301.32,599.45 L302.39,600.87 L303.46,602.38 L304.54,604.00 L305.61,605.62 L306.68,607.13 L307.75,608.55 L308.82,609.89 L309.89,611.12 L310.96,612.17 L312.03,613.06 L313.10,613.84 L314.17,614.57 L315.24,615.26 L316.31,615.94 L317.39,616.61 L318.46,617.25 L319.53,617.85 L320.60,618.42 L321.67,618.96 L322.74,619.47 L323.81,619.96 L324.88,620.43 L325.95,620.87 L327.02,621.28 L328.09,621.65 L329.17,621.99 L330.24,622.30 L331.31,622.57 L332.38,622.81 L333.45,623.02 L334.52,623.19 L335.59,623.32 L336.66,623.41 L337.73,623.47 L338.80,623.49 L339.87,623.47 L340.94,623.42 L342.02,623.34 L343.09,623.21 L344.16,623.05 L345.23,622.85 L346.30,622.61 L347.37,622.35 L348.44,622.05 L349.51,621.72 L350.58,621.36 L351.65,620.96 L352.72,620.53 L353.80,620.07 L354.87,619.59 L355.94,619.09 L357.01,618.57 L358.08,618.02 L359.15,617.44 L360.22,616.84 L361.29,616.20 L362.36,615.56 L363.43,614.91 L364.50,614.25 L365.57,613.54 L366.65,612.74 L367.72,611.79 L368.79,610.67 L369.86,609.37 L370.93,607.86 L372.00,606.06" fill="none" stroke="#e0e0e0" stroke-width="1.4"/>
<text x="235" y="542" fill="#666" font-family="monospace" font-size="9">14</text>
<rect x="380" y="528" width="152" height="152" fill="#0b0b0b" stroke="#444"/>
<line x1="388" y1="604.00" x2="524" y2="604.00" stroke="#292929"/>
<path d="M388.00,604.00 L389.07,596.41 L390.14,592.98 L391.21,591.27 L392.28,589.50 L393.35,588.21 L394.43,587.84 L395.50,588.03 L396.57,588.58 L397.64,588.99 L398.71,589.11 L399.78,589.06 L400.85,588.90 L401.92,588.78 L402.99,588.74 L404.06,588.76 L405.13,588.82 L406.20,588.81 L407.28,588.73 L408.35,588.62 L409.42,588.49 L410.49,588.40 L411.56,588.36 L412.63,588.34 L413.70,588.33 L414.77,588.29 L415.84,588.22 L416.91,588.15 L417.98,588.09 L419.06,588.08 L420.13,588.09 L421.20,588.12 L422.27,588.14 L423.34,588.13 L424.41,588.12 L425.48,588.12 L426.55,588.16 L427.62,588.23 L428.69,588.32 L429.76,588.40 L430.83,588.46 L431.91,588.50 L432.98,588.54 L434.05,588.60 L435.12,588.71 L436.19,588.87 L437.26,589.03 L438.33,589.13 L439.40,589.17 L440.47,589.18 L441.54,589.20 L442.61,589.30 L443.69,589.49 L444.76,589.77 L445.83,589.92 L446.90,589.91 L447.97,589.72 L449.04,589.49 L450.11,589.59 L451.18,590.42 L452.25,592.73 L453.32,595.56 L454.39,597.40 L455.46,599.62 L456.54,604.00 L457.61,608.38 L458.68,610.60 L459.75,612.44 L460.82,615.27 L461.89,617.58 L462.96,618.41 L464.03,618.51 L465.10,618.28 L466.17,618.09 L467.24,618.08 L468.31,618.23 L469.39,618.51 L470.46,618.70 L471.53,618.80 L472.60,618.82 L473.67,618.83 L474.74,618.87 L475.81,618.97 L476.88,619.13 L477.95,619.29 L479.02,619.40 L480.09,619.46 L481.17,619.50 L482.24,619.54 L483.31,619.60 L484.38,619.68 L485.45,619.77 L486.52,619.84 L487.59,619.88 L488.66,619.88 L489.73,619.87 L490.80,619.86 L491.87,619.88 L492.94,619.91 L494.02,619.92 L495.09,619.91 L496.16,619.85 L497.23,619.78 L498.30,619.71 L499.37,619.67 L500.44,619.66 L501.51,619.64 L502.58,619.60 L503.65,619.51 L504.72,619.38 L505.80,619.27 L506.87,619.19 L507.94,619.18 L509.01,619.24 L510.08,619.26 L511.15,619.22 L512.22,619.10 L513.29,618.94 L514.36,618.89 L515.43,619.01 L516.50,619.42 L517.57,619.97 L518.65,620.16 L519.72,619.79 L520.79,618.50 L521.86,616.73 L522.93,615.02 L524.00,611.59" fill="none" stroke="#e0e0e0" stroke-width="1.4"/>
<text x="387" y="542" fill="#666" font-family="monospace" font-size="9">15</text>
<rect x="532" y="528" width="152" height="152" fill="#0b0b0b" stroke="#444"/>
<line x1="540" y1="604.00" x2="676" y2="604.00" stroke="#292929"/>
<path d="M540.00,604.00 L541.07,586.40 L542.14,586.43 L543.21,587.35 L544.28,584.09 L545.35,582.55 L546.43,583.25 L547.50,584.24 L548.57,586.64 L549.64,587.83 L550.71,588.33 L551.78,588.59 L552.85,588.44 L553.92,588.63 L554.99,588.87 L556.06,589.25 L557.13,589.87 L558.20,590.08 L559.28,590.22 L560.35,590.26 L561.42,590.20 L562.49,590.32 L563.56,590.44 L564.63,590.64 L565.70,590.87 L566.77,590.91 L567.84,590.91 L568.91,590.90 L569.98,590.85 L571.06,590.91 L572.13,591.01 L573.20,591.10 L574.27,591.17 L575.34,591.12 L576.41,591.03 L577.48,590.98 L578.55,590.92 L579.62,590.97 L580.69,591.06 L581.76,591.04 L582.83,591.01 L583.91,590.85 L584.98,590.66 L586.05,590.56 L587.12,590.45 L588.19,590.56 L589.26,590.60 L590.33,590.44 L591.40,590.23 L592.47,589.81 L593.54,589.43 L594.61,589.20 L595.69,589.10 L596.76,589.49 L597.83,589.33 L598.90,588.84 L599.97,587.86 L601.04,586.28 L602.11,585.33 L603.18,584.80 L604.25,588.71 L605.32,595.32 L606.39,594.89 L607.46,594.57 L608.54,604.00 L609.61,613.43 L610.68,613.11 L611.75,612.68 L612.82,619.29 L613.89,623.20 L614.96,622.67 L616.03,621.72 L617.10,620.14 L618.17,619.16 L619.24,618.67 L620.31,618.51 L621.39,618.90 L622.46,618.80 L623.53,618.57 L624.60,618.19 L625.67,617.77 L626.74,617.56 L627.81,617.40 L628.88,617.44 L629.95,617.55 L631.02,617.44 L632.09,617.34 L633.17,617.15 L634.24,616.99 L635.31,616.96 L636.38,616.94 L637.45,617.03 L638.52,617.08 L639.59,617.02 L640.66,616.97 L641.73,616.88 L642.80,616.83 L643.87,616.90 L644.94,616.99 L646.02,617.09 L647.09,617.15 L648.16,617.10 L649.23,617.09 L650.30,617.09 L651.37,617.13 L652.44,617.36 L653.51,617.56 L654.58,617.68 L655.65,617.80 L656.72,617.74 L657.80,617.78 L658.87,617.92 L659.94,618.13 L661.01,618.75 L662.08,619.13 L663.15,619.37 L664.22,619.56 L665.29,619.41 L666.36,619.67 L667.43,620.17 L668.50,621.36 L669.57,623.76 L670.65,624.75 L671.72,625.45 L672.79,623.91 L673.86,620.65 L674.93,621.57 L676.00,621.60" fill="none" stroke="#e0e0e0" stroke-width="1.4"/>
<text x="539" y="542" fill="#666" font-family="monospace" font-size="9">16</text>
</svg>
