<svg xmlns="http://www.w3.org/2000/svg" width="760" height="760" viewBox="0 0 760 760">
<rect width="760" height="760" fill="#161616"/>
<text x="24" y="32" fill="#dedede" font-family="monospace" font-size="15">S3G VOT / GLITCH / ADDRESS</text>
<text x="684" y="724" text-anchor="end" fill="#858585" font-family="monospace" font-size="11">U / ADDRESS DAMAGE</text>
<text x="24" y="72" fill="#858585" font-family="monospace" font-size="11">V / REPEAT AND REORDER MODE</text>
<text x="76" y="724" fill="#858585" font-family="monospace" font-size="11">ENERGY / LEVEL MATCHED</text>
<rect x="76" y="72" width="152" height="152" fill="#0b0b0b" stroke="#444"/>
<line x1="84" y1="148.00" x2="220" y2="148.00" stroke="#292929"/>
<path d="M84.00,148.00 L85.07,142.69 L86.14,139.20 L87.21,138.12 L88.28,138.54 L89.35,138.75 L90.43,137.60 L91.50,135.33 L92.57,133.43 L93.64,133.49 L94.71,135.96 L95.78,139.75 L96.85,142.89 L97.92,143.86 L98.99,142.61 L100.06,140.44 L101.13,139.03 L102.20,139.11 L103.28,139.96 L104.35,139.90 L105.42,137.62 L106.49,133.19 L107.56,128.13 L108.63,124.40 L109.70,123.10 L110.77,123.79 L111.84,124.87 L112.91,124.88 L113.98,123.55 L115.06,122.05 L116.13,122.07 L117.20,124.57 L118.27,128.92 L119.34,133.31 L120.41,135.94 L121.48,136.20 L122.55,135.02 L123.62,134.10 L124.69,134.60 L125.76,136.27 L126.83,137.63 L127.91,137.10 L128.98,134.21 L130.05,130.07 L131.12,126.64 L132.19,125.44 L133.26,126.53 L134.33,128.60 L135.40,129.98 L136.47,129.93 L137.54,129.18 L138.61,129.40 L139.69,131.91 L140.76,136.63 L141.83,142.05 L142.90,146.19 L143.97,147.96 L145.04,147.81 L146.11,147.32 L147.18,147.97 L148.25,150.01 L149.32,152.28 L150.39,153.06 L151.46,151.44 L152.54,148.00 L153.61,144.56 L154.68,142.94 L155.75,143.72 L156.82,145.99 L157.89,148.03 L158.96,148.68 L160.03,148.19 L161.10,148.04 L162.17,149.81 L163.24,153.95 L164.31,159.37 L165.39,164.09 L166.46,166.60 L167.53,166.82 L168.60,166.07 L169.67,166.02 L170.74,167.40 L171.81,169.47 L172.88,170.56 L173.95,169.36 L175.02,165.93 L176.09,161.79 L177.17,158.90 L178.24,158.37 L179.31,159.73 L180.38,161.40 L181.45,161.90 L182.52,160.98 L183.59,159.80 L184.66,160.06 L185.73,162.69 L186.80,167.08 L187.87,171.43 L188.94,173.93 L190.02,173.95 L191.09,172.45 L192.16,171.12 L193.23,171.13 L194.30,172.21 L195.37,172.90 L196.44,171.60 L197.51,167.87 L198.58,162.81 L199.65,158.38 L200.72,156.10 L201.80,156.04 L202.87,156.89 L203.94,156.97 L205.01,155.56 L206.08,153.39 L207.15,152.14 L208.22,153.11 L209.29,156.25 L210.36,160.04 L211.43,162.51 L212.50,162.57 L213.57,160.67 L214.65,158.40 L215.72,157.25 L216.79,157.46 L217.86,157.88 L218.93,156.80 L220.00,153.31" fill="none" stroke="#e0e0e0" stroke-width="1.4"/>
<text x="83" y="86" fill="#666" font-family="monospace" font-size="9">01</text>
<rect x="228" y="72" width="152" height="152" fill="#0b0b0b" stroke="#444"/>
<line x1="236" y1="148.00" x2="372" y2="148.00" stroke="#292929"/>
<path d="M236.00,148.00 L237.07,137.26 L238.14,137.87 L239.21,141.01 L240.28,155.40 L241.35,151.04 L242.43,151.16 L243.50,132.03 L244.57,134.81 L245.64,130.49 L246.71,148.07 L247.78,146.42 L248.85,149.26 L249.92,133.37 L250.99,128.73 L252.06,126.66 L253.13,135.96 L254.20,145.29 L255.28,143.30 L256.35,138.81 L257.42,123.12 L258.49,126.21 L259.56,124.88 L260.63,142.83 L261.70,138.94 L262.77,142.19 L263.84,123.60 L264.91,124.30 L265.98,120.57 L267.06,135.64 L268.13,139.51 L269.20,140.90 L270.27,130.97 L271.34,121.08 L272.41,122.59 L273.48,126.67 L274.55,142.02 L275.62,138.66 L276.69,139.80 L277.76,121.74 L278.83,125.59 L279.91,122.38 L280.98,141.08 L282.05,140.57 L283.12,144.56 L284.19,129.83 L285.26,126.37 L286.33,125.48 L287.40,135.96 L288.47,146.47 L289.54,145.66 L290.61,142.34 L291.69,127.82 L292.76,132.07 L293.83,131.87 L294.90,150.95 L295.97,148.15 L297.04,152.49 L298.11,134.96 L299.18,136.68 L300.25,133.96 L301.32,149.99 L302.39,154.79 L303.46,157.07 L304.54,148.00 L305.61,138.93 L306.68,141.21 L307.75,146.01 L308.82,162.04 L309.89,159.32 L310.96,161.04 L312.03,143.51 L313.10,147.85 L314.17,145.05 L315.24,164.13 L316.31,163.93 L317.39,168.18 L318.46,153.66 L319.53,150.34 L320.60,149.53 L321.67,160.04 L322.74,170.52 L323.81,169.63 L324.88,166.17 L325.95,151.44 L327.02,155.43 L328.09,154.92 L329.17,173.62 L330.24,170.41 L331.31,174.26 L332.38,156.20 L333.45,157.34 L334.52,153.98 L335.59,169.33 L336.66,173.41 L337.73,174.92 L338.80,165.03 L339.87,155.10 L340.94,156.49 L342.02,160.36 L343.09,175.43 L344.16,171.70 L345.23,172.40 L346.30,153.81 L347.37,157.06 L348.44,153.17 L349.51,171.12 L350.58,169.79 L351.65,172.88 L352.72,157.19 L353.80,152.70 L354.87,150.71 L355.94,160.04 L357.01,169.34 L358.08,167.27 L359.15,162.63 L360.22,146.74 L361.29,149.58 L362.36,147.93 L363.43,165.51 L364.50,161.19 L365.57,163.97 L366.65,144.84 L367.72,144.96 L368.79,140.60 L369.86,154.99 L370.93,158.13 L372.00,158.74" fill="none" stroke="#e0e0e0" stroke-width="1.4"/>
<text x="235" y="86" fill="#666" font-family="monospace" font-size="9">02</text>
<rect x="380" y="72" width="152" height="152" fill="#0b0b0b" stroke="#444"/>
<line x1="388" y1="148.00" x2="524" y2="148.00" stroke="#292929"/>
<path d="M388.00,148.00 L389.07,133.35 L390.14,162.21 L391.21,150.04 L392.28,133.02 L393.35,161.56 L394.43,151.94 L395.50,132.66 L396.57,160.57 L397.64,153.55 L398.71,132.18 L399.78,159.15 L400.85,154.78 L401.92,131.49 L402.99,157.25 L404.06,155.55 L405.13,130.55 L406.20,154.84 L407.28,155.83 L408.35,129.37 L409.42,151.97 L410.49,155.65 L411.56,128.00 L412.63,148.70 L413.70,155.05 L414.77,126.50 L415.84,145.15 L416.91,154.15 L417.98,125.02 L419.06,141.46 L420.13,153.07 L421.20,123.68 L422.27,137.82 L423.34,151.97 L424.41,122.65 L425.48,134.39 L426.55,151.00 L427.62,122.09 L428.69,131.36 L429.76,150.32 L430.83,122.13 L431.91,128.89 L432.98,150.04 L434.05,122.88 L435.12,127.09 L436.19,150.26 L437.26,124.42 L438.33,126.06 L439.40,151.04 L440.47,126.77 L441.54,125.83 L442.61,152.38 L443.69,129.90 L444.76,126.38 L445.83,154.22 L446.90,133.74 L447.97,127.64 L449.04,156.47 L450.11,138.15 L451.18,129.49 L452.25,159.01 L453.32,142.97 L454.39,131.79 L455.46,161.65 L456.54,148.00 L457.61,134.35 L458.68,164.21 L459.75,153.03 L460.82,136.99 L461.89,166.51 L462.96,157.85 L464.03,139.53 L465.10,168.36 L466.17,162.26 L467.24,141.78 L468.31,169.62 L469.39,166.10 L470.46,143.62 L471.53,170.17 L472.60,169.23 L473.67,144.96 L474.74,169.94 L475.81,171.58 L476.88,145.74 L477.95,168.91 L479.02,173.12 L480.09,145.96 L481.17,167.11 L482.24,173.87 L483.31,145.68 L484.38,164.64 L485.45,173.91 L486.52,145.00 L487.59,161.61 L488.66,173.35 L489.73,144.03 L490.80,158.18 L491.87,172.32 L492.94,142.93 L494.02,154.54 L495.09,170.98 L496.16,141.85 L497.23,150.85 L498.30,169.50 L499.37,140.95 L500.44,147.30 L501.51,168.00 L502.58,140.35 L503.65,144.03 L504.72,166.63 L505.80,140.17 L506.87,141.16 L507.94,165.45 L509.01,140.45 L510.08,138.75 L511.15,164.51 L512.22,141.22 L513.29,136.85 L514.36,163.82 L515.43,142.45 L516.50,135.43 L517.57,163.34 L518.65,144.06 L519.72,134.44 L520.79,162.98 L521.86,145.96 L522.93,133.79 L524.00,162.65" fill="none" stroke="#e0e0e0" stroke-width="1.4"/>
<text x="387" y="86" fill="#666" font-family="monospace" font-size="9">03</text>
<rect x="532" y="72" width="152" height="152" fill="#0b0b0b" stroke="#444"/>
<line x1="540" y1="148.00" x2="676" y2="148.00" stroke="#292929"/>
<path d="M540.00,148.00 L541.07,161.44 L542.14,129.27 L543.21,161.49 L544.28,135.57 L545.35,160.94 L546.43,128.16 L547.50,159.78 L548.57,145.79 L549.64,131.81 L550.71,163.45 L551.78,130.70 L552.85,156.10 L553.92,130.23 L554.99,162.51 L556.06,130.40 L557.13,143.92 L558.20,157.45 L559.28,125.37 L560.35,157.71 L561.42,131.90 L562.49,157.39 L563.56,124.74 L564.63,156.51 L565.70,142.67 L566.77,128.84 L567.84,160.65 L568.91,128.07 L569.98,153.65 L571.06,127.96 L572.13,160.43 L573.20,128.51 L574.27,142.23 L575.34,155.97 L576.41,124.09 L577.48,156.63 L578.55,131.04 L579.62,156.74 L580.69,124.31 L581.76,156.30 L582.83,142.67 L583.91,129.06 L584.98,161.08 L586.05,128.71 L587.12,154.51 L588.19,129.03 L589.26,161.71 L590.33,130.00 L591.40,143.92 L592.47,157.85 L593.54,126.17 L594.61,158.90 L595.69,133.49 L596.76,159.37 L597.83,127.11 L598.90,159.26 L599.97,145.79 L601.04,132.33 L602.11,164.49 L603.18,132.26 L604.25,158.18 L605.32,132.82 L606.39,165.60 L607.46,133.99 L608.54,148.00 L609.61,162.01 L610.68,130.40 L611.75,163.18 L612.82,137.82 L613.89,163.74 L614.96,131.51 L616.03,163.67 L617.10,150.21 L618.17,136.74 L619.24,168.89 L620.31,136.63 L621.39,162.51 L622.46,137.10 L623.53,169.83 L624.60,138.15 L625.67,152.08 L626.74,166.00 L627.81,134.29 L628.88,166.97 L629.95,141.49 L631.02,167.29 L632.09,134.92 L633.17,166.94 L634.24,153.33 L635.31,139.70 L636.38,171.69 L637.45,139.26 L638.52,164.96 L639.59,139.37 L640.66,171.91 L641.73,140.03 L642.80,153.77 L643.87,167.49 L644.94,135.57 L646.02,168.04 L647.09,142.35 L648.16,167.93 L649.23,135.35 L650.30,167.16 L651.37,153.33 L652.44,139.49 L653.51,171.26 L654.58,138.61 L655.65,164.10 L656.72,138.29 L657.80,170.63 L658.87,138.55 L659.94,152.08 L661.01,165.60 L662.08,133.49 L663.15,165.77 L664.22,139.90 L665.29,165.30 L666.36,132.55 L667.43,164.19 L668.50,150.21 L669.57,136.22 L670.65,167.84 L671.72,135.06 L672.79,160.43 L673.86,134.51 L674.93,166.73 L676.00,134.56" fill="none" stroke="#e0e0e0" stroke-width="1.4"/>
<text x="539" y="86" fill="#666" font-family="monospace" font-size="9">04</text>
<rect x="76" y="224" width="152" height="152" fill="#0b0b0b" stroke="#444"/>
<line x1="84" y1="300.00" x2="220" y2="300.00" stroke="#292929"/>
<path d="M84.00,300.00 L85.07,293.04 L86.14,290.96 L87.21,292.07 L88.28,291.32 L89.35,288.33 L90.43,287.99 L91.50,292.71 L92.57,298.17 L93.64,299.03 L94.71,296.22 L95.78,294.85 L96.85,296.07 L97.92,295.26 L98.99,289.34 L100.06,292.06 L101.13,293.71 L102.20,291.26 L103.28,289.75 L104.35,291.07 L105.42,290.97 L106.49,285.80 L107.56,278.58 L108.63,275.22 L109.70,276.39 L110.77,277.26 L111.84,275.24 L112.91,274.11 L113.98,278.02 L115.06,277.16 L116.13,273.51 L117.20,274.69 L118.27,276.15 L119.34,274.69 L120.41,273.51 L121.48,277.16 L122.55,284.16 L123.62,288.49 L124.69,287.86 L125.76,286.44 L126.83,287.98 L127.91,289.93 L128.98,287.41 L130.05,285.80 L131.12,290.97 L132.19,291.07 L133.26,289.75 L134.33,291.26 L135.40,293.71 L136.47,292.06 L137.54,286.19 L138.61,281.77 L139.69,282.51 L140.76,285.32 L141.83,285.60 L142.90,284.49 L143.97,287.08 L145.04,292.71 L146.11,287.99 L147.18,288.33 L148.25,291.32 L149.32,292.07 L150.39,290.96 L151.46,293.04 L152.54,300.00 L153.61,306.96 L154.68,309.04 L155.75,307.93 L156.82,308.68 L157.89,311.67 L158.96,312.01 L160.03,307.29 L161.10,312.92 L162.17,315.51 L163.24,314.40 L164.31,314.68 L165.39,317.49 L166.46,318.23 L167.53,313.81 L168.60,307.94 L169.67,306.29 L170.74,308.74 L171.81,310.25 L172.88,308.93 L173.95,309.03 L175.02,314.20 L176.09,312.59 L177.17,310.07 L178.24,312.02 L179.31,313.56 L180.38,312.14 L181.45,311.51 L182.52,315.84 L183.59,322.84 L184.66,326.49 L185.73,325.31 L186.80,323.85 L187.87,325.31 L188.94,326.49 L190.02,322.84 L191.09,321.98 L192.16,325.89 L193.23,324.76 L194.30,322.74 L195.37,323.61 L196.44,324.78 L197.51,321.42 L198.58,314.20 L199.65,309.03 L200.72,308.93 L201.80,310.25 L202.87,308.74 L203.94,306.29 L205.01,307.94 L206.08,310.66 L207.15,304.74 L208.22,303.93 L209.29,305.15 L210.36,303.78 L211.43,300.97 L212.50,301.83 L213.57,307.29 L214.65,312.01 L215.72,311.67 L216.79,308.68 L217.86,307.93 L218.93,309.04 L220.00,306.96" fill="none" stroke="#e0e0e0" stroke-width="1.4"/>
<text x="83" y="238" fill="#666" font-family="monospace" font-size="9">05</text>
<rect x="228" y="224" width="152" height="152" fill="#0b0b0b" stroke="#444"/>
<line x1="236" y1="300.00" x2="372" y2="300.00" stroke="#292929"/>
<path d="M236.00,300.00 L237.07,288.60 L238.14,290.52 L239.21,289.34 L240.28,286.37 L241.35,297.00 L242.43,305.76 L243.50,301.72 L244.57,301.96 L245.64,302.59 L246.71,294.24 L247.78,302.00 L248.85,297.70 L249.92,298.68 L250.99,298.56 L252.06,285.06 L253.13,277.11 L254.20,280.31 L255.28,277.50 L256.35,277.41 L257.42,281.25 L258.49,274.63 L259.56,278.06 L260.63,274.89 L261.70,276.03 L262.77,289.41 L263.84,294.11 L264.91,290.13 L265.98,293.16 L267.06,290.42 L268.13,289.44 L269.20,293.15 L270.27,289.58 L271.34,293.15 L272.41,289.44 L273.48,275.70 L274.55,273.24 L275.62,276.64 L276.69,273.11 L277.76,278.34 L278.83,276.03 L279.91,274.89 L280.98,278.06 L282.05,274.63 L283.12,281.25 L284.19,295.08 L285.26,296.02 L286.33,294.31 L287.40,298.67 L288.47,291.93 L289.54,298.56 L290.61,298.68 L291.69,297.70 L292.76,302.00 L293.83,294.24 L294.90,282.77 L295.97,284.94 L297.04,286.74 L298.11,284.30 L299.18,294.67 L300.25,286.37 L301.32,289.34 L302.39,290.52 L303.46,288.60 L304.54,300.00 L305.61,311.40 L306.68,309.48 L307.75,310.66 L308.82,313.63 L309.89,305.33 L310.96,315.70 L312.03,313.26 L313.10,315.06 L314.17,317.23 L315.24,305.76 L316.31,298.00 L317.39,302.30 L318.46,301.32 L319.53,301.44 L320.60,308.07 L321.67,301.33 L322.74,305.69 L323.81,303.98 L324.88,304.92 L325.95,318.75 L327.02,325.37 L328.09,321.94 L329.17,325.11 L330.24,323.97 L331.31,321.66 L332.38,326.89 L333.45,323.36 L334.52,326.76 L335.59,324.30 L336.66,310.56 L337.73,306.85 L338.80,310.42 L339.87,306.85 L340.94,310.56 L342.02,309.58 L343.09,306.84 L344.16,309.87 L345.23,305.89 L346.30,310.59 L347.37,323.97 L348.44,325.11 L349.51,321.94 L350.58,325.37 L351.65,318.75 L352.72,322.59 L353.80,322.50 L354.87,319.69 L355.94,322.89 L357.01,314.94 L358.08,301.44 L359.15,301.32 L360.22,302.30 L361.29,298.00 L362.36,305.76 L363.43,297.41 L364.50,298.04 L365.57,298.28 L366.65,294.24 L367.72,303.00 L368.79,313.63 L369.86,310.66 L370.93,309.48 L372.00,311.40" fill="none" stroke="#e0e0e0" stroke-width="1.4"/>
<text x="235" y="238" fill="#666" font-family="monospace" font-size="9">06</text>
<rect x="380" y="224" width="152" height="152" fill="#0b0b0b" stroke="#444"/>
<line x1="388" y1="300.00" x2="524" y2="300.00" stroke="#292929"/>
<path d="M388.00,300.00 L389.07,283.14 L390.14,288.52 L391.21,282.33 L392.28,304.92 L393.35,312.26 L394.43,308.98 L395.50,310.09 L396.57,308.57 L397.64,308.10 L398.71,309.37 L399.78,303.23 L400.85,278.57 L401.92,283.19 L402.99,277.44 L404.06,291.35 L405.13,276.26 L406.20,282.10 L407.28,275.67 L408.35,297.06 L409.42,306.76 L410.49,302.70 L411.56,305.42 L412.63,302.04 L413.70,303.59 L414.77,303.99 L415.84,300.16 L416.91,274.91 L417.98,278.92 L419.06,274.18 L420.13,286.29 L421.20,273.25 L422.27,279.51 L423.34,273.25 L424.41,293.38 L425.48,305.60 L426.55,301.03 L427.62,305.27 L428.69,300.16 L429.76,303.99 L430.83,303.59 L431.91,302.04 L432.98,276.56 L434.05,279.77 L435.12,276.25 L436.19,286.53 L437.26,275.67 L438.33,282.10 L439.40,276.26 L440.47,294.92 L441.54,309.60 L442.61,304.64 L443.69,310.08 L444.76,303.23 L445.83,309.37 L446.90,308.10 L447.97,308.57 L449.04,283.03 L450.11,285.09 L451.18,282.77 L452.25,291.09 L453.32,282.33 L454.39,288.52 L455.46,283.14 L456.54,300.00 L457.61,316.86 L458.68,311.48 L459.75,317.67 L460.82,308.91 L461.89,317.23 L462.96,314.91 L464.03,316.97 L465.10,291.43 L466.17,291.90 L467.24,290.63 L468.31,296.77 L469.39,289.92 L470.46,295.36 L471.53,290.40 L472.60,305.08 L473.67,323.74 L474.74,317.90 L475.81,324.33 L476.88,313.47 L477.95,323.75 L479.02,320.23 L480.09,323.44 L481.17,297.96 L482.24,296.41 L483.31,296.01 L484.38,299.84 L485.45,294.73 L486.52,298.97 L487.59,294.40 L488.66,306.62 L489.73,326.75 L490.80,320.49 L491.87,326.75 L492.94,313.71 L494.02,325.82 L495.09,321.08 L496.16,325.09 L497.23,299.84 L498.30,296.01 L499.37,296.41 L500.44,297.96 L501.51,294.58 L502.58,297.30 L503.65,293.24 L504.72,302.94 L505.80,324.33 L506.87,317.90 L507.94,323.74 L509.01,308.65 L510.08,322.56 L511.15,316.81 L512.22,321.43 L513.29,296.77 L514.36,290.63 L515.43,291.90 L516.50,291.43 L517.57,289.91 L518.65,291.02 L519.72,287.74 L520.79,295.08 L521.86,317.67 L522.93,311.48 L524.00,316.86" fill="none" stroke="#e0e0e0" stroke-width="1.4"/>
<text x="387" y="238" fill="#666" font-family="monospace" font-size="9">07</text>
<rect x="532" y="224" width="152" height="152" fill="#0b0b0b" stroke="#444"/>
<line x1="540" y1="300.00" x2="676" y2="300.00" stroke="#292929"/>
<path d="M540.00,300.00 L541.07,283.48 L542.14,283.81 L543.21,297.19 L544.28,315.68 L545.35,313.59 L546.43,302.23 L547.50,315.36 L548.57,312.14 L549.64,303.33 L550.71,279.57 L551.78,283.30 L552.85,289.18 L553.92,278.55 L554.99,283.18 L556.06,286.79 L557.13,314.10 L558.20,308.35 L559.28,306.48 L560.35,313.58 L561.42,307.37 L562.49,307.46 L563.56,276.81 L564.63,282.97 L565.70,280.92 L566.77,276.75 L567.84,282.94 L568.91,279.50 L569.98,311.69 L571.06,305.66 L572.13,310.15 L573.20,310.95 L574.27,305.54 L575.34,310.95 L576.41,278.36 L577.48,282.92 L578.55,276.98 L579.62,279.50 L580.69,282.94 L581.76,276.75 L582.83,308.41 L583.91,306.59 L584.98,313.01 L586.05,307.46 L587.12,307.37 L588.19,313.58 L589.26,284.59 L590.33,283.09 L591.40,277.73 L592.47,286.79 L593.54,283.18 L594.61,278.55 L595.69,304.41 L596.76,310.77 L597.83,314.99 L598.90,303.33 L599.97,312.14 L601.04,315.36 L602.11,294.42 L603.18,283.61 L604.25,282.07 L605.32,297.19 L606.39,283.81 L607.46,283.48 L608.54,300.00 L609.61,316.52 L610.68,316.19 L611.75,302.81 L612.82,317.93 L613.89,316.39 L614.96,305.58 L616.03,284.64 L617.10,287.86 L618.17,296.67 L619.24,285.01 L620.31,289.23 L621.39,295.59 L622.46,321.45 L623.53,316.82 L624.60,313.21 L625.67,322.27 L626.74,316.91 L627.81,315.41 L628.88,286.42 L629.95,292.63 L631.02,292.54 L632.09,286.99 L633.17,293.41 L634.24,291.59 L635.31,323.25 L636.38,317.06 L637.45,320.50 L638.52,323.02 L639.59,317.08 L640.66,321.64 L641.73,289.05 L642.80,294.46 L643.87,289.05 L644.94,289.85 L646.02,294.34 L647.09,288.31 L648.16,320.50 L649.23,317.06 L650.30,323.25 L651.37,319.08 L652.44,317.03 L653.51,323.19 L654.58,292.54 L655.65,292.63 L656.72,286.42 L657.80,293.52 L658.87,291.65 L659.94,285.90 L661.01,313.21 L662.08,316.82 L663.15,321.45 L664.22,310.82 L665.29,316.70 L666.36,320.43 L667.43,296.67 L668.50,287.86 L669.57,284.64 L670.65,297.77 L671.72,286.41 L672.79,284.32 L673.86,302.81 L674.93,316.19 L676.00,316.52" fill="none" stroke="#e0e0e0" stroke-width="1.4"/>
<text x="539" y="238" fill="#666" font-family="monospace" font-size="9">08</text>
<rect x="76" y="376" width="152" height="152" fill="#0b0b0b" stroke="#444"/>
<line x1="84" y1="452.00" x2="220" y2="452.00" stroke="#292929"/>
<path d="M84.00,447.45 L85.07,443.99 L86.14,446.35 L87.21,454.65 L88.28,454.77 L89.35,451.96 L90.43,453.64 L91.50,448.64 L92.57,438.76 L93.64,437.57 L94.71,435.88 L95.78,437.62 L96.85,434.73 L97.92,435.51 L98.99,444.09 L100.06,446.14 L101.13,443.02 L102.20,444.71 L103.28,441.78 L104.35,431.86 L105.42,429.86 L106.49,430.91 L107.56,427.90 L108.63,432.37 L109.70,440.68 L110.77,440.03 L111.84,438.58 L112.91,440.76 L113.98,434.89 L115.06,426.46 L116.13,426.61 L117.20,428.28 L118.27,425.68 L119.34,430.19 L120.41,439.13 L121.48,439.25 L122.55,438.05 L123.62,440.76 L124.69,435.73 L125.76,427.53 L126.83,427.42 L127.91,429.26 L128.98,429.90 L130.05,428.51 L131.12,436.15 L132.19,443.78 L133.26,442.49 L134.33,443.35 L135.40,445.42 L136.47,438.36 L137.54,437.16 L138.61,446.76 L139.69,447.52 L140.76,446.96 L141.83,450.27 L142.90,445.82 L143.97,438.18 L145.04,439.69 L146.11,441.51 L147.18,440.09 L148.25,443.41 L149.32,441.91 L150.39,448.55 L151.46,457.73 L152.54,457.73 L153.61,457.97 L154.68,461.09 L155.75,455.59 L156.82,448.78 L157.89,449.80 L158.96,453.00 L160.03,451.43 L161.10,455.19 L162.17,465.34 L163.24,467.61 L164.31,466.37 L165.39,469.73 L166.46,466.80 L167.53,458.40 L168.60,457.76 L169.67,465.83 L170.74,473.31 L171.81,471.90 L172.88,472.91 L173.95,474.69 L175.02,467.23 L176.09,461.56 L177.17,464.28 L178.24,463.77 L179.31,463.46 L180.38,472.25 L181.45,477.78 L182.52,475.48 L183.59,477.00 L184.66,477.11 L185.73,468.32 L186.80,463.84 L187.87,466.40 L188.94,464.60 L190.02,465.32 L191.09,463.83 L192.16,471.49 L193.23,477.50 L194.30,474.95 L195.37,475.42 L196.44,475.84 L197.51,467.06 L198.58,461.08 L199.65,463.04 L200.72,462.41 L201.80,460.82 L202.87,459.69 L203.94,467.61 L205.01,472.08 L206.08,468.85 L207.15,469.54 L208.22,468.65 L209.29,458.94 L210.36,453.77 L211.43,458.30 L212.50,465.86 L213.57,464.25 L214.65,462.50 L215.72,463.88 L216.79,456.80 L217.86,447.95 L218.93,448.28 L220.00,447.76" fill="none" stroke="#e0e0e0" stroke-width="1.4"/>
<text x="83" y="390" fill="#666" font-family="monospace" font-size="9">09</text>
<rect x="228" y="376" width="152" height="152" fill="#0b0b0b" stroke="#444"/>
<line x1="236" y1="452.00" x2="372" y2="452.00" stroke="#292929"/>
<path d="M236.00,441.89 L237.07,448.09 L238.14,461.16 L239.21,456.26 L240.28,459.52 L241.35,446.27 L242.43,436.53 L243.50,439.11 L244.57,438.41 L245.64,434.06 L246.71,442.92 L247.78,454.00 L248.85,449.24 L249.92,452.53 L250.99,437.45 L252.06,430.48 L253.13,431.23 L254.20,431.95 L255.28,448.25 L256.35,445.68 L257.42,447.75 L258.49,440.56 L259.56,426.02 L260.63,429.12 L261.70,425.86 L262.77,433.18 L263.84,446.39 L264.91,442.06 L265.98,445.99 L267.06,432.94 L268.13,424.49 L269.20,424.93 L270.27,427.13 L271.34,425.57 L272.41,442.63 L273.48,443.38 L274.55,444.23 L275.62,441.43 L276.69,444.95 L277.76,443.36 L278.83,446.08 L279.91,440.03 L280.98,426.05 L282.05,430.45 L283.12,426.86 L284.19,439.21 L285.26,428.08 L286.33,438.40 L287.40,450.66 L288.47,447.25 L289.54,451.85 L290.61,438.00 L291.69,432.52 L292.76,436.25 L293.83,433.19 L294.90,444.41 L295.97,456.20 L297.04,453.07 L298.11,457.69 L299.18,443.51 L300.25,438.90 L301.32,460.31 L302.39,457.10 L303.46,462.03 L304.54,450.63 L305.61,442.34 L306.68,446.63 L307.75,444.26 L308.82,461.31 L309.89,465.39 L310.96,465.34 L312.03,465.74 L313.10,449.50 L314.17,451.66 L315.24,450.33 L316.31,456.72 L317.39,452.98 L318.46,470.78 L319.53,470.99 L320.60,473.06 L321.67,469.35 L322.74,454.31 L323.81,458.37 L324.88,458.65 L325.95,455.97 L327.02,464.73 L328.09,478.08 L329.17,474.35 L330.24,478.80 L331.31,465.65 L332.38,458.25 L333.45,479.60 L334.52,475.67 L335.59,479.93 L336.66,466.70 L337.73,458.94 L338.80,461.96 L339.87,459.31 L340.94,458.56 L342.02,462.17 L343.09,458.19 L344.16,468.65 L345.23,479.26 L346.30,475.11 L347.37,478.58 L348.44,463.13 L349.51,460.07 L350.58,456.62 L351.65,472.39 L352.72,475.00 L353.80,473.71 L354.87,472.61 L355.94,455.01 L357.01,462.33 L358.08,452.40 L359.15,455.23 L360.22,451.27 L361.29,466.52 L362.36,469.43 L363.43,467.60 L364.50,466.75 L365.57,448.35 L366.65,451.87 L367.72,466.68 L368.79,462.35 L369.86,465.19 L370.93,454.40 L372.00,442.05" fill="none" stroke="#e0e0e0" stroke-width="1.4"/>
<text x="235" y="390" fill="#666" font-family="monospace" font-size="9">10</text>
<rect x="380" y="376" width="152" height="152" fill="#0b0b0b" stroke="#444"/>
<line x1="388" y1="452.00" x2="524" y2="452.00" stroke="#292929"/>
<path d="M388.00,454.55 L389.07,465.35 L390.14,465.93 L391.21,449.53 L392.28,435.38 L393.35,434.91 L394.43,448.00 L395.50,432.02 L396.57,459.61 L397.64,458.51 L398.71,463.65 L399.78,436.31 L400.85,434.82 L401.92,430.34 L402.99,459.56 L404.06,455.42 L405.13,460.63 L406.20,431.11 L407.28,433.39 L408.35,427.67 L409.42,448.05 L410.49,456.39 L411.56,458.46 L412.63,439.71 L413.70,428.58 L414.77,427.48 L415.84,427.86 L416.91,440.21 L417.98,457.14 L419.06,455.43 L420.13,445.22 L421.20,458.12 L422.27,434.30 L423.34,429.30 L424.41,425.50 L425.48,447.48 L426.55,454.77 L427.62,430.25 L428.69,458.51 L429.76,452.91 L430.83,455.31 L431.91,426.54 L432.98,432.42 L434.05,428.00 L435.12,444.49 L436.19,458.11 L437.26,458.56 L438.33,444.99 L439.40,429.67 L440.47,456.65 L441.54,454.95 L442.61,429.20 L443.69,435.01 L444.76,435.70 L445.83,463.60 L446.90,458.44 L447.97,459.85 L449.04,432.07 L450.11,438.30 L451.18,436.40 L452.25,465.95 L453.32,452.40 L454.39,465.05 L455.46,466.25 L456.54,451.68 L457.61,437.68 L458.68,438.60 L459.75,451.83 L460.82,442.94 L461.89,470.91 L462.96,465.70 L464.03,467.55 L465.10,439.52 L466.17,445.72 L467.24,470.67 L468.31,441.57 L469.39,447.27 L470.46,443.22 L471.53,473.35 L472.60,469.09 L473.67,448.84 L474.74,444.37 L475.81,474.41 L476.88,470.47 L477.95,476.14 L479.02,446.97 L480.09,444.97 L481.17,474.37 L482.24,471.95 L483.31,477.87 L484.38,449.61 L485.45,450.97 L486.52,446.09 L487.59,451.67 L488.66,447.71 L489.73,477.42 L490.80,472.45 L491.87,477.28 L492.94,454.13 L494.02,478.55 L495.09,473.60 L496.16,471.30 L497.23,445.11 L498.30,450.32 L499.37,445.16 L500.44,450.66 L501.51,447.33 L502.58,476.47 L503.65,470.77 L504.72,474.63 L505.80,447.49 L506.87,452.03 L507.94,475.61 L509.01,470.59 L510.08,467.39 L511.15,441.42 L512.22,468.92 L513.29,467.66 L514.36,440.16 L515.43,445.33 L516.50,444.03 L517.57,471.75 L518.65,465.60 L519.72,470.85 L520.79,442.49 L521.86,442.35 L522.93,436.32 L524.00,462.48" fill="none" stroke="#e0e0e0" stroke-width="1.4"/>
<text x="387" y="390" fill="#666" font-family="monospace" font-size="9">11</text>
<rect x="532" y="376" width="152" height="152" fill="#0b0b0b" stroke="#444"/>
<line x1="540" y1="452.00" x2="676" y2="452.00" stroke="#292929"/>
<path d="M540.00,469.50 L541.07,464.55 L542.14,453.42 L543.21,436.52 L544.28,432.46 L545.35,466.12 L546.43,440.28 L547.50,466.76 L548.57,466.69 L549.64,438.86 L550.71,437.67 L551.78,442.70 L552.85,464.28 L553.92,466.27 L554.99,434.62 L556.06,436.57 L557.13,430.37 L558.20,465.27 L559.28,460.43 L560.35,449.16 L561.42,432.64 L562.49,431.50 L563.56,428.63 L564.63,460.78 L565.70,457.86 L566.77,456.62 L567.84,446.85 L568.91,432.30 L569.98,428.01 L571.06,462.53 L572.13,458.07 L573.20,443.98 L574.27,460.36 L575.34,464.20 L576.41,430.21 L577.48,434.30 L578.55,428.15 L579.62,459.89 L580.69,457.61 L581.76,457.28 L582.83,429.18 L583.91,464.62 L584.98,429.99 L586.05,434.67 L587.12,441.26 L588.19,462.72 L589.26,465.30 L590.33,433.38 L591.40,436.31 L592.47,437.51 L593.54,465.23 L594.61,465.29 L595.69,459.90 L596.76,462.18 L597.83,431.15 L598.90,433.54 L599.97,455.86 L601.04,443.58 L602.11,465.85 L603.18,468.29 L604.25,437.26 L605.32,439.60 L606.39,443.41 L607.46,439.74 L608.54,436.01 L609.61,470.25 L610.68,466.73 L611.75,441.09 L612.82,437.98 L613.89,471.33 L614.96,468.38 L616.03,449.90 L617.10,436.77 L618.17,472.08 L619.24,467.72 L620.31,456.33 L621.39,440.77 L622.46,445.68 L623.53,443.94 L624.60,440.91 L625.67,473.99 L626.74,471.09 L627.81,448.51 L628.88,472.65 L629.95,474.22 L631.02,444.42 L632.09,445.56 L633.17,444.50 L634.24,445.54 L635.31,442.15 L636.38,475.46 L637.45,472.22 L638.52,453.85 L639.59,448.75 L640.66,474.09 L641.73,474.95 L642.80,446.08 L643.87,446.21 L644.94,450.96 L646.02,445.49 L647.09,441.06 L648.16,475.50 L649.23,471.25 L650.30,468.24 L651.37,439.80 L652.44,440.25 L653.51,466.05 L654.58,468.25 L655.65,438.94 L656.72,468.60 L657.80,467.52 L658.87,468.63 L659.94,438.13 L661.01,441.61 L662.08,437.28 L663.15,471.47 L664.22,466.92 L665.29,461.51 L666.36,469.03 L667.43,436.13 L668.50,438.82 L669.57,458.19 L670.65,465.90 L671.72,437.48 L672.79,434.96 L673.86,466.13 L674.93,463.67 L676.00,463.23" fill="none" stroke="#e0e0e0" stroke-width="1.4"/>
<text x="539" y="390" fill="#666" font-family="monospace" font-size="9">12</text>
<rect x="76" y="528" width="152" height="152" fill="#0b0b0b" stroke="#444"/>
<line x1="84" y1="604.00" x2="220" y2="604.00" stroke="#292929"/>
<path d="M84.00,598.12 L85.07,597.73 L86.14,597.40 L87.21,597.13 L88.28,596.91 L89.35,596.73 L90.43,596.59 L91.50,596.48 L92.57,589.51 L93.64,588.77 L94.71,588.09 L95.78,587.47 L96.85,586.91 L97.92,586.40 L98.99,585.93 L100.06,585.50 L101.13,597.42 L102.20,596.74 L103.28,596.04 L104.35,595.34 L105.42,594.64 L106.49,593.96 L107.56,593.29 L108.63,592.65 L109.70,579.73 L110.77,579.48 L111.84,579.31 L112.91,579.23 L113.98,579.23 L115.06,579.29 L116.13,579.41 L117.20,579.59 L118.27,589.52 L119.34,589.56 L120.41,589.69 L121.48,589.90 L122.55,590.19 L123.62,590.56 L124.69,590.99 L125.76,591.49 L126.83,591.81 L127.91,591.67 L128.98,591.51 L130.05,591.34 L131.12,591.17 L132.19,590.99 L133.26,590.82 L134.33,590.66 L135.40,585.10 L136.47,585.98 L137.54,586.87 L138.61,587.77 L139.69,588.66 L140.76,589.55 L141.83,590.43 L142.90,591.28 L143.97,596.40 L145.04,597.97 L146.11,599.55 L147.18,601.12 L148.25,602.67 L149.32,604.20 L150.39,605.69 L151.46,607.13 L152.54,607.60 L153.61,608.51 L154.68,609.46 L155.75,610.44 L156.82,611.45 L157.89,612.49 L158.96,613.54 L160.03,614.61 L161.10,617.12 L162.17,617.94 L163.24,618.69 L164.31,619.35 L165.39,619.93 L166.46,620.41 L167.53,620.80 L168.60,621.10 L169.67,621.30 L170.74,621.41 L171.81,621.43 L172.88,621.37 L173.95,621.23 L175.02,621.02 L176.09,620.74 L177.17,620.40 L178.24,625.45 L179.31,626.01 L180.38,626.53 L181.45,627.00 L182.52,627.41 L183.59,627.75 L184.66,628.01 L185.73,628.19 L186.80,621.40 L187.87,620.63 L188.94,619.83 L190.02,619.01 L191.09,618.17 L192.16,617.32 L193.23,616.48 L194.30,615.64 L195.37,625.45 L196.44,625.33 L197.51,625.17 L198.58,624.97 L199.65,624.71 L200.72,624.39 L201.80,623.99 L202.87,623.53 L203.94,610.67 L205.01,609.78 L206.08,608.87 L207.15,607.94 L208.22,607.00 L209.29,606.06 L210.36,605.14 L211.43,604.23 L212.50,605.03 L213.57,604.71 L214.65,604.42 L215.72,604.18 L216.79,603.96 L217.86,603.78 L218.93,603.61 L220.00,603.46" fill="none" stroke="#e0e0e0" stroke-width="1.4"/>
<text x="83" y="542" fill="#666" font-family="monospace" font-size="9">13</text>
<rect x="228" y="528" width="152" height="152" fill="#0b0b0b" stroke="#444"/>
<line x1="236" y1="604.00" x2="372" y2="604.00" stroke="#292929"/>
<path d="M236.00,595.90 L237.07,595.98 L238.14,596.14 L239.21,596.37 L240.28,596.65 L241.35,596.98 L242.43,597.34 L243.50,586.15 L244.57,585.22 L245.64,584.40 L246.71,583.69 L247.78,583.08 L248.85,582.57 L249.92,603.24 L250.99,602.74 L252.06,602.17 L253.13,601.53 L254.20,600.83 L255.28,600.09 L256.35,599.31 L257.42,578.21 L258.49,578.09 L259.56,578.04 L260.63,578.04 L261.70,578.07 L262.77,578.14 L263.84,593.02 L264.91,592.85 L265.98,592.79 L267.06,592.83 L268.13,592.97 L269.20,593.20 L270.27,592.40 L271.34,591.48 L272.41,590.53 L273.48,589.56 L274.55,588.58 L275.62,587.60 L276.69,586.65 L277.76,578.56 L278.83,579.17 L279.91,579.79 L280.98,580.38 L282.05,580.96 L283.12,581.50 L284.19,589.09 L285.26,590.81 L286.33,592.53 L287.40,594.26 L288.47,595.97 L289.54,597.65 L290.61,599.28 L291.69,600.04 L292.76,600.85 L293.83,601.75 L294.90,602.72 L295.97,603.77 L297.04,604.88 L298.11,608.42 L299.18,608.91 L300.25,609.29 L301.32,609.58 L302.39,609.77 L303.46,609.86 L304.54,613.60 L305.61,614.16 L306.68,614.60 L307.75,614.94 L308.82,615.16 L309.89,615.28 L310.96,615.28 L312.03,619.33 L313.10,620.35 L314.17,621.28 L315.24,622.12 L316.31,622.85 L317.39,623.46 L318.46,613.04 L319.53,612.53 L320.60,612.01 L321.67,611.50 L322.74,611.00 L323.81,610.53 L324.88,610.11 L325.95,628.01 L327.02,628.68 L328.09,629.24 L329.17,629.68 L330.24,629.99 L331.31,630.17 L332.38,611.36 L333.45,611.22 L334.52,611.02 L335.59,610.78 L336.66,610.52 L337.73,610.23 L338.80,613.36 L339.87,614.28 L340.94,615.23 L342.02,616.20 L343.09,617.18 L344.16,618.16 L345.23,619.11 L346.30,629.88 L347.37,629.80 L348.44,629.60 L349.51,629.29 L350.58,628.85 L351.65,628.28 L352.72,606.45 L353.80,605.67 L354.87,604.93 L355.94,604.23 L357.01,603.59 L358.08,603.02 L359.15,602.52 L360.22,602.43 L361.29,602.04 L362.36,601.67 L363.43,601.29 L364.50,600.89 L365.57,600.46 L366.65,615.90 L367.72,614.76 L368.79,613.65 L369.86,612.58 L370.93,611.57 L372.00,610.61" fill="none" stroke="#e0e0e0" stroke-width="1.4"/>
<text x="235" y="542" fill="#666" font-family="monospace" font-size="9">14</text>
<rect x="380" y="528" width="152" height="152" fill="#0b0b0b" stroke="#444"/>
<line x1="388" y1="604.00" x2="524" y2="604.00" stroke="#292929"/>
<path d="M388.00,593.42 L389.07,594.55 L390.14,595.78 L391.21,597.10 L392.28,598.47 L393.35,599.89 L394.43,582.00 L395.50,581.73 L396.57,581.59 L397.64,581.56 L398.71,581.61 L399.78,615.58 L400.85,614.90 L401.92,614.11 L402.99,613.24 L404.06,612.30 L405.13,579.36 L406.20,579.60 L407.28,579.88 L408.35,580.17 L409.42,580.46 L410.49,580.73 L411.56,604.68 L412.63,604.56 L413.70,604.57 L414.77,604.71 L415.84,604.96 L416.91,601.69 L417.98,599.86 L419.06,597.95 L420.13,596.00 L421.20,594.03 L422.27,579.31 L423.34,579.80 L424.41,580.24 L425.48,580.61 L426.55,580.90 L427.62,581.11 L428.69,593.85 L429.76,595.96 L430.83,598.06 L431.91,600.13 L432.98,602.12 L434.05,604.93 L435.12,605.32 L436.19,605.84 L437.26,606.48 L438.33,607.23 L439.40,613.46 L440.47,613.89 L441.54,614.19 L442.61,614.34 L443.69,614.33 L444.76,614.16 L445.83,613.82 L446.90,613.32 L447.97,612.67 L449.04,611.86 L450.11,610.92 L451.18,616.72 L452.25,617.82 L453.32,618.86 L454.39,619.81 L455.46,620.66 L456.54,593.42 L457.61,592.41 L458.68,591.54 L459.75,590.82 L460.82,590.26 L461.89,589.86 L462.96,622.89 L464.03,623.96 L465.10,624.94 L466.17,625.82 L467.24,626.57 L468.31,592.85 L469.39,592.75 L470.46,592.71 L471.53,592.73 L472.60,592.85 L473.67,601.34 L474.74,603.40 L475.81,605.54 L476.88,607.74 L477.95,609.98 L479.02,612.23 L480.09,629.52 L481.17,630.31 L482.24,631.01 L483.31,631.58 L484.38,632.01 L485.45,597.96 L486.52,597.52 L487.59,597.12 L488.66,596.78 L489.73,596.52 L490.80,598.50 L491.87,599.10 L492.94,599.70 L494.02,600.26 L495.09,600.78 L496.16,601.22 L497.23,626.42 L498.30,625.82 L499.37,625.29 L500.44,624.83 L501.51,624.45 L502.58,622.18 L503.65,620.17 L504.72,618.05 L505.80,615.82 L506.87,613.53 L507.94,595.22 L509.01,595.44 L510.08,595.66 L511.15,595.85 L512.22,596.01 L513.29,596.11 L514.36,590.53 L515.43,590.30 L516.50,590.17 L517.57,590.13 L518.65,590.15 L519.72,624.14 L520.79,623.58 L521.86,622.87 L522.93,621.98 L524.00,620.91" fill="none" stroke="#e0e0e0" stroke-width="1.4"/>
<text x="387" y="542" fill="#666" font-family="monospace" font-size="9">15</text>
<rect x="532" y="528" width="152" height="152" fill="#0b0b0b" stroke="#444"/>
<line x1="540" y1="604.00" x2="676" y2="604.00" stroke="#292929"/>
<path d="M540.00,595.78 L541.07,597.44 L542.14,599.19 L543.21,601.01 L544.28,602.88 L545.35,583.59 L546.43,583.17 L547.50,582.94 L548.57,582.86 L549.64,582.92 L550.71,621.60 L551.78,620.76 L552.85,619.85 L553.92,618.90 L554.99,584.67 L556.06,585.14 L557.13,585.60 L558.20,586.02 L559.28,586.39 L560.35,612.89 L561.42,612.85 L562.49,612.95 L563.56,613.18 L564.63,608.91 L565.70,606.79 L566.77,604.60 L567.84,602.36 L568.91,600.08 L569.98,585.48 L571.06,585.83 L572.13,586.10 L573.20,586.26 L574.27,598.95 L575.34,601.15 L576.41,603.34 L577.48,605.49 L578.55,607.57 L579.62,611.79 L580.69,611.99 L581.76,612.32 L582.83,612.79 L583.91,613.37 L584.98,619.54 L586.05,619.15 L587.12,618.58 L588.19,617.82 L589.26,616.88 L590.33,615.76 L591.40,614.48 L592.47,613.04 L593.54,611.46 L594.61,618.90 L595.69,619.85 L596.76,620.76 L597.83,621.60 L598.90,592.75 L599.97,591.21 L601.04,589.81 L602.11,588.59 L603.18,587.54 L604.25,624.02 L605.32,624.63 L606.39,625.10 L607.46,625.41 L608.54,588.56 L609.61,588.16 L610.68,587.80 L611.75,587.50 L612.82,587.26 L613.89,598.18 L614.96,600.50 L616.03,602.90 L617.10,605.36 L618.17,607.84 L619.24,628.42 L620.31,628.95 L621.39,629.33 L622.46,629.53 L623.53,592.44 L624.60,591.98 L625.67,591.55 L626.74,591.16 L627.81,590.85 L628.88,594.24 L629.95,595.13 L631.02,595.97 L632.09,596.74 L633.17,625.03 L634.24,624.70 L635.31,624.47 L636.38,624.33 L637.45,624.30 L638.52,620.22 L639.59,618.25 L640.66,616.17 L641.73,614.03 L642.80,595.00 L643.87,595.71 L644.94,596.38 L646.02,597.00 L647.09,597.54 L648.16,592.19 L649.23,592.64 L650.30,593.15 L651.37,593.71 L652.44,594.28 L653.51,631.07 L654.58,631.17 L655.65,631.11 L656.72,630.87 L657.80,596.65 L658.87,596.88 L659.94,597.00 L661.01,596.99 L662.08,596.84 L663.15,596.57 L664.22,596.16 L665.29,595.62 L666.36,594.97 L667.43,591.21 L668.50,590.22 L669.57,589.25 L670.65,588.34 L671.72,587.50 L672.79,589.20 L673.86,587.92 L674.93,586.84 L676.00,585.95" fill="none" stroke="#e0e0e0" stroke-width="1.4"/>
<text x="539" y="542" fill="#666" font-family="monospace" font-size="9">16</text>
</svg>
