<svg xmlns="http://www.w3.org/2000/svg" width="1000" height="820" viewBox="0 0 1000 820" role="img" aria-labelledby="title desc">
  <title id="title">s3g Delay Processor GUI vector rendering</title>
  <desc id="desc">Vector rendering of the Delay Processor CLAP interface.</desc>
  <defs>
    <style>
      text { font-family: Menlo, Consolas, monospace; letter-spacing: 0; }
      .bg { fill: #0c0c0c; }
      .panel { fill: #1d1d1d; stroke: #636363; stroke-width: 1; }
      .strip { fill: #131313; }
      .field { fill: #101010; stroke: #636363; stroke-width: 1; }
      .ink { fill: #f0f0f0; font-size: 10px; }
      .title { fill: #f0f0f0; font-size: 10.5px; }
      .head { fill: #d1d1d1; font-size: 10px; font-weight: 700; }
      .dim { fill: #9e9e9e; font-size: 10px; }
      .line { stroke: #b8b8b8; stroke-width: 1.5; fill: none; }
      .soft { stroke: #555; stroke-width: 1; fill: none; }
      .node { fill: #d1d1d1; stroke: #0c0c0c; stroke-width: 2; }
      .slider-bg { fill: #131313; stroke: #636363; stroke-width: 1; }
      .slider-fill { fill: #8f8f8f; }
      .heat0 { fill: #0a185e; }
      .heat1 { fill: #0042a3; }
      .heat2 { fill: #0092e8; }
      .heat3 { fill: #26c5d9; }
      .heat4 { fill: #ffe82a; }
      .heat5 { fill: #ff8a18; }
      .heat6 { fill: #ee0000; }
    </style>
    <g id="guiHeatBlock">
      <rect fill="#0a185e" x="0" y="0" width="12" height="12"/><rect fill="#0042a3" x="12" y="0" width="12" height="12"/><rect fill="#0092e8" x="24" y="0" width="12" height="12"/><rect fill="#26c5d9" x="36" y="0" width="12" height="12"/><rect fill="#ffe82a" x="48" y="0" width="12" height="12"/><rect fill="#ff8a18" x="60" y="0" width="12" height="12"/><rect fill="#ee0000" x="72" y="0" width="12" height="12"/><rect fill="#ff8a18" x="84" y="0" width="12" height="12"/><rect fill="#26c5d9" x="96" y="0" width="12" height="12"/><rect fill="#0042a3" x="108" y="0" width="12" height="12"/><rect fill="#0a185e" x="120" y="0" width="12" height="12"/><rect fill="#0042a3" x="132" y="0" width="12" height="12"/><rect fill="#0092e8" x="144" y="0" width="12" height="12"/><rect fill="#26c5d9" x="156" y="0" width="12" height="12"/><rect fill="#0092e8" x="168" y="0" width="12" height="12"/><rect fill="#0042a3" x="180" y="0" width="12" height="12"/>
      <rect fill="#0042a3" x="0" y="12" width="12" height="12"/><rect fill="#0092e8" x="12" y="12" width="12" height="12"/><rect fill="#26c5d9" x="24" y="12" width="12" height="12"/><rect fill="#ffe82a" x="36" y="12" width="12" height="12"/><rect fill="#ff8a18" x="48" y="12" width="12" height="12"/><rect fill="#ee0000" x="60" y="12" width="12" height="12"/><rect fill="#ff8a18" x="72" y="12" width="12" height="12"/><rect fill="#ffe82a" x="84" y="12" width="12" height="12"/><rect fill="#26c5d9" x="96" y="12" width="12" height="12"/><rect fill="#0092e8" x="108" y="12" width="12" height="12"/><rect fill="#0042a3" x="120" y="12" width="12" height="12"/><rect fill="#0092e8" x="132" y="12" width="12" height="12"/><rect fill="#ffe82a" x="144" y="12" width="12" height="12"/><rect fill="#ee0000" x="156" y="12" width="12" height="12"/><rect fill="#ffe82a" x="168" y="12" width="12" height="12"/><rect fill="#0092e8" x="180" y="12" width="12" height="12"/>
      <rect fill="#0092e8" x="0" y="24" width="12" height="12"/><rect fill="#26c5d9" x="12" y="24" width="12" height="12"/><rect fill="#ffe82a" x="24" y="24" width="12" height="12"/><rect fill="#ff8a18" x="36" y="24" width="12" height="12"/><rect fill="#ee0000" x="48" y="24" width="12" height="12"/><rect fill="#ff8a18" x="60" y="24" width="12" height="12"/><rect fill="#ffe82a" x="72" y="24" width="12" height="12"/><rect fill="#26c5d9" x="84" y="24" width="12" height="12"/><rect fill="#0092e8" x="96" y="24" width="12" height="12"/><rect fill="#0042a3" x="108" y="24" width="12" height="12"/><rect fill="#0092e8" x="120" y="24" width="12" height="12"/><rect fill="#26c5d9" x="132" y="24" width="12" height="12"/><rect fill="#ffe82a" x="144" y="24" width="12" height="12"/><rect fill="#ff8a18" x="156" y="24" width="12" height="12"/><rect fill="#ffe82a" x="168" y="24" width="12" height="12"/><rect fill="#0092e8" x="180" y="24" width="12" height="12"/>
      <rect fill="#0042a3" x="0" y="36" width="12" height="12"/><rect fill="#0092e8" x="12" y="36" width="12" height="12"/><rect fill="#26c5d9" x="24" y="36" width="12" height="12"/><rect fill="#ffe82a" x="36" y="36" width="12" height="12"/><rect fill="#ff8a18" x="48" y="36" width="12" height="12"/><rect fill="#ffe82a" x="60" y="36" width="12" height="12"/><rect fill="#26c5d9" x="72" y="36" width="12" height="12"/><rect fill="#0092e8" x="84" y="36" width="12" height="12"/><rect fill="#0042a3" x="96" y="36" width="12" height="12"/><rect fill="#0a185e" x="108" y="36" width="12" height="12"/><rect fill="#0042a3" x="120" y="36" width="12" height="12"/><rect fill="#0092e8" x="132" y="36" width="12" height="12"/><rect fill="#26c5d9" x="144" y="36" width="12" height="12"/><rect fill="#ffe82a" x="156" y="36" width="12" height="12"/><rect fill="#26c5d9" x="168" y="36" width="12" height="12"/><rect fill="#0042a3" x="180" y="36" width="12" height="12"/>
    </g>
    <clipPath id="topoHeatClip">
      <rect x="0" y="0" width="540" height="136"/>
    </clipPath>
  </defs>

  <rect class="bg" width="1000" height="820"/>
  <text class="title" x="18" y="23">s3g DELAY PROCESSOR</text>
  <text class="dim" x="808" y="24">PK -12.4</text>
  <text class="dim" x="946" y="24">8CH</text>

  <rect class="panel" x="12" y="34" width="620" height="774"/>
  <rect class="strip" x="12" y="34" width="620" height="21"/>
  <rect fill="#d1d1d1" x="12" y="34" width="620" height="2"/>
  <text class="head" x="18" y="49">TOPOLOGY</text>
  <g class="dim">
    <rect class="slider-bg" x="478" y="38" width="42" height="14"/>
    <rect class="slider-bg" x="526" y="38" width="42" height="14"/>
    <rect class="slider-bg" x="574" y="38" width="42" height="14"/>
    <text x="486" y="49">TOP</text>
    <text x="535" y="49">SIDE</text>
    <text x="582" y="49">3/4</text>
  </g>

  <rect class="field" x="22" y="62" width="600" height="720"/>
  <rect class="field" x="52" y="106" width="540" height="330"/>
  <g transform="translate(150 122) scale(1.32)">
    <g stroke="#6f6f6f" stroke-width="1">
      <line x1="18" y1="148" x2="158" y2="6"/>
      <line x1="52" y1="46" x2="256" y2="72"/>
      <line x1="232" y1="184" x2="28" y2="214"/>
      <line x1="126" y1="228" x2="-18" y2="104"/>
    </g>
    <g stroke="#d1d1d1" stroke-width="1.8">
      <line x1="18" y1="148" x2="52" y2="46"/>
      <line x1="52" y1="46" x2="158" y2="6"/>
      <line x1="158" y1="6" x2="256" y2="72"/>
      <line x1="256" y1="72" x2="232" y2="184"/>
      <line x1="232" y1="184" x2="126" y2="228"/>
      <line x1="126" y1="228" x2="28" y2="214"/>
      <line x1="28" y1="214" x2="-18" y2="104"/>
      <line x1="-18" y1="104" x2="18" y2="148"/>
      <line x1="18" y1="148" x2="158" y2="6"/>
      <line x1="52" y1="46" x2="256" y2="72"/>
      <line x1="256" y1="72" x2="126" y2="228"/>
      <line x1="232" y1="184" x2="28" y2="214"/>
      <line x1="126" y1="228" x2="-18" y2="104"/>
    </g>
    <g class="node">
      <rect x="13" y="143" width="10" height="10"/>
      <rect x="47" y="41" width="10" height="10"/>
      <rect x="153" y="1" width="10" height="10"/>
      <rect x="251" y="67" width="10" height="10"/>
      <rect x="227" y="179" width="10" height="10"/>
      <rect x="121" y="223" width="10" height="10"/>
      <rect x="23" y="209" width="10" height="10"/>
      <rect x="-23" y="99" width="10" height="10"/>
    </g>
    <path class="line" d="M108 126h16 M116 118v16"/>
  </g>

  <g transform="translate(52 476)">
    <rect fill="#090b0d" width="540" height="136"/>
    <g transform="scale(0.9375 0.944444)">
      <use href="#guiHeatBlock" x="0" y="0"/>
      <use href="#guiHeatBlock" x="192" y="0"/>
      <use href="#guiHeatBlock" x="384" y="0"/>
      <use href="#guiHeatBlock" x="0" y="48"/>
      <use href="#guiHeatBlock" x="192" y="48"/>
      <use href="#guiHeatBlock" x="384" y="48"/>
      <use href="#guiHeatBlock" x="0" y="96"/>
      <use href="#guiHeatBlock" x="192" y="96"/>
      <use href="#guiHeatBlock" x="384" y="96"/>
    </g>
  </g>
  <g transform="translate(644 34)">
    <rect class="panel" width="344" height="182"/>
    <rect class="strip" width="344" height="21"/>
    <rect fill="#d1d1d1" width="344" height="2"/>
    <text class="head" x="24" y="16">ENGINE</text>
    <g class="dim">
      <text x="10" y="40">TIME</text><rect class="slider-bg" x="106" y="33" width="150" height="9"/><rect class="slider-fill" x="107" y="34" width="76" height="7"/><text x="276" y="40">480</text>
      <text x="10" y="58">FDBK</text><rect class="slider-bg" x="106" y="51" width="150" height="9"/><rect class="slider-fill" x="107" y="52" width="88" height="7"/><text x="276" y="58">46%</text>
      <text x="10" y="76">MIX</text><rect class="slider-bg" x="106" y="69" width="150" height="9"/><rect class="slider-fill" x="107" y="70" width="104" height="7"/><text x="276" y="76">60%</text>
      <text x="10" y="94">TONE</text><rect class="slider-bg" x="106" y="87" width="150" height="9"/><rect class="slider-fill" x="107" y="88" width="92" height="7"/><text x="276" y="94">52%</text>
      <text x="10" y="112">PITCH</text><rect class="slider-bg" x="106" y="105" width="150" height="9"/><rect class="slider-fill" x="107" y="106" width="75" height="7"/><text x="276" y="112">+0.0</text>
      <text x="10" y="130">CHAR</text><rect class="slider-bg" x="106" y="123" width="150" height="9"/><rect class="slider-fill" x="107" y="124" width="62" height="7"/><text x="276" y="130">38%</text>
      <text x="10" y="148">SMR</text><rect class="slider-bg" x="106" y="141" width="150" height="9"/><rect class="slider-fill" x="107" y="142" width="80" height="7"/><text x="276" y="148">44%</text>
      <text x="10" y="166">OUT</text><rect class="slider-bg" x="106" y="159" width="150" height="9"/><rect class="slider-fill" x="107" y="160" width="75" height="7"/><text x="276" y="166">+0.0</text>
    </g>
  </g>

  <g transform="translate(644 224)">
    <rect class="panel" width="344" height="328"/>
    <rect class="strip" width="344" height="21"/>
    <rect fill="#d1d1d1" width="344" height="2"/>
    <text class="head" x="24" y="16">TOPOLOGY</text>
    <rect class="slider-bg" x="280" y="4" width="54" height="15"/><text class="dim" x="289" y="16">RESET</text>
    <g class="dim">
      <text x="10" y="40">SHAP</text><rect class="slider-bg" x="106" y="29" width="178" height="15"/><text x="114" y="41">POLY</text><text x="272" y="41">v</text>
      <text x="10" y="58">AMT</text><rect class="slider-bg" x="106" y="51" width="150" height="9"/><rect class="slider-fill" x="107" y="52" width="122" height="7"/><text x="276" y="58">82%</text>
      <text x="10" y="76">PULL</text><rect class="slider-bg" x="106" y="69" width="150" height="9"/><rect class="slider-fill" x="107" y="70" width="18" height="7"/><text x="276" y="76">12%</text>
      <text x="10" y="94">X</text><rect class="slider-bg" x="106" y="87" width="150" height="9"/><rect class="slider-fill" x="107" y="88" width="130" height="7"/><text x="276" y="94">+74%</text>
      <text x="10" y="112">Y</text><rect class="slider-bg" x="106" y="105" width="150" height="9"/><rect class="slider-fill" x="107" y="106" width="42" height="7"/><text x="276" y="112">-42%</text>
      <text x="10" y="130">Z</text><rect class="slider-bg" x="106" y="123" width="150" height="9"/><rect class="slider-fill" x="107" y="124" width="142" height="7"/><text x="276" y="130">+86%</text>
      <text x="10" y="148">TWST</text><rect class="slider-bg" x="106" y="141" width="150" height="9"/><rect class="slider-fill" x="107" y="142" width="118" height="7"/><text x="276" y="148">+57%</text>
      <text x="10" y="166">FLAR</text><rect class="slider-bg" x="106" y="159" width="150" height="9"/><rect class="slider-fill" x="107" y="160" width="126" height="7"/><text x="276" y="166">+68%</text>
      <text x="10" y="184">SEED</text><rect class="slider-bg" x="106" y="177" width="150" height="9"/><rect class="slider-fill" x="107" y="178" width="108" height="7"/><text x="276" y="184">72%</text>
      <text x="10" y="202">ANIM</text><rect class="slider-bg" x="106" y="191" width="178" height="15"/><text x="114" y="203">ORBIT</text><text x="272" y="203">v</text>
      <text x="10" y="220">VAR</text><rect class="slider-bg" x="106" y="209" width="178" height="15"/><text x="114" y="221">SKEW</text><text x="272" y="221">v</text>
      <text x="10" y="238">RATE</text><rect class="slider-bg" x="106" y="231" width="150" height="9"/><rect class="slider-fill" x="107" y="232" width="52" height="7"/><text x="276" y="238">0.26</text>
      <text x="10" y="256">DPTH</text><rect class="slider-bg" x="106" y="249" width="150" height="9"/><rect class="slider-fill" x="107" y="250" width="106" height="7"/><text x="276" y="256">71%</text>
      <text x="10" y="274">NBR</text><rect class="slider-bg" x="106" y="263" width="178" height="15"/><text x="114" y="275">3NN</text><text x="272" y="275">v</text>
      <text x="10" y="292">RAD</text><rect class="slider-bg" x="106" y="285" width="150" height="9"/><rect class="slider-fill" x="107" y="286" width="124" height="7"/><text x="276" y="292">83%</text>
      <text x="10" y="310">CENT</text><rect class="slider-bg" x="106" y="303" width="150" height="9"/><rect class="slider-fill" x="107" y="304" width="20" height="7"/><text x="276" y="310">13%</text>
    </g>
  </g>

  <g transform="translate(644 560)">
    <rect class="panel" width="344" height="220"/>
    <rect class="strip" width="344" height="21"/>
    <rect fill="#d1d1d1" width="344" height="2"/>
    <text class="head" x="24" y="16">PATCH MATRIX</text>
    <g class="dim" transform="translate(58 56)">
      <text x="10" y="-14">1</text><text x="32" y="-14">2</text><text x="54" y="-14">3</text><text x="76" y="-14">4</text><text x="98" y="-14">5</text><text x="120" y="-14">6</text><text x="142" y="-14">7</text><text x="164" y="-14">8</text>
      <text x="-28" y="11">I1</text><text x="-28" y="31">I2</text><text x="-28" y="51">I3</text><text x="-28" y="71">I4</text>
      <text x="-28" y="91">I5</text><text x="-28" y="111">I6</text><text x="-28" y="131">I7</text><text x="-28" y="151">I8</text>
      <g>
        <rect class="slider-bg" x="0" y="0" width="16" height="16"/><rect class="slider-bg" x="22" y="0" width="16" height="16"/><rect class="slider-bg" x="44" y="0" width="16" height="16"/><rect class="slider-bg" x="66" y="0" width="16" height="16"/><rect class="slider-bg" x="88" y="0" width="16" height="16"/><rect class="slider-bg" x="110" y="0" width="16" height="16"/><rect class="slider-bg" x="132" y="0" width="16" height="16"/><rect class="slider-bg" x="154" y="0" width="16" height="16"/>
        <rect class="slider-bg" x="0" y="20" width="16" height="16"/><rect class="slider-bg" x="22" y="20" width="16" height="16"/><rect class="slider-bg" x="44" y="20" width="16" height="16"/><rect class="slider-bg" x="66" y="20" width="16" height="16"/><rect class="slider-bg" x="88" y="20" width="16" height="16"/><rect class="slider-bg" x="110" y="20" width="16" height="16"/><rect class="slider-bg" x="132" y="20" width="16" height="16"/><rect class="slider-bg" x="154" y="20" width="16" height="16"/>
        <rect class="slider-bg" x="0" y="40" width="16" height="16"/><rect class="slider-bg" x="22" y="40" width="16" height="16"/><rect class="slider-bg" x="44" y="40" width="16" height="16"/><rect class="slider-bg" x="66" y="40" width="16" height="16"/><rect class="slider-bg" x="88" y="40" width="16" height="16"/><rect class="slider-bg" x="110" y="40" width="16" height="16"/><rect class="slider-bg" x="132" y="40" width="16" height="16"/><rect class="slider-bg" x="154" y="40" width="16" height="16"/>
        <rect class="slider-bg" x="0" y="60" width="16" height="16"/><rect class="slider-bg" x="22" y="60" width="16" height="16"/><rect class="slider-bg" x="44" y="60" width="16" height="16"/><rect class="slider-bg" x="66" y="60" width="16" height="16"/><rect class="slider-bg" x="88" y="60" width="16" height="16"/><rect class="slider-bg" x="110" y="60" width="16" height="16"/><rect class="slider-bg" x="132" y="60" width="16" height="16"/><rect class="slider-bg" x="154" y="60" width="16" height="16"/>
        <rect class="slider-bg" x="0" y="80" width="16" height="16"/><rect class="slider-bg" x="22" y="80" width="16" height="16"/><rect class="slider-bg" x="44" y="80" width="16" height="16"/><rect class="slider-bg" x="66" y="80" width="16" height="16"/><rect class="slider-bg" x="88" y="80" width="16" height="16"/><rect class="slider-bg" x="110" y="80" width="16" height="16"/><rect class="slider-bg" x="132" y="80" width="16" height="16"/><rect class="slider-bg" x="154" y="80" width="16" height="16"/>
        <rect class="slider-bg" x="0" y="100" width="16" height="16"/><rect class="slider-bg" x="22" y="100" width="16" height="16"/><rect class="slider-bg" x="44" y="100" width="16" height="16"/><rect class="slider-bg" x="66" y="100" width="16" height="16"/><rect class="slider-bg" x="88" y="100" width="16" height="16"/><rect class="slider-bg" x="110" y="100" width="16" height="16"/><rect class="slider-bg" x="132" y="100" width="16" height="16"/><rect class="slider-bg" x="154" y="100" width="16" height="16"/>
        <rect class="slider-bg" x="0" y="120" width="16" height="16"/><rect class="slider-bg" x="22" y="120" width="16" height="16"/><rect class="slider-bg" x="44" y="120" width="16" height="16"/><rect class="slider-bg" x="66" y="120" width="16" height="16"/><rect class="slider-bg" x="88" y="120" width="16" height="16"/><rect class="slider-bg" x="110" y="120" width="16" height="16"/><rect class="slider-bg" x="132" y="120" width="16" height="16"/><rect class="slider-bg" x="154" y="120" width="16" height="16"/>
        <rect class="slider-bg" x="0" y="140" width="16" height="16"/><rect class="slider-bg" x="22" y="140" width="16" height="16"/><rect class="slider-bg" x="44" y="140" width="16" height="16"/><rect class="slider-bg" x="66" y="140" width="16" height="16"/><rect class="slider-bg" x="88" y="140" width="16" height="16"/><rect class="slider-bg" x="110" y="140" width="16" height="16"/><rect class="slider-bg" x="132" y="140" width="16" height="16"/><rect class="slider-bg" x="154" y="140" width="16" height="16"/>
      </g>
      <g fill="#d1d1d1">
        <rect x="5" y="5" width="6" height="6"/><rect x="27" y="25" width="6" height="6"/><rect x="49" y="45" width="6" height="6"/><rect x="71" y="65" width="6" height="6"/>
        <rect x="93" y="85" width="6" height="6"/><rect x="115" y="105" width="6" height="6"/><rect x="137" y="125" width="6" height="6"/><rect x="159" y="145" width="6" height="6"/>
      </g>
    </g>
  </g>
</svg>
