<svg xmlns="http://www.w3.org/2000/svg" width="920" height="360" viewBox="0 0 920 360" role="img" aria-labelledby="title desc">
  <title id="title">Topology heatmap visualization example</title>
  <desc id="desc">Example showing a topology point network and a flattened heatmap-style projection of the same topology field.</desc>
  <defs>
    <style>
      text { font-family: Menlo, Consolas, monospace; letter-spacing: 0; }
      .bg { fill: #080909; }
      .panel { fill: #111313; stroke: #303636; stroke-width: 1; }
      .label { fill: #d8ddd8; font-size: 13px; }
      .small { fill: #c6cdc8; font-size: 11px; }
      .muted { fill: #8e9893; font-size: 10px; }
      .line { stroke: #a8afaa; stroke-width: 1.5; fill: none; }
      .soft { stroke: #5a625f; stroke-width: 1; fill: none; }
      .node { fill: #d8ddd8; stroke: #080909; stroke-width: 2; }
      .node-core { fill: #eef4ef; stroke: #080909; stroke-width: 2; }
      .h0 { fill: #08143e; }
      .h1 { fill: #0d2a78; }
      .h2 { fill: #0066b0; }
      .h3 { fill: #008de0; }
      .h4 { fill: #26c5d9; }
      .h5 { fill: #ffe448; }
      .h6 { fill: #ff8a18; }
      .h7 { fill: #ff4f0a; }
      .h8 { fill: #df0000; }
    </style>
    <g id="fineHeatBlock">
      <rect fill="#08143e" x="0" y="0" width="12" height="12"/><rect fill="#0d2a78" x="12" y="0" width="12" height="12"/><rect fill="#0066b0" x="24" y="0" width="12" height="12"/><rect fill="#008de0" x="36" y="0" width="12" height="12"/><rect fill="#26c5d9" x="48" y="0" width="12" height="12"/><rect fill="#ffe448" x="60" y="0" width="12" height="12"/><rect fill="#ff8a18" x="72" y="0" width="12" height="12"/><rect fill="#ffe448" x="84" y="0" width="12" height="12"/><rect fill="#008de0" x="96" y="0" width="12" height="12"/><rect fill="#0d2a78" x="108" y="0" width="12" height="12"/><rect fill="#08143e" x="120" y="0" width="12" height="12"/><rect fill="#0d2a78" x="132" y="0" width="12" height="12"/><rect fill="#0066b0" x="144" y="0" width="12" height="12"/><rect fill="#008de0" x="156" y="0" width="12" height="12"/><rect fill="#0066b0" x="168" y="0" width="12" height="12"/><rect fill="#0d2a78" x="180" y="0" width="12" height="12"/>
      <rect fill="#0d2a78" x="0" y="12" width="12" height="12"/><rect fill="#0066b0" x="12" y="12" width="12" height="12"/><rect fill="#008de0" x="24" y="12" width="12" height="12"/><rect fill="#ffe448" x="36" y="12" width="12" height="12"/><rect fill="#ff4f0a" x="48" y="12" width="12" height="12"/><rect fill="#df0000" x="60" y="12" width="12" height="12"/><rect fill="#ff4f0a" x="72" y="12" width="12" height="12"/><rect fill="#ff8a18" x="84" y="12" width="12" height="12"/><rect fill="#26c5d9" x="96" y="12" width="12" height="12"/><rect fill="#0066b0" x="108" y="12" width="12" height="12"/><rect fill="#0d2a78" x="120" y="12" width="12" height="12"/><rect fill="#0066b0" x="132" y="12" width="12" height="12"/><rect fill="#26c5d9" x="144" y="12" width="12" height="12"/><rect fill="#ff8a18" x="156" y="12" width="12" height="12"/><rect fill="#26c5d9" x="168" y="12" width="12" height="12"/><rect fill="#0066b0" x="180" y="12" width="12" height="12"/>
      <rect fill="#0066b0" x="0" y="24" width="12" height="12"/><rect fill="#008de0" x="12" y="24" width="12" height="12"/><rect fill="#ffe448" x="24" y="24" width="12" height="12"/><rect fill="#ff4f0a" x="36" y="24" width="12" height="12"/><rect fill="#df0000" x="48" y="24" width="12" height="12"/><rect fill="#ff4f0a" x="60" y="24" width="12" height="12"/><rect fill="#ff8a18" x="72" y="24" width="12" height="12"/><rect fill="#26c5d9" x="84" y="24" width="12" height="12"/><rect fill="#008de0" x="96" y="24" width="12" height="12"/><rect fill="#0066b0" x="108" y="24" width="12" height="12"/><rect fill="#0066b0" x="120" y="24" width="12" height="12"/><rect fill="#26c5d9" x="132" y="24" width="12" height="12"/><rect fill="#ff8a18" x="144" y="24" width="12" height="12"/><rect fill="#df0000" x="156" y="24" width="12" height="12"/><rect fill="#ff8a18" x="168" y="24" width="12" height="12"/><rect fill="#008de0" x="180" y="24" width="12" height="12"/>
      <rect fill="#0d2a78" x="0" y="36" width="12" height="12"/><rect fill="#0066b0" x="12" y="36" width="12" height="12"/><rect fill="#26c5d9" x="24" y="36" width="12" height="12"/><rect fill="#ffe448" x="36" y="36" width="12" height="12"/><rect fill="#ff8a18" x="48" y="36" width="12" height="12"/><rect fill="#ffe448" x="60" y="36" width="12" height="12"/><rect fill="#26c5d9" x="72" y="36" width="12" height="12"/><rect fill="#008de0" x="84" y="36" width="12" height="12"/><rect fill="#0066b0" x="96" y="36" width="12" height="12"/><rect fill="#0d2a78" x="108" y="36" width="12" height="12"/><rect fill="#0066b0" x="120" y="36" width="12" height="12"/><rect fill="#008de0" x="132" y="36" width="12" height="12"/><rect fill="#ffe448" x="144" y="36" width="12" height="12"/><rect fill="#ff8a18" x="156" y="36" width="12" height="12"/><rect fill="#ffe448" x="168" y="36" width="12" height="12"/><rect fill="#0066b0" x="180" y="36" width="12" height="12"/>
    </g>
    <marker id="arrow" viewBox="0 0 10 10" refX="8" refY="5" markerWidth="7" markerHeight="7" orient="auto-start-reverse">
      <path d="M 0 0 L 10 5 L 0 10 z" fill="#c6cdc8"/>
    </marker>
  </defs>

  <rect class="bg" width="920" height="360"/>

  <rect class="panel" x="28" y="34" width="306" height="250"/>
  <text class="label" x="48" y="64">TOPOLOGY VIEW</text>
  <text class="small" x="48" y="90">Active lanes become points.</text>
  <text class="small" x="48" y="106">Neighbor links describe relationships.</text>
  <g transform="translate(86 112) scale(0.68)">
    <g stroke="#e5ebe6" stroke-width="2.5">
      <line x1="28" y1="48" x2="90" y2="22"/>
      <line x1="90" y1="22" x2="152" y2="34"/>
      <line x1="152" y1="34" x2="210" y2="82"/>
      <line x1="210" y1="82" x2="194" y2="146"/>
      <line x1="194" y1="146" x2="140" y2="178"/>
      <line x1="140" y1="178" x2="66" y2="160"/>
      <line x1="66" y1="160" x2="18" y2="102"/>
      <line x1="18" y1="102" x2="28" y2="48"/>
      <line x1="28" y1="48" x2="152" y2="34"/>
      <line x1="90" y1="22" x2="210" y2="82"/>
      <line x1="194" y1="146" x2="66" y2="160"/>
      <line x1="140" y1="178" x2="18" y2="102"/>
    </g>
    <g stroke="#a8afaa" stroke-width="1.8">
      <line x1="92" y1="96" x2="116" y2="96"/>
      <line x1="104" y1="84" x2="104" y2="108"/>
    </g>
    <rect class="node" x="20" y="40" width="16" height="16"/>
    <rect class="node" x="82" y="14" width="16" height="16"/>
    <rect class="node" x="144" y="26" width="16" height="16"/>
    <rect class="node" x="202" y="74" width="16" height="16"/>
    <rect class="node" x="186" y="138" width="16" height="16"/>
    <rect class="node" x="132" y="170" width="16" height="16"/>
    <rect class="node" x="58" y="152" width="16" height="16"/>
    <rect class="node" x="10" y="94" width="16" height="16"/>
  </g>
  <text class="muted" x="48" y="260">Editable point/network representation.</text>

  <rect x="360" y="159" width="54" height="2" fill="#a8afaa"/>
  <polygon points="412,153 422,160 412,167" fill="#c6cdc8"/>

  <rect class="panel" x="444" y="34" width="448" height="250"/>
  <text class="label" x="464" y="64">HEATMAP VIEW</text>
  <text class="small" x="464" y="90">Flattened projection of the same field.</text>
  <g transform="translate(468 118)">
    <rect fill="#08143e" x="0" y="0" width="24" height="24"/>
    <rect fill="#0d2a78" x="24" y="0" width="24" height="24"/>
    <rect fill="#0066b0" x="48" y="0" width="24" height="24"/>
    <rect fill="#008de0" x="72" y="0" width="24" height="24"/>
    <rect fill="#26c5d9" x="96" y="0" width="24" height="24"/>
    <rect fill="#ffe448" x="120" y="0" width="24" height="24"/>
    <rect fill="#ff8a18" x="144" y="0" width="24" height="24"/>
    <rect fill="#ffe448" x="168" y="0" width="24" height="24"/>
    <rect fill="#008de0" x="192" y="0" width="24" height="24"/>
    <rect fill="#0d2a78" x="216" y="0" width="24" height="24"/>
    <rect fill="#08143e" x="240" y="0" width="24" height="24"/>
    <rect fill="#0d2a78" x="264" y="0" width="24" height="24"/>
    <rect fill="#0066b0" x="288" y="0" width="24" height="24"/>
    <rect fill="#008de0" x="312" y="0" width="24" height="24"/>
    <rect fill="#0066b0" x="336" y="0" width="24" height="24"/>
    <rect fill="#0d2a78" x="360" y="0" width="24" height="24"/>

    <rect fill="#0d2a78" x="0" y="24" width="24" height="24"/>
    <rect fill="#0066b0" x="24" y="24" width="24" height="24"/>
    <rect fill="#008de0" x="48" y="24" width="24" height="24"/>
    <rect fill="#ffe448" x="72" y="24" width="24" height="24"/>
    <rect fill="#ff4f0a" x="96" y="24" width="24" height="24"/>
    <rect fill="#df0000" x="120" y="24" width="24" height="24"/>
    <rect fill="#ff4f0a" x="144" y="24" width="24" height="24"/>
    <rect fill="#ff8a18" x="168" y="24" width="24" height="24"/>
    <rect fill="#26c5d9" x="192" y="24" width="24" height="24"/>
    <rect fill="#0066b0" x="216" y="24" width="24" height="24"/>
    <rect fill="#0d2a78" x="240" y="24" width="24" height="24"/>
    <rect fill="#0066b0" x="264" y="24" width="24" height="24"/>
    <rect fill="#26c5d9" x="288" y="24" width="24" height="24"/>
    <rect fill="#ff8a18" x="312" y="24" width="24" height="24"/>
    <rect fill="#26c5d9" x="336" y="24" width="24" height="24"/>
    <rect fill="#0066b0" x="360" y="24" width="24" height="24"/>

    <rect fill="#0066b0" x="0" y="48" width="24" height="24"/>
    <rect fill="#008de0" x="24" y="48" width="24" height="24"/>
    <rect fill="#ffe448" x="48" y="48" width="24" height="24"/>
    <rect fill="#ff4f0a" x="72" y="48" width="24" height="24"/>
    <rect fill="#df0000" x="96" y="48" width="24" height="24"/>
    <rect fill="#ff4f0a" x="120" y="48" width="24" height="24"/>
    <rect fill="#ff8a18" x="144" y="48" width="24" height="24"/>
    <rect fill="#26c5d9" x="168" y="48" width="24" height="24"/>
    <rect fill="#008de0" x="192" y="48" width="24" height="24"/>
    <rect fill="#0066b0" x="216" y="48" width="24" height="24"/>
    <rect fill="#0066b0" x="240" y="48" width="24" height="24"/>
    <rect fill="#26c5d9" x="264" y="48" width="24" height="24"/>
    <rect fill="#ff8a18" x="288" y="48" width="24" height="24"/>
    <rect fill="#df0000" x="312" y="48" width="24" height="24"/>
    <rect fill="#ff8a18" x="336" y="48" width="24" height="24"/>
    <rect fill="#008de0" x="360" y="48" width="24" height="24"/>

    <rect fill="#0d2a78" x="0" y="72" width="24" height="24"/>
    <rect fill="#0066b0" x="24" y="72" width="24" height="24"/>
    <rect fill="#26c5d9" x="48" y="72" width="24" height="24"/>
    <rect fill="#ffe448" x="72" y="72" width="24" height="24"/>
    <rect fill="#ff8a18" x="96" y="72" width="24" height="24"/>
    <rect fill="#ffe448" x="120" y="72" width="24" height="24"/>
    <rect fill="#26c5d9" x="144" y="72" width="24" height="24"/>
    <rect fill="#008de0" x="168" y="72" width="24" height="24"/>
    <rect fill="#0066b0" x="192" y="72" width="24" height="24"/>
    <rect fill="#0d2a78" x="216" y="72" width="24" height="24"/>
    <rect fill="#0066b0" x="240" y="72" width="24" height="24"/>
    <rect fill="#008de0" x="264" y="72" width="24" height="24"/>
    <rect fill="#ffe448" x="288" y="72" width="24" height="24"/>
    <rect fill="#ff8a18" x="312" y="72" width="24" height="24"/>
    <rect fill="#ffe448" x="336" y="72" width="24" height="24"/>
    <rect fill="#0066b0" x="360" y="72" width="24" height="24"/>
  </g>
  <g transform="translate(468 118)">
    <use href="#fineHeatBlock"/>
    <use href="#fineHeatBlock" x="192"/>
    <use href="#fineHeatBlock" y="48"/>
    <use href="#fineHeatBlock" x="192" y="48"/>
  </g>
  <text class="muted" x="464" y="244">Color shows projected topology density/influence.</text>
  <text class="muted" x="464" y="262">It is not an audio amplitude, loudness, or output meter.</text>
</svg>
